<?xml version="1.0" encoding="utf-8"?>

<svg title="multiplication" viewBox="-195 -195 390 390" style="width:auto;margin:auto" xmlns="http://www.w3.org/2000/svg" xmlns:xlink="http://www.w3.org/1999/xlink">
  <!--
    this is simply a vflip of multiplication

    problem:
    transform="scale(1 -1)"
    does not work on text, breaks y positions of text
    so ... manual labor

    flip the "sweep-flag"s of arc paths
  -->
  <defs>
    <style type="text/css">
        svg { --fg: black; --bg: white; } /* light mode */
        @media screen {
          @media (prefers-color-scheme: dark) { 
            svg { --fg: white; --bg: black; } /* dark mode */
          }
          [data-darkreader-mode="dynamic"]
            svg { --fg: white; --bg: black; } /* dark mode */
        }
        @media screen {
          @media (prefers-color-scheme: dark) { 
            svg { --fg: #ffffff; --bg: #000000; } /* dark mode */
          }

          [data-darkreader-mode="dynamic"]
            svg { --fg: #ffffff; --bg: #000000; } /* dark mode */
        }

        .fig1 .stroke {
          stroke-width: 2;
          stroke: black; /* fallback when css variables are not supported */
          stroke: var(--fg);
        }

        .nofill {
          fill: none;
        }

        .fillbg {
          fill: white;
          fill: var(--bg);
        }

        .fillfg {
          fill: black;
          fill: var(--fg);
        }
      </style>
  </defs>
  <g class="fig1">
    <g display="none" title="debug" >
      <rect title="viewbox" x="0" y="0" width="400" height="400" transform="translate(-200 -200)" stroke="red" stroke-width="2" fill="none" />
      <rect display="none" title="inner box" x="40" y="150" width="300" height="105" transform="translate(-200 -200) translate(10)" stroke="red" stroke-width="1" fill="none" />
      <line title="ycenter" x1="-999" x2="999" y1="0" y2="0" stroke="red" stroke-width="1"/>
      <line title="xcenter" x1="0" x2="0" y1="-999" y2="999" stroke="red" stroke-width="1"/>
      <circle cx="0" cy="0" r="100" fill="none" stroke="red" />
      <circle cx="0" cy="0" r="140" fill="none" stroke="red" />
    </g>
    <!-- TODO top arc -->
    <circle display="none" cx="0" cy="0" r="130" fill="none" stroke="black" stroke-width="2" />
    <circle display="none" cx="0" cy="0" r="130" fill="none" stroke="black" stroke-width="2" />
    <!-- arc path:
      <path d="M -130 0 A rx ry x-axis-rotation large-arc-flag sweep-flag x y" stroke="black" stroke-width="2">
    -->
    <path title="big arc top" d="M -130 0 m 90 0 h -90 A 130 130 0 0 0 130 0 h -90" fill="none" stroke="black" stroke-width="2"/>

    <g title="">
      <g title="division lines" stroke="black" stroke-width="2">
        <g id="arrowin" transform="scale(-1 -1)">
          <path d="M 0 0 M 0 50 V 80"/>
          <path d="M 0 50 m 10 10 l -10 -10 l -10 10" fill="none" />
        </g>
        <use display="none" xlink:href="#arrowin" transform="rotate(60)"/>
        <use display="none" xlink:href="#arrowin" transform="rotate(-60)"/>
        <use display="none" xlink:href="#arrowin" transform="translate(0 130)"/>
        <!-- TODO arg segment border lines -->
        <g id="segmentborder" transform="scale(-1 -1)">
          <path d="M 0 -40 V -130" transform="rotate(30)"/>
          <path d="M 0 -40 V -130" transform="rotate(-30)"/>
        </g>
        <path id="arrowout" d="M 0 0 M 0 50 V 80 m 10 -10 l -10 10 l -10 -10" fill="none"/>
        <use display="" xlink:href="#arrowout" transform="rotate(60)"/>
        <use display="" xlink:href="#arrowout" transform="rotate(-60)"/>
      </g>
      <g title="" dominant-baseline="middle" text-anchor="middle" font-family="sans" font-size="40" fill="black" class="fillfg">
        <text title="times 3" x="0" y="10">3</text>
        <circle display="none" cx="0" cy="0" r="30" fill="none" stroke="black" stroke-width="2"/> 
        <path title="small arc top" d="M -40 0 A 40 40 0 0 0 40 0" fill="none" stroke="black" stroke-width="2"/>
        <path title="small arc bottom left" d="M -40 0 A 40 40 0 0 0 0 -40" fill="none" stroke="black" stroke-width="2"/>
        <path title="small arc bottom right" d="M 40 0 A 40 40 0 0 1 0 -40" fill="none" stroke="black" stroke-width="2"/>
        <text id="input" transform="translate(0 -110)">6</text>
        <text id="output" transform="translate(0 110)">2</text>
        <use display="none" xlink:href="#output" transform="rotate(60)"/>
        <use display="" xlink:href="#output" transform-origin="0 110" transform="translate(0 -110) rotate(60) translate(0 110) rotate(-60)" />
        <use display="" xlink:href="#output" transform-origin="0 110" transform="translate(0 -110) rotate(-60) translate(0 110) rotate(60)" />
      </g>
    </g>
  </g>
</svg>
