<?xml version="1.0" encoding="UTF-8" standalone="no"?>
<!-- Created with Inkscape (http://www.inkscape.org/) -->

<svg
   xmlns:dc="http://purl.org/dc/elements/1.1/"
   xmlns:cc="http://creativecommons.org/ns#"
   xmlns:rdf="http://www.w3.org/1999/02/22-rdf-syntax-ns#"
   xmlns:svg="http://www.w3.org/2000/svg"
   xmlns="http://www.w3.org/2000/svg"
   xmlns:sodipodi="http://sodipodi.sourceforge.net/DTD/sodipodi-0.dtd"
   xmlns:inkscape="http://www.inkscape.org/namespaces/inkscape"
   width="184.28334mm"
   height="88.772507mm"
   viewBox="0 0 184.28334 88.772507"
   version="1.1"
   id="svg8"
   inkscape:version="0.92.4 5da689c313, 2019-01-14"
   sodipodi:docname="alchi four hands long short 2019-04-02.svg"
   inkscape:export-filename="/home/user/doc/alchi/alchi four hands long short 2019-04-02.svg.png"
   inkscape:export-xdpi="300.02399"
   inkscape:export-ydpi="300.02399">
  <defs
     id="defs2" />
  <sodipodi:namedview
     id="base"
     pagecolor="#ffffff"
     bordercolor="#666666"
     borderopacity="1.0"
     inkscape:pageopacity="0.0"
     inkscape:pageshadow="2"
     inkscape:zoom="1.4"
     inkscape:cx="322.78678"
     inkscape:cy="133.94395"
     inkscape:document-units="mm"
     inkscape:current-layer="layer1"
     showgrid="false"
     inkscape:window-width="1440"
     inkscape:window-height="834"
     inkscape:window-x="0"
     inkscape:window-y="0"
     inkscape:window-maximized="1"
     fit-margin-top="0"
     fit-margin-left="0"
     fit-margin-right="0"
     fit-margin-bottom="0" />
  <metadata
     id="metadata5">
    <rdf:RDF>
      <cc:Work
         rdf:about="">
        <dc:format>image/svg+xml</dc:format>
        <dc:type
           rdf:resource="http://purl.org/dc/dcmitype/StillImage" />
        <dc:title />
      </cc:Work>
    </rdf:RDF>
  </metadata>
  <g
     inkscape:label="Layer 1"
     inkscape:groupmode="layer"
     id="layer1"
     transform="translate(-58.494323,-191.62814)">
    <path
       style="fill:#0000c0;fill-opacity:1;stroke:#000000;stroke-width:0.26458332px;stroke-linecap:butt;stroke-linejoin:miter;stroke-opacity:1"
       d="m 85.022829,270.45474 c 3.908232,-0.0588 8.467756,-0.11249 9.98464,-2.3063 1.224847,-1.36284 4.239625,-5.76086 4.37035,-15.28441 0.07047,-5.1336 0.236234,-13.04018 0.236234,-13.04018 0,0 0.544817,-9.61501 0.576467,-13.25013 0.0324,-3.72441 0.0506,-10.48884 -1.14343,-10.76086 -1.521403,-0.36651 -1.429391,5.20752 -2.21922,9.96993 -0.451603,2.72302 -0.682485,9.08738 -1.74953,8.93838 -1.222602,-0.17072 -0.902727,-9.79576 -1.370165,-15.63877 -0.377974,-4.7247 -1.227201,-12.93422 -2.504091,-12.80394 -1.733114,0.17682 -1.511906,10.48883 -1.464659,15.26079 0.04693,4.73956 -0.0081,12.61495 -1.275668,12.42596 -1.234156,0.1117 -2.267858,-9.68563 -2.645833,-15.35528 -0.377976,-5.66964 -0.09703,-16.68764 -2.362353,-16.81993 -1.069495,-0.0625 -2.316494,3.93968 -2.505483,13.76706 -0.188987,9.82738 1.277062,18.03018 -0.04585,18.40815 -1.307943,0.63254 -2.852591,-6.28862 -4.19213,-14.70667 -1.14056,-7.16761 -1.363479,-13.62134 -3.178407,-13.64154 -1.974366,-0.022 -1.522606,7.28388 -1.044183,14.17215 0.253109,3.64424 0.775155,8.02611 0.930166,11.59803 0.19418,4.47449 0.303006,7.47162 0.303006,9.94857 0,4.53571 0,8.69345 -2.456844,9.63839 -2.456847,0.94494 -4.041187,-5.17771 -5.80328,-8.0577 -2.908172,-4.75315 -7.12337,-8.13997 -6.819783,-5.8701 0.265732,1.98684 2.052108,5.59635 3.825619,10.36945 1.277132,3.43718 2.371848,7.14912 3.789259,11.30687 1.322917,1.5119 7.843965,9.84212 9.354911,10.58333 1.441452,0.70712 4.902262,1.21658 9.410257,1.14875 z"
       id="path32"
       inkscape:connector-curvature="0"
       sodipodi:nodetypes="scscscssssscssscssssssssscss" />
    <path
       sodipodi:nodetypes="cscscsssssssssssssssssssssscc"
       inkscape:connector-curvature="0"
       id="path53"
       d="m 153.3485,256.03086 c -0.85159,-2.20583 -1.23911,-3.06913 -1.16762,-12.59331 0.024,-3.19647 0.0344,-5.11675 0.0344,-5.11675 0.0441,0.0147 -0.22105,-4.13255 -0.46813,-7.93178 -0.28612,-4.39847 -1.68762,-8.01659 1.21025,-8.92338 2.02253,-0.29969 1.66325,2.16733 2.38626,6.12793 0.49569,2.71534 0.79416,7.61884 1.86121,7.46984 1.2226,-0.17072 0.80861,-5.4708 0.86904,-11.33217 0.0439,-4.25698 -0.12541,-9.03384 2.89828,-8.7829 2.66535,0.2212 1.97488,7.77241 1.92763,12.54437 -0.0469,4.73956 0.41108,6.55426 1.27398,6.55963 1.08727,0.007 1.80079,-5.14836 2.04616,-10.8253 0.4023,-9.30766 -0.0176,-11.81314 3.09874,-11.79356 2.9163,0.0183 2.39084,3.90219 2.33271,11.04016 -0.0527,6.46928 -0.75918,11.46352 0.30199,11.56891 0.50877,0.0505 0.79529,-2.64603 2.30335,-11.03553 0.94011,-5.2299 0.3705,-8.79477 3.46328,-8.49103 2.90958,0.28575 2.18841,3.49626 1.97731,8.40688 -0.15689,3.64964 0.0887,10.01647 -0.37745,12.45395 -0.21978,1.14923 -0.37946,3.27295 -0.30398,5.74874 0.0783,2.56755 -0.22191,5.71939 1.32568,6.67272 1.41049,0.86887 2.89773,0.0524 5.52849,-4.35369 3.07831,-5.15564 6.1465,-6.66726 8.34535,-5.33497 2.4309,1.47289 -0.14822,4.54487 -2.3942,8.37303 -1.85552,3.16264 -3.0393,5.85308 -5.23435,8.29616 -1.34267,1.49438 -3.01373,2.36855 -8.97693,4.34673 -2.87023,0.95214 -7.88342,0.86316 -11.67002,1.08667 -3.67122,0.2167 -11.33137,-0.56319 -12.59142,-4.18135 z"
       style="fill:#41ff41;fill-opacity:1;stroke:#000000;stroke-width:0.26458332px;stroke-linecap:butt;stroke-linejoin:miter;stroke-opacity:1" />
    <path
       sodipodi:nodetypes="csssssazscscssssscssscssssc"
       inkscape:connector-curvature="0"
       id="path71"
       d="m 119.80606,238.80348 c 0,4.53571 0,8.69345 -2.45684,9.63839 -2.45685,0.94494 -4.04119,-5.17771 -5.80328,-8.0577 -2.90817,-4.75315 -7.12337,-8.13997 -6.81978,-5.8701 0.26573,1.98684 2.0521,5.59635 3.82562,10.36945 1.27713,3.43718 2.18953,8.76611 5.5265,12.04186 1.08862,1.06865 3.5974,2.04007 5.57974,2.53183 4.21558,1.04578 8.7599,1.39737 13.00637,0.78599 4.24647,-0.61138 8.00273,-1.61956 10.82075,-3.78044 3.19326,-2.44861 2.13257,-12.73085 2.24418,-16.53253 0.24886,-4.41388 0.54482,-9.61501 0.57647,-13.25013 0.0324,-3.72441 0.0506,-10.48884 -1.14343,-10.76086 -1.5214,-0.36651 -1.42939,5.20752 -2.21922,9.96993 -0.4516,2.72302 -0.68248,9.08738 -1.74953,8.93838 -1.2226,-0.17072 -0.90273,-9.79576 -1.37016,-15.63877 -0.37798,-4.7247 -1.2272,-12.93422 -2.50409,-12.80394 -1.73312,0.17682 -1.51191,10.48883 -1.46466,15.26079 0.0469,4.73956 -0.008,12.61495 -1.27567,12.42596 -1.23416,0.1117 -2.26786,-9.68563 -2.64583,-15.35528 -0.37798,-5.66964 -0.097,-16.68764 -2.36236,-16.81993 -1.06949,-0.0625 -2.31649,3.93968 -2.50548,13.76706 -0.18899,9.82738 1.27706,18.03018 -0.0459,18.40815 -1.30794,0.63254 -2.85259,-6.28862 -4.19213,-14.70667 -1.14056,-7.16761 -1.36348,-13.62134 -3.17841,-13.64154 -1.97436,-0.022 -1.5226,7.28388 -1.04418,14.17215 0.25311,3.64424 0.77515,8.02611 0.93017,11.59803 0.19418,4.47449 0.303,7.47162 0.303,9.94857"
       style="fill:#ffff41;fill-opacity:1;stroke:#000000;stroke-width:0.26458332px;stroke-linecap:butt;stroke-linejoin:miter;stroke-opacity:1" />
    <path
       style="fill:none;stroke:#000000;stroke-width:0.26458332px;stroke-linecap:butt;stroke-linejoin:miter;stroke-opacity:1"
       d="m 164.51414,209.593 h 57.0744"
       id="path153"
       inkscape:connector-curvature="0" />
    <path
       style="fill:none;stroke:#000000;stroke-width:0.26458332px;stroke-linecap:butt;stroke-linejoin:miter;stroke-opacity:1"
       d="M 134.37053,200.0491 H 77.863093"
       id="path155"
       inkscape:connector-curvature="0" />
    <path
       style="fill:none;stroke:#000000;stroke-width:0.26458332px;stroke-linecap:butt;stroke-linejoin:miter;stroke-opacity:1"
       d="m 119.44047,262.0372 h 57.64137"
       id="path157"
       inkscape:connector-curvature="0" />
    <path
       style="fill:none;stroke:#000000;stroke-width:0.26458332px;stroke-linecap:butt;stroke-linejoin:miter;stroke-opacity:1"
       d="M 74.272322,272.62052 H 224.51785"
       id="path159"
       inkscape:connector-curvature="0" />
    <path
       style="fill:none;stroke:#ffffff;stroke-width:0.26458332px;stroke-linecap:butt;stroke-linejoin:miter;stroke-opacity:1"
       d="M 77.437871,235.4388 H 91.092262"
       id="path177"
       inkscape:connector-curvature="0" />
    <path
       inkscape:connector-curvature="0"
       id="path179"
       d="m 123.75497,235.4388 h 13.65439"
       style="fill:none;stroke:#000000;stroke-width:0.26458332px;stroke-linecap:butt;stroke-linejoin:miter;stroke-opacity:1" />
    <path
       style="fill:none;stroke:#000000;stroke-width:0.26458332px;stroke-linecap:butt;stroke-linejoin:miter;stroke-opacity:1"
       d="m 160.63816,235.4388 h 13.65439"
       id="path181"
       inkscape:connector-curvature="0" />
    <g
       id="g38">
      <path
         style="fill:#c00000;fill-opacity:1;stroke:#000000;stroke-width:0.26458332px;stroke-linecap:butt;stroke-linejoin:miter;stroke-opacity:1"
         d="m 199.62933,243.65017 c 0.024,-3.19647 0.0344,-5.11675 0.0344,-5.11675 0.0441,0.0147 -0.22105,-4.13255 -0.46813,-7.93178 -0.28612,-4.39847 -1.68762,-8.01659 1.21025,-8.92338 2.02253,-0.29969 1.66325,2.16733 2.38626,6.12793 0.49569,2.71534 0.72161,7.36738 1.78866,7.21838 1.2226,-0.17072 0.88116,-5.21934 0.94159,-11.08071 0.0439,-4.25698 -0.12541,-9.03384 2.89828,-8.7829 2.66535,0.2212 1.97488,7.77241 1.92763,12.54437 -0.0469,4.73956 0.33853,6.3028 1.20143,6.30817 1.08727,0.007 1.87334,-4.8969 2.11871,-10.57384 0.4023,-9.30766 -0.0176,-11.81314 3.09874,-11.79356 2.9163,0.0183 2.39084,3.90219 2.33271,11.04016 -0.0527,6.46928 -0.76491,11.24547 0.29626,11.35086 0.50877,0.0505 0.80102,-2.42798 2.30908,-10.81748 0.94011,-5.2299 0.3705,-8.79477 3.46328,-8.49103 2.90958,0.28575 2.18841,3.49626 1.97731,8.40688 -0.15689,3.64964 0.0887,10.01647 -0.37745,12.45395 -0.21978,1.14923 -0.37946,3.27295 -0.30398,5.74874 0.0783,2.56755 -0.22191,5.71939 1.32568,6.67272 1.41049,0.86887 2.89773,0.0524 5.52849,-4.35369 3.07831,-5.15564 6.1465,-6.66726 8.34535,-5.33497 2.4309,1.47289 -0.14822,4.54487 -2.3942,8.37303 -1.85552,3.16264 -3.24516,5.73682 -5.84583,10.5822 -2.07113,3.85878 -8.45545,12.12816 -9.96639,12.86937 -1.44146,0.70712 -4.90227,1.21658 -9.41026,1.14875 -3.90823,-0.0588 -8.46776,-0.11249 -9.98464,-2.3063 -1.22485,-1.36284 -4.23963,-5.76086 -4.37035,-15.28441 -0.0705,-5.1336 -0.0629,-10.05471 -0.0629,-10.05471 z"
         id="path65"
         inkscape:connector-curvature="0"
         sodipodi:nodetypes="ccscsssssssssssssssssssssscccc" />
      <text
         id="text1034"
         y="254.26575"
         x="212.44946"
         style="font-style:normal;font-variant:normal;font-weight:normal;font-stretch:normal;font-size:11.28888893px;line-height:1.25;font-family:monospace;-inkscape-font-specification:monospace;letter-spacing:0px;word-spacing:0px;fill:#000000;fill-opacity:1;stroke:none;stroke-width:0.26458332"
         xml:space="preserve"><tspan
           style="font-size:9.87777805px;fill:#ffffff;stroke-width:0.26458332"
           y="254.26575"
           x="212.44946"
           id="tspan1032"
           sodipodi:role="line">1</tspan></text>
    </g>
    <path
       inkscape:connector-curvature="0"
       id="path183"
       d="m 208.34577,235.4388 h 13.65439"
       style="fill:none;stroke:#ffffff;stroke-width:0.26458332px;stroke-linecap:butt;stroke-linejoin:miter;stroke-opacity:1" />
    <text
       xml:space="preserve"
       style="font-style:normal;font-variant:normal;font-weight:normal;font-stretch:normal;font-size:7.76111126px;line-height:1.25;font-family:monospace;-inkscape-font-specification:monospace;letter-spacing:0px;word-spacing:0px;fill:#000000;fill-opacity:1;stroke:none;stroke-width:0.26458332"
       x="131.36296"
       y="279.22656"
       id="text992"><tspan
         sodipodi:role="line"
         id="tspan990"
         x="131.36296"
         y="279.22656"
         style="font-size:5.64444447px;stroke-width:0.26458332">Psychotics</tspan></text>
    <text
       id="text996"
       y="268.80304"
       x="133.10022"
       style="font-style:normal;font-variant:normal;font-weight:normal;font-stretch:normal;font-size:7.76111126px;line-height:1.25;font-family:monospace;-inkscape-font-specification:monospace;letter-spacing:0px;word-spacing:0px;fill:#000000;fill-opacity:1;stroke:none;stroke-width:0.26458332"
       xml:space="preserve"><tspan
         style="font-size:5.64444447px;stroke-width:0.26458332"
         y="268.80304"
         x="133.10022"
         id="tspan994"
         sodipodi:role="line">Neurotics</tspan></text>
    <text
       xml:space="preserve"
       style="font-style:normal;font-variant:normal;font-weight:normal;font-stretch:normal;font-size:7.76111126px;line-height:1.25;font-family:monospace;-inkscape-font-specification:monospace;letter-spacing:0px;word-spacing:0px;fill:#000000;fill-opacity:1;stroke:none;stroke-width:0.26458332"
       x="89.252174"
       y="195.9166"
       id="text1000"><tspan
         sodipodi:role="line"
         id="tspan998"
         x="89.252174"
         y="195.9166"
         style="font-size:5.64444447px;stroke-width:0.26458332">Romantics</tspan></text>
    <text
       xml:space="preserve"
       style="font-style:normal;font-variant:normal;font-weight:normal;font-stretch:normal;font-size:4.93888855px;line-height:1.25;font-family:monospace;-inkscape-font-specification:monospace;letter-spacing:0px;word-spacing:0px;fill:#000000;fill-opacity:1;stroke:none;stroke-width:0.26458332"
       x="179.95232"
       y="206.16241"
       id="text1014"><tspan
         sodipodi:role="line"
         x="179.95232"
         y="206.16241"
         style="stroke-width:0.26458332"
         id="tspan1016">Classics</tspan></text>
    <text
       xml:space="preserve"
       style="font-style:normal;font-variant:normal;font-weight:normal;font-stretch:normal;font-size:12.69999981px;line-height:1.25;font-family:monospace;-inkscape-font-specification:monospace;letter-spacing:0px;word-spacing:0px;fill:#000000;fill-opacity:1;stroke:none;stroke-width:0.26458332"
       x="82.095177"
       y="254.44247"
       id="text1022"><tspan
         sodipodi:role="line"
         id="tspan1020"
         x="82.095177"
         y="254.44247"
         style="font-size:9.87777805px;fill:#ffffff;stroke-width:0.26458332">4</tspan></text>
    <text
       xml:space="preserve"
       style="font-style:normal;font-variant:normal;font-weight:normal;font-stretch:normal;font-size:12.69999981px;line-height:1.25;font-family:monospace;-inkscape-font-specification:monospace;letter-spacing:0px;word-spacing:0px;fill:#000000;fill-opacity:1;stroke:none;stroke-width:0.26458332"
       x="128.98831"
       y="249.74742"
       id="text1026"><tspan
         sodipodi:role="line"
         id="tspan1024"
         x="128.98831"
         y="249.74742"
         style="font-size:9.87777805px;stroke-width:0.26458332">3</tspan></text>
    <text
       xml:space="preserve"
       style="font-style:normal;font-variant:normal;font-weight:normal;font-stretch:normal;font-size:11.28888893px;line-height:1.25;font-family:monospace;-inkscape-font-specification:monospace;letter-spacing:0px;word-spacing:0px;fill:#000000;fill-opacity:1;stroke:none;stroke-width:0.26458332"
       x="164.43309"
       y="249.73235"
       id="text1030"><tspan
         sodipodi:role="line"
         id="tspan1028"
         x="164.43309"
         y="249.73235"
         style="font-size:9.87777805px;stroke-width:0.26458332">2</tspan></text>
  </g>
</svg>
