<?xml version="1.0" encoding="UTF-8" standalone="no"?>
<!-- Created with Inkscape (http://www.inkscape.org/) -->

<svg
   xmlns:dc="http://purl.org/dc/elements/1.1/"
   xmlns:cc="http://creativecommons.org/ns#"
   xmlns:rdf="http://www.w3.org/1999/02/22-rdf-syntax-ns#"
   xmlns:svg="http://www.w3.org/2000/svg"
   xmlns="http://www.w3.org/2000/svg"
   xmlns:sodipodi="http://sodipodi.sourceforge.net/DTD/sodipodi-0.dtd"
   xmlns:inkscape="http://www.inkscape.org/namespaces/inkscape"
   width="140.8772mm"
   height="208.4118mm"
   viewBox="0 0 140.8772 208.4118"
   version="1.1"
   id="svg8"
   inkscape:version="0.92.4 5da689c313, 2019-01-14"
   sodipodi:docname="alchi four elements signs with pathos 2019-04-11.svg"
   inkscape:export-filename="/home/user/doc/alchi/alchi four elements signs with pathos 2019-04-11.svg.png"
   inkscape:export-xdpi="300.02399"
   inkscape:export-ydpi="300.02399">
  <defs
     id="defs2" />
  <sodipodi:namedview
     id="base"
     pagecolor="#ffffff"
     bordercolor="#666666"
     borderopacity="1.0"
     inkscape:pageopacity="0.0"
     inkscape:pageshadow="2"
     inkscape:zoom="0.5"
     inkscape:cx="102.22189"
     inkscape:cy="464.55063"
     inkscape:document-units="mm"
     inkscape:current-layer="layer1"
     showgrid="false"
     inkscape:window-width="1440"
     inkscape:window-height="834"
     inkscape:window-x="0"
     inkscape:window-y="0"
     inkscape:window-maximized="1"
     showguides="true"
     inkscape:guide-bbox="true"
     fit-margin-top="0"
     fit-margin-left="0"
     fit-margin-right="0"
     fit-margin-bottom="0">
    <sodipodi:guide
       position="19.560742,161.13019"
       orientation="1,0"
       id="guide518"
       inkscape:locked="false" />
    <sodipodi:guide
       position="70.29958,120.96522"
       orientation="1,0"
       id="guide520"
       inkscape:locked="false" />
    <sodipodi:guide
       position="121.0413,121.28699"
       orientation="1,0"
       id="guide522"
       inkscape:locked="false" />
    <sodipodi:guide
       position="171.78692,110.21963"
       orientation="1,0"
       id="guide524"
       inkscape:locked="false" />
    <sodipodi:guide
       position="72.936133,149.37368"
       orientation="0,1"
       id="guide538"
       inkscape:locked="false" />
    <sodipodi:guide
       position="73.988507,157.72251"
       orientation="0,1"
       id="guide552"
       inkscape:locked="false" />
    <sodipodi:guide
       position="22.674584,107.92622"
       orientation="0,1"
       id="guide556"
       inkscape:locked="false" />
    <sodipodi:guide
       position="19.511986,99.576338"
       orientation="0,1"
       id="guide558"
       inkscape:locked="false" />
    <sodipodi:guide
       position="127.28538,49.77235"
       orientation="0,1"
       id="guide560"
       inkscape:locked="false" />
    <sodipodi:guide
       position="123.56557,-4.6740307e-06"
       orientation="0,1"
       id="guide562"
       inkscape:locked="false" />
    <sodipodi:guide
       position="-9.3361035,218.99404"
       orientation="0,1"
       id="guide600"
       inkscape:locked="false" />
    <sodipodi:guide
       position="1.8139405e-07,211.63358"
       orientation="1,0"
       id="guide630"
       inkscape:locked="false" />
    <sodipodi:guide
       position="39.09942,211.62014"
       orientation="1,0"
       id="guide632"
       inkscape:locked="false" />
    <sodipodi:guide
       position="53.283056,211.56896"
       orientation="1,0"
       id="guide636"
       inkscape:locked="false" />
    <sodipodi:guide
       position="87.299058,211.63255"
       orientation="1,0"
       id="guide638"
       inkscape:locked="false" />
    <sodipodi:guide
       position="101.48114,211.62118"
       orientation="1,0"
       id="guide640"
       inkscape:locked="false" />
    <sodipodi:guide
       position="140.87718,211.63565"
       orientation="1,0"
       id="guide642"
       inkscape:locked="false" />
  </sodipodi:namedview>
  <metadata
     id="metadata5">
    <rdf:RDF>
      <cc:Work
         rdf:about="">
        <dc:format>image/svg+xml</dc:format>
        <dc:type
           rdf:resource="http://purl.org/dc/dcmitype/StillImage" />
        <dc:title />
      </cc:Work>
    </rdf:RDF>
  </metadata>
  <g
     inkscape:label="Layer 1"
     inkscape:groupmode="layer"
     id="layer1"
     transform="translate(-7.0910399,-20.401131)">
    <path
       style="opacity:1;fill:#c00000;fill-opacity:1;stroke:#000000;stroke-width:0.6850456;stroke-miterlimit:4;stroke-dasharray:none;stroke-dashoffset:0"
       d="m 85.676411,62.82142 v 0 c 4.576117,2e-6 8.285795,-3.709674 8.285794,-8.285791 0,-4.576117 -3.709677,-8.285792 -8.285794,-8.28579 -4.576116,-1e-6 -8.285791,3.709674 -8.285789,8.28579 1e-6,-4.576116 -3.709674,-8.285791 -8.28579,-8.28579 -4.576115,0 -8.28579,3.709675 -8.28579,8.28579 -1e-6,4.576116 3.709674,8.285791 8.28579,8.285791 v 0 c 4.576116,-1e-6 8.285792,3.709675 8.28579,8.285791 -3e-6,-4.576116 3.709673,-8.285792 8.285789,-8.285791 z"
       id="use42"
       inkscape:connector-curvature="0"
       sodipodi:nodetypes="ccsscsscccc" />
    <g
       id="g230">
      <path
         style="opacity:1;fill:none;fill-opacity:1;stroke:#000000;stroke-width:0.6850456;stroke-miterlimit:4;stroke-dasharray:none;stroke-dashoffset:0"
         d="m 128.13593,54.541243 a 8.28579,8.28579 0 0 1 -8.28579,8.285791 8.28579,8.28579 0 0 1 -8.28579,-8.285791 8.28579,8.28579 0 0 1 8.28579,-8.28579 8.28579,8.28579 0 0 1 8.28579,8.28579 z"
         id="path147"
         inkscape:connector-curvature="0" />
      <path
         style="opacity:1;fill:none;fill-opacity:1;stroke:#000000;stroke-width:0.6850456;stroke-miterlimit:4;stroke-dasharray:none;stroke-dashoffset:0"
         d="m 144.70751,54.541243 a 8.28579,8.28579 0 0 1 -8.28579,8.285791 8.28579,8.28579 0 0 1 -8.28579,-8.285791 8.28579,8.28579 0 0 1 8.28579,-8.28579 8.28579,8.28579 0 0 1 8.28579,8.28579 z"
         id="path153"
         inkscape:connector-curvature="0" />
    </g>
    <g
       id="g238"
       transform="translate(-152.22644)">
      <path
         sodipodi:nodetypes="cc"
         style="opacity:1;fill:none;fill-opacity:1;stroke:#000000;stroke-width:0.6850456;stroke-miterlimit:4;stroke-dasharray:none;stroke-dashoffset:0"
         d="m 178.87823,37.990373 c 0,4.576115 -3.70967,8.28579 -8.28579,8.28579"
         id="path159"
         inkscape:connector-curvature="0" />
      <path
         sodipodi:nodetypes="csc"
         style="opacity:1;fill:none;fill-opacity:1;stroke:#000000;stroke-width:0.6850456;stroke-miterlimit:4;stroke-dasharray:none;stroke-dashoffset:0"
         d="m 170.59244,62.847743 c -4.57612,0 -8.28579,-3.709675 -8.28579,-8.285791 0,-4.576115 3.70967,-8.28579 8.28579,-8.28579"
         id="path161"
         inkscape:connector-curvature="0" />
      <path
         sodipodi:nodetypes="cc"
         style="opacity:1;fill:none;fill-opacity:1;stroke:#000000;stroke-width:0.6850456;stroke-miterlimit:4;stroke-dasharray:none;stroke-dashoffset:0"
         d="m 170.59244,62.847743 c 4.57612,0 8.28579,3.709675 8.28579,8.285791"
         id="path163"
         inkscape:connector-curvature="0" />
      <path
         sodipodi:nodetypes="cc"
         style="opacity:1;fill:none;fill-opacity:1;stroke:#000000;stroke-width:0.6850456;stroke-miterlimit:4;stroke-dasharray:none;stroke-dashoffset:0"
         d="m 187.16402,46.276163 c -4.57612,6e-6 -8.2858,-3.709671 -8.2858,-8.28579"
         id="path165"
         inkscape:connector-curvature="0" />
      <path
         sodipodi:nodetypes="csc"
         style="opacity:1;fill:none;fill-opacity:1;stroke:#000000;stroke-width:0.6850456;stroke-miterlimit:4;stroke-dasharray:none;stroke-dashoffset:0"
         d="m 187.16402,46.276162 c 4.57612,0 8.28579,3.709675 8.28579,8.28579 0,4.576116 -3.70967,8.285791 -8.28579,8.285791"
         id="path167"
         inkscape:connector-curvature="0" />
      <path
         sodipodi:nodetypes="cc"
         style="opacity:1;fill:none;fill-opacity:1;stroke:#000000;stroke-width:0.6850456;stroke-miterlimit:4;stroke-dasharray:none;stroke-dashoffset:0"
         d="m 178.87822,71.133534 c 0,-4.57612 3.70968,-8.285797 8.2858,-8.285791"
         id="path169"
         inkscape:connector-curvature="0" />
    </g>
    <path
       sodipodi:nodetypes="sscccsscs"
       style="opacity:1;fill:#41ff41;fill-opacity:1;stroke:#000000;stroke-width:0.6850456;stroke-miterlimit:4;stroke-dasharray:none;stroke-dashoffset:0"
       d="m 85.679398,112.56819 c 4.576117,0 8.285795,-3.70967 8.285794,-8.28579 0,-4.576116 -3.709677,-8.285791 -8.285794,-8.285789 -4.576116,2e-6 -8.285791,-3.709673 -8.28579,-8.285789 2e-6,4.576116 -3.709673,8.285791 -8.285789,8.285789 -4.576115,0 -8.28579,3.709675 -8.28579,8.285789 -10e-7,4.57612 3.709674,8.28579 8.28579,8.28579 4.576116,0 8.285792,-3.70967 8.285789,-8.28579 -2e-6,4.57612 3.709674,8.28579 8.28579,8.28579 z"
       id="path326"
       inkscape:connector-curvature="0" />
    <g
       id="g336"
       transform="translate(0,49.762549)">
      <path
         inkscape:connector-curvature="0"
         id="path332"
         d="m 128.13593,54.541243 a 8.28579,8.28579 0 0 1 -8.28579,8.285791 8.28579,8.28579 0 0 1 -8.28579,-8.285791 8.28579,8.28579 0 0 1 8.28579,-8.28579 8.28579,8.28579 0 0 1 8.28579,8.28579 z"
         style="opacity:1;fill:none;fill-opacity:1;stroke:#000000;stroke-width:0.6850456;stroke-miterlimit:4;stroke-dasharray:none;stroke-dashoffset:0" />
      <path
         inkscape:connector-curvature="0"
         id="path334"
         d="m 144.70751,54.541243 a 8.28579,8.28579 0 0 1 -8.28579,8.285791 8.28579,8.28579 0 0 1 -8.28579,-8.285791 8.28579,8.28579 0 0 1 8.28579,-8.28579 8.28579,8.28579 0 0 1 8.28579,8.28579 z"
         style="opacity:1;fill:none;fill-opacity:1;stroke:#000000;stroke-width:0.6850456;stroke-miterlimit:4;stroke-dasharray:none;stroke-dashoffset:0" />
    </g>
    <g
       id="g350"
       transform="translate(-152.22645,49.762549)">
      <path
         inkscape:connector-curvature="0"
         id="path338"
         d="m 178.87823,37.990373 c 0,4.576115 -3.70967,8.28579 -8.28579,8.28579"
         style="opacity:1;fill:none;fill-opacity:1;stroke:#000000;stroke-width:0.6850456;stroke-miterlimit:4;stroke-dasharray:none;stroke-dashoffset:0"
         sodipodi:nodetypes="cc" />
      <path
         inkscape:connector-curvature="0"
         id="path340"
         d="m 170.59244,62.847743 c -4.57612,0 -8.28579,-3.709675 -8.28579,-8.285791 0,-4.576115 3.70967,-8.28579 8.28579,-8.28579"
         style="opacity:1;fill:none;fill-opacity:1;stroke:#000000;stroke-width:0.6850456;stroke-miterlimit:4;stroke-dasharray:none;stroke-dashoffset:0"
         sodipodi:nodetypes="csc" />
      <path
         inkscape:connector-curvature="0"
         id="path342"
         d="m 170.59244,62.847743 c 4.57612,0 8.28579,3.709675 8.28579,8.285791"
         style="opacity:1;fill:none;fill-opacity:1;stroke:#000000;stroke-width:0.6850456;stroke-miterlimit:4;stroke-dasharray:none;stroke-dashoffset:0"
         sodipodi:nodetypes="cc" />
      <path
         inkscape:connector-curvature="0"
         id="path344"
         d="m 187.16402,46.276163 c -4.57612,6e-6 -8.2858,-3.709671 -8.2858,-8.28579"
         style="opacity:1;fill:none;fill-opacity:1;stroke:#000000;stroke-width:0.6850456;stroke-miterlimit:4;stroke-dasharray:none;stroke-dashoffset:0"
         sodipodi:nodetypes="cc" />
      <path
         inkscape:connector-curvature="0"
         id="path346"
         d="m 187.16402,46.276162 c 4.57612,0 8.28579,3.709675 8.28579,8.28579 0,4.576116 -3.70967,8.285791 -8.28579,8.285791"
         style="opacity:1;fill:none;fill-opacity:1;stroke:#000000;stroke-width:0.6850456;stroke-miterlimit:4;stroke-dasharray:none;stroke-dashoffset:0"
         sodipodi:nodetypes="csc" />
      <path
         inkscape:connector-curvature="0"
         id="path348"
         d="m 178.87822,71.133534 c 0,-4.57612 3.70968,-8.285797 8.2858,-8.285791"
         style="opacity:1;fill:none;fill-opacity:1;stroke:#000000;stroke-width:0.6850456;stroke-miterlimit:4;stroke-dasharray:none;stroke-dashoffset:0"
         sodipodi:nodetypes="cc" />
    </g>
    <g
       id="g362"
       transform="translate(101.48136,99.582768)">
      <path
         style="opacity:1;fill:none;fill-opacity:1;stroke:#000000;stroke-width:0.6850456;stroke-miterlimit:4;stroke-dasharray:none;stroke-dashoffset:0"
         d="m 18.365508,62.82142 c -4.576116,0 -8.285791,-3.709675 -8.28579,-8.285791 0,-4.576115 3.709675,-8.28579 8.28579,-8.28579 4.576116,-1e-6 8.285791,3.709674 8.285791,8.28579"
         id="path354"
         inkscape:connector-curvature="0"
         sodipodi:nodetypes="cssc" />
      <path
         style="opacity:1;fill:none;fill-opacity:1;stroke:#000000;stroke-width:0.6850456;stroke-miterlimit:4;stroke-dasharray:none;stroke-dashoffset:0"
         d="m 18.365508,62.82142 c 4.576116,-1e-6 8.285792,3.709675 8.285791,8.285791"
         id="path356"
         inkscape:connector-curvature="0"
         sodipodi:nodetypes="cc" />
      <path
         style="opacity:1;fill:none;fill-opacity:1;stroke:#000000;stroke-width:0.6850456;stroke-miterlimit:4;stroke-dasharray:none;stroke-dashoffset:0"
         d="m 26.651296,54.535629 c 0,-4.576116 3.709675,-8.285791 8.285791,-8.28579 4.576117,-2e-6 8.285794,3.709673 8.285794,8.28579 10e-7,4.576117 -3.709677,8.285793 -8.285794,8.285791"
         id="path358"
         inkscape:connector-curvature="0"
         sodipodi:nodetypes="cssc" />
      <path
         style="opacity:1;fill:none;fill-opacity:1;stroke:#000000;stroke-width:0.6850456;stroke-miterlimit:4;stroke-dasharray:none;stroke-dashoffset:0"
         d="m 26.651296,71.107211 c -10e-7,-4.576116 3.709675,-8.285792 8.285791,-8.285791"
         id="path360"
         inkscape:connector-curvature="0"
         sodipodi:nodetypes="cc" />
    </g>
    <g
       id="g372"
       transform="translate(-50.745307,99.582768)">
      <path
         inkscape:connector-curvature="0"
         id="path364"
         d="m 77.39361,37.948273 c 0,4.576116 -3.709675,8.285791 -8.285791,8.28579"
         style="opacity:1;fill:none;fill-opacity:1;stroke:#000000;stroke-width:0.6850456;stroke-miterlimit:4;stroke-dasharray:none;stroke-dashoffset:0"
         sodipodi:nodetypes="cc" />
      <path
         inkscape:connector-curvature="0"
         id="path366"
         d="m 77.39361,54.519852 c 1e-6,4.576116 -3.709675,8.285792 -8.285791,8.285791 -4.576116,0 -8.285791,-3.709675 -8.28579,-8.285791 0,-4.576115 3.709675,-8.28579 8.28579,-8.28579"
         style="opacity:1;fill:none;fill-opacity:1;stroke:#000000;stroke-width:0.6850456;stroke-miterlimit:4;stroke-dasharray:none;stroke-dashoffset:0"
         sodipodi:nodetypes="cssc" />
      <path
         inkscape:connector-curvature="0"
         id="path368"
         d="m 85.679398,46.234063 c -4.576116,10e-7 -8.285791,-3.709674 -8.285791,-8.28579"
         style="opacity:1;fill:none;fill-opacity:1;stroke:#000000;stroke-width:0.6850456;stroke-miterlimit:4;stroke-dasharray:none;stroke-dashoffset:0"
         sodipodi:nodetypes="cc" />
      <path
         inkscape:connector-curvature="0"
         id="path370"
         d="m 85.679398,46.234062 c 4.576117,-2e-6 8.285794,3.709673 8.285794,8.28579 10e-7,4.576117 -3.709677,8.285793 -8.285794,8.285791 -4.576116,10e-7 -8.285792,-3.709675 -8.285791,-8.285791"
         style="opacity:1;fill:none;fill-opacity:1;stroke:#000000;stroke-width:0.6850456;stroke-miterlimit:4;stroke-dasharray:none;stroke-dashoffset:0"
         sodipodi:nodetypes="cssc" />
    </g>
    <g
       id="g378"
       transform="translate(-50.745307,99.582768)">
      <path
         inkscape:connector-curvature="0"
         id="path374"
         d="m 119.85014,62.827034 c -4.57612,0 -8.28579,-3.709675 -8.28579,-8.285791 0,-4.576115 3.70967,-8.28579 8.28579,-8.28579 4.57612,0 8.28579,3.709675 8.28579,8.28579 0,-4.576115 3.70967,-8.28579 8.28579,-8.28579 4.57612,0 8.28579,3.709675 8.28579,8.28579 0,4.576116 -3.70967,8.285791 -8.28579,8.285791 -4.57612,0 -8.28579,-3.709675 -8.28579,-8.285791 0,4.576116 -3.70967,8.285791 -8.28579,8.285791 z"
         style="opacity:1;fill:#ffff41;fill-opacity:1;stroke:#000000;stroke-width:0.6850456;stroke-miterlimit:4;stroke-dasharray:none;stroke-dashoffset:0"
         sodipodi:nodetypes="ssscssscs" />
    </g>
    <g
       id="g404"
       transform="translate(101.48136,149.35571)">
      <path
         style="opacity:1;fill:none;fill-opacity:1;stroke:#000000;stroke-width:0.6850456;stroke-miterlimit:4;stroke-dasharray:none;stroke-dashoffset:0"
         d="m 18.365508,62.82142 c -4.576116,0 -8.285791,-3.709675 -8.28579,-8.285791 0,-4.576115 3.709675,-8.28579 8.28579,-8.28579 4.576116,-1e-6 8.285791,3.709674 8.285791,8.28579"
         id="path396"
         inkscape:connector-curvature="0"
         sodipodi:nodetypes="cssc" />
      <path
         style="opacity:1;fill:none;fill-opacity:1;stroke:#000000;stroke-width:0.6850456;stroke-miterlimit:4;stroke-dasharray:none;stroke-dashoffset:0"
         d="m 18.365508,62.82142 c 4.576116,-1e-6 8.285792,3.709675 8.285791,8.285791"
         id="path398"
         inkscape:connector-curvature="0"
         sodipodi:nodetypes="cc" />
      <path
         style="opacity:1;fill:none;fill-opacity:1;stroke:#000000;stroke-width:0.6850456;stroke-miterlimit:4;stroke-dasharray:none;stroke-dashoffset:0"
         d="m 26.651296,54.535629 c 0,-4.576116 3.709675,-8.285791 8.285791,-8.28579 4.576117,-2e-6 8.285794,3.709673 8.285794,8.28579 10e-7,4.576117 -3.709677,8.285793 -8.285794,8.285791"
         id="path400"
         inkscape:connector-curvature="0"
         sodipodi:nodetypes="cssc" />
      <path
         style="opacity:1;fill:none;fill-opacity:1;stroke:#000000;stroke-width:0.6850456;stroke-miterlimit:4;stroke-dasharray:none;stroke-dashoffset:0"
         d="m 26.651296,71.107211 c -10e-7,-4.576116 3.709675,-8.285792 8.285791,-8.285791"
         id="path402"
         inkscape:connector-curvature="0"
         sodipodi:nodetypes="cc" />
    </g>
    <g
       id="g414"
       transform="translate(-50.745307,149.35571)">
      <path
         inkscape:connector-curvature="0"
         id="path406"
         d="m 77.39361,37.948273 c 0,4.576116 -3.709675,8.285791 -8.285791,8.28579"
         style="opacity:1;fill:none;fill-opacity:1;stroke:#000000;stroke-width:0.6850456;stroke-miterlimit:4;stroke-dasharray:none;stroke-dashoffset:0"
         sodipodi:nodetypes="cc" />
      <path
         inkscape:connector-curvature="0"
         id="path408"
         d="m 77.39361,54.519852 c 1e-6,4.576116 -3.709675,8.285792 -8.285791,8.285791 -4.576116,0 -8.285791,-3.709675 -8.28579,-8.285791 0,-4.576115 3.709675,-8.28579 8.28579,-8.28579"
         style="opacity:1;fill:none;fill-opacity:1;stroke:#000000;stroke-width:0.6850456;stroke-miterlimit:4;stroke-dasharray:none;stroke-dashoffset:0"
         sodipodi:nodetypes="cssc" />
      <path
         inkscape:connector-curvature="0"
         id="path410"
         d="m 85.679398,46.234063 c -4.576116,10e-7 -8.285791,-3.709674 -8.285791,-8.28579"
         style="opacity:1;fill:none;fill-opacity:1;stroke:#000000;stroke-width:0.6850456;stroke-miterlimit:4;stroke-dasharray:none;stroke-dashoffset:0"
         sodipodi:nodetypes="cc" />
      <path
         inkscape:connector-curvature="0"
         id="path412"
         d="m 85.679398,46.234062 c 4.576117,-2e-6 8.285794,3.709673 8.285794,8.28579 10e-7,4.576117 -3.709677,8.285793 -8.285794,8.285791 -4.576116,10e-7 -8.285792,-3.709675 -8.285791,-8.285791"
         style="opacity:1;fill:none;fill-opacity:1;stroke:#000000;stroke-width:0.6850456;stroke-miterlimit:4;stroke-dasharray:none;stroke-dashoffset:0"
         sodipodi:nodetypes="cssc" />
    </g>
    <g
       id="g434"
       transform="translate(-101.49118,149.35571)">
      <path
         inkscape:connector-curvature="0"
         id="path432"
         d="m 187.16402,62.847743 v 0 c 4.57612,0 8.28579,-3.709675 8.28579,-8.285791 0,-4.576115 -3.70967,-8.28579 -8.28579,-8.28579 v 10e-7 c -4.57612,6e-6 -8.2858,-3.709671 -8.2858,-8.28579 h 1e-5 c 0,4.576115 -3.70967,8.28579 -8.28579,8.28579 v -10e-7 c -4.57612,0 -8.28579,3.709675 -8.28579,8.28579 0,4.576116 3.70967,8.285791 8.28579,8.285791 v 0 c 4.57612,0 8.28579,3.709675 8.28578,8.285791 0,-4.57612 3.70968,-8.285797 8.2858,-8.285791 z"
         style="opacity:1;fill:#0000c0;fill-opacity:1;stroke:#000000;stroke-width:0.6850456;stroke-miterlimit:4;stroke-dasharray:none;stroke-dashoffset:0"
         sodipodi:nodetypes="ccsccccccscccc" />
    </g>
    <text
       xml:space="preserve"
       style="font-style:normal;font-variant:normal;font-weight:normal;font-stretch:normal;font-size:14.11111069px;line-height:1.25;font-family:monospace;-inkscape-font-specification:monospace;letter-spacing:0px;word-spacing:0px;fill:#000000;fill-opacity:1;stroke:none;stroke-width:0.26458332"
       x="77.390625"
       y="76.141823"
       id="text528"><tspan
         sodipodi:role="line"
         id="tspan526"
         x="77.390625"
         y="88.626846"
         style="stroke-width:0.26458332" /></text>
    <text
       xml:space="preserve"
       style="font-style:normal;font-variant:normal;font-weight:normal;font-stretch:normal;font-size:14.11111069px;line-height:1.25;font-family:monospace;-inkscape-font-specification:monospace;letter-spacing:0px;word-spacing:0px;fill:#000000;fill-opacity:1;stroke:none;stroke-width:0.26458332"
       x="77.390625"
       y="80.725494"
       id="text532"><tspan
         sodipodi:role="line"
         id="tspan530"
         x="77.390625"
         y="93.210518"
         style="stroke-width:0.26458332" /></text>
    <text
       xml:space="preserve"
       style="font-style:normal;font-variant:normal;font-weight:normal;font-stretch:normal;font-size:8.46666622px;line-height:1.25;font-family:monospace;-inkscape-font-specification:monospace;text-align:center;letter-spacing:0px;word-spacing:0px;text-anchor:middle;fill:#000000;fill-opacity:1;stroke:none;stroke-width:0.26458332"
       x="77.390625"
       y="79.439255"
       id="text542"><tspan
         sodipodi:role="line"
         id="tspan540"
         x="77.390625"
         y="79.439255"
         style="stroke-width:0.26458332">1</tspan></text>
    <text
       xml:space="preserve"
       style="font-style:normal;font-variant:normal;font-weight:normal;font-stretch:normal;font-size:8.46666622px;line-height:1.25;font-family:monospace;-inkscape-font-specification:monospace;text-align:center;letter-spacing:0px;word-spacing:0px;text-anchor:middle;fill:#000000;fill-opacity:1;stroke:none;stroke-width:0.26458332"
       x="128.13235"
       y="79.439255"
       id="text546"><tspan
         sodipodi:role="line"
         id="tspan544"
         x="128.13235"
         y="79.439255"
         style="stroke-width:0.26458332">13</tspan></text>
    <text
       xml:space="preserve"
       style="font-style:normal;font-variant:normal;font-weight:normal;font-stretch:normal;font-size:8.46666622px;line-height:1.25;font-family:monospace;-inkscape-font-specification:monospace;text-align:center;letter-spacing:0px;word-spacing:0px;text-anchor:middle;fill:#000000;fill-opacity:1;stroke:none;stroke-width:0.26458332"
       x="26.651783"
       y="79.439255"
       id="text550"><tspan
         sodipodi:role="line"
         id="tspan548"
         x="26.651783"
         y="79.439255"
         style="stroke-width:0.26458332">14</tspan></text>
    <text
       xml:space="preserve"
       style="font-style:normal;font-variant:normal;font-weight:normal;font-stretch:normal;font-size:8.46666622px;line-height:1.25;font-family:monospace;-inkscape-font-specification:monospace;text-align:center;letter-spacing:0px;word-spacing:0px;text-anchor:middle;fill:#000000;fill-opacity:1;stroke:none;stroke-width:0.26458332"
       x="77.390625"
       y="129.23659"
       id="text566"><tspan
         sodipodi:role="line"
         id="tspan564"
         x="77.390625"
         y="129.23659"
         style="stroke-width:0.26458332">2</tspan></text>
    <text
       xml:space="preserve"
       style="font-style:normal;font-variant:normal;font-weight:normal;font-stretch:normal;font-size:8.46666622px;line-height:1.25;font-family:monospace;-inkscape-font-specification:monospace;text-align:center;letter-spacing:0px;word-spacing:0px;text-anchor:middle;fill:#000000;fill-opacity:1;stroke:none;stroke-width:0.26458332"
       x="128.13235"
       y="129.23659"
       id="text570"><tspan
         sodipodi:role="line"
         id="tspan568"
         x="128.13235"
         y="129.23659"
         style="stroke-width:0.26458332">23</tspan></text>
    <text
       xml:space="preserve"
       style="font-style:normal;font-variant:normal;font-weight:normal;font-stretch:normal;font-size:8.46666622px;line-height:1.25;font-family:monospace;-inkscape-font-specification:monospace;text-align:center;letter-spacing:0px;word-spacing:0px;text-anchor:middle;fill:#000000;fill-opacity:1;stroke:none;stroke-width:0.26458332"
       x="26.651783"
       y="129.23659"
       id="text574"><tspan
         sodipodi:role="line"
         id="tspan572"
         x="26.651783"
         y="129.23659"
         style="stroke-width:0.26458332">24</tspan></text>
    <text
       xml:space="preserve"
       style="font-style:normal;font-variant:normal;font-weight:normal;font-stretch:normal;font-size:8.46666622px;line-height:1.25;font-family:monospace;-inkscape-font-specification:monospace;text-align:center;letter-spacing:0px;word-spacing:0px;text-anchor:middle;fill:#000000;fill-opacity:1;stroke:none;stroke-width:0.26458332"
       x="77.390625"
       y="179.04059"
       id="text578"><tspan
         sodipodi:role="line"
         id="tspan576"
         x="77.390625"
         y="179.04059"
         style="stroke-width:0.26458332">3</tspan></text>
    <text
       xml:space="preserve"
       style="font-style:normal;font-variant:normal;font-weight:normal;font-stretch:normal;font-size:8.46666622px;line-height:1.25;font-family:monospace;-inkscape-font-specification:monospace;text-align:center;letter-spacing:0px;word-spacing:0px;text-anchor:middle;fill:#000000;fill-opacity:1;stroke:none;stroke-width:0.26458332"
       x="128.13235"
       y="179.04059"
       id="text582"><tspan
         sodipodi:role="line"
         id="tspan580"
         x="128.13235"
         y="179.04059"
         style="stroke-width:0.26458332">31</tspan></text>
    <text
       xml:space="preserve"
       style="font-style:normal;font-variant:normal;font-weight:normal;font-stretch:normal;font-size:8.46666622px;line-height:1.25;font-family:monospace;-inkscape-font-specification:monospace;text-align:center;letter-spacing:0px;word-spacing:0px;text-anchor:middle;fill:#000000;fill-opacity:1;stroke:none;stroke-width:0.26458332"
       x="26.651783"
       y="179.04059"
       id="text586"><tspan
         sodipodi:role="line"
         id="tspan584"
         x="26.651783"
         y="179.04059"
         style="stroke-width:0.26458332">32</tspan></text>
    <text
       xml:space="preserve"
       style="font-style:normal;font-variant:normal;font-weight:normal;font-stretch:normal;font-size:8.46666622px;line-height:1.25;font-family:monospace;-inkscape-font-specification:monospace;text-align:center;letter-spacing:0px;word-spacing:0px;text-anchor:middle;fill:#000000;fill-opacity:1;stroke:none;stroke-width:0.26458332"
       x="77.390625"
       y="228.81294"
       id="text590"><tspan
         sodipodi:role="line"
         id="tspan588"
         x="77.390625"
         y="228.81294"
         style="stroke-width:0.26458332">4</tspan></text>
    <text
       xml:space="preserve"
       style="font-style:normal;font-variant:normal;font-weight:normal;font-stretch:normal;font-size:8.46666622px;line-height:1.25;font-family:monospace;-inkscape-font-specification:monospace;text-align:center;letter-spacing:0px;word-spacing:0px;text-anchor:middle;fill:#000000;fill-opacity:1;stroke:none;stroke-width:0.26458332"
       x="128.13235"
       y="228.81294"
       id="text594"><tspan
         sodipodi:role="line"
         id="tspan592"
         x="128.13235"
         y="228.81294"
         style="stroke-width:0.26458332">41</tspan></text>
    <text
       xml:space="preserve"
       style="font-style:normal;font-variant:normal;font-weight:normal;font-stretch:normal;font-size:8.46666622px;line-height:1.25;font-family:monospace;-inkscape-font-specification:monospace;text-align:center;letter-spacing:0px;word-spacing:0px;text-anchor:middle;fill:#000000;fill-opacity:1;stroke:none;stroke-width:0.26458332"
       x="26.651783"
       y="228.81294"
       id="text598"><tspan
         sodipodi:role="line"
         id="tspan596"
         x="26.651783"
         y="228.81294"
         style="stroke-width:0.26458332">42</tspan></text>
    <g
       id="g657"
       transform="translate(0,5.051394)">
      <text
         id="text604"
         y="21.827894"
         x="77.390625"
         style="font-style:normal;font-variant:normal;font-weight:normal;font-stretch:normal;font-size:8.46666622px;line-height:1.25;font-family:monospace;-inkscape-font-specification:monospace;text-align:center;letter-spacing:0px;word-spacing:0px;text-anchor:middle;fill:#000000;fill-opacity:1;stroke:none;stroke-width:0.26458332"
         xml:space="preserve"><tspan
           style="stroke-width:0.26458332"
           y="21.827894"
           x="77.390625"
           id="tspan602"
           sodipodi:role="line">Element</tspan></text>
      <text
         id="text608"
         y="21.827894"
         x="128.13235"
         style="font-style:normal;font-variant:normal;font-weight:normal;font-stretch:normal;font-size:8.46666622px;line-height:1.25;font-family:monospace;-inkscape-font-specification:monospace;text-align:center;letter-spacing:0px;word-spacing:0px;text-anchor:middle;fill:#000000;fill-opacity:1;stroke:none;stroke-width:0.26458332"
         xml:space="preserve"><tspan
           style="stroke-width:0.26458332"
           y="21.827894"
           x="128.13235"
           id="tspan606"
           sodipodi:role="line">Pathos E</tspan></text>
      <text
         id="text612"
         y="21.827894"
         x="26.651783"
         style="font-style:normal;font-variant:normal;font-weight:normal;font-stretch:normal;font-size:8.46666622px;line-height:1.25;font-family:monospace;-inkscape-font-specification:monospace;text-align:center;letter-spacing:0px;word-spacing:0px;text-anchor:middle;fill:#000000;fill-opacity:1;stroke:none;stroke-width:0.26458332"
         xml:space="preserve"><tspan
           style="stroke-width:0.26458332"
           y="21.827894"
           x="26.651783"
           id="tspan610"
           sodipodi:role="line">Pathos I</tspan></text>
      <path
         inkscape:connector-curvature="0"
         id="path634"
         d="M 7.0910399,24.21458 H 46.19046"
         style="fill:none;stroke:#000000;stroke-width:0.5;stroke-linecap:butt;stroke-linejoin:miter;stroke-opacity:1" />
      <path
         inkscape:connector-curvature="0"
         id="path644"
         d="M 60.374098,24.21458 H 94.3901"
         style="fill:none;stroke:#000000;stroke-width:0.5;stroke-linecap:butt;stroke-linejoin:miter;stroke-opacity:1" />
      <path
         inkscape:connector-curvature="0"
         id="path646"
         d="m 108.57218,24.21458 h 39.39605"
         style="fill:none;stroke:#000000;stroke-width:0.5;stroke-linecap:butt;stroke-linejoin:miter;stroke-opacity:1" />
    </g>
  </g>
</svg>
