<svg width="200" height="103.82" version="1.1" xmlns="http://www.w3.org/2000/svg">
<path d="m46.68 5.1141h105.4l40.304 47.16-40.293 46.512h-105.42l-40.45-46.669 40.458-47.002m107.95-5.2371h-110.5l-44.834 52.075 44.838 51.741h110.49l44.673-51.573z" fill="#007ac2"/>
<path d="m107.06 58.83c-0.0256 0.46878-0.0586 0.88995-0.0806 1.1903-0.18312 2.3695-1.0145 4.8892-3.9114 4.8892-2.7028 0-3.7685-2.7321-3.9663-4.7427-0.11719-1.2232-0.0879-2.1681-0.11353-5.7608-0.0293-4.1934 0.10621-5.2701 0.1648-5.9513 0.23073-2.6515 1.2562-4.7061 3.915-4.7244 2.7321-0.01831 3.8821 2.3622 3.9114 4.6988 0 0.02564 0.0586 0.58964 0.0989 1.8312h6.4164c-0.022-0.42849-0.0403-0.78374-0.0549-0.99249-0.7288-8.8665-6.1271-11.013-10.386-11.013-6.0355 0-9.7125 3.8418-10.375 11.09-0.0586 0.57865-0.14649 1.6444-0.17579 5.0613-0.0293 2.4867 0.12818 4.523 0.1648 5.0394 0.41384 6.768 4.2996 10.925 10.386 10.939 6.3029 0.02197 9.7821-3.8235 10.386-10.939 0.0183-0.26003 0.0549-0.43948 0.0366-0.61527h-6.4164m-59.073-26.087h3.069c3.3364 0 5.1456 1.7689 5.2261 4.9295 0.0073 0.23073 0.03296 0.49808 0.03296 0.98883 0 0.57499-0.0073 0.78008-0.0293 0.99982-0.18678 1.8788-1.0108 5.1529-4.9185 5.1529h-3.3803v-12.071m15.36 34.305c0 0.0073-0.66654-10.496-0.66654-10.496-0.28932-4.6951-1.5125-7.4638-3.9407-8.8812 1.7543-1.0548 4.0249-3.666 3.9993-9.1155-0.0293-8.3025-5.1822-11.214-11.247-11.28h-9.9103v42.421h6.4018l0.0037-19.407h3.5634c2.0619 0 4.3838 1.8019 4.7354 6.8669l0.66654 9.9322c0.05494 1.4063 0.32228 2.6112 0.32228 2.6112h6.4054c-0.0037 0-0.27834-1.1719-0.33327-2.6515zm85.775-16.495c0.0476-1.4137 0.0476-1.714 0.0769-2.1242 0.18312-2.56 1.3258-4.6805 3.9517-4.6988 3.1093-0.02197 3.8418 3.0251 3.9517 4.7134 0.0549 0.88628 0.12452 1.4796 0.11353 2.1095h-8.0938m8.0095 8.5699s0.011 0.4761-0.0623 1.0548c-0.18312 1.5089-0.77642 4.7317-3.9334 4.7317-2.6882 0-3.7246-2.4428-3.904-4.8782-0.033-0.69218-0.16114-1.4649-0.15381-4.0908h14.463s0.0256-2.1535-0.0146-3.4463c-0.022-0.50906-0.0476-1.3551-0.16847-3.1386-0.19776-2.7431-1.2232-5.7389-2.7944-7.6762-1.8165-2.2413-4.3838-3.4243-7.4272-3.4243-5.8414 0-9.4928 3.8052-10.211 11.093-0.0659 0.6519-0.17213 1.5638-0.17213 5.0577 0 2.4867 0.13917 4.5669 0.1648 5.0394 0.39187 6.6581 4.3289 10.939 10.218 10.939 5.8744 0 9.8114-4.1714 10.222-11.262zm-75.29-4.7171c0 4.1824-0.13184 5.3617-0.1648 5.7242-0.22706 2.3219-1.2159 4.7793-3.9187 4.7793-2.6991 0-3.7942-2.6259-3.9114-4.8892-0.0073-0.01465-0.16847-1.432-0.16847-5.6144 0-4.1934 0.1648-5.9366 0.16847-5.9513 0.03296-2.3622 1.2562-4.7244 3.9114-4.7244 2.6552 0 3.8821 2.3622 3.915 4.6988 0.0037 0.04029 0.16847 1.7836 0.16847 5.9769m6.2736-5.0467c-0.91925-9.1412-6.1088-11.104-10.368-11.104-6.0355 0-9.7088 3.8418-10.372 11.09-0.0586 0.57865-0.14649 1.6444-0.17946 5.0613-0.02197 2.4867 0.13551 4.523 0.16847 5.0394 0.41018 6.768 4.2996 10.939 10.383 10.939 6.0868 0 9.9615-4.241 10.386-10.939 0.0293-0.4761 0.16847-2.5526 0.16847-5.0394 0-1.128-0.10621-4.1897-0.18678-5.0467zm46.479-9.6356c-1.2525-0.93756-3.2228-1.5016-5.1346-1.4723-2.0765 0.0293-4.0615 0.69584-5.4422 1.7982v-13.111h-6.486v42.758h6.486v-22.318c0-1.5565 1.3038-3.2705 3.7209-3.373 1.0767-0.04761 2.571 0.42117 3.3254 1.5528 0.80571 1.1976 0.7581 2.7907 0.7581 4.5303l-7e-3 19.608h6.486v-19.854c-4e-3 -5.8561-0.76543-7.9399-3.7063-10.119" fill="#007ac2"/>
</svg>
