<?xml version="1.0" encoding="UTF-8"?>
<svg version="1.1" viewBox="0 0 182.38 123.17" xmlns="http://www.w3.org/2000/svg">
  <defs>
    <marker id="Arrow1Mstart" overflow="visible" orient="auto">
      <path transform="matrix(.4 0 0 .4 4 0)" d="m0 0 5-5-17.5 5 17.5 5z" fill="context-stroke" fill-rule="evenodd" stroke="context-stroke" stroke-width="1pt"/>
    </marker>
    <marker id="Arrow1Mend" overflow="visible" orient="auto">
      <path transform="matrix(-.4 0 0 -.4 -4 0)" d="m0 0 5-5-17.5 5 17.5 5z" fill="context-stroke" fill-rule="evenodd" stroke="context-stroke" stroke-width="1pt"/>
    </marker>
  </defs>
  <g transform="translate(-20.087 54.74)">
    <g transform="translate(0 -276.88)">
      <!-- white background
      <rect x="20.087" y="222.14" width="182.38" height="123.17" fill="#fff" fill-rule="evenodd" stroke-width=".22482"/>
      -->
      <!-- canvas border
      <rect x="20.087" y="222.14" width="182.38" height="123.17" fill="none" stroke="black" stroke-width="1"/>
      -->
      <g transform="translate(0 13.717)">
        <path d="m27.95 320.32 151.88 8e-3v-110.16" fill="none" marker-end="url(#Arrow1Mend)" marker-start="url(#Arrow1Mstart)" stroke="#000" stroke-width=".26458px"/>
        <g transform="translate(.27565 123.17)">
          <g transform="matrix(1 0 0 2.5604 0 -307.6)" fill="none" stroke="#000" stroke-width=".26458px">
            <path d="m179.55 197.13v0.85321"/>
            <path d="m165.77 197.13v0.85321"/>
            <path d="m151.99 197.13v0.85321"/>
            <path d="m138.21 197.13v0.85321"/>
            <path d="m124.43 197.13v0.85321"/>
            <path d="m110.64 197.13v0.85321"/>
            <path d="m83.079 197.13v0.85321"/>
            <path d="m96.861 197.13v0.85321"/>
            <path d="m69.297 197.13v0.85321"/>
            <path d="m55.514 197.13v0.85321"/>
            <path d="m41.732 197.13v0.85321"/>
          </g>
          <g font-family="sans-serif" font-size="3.5278px" stroke-width=".26458" text-anchor="middle">
            <text x="179.55566" y="203.48607" text-align="center"><tspan x="179.55566" y="203.48607" font-size="3.5278px" stroke-width=".26458">0</tspan></text>
            <text x="165.77254" y="203.53603" text-align="center"><tspan x="165.77254" y="203.53603" font-size="3.5278px" stroke-width=".26458">1000</tspan></text>
            <text x="151.99026" y="203.53603" text-align="center"><tspan x="151.99026" y="203.53603" font-size="3.5278px" stroke-width=".26458">2000</tspan></text>
            <text x="138.19594" y="203.53603" text-align="center"><tspan x="138.19594" y="203.53603" font-size="3.5278px" stroke-width=".26458">3000</tspan></text>
            <text x="124.40849" y="203.53603" text-align="center"><tspan x="124.40849" y="203.53603" font-size="3.5278px" stroke-width=".26458">4000</tspan></text>
            <text x="110.67445" y="203.53603" text-align="center"><tspan x="110.67445" y="203.53603" font-size="3.5278px" stroke-width=".26458">5000</tspan></text>
            <text x="96.842216" y="203.53603" text-align="center"><tspan x="96.842216" y="203.53603" font-size="3.5278px" stroke-width=".26458">6000</tspan></text>
            <text x="83.072861" y="203.53603" text-align="center"><tspan x="83.072861" y="203.53603" font-size="3.5278px" stroke-width=".26458">7000</tspan></text>
            <text x="69.296608" y="203.53603" text-align="center"><tspan x="69.296608" y="203.53603" font-size="3.5278px" stroke-width=".26458">8000</tspan></text>
            <text x="55.514324" y="203.53603" text-align="center"><tspan x="55.514324" y="203.53603" font-size="3.5278px" stroke-width=".26458">9000</tspan></text>
            <text x="41.738075" y="203.53603" text-align="center"><tspan x="41.738075" y="203.53603" font-size="3.5278px" stroke-width=".26458">10 000</tspan></text>
          </g>
        </g>
      </g>
      <g transform="matrix(1 0 0 .93213 -.0045534 35.457)">
        <g transform="matrix(.013782 0 0 -.013782 152.03 320.3)" fill="none" stroke="#000" stroke-width="25.023">
          <path d="m2017 2e3h155.6"/>
          <path d="m2017 1e3h155.6"/>
          <path d="m2017 3e3h155.6"/>
          <path d="m2017 4e3h155.6"/>
          <path d="m2017 5e3h155.6"/>
          <path d="m2017 6e3h155.6"/>
          <path d="m2017 7e3h155.6"/>
          <path d="m2017 8e3h155.6"/>
        </g>
        <path d="m28.957 320.24 12.816-0.0138h41.347l13.782-0.0276 13.782-0.0965 13.782-0.17917 13.782-0.317 3.4456-0.13782 3.4456-0.55129 1.3782-0.82694 2.7565 0.13782 2.7702-0.27565 2.7427-0.27564h4.1347l1.3782-0.13783 2.7565-0.27564 1.3782-0.0827 1.3782-1.1577 1.3782 0.12404 1.3782-0.81316 0.68912-0.55129 0.68912 0.55129 0.55129-1.1439 0.82694 1.2818 1.3782-1.0337 1.3782-1.6539 0.68911 1.0337 0.68912-1.7917 0.68912-2.6186 0.68911-2.6186 0.68912-3.8591 0.68912-5.3751 0.13782-1.3782 0.13782-1.516 0.13783-2.8943 0.13782-3.1699 0.13782-1.3782 0.13783-8.545 0.13782-9.372 0.0551-4.1347 0.0827-5.9264 0.0965-7.8559 0.0413-3.5834 0.13782-11.164 7e-3 -5.9264 3e-3 -3.4111 6e-3 -3.48 0.0955-13.782" fill="none" stroke="#000" stroke-width=".51788"/>
        <g id="percentage_numbers" transform="matrix(.34456 0 0 .34456 183.9 234.85)" fill="#000000" font-family="Verdana, Tahoma, sans-serif" font-size="11px">
          <text y="250" text-anchor="end"><tspan text-anchor="start">0</tspan></text>
          <text y="210">1000</text>
          <text y="170" text-anchor="end"><tspan text-anchor="start">2000</tspan></text>
          <text y="130" text-anchor="end"><tspan text-anchor="start">3000</tspan></text>
          <text y="90">4000</text>
          <g text-anchor="end">
            <text y="50"><tspan text-anchor="start">5000</tspan></text>
            <text y="10"><tspan text-anchor="start">6000</tspan></text>
            <text y="-30.000277"><tspan text-anchor="start">7000</tspan></text>
            <text y="-70.000557"><tspan text-anchor="start">8000</tspan></text>
          </g>
        </g>
      </g>
      <g font-family="sans-serif" stroke-width=".26458" text-anchor="middle">
        <text x="27.785782" y="232.70168" font-size="4.9389px" text-align="center"><tspan x="27.785782" y="232.70168" font-size="4.9389px" stroke-width=".26458" text-align="start" text-anchor="start">Globale Bevölkerung</tspan></text>
        <text x="27.488127" y="245.94724" font-size="4.2333px" text-align="center"><tspan x="27.488127" y="245.94724" font-size="4.2333px" stroke-width=".26458" text-align="start" text-anchor="start">in Millionen Menschen, lineare Skala</tspan></text>
        <text x="27.488127" y="252.43819" font-size="4.2333px" text-align="center"><tspan x="27.488127" y="252.43819" font-size="4.2333px" stroke-width=".26458" text-align="start" text-anchor="start">über die letzten 10 000 Jahre</tspan></text>
        <text x="27.949768" y="339.92209" font-size="3.5278px" text-align="center"><tspan x="27.949768" y="339.92209" font-size="3.5278px" stroke-width=".26458">Jahre</tspan></text>
      </g>
      <g transform="translate(-2.5318 136.86)">
        <text x="135.72267" y="95.351952" font-family="sans-serif" font-size="3.5278px" stroke-width=".26458" text-align="center" text-anchor="middle"><tspan x="135.72267" y="95.351952" font-size="3.5278px" stroke-width=".26458">8000 Millionen Menschen im Jahr 2020</tspan></text>
        <path d="m168.3 94.379h8.2931" fill="none" marker-end="url(#Arrow1Mend)" stroke="#000" stroke-width=".26458px"/>
      </g>
      <text x="27.488127" y="262.63916" font-family="sans-serif" font-size="3.5278px" stroke-width=".26458" text-align="center" text-anchor="middle"><tspan x="27.488127" y="262.63916" font-size="3.5278px" stroke-width=".26458" text-align="start" text-anchor="start">https://en.wikipedia.org/wiki/File:Population_curve.svg</tspan></text>
    </g>
  </g>
</svg>
