<svg id="alchi.peer-exchange.partnertausch"
  viewBox="-17 -21 296 117"
  version="1.1"
  xmlns:xlink="http://www.w3.org/1999/xlink"
  xmlns="http://www.w3.org/2000/svg"
  xmlns:svg="http://www.w3.org/2000/svg"
  >

  <!-- TODO simplify -->

  <defs
    id="defs32" />
  <g
    font-size="14.19px"
    font-family="sans-serif"
    text-anchor="middle"
    dominant-baseline="mathematical"
    stroke-width="1"
    fill="none"
    stroke="#000000"
    id="g379"
    transform="translate(-76.5,-108.5)">
    <g
      id="g1171"
      transform="translate(197.12646,110)">
      <rect
        x="43"
        y="-3"
        width="114"
        height="78"
        stroke-dasharray="1, 2"
        id="rect337" />
      <path
        transform="translate(118)"
        d="M 18,0 14.4,3.6 H 3.6 V 14.4 L 7.2,18 3.6,21.6 V 32.4 H 14.4 L 18,36 21.6,32.4 H 32.4 V 21.6 L 28.8,18 32.4,14.4 V 3.6 H 21.6 Z"
        id="path341" />
      <path
        transform="translate(46)"
        d="M 18,7.2 14.4,3.6 H 3.6 V 14.4 L 0,18 3.6,21.6 v 10.8 h 10.8 l 3.6,-3.6 3.6,3.6 H 32.4 V 21.6 L 36,18 32.4,14.4 V 3.6 H 21.6 Z"
        id="path343" />
      <path
        transform="translate(46,36)"
        d="M 18,0 14.4,3.6 H 3.6 V 14.4 L 7.2,18 3.6,21.6 V 32.4 H 14.4 L 18,36 21.6,32.4 H 32.4 V 21.6 L 28.8,18 32.4,14.4 V 3.6 H 21.6 Z"
        id="path345" />
      <path
        transform="translate(118,36)"
        d="M 18,7.2 14.4,3.6 H 3.6 V 14.4 L 0,18 3.6,21.6 v 10.8 h 10.8 l 3.6,-3.6 3.6,3.6 H 32.4 V 21.6 L 36,18 32.4,14.4 V 3.6 H 21.6 Z"
        id="path347" />
      <g
        id="g1147">
        <text
          fill="#000000"
          y="16"
          x="64"
          id="text357"
          style="stroke:none">MS</text>
        <text
          fill="#000000"
          y="16"
          x="136"
          id="text359"
          style="stroke:none">FS</text>
        <text
          fill="#000000"
          y="52"
          x="136"
          id="text361"
          style="stroke:none">FL</text>
        <text
          fill="#000000"
          y="52"
          x="64"
          id="text363"
          style="stroke:none">ML</text>
      </g>
    </g>
    <g
      id="g1159">
      <rect
        x="61"
        y="89"
        width="78"
        height="114"
        stroke-dasharray="1, 2"
        id="rect339" />
      <path
        transform="translate(100,92)"
        d="M 18,0 14.4,3.6 H 3.6 V 14.4 L 7.2,18 3.6,21.6 V 32.4 H 14.4 L 18,36 21.6,32.4 H 32.4 V 21.6 L 28.8,18 32.4,14.4 V 3.6 H 21.6 Z"
        id="path349" />
      <path
        transform="translate(64,92)"
        d="M 18,7.2 14.4,3.6 H 3.6 V 14.4 L 0,18 3.6,21.6 v 10.8 h 10.8 l 3.6,-3.6 3.6,3.6 H 32.4 V 21.6 L 36,18 32.4,14.4 V 3.6 H 21.6 Z"
        id="path351" />
      <path
        transform="translate(64,164)"
        d="M 18,0 14.4,3.6 H 3.6 V 14.4 L 7.2,18 3.6,21.6 V 32.4 H 14.4 L 18,36 21.6,32.4 H 32.4 V 21.6 L 28.8,18 32.4,14.4 V 3.6 H 21.6 Z"
        id="path353" />
      <path
        transform="translate(100,164)"
        d="M 18,7.2 14.4,3.6 H 3.6 V 14.4 L 0,18 3.6,21.6 v 10.8 h 10.8 l 3.6,-3.6 3.6,3.6 H 32.4 V 21.6 L 36,18 32.4,14.4 V 3.6 H 21.6 Z"
        id="path355" />
      <g
        id="g1141">
        <text
          fill="#000000"
          y="108"
          x="118"
          id="text365"
          style="stroke:none">FS</text>
        <text
          fill="#000000"
          y="108"
          x="82"
          id="text367"
          style="stroke:none">MS</text>
        <text
          fill="#000000"
          y="180"
          x="82"
          id="text369"
          style="stroke:none">ML</text>
        <text
          fill="#000000"
          y="180"
          x="118"
          id="text371"
          style="stroke:none">FL</text>
      </g>
    </g>
    <g
      id="g1057"
      transform="translate(-1.663659)">
      <g
        id="g887"
        transform="translate(-21.947936,2.6004907)">
        <g
          id="g879"
          transform="translate(23.189266,-2.6004833)">
          <path
            d="m 172.3006,136.72979 h 35.36992"
            id="path375" />
          <path
            style="fill:none;stroke:#000000;stroke-width:1;stroke-linecap:round"
            d="m 204.67052,139.72979 3,-3 -3,-3"
            id="path7847" />
        </g>
        <use
          x="0"
          y="0"
          xlink:href="#g879"
          id="use881"
          transform="matrix(-1,0,0,1,426.34965,18.540421)" />
      </g>
    </g>
  </g>
</svg>
