<?xml version="1.0" encoding="UTF-8"?>
<svg version="1.1" viewBox="0 0 282.4 276.8" xmlns="http://www.w3.org/2000/svg">
 <!--
   A robust data-driven approach identifies four personality types across four large data sets
   https://www.nature.com/articles/s41562-018-0419-z
   https://doi.org/10.1038/s41562-018-0419-z
   https://sci-hub.st/https://doi.org/10.1038/s41562-018-0419-z
-->
 <defs>
  <clipPath id="f">
   <path d="m323.8 533h1.968v61.02h-1.968z"/>
  </clipPath>
  <clipPath id="g">
   <path d="m392.7 523.9h1.966v51.37h-1.966z"/>
  </clipPath>
  <clipPath id="h">
   <path d="m426.1 523.9h1.967v57.28h-1.967z"/>
  </clipPath>
  <clipPath id="i">
   <path d="m460.6 524.1h1.966v62.98h-1.966z"/>
  </clipPath>
  <clipPath id="j">
   <path d="m153.5 422.8h1.968v48.22h-1.968z"/>
  </clipPath>
  <clipPath id="k">
   <path d="m188 438.5h1.968v51.17h-1.968z"/>
  </clipPath>
  <clipPath id="l">
   <path d="m221.4 419.2h1.968v44.91h-1.968z"/>
  </clipPath>
  <clipPath id="m">
   <path d="m255.9 444.4h1.968v53.14h-1.968z"/>
  </clipPath>
  <clipPath id="n">
   <path d="m290.3 447.4h1.968v53.14h-1.968z"/>
  </clipPath>
  <clipPath id="a">
   <path d="m323.8 419.2h1.968v46.88h-1.968z"/>
  </clipPath>
  <clipPath id="b">
   <path d="m358.2 463.1h1.967v45.27h-1.967z"/>
  </clipPath>
  <clipPath id="c">
   <path d="m392.7 449.3h1.966v51.18h-1.966z"/>
  </clipPath>
  <clipPath id="d">
   <path d="m426.1 467.1h1.967v44.28h-1.967z"/>
  </clipPath>
  <clipPath id="e">
   <path d="m460.6 471h1.966v43.42h-1.966z"/>
  </clipPath>
 </defs>
 <text x="31.181923" y="18.095995" font-family="sans-serif" font-size="10.58px" stroke-width=".265"><tspan x="31.181923" y="18.095995">A robust data-driven approach identifies four</tspan><tspan x="31.181923" y="31.324995">personality types across four large data sets</tspan></text>
 <text x="21.010923" y="49.711998" font-family="sans-serif" font-size="7.761px" stroke-width=".265">Martin Gerlach, Beatrice Farb, William Revelle, Luis A. Nunes Amaral</text>
 <g transform="rotate(90 134.7 198.8)" fill="none" stroke="#000" stroke-width=".25">
  <path d="m139.9 169.7h4.942"/>
  <path d="m139.9 174.6h4.942"/>
  <path d="m139.9 179.6h4.942"/>
  <path d="m139.9 184.5h4.942"/>
 </g>
 <g transform="rotate(90 106.2 170.3)" fill="none" stroke="#000" stroke-width=".25">
  <path d="m139.9 169.7h4.942"/>
  <path d="m139.9 174.6h4.942"/>
  <path d="m139.9 179.6h4.942"/>
  <path d="m139.9 184.5h4.942"/>
 </g>
 <g transform="rotate(90 147 211.1)" fill="none" stroke="#000" stroke-width=".25">
  <path d="m139.9 169.7h4.942"/>
  <path d="m139.9 174.6h4.942"/>
  <path d="m139.9 179.6h4.942"/>
  <path d="m139.9 184.5h4.942"/>
 </g>
 <g transform="rotate(90 118.6 182.7)" fill="none" stroke="#000" stroke-width=".25">
  <path d="m139.9 169.7h4.942"/>
  <path d="m139.9 174.6h4.942"/>
  <path d="m139.9 179.6h4.942"/>
  <path d="m139.9 184.5h4.942"/>
 </g>
 <path d="m148.9 140h-5.148v113.3h5.148" fill="none" stroke="#000" stroke-width=".5"/>
 <g font-family="sans-serif" font-size="8.467px">
  <text x="208.89296" y="200.2" fill="#feb300">Model = Air</text>
  <text x="109.25592" y="266.69955" fill="#0000ff">Reserved = Water</text>
  <text x="32.038101" y="200.08907" fill="#ff0000">Selfish = Fire</text>
  <text x="110.91038" y="122.75495" fill="#00b300">Average = Earth</text>
 </g>
 <g transform="translate(3.908)" fill="none" stroke="#000" stroke-width=".25">
  <path d="m139.9 169.7h5.148"/>
  <path d="m139.9 174.6h5.148"/>
  <path d="m139.9 179.6h5.148"/>
  <path d="m139.9 184.5h5.148"/>
  <g transform="translate(0 -24.71)">
   <path d="m139.9 169.7h5.148"/>
   <path d="m139.9 174.6h5.148"/>
   <path d="m139.9 179.6h5.148"/>
   <path d="m139.9 184.5h5.148"/>
  </g>
  <g transform="translate(0 39.22)">
   <path d="m139.9 169.7h5.148"/>
   <path d="m139.9 174.6h5.148"/>
   <path d="m139.9 179.6h5.148"/>
   <path d="m139.9 184.5h5.148"/>
  </g>
  <g transform="translate(0 63.93)">
   <path d="m139.9 169.7h5.148"/>
   <path d="m139.9 174.6h5.148"/>
   <path d="m139.9 179.6h5.148"/>
   <path d="m139.9 184.5h5.148"/>
  </g>
 </g>
 <path d="m87.12 196.7h106.3m-56.88-56.67v113.3m-49.42-63.93h106.3m-106.3 19.46v-4.942h106.3v4.942" fill="none" stroke="#000" stroke-width=".5"/>
 <g fill="#feb300">
  <circle cx="156.3" cy="189.5" r="3.071"/>
  <circle cx="173.6" cy="196.7" r="3.071"/>
  <circle cx="183.5" cy="204" r="3.071"/>
 </g>
 <circle cx="136.5" cy="207" r="3.071" fill="#00f"/>
 <g transform="translate(3.908 9.014)" fill="#feb300" font-family="sans-serif" font-size="8.467px" stroke-width=".265">
  <text x="193.996" y="183.47107">O</text>
  <text x="194.60139" y="190.73654">A</text>
  <text x="194.49979" y="197.98083">C</text>
 </g>
 <circle cx="136.5" cy="154.7" r="3.071" fill="#f00"/>
 <circle cx="104.5" cy="196.9" r="3.071" fill="#f00"/>
 <circle cx="106.8" cy="189.5" r="3.071" fill="#00b400"/>
 <path d="m102.8 189.5a3.07 3.07 0 0 1-1.535 2.66 3.07 3.07 0 0 1-3.071 0 3.07 3.07 0 0 1-1.536-2.66" fill="#00f"/>
 <path d="m102.7 189.5a3.07 3.07 0 0 0-1.535-2.66 3.07 3.07 0 0 0-3.071 0 3.07 3.07 0 0 0-1.536 2.66" fill="#f00"/>
 <circle cx="148.9" cy="196.9" r="3.071" fill="#00f"/>
 <circle cx="156.3" cy="196.9" r="3.071" fill="#00b400"/>
 <path d="m157 204a3.07 3.07 0 0 1-1.535 2.66 3.07 3.07 0 0 1-3.071 0 3.07 3.07 0 0 1-1.536-2.66" fill="#00f"/>
 <text x="140.57448" y="135.36073" fill="#00b300" font-family="sans-serif" font-size="8.467px" stroke-width=".265">N</text>
 <text x="134.02446" y="135.36073" fill="#00b300" font-family="sans-serif" font-size="8.467px" stroke-width=".265">E</text>
 <path d="m136.5 161.7a3.071 3.071 0 1 1 0 6.142" fill="#feb300"/>
 <path d="m136.5 161.7a3.071 3.071 0 1 0 0 6.142" fill="#00b200"/>
 <path d="m261 81.09h0.52v0.52h-0.52zm-1.38 0h0.521v0.52h-0.52zm-1.38 0h0.52v0.52h-0.52zm-1.38 0h0.52v0.52h-0.52zm-1.38 0h0.52v0.52h-0.52zm-1.38 0h0.52v0.52h-0.52zm-1.38 0h0.52v0.52h-0.52zm-1.38 0h0.52v0.52h-0.52zm-1.38 0h0.52v0.52h-0.52zm-1.38 0h0.52v0.52h-0.52zm-1.38 0h0.52v0.52h-0.52zm-1.38 0h0.52v0.52h-0.52zm-1.38 0h0.52v0.52h-0.52zm-1.38 0h0.52v0.52h-0.52zm-1.38 0h0.52v0.52h-0.52zm-1.38 0h0.52v0.52h-0.52zm-1.381 0h0.521v0.52h-0.521zm-1.38 0h0.521v0.52h-0.52zm-1.38 0h0.52v0.52h-0.52zm-1.38 0h0.52v0.52h-0.52zm-1.38 0h0.52v0.52h-0.52zm-1.38 0h0.521v0.52h-0.521zm-1.38 0h0.521v0.52h-0.521zm-1.38 0h0.52v0.52h-0.52zm-1.38 0h0.52v0.52h-0.52zm-1.38 0h0.52v0.52h-0.52zm-1.38 0h0.52v0.52h-0.52zm-1.38 0h0.52v0.52h-0.52zm-1.38 0h0.52v0.52h-0.52zm-1.38 0h0.52v0.52h-0.52zm-1.38 0h0.52v0.52h-0.52zm-1.38 0h0.52v0.52h-0.52zm-1.38 0h0.52v0.52h-0.52zm-1.38 0h0.52v0.52h-0.52zm-1.38 0h0.52v0.52h-0.52z"/>
 <path d="m84.73 81.35h50.62" fill="none" stroke="#000" stroke-dasharray="1.476, 2.436" stroke-linejoin="round" stroke-width=".521"/>
 <path d="m193.9 81.09h0.521v0.52h-0.521zm-1.38 0h0.521v0.52h-0.52zm-1.38 0h0.52v0.52h-0.52zm-1.38 0h0.52v0.52h-0.52zm-1.38 0h0.52v0.52h-0.52zm-1.38 0h0.52v0.52h-0.52zm-1.38 0h0.52v0.52h-0.52zm-1.38 0h0.52v0.52h-0.52zm-1.38 0h0.52v0.52h-0.52zm-1.38 0h0.52v0.52h-0.52zm-1.38 0h0.52v0.52h-0.52zm-1.38 0h0.52v0.52h-0.52zm-1.38 0h0.52v0.52h-0.52zm-1.38 0h0.52v0.52h-0.52zm-1.38 0h0.52v0.52h-0.52zm-1.38 0h0.52v0.52h-0.52zm-1.38 0h0.52v0.52h-0.52zm-1.38 0h0.52v0.52h-0.52zm-1.38 0h0.52v0.52h-0.52zm-1.38 0h0.52v0.52h-0.52zm-1.381 0h0.521v0.52h-0.521zm-1.38 0h0.52v0.52h-0.52zm-1.38 0h0.521v0.52h-0.52zm-1.38 0h0.521v0.52h-0.52zm-1.38 0h0.521v0.52h-0.52zm-1.38 0h0.52v0.52h-0.52zm-1.38 0h0.521v0.52h-0.52zm-1.38 0h0.52v0.52h-0.52zm-1.38 0h0.521v0.52h-0.521zm-1.38 0h0.52v0.52h-0.52zm-1.38 0h0.521v0.52h-0.521zm-1.38 0h0.52v0.52h-0.52zm-1.38 0h0.521v0.52h-0.521zm-1.38 0h0.52v0.52h-0.52zm-1.38 0h0.52v0.52h-0.52z"/>
 <path d="m15.81 74.9h251.4" fill="none" stroke="#000" stroke-width=".1"/>
 <g transform="matrix(.1445 0 0 -.1445 229.2 97.91)">
  <g fill="none" stroke="#000">
   <path d="m11.9 71.67h251.4" stroke-width=".04"/>
   <g stroke-width=".02">
    <path d="m11.9 69.09h251.4"/>
    <path d="m11.9 69.73h251.4"/>
    <path d="m11.9 70.38h251.4"/>
    <path d="m11.9 71.03h251.4"/>
    <path d="m11.9 73.61h251.4"/>
    <path d="m11.9 72.96h251.4"/>
    <path d="m11.9 72.32h251.4"/>
    <path d="m11.9 74.26h251.4"/>
   </g>
  </g>
  <rect x="11.9" y="68.44" width="1.421" height=".6461" fill="#f0f"/>
 </g>
 <g fill="none">
  <path d="m15.81 87.82h251.4" stroke="#000" stroke-width=".1"/>
  <path d="m15.81 94.28h251.4" stroke="#000" stroke-width=".1"/>
  <path d="m211.5 64.56h55.68v33.59h-55.68z"/>
 </g>
 <path d="m215.2 98.15v1.215m12.05-1.215v1.215m12.06-1.215v1.215" fill="#00f" stroke="#00f" stroke-linejoin="round" stroke-width=".176"/>
 <path d="m251.4 98.15v1.215m12.05-1.215v1.215m-51.94-5.095h-1.215m1.215-6.46h-1.215m1.215-6.46h-1.215m1.215-6.46h-1.215m1.215-6.46h-1.215" fill="none" stroke="#000" stroke-linejoin="round" stroke-width=".176"/>
 <g transform="translate(101.5 -184.5)" stroke="#00f">
  <g fill="#00f">
   <g transform="matrix(.3528 0 0 -.3528 58.1 430.5)" clip-path="url(#j)">
    <path d="m154.4 423.6v46.74" stroke-linejoin="round" stroke-width=".984"/>
   </g>
   <g transform="matrix(.3528 0 0 -.3528 58.1 430.5)" clip-path="url(#k)">
    <path d="m188.6 439.3v49.94" stroke-linejoin="round" stroke-width=".984"/>
   </g>
   <g transform="matrix(.3528 0 0 -.3528 58.1 430.5)" clip-path="url(#l)">
    <path d="m222.7 414v49.19" stroke-linejoin="round" stroke-width=".984"/>
   </g>
   <g transform="matrix(.3528 0 0 -.3528 58.1 430.5)" clip-path="url(#m)">
    <path d="m256.9 445.4v51.45" stroke-linejoin="round" stroke-width=".984"/>
   </g>
   <g transform="matrix(.3528 0 0 -.3528 58.1 430.5)" clip-path="url(#n)">
    <path d="m291 447.5v52.59" stroke-linejoin="round" stroke-width=".984"/>
   </g>
  </g>
  <path d="m161.5 272.7h-1.389m-10.66 0.755h-1.389m-22.72 2.133h-1.388m-10.66 5.535h-1.39m49.6-26.97h-1.389m-10.66 1.158h-1.389m-10.66 11.88h-1.389m-10.66-9.211h-1.388m-10.66 6.665h-1.39" fill="none" stroke-linejoin="round" stroke-width=".347"/>
 </g>
 <path d="m216.4 65.79-0.026 0.06 0.026 0.062 0.06 0.024 0.062-0.024 0.026-0.062-0.026-0.06-0.061-0.027z" fill="#929292"/>
 <g transform="translate(101.5 -184.5)" fill="#929292">
  <path d="m114.9 250.4 0.06 0.025 0.062-0.025 0.025-0.061-0.025-0.06-0.062-0.027-0.06 0.026-0.026 0.06 0.026 0.062m0.06 0.373a0.437 0.437 0 0 1-0.433-0.434 0.434 0.434 0 0 1 0.434-0.434 0.434 0.434 0 0 1 0.307 0.74 0.433 0.433 0 0 1-0.307 0.128h-1e-3m36.15 9.987-0.062-0.025v-1e-3l-0.025-0.06 0.025-0.062 0.062-0.025 0.061 0.024 0.026 0.062-0.025 0.06-1e-3 2e-3z"/>
  <path d="m151.4 261h1e-3m-0.307-0.394-0.062 0.025-0.025 0.062 0.024 0.06 0.062 0.026 0.061-0.024 1e-3 -1e-3 0.025-0.061-0.025-0.062-0.062-0.025m0 0.52a0.434 0.434 0 0 1 0-0.868 0.4345 0.4345 0 1 1 0 0.869m12.05 9.339-0.06-0.025-0.026-0.062 0.026-0.062 0.06-0.024 0.062 0.024 0.025 0.062-0.025 0.062z"/>
  <path d="m163.5 270.1h-1e-3m-0.307 0.22-0.06 0.025-0.027 0.061 0.027 0.062 0.06 0.026 0.062-0.026 0.024-0.062-0.024-0.06v-1e-3l-0.062-0.025m0 0.52a0.434 0.434 0 0 1-0.306-0.74 0.43 0.43 0 0 1 0.74 0.307 0.434 0.434 0 0 1-0.434 0.434m-48.5-12.47 0.123 0.123-0.123-0.123m0.48 0.368-0.178-0.179-0.179 0.179-0.123-0.122-0.302-0.302 0.18-0.18-0.18-0.18 0.425-0.424 0.179 0.179 0.056-0.057 0.123-0.122 0.424 0.424-0.18 0.18 0.18 0.18zm23.62 10.61 0.123 0.122-0.123-0.122m0.123 0.369-0.123-0.125-0.18-0.18-0.12-0.123 0.178-0.178-0.057-0.056-0.122-0.123 0.424-0.425 0.18 0.18 0.056-0.057 0.122-0.123 0.427 0.425-0.18 0.179 0.056 0.055 0.124 0.123-0.427 0.427-0.179-0.18-0.055 0.057zm-23.65-9.819h-0.55v-0.173h0.175-0.174v-0.027h-0.202v-0.55h0.202v-0.202h0.549v0.202h0.2v0.55h-0.2v0.027zm12.05 14.21h-0.55v-0.174h0.175-0.175v-0.028h-0.2v-0.549h0.2v-0.2h0.55v0.2h0.202v0.55h-0.202v0.027zm12.06 5.17h-0.55v-0.174h0.175-0.174v-0.027h-0.202v-0.55h0.202v-0.137h0.549v0.137h0.2v0.55h-0.2v0.027zm12.05-4.52h-0.548v-0.174h0.173-0.173v-0.027h-0.202v-0.549h0.202v-0.202h0.548v0.202h0.202v0.549h-0.202v0.027zm12.05-7.11h-0.55v-0.173h0.174-0.173v-0.027h-0.202v-0.55h0.202v-0.202h0.027l0.246 0.246 0.248-0.246h0.028v0.202h0.2v0.55h-0.2v0.027zm-47.95-3.82h-1.066v-1.066h1.066z"/>
  <path d="m114.3 262.6h0.174-0.174m0.174 1.24h1.065v-1.066h-1.065zm1.413 0.347h-1.76v-1.76h1.76zm11.17 12.91-0.108-0.108h0.217l-0.053 0.052-0.056 0.056m0.533 0.175-0.284-0.283h0.284v0.283m-1.066 0v-0.283h0.284l-0.284 0.283m1.066 0.358-0.108-0.108 0.108-0.109v0.217m-1.066 0v-0.217l0.109 0.109-0.109 0.108m0.284 0.425h-0.284v-0.284l0.052 0.053 0.18 0.179 0.052 0.052m0.358 0h-0.217l0.052-0.052 0.056-0.057 0.109 0.109m0.424 0h-0.283l0.283-0.283z"/>
 </g>
 <path d="m228.2 93.22 0.123 0.123-0.123-0.123m0.551 0.298h-0.14l-0.11-0.108-0.055 0.056-0.053 0.052h-0.14l-0.053-0.052-0.231-0.231v-0.141l0.108-0.109-0.056-0.056-0.052-0.053v-0.14l0.284-0.284h0.14l0.109 0.109 0.056-0.057 0.053-0.052h0.14l0.283 0.283v0.141l-0.108 0.11 0.057 0.055 0.051 0.053v0.141z" fill="#7c7c7c"/>
 <path d="m227.8 92.28h0.174-0.174m0.458 1.24 0.07 0.07 0.07-0.07h0.218l0.07 0.07 0.07-0.07h0.283v-0.283l0.072-0.072-0.072-0.07v-0.217l0.072-0.07-0.072-0.071v-0.283h-0.283l-0.07-0.07-0.07 0.07h-0.218l-0.07-0.07-0.07 0.07h-0.284v0.283l-0.071 0.07 0.07 0.07v0.218l-0.07 0.07 0.07 0.071v0.284h0.285m1.128 0.347h-1.76v-1.76h1.76z" fill="#929292"/>
 <path d="m228.4 92.45h-0.14l0.07-0.07 0.07 0.07m0.358 0h-0.141l0.07-0.07 0.07 0.07m-0.782 0.424-0.07-0.07 0.07-0.071v0.14m1.066 1e-3v-0.141l0.071 0.07-0.071 0.071m-1.066 0.359-0.07-0.071 0.07-0.07v0.14m1.066 0v-0.14l0.071 0.07-0.071 0.07m-0.354 0.354-0.07-0.07h0.14l-0.07 0.07m-0.358 0-0.07-0.07h0.141z" fill="#7c7c7c"/>
 <path d="m241.1 93.51h-1.067v-1.066h1.067z" fill="#929292"/>
 <path d="m239.8 92.28h0.174-0.174m0.174 1.24h1.067v-1.066h-1.067zm1.414 0.347h-0.606v-0.066h-0.55v0.066h-0.606v-1.76h1.762z" fill="#929292"/>
 <path d="m240.8 93.86h-0.55v-0.065h0.55z" fill="#7c7c7c"/>
 <path d="m253.1 81.89h-0.283l0.272-0.273h0.011z" fill="#929292"/>
 <path d="m253.1 81.61h-0.01l0.01-0.01z" fill="#5a5a5a"/>
 <path d="m252.4 81.89h-0.284v-0.284l0.053 0.053 0.18 0.179 0.051 0.052m0.358 0h-0.217l0.052-0.052 0.056-0.057z" fill="#929292"/>
 <path d="m253.1 81.46-0.109-0.109 0.11-0.109z" fill="#5a5a5a"/>
 <path d="m253.1 81.09h-0.011l-0.272-0.274h0.283v0.274m-1.066 0.37v-0.218l0.052 0.052 0.057 0.056z" fill="#929292"/>
 <path d="m253.1 81.11-0.011-0.011h0.011z" fill="#5a5a5a"/>
 <path d="m252.6 80.93-0.108-0.11h0.216l-0.052 0.053-0.056 0.057m-0.533 0.176v-0.285h0.283z" fill="#929292"/>
 <path d="m252.3 81.59 0.123 0.123-0.123-0.123m0.551 0.298h-0.14l-0.11-0.109-0.055 0.056-0.053 0.053h-0.14l-0.052-0.053-0.18-0.178-0.052-0.053v-0.14l0.109-0.11-0.057-0.056-0.052-0.052v-0.14l0.283-0.286h0.142l0.107 0.11 0.057-0.057 0.052-0.053h0.142l0.271 0.274h-0.446v0.52h0.447z" fill="#7c7c7c"/>
 <path d="m253.1 81.61h-0.447v-0.52h0.447l0.01 0.01v0.141l-0.108 0.108 0.056 0.057 0.053 0.053v0.14z" fill="#717171"/>
 <path d="m251.9 80.65h0.174-0.174m0.815 1.24 0.07 0.071 0.071-0.07h0.284v-0.273h0.063v-0.074l7e-3 -7e-3 -7e-3 -6e-3v-0.345l6e-3 -7e-3 -6e-3 -7e-3v-0.075h-0.063v-0.274h-0.284l-0.07-0.071-0.071 0.071h-0.216l-0.071-0.071-0.071 0.071h-0.284v0.285l-0.07 0.07 0.07 0.07v0.218l-0.07 0.07 0.07 0.07v0.285h0.284l0.07 0.07 0.071-0.07h0.217m0.772 0.346h-1.76v-0.62h0.096v-0.52h-0.097v-0.621h1.76z" fill="#929292"/>
 <path d="m253.2 81.17-0.064-0.064v-0.011h0.064v0.075m0 0.358-0.064-0.064v-0.218l0.064-0.063v0.345m-1.38 0.087h-0.097v-0.52h0.097zm1.38 0h-0.064v-0.01l0.064-0.064z" fill="#5a5a5a"/>
 <path d="m253.2 81.54v-0.014l7e-3 6e-3 -7e-3 7e-3m-1.13 0.063-0.07-0.07 0.07-0.07v0.14m0.355 0.355-0.07-0.071h0.14l-0.07 0.07m0.358 0-0.07-0.07h0.14z" fill="#7c7c7c"/>
 <path d="m253.1 81.6v-0.14l0.064 0.063v0.014z" fill="#717171"/>
 <path d="m253.2 81.18v-0.013l6e-3 6e-3 -6e-3 7e-3m-1.13 0.064-0.07-0.07 0.07-0.07z" fill="#7c7c7c"/>
 <path d="m253.1 81.25v-0.14l0.064 0.063v0.013z" fill="#717171"/>
 <path d="m252.5 80.82h-0.141l0.07-0.071 0.07 0.071m0.359 0h-0.142l0.071-0.071z" fill="#7c7c7c"/>
 <g transform="translate(101.5 -184.5)" fill="#929292">
  <path d="m163.7 265.1h-0.23l-0.304-0.304-0.303 0.304h-0.23v-1.066h1.067z"/>
  <path d="m162.5 263.9h0.174-0.174m1.588 1.587h-0.23l-0.348-0.347h0.23v-1.066h-1.066v1.066h0.23l-0.348 0.347h-0.23v-1.76h1.762zm-49.09-11.94-0.571-0.571 0.571-0.57 0.57 0.57z"/>
  <path d="m115 252.4-0.571 0.57 0.571 0.572 0.57-0.571-0.57-0.571m-0.123 1.265 0.123 0.123-0.123-0.123m0.123 0.368-0.122-0.123-0.94-0.94 1.062-1.06 1.062 1.06zm12.05 12.44-0.31-0.31h0.169v-0.521h-0.17l0.311-0.312 0.571 0.572z"/>
 </g>
 <path d="m228.4 81.61h-0.17l-0.26-0.26 0.26-0.26h0.17z" fill="#5a5a5a"/>
 <path d="m228.2 81.61 0.31 0.31 0.572-0.57-0.572-0.572-0.31 0.311h-0.351v0.521h0.351m0.188 0.433 0.122 0.123-0.122-0.123m0.122 0.368-1.062-1.062 1.062-1.063 0.802 0.803h-0.083v0.521h0.083z" fill="#929292"/>
 <path d="m228.2 81.61h-0.351v-0.52h0.35l-0.26 0.26 0.261 0.26m1.112 0h-0.083v-0.52h0.083l0.26 0.26z" fill="#5a5a5a"/>
 <g transform="translate(101.5 -184.5)" fill="#929292">
  <path d="m139.1 256.1-0.571-0.571 0.571-0.57 0.572 0.57z"/>
  <path d="m139.1 255-0.571 0.57 0.571 0.572 0.572-0.571-0.572-0.571m-0.122 1.264 0.122 0.123-0.122-0.123m0.122 0.368-0.123-0.122-0.939-0.94 1.062-1.061 1.064 1.062zm12.05 7.258-0.57-0.571 0.57-0.57 0.571 0.57z"/>
  <path d="m151.1 262.7-0.57 0.57 0.57 0.572 0.571-0.571-0.571-0.571m-0.122 1.264 0.122 0.123-0.122-0.123m0.122 0.369-0.123-0.123-0.939-0.94 1.062-1.061 1.062 1.062zm12.05 2.097-0.073-0.073 0.018-0.017 0.016-0.017h0.08l0.034 0.033z"/>
 </g>
 <path d="m264.7 81.85-0.034-0.033h0.067l-0.033 0.033m-0.148 0-0.034-0.033h0.068l-0.016 0.017z" fill="#7c7c7c"/>
 <path d="m265.2 81.43-0.017-0.017-8e-3 -9e-3 0.036-0.11 0.063 0.062z" fill="#929292"/>
 <path d="m65.26 81.62h0.52v-0.52h-0.52zm-1.38 0h0.521v-0.52h-0.52zm-1.38 0h0.52v-0.52h-0.52zm-1.38 0h0.52v-0.52h-0.52zm-1.38 0h0.52v-0.52h-0.52zm-1.38 0h0.52v-0.52h-0.52zm-1.38 0h0.52v-0.52h-0.52zm-1.38 0h0.52v-0.52h-0.52zm-1.38 0h0.52v-0.52h-0.52zm-1.38 0h0.521v-0.52h-0.522zm-1.38 0h0.52v-0.52h-0.52zm-1.38 0h0.52v-0.52h-0.52zm-1.38 0h0.52v-0.52h-0.52zm-1.38 0h0.52v-0.52h-0.52zm-1.38 0h0.52v-0.52h-0.52zm-1.38 0h0.52v-0.52h-0.52zm-1.38 0h0.52v-0.52h-0.52zm-1.38 0h0.52v-0.52h-0.52zm-1.38 0h0.52v-0.52h-0.52zm-1.38 0h0.52v-0.52h-0.52zm-1.381 0h0.521v-0.52h-0.521zm-1.38 0h0.52v-0.52h-0.52zm-1.38 0h0.521v-0.52h-0.52zm-1.38 0h0.521v-0.52h-0.521zm-1.38 0h0.52v-0.52h-0.52zm-1.38 0h0.52v-0.52h-0.52zm-1.38 0h0.522v-0.52h-0.522zm-1.38 0h0.521v-0.52h-0.521zm-1.38 0h0.521v-0.52h-0.521zm-1.38 0h0.52v-0.52h-0.52zm-1.38 0h0.52v-0.52h-0.52zm-1.38 0h0.52v-0.52h-0.52zm-1.38 0h0.521v-0.52h-0.521zm-1.38 0h0.52v-0.52h-0.52zm-1.38 0h0.52v-0.52h-0.52z"/>
 <path d="m265.1 81.48 0.024-0.076 0.01 0.01 0.016 0.015z" fill="#7c7c7c"/>
 <path d="m264.2 81.43-0.073-0.073 0.062-0.063 0.036 0.111z" fill="#929292"/>
 <path d="m264.2 81.48-0.049-0.049 0.025-0.025z" fill="#7c7c7c"/>
 <path d="m264.9 82.17h-0.248l-0.122-0.122 0.122 0.122h-0.246l-0.814-0.816 0.41-0.411h0.28l-0.232 0.233 0.084 0.085 0.01 0.031-0.062 0.062 0.074 0.074-0.106 0.106 0.256 0.256 0.01 0.029h0.019l0.017 0.017 0.123 0.122 0.105-0.105 0.073 0.073 0.075-0.074 0.106 0.106 0.14-0.14h0.017l8e-3 -0.025 0.26-0.26-0.106-0.105 0.073-0.073-0.062-0.062 0.01-0.033 0.084-0.084-0.232-0.233h0.279l0.412 0.412z" fill="#929292"/>
 <path d="m265.2 81.26 0.027-0.082-0.323-0.236h0.148l0.232 0.234-0.084 0.084m-1.039 0-0.084-0.084 0.232-0.233h0.147l-0.321 0.235 0.026 0.083m0.172 0.53-0.257-0.257 0.106-0.106 0.05 0.049 0.1 0.313m0.694 2e-3 0.103-0.314 0.05-0.05 0.106 0.105-0.26 0.26m-0.164 0.164-0.107-0.106 0.033-0.033h0.213l-0.14 0.14m-0.359 0-0.122-0.123-0.018-0.017h0.212l0.033 0.034zm0.179 0.462-0.123-0.122-0.123-0.124h0.493zm0.31-1.83h-0.607l0.303-0.304zm0.34 0.35h-0.278l-0.192-0.193-0.093 0.093-0.088-0.063-0.086 0.063-0.093-0.093-0.192 0.193h-0.279l0.347-0.347h0.607z" fill="#7c7c7c"/>
 <path d="m264.4 80.94h-0.147l0.192-0.193 0.092 0.093-0.137 0.1m0.596 0h-0.148l-0.122-0.089-0.015-0.01 0.093-0.094z" fill="#787878"/>
 <path d="m216.5 64.68h-0.17l-0.04-0.117h0.248z" fill="#929292"/>
 <path d="m216.8 65.02h-0.676l-0.15-0.465h0.365l0.038 0.118h0.171l0.039-0.118h0.365z" fill="#929292"/>
 <path d="m228.5 96.94-0.062-0.025-0.025-0.062 0.026-0.061 0.061-0.026 0.062 0.026 0.025 0.061-0.025 0.062z" fill="#7c7c7c"/>
 <path d="m228.4 96.8-0.025 0.062 0.025 0.061 0.061 0.026 0.062-0.026 0.025-0.061-0.025-0.062-0.062-0.025-0.06 0.025m0.146 0.18h-0.17l-0.054-0.163 0.138-0.101 0.139 0.1z" fill="#7c7c7c"/>
 <path d="m228.5 97.29a0.433 0.433 0 0 0 0.308-0.74v-1e-3a0.437 0.437 0 0 0-0.615 0 0.434 0.434 0 0 0 0.307 0.741m0.338 0.031h-0.676l-0.21-0.642 0.548-0.399 0.102 0.075 0.444 0.324-0.208 0.642" fill="#929292"/>
 <g transform="translate(101.5 -184.5)" fill="#7c7c7c">
  <path d="m127 281.2-0.139 0.101 0.054 0.163h0.17l0.053-0.163-0.138-0.101m0 0.58a0.433 0.433 0 0 1-0.308-0.74l1e-3 -1e-3a0.435 0.435 0 0 1 0.615 0 0.432 0.432 0 0 1 0 0.614 0.433 0.433 0 0 1-0.308 0.127m12.05-10.68-0.06-0.025-0.027-0.061 0.027-0.06 0.06-0.028 0.062 0.027 0.025 0.06-0.025 0.063z"/>
  <path d="m139 271-0.026 0.06 0.026 0.062 0.06 0.025 0.062-0.025 0.025-0.062-0.025-0.06-0.062-0.027-0.06 0.027m0.146 0.178h-0.17l-0.053-0.163 0.138-0.1 0.138 0.1z"/>
 </g>
 <g transform="translate(101.5 -184.5)">
  <path d="m139.1 270.6a0.434 0.434 0 0 0 0 0.868 0.434 0.434 0 0 0 0.308-0.74 0.435 0.435 0 0 0-0.308-0.128m0.338 0.9h-0.676l-0.207-0.644 0.545-0.395 0.102 0.073 0.446 0.322-0.21 0.643" fill="#929292"/>
  <path d="m139.1 270.9-0.138 0.1 0.053 0.164h0.17l0.054-0.163-0.139-0.101m-1e-3 0.58a0.436 0.436 0 0 1-0.433-0.434 0.436 0.436 0 0 1 0.434-0.434c0.118 0 0.227 0.047 0.307 0.127h1e-3a0.431 0.431 0 0 1 0 0.613 0.434 0.434 0 0 1-0.308 0.128" fill="#7c7c7c"/>
  <path d="m151.2 276.3h-0.17l-0.054-0.163 0.139-0.1 0.138 0.1z" fill="#929292"/>
  <path d="m151.1 276.1-0.139 0.1 0.054 0.163h0.17l0.053-0.163-0.138-0.1m0.338 0.61h-0.676l-0.21-0.643 0.548-0.396 0.546 0.396z" fill="#929292"/>
  <path d="m163.3 266h-0.17l-0.054-0.162 0.138-0.1 0.139 0.1z" fill="#787878"/>
  <path d="m163.7 265.9-0.048-0.048 0.073-0.073 0.011 0.011-0.036 0.11m-0.946 0-0.036-0.11 0.01-0.011 0.018 0.017 0.056 0.056-0.048 0.048m0.513 0.416h-0.08l0.04-0.04z" fill="#7c7c7c"/>
  <path d="m163.2 265.7-0.138 0.1 0.053 0.162h0.17l0.054-0.161-0.139-0.101m-0.301 0.381 0.122 0.123-0.122-0.123m0.408 0.229h-0.066l-0.04-0.04-0.04 0.04h-0.068l-0.341-0.342-0.025-0.074 0.049-0.048-0.057-0.057-0.017-0.016 0.338-0.34h0.32l0.339 0.34-0.074 0.073 0.049 0.048-0.025 0.075zm-0.107-0.89-0.074-0.074 0.073-0.073 0.074 0.074-0.016 0.016z" fill="#787878"/>
  <path d="m163.3 265.5h-0.32l0.086-0.087 0.075 0.075 0.057-0.058 0.016-0.016z" fill="#767676"/>
  <path d="m163.5 266.3h-0.018l0.026-0.026z" fill="#7c7c7c"/>
  <path d="m163.5 266.3h-0.213l0.342-0.34-0.103 0.314z" fill="#787878"/>
  <path d="m162.9 266.3h-0.02l-8e-3 -0.029z" fill="#7c7c7c"/>
  <path d="m163.1 266.3h-0.212l-0.028-0.029-0.101-0.313z" fill="#787878"/>
  <path d="m162.7 265.8-0.01-0.031 0.02 0.02-0.01 0.011m1.018 0-0.011-0.01 0.021-0.022z" fill="#7c7c7c"/>
  <path d="m162.7 265.8-0.02-0.02-0.027-0.084 0.321-0.235h0.064l-0.338 0.339m0.997 0-0.34-0.339h0.065l0.323 0.235-0.027 0.083zm-0.427-0.42-0.074-0.074-0.073 0.073-0.013-0.013 0.086-0.064 0.088 0.064z" fill="#787878"/>
  <path d="m163 265.5h-0.064l0.137-0.1 0.013 0.013-0.086 0.087m0.384 0h-0.064l-0.087-0.086 0.014-0.013 0.015 0.01z" fill="#767676"/>
 </g>
 <g transform="translate(101.5 -184.5)" fill="#00f" stroke="#00f">
  <path d="m112.6 274.1a1.215 1.215 0 1 0 0-2.43 1.215 1.215 0 0 0 0 2.43" stroke-width=".353"/>
  <path d="m112.6 274.1a1.215 1.215 0 1 0 0-2.43 1.215 1.215 0 0 0 0 2.43z" stroke-linejoin="round" stroke-width=".347"/>
  <path d="m124.6 268a1.215 1.215 0 1 0 4e-3 -2.43 1.215 1.215 0 0 0-4e-3 2.43" stroke-width=".353"/>
  <path d="m124.6 268a1.215 1.215 0 1 0 4e-3 -2.43 1.215 1.215 0 0 0-4e-3 2.43z" stroke-linejoin="round" stroke-width=".347"/>
  <path d="m136.7 277a1.216 1.216 0 0 0 1.215-1.215 1.216 1.216 0 1 0-1.215 1.215" stroke-width=".353"/>
  <path d="m136.7 277a1.216 1.216 0 0 0 1.215-1.215 1.216 1.216 0 1 0-1.215 1.215z" stroke-linejoin="round" stroke-width=".347"/>
  <path d="m148.7 265.6a1.217 1.217 0 0 0 1.215-1.215 1.216 1.216 0 0 0-2.075-0.858 1.217 1.217 0 0 0 0 1.718c0.228 0.227 0.537 0.355 0.86 0.355" stroke-width=".353"/>
  <path d="m148.7 265.6a1.217 1.217 0 0 0 1.215-1.215 1.216 1.216 0 0 0-2.075-0.858 1.217 1.217 0 0 0 0 1.718c0.228 0.227 0.537 0.355 0.86 0.355z" stroke-linejoin="round" stroke-width=".347"/>
  <path d="m160.8 264.6a1.215 1.215 0 1 0 2e-3 -2.43 1.215 1.215 0 0 0-2e-3 2.43" stroke-width=".353"/>
  <path d="m160.8 264.6a1.215 1.215 0 1 0 2e-3 -2.43 1.215 1.215 0 0 0-2e-3 2.43z" stroke-linejoin="round" stroke-width=".347"/>
 </g>
 <path d="m211.5 64.56h55.68m-55.68 33.59h55.68m0 0v-33.59m-55.68 33.59v-33.59" fill="none" stroke="#000" stroke-linecap="square" stroke-width=".176"/>
 <text x="204.44292" y="5.6956482" font-family="sans-serif" font-size="2.293px" stroke-width=".353"><tspan x="214.42183 226.53606 238.45995 250.63835 262.62646" y="102.15065">NEOAC</tspan></text>
 <g transform="translate(3.908)" fill="none" stroke="#000" stroke-width=".02">
  <path d="m11.9 69.73h251.4"/>
  <path d="m11.9 71.03h251.4"/>
  <path d="m11.9 73.61h251.4"/>
  <path d="m11.9 72.32h251.4"/>
  <g transform="translate(0 6.461)">
   <path d="m11.9 69.73h251.4"/>
   <path d="m11.9 71.03h251.4"/>
   <path d="m11.9 73.61h251.4"/>
   <path d="m11.9 72.32h251.4"/>
  </g>
  <g transform="translate(0,12.92)">
   <path d="m11.9 69.73h251.4"/>
   <path d="m11.9 71.03h251.4"/>
   <path d="m11.9 73.61h251.4"/>
   <path d="m11.9 72.32h251.4"/>
  </g>
  <g transform="translate(0,19.38)">
   <path d="m11.9 69.73h251.4"/>
   <path d="m11.9 71.03h251.4"/>
   <path d="m11.9 73.61h251.4"/>
   <path d="m11.9 72.32h251.4"/>
  </g>
 </g>
 <g transform="translate(-26.21 -12.52)" stroke-linejoin="round" stroke-width=".176">
  <path d="m112.2 110.7v1.215m12.66-1.215v1.215" fill="none" stroke="#000"/>
  <path d="m137.5 110.7v1.215" fill="#00b300" stroke="#00b300"/>
 </g>
 <path d="m123.9 98.15v1.215m12.66-1.215v1.215m-54.41-5.091h-1.215m1.215-6.461h-1.215m1.215-6.46h-1.215m1.215-6.459h-1.215m1.215-6.461h-1.215" fill="none" stroke="#000" stroke-linejoin="round" stroke-width=".176"/>
 <g stroke="#00b300">
  <path d="m84.73 83.45v-18.51m12.65 18.41v-17.12m12.65 31.21v-16.71m12.66 6.748v-18.73m12.65 19.48v-20.11" fill="#00b300" stroke-linejoin="round" stroke-width=".347"/>
  <path d="m136 88.23h-1.388m-11.26-0.753h-1.39m-11.26 9.965h-1.389m-11.27-14.08h-1.388m-11.27 0.096h-1.389m52-15.34h-1.388m-11.26 0.633h-1.39m-11.26 11.98h-1.389m-11.27-14.49h-1.388m-11.27-1.288h-1.389" fill="none" stroke-linejoin="round" stroke-width=".347"/>
  <g transform="translate(-26.21 -12.52)" fill="#00b300">
   <path d="m110.9 87.94a1.218 1.218 0 0 0 1.215-1.215 1.216 1.216 0 1 0-1.215 1.215" stroke-width=".353"/>
   <path d="m110.9 87.94a1.218 1.218 0 0 0 1.215-1.215 1.216 1.216 0 1 0-1.215 1.215z" stroke-linejoin="round" stroke-width=".347"/>
   <path d="m123.6 88.53a1.215 1.215 0 1 0 0-2.43 1.215 1.215 0 0 0 0 2.43" stroke-width=".353"/>
   <path d="m123.6 88.53a1.215 1.215 0 1 0 0-2.43 1.215 1.215 0 0 0 0 2.43z" stroke-linejoin="round" stroke-width=".347"/>
   <path d="m136.2 102.8a1.216 1.216 0 0 0 1.215-1.215 1.216 1.216 0 1 0-1.215 1.215" stroke-width=".353"/>
   <path d="m136.2 102.8a1.216 1.216 0 0 0 1.215-1.215 1.216 1.216 0 1 0-1.215 1.215z" stroke-linejoin="round" stroke-width=".347"/>
   <path d="m148.9 91.85c0.321 0 0.63-0.128 0.858-0.357a1.212 1.212 0 0 0-0.858-2.073 1.215 1.215 0 1 0 0 2.43" stroke-width=".353"/>
   <path d="m148.9 91.85c0.321 0 0.63-0.128 0.858-0.357a1.212 1.212 0 0 0-0.858-2.073 1.215 1.215 0 1 0 0 2.43z" stroke-linejoin="round" stroke-width=".347"/>
   <path d="m161.5 91.91a1.216 1.216 0 0 0 1.215-1.215 1.215 1.215 0 1 0-2.43 0 1.216 1.216 0 0 0 1.215 1.215" stroke-width=".353"/>
   <path d="m161.5 91.91a1.216 1.216 0 0 0 1.215-1.215 1.215 1.215 0 1 0-2.43 0 1.216 1.216 0 0 0 1.215 1.215z" stroke-linejoin="round" stroke-width=".347"/>
  </g>
 </g>
 <path d="m82.2 64.55h55.68m-55.68 33.59h55.68m0 0v-33.59m-55.68 33.59v-33.59" fill="none" stroke="#000" stroke-linecap="square" stroke-width=".176"/>
 <text x="76.542374" y="5.9036446" font-family="sans-serif" font-size="2.293px" stroke-width=".353"><tspan x="86.522079 98.636307 110.5602 122.7386 134.7267" y="102.35863">NEOAC</tspan></text>
 <path d="m148.1 98.15v1.215m12.05-1.215v1.215m12.05-1.215v1.215m12.05-1.215v1.215m12.05-1.215v1.215m-51.94-30.94h-1.215m1.215 6.46h-1.215m1.215 6.46h-1.215m1.215 6.46h-1.215m1.215 6.46h-1.215" fill="none" stroke="#000" stroke-linejoin="round" stroke-width=".176"/>
 <text x="166.21399" y="67.995117" fill="#000000" font-family="sans-serif" font-size="2.293px" style="line-height:1.25" xml:space="preserve"><tspan x="166.21399" y="67.995117" font-size="2.293px">Role model</tspan></text>
 <path d="m195.8 79.84h-1.389m-10.66 1.25h-1.389m-10.66 6.235h-1.39m-10.66-4.868h-1.39m25.49-16.81h-1.39m-10.66 3.874h-1.39m-10.66-2.609h-1.389m-10.66 14.76h-1.388" fill="none" stroke="#feb300" stroke-linejoin="round" stroke-width=".347"/>
 <g fill="#929292">
  <path d="m149.3 86.46-0.025 0.061 0.025 0.061h1e-3l0.061 0.025 0.06-0.024h2e-3l0.025-0.062-0.025-0.06-0.062-0.027z"/>
  <path d="m149.4 86.43-0.062 0.026-0.025 0.061 0.025 0.061 1e-3 1e-3 0.061 0.025 0.06-0.025h2e-3l0.025-0.062-0.025-0.06-0.062-0.027m0 0.521a0.433 0.433 0 1 1 0.307-0.74 0.435 0.435 0 0 1 0 0.613 0.433 0.433 0 0 1-0.307 0.127m11.78-9.107h-0.062a0.426 0.426 0 0 1 0.062-0.062v0.062m0.61 0h-0.06v-0.062l0.031 0.03c0.011 0.01 0.02 0.02 0.03 0.032m-0.03 0.582v-1e-3m-0.032 0.03v-0.063h0.061a0.187 0.187 0 0 1-0.03 0.033l-0.03 0.03m-0.55 0a0.43 0.43 0 0 1-0.032-0.03h1e-3a0.388 0.388 0 0 1-0.03-0.033h0.061v0.029h0.173-0.173v0.033m12.33-0.25-0.061-0.024-1e-3 -2e-3 -0.024-0.06 0.025-0.063 0.061-0.024 0.061 0.024 0.026 0.062-0.025 0.061-1e-3 2e-3z"/>
  <path d="m173.5 78.04-0.06 0.024-0.026 0.063 0.024 0.06 1e-3 2e-3 0.061 0.024 0.061-0.024 2e-3 -1e-3 0.024-0.061-0.025-0.063-0.062-0.024m0.368 0.317-0.188-0.189-0.124 0.123-0.056 0.057-0.178-0.18-0.19 0.19a0.432 0.432 0 0 1 0.061-0.538 0.423 0.423 0 0 1 0.172-0.106h0.27a0.432 0.432 0 0 1 0.233 0.643m11.68 0.203a0.435 0.435 0 0 1-0.365-0.199h0.73a0.432 0.432 0 0 1-0.365 0.199m12.05-2.29-0.062-0.025-0.025-0.062 0.025-0.062 0.062-0.025 0.061 0.025 0.025 0.062-0.024 0.06-1e-3 2e-3z"/>
  <path d="m197.5 76.12-0.025 0.062 0.025 0.061 0.062 0.026 0.061-0.026h1e-3l0.025-0.061-0.026-0.062-0.06-0.025-0.063 0.025m0.062 0.495a0.435 0.435 0 0 1-0.435-0.433c0-0.115 0.046-0.225 0.127-0.307a0.425 0.425 0 0 1 0.172-0.106h0.271a0.427 0.427 0 0 1 0.298 0.413 0.434 0.434 0 0 1-0.433 0.434m-48.51 12.72 0.123 0.123-0.123-0.123m0.481 0.368-0.179-0.179-0.056 0.057-0.123 0.122-0.122-0.122-0.18-0.179-0.123-0.123 0.18-0.179-0.18-0.18 0.425-0.423 0.179 0.179 0.056-0.057 0.123-0.122 0.424 0.424-0.179 0.179 0.179 0.179zm23.62-10.71 0.123 0.123-0.123-0.123m0.481 0.368-0.18-0.179-0.056 0.057-0.122 0.122-0.424-0.424 0.178-0.18-0.056-0.056-0.122-0.123 0.235-0.235a0.432 0.432 0 0 0 0.676 0.075l-2e-3 2e-3a0.43 0.43 0 0 0 0.062-0.077l0.235 0.235-0.178 0.18 0.055 0.055 0.123 0.124-0.424 0.424"/>
 </g>
 <path d="m173.2 78.43-1e-3 -1e-3 1e-3 1e-3m0.306 0.126a0.43 0.43 0 0 1-0.368-0.203l0.19-0.189 0.178 0.18 0.056-0.057 0.124-0.123 0.188 0.19a0.434 0.434 0 0 1-0.062 0.076l2e-3 -1e-3a0.433 0.433 0 0 1-0.308 0.127" fill="#7c7c7c"/>
 <path d="m149.6 88.29h-0.548v-0.174h0.174-0.174v-0.028h-0.201v-0.548h0.201v-0.202h0.548v0.202h0.202v0.548h-0.202v0.028zm12.05-10.5a0.434 0.434 0 0 0-0.275-0.098h-1e-3c-0.1 0-0.197 0.035-0.273 0.098v-0.14h0.549v0.14m-0.61 0.61h-0.141v-0.548h0.14a0.432 0.432 0 0 0 0 0.548m0.811 0h-0.139a0.432 0.432 0 0 0 0-0.548h0.14v0.548m-0.201 0.202h-0.55v-0.14a0.438 0.438 0 0 0 0.55 0v0.14" fill="#929292"/>
 <path d="m161.4 78.21-0.06-0.024-1e-3 -2e-3 -0.026-0.06 0.027-0.063 0.06-0.024 0.061 0.024 0.025 0.062-0.024 0.061-1e-3 2e-3z" fill="#7c7c7c"/>
 <path d="m161.4 78.04-0.06 0.024-0.027 0.063 0.026 0.06 1e-3 2e-3 0.06 0.024 0.061-0.024v-2e-3l0.025-0.06-0.025-0.063-0.061-0.024m-1e-3 0.52a0.43 0.43 0 0 1-0.273-0.097v-0.034h0.173-0.173v-0.028h-0.061a0.429 0.429 0 0 1 0-0.549h0.061v-0.061a0.43 0.43 0 0 1 0.273-0.098h1e-3c0.1 0 0.198 0.034 0.275 0.098v0.061h0.062a0.434 0.434 0 0 1 0 0.549h-0.062v0.062a0.437 0.437 0 0 1-0.275 0.097h-1e-3" fill="#7c7c7c"/>
 <path d="m173.2 73.23v-0.1h0.137l-0.137 0.1m0.548 0-0.138-0.1h0.138v0.1m-0.75 0.147v-0.046h0.063l-0.063 0.046m0.952 0-0.065-0.046h0.065v0.047m-0.876 0.502h-0.076v-0.233l0.076 0.233m0.876 0h-0.077l0.077-0.236v0.236m-0.202 0.202h-0.548v-0.012h0.548zm12.05-2e-3h-0.55v-0.173h0.174-0.174v-0.03h-0.202v-0.548h0.202v-0.2h0.55v0.2h0.2v0.549h-0.2v0.029zm12.05-0.07h-0.548v-0.108h0.174-0.174v-0.03h-0.202v-0.549h0.202v-0.2h0.029l0.122 0.123 0.124 0.123 0.245-0.246h0.028v0.2h0.202v0.55h-0.202v0.029zm-47.95 9.17h-1.066v-1.067h1.066z" fill="#929292"/>
 <path d="m148.6 81.94h0.174-0.174m0.174 1.24h1.066v-1.066h-1.066zm1.413 0.348h-1.76v-1.762h1.76zm11.7-6.808h-1.067v-0.93l0.052 0.053 0.179 0.18 0.122 0.122 0.18-0.18 0.178 0.18 0.356-0.354z" fill="#929292"/>
 <path d="m15.81 68.44h251.4" fill="none" stroke="#000" stroke-width=".1"/>
 <path d="m161.1 75.78 0.122 0.123-0.122-0.123m0.122 0.368-0.122-0.122-0.179-0.18-0.052-0.052v-0.136h0.23l0.18 0.18 0.123 0.122 0.303-0.302h0.231v0.136l-0.356 0.354-0.178-0.179-0.057 0.057z" fill="#7c7c7c"/>
 <path d="m160.7 75.48h0.174-0.174m1.588 1.587h-1.762v-1.76h0.23l0.05 0.05-2e-3 3e-3 0.121 0.123 0.058 0.057-0.18 0.18 0.07 0.07v0.93h1.068v-0.93l0.072-0.07-0.125-0.123-0.056-0.057 0.18-0.18-5e-3 -4e-3 0.05-0.05h0.23z" fill="#929292"/>
 <path d="m160.9 75.79-0.07-0.07 0.179-0.18-0.057-0.058-0.122-0.122 3e-3 -4e-3 0.297 0.297h-0.23v0.137m1.067 0v-0.137h-0.231l0.298-0.297 4e-3 4e-3 -0.18 0.18 0.056 0.056 0.125 0.124z" fill="#7c7c7c"/>
 <path d="m174 77.36h-1.066v-1.066h1.066z" fill="#929292"/>
 <path d="m172.8 76.13h0.173-0.173m0.173 1.239h1.066v-1.066h-1.066zm1.413 0.347h-0.744a0.448 0.448 0 0 0-0.27 0h-0.746v-1.76h1.76v1.76" fill="#929292"/>
 <path d="m173.6 77.71h-0.27a0.437 0.437 0 0 1 0.27 0" fill="#7c7c7c"/>
 <path d="m186 78.01h-0.115a0.424 0.424 0 0 0-0.051-0.117l0.166-0.167v0.284" fill="#929292"/>
 <path d="m185.6 78.01h-0.219l0.052-0.053 0.057-0.056 0.11 0.109m0.309 0h-0.169l0.118-0.117c0.023 0.036 0.04 0.075 0.051 0.117" fill="#7c7c7c"/>
 <path d="m185.1 78.01h-0.114v-0.284l0.052 0.052 0.114 0.115a0.418 0.418 0 0 0-0.052 0.117" fill="#929292"/>
 <path d="m185.3 78.01h-0.17a0.418 0.418 0 0 1 0.052-0.117l0.066 0.064 0.052 0.053" fill="#7c7c7c"/>
 <path d="m185.5 77.05-0.109-0.11h0.219l-0.11 0.11m0.534 0.176-0.283-0.286h0.283v0.286m-1.067 0v-0.286h0.283l-0.283 0.286m1.067 0.357-0.052-0.052-0.057-0.056 0.11-0.109v0.217m-1.068 0v-0.217l0.052 0.052 0.056 0.057z" fill="#929292"/>
 <path d="m185.9 77.89a0.434 0.434 0 0 0-0.616-0.126l-0.054-0.055 0.054 0.055a0.428 0.428 0 0 0-0.12 0.126l-0.113-0.114-0.052-0.053v-0.14l0.108-0.109-0.108-0.108v-0.141l0.283-0.285h0.141l0.11 0.11 0.056-0.058 0.053-0.052h0.14l0.284 0.285v0.14l-0.108 0.11 0.056 0.055 0.052 0.053v0.14l-0.166 0.167" fill="#7c7c7c"/>
 <path d="m185.8 78.01h-0.14l-0.11-0.11-0.057 0.057-0.052 0.053h-0.141l-0.052-0.053-0.066-0.064a0.43 0.43 0 0 1 0.12-0.126l0.068 0.068-0.068-0.069a0.433 0.433 0 0 1 0.615 0.127l-0.117 0.117" fill="#787878"/>
 <path d="m184.8 76.77h0.174-0.174m1.588 1.588h-0.516a0.433 0.433 0 0 0 0.054-0.347h0.115v-0.284l0.07-0.07-0.07-0.07v-0.218l0.07-0.07-0.07-0.07v-0.286h-0.283l-0.07-0.07-0.072 0.07h-0.218l-0.07-0.07-0.071 0.07h-0.283v0.286l-0.07 0.07 0.07 0.07v0.217l-0.071 0.07 0.07 0.071v0.284h0.115a0.433 0.433 0 0 0 0.055 0.347h-0.516v-1.762h1.761v1.762" fill="#929292"/>
 <path d="m185.5 78.21-0.06-0.025-0.027-0.062 0.027-0.062 0.06-0.024 0.061 0.024 0.026 0.062-0.025 0.061z" fill="#7c7c7c"/>
 <path d="m185.4 78.06-0.026 0.062 0.026 0.061 0.06 0.026 0.062-0.026 0.025-0.06-0.025-0.063-0.062-0.024-0.06 0.024m0.426 0.297h-0.73a0.434 0.434 0 0 1-0.055-0.347h0.17l0.07 0.07 0.07-0.07h0.22l0.07 0.07 0.07-0.07h0.168a0.433 0.433 0 0 1-0.054 0.347" fill="#7c7c7c"/>
 <path d="m185.7 78.08-0.07-0.07h0.14l-0.07 0.07m-0.36 0-0.07-0.07h0.14z" fill="#787878"/>
 <path d="m185.4 76.94h-0.141l0.07-0.07 0.071 0.07m0.36 0h-0.142l0.07-0.07 0.071 0.07m-0.783 0.426-0.07-0.07 0.07-0.07v0.14m1.066 0v-0.14l0.071 0.07-0.07 0.07m-1.067 0.358-0.071-0.07 0.07-0.07v0.14m1.067 0v-0.14l0.071 0.07z" fill="#7c7c7c"/>
 <path d="m197.6 74.47-0.109-0.109h0.217l-0.052 0.052-0.056 0.057m-0.533 0.174v-0.283h0.283l-0.283 0.283m1.066 0-0.284-0.283h0.284v0.284m-1.066 0.358v-0.217l0.051 0.052 0.058 0.056-0.11 0.109m1.067 0-0.109-0.109 0.11-0.108v0.217m-0.784 0.424h-0.283v-0.283l0.051 0.052 0.18 0.18 0.052 0.051m0.358 0h-0.217l0.052-0.051 0.057-0.057 0.108 0.108m0.425 0h-0.284l0.284-0.284z" fill="#929292"/>
 <path d="m197.3 75.13 0.123 0.123-0.123-0.123m0.551 0.298h-0.14l-0.109-0.109-0.108 0.109h-0.142l-0.232-0.232-0.05-0.051v-0.142l0.108-0.108-0.057-0.056-0.052-0.052v-0.142l0.284-0.283h0.14l0.11 0.109 0.055-0.057 0.053-0.052h0.14l0.284 0.283v0.141l-0.108 0.109 0.108 0.108v0.141z" fill="#7c7c7c"/>
 <path d="m196.9 74.19h0.174-0.174m0.814 1.24 0.072 0.07 0.07-0.07h0.284v-0.284l0.07-0.07-0.07-0.07v-0.218l0.07-0.07-0.07-0.071v-0.283h-0.284l-0.07-0.071-0.07 0.07h-0.218l-0.07-0.07-0.07 0.07h-0.284v0.283l-0.071 0.072 0.07 0.07v0.217l-0.07 0.07 0.07 0.071v0.283h0.284l0.07 0.071 0.071-0.07h0.217m0.772 0.347h-0.745a0.431 0.431 0 0 0-0.271 0h-0.745v-1.76h0.607v0.064h0.547v-0.065h0.607v1.76" fill="#929292"/>
 <path d="m197.7 75.77h-0.271a0.429 0.429 0 0 1 0.271 0m-0.244-1.41h-0.14l0.07-0.07 0.07 0.07m0.358 0h-0.141l0.07-0.07 0.071 0.07m0.284 0.425v-0.142l0.07 0.071-0.07 0.07m-1.066 1e-3 -0.071-0.07 0.07-0.072v0.142m1.067 0.357v-0.14l0.07 0.07-0.07 0.07m-1.066 0-0.071-0.07 0.07-0.07v0.14m0.355 0.355-0.071-0.071h0.141l-0.07 0.07m0.358 0-0.071-0.07h0.141zm0.094-1.416h-0.548v-0.065h0.548z" fill="#7c7c7c"/>
 <path d="m149.6 92.62-0.187-0.137-0.102-0.075-0.29 0.212-0.281-0.283 0.571-0.57 0.57 0.57z" fill="#929292"/>
 <path d="m149.9 92.87 0.022-0.069-0.256-0.187 0.282-0.283-0.57-0.57-0.572 0.57 0.282 0.282-0.258 0.188 0.021 0.067-0.535-0.537 1.061-1.062 1.062 1.062zm11.53-17.76-0.18-0.179-0.175 0.175-0.217-0.217 0.572-0.571 0.572 0.57-0.218 0.218-0.175-0.174-0.123 0.122z" fill="#929292"/>
 <path d="m161.6 75.31h-0.318l-0.196-0.195 0.175-0.175 0.18 0.179 0.056-0.057 0.122-0.121 0.176 0.174z" fill="#7c7c7c"/>
 <path d="m161.4 75.46-0.159-0.158h0.318z" fill="#787878"/>
 <path d="m162.1 75.31h-0.1l-0.196-0.195 0.217-0.217-0.572-0.571-0.571 0.57 0.217 0.218-0.194 0.195h-0.102l-0.412-0.412 1.062-1.062 1.064 1.062z" fill="#929292"/>
 <path d="m161.2 75.31h-0.39l0.194-0.195 0.196 0.195m0.71 0h-0.392l0.195-0.195z" fill="#7c7c7c"/>
 <path d="m161.4 75.96-0.123-0.122-0.18-0.18h0.246l0.057 0.056-0.057-0.056h0.36z" fill="#787878"/>
 <path d="m162 75.36-0.05-0.05h0.1l-0.05 0.05m-1.2 0-0.051-0.05h0.1z" fill="#7c7c7c"/>
 <path d="m161.7 75.65h-0.36l-0.066-0.066 0.066 0.066h-0.245l-0.298-0.297 0.051-0.05h0.39l0.16 0.158 0.158-0.158h0.392l0.05 0.05z" fill="#787878"/>
 <path d="m173.2 81.61h0.521v-0.52h-0.521zm0.292 0.31-0.57-0.57 0.57-0.572 0.57 0.571z" fill="#929292"/>
 <path d="m173.7 81.61h-0.521v-0.52h0.521z" fill="#5a5a5a"/>
 <g fill="#929292">
  <path d="m173.5 80.78-0.57 0.572 0.57 0.57 0.57-0.57-0.57-0.572m-0.123 1.265 0.123 0.124-0.123-0.124m0.123 0.368-0.123-0.122-0.939-0.94 1.062-1.062 1.062 1.063zm12.05-12.11-0.57-0.571 0.57-0.572 0.572 0.572z"/>
  <path d="m185.5 69.15-0.57 0.572 0.57 0.57 0.572-0.57-0.572-0.572m-0.122 1.265 0.122 0.123-0.122-0.123m0.122 0.368-1.062-1.061 1.062-1.064 1.064 1.064zm12.05 2.097-0.571-0.571 0.571-0.57 0.57 0.57z"/>
  <path d="m197.6 71.74-0.571 0.57 0.571 0.572 0.57-0.571-0.57-0.571m0.245 1.387h-0.245l-0.123-0.122 0.123 0.122h-0.246l-0.816-0.816 1.062-1.062 1.062 1.062z"/>
 </g>
 <path d="m197.6 73.37-0.123-0.123-0.123-0.122h0.491zm-48.21 19.54-0.04-0.041 0.04-0.03 0.04 0.03z" fill="#7c7c7c"/>
 <path d="m149.3 93.1h-0.032l-0.016-0.049 0.048 0.049m0.138 0h-0.138l-0.048-0.049-0.038-0.114 0.098-0.07 0.04 0.04 0.042-0.04 0.097 0.07z" fill="#7c7c7c"/>
 <path d="m149.7 93.45h-0.675l-0.188-0.575 0.402 0.403 0.123 0.124 0.523-0.525z" fill="#929292"/>
 <path d="m149.4 92.87-0.04-0.03-0.042 0.03-0.249-0.249 0.29-0.211 0.102 0.075 0.187 0.137z" fill="#7c7c7c"/>
 <path d="m149.4 93.4-0.123-0.124-0.403-0.402-0.022-0.068 0.259-0.187 0.248 0.248-0.098 0.071 0.038 0.115-0.022-0.022 0.022 0.022 0.016 0.048h0.032l0.053 0.053-0.053-0.053h0.138l0.053-0.163-0.097-0.07 0.248-0.25 0.256 0.188-0.022 0.07z" fill="#7c7c7c"/>
 <path d="m161.5 71.14h-0.17l-0.053-0.163 0.138-0.1 0.139 0.1z" fill="#929292"/>
 <path d="m161.4 70.87-0.139 0.1 0.054 0.163h0.17l0.054-0.163-0.139-0.1m0.337 0.61h-0.675l-0.208-0.643 0.545-0.396 0.102 0.074 0.446 0.322z" fill="#929292"/>
 <path d="m173.5 73.72h-0.171l-0.053-0.162 0.139-0.1 0.137 0.1z" fill="#7c7c7c"/>
 <path d="m173.6 73.13h-0.273l0.138-0.1 0.101 0.075 0.034 0.025m-0.41 0.2h-0.139l0.14-0.1v0.1m0.684 0h-0.137v-0.1l0.137 0.1m0.065 0.313v-0.266l0.07 0.051-0.07 0.215m-0.952 3e-3 -0.071-0.218 0.071-0.052v0.27m0.202 0.423h-0.063l-0.063-0.19h0.126v0.03h0.174-0.174v0.16m0.611 0h-0.063v-0.19h0.126z" fill="#929292"/>
 <path d="m173.5 73.46-0.139 0.1 0.053 0.163h0.171l0.053-0.162-0.138-0.101m0.274 0.61h-0.547v-0.161h0.173-0.173v-0.03h-0.127l-0.076-0.233v-0.27l0.063-0.045h0.14v-0.101l0.136-0.1h0.273l0.138 0.1v0.1h0.137l0.065 0.048v0.265l-0.076 0.237h-0.126v0.029z" fill="#7c7c7c"/>
 <g fill="#929292">
  <path d="m185.6 72.43h-0.172l-0.052-0.163 0.138-0.1 0.139 0.1z"/>
  <path d="m185.5 72.16-0.138 0.1 0.053 0.164h0.171l0.054-0.163-0.14-0.101m0.339 0.61h-0.677l-0.208-0.641 0.546-0.399 0.102 0.075 0.445 0.323zm11.8-4.22h-0.17l-0.054-0.163 0.139-0.102 0.139 0.102z"/>
  <path d="m197.6 68.29-0.14 0.101 0.054 0.164h0.171l0.054-0.164-0.139-0.101m0.337 0.611h-0.675l-0.21-0.641 0.548-0.399 0.102 0.074 0.445 0.325z"/>
 </g>
 <path d="m146.9 91.58c0.322 0 0.63-0.129 0.859-0.357a1.213 1.213 0 0 0-0.859-2.073 1.216 1.216 0 0 0-1.215 1.215 1.214 1.214 0 0 0 1.215 1.215" fill="#d3291c"/>
 <g transform="translate(-62.84 -105.3)" fill="#feb300" stroke="#feb300">
  <g transform="matrix(.3528 0 0 -.3528 95.12 351.3)" clip-path="url(#a)">
   <path d="m325 416.6v49.33" stroke-linejoin="round" stroke-width=".984"/>
  </g>
  <g transform="matrix(.3528 0 0 -.3528 95.12 351.3)" clip-path="url(#b)">
   <path d="m359.2 463.7v44.06" stroke-linejoin="round" stroke-width=".984"/>
  </g>
  <g transform="matrix(.3528 0 0 -.3528 95.12 351.3)" clip-path="url(#c)">
   <path d="m393.4 449.9v50.46" stroke-linejoin="round" stroke-width=".984"/>
  </g>
  <g transform="matrix(.3528 0 0 -.3528 95.12 351.3)" clip-path="url(#d)">
   <path d="m427.5 467.6v43.77" stroke-linejoin="round" stroke-width=".984"/>
  </g>
  <g transform="matrix(.3528 0 0 -.3528 95.12 351.3)" clip-path="url(#e)">
   <path d="m461.7 471.1v48.6" stroke-linejoin="round" stroke-width=".984"/>
  </g>
  <path d="m209.8 196.9c0.322 0 0.63-0.129 0.859-0.357a1.213 1.213 0 0 0-0.859-2.073 1.216 1.216 0 0 0-1.215 1.215 1.214 1.214 0 0 0 1.215 1.215z" stroke-linejoin="round" stroke-width=".347"/>
  <path d="m221.8 181.2a1.214 1.214 0 1 0-0.858-2.074 1.213 1.213 0 0 0 0.858 2.074" stroke-width=".353"/>
  <path d="m221.8 181.2a1.214 1.214 0 1 0-0.858-2.074 1.213 1.213 0 0 0 0.858 2.074z" stroke-linejoin="round" stroke-width=".347"/>
  <path d="m233.9 184.9a1.214 1.214 0 1 0 1e-3 -2.428 1.214 1.214 0 0 0-1e-3 2.428" stroke-width=".353"/>
  <path d="m233.9 184.9a1.214 1.214 0 1 0 1e-3 -2.428 1.214 1.214 0 0 0-1e-3 2.428z" stroke-linejoin="round" stroke-width=".347"/>
  <path d="m245.9 179.9c0.323 0 0.632-0.128 0.86-0.355a1.217 1.217 0 0 0-0.86-2.076 1.219 1.219 0 0 0-1.216 1.216 1.219 1.219 0 0 0 1.216 1.215" stroke-width=".353"/>
  <path d="m245.9 179.9c0.323 0 0.632-0.128 0.86-0.355a1.217 1.217 0 0 0-0.86-2.076 1.219 1.219 0 0 0-1.216 1.216 1.219 1.219 0 0 0 1.216 1.215z" stroke-linejoin="round" stroke-width=".347"/>
  <path d="m258 177.8a1.215 1.215 0 1 0 0-2.43 1.215 1.215 0 0 0 0 2.43" stroke-width=".353"/>
  <path d="m258 177.8a1.215 1.215 0 1 0 0-2.43 1.215 1.215 0 0 0 0 2.43z" stroke-linejoin="round" stroke-width=".347"/>
 </g>
 <path d="m144.4 64.51h55.68m-55.68 33.59h55.68m0 0v-33.59m-55.68 33.59v-33.59" fill="none" stroke="#000" stroke-linecap="square" stroke-width=".176"/>
 <path d="m19.54 98.16v1.215m12.05-1.215v1.215m12.05-1.215v1.215m12.05-1.215v1.215m12.05-1.215v1.215m-51.94-5.091h-1.215m1.215-6.461h-1.215m1.215-6.46h-1.215m1.215-6.459h-1.215m1.215-6.461h-1.215" fill="none" stroke="#000" stroke-linejoin="round" stroke-width=".176"/>
 <g transform="translate(4.592 -105.1)" fill="#f00" stroke="#f00">
  <g transform="matrix(.3528 0 0 -.3528 -100.9 388.1)" clip-path="url(#f)">
   <path d="m325 533.2v59.93" stroke-linejoin="round" stroke-width=".984"/>
  </g>
  <path d="m25.8 186.7v-17.06" stroke-linejoin="round" stroke-width=".347"/>
  <g transform="matrix(.3528 0 0 -.3528 -100.9 388.1)" clip-path="url(#g)">
   <path d="m393.4 513.8v60.79" stroke-linejoin="round" stroke-width=".984"/>
  </g>
  <g transform="matrix(.3528 0 0 -.3528 -100.9 388.1)" clip-path="url(#h)">
   <path d="m427.5 520.8v60.37" stroke-linejoin="round" stroke-width=".984"/>
  </g>
  <g transform="matrix(.3528 0 0 -.3528 -100.9 388.1)" clip-path="url(#i)">
   <path d="m461.7 524.3v62" stroke-linejoin="round" stroke-width=".984"/>
  </g>
 </g>
 <path d="m67.24 98.03h-1.389m-34.77-16.36h-1.389m-10.66 13.23h-1.389m49.6-18.75h-1.389m-10.66 1.804h-1.39m-10.66 2.343h-1.39m-22.71-6.54h-1.39" fill="none" stroke="#f00" stroke-linejoin="round" stroke-width=".347"/>
 <g fill="#929292">
  <path d="m20.68 72.26-0.025 0.062 0.025 0.061 0.062 0.026 0.062-0.026 0.025-0.06-0.025-0.063-0.062-0.025z"/>
  <path d="m20.74 72.23-0.062 0.025-0.025 0.062 0.025 0.061 0.062 0.026 0.062-0.026 0.024-0.06-0.024-0.063-0.062-0.025m0 0.52a0.435 0.435 0 1 1 0-0.87 0.435 0.435 0 0 1 0 0.87m12.05 8.698-0.06-0.025-0.027-0.062 0.027-0.062 0.06-0.025 0.061 0.024v1e-3l0.025 0.062-0.025 0.062z"/>
  <path d="m32.8 81.28-0.06 0.024v1e-3l-0.027 0.062 0.027 0.062 0.06 0.025 0.061-0.025 0.025-0.062-0.025-0.062v-1e-3l-0.061-0.024m-1e-3 0.521a0.43 0.43 0 0 1-0.345-0.174h0.206v-0.52h-0.206a0.432 0.432 0 0 1 0.345-0.173l1e-3 -1e-3a0.434 0.434 0 1 1 0 0.868h-1e-3"/>
 </g>
 <path d="m32.66 81.62h-0.207a0.432 0.432 0 0 1 0-0.52h0.207v0.52" fill="#5a5a5a"/>
 <path d="m33.1 81.05m11.74 6.853-0.061-0.024v-1e-3l-0.025-0.061 0.025-0.06 0.061-0.028 0.061 0.027 0.026 0.06-0.026 0.062v1e-3z" fill="#929292"/>
 <path d="m44.85 87.73-0.06 0.026-0.026 0.06 0.025 0.062v2e-3l0.061 0.024 0.061-0.024v-2e-3l0.026-0.061-0.025-0.06-0.062-0.027m0 0.52a0.43 0.43 0 0 1-0.307-0.127v1e-3a0.433 0.433 0 1 1 0.307 0.127m-24.4-10.53 0.123 0.122-0.123-0.122m0.481 0.368-0.179-0.179-0.179 0.179-0.302-0.302-0.122-0.123 0.179-0.179-0.057-0.056-0.123-0.123 0.425-0.424 0.179 0.179 0.18-0.18 0.423 0.425-0.178 0.18 0.178 0.178zm11.57 2.215 0.122 0.123-0.122-0.123m0.122 0.368-0.122-0.123-0.179-0.179-0.123-0.122 0.179-0.18-0.056-0.056-0.122-0.123 0.423-0.424 0.18 0.179 0.056-0.056 0.122-0.123 0.427 0.424-0.18 0.18 0.056 0.055 0.125 0.124-0.428 0.424-0.178-0.179-0.057 0.056zm11.93 2.217 0.123 0.123-0.123-0.123m0.673 0.176h-0.742l-0.232-0.232 0.179-0.18-0.179-0.178 0.326-0.328 0.154 0.154 0.123 0.122 0.277-0.276 0.326 0.328-0.179 0.179 0.179 0.179zm11.38 4.346 0.123 0.122-0.123-0.122m0.123 0.368-0.302-0.302-0.122-0.123 0.178-0.179-0.179-0.179 0.425-0.424 0.179 0.179 0.058-0.057 0.123-0.122 0.424 0.424-0.18 0.18 0.057 0.055 0.123 0.123-0.424 0.425-0.181-0.18-0.056 0.057zm11.93 5.446 0.123 0.123-0.123-0.123m0.026 0.272-0.328-0.328 0.18-0.18-0.056-0.055-0.124-0.124 0.425-0.424 0.18 0.18 0.055-0.057 0.123-0.123 0.425 0.424-0.18 0.18 0.057 0.056 0.123 0.123-0.327 0.327-0.277-0.276zm-47.46-14.31h-0.951v-0.04h0.202v-0.2h0.547v0.2h0.202zm11.85 0.065h-0.55v-0.174h0.174-0.173v-0.028h-0.202v-0.55h0.202v-0.2h0.549v0.2h0.2v0.55h-0.2v0.028zm12.05 0.646h-0.548v-0.174h0.173-0.173v-0.028h-0.202v-0.548h0.202v-0.202h0.548v0.202h0.202v0.548h-0.202v0.028zm12.05 5.168h-0.55v-0.174h0.174-0.174v-0.028h-0.202v-0.55h0.202v-0.2h0.55v0.2h0.2v0.55h-0.2v0.028zm12.05 6.459h-0.548v-0.174h0.174-0.174v-0.028h-0.202v-0.548h0.202v-0.202h0.548v0.202h0.202v0.548h-0.202v0.028zm-47.95-10.93h-1.066v-1.066h0.057v0.162h0.202v0.029h0.174-0.174v0.173h0.548v-0.202h0.201v-0.162h0.058z" fill="#929292"/>
 <path d="m21.02 79.9h-0.548v-0.174h0.174-0.174v-0.028h-0.201v-0.162h0.95v0.162h-0.201v0.028z" fill="#7c7c7c"/>
 <path d="m20.04 79.36h0.174-0.174m1.587 1.587h-1.76v-1.76h0.404v0.346h-0.057v1.066h1.066v-1.066h-0.057v-0.347h0.404z" fill="#929292"/>
 <path d="m21.22 79.54h-0.951v-0.347h0.951v0.335z" fill="#7c7c7c"/>
 <g fill="#929292">
  <path d="m33.33 84.48h-1.067v-1.066h1.067z"/>
  <path d="m32.09 83.24h0.174-0.174m0.174 1.24h1.067v-1.066h-1.067zm1.414 0.347h-1.762v-1.76h1.762zm11.7-0.347h-1.066v-1.066h1.066z"/>
  <path d="m44.14 83.24h0.173-0.173m0.173 1.24h1.066v-1.066h-1.066zm1.413 0.347h-1.76v-1.76h0.509l0.192 0.192 0.123-0.123 0.056-0.057 0.18 0.18 0.192-0.193h0.508z"/>
 </g>
 <path d="m45.03 83.26-0.18-0.18-0.056 0.057-0.122 0.123-0.193-0.193h0.743z" fill="#7c7c7c"/>
 <path d="m57.43 90.94h-1.067v-1.066h1.067z" fill="#929292"/>
 <path d="m56.19 89.7h0.174-0.174m0.174 1.24h1.067v-1.066h-1.067zm1.414 0.347h-1.761v-1.76h1.761zm11.17 6.013a0.433 0.433 0 0 0 0.307-0.742 0.435 0.435 0 0 0-0.613 0l-2e-3 2e-3a0.433 0.433 0 0 0 0 0.613l1e-3 1e-3c0.08 0.08 0.191 0.126 0.307 0.126m0.533 0.098h-1.066v-1.065h1.066z" fill="#929292"/>
 <path d="m68.95 96.95-0.062-0.025-0.025-0.061 0.025-0.062 0.062-0.025 0.061 0.025 0.025 0.062-0.025 0.061z" fill="#7c7c7c"/>
 <path d="m68.89 96.93 0.062 0.025 0.061-0.025 0.026-0.062-0.026-0.062-0.06-0.025-0.063 0.025-0.025 0.062 0.025 0.062m0.062 0.372a0.435 0.435 0 0 1-0.308-0.74l1e-3 -2e-3a0.434 0.434 0 0 1 0.613 0 0.433 0.433 0 0 1 0 0.616 0.436 0.436 0 0 1-0.306 0.126" fill="#7c7c7c"/>
 <g fill="#929292">
  <path d="m68.24 96.16h0.174-0.174m0.174 1.239h1.066v-1.066h-1.066zm1.413 0.347h-1.76v-1.76h1.76zm-49.09-31.32-0.57-0.571 0.57-0.571 0.57 0.57z"/>
  <path d="m20.74 65.29-0.57 0.571 0.57 0.571 0.57-0.57-0.57-0.572m-0.123 1.265 0.123 0.123-0.123-0.123m0.123 0.368-1.062-1.062 1.062-1.062 1.062 1.062zm12.05 24.7-0.572-0.57 0.572-0.572 0.572 0.571z"/>
  <path d="m32.8 90.48-0.572 0.572 0.572 0.57 0.572-0.57-0.572-0.572m-0.123 1.264 0.123 0.123-0.123-0.123m0.123 0.369-0.123-0.123-0.94-0.938 1.063-1.063 1.064 1.063zm11.76-10.49h0.521v-0.52h-0.521zm0.292 0.31-0.57-0.57 0.57-0.571 0.57 0.57z"/>
 </g>
 <path d="m45.08 81.62h-0.521v-0.52h0.521z" fill="#5a5a5a"/>
 <path d="m44.85 80.79-0.57 0.571 0.57 0.57 0.57-0.57-0.57-0.571m-0.123 1.265 0.123 0.122-0.123-0.122m0.123 0.173-0.179-0.18-0.097 0.098-0.786-0.785 1.062-1.062 1.062 1.062-0.785 0.785-0.097-0.099-0.124 0.124z" fill="#929292"/>
 <path d="m44.85 82.42-0.123-0.122-0.153-0.155 0.097-0.098 0.179 0.18 0.18-0.18 0.097 0.098z" fill="#7c7c7c"/>
 <g fill="#929292">
  <path d="m57.35 96.99 0.06-0.184 0.062 0.063-0.122 0.121m-0.899 0-0.122-0.121 0.062-0.063 0.06 0.184m0.45 0.45-0.106-0.106h0.211z"/>
  <path d="m56.79 97.33 0.105 0.105 0.107-0.105h0.233l0.11-0.344 0.122-0.121-0.062-0.062 0.037-0.116-0.445-0.323-0.102-0.073-0.546 0.396 0.038 0.115-0.062 0.063 0.121 0.122 0.112 0.343h0.232m-0.017 0.228 0.122 0.123-0.122-0.123m0.122 0.369-0.122-0.123-0.94-0.94 1.062-1.061 1.064 1.062zm12.05-3.075-0.571-0.57 0.571-0.572 0.57 0.571z"/>
  <path d="m68.95 93.71-0.571 0.57 0.571 0.572 0.57-0.571-0.57-0.571m-0.123 1.264 0.123 0.123-0.123-0.123m0.123 0.368-0.123-0.122-0.94-0.94 0.787-0.785 0.097 0.097 0.122-0.123 0.057-0.056 0.179 0.18 0.097-0.099 0.786 0.787z"/>
 </g>
 <path d="m69.13 93.59-0.179-0.179-0.179 0.179-0.097-0.097 0.276-0.276 0.276 0.275z" fill="#7c7c7c"/>
 <path d="m20.83 71.14h-0.17l-0.054-0.163 0.138-0.1 0.139 0.1z" fill="#929292"/>
 <path d="m20.74 70.88-0.138 0.1 0.053 0.163h0.17l0.054-0.163-0.139-0.1m0.338 0.61h-0.675l-0.21-0.642 0.548-0.397 0.102 0.074 0.443 0.323z" fill="#929292"/>
 <path d="m32.88 73.73h-0.17l-0.053-0.163 0.138-0.1 0.139 0.1z" fill="#f00" stroke="#f00" stroke-width=".353"/>
 <path d="m32.8 73.46-0.139 0.1 0.054 0.164h0.17l0.054-0.163-0.139-0.101m0.337 0.611h-0.675l-0.208-0.642 0.545-0.399 0.548 0.399z" fill="#999" stroke="#999" stroke-width=".353"/>
 <path d="m44.93 71.14h-0.17l-0.054-0.163 0.139-0.1 0.137 0.1z" fill="#929292"/>
 <path d="m44.85 70.88-0.139 0.1 0.054 0.163h0.17l0.053-0.163-0.138-0.1m0.338 0.61h-0.675l-0.21-0.642 0.548-0.397 0.101 0.074 0.443 0.323z" fill="#929292"/>
 <path d="m56.9 96.95-0.06-0.025-0.027-0.061 0.027-0.062 0.06-0.025 0.062 0.025 0.025 0.062-0.025 0.061z" fill="#787878"/>
 <path d="m56.84 96.93 0.06 0.025 0.062-0.025 0.025-0.062-0.025-0.062-0.062-0.025-0.06 0.025-0.026 0.062 0.026 0.062m0.147 0.056h-0.172l-0.053-0.163 0.138-0.1 0.14 0.1z" fill="#787878"/>
 <path d="m56.72 96.47 0.174-0.174 0.173 0.173a0.439 0.439 0 0 0-0.347 1e-3m0.572 0.57a0.429 0.429 0 0 0 0-0.346l0.111 0.111-0.06 0.184-0.051 0.052m-0.795 0-0.052-0.052-0.06-0.185 0.111-0.11a0.436 0.436 0 0 0 0 0.347m0.504 0.292h-0.212l-0.067-0.068a0.429 0.429 0 0 0 0.346 0l-0.067 0.068" fill="#7c7c7c"/>
 <path d="m56.9 96.72-0.138 0.1 0.053 0.163h0.171l0.053-0.162-0.139-0.101m0 0.58a0.429 0.429 0 0 1-0.173-0.037l-0.224-0.224a0.432 0.432 0 0 1 0-0.347l0.223-0.224a0.425 0.425 0 0 1 0.347 0l0.225 0.224a0.437 0.437 0 0 1 0 0.347l-0.225 0.225a0.431 0.431 0 0 1-0.173 0.035" fill="#787878"/>
 <path d="m57.41 96.8-0.111-0.111a0.416 0.416 0 0 0-0.225-0.224l-0.173-0.174-0.174 0.174a0.443 0.443 0 0 0-0.132 0.09h-1e-3a0.446 0.446 0 0 0-0.091 0.134l-0.111 0.11-0.038-0.115 0.547-0.396 0.546 0.396-0.037 0.116m-0.615 0.527h-0.232l-0.112-0.343 0.053 0.052a0.43 0.43 0 0 0 0.09 0.133h1e-3a0.44 0.44 0 0 0 0.132 0.09l0.068 0.068m0.445 0h-0.233l0.067-0.067a0.442 0.442 0 0 0 0.225-0.224l0.051-0.052-0.11 0.343" fill="#7c7c7c"/>
 <path d="m56.5 96.69a0.447 0.447 0 0 1 0.091-0.133l1e-3 -1e-3a0.435 0.435 0 0 1 0.132-0.09l-0.224 0.224m0.796 0-0.225-0.224a0.43 0.43 0 0 1 0.225 0.224m-0.571 0.571a0.434 0.434 0 0 1-0.224-0.224l0.224 0.224m0.346 0 0.225-0.224a0.425 0.425 0 0 1-0.225 0.224" fill="#787878"/>
 <path d="m69.04 81.48h-0.17l-0.054-0.163 0.139-0.101 0.139 0.1z" fill="#929292"/>
 <path d="m68.95 81.22-0.14 0.101 0.054 0.163h0.171l0.054-0.163-0.139-0.101m0.337 0.611h-0.675l-0.21-0.643 0.548-0.397 0.102 0.073 0.445 0.325z" fill="#929292"/>
 <g transform="translate(4.592 -105.1)" fill="#f00" stroke="#f00">
  <path d="m13.74 190.6a1.213 1.213 0 0 0 0.859-2.074 1.212 1.212 0 0 0-1.72 0 1.216 1.216 0 0 0 0 1.72c0.23 0.227 0.538 0.354 0.861 0.354" stroke-width=".353"/>
  <path d="m13.74 190.6a1.213 1.213 0 0 0 0.859-2.074 1.212 1.212 0 0 0-1.72 0 1.216 1.216 0 0 0 0 1.72c0.23 0.227 0.538 0.354 0.861 0.354z" stroke-linejoin="round" stroke-width=".347"/>
  <path d="m25.79 178.6a1.215 1.215 0 1 0 0-2.43 1.215 1.215 0 0 0 0 2.43" stroke-width=".353"/>
  <path d="m25.79 178.6a1.215 1.215 0 1 0 0-2.43 1.215 1.215 0 0 0 0 2.43z" stroke-linejoin="round" stroke-width=".347"/>
  <path d="m37.85 197.3a1.215 1.215 0 1 0 0-2.43 1.215 1.215 0 0 0 0 2.43" stroke-width=".353"/>
  <path d="m37.85 197.3a1.215 1.215 0 1 0 0-2.43 1.215 1.215 0 0 0 0 2.43z" stroke-linejoin="round" stroke-width=".347"/>
  <path d="m49.9 194.9a1.218 1.218 0 0 0 1.215-1.215 1.216 1.216 0 0 0-1.215-1.215 1.215 1.215 0 1 0 0 2.43" stroke-width=".353"/>
  <path d="m49.9 194.9a1.218 1.218 0 0 0 1.215-1.215 1.216 1.216 0 0 0-1.215-1.215 1.215 1.215 0 1 0 0 2.43z" stroke-linejoin="round" stroke-width=".347"/>
  <path d="m61.95 193.4a1.215 1.215 0 1 0 0-2.43 1.215 1.215 0 0 0 0 2.43" stroke-width=".353"/>
  <path d="m61.95 193.4a1.215 1.215 0 1 0 0-2.43 1.215 1.215 0 0 0 0 2.43z" stroke-linejoin="round" stroke-width=".347"/>
 </g>
 <path d="m15.81 64.57h55.68m-55.68 33.59h55.68m0 0v-33.59m-55.68 33.59v-33.59" fill="none" stroke="#000" stroke-linecap="square" stroke-width=".176"/>
 <g font-family="sans-serif">
  <text x="-51.462215" y="5.9166446" font-size="2.293px" stroke-width=".353"><tspan x="18.712217 30.826422 42.750309 54.928722 66.916817" y="102.37164">NEOAC</tspan></text>
  <text x="234.42993" y="67.995117" fill="#000000" font-size="2.293px" style="line-height:1.25" xml:space="preserve"><tspan x="234.42993" y="67.995117" font-size="2.293px">Reserved</tspan></text>
  <text x="137.34575" y="5.6956482" font-size="2.293px" stroke-width=".353"><tspan x="147.32466 159.43889 171.36278 183.54118 195.5293" y="102.15065">NEOAC</tspan></text>
  <text x="105.62186" y="67.995117" fill="#000000" font-size="2.293px" style="line-height:1.25" xml:space="preserve"><tspan x="105.62186" y="67.995117" font-size="2.293px">Average</tspan></text>
  <text x="37.224907" y="67.995117" fill="#000000" font-size="2.293px" style="line-height:1.25" xml:space="preserve"><tspan x="37.224907" y="67.995117" font-size="2.293px">Self-centred</tspan></text>
 </g>
 <g transform="translate(3.908)" fill="#000000" font-family="sans-serif" font-size="2.293px">
  <text x="6.7387962" y="69.148773" style="line-height:1.25" xml:space="preserve"><tspan x="6.7387962" y="69.148773" font-size="2.293px">10</tspan></text>
  <text x="8.0689297" y="75.61396" style="line-height:1.25" xml:space="preserve"><tspan x="8.0689297" y="75.61396" font-size="2.293px">5</tspan></text>
  <text x="7.3304777" y="88.533287" style="line-height:1.25" xml:space="preserve"><tspan x="7.3304777" y="88.533287" font-size="2.293px">-5</tspan></text>
  <text x="6.0003438" y="94.998238" style="line-height:1.25" xml:space="preserve"><tspan x="6.0003438" y="94.998238" font-size="2.293px">-10</tspan></text>
 </g>
 <g transform="translate(-2.909)" fill="#000000" font-family="sans-serif" font-size="6.667px" stroke-width="4.096">
  <text x="153.45245" y="142.411" style="line-height:1.25" xml:space="preserve"><tspan x="153.45245" y="142.411" font-size="6.667px" stroke-width="4.096">10</tspan></text>
  <text x="153.62578" y="167.11948" style="line-height:1.25" xml:space="preserve"><tspan x="153.62578" y="167.11948" font-size="6.667px" stroke-width="4.096">5</tspan></text>
  <text x="153.77911" y="231.05051" style="line-height:1.25" xml:space="preserve"><tspan x="153.77911" y="231.05051" font-size="6.667px" stroke-width="4.096">-5</tspan></text>
  <text x="153.77911" y="256.17099" style="line-height:1.25" xml:space="preserve"><tspan x="153.77911" y="256.17099" font-size="6.667px" stroke-width="4.096">-10</tspan></text>
 </g>
 <path d="m159.4 204a3.07 3.07 0 0 0-1.535-2.66 3.07 3.07 0 0 0-3.071 0 3.07 3.07 0 0 0-1.536 2.66" fill="#00b400"/>
 <path d="m143.8 164.7h5.148" fill="none" stroke="#000" stroke-width=".5"/>
 <circle cx="143.8" cy="161.9" r="3.071" fill="#00b200"/>
 <path d="m143.8 228.7h5.148" fill="none" stroke="#000" stroke-width=".5"/>
 <circle cx="143.8" cy="231.2" r="3.071" fill="#00f"/>
 <path d="m111.8 204v4.942" fill="none" stroke="#000" stroke-width=".5"/>
 <circle cx="114.3" cy="204" r="3.071" fill="#f00"/>
 <path d="m168.5 204v4.942" fill="none" stroke="#000" stroke-width=".5"/>
 <g transform="translate(3.908 2.432)" fill="#000000" font-family="sans-serif" font-size="6.667px" stroke-width="4.096">
  <text x="185.81033" y="213.12857" style="line-height:1.25" xml:space="preserve"><tspan x="185.81033" y="213.12857" font-size="6.667px" stroke-width="4.096">10</tspan></text>
  <text x="162.66583" y="213.12857" style="line-height:1.25" xml:space="preserve"><tspan x="162.66583" y="213.12857" font-size="6.667px" stroke-width="4.096">5</tspan></text>
  <text x="104.99517" y="213.12857" style="line-height:1.25" xml:space="preserve"><tspan x="104.99517" y="213.12857" font-size="6.667px" stroke-width="4.096">-5</tspan></text>
  <text x="78.10334" y="213.12857" style="line-height:1.25" xml:space="preserve"><tspan x="78.10334" y="213.12857" font-size="6.667px" stroke-width="4.096">-10</tspan></text>
 </g>
 <circle cx="143.8" cy="238.6" r="3.071" fill="#feb300"/>
 <circle cx="143.8" cy="214.9" r="3.071" fill="#f00"/>
 <g transform="translate(3.908)" fill="#000000" font-family="sans-serif" font-size="2.293px">
  <text x="265.1709" y="69.148773" style="line-height:1.25" xml:space="preserve"><tspan x="265.1709" y="69.148773" font-size="2.293px">10</tspan></text>
  <text x="265.23053" y="75.61396" style="line-height:1.25" xml:space="preserve"><tspan x="265.23053" y="75.61396" font-size="2.293px">5</tspan></text>
  <text x="265.28326" y="88.533287" style="line-height:1.25" xml:space="preserve"><tspan x="265.28326" y="88.533287" font-size="2.293px">-5</tspan></text>
  <text x="265.28326" y="94.998238" style="line-height:1.25" xml:space="preserve"><tspan x="265.28326" y="94.998238" font-size="2.293px">-10</tspan></text>
 </g>
</svg>
