<svg xmlns="http://www.w3.org/2000/svg" viewBox="0 0 273.173 308.101">
<!--
   A robust data-driven approach identifies four personality types across four large data sets
   https://www.nature.com/articles/s41562-018-0419-z
   https://doi.org/10.1038/s41562-018-0419-z
   https://sci-hub.st/https://doi.org/10.1038/s41562-018-0419-z
-->
  <defs>
    <clipPath id="f">
      <path d="M323.79 532.99h1.968v61.016h-1.968z"/>
    </clipPath>
    <clipPath id="g">
      <path d="M392.68 523.94h1.966v51.371h-1.966z"/>
    </clipPath>
    <clipPath id="h">
      <path d="M426.14 523.94h1.967v57.276h-1.967z"/>
    </clipPath>
    <clipPath id="i">
      <path d="M460.59 524.14h1.966v62.985h-1.966z"/>
    </clipPath>
    <clipPath id="j">
      <path d="M153.54 422.77h1.968v48.222h-1.968z"/>
    </clipPath>
    <clipPath id="k">
      <path d="M187.98 438.52h1.968v51.173h-1.968z"/>
    </clipPath>
    <clipPath id="l">
      <path d="M221.44 419.2h1.968v44.908h-1.968z"/>
    </clipPath>
    <clipPath id="m">
      <path d="M255.89 444.42h1.968v53.142h-1.968z"/>
    </clipPath>
    <clipPath id="n">
      <path d="M290.33 447.38h1.968v53.144h-1.968z"/>
    </clipPath>
    <clipPath id="a">
      <path d="M323.79 419.2h1.968v46.877h-1.968z"/>
    </clipPath>
    <clipPath id="b">
      <path d="M358.24 463.12h1.967v45.27h-1.967z"/>
    </clipPath>
    <clipPath id="c">
      <path d="M392.68 449.34h1.966v51.175h-1.966z"/>
    </clipPath>
    <clipPath id="d">
      <path d="M426.14 467.06h1.967v44.284h-1.967z"/>
    </clipPath>
    <clipPath id="e">
      <path d="M460.59 470.99h1.966v43.424h-1.966z"/>
    </clipPath>
  </defs>
  <text x="217.7" y="165.529" fill="#feb300" font-size="8.467" font-family="sans-serif">
    Air Model
  </text>
  <text x="105.348" y="298.017" fill="#00f" font-size="8.467" font-family="sans-serif">
    Water Reserved
  </text>
  <text x="17.204" y="165.204" fill="red" font-size="8.467" font-family="sans-serif">
    Fire Selfish
  </text>
  <text x="108.498" y="71.238" fill="#00b300" font-size="8.467" font-family="sans-serif">
    Earth Average
  </text>
  <path d="M75.747 186.49h113.76m-56.88-56.877v113.76m7.257-113.76v113.76M75.747 179.03h113.76m-113.76 15.23h113.76" stroke-width=".5" stroke="#000" fill="none"/>
  <circle fill="#00f" r="3.071" cy="204.917" cx="132.627"/>
  <path fill="#feb300" d="M139.884 230.53a3.071 3.071 0 110 6.142"/>
  <g stroke-width=".265" font-size="8.467" font-family="sans-serif" fill="#feb300">
    <text y="110.692" x="149.521" transform="translate(44.475 70.5)">
      O
    </text>
    <text y="119.557" x="150.229" transform="translate(44.475 70.5)">
      A
    </text>
    <text y="128.72" x="149.831" transform="translate(44.475 70.5)">
      C
    </text>
  </g>
  <circle fill="#00b200" r="3.071" cy="145.832" cx="139.884"/>
  <circle cx="132.627" cy="136.323" r="3.071" fill="red"/>
  <circle cx="91.331" cy="186.49" r="3.071" fill="red"/>
  <circle cx="94.684" cy="194.26" r="3.071" fill="red"/>
  <g transform="translate(44.475 70.5)" fill="#feb300">
    <circle r="3.071" cy="108.53" cx="118.89"/>
    <circle r="3.071" cy="115.99" cx="129.74"/>
    <circle r="3.071" cy="123.76" cx="134.23"/>
  </g>
  <circle fill="red" r="3.071" cy="208.89" cx="139.884"/>
  <circle fill="#00b400" r="3.071" cy="179.03" cx="109.052"/>
  <path fill="#00f" d="M91.644 179.028a3.07 3.07 0 01-1.535 2.66 3.07 3.07 0 01-3.071 0 3.07 3.07 0 01-1.536-2.66"/>
  <path fill="red" d="M91.644 179.028a3.07 3.07 0 00-1.535-2.66 3.07 3.07 0 00-3.071 0 3.07 3.07 0 00-1.536 2.66"/>
  <circle fill="#00f" r="3.071" cy="186.49" cx="142.955"/>
  <circle fill="#00b400" r="3.071" cy="186.49" cx="149.095"/>
  <path fill="#00f" d="M148.895 194.26a3.07 3.07 0 01-1.535 2.66 3.07 3.07 0 01-3.071 0 3.07 3.07 0 01-1.536-2.66"/>
  <path fill="#00b400" d="M148.895 194.26a3.07 3.07 0 00-1.535-2.66 3.07 3.07 0 00-3.071 0 3.07 3.07 0 00-1.536 2.66"/>
  <text x="27.274" y="18.096" font-size="10.583" font-family="sans-serif" stroke-width=".265">
    <tspan x="27.274" y="18.096">A robust data-driven approach identifies four</tspan>
    <tspan x="27.274" y="31.325">personality types across four large data sets</tspan>
  </text>
  <text x="17.103" y="49.712" font-size="7.761" font-family="sans-serif" stroke-width=".265">
    Martin Gerlach, Beatrice Farb, William Revelle, Luis A. Nunes Amaral
  </text>
  <text x="136.141" y="125.017" font-size="8.467" fill="#00b300" font-family="sans-serif" stroke-width=".265">
    N
  </text>
  <text x="129.502" y="124.823" font-size="8.467" fill="#00b300" font-family="sans-serif" stroke-width=".265">
    E
  </text>
  <path d="M210.987 203.43v1.215m12.053-1.215v1.215m12.05-1.215v1.215m12.053-1.215v1.215m12.05-1.215v1.215m-51.938-30.935h-1.215m1.215 6.46h-1.215m1.215 6.46h-1.215m1.215 6.46h-1.215m1.215 6.46h-1.215" stroke-width=".176" stroke-linejoin="round" stroke="#000" fill="none"/>
  <path stroke="#feb300" stroke-width=".347" stroke-linejoin="round" fill="none" d="M258.684 185.12h-1.389m-10.664 1.25h-1.389m-10.661 6.235h-1.39m-10.662-4.868h-1.39m25.492-16.807h-1.39m-10.66 3.874h-1.39m-10.663-2.609h-1.389m-10.662 14.757h-1.388"/>
  <path d="M256.704 186.37h.521v.52h-.521zm-1.38 0h.521v.52h-.52zm-1.38 0h.52v.52h-.52zm-1.38 0h.52v.52h-.52zm-1.38 0h.52v.52h-.52zm-1.38 0h.52v.52h-.52zm-1.38 0h.52v.52h-.52zm-1.38 0h.52v.52h-.52zm-1.38 0h.52v.52h-.52zm-1.38 0h.52v.52h-.52zm-1.38 0h.52v.52h-.52zm-1.38 0h.52v.52h-.52zm-1.38 0h.52v.52h-.52zm-1.38 0h.52v.52h-.52zm-1.38 0h.52v.52h-.52zm-1.38 0h.52v.52h-.52zm-1.38 0h.52v.52h-.52zm-1.38 0h.52v.52h-.52zm-1.38 0h.52v.52h-.52zm-1.38 0h.52v.52h-.52zm-1.381 0h.521v.52h-.521zm-1.38 0h.52v.52h-.52zm-1.38 0h.521v.52h-.52zm-1.38 0h.521v.52h-.52zm-1.38 0h.521v.52h-.52zm-1.38 0h.52v.52h-.52zm-1.38 0h.521v.52h-.52zm-1.38 0h.52v.52h-.52zm-1.38 0h.521v.52h-.521zm-1.38 0h.52v.52h-.52zm-1.38 0h.521v.52h-.521zm-1.38 0h.52v.52h-.52zm-1.38 0h.521v.52h-.521zm-1.38 0h.52v.52h-.52zm-1.38 0h.52v.52h-.52z"/>
  <path fill="#929292" d="M212.131 191.74l-.025.061.025.061h.001l.061.025.06-.024h.002l.025-.062-.025-.06-.062-.027z"/>
  <path fill="#929292" d="M212.193 191.716l-.062.026-.025.061.025.061.001.001.061.025.06-.025h.002l.025-.062-.025-.06-.062-.027m0 .521a.433.433 0 11.307-.74.435.435 0 010 .613.433.433 0 01-.307.127m11.777-9.107h-.062a.426.426 0 01.062-.062v.062m.61 0h-.06v-.062l.031.03c.011.01.02.02.03.032m-.03.582v-.001m-.032.03v-.063h.061a.187.187 0 01-.03.033l-.03.03m-.55 0a.43.43 0 01-.032-.03h.001a.388.388 0 01-.03-.033h.061v.029h.173-.173v.033m12.326-.25l-.061-.024-.001-.002-.024-.06.025-.063.061-.024.061.024.026.062-.025.061-.001.002z"/>
  <path fill="#929292" d="M236.296 183.32l-.06.024-.026.063.024.06.001.002.061.024.061-.024.002-.001.024-.061-.025-.063-.062-.024m.368.317l-.188-.189-.124.123-.056.057-.178-.18-.19.19a.432.432 0 01.061-.538.423.423 0 01.172-.106h.27a.432.432 0 01.233.643m11.683.203a.435.435 0 01-.365-.199h.73a.432.432 0 01-.365.199m12.053-2.29l-.062-.025-.025-.062.025-.062.062-.025.061.025.025.062-.024.06-.001.002z"/>
  <path fill="#929292" d="M260.338 181.4l-.025.062.025.061.062.026.061-.026h.001l.025-.061-.026-.062-.06-.025-.063.025m.062.495a.435.435 0 01-.435-.433c0-.115.046-.225.127-.307a.425.425 0 01.172-.106h.271a.427.427 0 01.298.413.434.434 0 01-.433.434m-48.509 12.724l.123.123-.123-.123m.481.368l-.179-.179-.056.057-.123.122-.122-.122-.18-.179-.123-.123.18-.179-.18-.18.425-.423.179.179.056-.057.123-.122.424.424-.179.179.057.057.122.122zm23.622-10.708l.123.123-.123-.123m.481.368l-.18-.179-.056.057-.122.122-.123-.123-.179-.179-.122-.122.178-.18-.056-.056-.122-.123.235-.235a.432.432 0 00.676.075l-.002.002a.43.43 0 00.062-.077l.235.235-.178.18.055.055.123.124-.424.424"/>
  <path fill="#7c7c7c" d="M235.99 183.71l-.001-.001.001.001m.306.126a.43.43 0 01-.368-.203l.19-.189.178.18.056-.057.124-.123.188.19a.434.434 0 01-.062.076l.002-.001a.433.433 0 01-.308.127"/>
  <path fill="#929292" d="M212.467 193.57h-.548v-.174h.174-.174v-.028h-.201v-.548h.201v-.202h.548v.202h.202v.548h-.202v.028zm12.052-10.5a.434.434 0 00-.275-.098h-.001c-.1 0-.197.035-.273.098v-.14h.549v.14m-.61.61h-.141v-.548h.14a.432.432 0 000 .548m.811 0h-.139a.432.432 0 000-.548h.14v.548m-.201.202h-.55v-.14a.438.438 0 00.55 0v.14"/>
  <path fill="#7c7c7c" d="M224.244 183.49l-.06-.024-.001-.002-.026-.06.027-.063.06-.024.061.024.025.062-.024.061-.001.002z"/>
  <path fill="#7c7c7c" d="M224.244 183.32l-.06.024-.027.063.026.06.001.002.06.024.061-.024v-.002l.025-.06-.025-.063-.061-.024m-.001.52a.43.43 0 01-.273-.097v-.034h.173-.173v-.028h-.061a.429.429 0 010-.549h.061v-.061a.43.43 0 01.273-.098h.001c.1 0 .198.034.275.098v.061h.062a.434.434 0 010 .549h-.062v.062a.437.437 0 01-.275.097h-.001"/>
  <path fill="#929292" d="M236.022 178.51v-.1h.137l-.137.1m.548 0l-.138-.1h.138v.1m-.75.147v-.046h.063l-.063.046m.952 0l-.065-.046h.065v.047m-.876.502h-.076v-.233l.076.233m.876 0h-.077l.077-.236v.236m-.202.202h-.548v-.012h.548zm12.052-.002h-.55v-.173h.174-.174v-.03h-.202v-.548h.202v-.2h.55v.2h.2v.549h-.2v.029zm12.051-.07h-.548v-.108h.174-.174v-.03h-.202v-.549h.202v-.2h.029l.122.123.124.123.245-.246h.028v.2h.202v.55h-.202v.029zm-47.947 9.17h-1.066v-1.067h1.066z"/>
  <path fill="#929292" d="M211.486 187.22h.174-.174m.174 1.24h1.066v-1.066h-1.066zm1.413.348h-1.76v-1.762h1.76zM224.778 182h-1.067v-.93l.052.053.179.18.122.122.18-.18.178.18.356-.354z"/>
  <path fill="#7c7c7c" d="M223.942 181.06l.122.123-.122-.123m.122.368l-.122-.122-.179-.18-.052-.052v-.136h.23l.18.18.123.122.303-.302h.231v.136l-.356.354-.178-.179-.057.057z"/>
  <path fill="#929292" d="M223.537 180.76h.174-.174m1.588 1.587h-1.762v-1.76h.23l.05.05-.002.003.121.123.058.057-.18.18.07.07v.93h1.068v-.93l.072-.07-.125-.123-.056-.057.18-.18-.005-.004.05-.05h.23z"/>
  <path fill="#7c7c7c" d="M223.711 181.07l-.07-.07.179-.18-.057-.058-.122-.122.003-.004.297.297h-.23v.137m1.067 0v-.137h-.231l.298-.297.004.004-.18.18.056.056.125.124z"/>
  <path fill="#929292" d="M236.829 182.64h-1.066v-1.066h1.066z"/>
  <path fill="#929292" d="M235.59 181.41h.173-.173m.173 1.239h1.066v-1.066h-1.066zm1.413.347h-.744a.448.448 0 00-.27 0h-.746v-1.76h1.76v1.76"/>
  <path fill="#7c7c7c" d="M236.431 182.99h-.27a.437.437 0 01.27 0"/>
  <path fill="#929292" d="M248.881 183.29h-.115a.424.424 0 00-.051-.117l.166-.167v.284"/>
  <path fill="#7c7c7c" d="M248.457 183.29h-.219l.052-.053.057-.056.11.109m.309 0h-.169l.118-.117c.023.036.04.075.051.117"/>
  <path fill="#929292" d="M247.928 183.29h-.114v-.284l.052.052.114.115a.418.418 0 00-.052.117"/>
  <path fill="#7c7c7c" d="M248.097 183.29h-.17a.418.418 0 01.052-.117l.066.064.052.053"/>
  <path fill="#929292" d="M248.347 182.33l-.109-.11h.219l-.053.053-.057.057m.534.176l-.283-.286h.283v.286m-1.067 0v-.286h.283l-.283.286m1.067.357l-.052-.052-.057-.056.11-.109v.217m-1.068 0v-.217l.052.052.056.057z"/>
  <path fill="#7c7c7c" d="M248.715 183.17a.434.434 0 00-.616-.126l-.054-.055.054.055a.428.428 0 00-.12.126l-.113-.114-.052-.053v-.14l.108-.109-.056-.056-.052-.052v-.141l.283-.285h.141l.11.11.056-.058.053-.052h.14l.284.285v.14l-.108.11.056.055.052.053v.14l-.166.167"/>
  <path fill="#787878" d="M248.598 183.29h-.14l-.11-.11-.057.057-.052.053h-.141l-.052-.053-.066-.064a.43.43 0 01.12-.126l.068.068-.068-.069a.433.433 0 01.615.127l-.117.117"/>
  <path fill="#929292" d="M247.64 182.05h.174-.174m1.588 1.588h-.516a.433.433 0 00.054-.347h.115v-.284l.07-.07-.07-.07v-.218l.07-.07-.07-.07v-.286h-.283l-.07-.07-.072.07h-.218l-.07-.07-.071.07h-.283v.286l-.07.07.07.07v.217l-.071.07.07.071v.284h.115a.433.433 0 00.055.347h-.516v-1.762h1.761v1.762"/>
  <path fill="#7c7c7c" d="M248.347 183.49l-.06-.025-.027-.062.027-.062.06-.024.061.024.026.062-.025.061z"/>
  <path fill="#7c7c7c" d="M248.287 183.34l-.026.062.026.061.06.026.062-.026.025-.06-.025-.063-.062-.024-.06.024m.426.297h-.73a.434.434 0 01-.055-.347h.17l.07.07.07-.07h.22l.07.07.07-.07h.168a.433.433 0 01-.054.347"/>
  <path fill="#787878" d="M248.528 183.36l-.07-.07h.14l-.07.07m-.36 0l-.07-.07h.14z"/>
  <path fill="#7c7c7c" d="M248.239 182.22h-.141l.07-.07.071.07m.36 0h-.142l.07-.07.071.07m-.783.426l-.07-.07.07-.07v.14m1.066 0v-.14l.071.07-.07.07m-1.067.358l-.071-.07.07-.07v.14m1.067 0v-.14l.071.07z"/>
  <path fill="#929292" d="M260.4 179.75l-.109-.109h.217l-.052.052-.056.057m-.533.174v-.283h.283l-.283.283m1.066 0l-.284-.283h.284v.284m-1.066.358v-.217l.051.052.058.056-.11.109m1.067 0l-.053-.053-.056-.056.11-.108v.217m-.784.424h-.283v-.283l.051.052.18.18.052.051m.358 0h-.217l.052-.051.057-.057.108.108m.425 0h-.284l.284-.284z"/>
  <path fill="#7c7c7c" d="M260.097 180.41l.123.123-.123-.123m.551.298h-.14l-.109-.109-.108.109h-.142l-.052-.052-.18-.18-.05-.051v-.142l.108-.108-.057-.056-.052-.052v-.142l.284-.283h.14l.11.109.055-.057.053-.052h.14l.284.283v.141l-.108.109.108.108v.141z"/>
  <path fill="#929292" d="M259.693 179.47h.174-.174m.814 1.24l.072.07.07-.07h.284v-.284l.07-.07-.07-.07v-.218l.07-.07-.07-.071v-.283h-.284l-.07-.071-.07.07h-.218l-.07-.07-.07.07h-.284v.283l-.071.072.07.07v.217l-.07.07.07.071v.283h.284l.07.071.071-.07h.217m.772.347h-.745a.431.431 0 00-.271 0h-.745v-1.76h.607v.064h.547v-.065h.607v1.76"/>
  <path fill="#7c7c7c" d="M260.535 181.05h-.271a.429.429 0 01.271 0m-.244-1.41h-.14l.07-.07.07.07m.358 0h-.141l.07-.07.071.07m.284.425v-.142l.07.071-.07.07m-1.066.001l-.071-.07.07-.072v.142m1.067.357v-.14l.07.07-.07.07m-1.066 0l-.071-.07.07-.07v.14m.355.355l-.071-.071h.141l-.07.07m.358 0l-.071-.07h.141zm.094-1.416h-.548v-.065h.548z"/>
  <path fill="#929292" d="M212.482 197.9l-.187-.137-.102-.075-.29.212-.281-.283.571-.57.57.57z"/>
  <path fill="#929292" d="M212.716 198.15l.022-.069-.256-.187.282-.283-.57-.57-.572.57.282.282-.258.188.021.067-.535-.537 1.061-1.062 1.062 1.062zm11.528-17.76l-.18-.179-.175.175-.217-.217.572-.571.572.57-.218.218-.175-.174-.123.122z"/>
  <path fill="#7c7c7c" d="M224.403 180.59h-.318l-.196-.195.175-.175.18.179.056-.057.122-.121.176.174z"/>
  <path fill="#787878" d="M224.244 180.74l-.159-.158h.318z"/>
  <path fill="#929292" d="M224.894 180.59h-.1l-.196-.195.217-.217-.572-.571-.571.57.217.218-.194.195h-.102l-.412-.412 1.062-1.062 1.064 1.062z"/>
  <path fill="#7c7c7c" d="M224.085 180.59h-.39l.194-.195.196.195m.71 0h-.392l.195-.195z"/>
  <path fill="#787878" d="M224.244 181.24l-.123-.122-.18-.18h.246l.057.056-.057-.056h.36z"/>
  <path fill="#7c7c7c" d="M224.845 180.64l-.05-.05h.1l-.05.05m-1.2 0l-.051-.05h.1z"/>
  <path fill="#787878" d="M224.547 180.93h-.36l-.066-.066.066.066h-.245l-.298-.297.051-.05h.39l.16.158.158-.158h.392l.05.05z"/>
  <path fill="#929292" d="M236.004 186.89h.521v-.52h-.521zm.292.31l-.57-.57.57-.572.57.571z"/>
  <path fill="#5a5a5a" d="M236.525 186.89h-.521v-.52h.521z"/>
  <path fill="#929292" d="M236.296 186.06l-.57.572.57.57.57-.57-.57-.572m-.123 1.265l.123.124-.123-.124m.123.368l-.123-.122-.939-.94 1.062-1.062 1.062 1.063zm12.051-12.113l-.57-.571.57-.572.572.572z"/>
  <path fill="#929292" d="M248.347 174.43l-.57.572.57.57.572-.57-.572-.572m-.122 1.265l.122.123-.122-.123m.122.368l-1.062-1.061 1.062-1.064 1.064 1.064zm12.053 2.097l-.571-.571.571-.57.57.57z"/>
  <path fill="#929292" d="M260.4 177.02l-.571.57.571.572.57-.571-.57-.571m.245 1.387h-.245l-.123-.122.123.122h-.246l-.816-.816 1.062-1.062 1.062 1.062z"/>
  <path fill="#7c7c7c" d="M260.4 178.65l-.123-.123-.123-.122h.491zm-48.207 19.54l-.04-.041.04-.03.04.03z"/>
  <path fill="#7c7c7c" d="M212.14 198.38h-.032l-.016-.049.048.049m.138 0h-.138l-.048-.049-.038-.114.098-.07.04.04.042-.04.097.07z"/>
  <path fill="#929292" d="M212.531 198.73h-.675l-.188-.575.402.403.123.124.523-.525z"/>
  <path fill="#7c7c7c" d="M212.234 198.15l-.04-.03-.042.03-.249-.249.29-.211.102.075.187.137z"/>
  <path fill="#7c7c7c" d="M212.193 198.68l-.123-.124-.403-.402-.022-.068.259-.187.248.248-.098.071.038.115-.022-.022.022.022.016.048h.032l.053.053-.053-.053h.138l.053-.163-.097-.07.248-.25.256.188-.022.07z"/>
  <path fill="#929292" d="M224.329 176.42h-.17l-.053-.163.138-.1.139.1z"/>
  <path fill="#929292" d="M224.244 176.15l-.139.1.054.163h.17l.054-.163-.139-.1m.337.61h-.675l-.208-.643.545-.396.102.074.446.322z"/>
  <path fill="#7c7c7c" d="M236.381 179h-.171l-.053-.162.139-.1.137.1z"/>
  <path fill="#929292" d="M236.432 178.41h-.273l.138-.1.101.075.034.025m-.41.2h-.139l.14-.1v.1m.684 0h-.137v-.1l.137.1m.065.313v-.266l.07.051-.07.215m-.952.003l-.071-.218.071-.052v.27m.202.423h-.063l-.063-.19h.126v.03h.174-.174v.16m.611 0h-.063v-.19h.126z"/>
  <path fill="#7c7c7c" d="M236.296 178.74l-.139.1.053.163h.171l.053-.162-.138-.101m.274.61h-.547v-.161h.173-.173v-.03h-.127l-.076-.233v-.27l.063-.045h.14v-.101l.136-.1h.273l.138.1v.1h.137l.065.048v.265l-.076.237h-.126v.029z"/>
  <path fill="#929292" d="M248.433 177.71h-.172l-.052-.163.138-.1.139.1z"/>
  <path fill="#929292" d="M248.347 177.44l-.138.1.053.164h.171l.054-.163-.14-.101m.339.61h-.677l-.208-.641.546-.399.102.075.445.323zm11.799-4.22h-.17l-.054-.163.139-.102.139.102z"/>
  <path fill="#929292" d="M260.4 173.57l-.14.101.054.164h.171l.054-.164-.139-.101m.337.611h-.675l-.21-.641.548-.399.102.074.445.325z"/>
  <path fill="#d3291c" d="M209.785 196.86c.322 0 .63-.129.859-.357a1.213 1.213 0 00-.859-2.073 1.216 1.216 0 00-1.215 1.215 1.214 1.214 0 001.215 1.215"/>
  <g stroke="#feb300" fill="#feb300">
    <g transform="matrix(.35278 0 0 -.35278 95.115 351.31)" clip-path="url(#a)">
      <path stroke-width=".984" stroke-linejoin="round" d="M325.03 416.59v49.326"/>
    </g>
    <g transform="matrix(.35278 0 0 -.35278 95.115 351.31)" clip-path="url(#b)">
      <path stroke-width=".984" stroke-linejoin="round" d="M359.19 463.69v44.059"/>
    </g>
    <g transform="matrix(.35278 0 0 -.35278 95.115 351.31)" clip-path="url(#c)">
      <path stroke-width=".984" stroke-linejoin="round" d="M393.36 449.89v50.46"/>
    </g>
    <g transform="matrix(.35278 0 0 -.35278 95.115 351.31)" clip-path="url(#d)">
      <path stroke-width=".984" stroke-linejoin="round" d="M427.52 467.57v43.77"/>
    </g>
    <g transform="matrix(.35278 0 0 -.35278 95.115 351.31)" clip-path="url(#e)">
      <path stroke-width=".984" stroke-linejoin="round" d="M461.68 471.11v48.6"/>
    </g>
    <path stroke-width=".347" stroke-linejoin="round" d="M209.785 196.86c.322 0 .63-.129.859-.357a1.213 1.213 0 00-.859-2.073 1.216 1.216 0 00-1.215 1.215 1.214 1.214 0 001.215 1.215z"/>
    <path stroke-width=".353" d="M221.834 181.18a1.214 1.214 0 10-.858-2.074 1.213 1.213 0 00.858 2.074"/>
    <path stroke-width=".347" stroke-linejoin="round" d="M221.834 181.18a1.214 1.214 0 10-.858-2.074 1.213 1.213 0 00.858 2.074z"/>
    <path stroke-width=".353" d="M233.886 184.92a1.214 1.214 0 10.001-2.428 1.214 1.214 0 00-.001 2.428"/>
    <path stroke-width=".347" stroke-linejoin="round" d="M233.886 184.92a1.214 1.214 0 10.001-2.428 1.214 1.214 0 00-.001 2.428z"/>
    <path stroke-width=".353" d="M245.937 179.86c.323 0 .632-.128.86-.355a1.217 1.217 0 00-.86-2.076 1.219 1.219 0 00-1.216 1.216 1.219 1.219 0 001.216 1.215"/>
    <path stroke-width=".347" stroke-linejoin="round" d="M245.937 179.86c.323 0 .632-.128.86-.355a1.217 1.217 0 00-.86-2.076 1.219 1.219 0 00-1.216 1.216 1.219 1.219 0 001.216 1.215z"/>
    <g>
      <path stroke-width=".353" d="M257.989 177.76a1.215 1.215 0 100-2.43 1.215 1.215 0 000 2.43"/>
      <path stroke-width=".347" stroke-linejoin="round" d="M257.989 177.76a1.215 1.215 0 100-2.43 1.215 1.215 0 000 2.43z"/>
    </g>
  </g>
  <path stroke-width=".176" stroke-linecap="square" stroke="#000" fill="none" d="M207.255 169.84h55.68m-55.68 33.592h55.68m0 0V169.84m-55.68 33.592V169.84"/>
  <text stroke-width=".353" font-size="2.293" font-family="sans-serif" y="110.977" x="139.986">
    <tspan y="173.316" x="229.29597 230.95157 232.2265 232.73555 234.0105 234.64796 236.55809 237.83304 239.10796 240.3829">Role model</tspan><tspan y="207.432" x="210.16043 222.27464 234.19853 246.37694 258.36502">NEOAC</tspan>
  </text>
  <path fill="#fff" d="M11.215 169.646h55.679v33.593H11.215z"/>
  <path stroke-width=".176" stroke-linejoin="round" stroke="#000" fill="none" d="M14.947 203.239v1.215M27 203.239v1.215m12.05-1.215v1.215m12.053-1.215v1.215m12.05-1.215v1.215m-51.938-5.091H10m1.215-6.461H10m1.215-6.46H10m1.215-6.459H10m1.215-6.461H10"/>
  <g stroke="red" fill="red">
    <g clip-path="url(#f)" transform="matrix(.35278 0 0 -.35278 -100.925 388.072)">
      <path stroke-width=".984" stroke-linejoin="round" d="M325.03 533.15v59.932"/>
    </g>
    <path stroke-width=".347" stroke-linejoin="round" d="M25.803 186.709v-17.063"/>
    <g clip-path="url(#g)" transform="matrix(.35278 0 0 -.35278 -100.925 388.072)">
      <path stroke-width=".984" stroke-linejoin="round" d="M393.36 513.75v60.793"/>
    </g>
    <g clip-path="url(#h)" transform="matrix(.35278 0 0 -.35278 -100.925 388.072)">
      <path stroke-width=".984" stroke-linejoin="round" d="M427.52 520.82v60.366"/>
    </g>
    <g clip-path="url(#i)" transform="matrix(.35278 0 0 -.35278 -100.925 388.072)">
      <path stroke-width=".984" stroke-linejoin="round" d="M461.68 524.3v62"/>
    </g>
  </g>
  <path stroke-width=".347" stroke-linejoin="round" stroke="red" fill="none" d="M62.644 203.113h-1.389m-34.766-16.357H25.1m-10.662 13.233h-1.389m49.595-18.748h-1.389m-10.664 1.804h-1.39m-10.66 2.343h-1.39m-22.713-6.54h-1.39"/>
  <path d="M60.664 186.703h.52v-.52h-.52zm-1.38 0h.521v-.52h-.52zm-1.38 0h.52v-.52h-.52zm-1.38 0h.52v-.52h-.52zm-1.38 0h.52v-.52h-.52zm-1.38 0h.52v-.52h-.52zm-1.38 0h.52v-.52h-.52zm-1.38 0h.52v-.52h-.52zm-1.38 0h.52v-.52h-.52zm-1.38 0h.521v-.52h-.522zm-1.38 0h.52v-.52h-.52zm-1.38 0h.52v-.52h-.52zm-1.38 0h.52v-.52h-.52zm-1.38 0h.52v-.52h-.52zm-1.38 0h.52v-.52h-.52zm-1.38 0h.52v-.52h-.52zm-1.38 0h.52v-.52h-.52zm-1.38 0h.52v-.52h-.52zm-1.38 0h.52v-.52h-.52zm-1.38 0h.52v-.52h-.52zm-1.381 0h.521v-.52h-.521zm-1.38 0h.52v-.52h-.52zm-1.38 0h.521v-.52h-.52zm-1.38 0h.521v-.52h-.521zm-1.38 0h.52v-.52h-.52zm-1.38 0h.52v-.52h-.52zm-1.38 0h.522v-.52h-.522zm-1.38 0h.521v-.52h-.521zm-1.38 0h.521v-.52h-.521zm-1.38 0h.52v-.52h-.52zm-1.38 0h.52v-.52h-.52zm-1.38 0h.52v-.52h-.52zm-1.38 0h.521v-.52h-.521zm-1.38 0h.52v-.52h-.52zm-1.38 0h.52v-.52h-.52z"/>
  <path fill="#929292" d="M16.091 177.337l-.025.062.025.061.062.026.062-.026.025-.06-.025-.063-.062-.025z"/>
  <path fill="#929292" d="M16.153 177.311l-.062.025-.025.062.025.061.062.026.062-.026.024-.06-.024-.063-.062-.025m0 .52a.435.435 0 110-.87.435.435 0 010 .87m12.051 8.698l-.06-.025-.027-.062.027-.062.06-.025.061.024v.001l.025.062-.025.062z"/>
  <path fill="#929292" d="M28.204 186.356l-.06.024v.001l-.027.062.027.062.06.025.061-.025.025-.062-.025-.062v-.001l-.061-.024m-.001.521a.43.43 0 01-.345-.174h.206v-.52h-.206a.432.432 0 01.345-.173l.001-.001a.434.434 0 110 .868h-.001"/>
  <path fill="#5a5a5a" d="M28.064 186.703h-.207a.432.432 0 010-.52h.207v.52"/>
  <path fill="#929292" d="M28.511 186.135zm11.745 6.853l-.061-.024v-.001l-.025-.061.025-.06.061-.028.061.027.026.06-.026.062v.001z"/>
  <path fill="#929292" d="M40.256 192.815l-.06.026-.026.06.025.062v.002l.061.024.061-.024v-.002l.026-.061-.025-.06-.062-.027m0 .52a.43.43 0 01-.307-.127v.001a.433.433 0 11.307.127m-24.405-10.534l.123.122-.123-.122m.481.368l-.179-.179-.179.179-.123-.123-.179-.179-.122-.123.179-.179-.057-.056-.123-.123.425-.424.179.179.18-.18.423.425-.178.18.056.056.122.122zm11.57 2.215l.122.123-.122-.123m.122.368l-.122-.123-.179-.179-.123-.122.179-.18-.056-.056-.122-.123.423-.424.18.179.056-.056.122-.123.427.424-.18.18.056.055.125.124-.428.424-.178-.179-.057.056zm11.93 2.217l.123.123-.123-.123m.673.176h-.742l-.11-.11-.122-.122.179-.18-.179-.178.326-.328.154.154.123.122.277-.276.326.328-.179.179.056.056.123.123zm11.378 4.346l.123.122-.123-.122m.123.368l-.123-.123-.179-.179-.122-.123.178-.179-.179-.179.425-.424.179.179.058-.057.123-.122.424.424-.18.18.057.055.123.123-.424.425-.181-.18-.056.057zm11.929 5.446l.123.123-.123-.123m.026.272l-.026-.026-.18-.18-.122-.122.18-.18-.056-.055-.124-.124.425-.424.18.18.055-.057.123-.123.425.424-.18.18.057.056.123.123-.327.327-.277-.276zM16.628 184.27h-.951v-.04h.202v-.2h.547v.2h.202zm11.851.065h-.55v-.174h.174-.173v-.028h-.202v-.55h.202v-.2h.549v.2h.2v.55h-.2v.028zm12.051.646h-.548v-.174h.173-.173v-.028h-.202v-.548h.202v-.202h.548v.202h.202v.548h-.202v.028zm12.052 5.168h-.55v-.174h.174-.174v-.028h-.202v-.55h.202v-.2h.55v.2h.2v.55h-.2v.028zm12.051 6.459h-.548v-.174h.174-.174v-.028h-.202v-.548h.202v-.202h.548v.202h.202v.548h-.202v.028zm-47.947-10.926H15.62v-1.066h.057v.162h.202v.029h.174-.174v.173h.548v-.202h.201v-.162h.058z"/>
  <path fill="#7c7c7c" d="M16.427 184.981h-.548v-.174h.174-.174v-.028h-.201v-.162h.95v.162h-.201v.028z"/>
  <path fill="#929292" d="M15.446 184.443h.174-.174m1.587 1.587h-1.76v-1.76h.404v.346h-.057v1.066h1.066v-1.066h-.057v-.347h.404z"/>
  <path fill="#7c7c7c" d="M16.628 184.616h-.951v-.347h.951v.335z"/>
  <path fill="#929292" d="M28.738 189.559h-1.067v-1.066h1.067z"/>
  <path fill="#929292" d="M27.497 188.319h.174-.174m.174 1.24h1.067v-1.066h-1.067zm1.414.347h-1.762v-1.76h1.762zm11.704-.347h-1.066v-1.066h1.066z"/>
  <path fill="#929292" d="M39.55 188.319h.173-.173m.173 1.24h1.066v-1.066h-1.066zm1.413.347h-1.76v-1.76h.509l.07.07.122.122.123-.123.056-.057.18.18.192-.193h.508z"/>
  <path fill="#7c7c7c" d="M40.435 188.338l-.18-.18-.056.057-.122.123-.193-.193h.743z"/>
  <path fill="#929292" d="M52.841 196.019h-1.067v-1.066h1.067z"/>
  <path fill="#929292" d="M51.6 194.78h.174-.174m.174 1.24h1.067v-1.066h-1.067zm1.414.347h-1.761v-1.76h1.761zm11.172 6.013a.433.433 0 00.307-.742.435.435 0 00-.613 0l-.002.002a.433.433 0 000 .613l.001.001c.08.08.191.126.307.126m.533.098h-1.066v-1.065h1.066z"/>
  <path fill="#7c7c7c" d="M64.36 202.033l-.062-.025-.025-.061.025-.062.062-.025.061.025.025.062-.025.061z"/>
  <path fill="#7c7c7c" d="M64.298 202.008l.062.025.061-.025.026-.062-.026-.062-.06-.025-.063.025-.025.062.025.062m.062.372a.435.435 0 01-.308-.74l.001-.002a.434.434 0 01.613 0 .433.433 0 010 .616.436.436 0 01-.306.126"/>
  <path fill="#929292" d="M63.653 201.24h.174-.174m.174 1.239h1.066v-1.066h-1.066zm1.413.347h-1.76v-1.76h1.76zM16.153 171.51l-.57-.571.57-.571.57.57z"/>
  <path fill="#929292" d="M16.153 170.368l-.57.571.57.571.57-.57-.57-.572m-.123 1.265l.123.123-.123-.123m.123.368l-.123-.123-.939-.939 1.062-1.062 1.062 1.062zm12.051 24.702l-.572-.57.572-.572.572.571z"/>
  <path fill="#929292" d="M28.204 195.561l-.572.572.572.57.572-.57-.572-.572m-.123 1.264l.123.123-.123-.123m.123.369l-.123-.123-.94-.938 1.063-1.063 1.064 1.063zm11.76-10.491h.521v-.52h-.521zm.292.31l-.57-.57.57-.571.57.57z"/>
  <path fill="#5a5a5a" d="M40.485 186.703h-.521v-.52h.521z"/>
  <path fill="#929292" d="M40.256 185.871l-.57.571.57.57.57-.57-.57-.571m-.123 1.265l.123.122-.123-.122m.123.173l-.179-.18-.097.098-.786-.785 1.062-1.062 1.062 1.062-.785.785-.097-.099-.124.124z"/>
  <path fill="#7c7c7c" d="M40.256 187.504l-.123-.122-.153-.155.097-.098.179.18.056-.056.124-.124.097.098z"/>
  <path fill="#929292" d="M52.757 202.068l.06-.184.062.063-.122.121m-.899 0l-.122-.121.062-.063.06.184m.45.45l-.106-.106h.211z"/>
  <path fill="#929292" d="M52.201 202.411l.105.105.107-.105h.233l.11-.344.122-.121-.062-.062.037-.116-.445-.323-.102-.073-.546.396.038.115-.062.063.121.122.112.343h.232m-.017.228l.122.123-.122-.123m.122.369l-.122-.123-.94-.94 1.062-1.061 1.064 1.062zm12.054-3.075l-.571-.57.571-.572.57.571z"/>
  <path fill="#929292" d="M64.36 198.792l-.571.57.571.572.57-.571-.57-.571m-.123 1.264l.123.123-.123-.123m.123.368l-.123-.122-.94-.94.787-.785.097.097.122-.123.057-.056.179.18.097-.099.786.787z"/>
  <path fill="#7c7c7c" d="M64.538 198.674l-.179-.179-.057.057-.122.122-.097-.097.276-.276.276.275z"/>
  <path fill="#929292" d="M16.238 176.224h-.17l-.054-.163.138-.1.139.1z"/>
  <path fill="#929292" d="M16.152 175.961l-.138.1.053.163h.17l.054-.163-.139-.1m.338.61h-.675l-.21-.642.548-.397.102.074.443.323z"/>
  <path stroke-width=".353" stroke="red" fill="red" d="M28.289 178.808h-.17l-.053-.163.138-.1.139.1z"/>
  <path stroke-width=".353" stroke="#999" fill="#999" d="M28.204 178.545l-.139.1.054.164h.17l.054-.163-.139-.101m.337.611h-.675l-.208-.642.545-.399.103.075.445.324z"/>
  <path fill="#929292" d="M40.341 176.224h-.17l-.054-.163.139-.1.137.1z"/>
  <path fill="#929292" d="M40.256 175.961l-.139.1.054.163h.17l.053-.163-.138-.1m.338.61h-.675l-.21-.642.548-.397.101.074.443.323z"/>
  <path fill="#787878" d="M52.307 202.033l-.06-.025-.027-.061.027-.062.06-.025.062.025.025.062-.025.061z"/>
  <path fill="#787878" d="M52.247 202.008l.06.025.062-.025.025-.062-.025-.062-.062-.025-.06.025-.026.062.026.062m.147.056h-.172l-.053-.163.138-.1.14.1z"/>
  <path fill="#7c7c7c" d="M52.133 201.549l.174-.174.173.173a.439.439 0 00-.347.001m.572.57a.429.429 0 000-.346l.111.111-.06.184-.051.052m-.795 0l-.052-.052-.06-.185.111-.11a.436.436 0 000 .347m.504.292h-.212l-.067-.068a.429.429 0 00.346 0l-.067.068"/>
  <path fill="#787878" d="M52.307 201.801l-.138.1.053.163h.171l.053-.162-.139-.101m0 .58a.429.429 0 01-.173-.037l-.224-.224a.432.432 0 010-.347l.223-.224a.425.425 0 01.347 0l.225.224a.437.437 0 010 .347l-.225.225a.431.431 0 01-.173.035"/>
  <path fill="#7c7c7c" d="M52.816 201.884l-.111-.111a.416.416 0 00-.225-.224l-.173-.174-.174.174a.443.443 0 00-.132.09H52a.446.446 0 00-.091.134l-.111.11-.038-.115.547-.396.102.074.444.322-.037.116m-.615.527h-.232l-.112-.343.053.052a.43.43 0 00.09.133h.001a.44.44 0 00.132.09l.068.068m.445 0h-.233l.067-.067a.442.442 0 00.225-.224l.051-.052-.11.343"/>
  <path fill="#787878" d="M51.909 201.773a.447.447 0 01.091-.133l.001-.001a.435.435 0 01.132-.09l-.224.224m.796 0l-.225-.224a.43.43 0 01.225.224m-.571.571a.434.434 0 01-.224-.224l.224.224m.346 0l.225-.224a.425.425 0 01-.225.224"/>
  <path fill="#929292" d="M64.445 186.561h-.17l-.054-.163.139-.101.139.1z"/>
  <path fill="#929292" d="M64.36 186.296l-.14.101.054.163h.171l.054-.163-.139-.101m.337.611h-.675l-.21-.643.548-.397.102.073.445.325z"/>
  <g stroke="red" fill="red">
    <path stroke-width=".353" d="M13.745 190.634a1.213 1.213 0 00.859-2.074 1.212 1.212 0 00-1.72 0 1.216 1.216 0 000 1.72c.23.227.538.354.861.354"/>
    <path stroke-width=".347" stroke-linejoin="round" d="M13.745 190.634a1.213 1.213 0 00.859-2.074 1.212 1.212 0 00-1.72 0 1.216 1.216 0 000 1.72c.23.227.538.354.861.354z"/>
    <path stroke-width=".353" d="M25.794 178.624a1.215 1.215 0 100-2.43 1.215 1.215 0 000 2.43"/>
    <path stroke-width=".347" stroke-linejoin="round" d="M25.794 178.624a1.215 1.215 0 100-2.43 1.215 1.215 0 000 2.43z"/>
    <path stroke-width=".353" d="M37.846 197.327a1.215 1.215 0 100-2.43 1.215 1.215 0 000 2.43"/>
    <path stroke-width=".347" stroke-linejoin="round" d="M37.846 197.327a1.215 1.215 0 100-2.43 1.215 1.215 0 000 2.43z"/>
    <path stroke-width=".353" d="M49.897 194.909a1.218 1.218 0 001.215-1.215 1.216 1.216 0 00-1.215-1.215 1.215 1.215 0 100 2.43"/>
    <path stroke-width=".347" stroke-linejoin="round" d="M49.897 194.909a1.218 1.218 0 001.215-1.215 1.216 1.216 0 00-1.215-1.215 1.215 1.215 0 100 2.43z"/>
    <path stroke-width=".353" d="M61.949 193.393a1.215 1.215 0 100-2.43 1.215 1.215 0 000 2.43"/>
    <path stroke-width=".347" stroke-linejoin="round" d="M61.949 193.393a1.215 1.215 0 100-2.43 1.215 1.215 0 000 2.43z"/>
  </g>
  <path stroke-width=".176" stroke-linecap="square" stroke="#000" fill="none" d="M11.215 169.646h55.68m-55.68 33.593h55.68m0 0v-33.593m-55.68 33.593v-33.593"/>
  <text transform="translate(114.575 125.362)" stroke-width=".353" font-size="2.293" font-family="sans-serif" y="-14.365" x="-170.629">
    <tspan y="82.09" x="-100.45457 -88.340363 -76.416473 -64.23806 -52.249969">NEOAC</tspan>
  </text>
  <text transform="translate(114.575 125.362)" stroke-width=".353" font-size="2.293" font-family="sans-serif" y="22.374" x="-170.629">
    <tspan y="47.728" x="-81.701958 -80.172501 -78.89756 -78.388504 -77.75103 -76.98745 -75.840919 -74.565971 -73.291039 -72.653572 -71.889984 -70.615044">Self-centred</tspan>
  </text>
  <g>
    <path fill="#fff" d="M108.405 77.076h55.679v33.593h-55.679z"/>
    <g stroke-width=".176" stroke-linejoin="round">
      <path stroke="#000" fill="none" d="M112.195 110.669v1.215m12.66-1.215v1.215"/>
      <path stroke="#00b300" fill="#00b300" d="M137.505 110.669v1.215"/>
    </g>
    <path d="M150.155 110.669v1.215m12.66-1.215v1.215m-54.41-5.091h-1.215m1.215-6.461h-1.215m1.215-6.46h-1.215m1.215-6.459h-1.215m1.215-6.461h-1.215" stroke-width=".176" stroke-linejoin="round" stroke="#000" fill="none"/>
    <path stroke-width=".347" stroke-linejoin="round" d="M110.935 95.976V77.468m12.65 18.412V78.756m12.65 31.206V93.249m12.66 6.748V81.271m12.65 19.478V80.637" stroke="#00b300" fill="#00b300"/>
    <path stroke-width=".347" stroke-linejoin="round" stroke="#00b300" fill="none" d="M162.245 100.749h-1.388m-11.264-.753h-1.39m-11.265 9.965h-1.389M124.283 95.88h-1.388m-11.266.096h-1.389m52.005-15.339h-1.388m-11.264.633h-1.39m-11.264 11.978h-1.389m-11.267-14.492h-1.388m-11.266-1.288h-1.389"/>
    <path stroke-width=".521" stroke-linejoin="round" stroke-dasharray="1.476, 2.436" stroke="#000" fill="none" d="M110.935 93.872h50.617"/>
    <g stroke="#00b300" fill="#00b300">
      <path stroke-width=".353" d="M110.935 87.938a1.218 1.218 0 001.215-1.215 1.216 1.216 0 10-1.215 1.215"/>
      <path stroke-width=".347" stroke-linejoin="round" d="M110.935 87.938a1.218 1.218 0 001.215-1.215 1.216 1.216 0 10-1.215 1.215z"/>
      <path stroke-width=".353" d="M123.585 88.533a1.215 1.215 0 100-2.43 1.215 1.215 0 000 2.43"/>
      <path stroke-width=".347" stroke-linejoin="round" d="M123.585 88.533a1.215 1.215 0 100-2.43 1.215 1.215 0 000 2.43z"/>
      <path stroke-width=".353" d="M136.235 102.82a1.216 1.216 0 001.215-1.215 1.216 1.216 0 10-1.215 1.215"/>
      <path stroke-width=".347" stroke-linejoin="round" d="M136.235 102.82a1.216 1.216 0 001.215-1.215 1.216 1.216 0 10-1.215 1.215z"/>
      <path stroke-width=".353" d="M148.895 91.849c.321 0 .63-.128.858-.357a1.212 1.212 0 00-.858-2.073 1.215 1.215 0 100 2.43"/>
      <path stroke-width=".347" stroke-linejoin="round" d="M148.895 91.849c.321 0 .63-.128.858-.357a1.212 1.212 0 00-.858-2.073 1.215 1.215 0 100 2.43z"/>
      <path stroke-width=".353" d="M161.545 91.908a1.216 1.216 0 001.215-1.215 1.215 1.215 0 10-2.43 0 1.216 1.216 0 001.215 1.215"/>
      <path stroke-width=".347" stroke-linejoin="round" d="M161.545 91.908a1.216 1.216 0 001.215-1.215 1.215 1.215 0 10-2.43 0 1.216 1.216 0 001.215 1.215z"/>
    </g>
    <path stroke-width=".176" stroke-linecap="square" stroke="#000" fill="none" d="M108.405 77.076h55.68m-55.68 33.593h55.68m0 0V77.076m-55.68 33.593V77.076"/>
    <text transform="translate(389.985 32.792)" stroke-width=".353" font-size="2.293" font-family="sans-serif" y="22.374" x="-288.652">
      <tspan y="48.886" x="-287.39783 -286.12289 -285.48541">1.0</tspan><tspan y="55.346" x="-287.39783 -286.12289 -285.48541">0.50</tspan><tspan y="68.265" x="-288.67276 -287.39783 -286.12289 -285.48541">–0.5</tspan><tspan y="74.725" x="-288.67276 -287.39783 -286.12289 -285.48541">–1.0</tspan><tspan y="47.728" x="-258.01233 -256.48285 -255.33633 -254.0614 -253.29781 -252.02287 -250.74794">Average</tspan>
    </text>
    <text transform="translate(389.985 32.792)" stroke-width=".353" font-size="2.293" font-family="sans-serif" y="-14.365" x="-287.236">
      <tspan y="82.09" x="-277.25629 -265.14206 -253.21817 -241.03976 -229.05167">NEOAC</tspan>
    </text>
  </g>
  <g>
    <path fill="#fff" d="M110.035 249.073h55.679v33.592h-55.679z"/>
    <path stroke-width=".176" stroke-linejoin="round" d="M113.765 282.663v1.215m12.05-1.215v1.215m12.06-1.215v1.215" stroke="#00f" fill="#00f"/>
    <path stroke-width=".176" stroke-linejoin="round" stroke="#000" fill="none" d="M149.925 282.663v1.215m12.05-1.215v1.215m-51.94-5.095h-1.215m1.215-6.46h-1.215m1.215-6.46h-1.215m1.215-6.46h-1.215m1.215-6.46h-1.215"/>
    <g stroke="#00f">
      <g fill="#00f">
        <g clip-path="url(#j)" transform="matrix(.35278 0 0 -.35278 58.095 430.543)">
          <path stroke-width=".984" stroke-linejoin="round" d="M154.39 423.64v46.742"/>
        </g>
        <g clip-path="url(#k)" transform="matrix(.35278 0 0 -.35278 58.095 430.543)">
          <path stroke-width=".984" stroke-linejoin="round" d="M188.55 439.33v49.945"/>
        </g>
        <g clip-path="url(#l)" transform="matrix(.35278 0 0 -.35278 58.095 430.543)">
          <path stroke-width=".984" stroke-linejoin="round" d="M222.71 413.97v49.189"/>
        </g>
        <g clip-path="url(#m)" transform="matrix(.35278 0 0 -.35278 58.095 430.543)">
          <path stroke-width=".984" stroke-linejoin="round" d="M256.88 445.37v51.451"/>
        </g>
        <g clip-path="url(#n)" transform="matrix(.35278 0 0 -.35278 58.095 430.543)">
          <path stroke-width=".984" stroke-linejoin="round" d="M291.04 447.51v52.593"/>
        </g>
      </g>
      <path stroke-width=".347" stroke-linejoin="round" fill="none" d="M161.465 272.673h-1.389m-10.662.755h-1.389m-22.716 2.133h-1.388m-10.662 5.535h-1.39m49.596-26.973h-1.389m-10.662 1.158h-1.389m-10.663 11.875h-1.389m-10.664-9.211h-1.388m-10.662 6.665h-1.39"/>
    </g>
    <path d="M159.485 265.603h.52v.52h-.52zm-1.38 0h.521v.52h-.52zm-1.38 0h.52v.52h-.52zm-1.38 0h.52v.52h-.52zm-1.38 0h.52v.52h-.52zm-1.38 0h.52v.52h-.52zm-1.38 0h.52v.52h-.52zm-1.38 0h.52v.52h-.52zm-1.38 0h.52v.52h-.52zm-1.38 0h.52v.52h-.52zm-1.38 0h.52v.52h-.52zm-1.38 0h.52v.52h-.52zm-1.38 0h.52v.52h-.52zm-1.38 0h.52v.52h-.52zm-1.38 0h.52v.52h-.52zm-1.38 0h.52v.52h-.52zm-1.381 0h.521v.52h-.521zm-1.38 0h.521v.52h-.52zm-1.38 0h.52v.52h-.52zm-1.38 0h.52v.52h-.52zm-1.38 0h.52v.52h-.52zm-1.38 0h.521v.52h-.521zm-1.38 0h.521v.52h-.521zm-1.38 0h.52v.52h-.52zm-1.38 0h.52v.52h-.52zm-1.38 0h.52v.52h-.52zm-1.38 0h.52v.52h-.52zm-1.38 0h.52v.52h-.52zm-1.38 0h.52v.52h-.52zm-1.38 0h.52v.52h-.52zm-1.38 0h.52v.52h-.52zm-1.38 0h.52v.52h-.52zm-1.38 0h.52v.52h-.52zm-1.38 0h.52v.52h-.52zm-1.38 0h.52v.52h-.52z"/>
    <path fill="#929292" d="M114.915 250.303l-.026.06.026.062.06.024.062-.024.026-.062-.026-.06-.061-.027z"/>
    <g fill="#929292">
      <path d="M114.915 250.423l.06.025.062-.025.025-.061-.025-.06-.062-.027-.06.026-.026.06.026.062m.06.373a.437.437 0 01-.433-.434.434.434 0 01.434-.434.434.434 0 01.307.74.433.433 0 01-.307.128h-.001m36.15 9.987l-.062-.025v-.001l-.025-.06.025-.062.062-.025.061.024.026.062-.025.06-.001.002z"/>
      <path d="M151.434 261.007h.001m-.307-.394l-.062.025-.025.062.024.06.062.026.061-.024.001-.001.025-.061-.025-.062-.062-.025m0 .52a.434.434 0 010-.868.434.434 0 110 .869m12.048 9.339l-.06-.025-.026-.062.026-.062.06-.024.062.024.025.062-.025.062z"/>
      <path d="M163.485 270.083h-.001m-.307.22l-.06.025-.027.061.027.062.06.026.062-.026.024-.062-.024-.06v-.001l-.062-.025m0 .52a.434.434 0 01-.306-.74.43.43 0 01.74.307.434.434 0 01-.434.434m-48.502-12.471l.123.123-.123-.123m.48.368l-.178-.179-.057.057-.122.122-.123-.122-.18-.18-.122-.122.18-.18-.058-.058-.122-.122.425-.424.179.179.056-.057.123-.122.424.424-.18.18.057.057.123.123zm23.62 10.612l.123.122-.123-.122m.123.369l-.123-.125-.18-.18-.12-.123.178-.178-.057-.056-.122-.123.424-.425.18.18.056-.057.122-.123.427.425-.18.179.056.055.124.123-.427.427-.179-.18-.055.057zm-23.653-9.819h-.55v-.173h.175-.174v-.027h-.202v-.55h.202v-.202h.549v.202h.2v.55h-.2v.027zm12.05 14.21h-.55v-.174h.175-.175v-.028h-.2v-.549h.2v-.2h.55v.2h.202v.55h-.202v.027zm12.06 5.17h-.55v-.174h.175-.174v-.027h-.202v-.55h.202v-.137h.549v.137h.2v.55h-.2v.027zm12.05-4.52h-.548v-.174h.173-.173v-.027h-.202v-.549h.202v-.202h.548v.202h.202v.549h-.202v.027zm12.05-7.11h-.55v-.173h.174-.173v-.027h-.202v-.55h.202v-.202h.027l.124.124.122.122.248-.246h.028v.202h.2v.55h-.2v.027zm-47.95-3.82h-1.066v-1.066h1.066z"/>
      <path d="M114.265 262.573h.174-.174m.174 1.24h1.065v-1.066h-1.065zm1.413.347h-1.76v-1.76h1.76zm11.173 12.913l-.108-.108h.217l-.053.052-.056.056m.533.175l-.284-.283h.284v.283m-1.066 0v-.283h.284l-.284.283m1.066.358l-.052-.052-.056-.056.108-.109v.217m-1.066 0v-.217l.052.052.057.057-.109.108m.284.425h-.284v-.284l.052.053.18.179.052.052m.358 0h-.217l.052-.052.056-.057.109.109m.424 0h-.283l.283-.283z"/>
    </g>
    <path fill="#7c7c7c" d="M126.725 277.733l.123.123-.123-.123m.551.298h-.14l-.11-.108-.055.056-.053.052h-.14l-.053-.052-.179-.179-.052-.052v-.141l.108-.109-.056-.056-.052-.053v-.14l.284-.284h.14l.109.109.056-.057.053-.052h.14l.283.283v.141l-.108.11.057.055.051.053v.141z"/>
    <path fill="#929292" d="M126.315 276.793h.174-.174m.458 1.24l.07.07.07-.07h.218l.07.07.07-.07h.283v-.283l.072-.072-.072-.07v-.217l.072-.07-.072-.071v-.283h-.283l-.07-.07-.07.07h-.218l-.07-.07-.07.07h-.284v.283l-.071.07.07.07v.218l-.07.07.07.071v.284h.285m1.128.347h-1.76v-1.76h1.76z"/>
    <path fill="#7c7c7c" d="M126.915 276.963h-.14l.07-.07.07.07m.358 0h-.141l.07-.07.07.07m-.782.424l-.07-.07.07-.071v.14m1.066.001v-.141l.071.07-.071.071m-1.066.359l-.07-.071.07-.07v.14m1.066 0v-.14l.071.07-.071.07m-.354.354l-.07-.07h.14l-.07.07m-.358 0l-.07-.07h.141z"/>
    <path fill="#929292" d="M139.605 278.023h-1.067v-1.066h1.067z"/>
    <path fill="#929292" d="M138.365 276.793h.174-.174m.174 1.24h1.067v-1.066h-1.067zm1.414.347h-.606v-.066h-.55v.066h-.606v-1.76h1.762z"/>
    <path fill="#7c7c7c" d="M139.355 278.373h-.55v-.065h.55z"/>
    <path fill="#929292" d="M151.665 266.403h-.283l.272-.273h.011z"/>
    <path fill="#5a5a5a" d="M151.665 266.123h-.01l.01-.01z"/>
    <path fill="#929292" d="M150.875 266.403h-.284v-.284l.053.053.18.179.051.052m.358 0h-.217l.052-.052.056-.057z"/>
    <path fill="#5a5a5a" d="M151.665 265.973l-.052-.052-.057-.057.11-.109z"/>
    <path fill="#929292" d="M151.665 265.603h-.011l-.272-.274h.283v.274m-1.066.37v-.218l.052.052.057.056z"/>
    <path fill="#5a5a5a" d="M151.665 265.623l-.011-.011h.011z"/>
    <path fill="#929292" d="M151.125 265.443l-.108-.11h.216l-.052.053-.056.057m-.533.176v-.285h.283z"/>
    <path fill="#7c7c7c" d="M150.825 266.103l.123.123-.123-.123m.551.298h-.14l-.11-.109-.055.056-.053.053h-.14l-.052-.053-.18-.178-.052-.053v-.14l.109-.11-.057-.056-.052-.052v-.14l.283-.286h.142l.107.11.057-.057.052-.053h.142l.271.274h-.446v.52h.447z"/>
    <path fill="#717171" d="M151.655 266.123h-.447v-.52h.447l.01.01v.141l-.108.108.056.057.053.053v.14z"/>
    <path fill="#929292" d="M150.425 265.163h.174-.174m.815 1.24l.07.071.071-.07h.284v-.273h.063v-.074l.007-.007-.007-.006v-.345l.006-.007-.006-.007v-.075h-.063v-.274h-.284l-.07-.071-.071.071h-.216l-.071-.071-.071.071h-.284v.285l-.07.07.07.07v.218l-.07.07.07.07v.285h.284l.07.07.071-.07h.217m.772.346h-1.76v-.62h.096v-.52h-.097v-.621h1.76z"/>
    <path fill="#5a5a5a" d="M151.725 265.683l-.064-.064v-.011h.064v.075m0 .358l-.064-.064v-.218l.064-.063v.345m-1.38.087h-.097v-.52h.097zm1.38 0h-.064v-.01l.064-.064z"/>
    <path fill="#7c7c7c" d="M151.725 266.053v-.014l.007.006-.007.007m-1.13.063l-.07-.07.07-.07v.14m.355.355l-.07-.071h.14l-.07.07m.358 0l-.07-.07h.14z"/>
    <path fill="#717171" d="M151.665 266.113v-.14l.064.063v.014z"/>
    <path fill="#7c7c7c" d="M151.725 265.693v-.013l.006.006-.006.007m-1.13.064l-.07-.07.07-.07z"/>
    <path fill="#717171" d="M151.665 265.763v-.14l.064.063v.013z"/>
    <path fill="#7c7c7c" d="M151.015 265.333h-.141l.07-.071.07.071m.359 0h-.142l.071-.071z"/>
    <g fill="#929292">
      <path d="M163.715 265.103h-.23l-.304-.304-.303.304h-.23v-1.066h1.067z"/>
      <path d="M162.475 263.873h.174-.174m1.588 1.587h-.23l-.348-.347h.23v-1.066h-1.066v1.066h.23l-.348.347h-.23v-1.76h1.762zm-49.088-11.937l-.571-.571.571-.57.57.57z"/>
      <path d="M114.975 252.373l-.571.57.571.572.57-.571-.57-.571m-.123 1.265l.123.123-.123-.123m.123.368l-.122-.123-.94-.94 1.062-1.06 1.062 1.06zm12.05 12.437l-.31-.31h.169v-.521h-.17l.311-.312.571.572z"/>
    </g>
    <path fill="#5a5a5a" d="M126.885 266.123h-.17l-.26-.26.26-.26h.17z"/>
    <path fill="#929292" d="M126.715 266.123l.31.31.572-.57-.572-.572-.31.311h-.351v.521h.351m.188.433l.122.123-.122-.123m.122.368l-.122-.122-.94-.94 1.062-1.063.802.803h-.083v.521h.083z"/>
    <path fill="#5a5a5a" d="M126.715 266.123h-.351v-.52h.35l-.26.26.261.26m1.112 0h-.083v-.52h.083l.26.26z"/>
    <g fill="#929292">
      <path d="M139.075 256.103l-.571-.571.571-.57.572.57z"/>
      <path d="M139.075 254.963l-.571.57.571.572.572-.571-.572-.571m-.122 1.264l.122.123-.122-.123m.122.368l-.123-.122-.939-.94 1.062-1.061 1.064 1.062zm12.05 7.258l-.57-.571.57-.57.571.57z"/>
      <path d="M151.125 262.713l-.57.57.57.572.571-.571-.571-.571m-.122 1.264l.122.123-.122-.123m.122.369l-.123-.123-.939-.94 1.062-1.061 1.062 1.062zm12.05 2.097l-.073-.073.018-.017.016-.017h.08l.034.033z"/>
    </g>
    <path fill="#7c7c7c" d="M163.255 266.363l-.034-.033h.067l-.033.033m-.148 0l-.034-.033h.068l-.016.017z"/>
    <path fill="#929292" d="M163.675 265.943l-.017-.017-.008-.009.036-.11.063.062z"/>
    <path fill="#7c7c7c" d="M163.625 265.993l.024-.076.01.01.016.015z"/>
    <path fill="#929292" d="M162.685 265.943l-.073-.073.062-.063.036.111z"/>
    <path fill="#7c7c7c" d="M162.735 265.993l-.049-.049.025-.025z"/>
    <path fill="#929292" d="M163.425 266.683h-.248l-.122-.122.122.122h-.246l-.814-.816.41-.411h.28l-.232.233.084.085.01.031-.062.062.074.074-.106.106.123.123.133.133.01.029h.019l.017.017.123.122.105-.105.073.073.075-.074.106.106.14-.14h.017l.008-.025.26-.26-.106-.105.073-.073-.062-.062.01-.033.084-.084-.232-.233h.279l.412.412z"/>
    <path d="M163.695 265.773l.027-.082-.323-.236h.148l.232.234-.084.084m-1.039 0l-.084-.084.232-.233h.147l-.321.235.026.083m.172.53l-.134-.134-.123-.123.106-.106.05.049.1.313m.694.002l.103-.314.05-.05.106.105-.26.26m-.164.164l-.107-.106.033-.033h.213l-.14.14m-.359 0l-.122-.123-.018-.017h.212l.033.034zm.179.462l-.123-.122-.123-.124h.493zm.31-1.83h-.607l.303-.304zm.34.35h-.278l-.192-.193-.093.093-.088-.063-.086.063-.093-.093-.192.193h-.279l.347-.347h.607z" fill="#7c7c7c"/>
    <path fill="#787878" d="M162.955 265.453h-.147l.192-.193.092.093-.137.1m.596 0h-.148l-.122-.089-.015-.01.093-.094z"/>
    <path fill="#929292" d="M115.055 249.193h-.17l-.04-.117h.248z"/>
    <path fill="#929292" d="M115.315 249.533h-.676l-.15-.465h.365l.038.118h.171l.039-.118h.365z"/>
    <path fill="#7c7c7c" d="M127.025 281.453l-.062-.025-.025-.062.026-.061.061-.026.062.026.025.061-.025.062z"/>
    <path fill="#7c7c7c" d="M126.965 281.313l-.025.062.025.061.061.026.062-.026.025-.061-.025-.062-.062-.025-.06.025m.146.18h-.17l-.054-.163.138-.101.139.1z"/>
    <path fill="#929292" d="M127.025 281.803a.433.433 0 00.308-.74v-.001a.437.437 0 00-.615 0 .434.434 0 00.307.741m.338.031h-.676l-.21-.642.548-.399.102.075.444.324-.208.642"/>
    <g fill="#7c7c7c">
      <path d="M127.025 281.223l-.139.101.054.163h.17l.053-.163-.138-.101m0 .58a.433.433 0 01-.308-.74l.001-.001a.435.435 0 01.615 0 .432.432 0 010 .614.433.433 0 01-.308.127m12.05-10.68l-.06-.025-.027-.061.027-.06.06-.028.062.027.025.06-.025.063z"/>
      <path d="M139.015 270.973l-.026.06.026.062.06.025.062-.025.025-.062-.025-.06-.062-.027-.06.027m.146.178h-.17l-.053-.163.138-.1.138.1z"/>
    </g>
    <g>
      <path fill="#929292" d="M139.075 270.603a.434.434 0 000 .868.434.434 0 00.308-.74.435.435 0 00-.308-.128m.338.9h-.676l-.207-.644.545-.395.102.073.446.322-.21.643"/>
      <path fill="#7c7c7c" d="M139.075 270.893l-.138.1.053.164h.17l.054-.163-.139-.101m-.001.58a.436.436 0 01-.433-.434.436.436 0 01.434-.434c.118 0 .227.047.307.127h.001a.431.431 0 010 .613.434.434 0 01-.308.128"/>
      <path fill="#929292" d="M151.215 276.323h-.17l-.054-.163.139-.1.138.1z"/>
      <path fill="#929292" d="M151.125 276.053l-.139.1.054.163h.17l.053-.163-.138-.1m.338.61h-.676l-.21-.643.548-.396.102.074.444.322z"/>
      <path fill="#787878" d="M163.265 265.983h-.17l-.054-.162.138-.1.139.1z"/>
      <path fill="#7c7c7c" d="M163.655 265.913l-.048-.048.073-.073.011.011-.036.11m-.946 0l-.036-.11.01-.011.018.017.056.056-.048.048m.513.416h-.08l.04-.04z"/>
      <path fill="#787878" d="M163.175 265.723l-.138.1.053.162h.17l.054-.161-.139-.101m-.301.381l.122.123-.122-.123m.408.229h-.066l-.04-.04-.04.04h-.068l-.341-.342-.025-.074.049-.048-.057-.057-.017-.016.338-.34h.32l.339.34-.074.073.049.048-.025.075zm-.107-.89l-.074-.074.073-.073.074.074-.016.016z"/>
      <path fill="#767676" d="M163.335 265.453h-.32l.086-.087.075.075.057-.058.016-.016z"/>
      <path fill="#7c7c7c" d="M163.515 266.333h-.018l.026-.026z"/>
      <path fill="#787878" d="M163.495 266.333h-.213l.342-.34-.103.314z"/>
      <path fill="#7c7c7c" d="M162.865 266.333h-.02l-.008-.029z"/>
      <path fill="#787878" d="M163.075 266.333h-.212l-.028-.029-.101-.313z"/>
      <path fill="#7c7c7c" d="M162.675 265.803l-.01-.031.02.02-.01.011m1.018 0l-.011-.01.021-.022z"/>
      <path fill="#787878" d="M162.685 265.793l-.02-.02-.027-.084.321-.235h.064l-.338.339m.997 0l-.34-.339h.065l.323.235-.027.083zm-.427-.42l-.074-.074-.073.073-.013-.013.086-.064.088.064z"/>
      <path fill="#767676" d="M163.015 265.453h-.064l.137-.1.013.013-.086.087m.384 0h-.064l-.087-.086.014-.013.015.01z"/>
    </g>
    <g stroke="#00f" fill="#00f">
      <path stroke-width=".353" d="M112.565 274.063a1.215 1.215 0 100-2.43 1.215 1.215 0 000 2.43"/>
      <path stroke-width=".347" stroke-linejoin="round" d="M112.565 274.063a1.215 1.215 0 100-2.43 1.215 1.215 0 000 2.43z"/>
      <path stroke-width=".353" d="M124.615 267.963a1.215 1.215 0 10.004-2.43 1.215 1.215 0 00-.004 2.43"/>
      <path stroke-width=".347" stroke-linejoin="round" d="M124.615 267.963a1.215 1.215 0 10.004-2.43 1.215 1.215 0 00-.004 2.43z"/>
      <path stroke-width=".353" d="M136.665 277.043a1.216 1.216 0 001.215-1.215 1.216 1.216 0 10-1.215 1.215"/>
      <path stroke-width=".347" stroke-linejoin="round" d="M136.665 277.043a1.216 1.216 0 001.215-1.215 1.216 1.216 0 10-1.215 1.215z"/>
      <path stroke-width=".353" d="M148.715 265.573a1.217 1.217 0 001.215-1.215 1.216 1.216 0 00-2.075-.858 1.217 1.217 0 000 1.718c.228.227.537.355.86.355"/>
      <path stroke-width=".347" stroke-linejoin="round" d="M148.715 265.573a1.217 1.217 0 001.215-1.215 1.216 1.216 0 00-2.075-.858 1.217 1.217 0 000 1.718c.228.227.537.355.86.355z"/>
      <path stroke-width=".353" d="M160.765 264.613a1.215 1.215 0 10.002-2.43 1.215 1.215 0 00-.002 2.43"/>
      <path stroke-width=".347" stroke-linejoin="round" d="M160.765 264.613a1.215 1.215 0 10.002-2.43 1.215 1.215 0 00-.002 2.43z"/>
    </g>
    <path stroke-width=".176" stroke-linecap="square" stroke="#000" fill="none" d="M110.035 249.073h55.679m-55.679 33.592h55.679m0 0v-33.592m-55.679 33.592v-33.592"/>
    <text transform="translate(419.775 114.203)" stroke-width=".353" font-size="2.293" font-family="sans-serif" y="76.007" x="-316.81">
      <tspan y="139.467" x="-315.55615 -314.28122 -313.64374">1.0</tspan><tspan y="138.346" x="-286.80811 -285.15253 -283.87759 -282.73105 -281.45612 -280.69254 -279.54599 -278.27106">Reserved</tspan><tspan y="145.927" x="-315.55386 -314.27893 -313.64145">0.50</tspan><tspan y="158.846" x="-316.8288 -315.55386 -314.27893 -313.64145">–0.5</tspan><tspan y="165.305" x="-316.8288 -315.55386 -314.27893 -313.64145">–1.0</tspan><tspan y="172.462" x="-306.83109 -294.71686 -282.79297 -270.61456 -258.62646">NEOAC</tspan>
    </text>
  </g>
  <path d="M132.627 142.761a3.071 3.071 0 110 6.142" fill="#feb300"/>
  <path fill="#00b200" d="M132.627 142.761a3.071 3.071 0 100 6.142"/>
  <path d="M139.884 230.53a3.071 3.071 0 100 6.142" fill="#00f"/>
</svg>
