<?xml version="1.0" encoding="UTF-8"?>
<!--
  based on http://styfelife.com/wp-content/uploads/2014/02/HEADSHOT.jpg
  via http://styfelife.com/products-page/all-decals/cs-headshot/
-->
<svg id="counterstrike-headshot-icon" version="1.1" viewBox="0 0 92.869 83.079" xmlns="http://www.w3.org/2000/svg">
  <rect id="background" width="92.869" height="83.079" fill="#fff" stroke-width=".026458"/>
  <path id="head" stroke-width=".26458" d="m32.676 77.66c-5.3139-1.437-10.155-4.6566-16.867-11.217-2.2907-2.239-3.4487-3.5696-3.6078-4.1459-0.25142-0.91058-0.13577-1.7754 0.90994-6.8045 1.0281-4.9443 1.0085-5.1514-1.5725-16.598-1.2578-5.5785-1.5857-8.3158-1.3945-11.642 0.19331-3.3626 0.6718-5.2601 2.0508-8.1326 2.2315-4.6485 7.134-8.5355 12.676-10.05 2.7409-0.74923 8.8728-0.61659 12.202 0.26395 4.532 1.1986 7.5147 2.8451 11.008 6.0768l1.647 1.5235 21.044 0.09336 7.1785 3.2255c0.10711 0.05311 0.10014 0.17887 0.0061 0.22251l-6.3868 3.5944-16.089 9e-3c-0.0094 0.18293 0.25975 1.6004 0.75216 3.0507 1.1571 3.4082 1.1801 4.9369 0.12358 8.2351-0.87804 2.7411-0.96089 4.1408-0.39688 6.7049 0.48285 2.1952 0.49403 5.0889 0.02556 6.6146-0.20108 0.65484-0.84142 2.2673-1.423 3.5832-0.58157 1.3159-1.4365 3.8162-1.8998 5.5562-1.0991 4.1276-2.3074 6.3792-4.4377 8.2692-0.90728 0.80496-1.7158 1.6723-1.7968 1.9274-0.08097 0.2551 0.03627 1.255 0.26053 2.222 0.63625 2.7435 0.56311 3.2469-0.63756 4.3891-1.21 1.1511-3.7713 2.4792-5.8459 3.0313-1.7897 0.47627-5.7635 0.4751-7.5286-0.0021zm17.994-19.568c1.2644-0.52832 1.9795-1.7996 1.9807-3.5217 7.94e-4 -1.0579-0.13108-1.5211-0.55299-1.943-0.51888-0.51888-0.78288-0.54778-4.1672-0.45618-3.1564 0.08543-3.7637 0.17597-4.8038 0.71613-1.208 0.62736-2.3812 1.5593-2.3812 1.8916 0 0.6325 2.8092 2.7382 4.4193 3.3125 1.3346 0.47606 4.3667 0.47642 5.5053 5.29e-4zm4.3629-18.906c0-0.71228 0.24366-2.0839 0.54146-3.0481 0.2978-0.96417 0.46126-1.8828 0.36324-2.0414-0.28143-0.45537-1.9156-0.06448-2.9139 0.69703-2.2696 1.7311-2.224 3.9174 0.10753 5.1488 1.6156 0.85332 1.9017 0.73953 1.9017-0.75633zm-12.814-0.16377c2.956-0.90728 4.157-3.29 2.5944-5.1471-1.1218-1.3332-2.4437-1.8612-4.6525-1.8582-3.9585 0.0053-6.72 2.3531-5.5673 4.7333 1.048 2.164 4.5641 3.2116 7.6254 2.272zm-12.346-8.8609 1.1163-1.3239 3.0096 0.13418 0.07929-1.3694 0.07929-1.3694 1.7066-0.18277c2.0339-0.21782 2.2435-0.70719 0.7806-1.823-0.50932-0.38848-0.92604-0.84265-0.92604-1.0093s0.55674-0.79286 1.2372-1.3916c0.82533-0.72625 1.1672-1.202 1.0268-1.4291-0.11571-0.18723-1.0314-0.87155-2.035-1.5207-1.9928-1.2891-2.3992-1.7753-2.8924-3.4596-0.1803-0.61571-0.51801-1.176-0.75046-1.245-0.23245-0.06906-1.205 0.02508-2.1612 0.2092-0.95623 0.18413-1.879 0.28799-2.0505 0.2308-0.17156-0.05719-0.31193-0.50375-0.31193-0.99235 0-1.2197-0.50764-1.45-1.176-0.53348-0.29908 0.41011-0.7343 0.98798-0.96716 1.2842l-0.42339 0.53852-0.98738-0.61023c-1.2036-0.74385-1.5766-0.48918-1.9216 1.3118l-0.22807 1.1906-1.9765 0.07907c-1.0871 0.04349-2.0874 0.18996-2.2229 0.32549-0.15218 0.15218-0.01207 0.74679 0.36635 1.5547 0.33702 0.71956 0.54088 1.4956 0.45301 1.7246-0.08787 0.22898-0.84818 0.72208-1.6896 1.0958-1.3974 0.62065-1.488 0.71039-1.0463 1.0367 0.26592 0.1965 1.0727 0.4383 1.7928 0.53734 1.4508 0.19954 2.0875 0.66693 2.0929 1.5365 0.0069 1.099 0.31526 1.7374 0.8784 1.8183 0.4575 0.06578 0.66393 0.45012 1.0975 2.0434 0.29371 1.0793 0.68669 2.0132 0.87328 2.0754 0.1866 0.06217 0.7442-0.19582 1.2391-0.57331 0.49492-0.37749 1.0566-0.68603 1.2482-0.68564 0.19161 2.64e-4 0.88416 0.47157 1.539 1.0471 0.65484 0.57548 1.3803 1.0514 1.6122 1.0576 0.23188 0.0062 0.92394-0.58446 1.5379-1.3126zm48.093-0.32978c-0.96137-1.5759-1.5011-2.6422-1.5011-2.9657 0-0.39673 1.587-1.4976 1.8894-1.3107 0.34496 0.2132 1.8147 3.1008 1.8147 3.5653 0 0.44172-1.0405 1.3064-1.5721 1.3064-0.14729 0-0.43122-0.26789-0.63097-0.59531zm3.7171-2.2561-2.5771-2.5868 1.5147-1.8143 2.5524 2.3563c1.4038 1.296 2.5524 2.4447 2.5524 2.5528 0 0.31466-1.0929 2.0788-1.2879 2.0788-0.0975 0-1.337-1.1641-2.7544-2.5868zm2.9839-5.2897c-2.7268-0.05881-3.3653-0.14895-3.638-0.51359-0.43212-0.57785-0.42629-2.1731 0.0085-2.34 0.1866-0.07161 2.0023-0.0381 4.0349 0.07445l3.6956 0.20464 0.07924 1.2225c0.09659 1.4902 0.22968 1.4471-4.1803 1.352zm-5.2779-4.6765c-0.43797-0.4662-0.56198-0.82878-0.44409-1.2985 0.19552-0.779 3.4927-3.8755 4.1266-3.8755 0.69756 0 1.6734 1.1893 1.4789 1.8023-0.20746 0.65365-3.7276 4.0185-4.2039 4.0185-0.19241 0-0.62328-0.29106-0.95748-0.64681zm-3.1226-2.2607c-0.47294-0.28836-0.8599-0.64279-0.8599-0.78762 0-0.32548 1.8116-3.184 2.0178-3.184 0.44283 0 1.6863 0.96504 1.6863 1.3087 0 0.83142-1.1611 3.1892-1.57 3.1882-0.22788-5.56e-4 -0.80129-0.23692-1.2742-0.52528z"/>
</svg>
