<?xml version="1.0" encoding="UTF-8"?>
<!-- Created with Inkscape (http://www.inkscape.org/) -->
<svg width="164.05mm" height="135.56mm" version="1.1" viewBox="0 0 164.05 135.56" xmlns="http://www.w3.org/2000/svg" xmlns:xlink="http://www.w3.org/1999/xlink">
 <g transform="translate(-22.498 -23.896)">
  <path d="m142.16 53.566-11.112 3.6995c-21.528 7.1675-30.974 10.624-40.554 14.841-2.0289 0.89309-4.8067 1.9579-6.1733 2.3663-1.3666 0.40835-2.6566 0.87642-2.8665 1.0402-0.75253 0.58725-10.316 4.3106-16.28 6.3381l-6.0782 2.0665-8.2093-0.51366c-4.5152-0.28258-10.194-0.67632-12.619-0.87488-2.4253-0.19856-5.2036-0.33968-6.1738-0.31368l-1.7637 0.04703 2.2929 0.29662c2.2101 0.28561 8.8211 0.72503 20.58 1.3679 3.0724 0.16797 5.6808 0.39998 5.7965 0.51573 0.27206 0.27206 0.14216 3.4978-0.28577 7.0885-0.18562 1.5575-0.49538 7.0781-0.68781 12.268s-0.4508 10.067-0.57412 10.839l-0.22376 1.402h-4.0587c-4.9502 0-24.479-0.6473-26.19-0.86817l-1.2351-0.15968 0.7059 0.40721 0.70538 0.40721 30.762 0.67748 3.4928-1.6149c4.1646-1.9254 8.5715-3.7879 8.9622-3.7879 0.15444 0 1.6562-0.64153 3.3367-1.4252 3.2231-1.503 6.3933-2.8081 6.8203-2.8081h0.25425l-0.22118 3.2628c-0.12152 1.7948-0.33919 4.176-0.48421 5.2917l-0.26407 2.0288h3.8881l5.5935-2.82c11.305-5.6997 16.519-8.4377 16.097-8.4532-0.23796-9e-3 -5.0972 2.3652-10.798 5.2756-5.7011 2.9104-10.511 5.2917-10.689 5.2917h-0.32401l0.24495-2.9104c0.2895-3.4414 0.98018-11.137 1.1793-13.141 0.07711-0.7761 0.31639-4.4272 0.53175-8.1137l0.39171-6.703 0.56379-0.42995c0.31015-0.23653 1.3739-0.69124 2.3637-1.0103 0.98977-0.31904 2.5137-0.97281 3.3869-1.4531 1.5208-0.83664 8.3897-3.6396 10.23-4.1744 1.3778-0.40033 10.333-4.2599 14.78-6.3702 2.2112-1.0493 4.0984-1.9079 4.1941-1.9079 0.24031 0-0.1497 7.8102-0.42323 8.4755l-0.22118 0.53795-3.6086 1.3643c-1.9848 0.75037-4.7537 1.9234-6.1526 2.6071l-2.543 1.2433-0.36742 1.0526c-0.2018 0.5789-0.36801 1.8623-0.37001 2.852-2e-3 0.98969-0.24452 3.8628-0.53898 6.3851-0.29445 2.5224-0.69016 6.4913-0.87902 8.8196-0.18885 2.3283-0.54831 6.2682-0.79892 8.7555-0.25057 2.4873-0.36932 4.5676-0.26406 4.6225 0.10527 0.0549 6.6998 0.13628 14.655 0.18138 7.9551 0.0451 14.53 0.14823 14.611 0.22893 0.0808 0.0802 3.7324 0.12005 8.1142 0.0879l7.9664-0.0584-8.9958-0.32659c-4.9477-0.1795-13.282-0.31851-18.521-0.30851-5.2388 0.01-11.266-0.0943-13.395-0.23203l-3.8695-0.25063 0.0847-1.7637c0.10553-2.1925 1.0177-12.671 1.4743-16.933 0.18706-1.7462 0.51014-5.08 0.71779-7.4083 0.20766-2.3283 0.44888-4.4416 0.53588-4.6958l0.15813-0.46199 15.261 0.19895c8.3933 0.10937 19.309 0.25894 24.256 0.3328l8.9958 0.13436-3.175-0.2744c-1.7462-0.15101-7.382-0.29176-12.524-0.31264-5.1417-0.02087-14.468-0.14274-20.725-0.27078l-11.377-0.23254 0.96997-0.58808c0.53336-0.32333 4.0651-1.8138 7.8486-3.3125 9.6023-3.8034 11.158-4.4454 16.757-6.9179 2.7164-1.1994 7.4154-3.1827 10.442-4.407 3.0269-1.2243 6.7801-2.95 8.3406-3.8354 1.5604-0.88544 4.1642-2.244 5.7857-3.0189 7.6697-3.6654 13.484-7.076 12.958-7.6011-0.0729-0.0728-4.4101-0.31442-9.6387-0.53692s-9.5945-0.45593-9.7017-0.51883-2.6553-0.21889-5.6627-0.34675zm1.7642 0.56172 0.12247 0.11937 1.8929 0.09302c0.029-0.02103 0.0629-0.03617 0.10129-0.03617 0.0453 0 0.086 0.01865 0.1173 0.04703l2.5296 0.12454c3e-3 -0.09452 0.08-0.17157 0.17519-0.17157 0.097 0 0.17621 0.07972 0.17621 0.17673 0 0.0042-2e-3 0.0077-3e-3 0.01188l0.69815 0.03411 0.0925-0.24081 0.31419 0.26097 3.5243 0.17312-0.21652-0.23926 0.26768 0.24184 2.0376 0.10025 7e-3 -0.3421 0.30645 0.3576 4.6617 0.22893c0.0323-0.03481 0.0772-0.05736 0.12815-0.05736 0.0565 0 0.10461 0.02856 0.13695 0.07028l2.3947 0.11782-9e-3 -0.01189 0.0134 0.01189 8.2631 0.40618c-3.7491 2.7749-11.377 6.3252-14.387 7.7189-1.0914 0.50531-3.0393 1.8282-5.9371 3.2722-3.0666 1.5281-7.0382 3.1852-9.7234 4.1946-0.0298 0.0556-0.0868 0.09508-0.154 0.09508-0.023 0-0.0444-0.0053-0.0646-0.01344-0.1062 0.03955-0.22505 0.08573-0.3266 0.12299 0.63699-5.0826 1.3008-10.344 1.7064-16.81l1.2707 0.06253zm-1.7978 0.24133c0.0297 0.0033 0.0505 0.01015 0.061 0.02067 0.27471 0.27472-0.70264 10.76-1.4594 15.656l-0.17053 1.1017-2.1973 0.9648c-11.345 4.9802-16.426 7.0643-16.655 6.8311-0.0655-0.06685 0.0289-2.095 0.20929-4.5067l0.32763-4.3847-0.28732-0.28732c-0.15804-0.15804-1.074-0.31762-2.0355-0.3545l-1.7482-0.06718-5.997 2.5538c-3.2985 1.4047-7.3466 3.1722-8.9958 3.9274s-4.8246 2.0332-7.0559 2.8401c-2.2313 0.80692-4.8507 1.9101-5.8208 2.4515s-2.9833 1.4875-4.4736 2.1022c-1.4904 0.61468-2.9031 1.3508-3.1399 1.6361l-0.43046 0.51883-0.31678 3.4272c-0.17422 1.885-0.50757 6.5855-0.74052 10.445l-0.42375 7.0177-3.3512 1.3999c-1.8433 0.76986-5.5741 2.3097-8.2904 3.422-2.7164 1.1123-6.0501 2.5423-7.4083 3.1776-1.3582 0.63523-2.7471 1.3005-3.0866 1.4785l-0.61753 0.32349 0.0072-0.62994c0.08172-7.4431 0.88034-21.972 1.5167-27.587l0.41651-3.6737 4.4096-1.5389c6.5665-2.2915 6.8685-2.4043 11.642-4.3491 2.4253-0.9882 6.2353-2.4776 8.4667-3.3099 2.2313-0.83231 5.4067-2.1165 7.0559-2.8536 9.2424-4.1305 48.716-17.965 50.59-17.754zm-23.129 15.192 0.91002 0.17363c1.6774 0.32066 1.9233 0.17055-6.7515 4.1248-2.3702 1.0804-4.4041 1.9642-4.5201 1.9642s-1.1137 0.4141-2.2169 0.92036-3.0378 1.2883-4.299 1.7374c-4.7587 1.6946-7.2842 2.6973-8.9054 3.5362-0.92026 0.47623-2.7455 1.2844-4.0566 1.7963l-2.3838 0.93069-1.3229 0.04703c-1.7276 0.06119-1.6733-0.25031 0.17622-1.0092 0.82462-0.33837 3.0868-1.3892 5.0271-2.3347 1.9403-0.94557 4.9567-2.2162 6.703-2.8241 1.7462-0.60795 4.524-1.7156 6.1733-2.4613 1.6492-0.74574 5.8043-2.5361 9.233-3.9786zm-36.242 15.596 1.4335 0.13643 1.433 0.13694-0.22169 2.3399c-0.12205 1.2871-0.46149 5.9915-0.75448 10.454-0.29299 4.4626-0.76261 10.178-1.0433 12.7-0.28073 2.5224-0.51522 4.9435-0.52142 5.38h-5.17e-4l-0.01085 0.79375-0.97048-0.0279c-0.53358-0.0153-1.1398-0.0983-1.3472-0.18448l-0.37672-0.15658 0.43046-3.3605c0.23682-1.8483 0.5318-6.2498 0.65577-9.7813 0.12398-3.5315 0.37443-8.0882 0.55656-10.125 0.18212-2.0373 0.42262-4.739 0.53433-6.0043z" stroke-width=".35278"/>
  <path d="m47.735 156.73-0.58116-0.15436-0.20778-0.77486c-0.11428-0.42617-0.21513-1.2511-0.22411-1.8332-9e-3 -0.58208-0.31527-1.9243-0.68065-2.9827l-0.66431-1.9244 1.4219-2.7872-0.40092-2.0378s-0.41153-2.9262-0.4245-4.012l-0.02358-1.9741 1.8807-3.844 1.8967-1.3352 3.9947-0.48872 1.51-0.77226 1.51-0.77225 0.95563-1.2347c0.5256-0.6791 1.0581-1.5813 1.1833-2.0049l0.22764-0.77018-2.3256-0.22352v-1.0375l0.78045-0.3891 0.78045-0.38909-0.478-0.50327c-0.2629-0.2768-0.58536-0.86124-0.71658-1.2988l-0.23857-0.79548 1.0132-0.38881 2.2053 2.2053 0.7963-0.27262c0.43797-0.14994 1.7488-0.28268 2.913-0.29499l2.1167-0.0224 1.5554-1.02 0.50524 0.50524-1.5379 1.6371 0.23841 0.23841c0.13113 0.13113 0.84695 0.23842 1.5907 0.23842h1.3523v0.48608c0 0.26735-0.23302 1.0438-0.51783 1.7254l-0.51783 1.2393-1.1223 0.39124c-0.61727 0.21517-1.4799 0.39123-1.917 0.39123h-0.79466l-0.23916 2.0606-0.23916 2.0607 0.5573 1.3338c0.76445 1.8296 0.70108 3.0512-0.29036 5.5972-0.46621 1.1973-1.0162 2.7325-1.2222 3.4116l-0.37453 1.2347 0.0042 3.5278c0.0025 1.9403-0.0032 3.7363-0.01252 3.9911l-0.01674 0.46332-1.1465-0.11054-1.1465-0.11055 0.11339-0.51657c0.06236-0.28411 0.11339-1.3864 0.11339-2.4495v-1.9329l0.33716 0.50921 0.33716 0.50922-0.19556 3.5278h0.91941l0.28612-8.1966 0.88385-2.3482 0.88924-2.1969c0.19015-0.4764 0.40593-1.0946 0.56304-1.5896l0.23199-0.73092-0.27266-1.5323c-0.16873-0.94827-0.64513-1.7424-0.81621-2.169-0.12437-0.31019 0.09794-1.4735 0.14358-1.7776l0.16319-1.7936-0.08666-0.73982-0.19298-0.73798 1.6427-5e-3c1.9557-6e-3 2.3605-0.22246 2.8553-1.524 0.51638-1.3582 0.48578-1.4667-0.4189-1.4865-0.43656-0.01-1.1906-0.14644-1.6757-0.30423l-0.88194-0.28689 0.44097 0.46298c0.24254 0.25464 0.44097 0.73175 0.44097 1.0602v0.59726l-1.1876 0.45574-0.7193-0.71929-0.71929-0.7193h0.41035c0.22569 0 0.50846 0.15875 0.62838 0.35278 0.3099 0.50142 0.88194 0.43717 0.88194-0.0991v-0.45182l-2.1167-0.79895v-1.4724h-0.33196c-0.18258 0-0.42578 0.15182-0.54047 0.33737l-0.2085 0.33737-1.0447-0.4009-0.50368 0.41802c-0.27702 0.22991-0.91516 1.4948-1.4181 2.811l-1.0347 1.9295-0.75021 1.2812-0.87049 0.81778-1.626 0.84775-1.4474 0.80318-2.0835 0.22962-1.8783 0.21407-1.0087 0.63928-0.91866 0.69292-0.53581 1.1762c-0.19112 0.41954-0.54246 1.283-0.72882 1.9442l-0.33883 1.2023 0.05401 1.0935 0.42816 3.8585 0.34552 2.2734-1.3311 2.9519 0.38386 0.61466c0.21112 0.33806 0.58251 1.8461 0.82531 3.3512l0.44145 2.7366 1.7727 0.67396 0.3453-0.3453 0.3453-0.34529-1.2427-2.6187 0.3183-5.4984 1.901-2.8726-0.35787-0.66868c-0.41312-0.77192-0.59324-3.7953-0.24675-4.1418l0.23364-0.23365v2.9255l1.1362 2.8398-0.19531 1.3213-0.77541 2.1427-0.44572 1.5094 0.21741 0.66814 0.21398 0.27904 0.3786 0.0108 0.32459-0.23552-0.05821-2.555 0.34214-1.6755 0.39269-1.1776-1.2761-4.92 0.70666-0.70666 0.20347 1.9896 0.67381 3.662-0.73716 2.8648 0.13303 2.7543-0.6235 0.39087-0.64267 0.0433-0.30434-0.50337-0.32351-0.85089 0.50604-1.6814 0.83731-2.1762 0.15568-1.1469-0.20764-0.32428-1.0407 1.7253-0.75869 1.2347-0.03373 2.6458-0.03372 2.6458 1.3404 2.2144-0.4363 1.137-0.98121-0.0409c-0.53967-0.0225-1.2427-0.11039-1.5624-0.19529zm11.694-30.655v-0.5526l-0.94293 0.11163-0.94293 0.11162-0.2896 0.88195h2.1755zm-0.45146-2.2594-1.136-1.0195-0.13861 0.3913-0.13861 0.39129 1.9158 1.6479 0.63352-0.39153zm6.9778 0.65583 1.0583-0.74043-0.65013 0.2151c-0.35758 0.11831-1.0312 0.31073-1.4969 0.42762l-0.84673 0.21251 0.19477 0.31515c0.28537 0.46174 0.56475 0.39274 1.7406-0.42995zm-12.084 32.088-0.43946-0.43946v-3.433l-0.72696-1.3584 1.0979-2.123-1.0946-2.1167h0.34943c0.92012 0 1.4385 2.6751 0.66779 3.4459l-0.41201 0.41201 0.41201 1.3752c0.2266 0.75634 0.24834 2.1919 0.24834 2.1919l0.0024 1.4263 0.68631 0.65086 1.4877-0.28292-0.09235-3.0345 0.10512-2.9892 2.3308-2.6546 0.78596 0.10299 0.78597 0.103 1.1111-1.5864 0.46584 0.46584-2.2952 2.144-0.05312 3.5212h-2.2878l-0.16349-0.97013c-0.08992-0.53358-0.14447 0.45861-0.12121 2.2049l0.04228 3.175-2.4533 0.20864-0.43946-0.43946zm5.097-6.401 0.11634-1.6585h-0.30227c-0.16625 0-0.56883 0.29454-0.89462 0.65454l-0.59235 0.65453 0.01012 0.62805 0.24253 1.0578 0.18796 0.58816 0.84508-0.077z" stroke-width=".35278"/>
  <g font-family="sans-serif" stroke-width=".26458">
   <g transform="translate(0, 4)">
    <text x="85" y="132" font-size="6.35px">Die sogenannte "Freie Wahl"</text>
    <text x="102" y="142" font-size="6.35px">ist oft eine Wahl</text>
    <text x="78" y="152" font-size="6.35px">zwischen Scheisse und Scheisse</text>
   </g>
   <g font-size="7.0556px">
    <text x="158.52737" y="38.893616" text-anchor="middle" style="line-height:1.25" xml:space="preserve"><tspan x="158.52737" y="45">Schlachthaus</tspan></text>
    <text x="126.17029" y="103.19239" style="line-height:1.25" xml:space="preserve"><tspan x="126.17029" y="103.19239" font-size="7.0556px" stroke-width=".26458" text-align="center" text-anchor="middle">Rechts</tspan></text>
    <text x="41.984764" y="102.50176" style="line-height:1.25" xml:space="preserve"><tspan x="41.984764" y="102.50176" font-size="7.0556px" stroke-width=".26458" text-align="center" text-anchor="middle">Links</tspan></text>
   </g>
  </g>
 </g>
</svg>
