<?xml version="1.0" encoding="UTF-8"?>
<!--
  the "perfect square font" is a pixel art font.
  every character covers a surface of 7x5 = 35 pixels:

  ####### #######         ####### #     # ####### #     # ####### #######
  #     # #     #         #       #     #    #    #     # #       #
  #     # #     #         ####### #     #    #    #     # #       #######
  #     # #     #         #       #     #    #    #     # #       #
  #     # #######         #       #######    #    ####### #       #######

-->
<svg id="no-future.perfect-square-font.dark-mode" version="1.1" viewBox="0 0 73 7" xmlns="http://www.w3.org/2000/svg">
  <g id="text" fill="#fff" stroke="#000" stroke-width=".15" transform="translate(1 1)">
    <path id="N" d="m0 0v5h1v-4h5v4h1v-5h-6z"/>
    <path id="O" transform="translate(8)" d="m0 0v5h7v-5h-6zm1 1h5v3h-5z"/>
    <path id="F" transform="translate(24)" d="m0 0v5h1v-2h6v-1h-6v-1h6v-1h-6z"/>
    <path id="U" transform="translate(32)" d="m0 0v5h7v-5h-1v4h-5v-4z"/>
    <path id="T" transform="translate(40)" d="m0 0v1h3v4h1v-4h3v-1z"/>
    <path id="U2" transform="translate(48)" d="m0 0v5h7v-5h-1v4h-5v-4z"/>
    <path id="R" transform="translate(56)" d="m0 0v5h1v-4h6v-1h-6z"/>
    <path id="E" transform="translate(64)" d="m0 0v5h7v-1h-6v-1h6v-1h-6v-1h6v-1h-6z"/>
  </g>
</svg>
