<?xml version="1.0" encoding="utf-8"?>



<svg title="pallas-pattern.roundlines"
  viewBox="0 0 800 800"
  width="800" height="800"
  style="margin:auto"
  xmlns="http://www.w3.org/2000/svg"
  xmlns:xlink="http://www.w3.org/1999/xlink"
  >
  <defs>
    <style type="text/css">
      svg { --fg: black; --bg: white; } /* light mode */
      @media screen {
        @media (prefers-color-scheme: dark) { 
          svg { --fg: white; --bg: black; } /* dark mode */
        }
        [data-darkreader-mode="dynamic"]
          svg { --fg: white; --bg: black; } /* dark mode */
      }
      @media screen {
        @media (prefers-color-scheme: dark) { 
          svg { --fg: #ffffff; --bg: #000000; } /* dark mode */
        }

        [data-darkreader-mode="dynamic"]
          svg { --fg: #ffffff; --bg: #000000; } /* dark mode */
      }

      .fig1 .stroke {
        stroke-width: 2;
        stroke: black; /* fallback when css variables are not supported */
        stroke: var(--fg);
      }

      .nofill {
        fill: none;
      }

      .fillbg {
        fill: white;
        fill: var(--bg);
      }

      .fillfg {
        fill: black;
        fill: var(--fg);
      }
    </style>
  </defs>

  <g class="fig1">


    <g title="Pattern lines" stroke-width="2" fill="none" stroke="black" class="stroke nofill">

      <!-- FIXME the arcs should be between the circles, not between the center points,
        so we dont need the <circle class="fillbg"> workaround.
        class="fillbg" looks ugly in darkreader with external svg images <img src="image.svg">.
        = svg should be fully transparent.
      -->
      <g title="roundlines pattern">
        <g display="" title="concave lines = cross groups">
          <g id="concave-lines-center-row">
            <g id="concave-lines-center">
              <!-- the radius is defined here: A 140 140 0 0 0 500 300 = radius 140 -->
              <!-- radius 140 is a near-perfect circle, because Math.sqrt(2) is 1.414 = about 1.4 -->
              <path title="top" id="roundline" d="M 300 300 A 140 140 0 0 0 500 300"/>
              <use title="bottom" transform="translate(0 200) scale(1 -1)" transform-origin="300 300" href="#roundline" />
              <use title="left" transform="rotate(90) scale(1 -1)" transform-origin="300 300" href="#roundline" />
              <use title="right" transform="rotate(90) translate(0 200)" transform-origin="300 300" href="#roundline" />
            </g>
            <use title="left" transform="translate(-400 0)" href="#concave-lines-center" />
            <use title="right" transform="translate(400 0)" href="#concave-lines-center" />
          </g>
          <use title="top" transform="translate(0 -400)" href="#concave-lines-center-row" />
          <use title="bottom" transform="translate(0 400)" href="#concave-lines-center-row" />
        </g>
        <g display="" title="convex lines = square groups">
          <g id="convex-lines-center-row">
            <g id="convex-lines-center">
              <use id="roundline-convex" title="top" transform="translate(-200 -200) scale(1 -1)" transform-origin="300 300" href="#roundline" />
              <use title="bottom" transform="translate(0 200) scale(1 -1)" transform-origin="100 100" href="#roundline-convex" />
              <use title="left" transform="rotate(90) scale(1 -1)" transform-origin="100 100" href="#roundline-convex" />
              <use title="right" transform="rotate(90) translate(0 200)" transform-origin="300 300" href="#roundline-convex" />
            </g>
            <use title="left" transform="translate(-400 0)" href="#convex-lines-center" />
            <use title="right" transform="translate(400 0)" href="#convex-lines-center" />
          </g>
          <use title="top" transform="translate(0 -400)" href="#convex-lines-center-row" />
          <use title="bottom" transform="translate(0 400)" href="#convex-lines-center-row" />
        </g>
        <g display="none" title="double lines">
          <g display="none" title="double lines center">
            <path title="right left" d="M 490 360 L 490 440"/>
            <path title="right right" d="M 510 360 L 510 440"/>

            <path title="left left" d="M 290 360 L 290 440"/>
            <path title="left right" d="M 310 360 L 310 440"/>

            <path title="bottom top" d="M 440 490 L 360 490"/>
            <path title="bottom bottom" d="M 440 510 L 360 510"/>

            <path title="top bottom" d="M 360 310 L 440 310"/>
            <path title="top top" d="M 360 290 L 440 290"/>
          </g>

          <g title="double lines outside squares">
            <!-- copy paste. different transform values -->
            <g title="top left" transform="translate(-200 -200)">
              <title>top-left double lines</title>
              <path title="right left" d="M 490 360 L 490 440"/>
              <path title="right right" d="M 510 360 L 510 440"/>

              <path title="left left" d="M 290 360 L 290 440"/>
              <path title="left right" d="M 310 360 L 310 440"/>

              <path title="bottom top" d="M 440 490 L 360 490"/>
              <path title="bottom bottom" d="M 440 510 L 360 510"/>

              <path title="top bottom" d="M 360 310 L 440 310"/>
              <path title="top top" d="M 360 290 L 440 290"/>
            </g>

            <g title="top left" transform="translate(200 -200)">
              <title>top-left double lines</title>
              <path title="right left" d="M 490 360 L 490 440"/>
              <path title="right right" d="M 510 360 L 510 440"/>

              <path title="left left" d="M 290 360 L 290 440"/>
              <path title="left right" d="M 310 360 L 310 440"/>

              <path title="bottom top" d="M 440 490 L 360 490"/>
              <path title="bottom bottom" d="M 440 510 L 360 510"/>

              <path title="top bottom" d="M 360 310 L 440 310"/>
              <path title="top top" d="M 360 290 L 440 290"/>
            </g>

            <g title="top left" transform="translate(-200 200)">
              <title>top-left double lines</title>
              <path title="right left" d="M 490 360 L 490 440"/>
              <path title="right right" d="M 510 360 L 510 440"/>

              <path title="left left" d="M 290 360 L 290 440"/>
              <path title="left right" d="M 310 360 L 310 440"/>

              <path title="bottom top" d="M 440 490 L 360 490"/>
              <path title="bottom bottom" d="M 440 510 L 360 510"/>

              <path title="top bottom" d="M 360 310 L 440 310"/>
              <path title="top top" d="M 360 290 L 440 290"/>
            </g>

            <g title="top left" transform="translate(200 200)">
              <title>top-left double lines</title>
              <path title="right left" d="M 490 360 L 490 440"/>
              <path title="right right" d="M 510 360 L 510 440"/>

              <path title="left left" d="M 290 360 L 290 440"/>
              <path title="left right" d="M 310 360 L 310 440"/>

              <path title="bottom top" d="M 440 490 L 360 490"/>
              <path title="bottom bottom" d="M 440 510 L 360 510"/>

              <path title="top bottom" d="M 360 310 L 440 310"/>
              <path title="top top" d="M 360 290 L 440 290"/>
            </g>
          </g>
        </g>
      </g>




    </g>

    <g title="circles and text">
      <g title="circles" stroke-width="2" fill="white" stroke="black" class="stroke fillbg">
        <title>Circles</title>
        <circle cx="100" cy="100" r="60"/>
        <circle cx="300" cy="100" r="60"/>
        <circle cx="500" cy="100" r="60"/>
        <circle cx="700" cy="100" r="60"/>
        <circle cx="100" cy="300" r="60"/>
        <circle cx="300" cy="300" r="60"/>
        <circle cx="500" cy="300" r="60"/>
        <circle cx="700" cy="300" r="60"/>
        <circle cx="100" cy="500" r="60"/>
        <circle cx="300" cy="500" r="60"/>
        <circle cx="500" cy="500" r="60"/>
        <circle cx="700" cy="500" r="60"/>
        <circle cx="100" cy="700" r="60"/>
        <circle cx="300" cy="700" r="60"/>
        <circle cx="500" cy="700" r="60"/>
        <circle cx="700" cy="700" r="60"/>
      </g>
      <g title="text" dominant-baseline="middle" text-anchor="middle" font-family="sans" font-size="40" class="fillfg">
        <text fill="black" x="100" y="100">F1L</text>
        <text fill="black" x="300" y="100">M2L</text>
        <text fill="black" x="500" y="100">F4L</text>
        <text fill="black" x="700" y="100">M3L</text>
        <text fill="black" x="100" y="300">F2S</text>
        <text fill="black" x="300" y="300">M1S</text>
        <text fill="black" x="500" y="300">F3S</text>
        <text fill="black" x="700" y="300">M4S</text>
        <text fill="black" x="100" y="500">F3L</text>
        <text fill="black" x="300" y="500">M4L</text>
        <text fill="black" x="500" y="500">F2L</text>
        <text fill="black" x="700" y="500">M1L</text>
        <text fill="black" x="100" y="700">F4S</text>
        <text fill="black" x="300" y="700">M3S</text>
        <text fill="black" x="500" y="700">F1S</text>
        <text fill="black" x="700" y="700">M2S</text>
      </g>
    </g>

  </g>
</svg>
