<?xml version="1.0" encoding="iso-8859-1"?>
<!-- Generator: Adobe Illustrator 18.0.0, SVG Export Plug-In . SVG Version: 6.00 Build 0)  -->
<!DOCTYPE svg PUBLIC "-//W3C//DTD SVG 1.1//EN" "http://www.w3.org/Graphics/SVG/1.1/DTD/svg11.dtd">
<svg version="1.1" id="Capa_1" xmlns="http://www.w3.org/2000/svg" xmlns:xlink="http://www.w3.org/1999/xlink" x="0px" y="0px"
	 viewBox="0 0 477.074 477.074" style="enable-background:new 0 0 477.074 477.074;" xml:space="preserve">
<path d="M379.888,165.251c4.482-4.48,7.003-10.557,7.003-16.897c0-6.341-2.521-12.417-7.003-16.898L255.434,7.002
	c-9.337-9.336-24.46-9.336-33.795,0L97.186,131.448c-4.482,4.482-7.003,10.557-7.003,16.898c0,6.34,2.521,12.417,7.003,16.897
	l117.45,117.452v27.222h-55.111c-13.204,0-23.899,10.698-23.899,23.9c0,13.203,10.696,23.9,23.899,23.9h55.111v95.457
	c0,13.202,10.698,23.9,23.9,23.9c13.204,0,23.899-10.698,23.899-23.9v-95.457h55.112c13.202,0,23.899-10.697,23.899-23.9
	c0-13.202-10.697-23.9-23.899-23.9h-55.112v-27.222L379.888,165.251z M238.539,235.701c-0.002,0-0.003,0-0.005,0l-90.648-87.355
	l90.649-90.651l90.651,90.659L238.539,235.701z"/>
<g>
</g>
<g>
</g>
<g>
</g>
<g>
</g>
<g>
</g>
<g>
</g>
<g>
</g>
<g>
</g>
<g>
</g>
<g>
</g>
<g>
</g>
<g>
</g>
<g>
</g>
<g>
</g>
<g>
</g>
</svg>
