<?xml version="1.0" encoding="UTF-8"?>
<!--
  inspired by:
  sharon puking over stan's book
  The Tale of Scrotie McBoogerballs
  South.Park.S14E02.720p.BluRay.x265-HETeam.mkv
  magnet:?xt=urn:btih:fd790fe74d263325b4106e14fb04635e54617f04&dn=South.Park.Uncensored.S01-S21.720p.BluRay.x265-HETeam
-->
<svg xmlns="http://www.w3.org/2000/svg" viewBox="0 0 53.9761 86.66395">
  <g fill="none" stroke="#000" stroke-width=".5">
    <path d="m17.67042 11.51072 5.9325 3.4112-5.9325 3.46128"/>
    <path d="M18.5598 30.42058a8.37966 3.63366 0 0 1 8.37966-3.63366 8.37966 3.63366 0 0 1 8.37966 3.63366"/>
    <path d="M18.5598 30.42057s-1.19781 22.11625-2.08769 25.52744"/>
    <path d="M44.51499 51.73733v23.21801l-17.5738 10.41797L9.37047 74.95457V51.73733l17.57072 10.41796z"/>
    <path d="M17.88438 43.89063S2.50573 46.24637 1.35213 49.18281c-1.1536 2.93644 8.01834 14.16314 8.01834 14.16314m25.94865-32.92538s1.19781 22.11625 2.08768 25.52744"/>
    <path d="M36.09173 43.89063s15.37864 2.35574 16.53224 5.29218c1.1536 2.93644-8.01834 14.16314-8.01834 14.16314M36.2085 11.51072l-5.9325 3.4112 5.9325 3.46128"/>
    <path d="M18.24642 37.51051C11.31914 33.15479 7.91555 24.1955 9.95553 15.68639 11.99552 7.17727 18.96785 1.25081 26.93957 1.25c7.97173-.00081 14.94505 5.92424 16.98645 14.43294 2.0414 8.5087-1.3607 17.46869-8.28726 21.82581"/>
  </g>
</svg>
