<?xml version="1.0" encoding="UTF-8"?>
<!--
  inspired by:
  sharon puking over stan's book
  The Tale of Scrotie McBoogerballs
  South.Park.S14E02.720p.BluRay.x265-HETeam.mkv
  magnet:?xt=urn:btih:fd790fe74d263325b4106e14fb04635e54617f04&dn=South.Park.Uncensored.S01-S21.720p.BluRay.x265-HETeam
-->
<svg width="210mm" height="297mm" version="1.1" viewBox="0 0 210 297" xmlns="http://www.w3.org/2000/svg">
  <g fill="none" stroke="#000">
    <path d="m59.869256 152.49024a17.57505 19.873896 0 0 1-7.078088-22.85176 17.57505 19.873896 0 0 1 17.700169-13.62535 17.57505 19.873896 0 0 1 16.205659 15.82548 17.57505 19.873896 0 0 1-9.343282 21.78619" opacity=".8" stroke-width=".529167"/>
    <path d="m60.214935 126.21406 5.932506 3.4112-6.525757 2.22469" stroke-width=".264583px"/>
    <path d="m76.381014 126.51069-5.190943 2.96625 6.525758 3.70782" stroke-width=".264583px"/>
    <path d="m60.214932 145.12392a8.3796644 3.6336598 0 0 1 8.379665-3.63366 8.3796644 3.6336598 0 0 1 8.379664 3.63366" opacity=".8" stroke-width=".529167"/>
    <g stroke-width=".264583px">
      <path d="m76.97426 145.12391s0.741569 19.58547 1.631444 22.99666"/>
      <path d="m60.214932 145.12391s-0.741569 19.58547-1.631444 22.99666"/>
      <path d="m71.04176 173.63466 16.88492-9.74851-1e-6 28.32704-18.044443 10.41797-17.276297-9.97448v-28.32627l17.276295 9.9737z"/>
      <path d="m77.66143 158.77754s21.233696-0.10487 22.3873 2.83157c1.1536 2.93644-12.122051 15.86703-12.122051 15.86703"/>
      <path d="m59.527762 158.77754s-17.89027-0.10487-19.043874 2.83157c-1.1536 2.93644 12.122051 15.86703 12.122051 15.86703"/>
      <path d="m71.04176 173.63466-1.159526 0.66945"/>
    </g>
  </g>
</svg>
