<svg xmlns="http://www.w3.org/2000/svg" xmlns:xlink="http://www.w3.org/1999/xlink" width="1024px" height="400px">
<!-- https://starchart.cc/milahu/alchi.svg?background=%23FFFFFF&axis=%23000000&line=%23000000 -->
<style type="text/css">
path { fill: none; stroke: rgb(51,51,51); }
path.series { stroke: #6b63ff; }
rect.background { fill: rgb(255,255,255); stroke: none; }

text {
	stroke-width: 0;
	stroke: none;
	fill: rgba(51,51,51,1.0);
	font-size: 12.8px;
	font-family: 'Roboto Medium', sans-serif;
}
</style><rect width="1024px" height="400px" class="background" style="fill: #FFFFFF;" rx="8" x="0" y="0" /><rect height="400px" class="background" style="fill: #FFFFFF;" rx="8" x="0" y="0" width="1024px"></rect><path stroke-width="2" style="stroke: #000000;" class="series" d="M 58 346 L 146 332 L 161 319 L 326 306 L 364 293 L 374 280 L 387 266 L 447 253 L 466 240 L 490 227 L 496 214 L 508 200 L 536 187 L 563 174 L 589 161 L 606 148 L 617 134 L 618 121 L 643 108 L 664 95 L 691 82 L 815 68 L 828 55 L 832 42 L 852 29 L 952 16" /><path stroke-width="2" style="stroke: #000000;" class="series" d="M 58 346 L 146 332 L 161 319 L 326 306 L 364 293 L 374 280 L 387 266 L 447 253 L 466 240 L 490 227 L 496 214 L 508 200 L 536 187 L 563 174 L 589 161 L 606 148 L 617 134 L 618 121 L 643 108 L 664 95 L 691 82 L 815 68 L 828 55 L 832 42 L 852 29 L 952 16"></path><path stroke-width="2" style="stroke: #000000;" d="M 952 346 L 952.000000 15.000000" /><path style="stroke: #000000;" d="M 952 346 L 952.000000 15.000000" stroke-width="2"></path><path stroke-width="2" style="stroke: #000000;" d="M 952 346 L 957 346" /><path stroke-width="2" style="stroke: #000000;" d="M 952 346 L 957 346"></path><text style="fill: #000000;" x="962" y="352" xmlns="http://www.w3.org/2000/svg">1</text><path stroke-width="2" style="stroke: #000000;" d="M 952 309 L 957 309" /><path stroke-width="2" style="stroke: #000000;" d="M 952 309 L 957 309"></path><text xmlns="http://www.w3.org/2000/svg" style="fill: #000000;" x="962" y="315">4</text><path d="M 952 272 L 957 272" stroke-width="2" style="stroke: #000000;" /><path d="M 952 272 L 957 272" stroke-width="2" style="stroke: #000000;"></path><text xmlns="http://www.w3.org/2000/svg" style="fill: #000000;" x="962" y="278">7</text><path stroke-width="2" style="stroke: #000000;" d="M 952 235 L 957 235" /><path stroke-width="2" style="stroke: #000000;" d="M 952 235 L 957 235"></path><text x="962" y="241" xmlns="http://www.w3.org/2000/svg" style="fill: #000000;">9</text><path stroke-width="2" style="stroke: #000000;" d="M 952 198 L 957 198" /><path stroke-width="2" style="stroke: #000000;" d="M 952 198 L 957 198"></path><text y="204" xmlns="http://www.w3.org/2000/svg" style="fill: #000000;" x="962">12</text><path d="M 952 162 L 957 162" stroke-width="2" style="stroke: #000000;" /><path stroke-width="2" style="stroke: #000000;" d="M 952 162 L 957 162"></path><text xmlns="http://www.w3.org/2000/svg" style="fill: #000000;" x="962" y="168">15</text><path d="M 952 125 L 957 125" stroke-width="2" style="stroke: #000000;" /><path d="M 952 125 L 957 125" stroke-width="2" style="stroke: #000000;"></path><text x="962" y="131" xmlns="http://www.w3.org/2000/svg" style="fill: #000000;">18</text><path style="stroke: #000000;" d="M 952 88 L 957 88" stroke-width="2" /><path stroke-width="2" style="stroke: #000000;" d="M 952 88 L 957 88"></path><text style="fill: #000000;" x="962" y="94" xmlns="http://www.w3.org/2000/svg">20</text><path stroke-width="2" style="stroke: #000000;" d="M 952 51 L 957 51" /><path stroke-width="2" style="stroke: #000000;" d="M 952 51 L 957 51"></path><text xmlns="http://www.w3.org/2000/svg" style="fill: #000000;" x="962" y="57">23</text><path style="stroke: #000000;" d="M 952 16 L 957 16" stroke-width="2" /><path d="M 952 16 L 957 16" stroke-width="2" style="stroke: #000000;"></path><text xmlns="http://www.w3.org/2000/svg" style="fill: #000000;" x="962" y="22">26</text><text x="987" y="175" style="fill: #000000;" transform="rotate(90.00,987,175)" xmlns="http://www.w3.org/2000/svg">Stargazers</text><path stroke-width="2" style="stroke: #000000;" d="M 57.000000 346.000000 L 952 346" /><path d="M 57.000000 346.000000 L 952 346" stroke-width="2" style="stroke: #000000;"></path><path stroke-width="2" style="stroke: #000000;" d="M 58 346 L 58 351" /><path stroke-width="2" style="stroke: #000000;" d="M 58 346 L 58 351"></path><text xmlns="http://www.w3.org/2000/svg" style="fill: #000000;" x="25" y="368">2020-08-12</text><path stroke-width="2" style="stroke: #000000;" d="M 158 346 L 158 351" /><path style="stroke: #000000;" d="M 158 346 L 158 351" stroke-width="2"></path><text xmlns="http://www.w3.org/2000/svg" style="fill: #000000;" x="125" y="368">2021-03-10</text><path d="M 257 346 L 257 351" stroke-width="2" style="stroke: #000000;" /><path stroke-width="2" style="stroke: #000000;" d="M 257 346 L 257 351"></path><text xmlns="http://www.w3.org/2000/svg" style="fill: #000000;" x="224" y="368">2021-10-05</text><path stroke-width="2" style="stroke: #000000;" d="M 357 346 L 357 351" /><path stroke-width="2" style="stroke: #000000;" d="M 357 346 L 357 351"></path><text xmlns="http://www.w3.org/2000/svg" style="fill: #000000;" x="324" y="368">2022-05-02</text><path d="M 456 346 L 456 351" stroke-width="2" style="stroke: #000000;" /><path stroke-width="2" style="stroke: #000000;" d="M 456 346 L 456 351"></path><text y="368" xmlns="http://www.w3.org/2000/svg" style="fill: #000000;" x="423">2022-11-27</text><path style="stroke: #000000;" d="M 555 346 L 555 351" stroke-width="2" /><path stroke-width="2" style="stroke: #000000;" d="M 555 346 L 555 351"></path><text xmlns="http://www.w3.org/2000/svg" style="fill: #000000;" x="522" y="368">2023-06-25</text><path stroke-width="2" style="stroke: #000000;" d="M 655 346 L 655 351" /><path stroke-width="2" style="stroke: #000000;" d="M 655 346 L 655 351"></path><text xmlns="http://www.w3.org/2000/svg" style="fill: #000000;" x="622" y="368">2024-01-20</text><path stroke-width="2" style="stroke: #000000;" d="M 754 346 L 754 351" /><path d="M 754 346 L 754 351" stroke-width="2" style="stroke: #000000;"></path><text xmlns="http://www.w3.org/2000/svg" style="fill: #000000;" x="721" y="368">2024-08-16</text><path stroke-width="2" style="stroke: #000000;" d="M 853 346 L 853 351" /><path stroke-width="2" style="stroke: #000000;" d="M 853 346 L 853 351"></path><text xmlns="http://www.w3.org/2000/svg" style="fill: #000000;" x="820" y="368">2025-03-14</text><path stroke-width="2" style="stroke: #000000;" d="M 952 346 L 952 351" /><path stroke-width="2" style="stroke: #000000;" d="M 952 346 L 952 351"></path><text xmlns="http://www.w3.org/2000/svg" style="fill: #000000;" x="919" y="368">2025-10-09</text><text xmlns="http://www.w3.org/2000/svg" style="fill: #000000;" x="490" y="390">Time</text></svg>
