<?xml version="1.0" encoding="UTF-8" standalone="no"?>
<svg
   xmlns:dc="http://purl.org/dc/elements/1.1/"
   xmlns:cc="http://creativecommons.org/ns#"
   xmlns:rdf="http://www.w3.org/1999/02/22-rdf-syntax-ns#"
   xmlns:svg="http://www.w3.org/2000/svg"
   xmlns="http://www.w3.org/2000/svg"
   xmlns:sodipodi="http://sodipodi.sourceforge.net/DTD/sodipodi-0.dtd"
   xmlns:inkscape="http://www.inkscape.org/namespaces/inkscape"
   sodipodi:docname="alchi-scratch-my-back-and-i-scratch-yours.svg"
   inkscape:version="1.0 (4035a4fb49, 2020-05-01)"
   id="svg8"
   version="1.1"
   viewBox="0 0 224.41467 97.826538"
   height="97.826538mm"
   width="224.41467mm">
  <defs
     id="defs2" />
  <sodipodi:namedview
     inkscape:window-maximized="0"
     inkscape:window-y="0"
     inkscape:window-x="0"
     inkscape:window-height="944"
     inkscape:window-width="1814"
     fit-margin-bottom="5"
     fit-margin-right="5"
     fit-margin-left="5"
     lock-margins="true"
     fit-margin-top="5"
     inkscape:snap-global="true"
     inkscape:snap-text-baseline="true"
     inkscape:snap-center="true"
     inkscape:snap-object-midpoints="true"
     inkscape:snap-midpoints="true"
     inkscape:snap-smooth-nodes="true"
     inkscape:snap-intersection-paths="true"
     inkscape:object-paths="true"
     inkscape:snap-bbox-edge-midpoints="true"
     inkscape:snap-bbox-midpoints="true"
     inkscape:bbox-nodes="true"
     inkscape:bbox-paths="true"
     inkscape:snap-bbox="true"
     inkscape:guide-bbox="true"
     showguides="true"
     showgrid="false"
     inkscape:document-rotation="0"
     inkscape:current-layer="layer1"
     inkscape:document-units="mm"
     inkscape:cy="116.26766"
     inkscape:cx="36.428017"
     inkscape:zoom="0.7"
     inkscape:pageshadow="2"
     inkscape:pageopacity="0.0"
     borderopacity="1.0"
     bordercolor="#666666"
     pagecolor="#ffffff"
     id="base">
    <sodipodi:guide
       id="guide837"
       orientation="0,-1"
       position="59.003551,5.9999975" />
  </sodipodi:namedview>
  <metadata
     id="metadata5">
    <rdf:RDF>
      <cc:Work
         rdf:about="">
        <dc:format>image/svg+xml</dc:format>
        <dc:type
           rdf:resource="http://purl.org/dc/dcmitype/StillImage" />
        <dc:title></dc:title>
      </cc:Work>
    </rdf:RDF>
  </metadata>
  <g
     transform="translate(-31.480932,-50.12225)"
     id="layer1"
     inkscape:groupmode="layer"
     inkscape:label="Layer 1">
    <g
       id="g1143">
      <g
         id="g858"
         style="stroke-width:2"
         transform="translate(-8.7164069)">
        <g
           style="stroke-width:2"
           id="g841">
          <ellipse
             style="fill:none;stroke:#000000;stroke-width:2"
             id="path833"
             cy="81.07196"
             cx="-47.77758"
             rx="12.799957"
             ry="10.282442"
             transform="rotate(-73.580117)" />
          <path
             style="fill:none;stroke:#000000;stroke-width:2;stroke-linecap:butt;stroke-linejoin:miter;stroke-opacity:1"
             d="M 58.314911,79.968784 C 44.467326,103.97562 43.1255,141.94879 51.066197,141.94879 c 5.488906,0 10.723687,-28.51382 16.551744,-28.51382 5.541251,0 8.334417,28.51382 10.278234,28.51382 h 6.698038"
             id="path835"
             sodipodi:nodetypes="csssc" />
        </g>
        <path
           sodipodi:nodetypes="csc"
           id="path849"
           d="m 54.439049,87.754753 c 3.380881,10.610098 9.09912,19.005667 13.083785,19.005667 3.984662,0 8.234977,-9.364008 18.237935,-15.652137"
           style="fill:none;stroke:#000000;stroke-width:2;stroke-linecap:butt;stroke-linejoin:miter;stroke-opacity:1" />
        <path
           sodipodi:nodetypes="csc"
           id="path851"
           d="m 93.646254,86.950061 c -4.224142,-1.724097 -7.195485,0.978207 -7.953906,4.127633 -0.398567,1.655094 1.477997,3.417895 4.52476,4.33495"
           style="fill:none;stroke:#000000;stroke-width:2;stroke-linecap:butt;stroke-linejoin:miter;stroke-opacity:1" />
      </g>
      <g
         id="g870"
         transform="translate(46.479548)"
         style="stroke-width:2">
        <g
           id="g864"
           style="stroke-width:2">
          <ellipse
             transform="rotate(-73.580117)"
             ry="10.282442"
             rx="12.799957"
             cx="-47.77758"
             cy="81.07196"
             id="ellipse860"
             style="fill:none;stroke:#000000;stroke-width:2" />
          <path
             sodipodi:nodetypes="csssc"
             id="path862"
             d="M 58.314911,79.968784 C 44.467326,103.97562 43.1255,141.94879 51.066197,141.94879 c 5.488906,0 10.723687,-28.51382 16.551744,-28.51382 5.541251,0 8.334417,28.51382 10.278234,28.51382 h 6.698038"
             style="fill:none;stroke:#000000;stroke-width:2;stroke-linecap:butt;stroke-linejoin:miter;stroke-opacity:1" />
        </g>
        <path
           style="fill:none;stroke:#000000;stroke-width:2;stroke-linecap:butt;stroke-linejoin:miter;stroke-opacity:1"
           d="m 54.439049,87.754753 c 3.380881,10.610098 9.09912,19.005667 13.083785,19.005667 3.984662,0 8.234977,-9.364008 18.237935,-15.652137"
           id="path866"
           sodipodi:nodetypes="csc" />
        <path
           style="fill:none;stroke:#000000;stroke-width:2;stroke-linecap:butt;stroke-linejoin:miter;stroke-opacity:1"
           d="m 93.646254,86.950061 c -4.224142,-1.724097 -7.195485,0.978207 -7.953906,4.127633 -0.398567,1.655094 1.477997,3.417895 4.52476,4.33495"
           id="path868"
           sodipodi:nodetypes="csc" />
      </g>
      <g
         transform="translate(46.479548)"
         id="g882"
         style="stroke-width:2">
        <g
           style="stroke-width:2"
           id="g876">
          <ellipse
             style="fill:none;stroke:#000000;stroke-width:2"
             id="ellipse872"
             cy="81.07196"
             cx="-47.77758"
             rx="12.799957"
             ry="10.282442"
             transform="rotate(-73.580117)" />
          <path
             style="fill:none;stroke:#000000;stroke-width:2;stroke-linecap:butt;stroke-linejoin:miter;stroke-opacity:1"
             d="M 58.314911,79.968784 C 44.467326,103.97562 43.1255,141.94879 51.066197,141.94879 c 5.488906,0 10.723687,-28.51382 16.551744,-28.51382 5.541251,0 8.334417,28.51382 10.278234,28.51382 h 6.698038"
             id="path874"
             sodipodi:nodetypes="csssc" />
        </g>
        <path
           sodipodi:nodetypes="csc"
           id="path878"
           d="m 54.439049,87.754753 c 3.380881,10.610098 9.09912,19.005667 13.083785,19.005667 3.984662,0 8.234977,-9.364008 18.237935,-15.652137"
           style="fill:none;stroke:#000000;stroke-width:2;stroke-linecap:butt;stroke-linejoin:miter;stroke-opacity:1" />
        <path
           sodipodi:nodetypes="csc"
           id="path880"
           d="m 93.646254,86.950061 c -4.224142,-1.724097 -7.195485,0.978207 -7.953906,4.127633 -0.398567,1.655094 1.477997,3.417895 4.52476,4.33495"
           style="fill:none;stroke:#000000;stroke-width:2;stroke-linecap:butt;stroke-linejoin:miter;stroke-opacity:1" />
      </g>
    </g>
    <g
       id="g1219"
       transform="translate(110.39191)">
      <g
         id="g1193"
         style="stroke-width:2"
         transform="translate(-8.7164069)">
        <g
           style="stroke-width:2"
           id="g1187">
          <ellipse
             style="fill:none;stroke:#000000;stroke-width:2"
             id="ellipse1183"
             cy="81.07196"
             cx="-47.77758"
             rx="12.799957"
             ry="10.282442"
             transform="rotate(-73.580117)" />
          <path
             style="fill:none;stroke:#000000;stroke-width:2;stroke-linecap:butt;stroke-linejoin:miter;stroke-opacity:1"
             d="M 58.314911,79.968784 C 44.467326,103.97562 43.1255,141.94879 51.066197,141.94879 c 5.488906,0 10.723687,-28.51382 16.551744,-28.51382 5.541251,0 8.334417,28.51382 10.278234,28.51382 h 6.698038"
             id="path1185"
             sodipodi:nodetypes="csssc" />
        </g>
        <path
           sodipodi:nodetypes="csc"
           id="path1189"
           d="m 54.439049,87.754753 c 3.380881,10.610098 9.09912,19.005667 13.083785,19.005667 3.984662,0 8.234977,-9.364008 18.237935,-15.652137"
           style="fill:none;stroke:#000000;stroke-width:2;stroke-linecap:butt;stroke-linejoin:miter;stroke-opacity:1" />
        <path
           sodipodi:nodetypes="csc"
           id="path1191"
           d="m 93.646254,86.950061 c -4.224142,-1.724097 -7.195485,0.978207 -7.953906,4.127633 -0.398567,1.655094 1.477997,3.417895 4.52476,4.33495"
           style="fill:none;stroke:#000000;stroke-width:2;stroke-linecap:butt;stroke-linejoin:miter;stroke-opacity:1" />
      </g>
      <g
         id="g1205"
         transform="translate(46.479548)"
         style="stroke-width:2">
        <g
           id="g1199"
           style="stroke-width:2">
          <ellipse
             transform="rotate(-73.580117)"
             ry="10.282442"
             rx="12.799957"
             cx="-47.77758"
             cy="81.07196"
             id="ellipse1195"
             style="fill:none;stroke:#000000;stroke-width:2" />
          <path
             sodipodi:nodetypes="csssc"
             id="path1197"
             d="M 58.314911,79.968784 C 44.467326,103.97562 43.1255,141.94879 51.066197,141.94879 c 5.488906,0 10.723687,-28.51382 16.551744,-28.51382 5.541251,0 8.334417,28.51382 10.278234,28.51382 h 6.698038"
             style="fill:none;stroke:#000000;stroke-width:2;stroke-linecap:butt;stroke-linejoin:miter;stroke-opacity:1" />
        </g>
        <path
           style="fill:none;stroke:#000000;stroke-width:2;stroke-linecap:butt;stroke-linejoin:miter;stroke-opacity:1"
           d="m 54.439049,87.754753 c 3.380881,10.610098 9.09912,19.005667 13.083785,19.005667 3.984662,0 8.234977,-9.364008 18.237935,-15.652137"
           id="path1201"
           sodipodi:nodetypes="csc" />
        <path
           style="fill:none;stroke:#000000;stroke-width:2;stroke-linecap:butt;stroke-linejoin:miter;stroke-opacity:1"
           d="m 93.646254,86.950061 c -4.224142,-1.724097 -7.195485,0.978207 -7.953906,4.127633 -0.398567,1.655094 1.477997,3.417895 4.52476,4.33495"
           id="path1203"
           sodipodi:nodetypes="csc" />
      </g>
      <g
         transform="translate(46.479548)"
         id="g1217"
         style="stroke-width:2">
        <g
           style="stroke-width:2"
           id="g1211">
          <ellipse
             style="fill:none;stroke:#000000;stroke-width:2"
             id="ellipse1207"
             cy="81.07196"
             cx="-47.77758"
             rx="12.799957"
             ry="10.282442"
             transform="rotate(-73.580117)" />
          <path
             style="fill:none;stroke:#000000;stroke-width:2;stroke-linecap:butt;stroke-linejoin:miter;stroke-opacity:1"
             d="M 58.314911,79.968784 C 44.467326,103.97562 43.1255,141.94879 51.066197,141.94879 c 5.488906,0 10.723687,-28.51382 16.551744,-28.51382 5.541251,0 8.334417,28.51382 10.278234,28.51382 h 6.698038"
             id="path1209"
             sodipodi:nodetypes="csssc" />
        </g>
        <path
           sodipodi:nodetypes="csc"
           id="path1213"
           d="m 54.439049,87.754753 c 3.380881,10.610098 9.09912,19.005667 13.083785,19.005667 3.984662,0 8.234977,-9.364008 18.237935,-15.652137"
           style="fill:none;stroke:#000000;stroke-width:2;stroke-linecap:butt;stroke-linejoin:miter;stroke-opacity:1" />
        <path
           sodipodi:nodetypes="csc"
           id="path1215"
           d="m 93.646254,86.950061 c -4.224142,-1.724097 -7.195485,0.978207 -7.953906,4.127633 -0.398567,1.655094 1.477997,3.417895 4.52476,4.33495"
           style="fill:none;stroke:#000000;stroke-width:2;stroke-linecap:butt;stroke-linejoin:miter;stroke-opacity:1" />
      </g>
    </g>
  </g>
</svg>
