<?xml version="1.0" encoding="UTF-8" standalone="no"?>
<svg
   xmlns:dc="http://purl.org/dc/elements/1.1/"
   xmlns:cc="http://creativecommons.org/ns#"
   xmlns:rdf="http://www.w3.org/1999/02/22-rdf-syntax-ns#"
   xmlns:svg="http://www.w3.org/2000/svg"
   xmlns="http://www.w3.org/2000/svg"
   xmlns:sodipodi="http://sodipodi.sourceforge.net/DTD/sodipodi-0.dtd"
   xmlns:inkscape="http://www.inkscape.org/namespaces/inkscape"
   width="83.857208mm"
   height="55.688831mm"
   viewBox="0 0 83.857208 55.688831"
   version="1.1"
   id="svg8"
   inkscape:version="1.0 (4035a4fb49, 2020-05-01)"
   sodipodi:docname="alchi-nomination-sorting-hat.svg">
  <defs
     id="defs2" />
  <sodipodi:namedview
     id="base"
     pagecolor="#ffffff"
     bordercolor="#666666"
     borderopacity="1.0"
     inkscape:pageopacity="0.0"
     inkscape:pageshadow="2"
     inkscape:zoom="1.979899"
     inkscape:cx="81.272424"
     inkscape:cy="74.080379"
     inkscape:document-units="mm"
     inkscape:current-layer="layer1"
     inkscape:document-rotation="0"
     showgrid="false"
     lock-margins="true"
     fit-margin-top="2"
     fit-margin-left="2"
     fit-margin-right="2"
     fit-margin-bottom="2"
     inkscape:window-width="1814"
     inkscape:window-height="944"
     inkscape:window-x="0"
     inkscape:window-y="0"
     inkscape:window-maximized="0" />
  <metadata
     id="metadata5">
    <rdf:RDF>
      <cc:Work
         rdf:about="">
        <dc:format>image/svg+xml</dc:format>
        <dc:type
           rdf:resource="http://purl.org/dc/dcmitype/StillImage" />
        <dc:title />
      </cc:Work>
    </rdf:RDF>
  </metadata>
  <g
     inkscape:label="Layer 1"
     inkscape:groupmode="layer"
     id="layer1"
     transform="translate(-99.441289,-125.7368)">
    <path
       style="fill:none;stroke:#000000;stroke-width:0.5;stroke-linecap:butt;stroke-linejoin:miter;stroke-opacity:1"
       d="m 118.27615,155.77035 c 0,0 6.08789,-27.06246 12.63333,-27.06246 5.94479,0 9.10292,27.87276 9.10292,27.87276"
       id="path903"
       sodipodi:nodetypes="csc" />
    <path
       style="fill:none;stroke:#000000;stroke-width:0.5;stroke-linecap:butt;stroke-linejoin:miter;stroke-opacity:1"
       d="m 119.23683,151.69759 c 0,0 -17.04979,2.08277 -17.53587,4.79025 -0.48608,2.70748 16.3781,4.74116 27.0135,4.1592 10.6354,-0.58197 27.61839,0.13407 27.53056,-3.42359 -0.0878,-3.55766 -16.85241,-5.11084 -16.85241,-5.11084"
       id="path905" />
    <path
       style="fill:none;stroke:#000000;stroke-width:1;stroke-linecap:butt;stroke-linejoin:miter;stroke-opacity:1"
       d="m 124.18303,140.53025 4.19901,0.79187"
       id="path907" />
    <path
       style="fill:none;stroke:#000000;stroke-width:1;stroke-linecap:butt;stroke-linejoin:miter;stroke-opacity:1"
       d="m 130.93452,141.25199 4.53253,-0.85402"
       id="path909" />
    <ellipse
       style="fill:none;stroke:#000000;stroke-width:0.75"
       id="path911"
       cx="129.80676"
       cy="149.97791"
       rx="6.9533262"
       ry="3.8695669" />
    <ellipse
       style="fill:none;stroke:#000000;stroke-width:0.75"
       id="path913"
       cx="129.41869"
       cy="151.32559"
       rx="4.3454461"
       ry="2.5444889" />
    <circle
       style="fill:#000000;stroke:none;stroke-width:1"
       id="path917"
       cx="127.31108"
       cy="143.03575"
       r="0.94054568" />
    <circle
       r="0.94054568"
       cy="143.36922"
       cx="132.51837"
       id="circle919"
       style="fill:#000000;stroke:none;stroke-width:1" />
    <path
       style="fill:none;stroke:#000000;stroke-width:0.5;stroke-linecap:butt;stroke-linejoin:miter;stroke-opacity:1"
       d="m 118.33347,160.65555 c 0.15237,8.94242 5.03995,18.52008 10.36039,18.52008 5.332,0 9.92606,-9.1581 11.03019,-18.80492"
       id="path921"
       sodipodi:nodetypes="csc" />
    <path
       style="fill:none;stroke:#000000;stroke-width:0.5;stroke-linecap:butt;stroke-linejoin:miter;stroke-opacity:1"
       d="m 131.85388,163.01537 c 1.72796,0.54206 2.41988,0.27511 3.49716,0.007"
       id="path923"
       sodipodi:nodetypes="cc" />
    <path
       sodipodi:nodetypes="cc"
       style="fill:none;stroke:#000000;stroke-width:0.5;stroke-linecap:butt;stroke-linejoin:miter;stroke-opacity:1"
       d="m 123.04455,162.7774 c 1.84,0.63857 3.07624,0.30299 3.93234,0.10514"
       id="path925" />
    <path
       style="fill:none;stroke:#000000;stroke-width:0.5;stroke-linecap:butt;stroke-linejoin:miter;stroke-opacity:1"
       d="m 127.74872,168.04892 c 0.95271,1.43531 2.3542,0.83331 2.83644,0.0273"
       id="path927"
       sodipodi:nodetypes="cc" />
    <path
       style="fill:none;stroke:#000000;stroke-width:0.5;stroke-linecap:butt;stroke-linejoin:miter;stroke-opacity:1"
       d="m 126.37083,173.66923 c 0.598,0.45941 3.78651,0.44329 5.328,0.005"
       id="path929"
       sodipodi:nodetypes="cc" />
    <text
       xml:space="preserve"
       style="font-style:normal;font-weight:normal;font-size:9.17222px;line-height:1.25;font-family:sans-serif;fill:#000000;fill-opacity:1;stroke:none;stroke-width:0.264583"
       x="152.49785"
       y="141.14291"
       id="text935"><tspan
         sodipodi:role="line"
         id="tspan933"
         x="152.49785"
         y="141.14291"
         style="font-size:9.17222px;stroke-width:0.264583">Feuer</tspan></text>
    <path
       id="path27"
       style="fill:none;stroke:#000000;stroke-width:0.5"
       d="m 181.0485,138.30051 c -1e-5,5.6961 -7.47145,10.3137 -16.68793,10.3137 -5.5038,0 -10.38529,-1.64668 -13.42501,-4.18637 l -8.22148,2.17194 5.5032,-5.67587 c -0.3554,-0.83764 -0.54465,-1.71686 -0.54465,-2.6234 -1e-5,-5.69611 7.47145,-10.31371 16.68794,-10.31371 9.21649,0 16.68793,4.61761 16.68793,10.31371 z"
       sodipodi:nodetypes="sscccsss" />
  </g>
</svg>
