<?xml version="1.0" encoding="UTF-8" standalone="no"?>

<!-- taken from milahu/alchi deutsch/alchi-flyer.html -->

<svg id="exchange" xmlns="http://www.w3.org/2000/svg" xmlns:xlink="http://www.w3.org/1999/xlink"
  x="0" y="0" viewBox="-16 -20 208 143">

			<defs>
				<marker id="arrowhead" markerWidth="10" markerHeight="10" refX="0" refY="3" orient="auto" markerUnits="strokeWidth">
					<path d="M0,0 L0,6 L9,3 z" fill="black"></path>
				</marker>
				<marker id="arrowhead-back" markerWidth="10" markerHeight="10" refX="10" refY="3" orient="auto" markerUnits="strokeWidth">
					<path d="M10,0 L10,6 L1,3 z" fill="black"></path>
				</marker>
			</defs>

			<g transform="
					translate(104 84)
					rotate(90)
					translate(-104 -84)
					translate(-30 0 )
				" font-size="14.190000000000001" font-family="sans-serif" text-anchor="middle" dominant-baseline="mathematical" stroke-width="1" fill="none" stroke="black">
			<style>
				.rotateBack text {
					transform:  rotate(-90deg);
					transform-box: fill-box;
				}
			</style>
		
			<rect x="43" y="-3" width="114" height="78" stroke-dasharray="1 2"></rect>
			<rect x="61" y="89" width="78" height="114" stroke-dasharray="1 2"></rect>
		
			<path transform="translate(118,0)" d="
				M 18 -4.440892098500626e-16
				l -3.6 3.6
				h -10.8
				v 10.8
				l 3.6 3.6
				l -3.6 3.6
				v 10.8
				h 10.8
				l 3.6 3.6
				l 3.6 -3.6
				h 10.8
				v -10.8
				l -3.6 -3.6
				l 3.6 -3.6
				v -10.8
				h -10.8
				z
			"></path>
			<path transform="translate(46,0)" d="
				M 18 7.199999999999999
				l -3.6 -3.6
				h -10.8
				v 10.8
				l -3.6 3.6
				l 3.6 3.6
				v 10.8
				h 10.8
				l 3.6 -3.6
				l 3.6 3.6
				h 10.8
				v -10.8
				l 3.6 -3.6
				l -3.6 -3.6
				v -10.8
				h -10.8
				z
			"></path>
			<path transform="translate(46,36)" d="
				M 18 -4.440892098500626e-16
				l -3.6 3.6
				h -10.8
				v 10.8
				l 3.6 3.6
				l -3.6 3.6
				v 10.8
				h 10.8
				l 3.6 3.6
				l 3.6 -3.6
				h 10.8
				v -10.8
				l -3.6 -3.6
				l 3.6 -3.6
				v -10.8
				h -10.8
				z
			"></path>
			<path transform="translate(118,36)" d="
				M 18 7.199999999999999
				l -3.6 -3.6
				h -10.8
				v 10.8
				l -3.6 3.6
				l 3.6 3.6
				v 10.8
				h 10.8
				l 3.6 -3.6
				l 3.6 3.6
				h 10.8
				v -10.8
				l 3.6 -3.6
				l -3.6 -3.6
				v -10.8
				h -10.8
				z
			"></path>

			<path transform="translate(100,92)" d="
				M 18 -4.440892098500626e-16
				l -3.6 3.6
				h -10.8
				v 10.8
				l 3.6 3.6
				l -3.6 3.6
				v 10.8
				h 10.8
				l 3.6 3.6
				l 3.6 -3.6
				h 10.8
				v -10.8
				l -3.6 -3.6
				l 3.6 -3.6
				v -10.8
				h -10.8
				z
			"></path>
			<path transform="translate(64,92)" d="
				M 18 7.199999999999999
				l -3.6 -3.6
				h -10.8
				v 10.8
				l -3.6 3.6
				l 3.6 3.6
				v 10.8
				h 10.8
				l 3.6 -3.6
				l 3.6 3.6
				h 10.8
				v -10.8
				l 3.6 -3.6
				l -3.6 -3.6
				v -10.8
				h -10.8
				z
			"></path>
			<path transform="translate(64,164)" d="
				M 18 -4.440892098500626e-16
				l -3.6 3.6
				h -10.8
				v 10.8
				l 3.6 3.6
				l -3.6 3.6
				v 10.8
				h 10.8
				l 3.6 3.6
				l 3.6 -3.6
				h 10.8
				v -10.8
				l -3.6 -3.6
				l 3.6 -3.6
				v -10.8
				h -10.8
				z
			"></path>
			<path transform="translate(100,164)" d="
				M 18 7.199999999999999
				l -3.6 -3.6
				h -10.8
				v 10.8
				l -3.6 3.6
				l 3.6 3.6
				v 10.8
				h 10.8
				l 3.6 -3.6
				l 3.6 3.6
				h 10.8
				v -10.8
				l 3.6 -3.6
				l -3.6 -3.6
				v -10.8
				h -10.8
				z
			"></path>
		
			<g stroke="none" class="rotateBack" transform="translate(-4, 14)">
				<text fill="black" y="18" x="64">C</text>
				<text fill="black" y="18" x="136">A</text>
				<text fill="black" y="54" x="136">D</text>
				<text fill="black" y="54" x="64">B</text>
				
				<text fill="black" y="110" x="118">A</text>
				<text fill="black" y="110" x="82">C</text>
				<text fill="black" y="182" x="82">B</text>
				<text fill="black" y="182" x="118">D</text>
			</g>
		<path d="
			M 161 37
			A 100 100 0 0 1 150 141
			" marker-end="url(#arrowhead)"></path><path d="
			M 37 47
			A 100 100 0 0 0 55 146
			" marker-start="url(#arrowhead-back)"></path></g></svg>
