<?xml version="1.0" encoding="UTF-8" standalone="no"?>
<svg
   xmlns:dc="http://purl.org/dc/elements/1.1/"
   xmlns:cc="http://creativecommons.org/ns#"
   xmlns:rdf="http://www.w3.org/1999/02/22-rdf-syntax-ns#"
   xmlns:svg="http://www.w3.org/2000/svg"
   xmlns="http://www.w3.org/2000/svg"
   xmlns:sodipodi="http://sodipodi.sourceforge.net/DTD/sodipodi-0.dtd"
   xmlns:inkscape="http://www.inkscape.org/namespaces/inkscape"
   sodipodi:docname="alchi-scratch-my-back-and-i-scratch-yours-blue-yellow.svg"
   inkscape:version="1.0 (4035a4fb49, 2020-05-01)"
   id="svg8"
   version="1.1"
   viewBox="0 0 224.41467 97.826538"
   height="97.826538mm"
   width="224.41467mm">
  <defs
     id="defs2" />
  <sodipodi:namedview
     inkscape:window-maximized="0"
     inkscape:window-y="0"
     inkscape:window-x="0"
     inkscape:window-height="944"
     inkscape:window-width="1814"
     fit-margin-bottom="5"
     fit-margin-right="5"
     fit-margin-left="5"
     lock-margins="true"
     fit-margin-top="5"
     inkscape:snap-global="true"
     inkscape:snap-text-baseline="true"
     inkscape:snap-center="true"
     inkscape:snap-object-midpoints="true"
     inkscape:snap-midpoints="true"
     inkscape:snap-smooth-nodes="true"
     inkscape:snap-intersection-paths="true"
     inkscape:object-paths="true"
     inkscape:snap-bbox-edge-midpoints="true"
     inkscape:snap-bbox-midpoints="true"
     inkscape:bbox-nodes="true"
     inkscape:bbox-paths="true"
     inkscape:snap-bbox="true"
     inkscape:guide-bbox="true"
     showguides="true"
     showgrid="false"
     inkscape:document-rotation="0"
     inkscape:current-layer="layer1"
     inkscape:document-units="mm"
     inkscape:cy="116.26766"
     inkscape:cx="22.142303"
     inkscape:zoom="0.7"
     inkscape:pageshadow="2"
     inkscape:pageopacity="0.0"
     borderopacity="1.0"
     bordercolor="#666666"
     pagecolor="#ffffff"
     id="base">
    <sodipodi:guide
       id="guide837"
       orientation="0,-1"
       position="59.003551,5.9999975" />
  </sodipodi:namedview>
  <metadata
     id="metadata5">
    <rdf:RDF>
      <cc:Work
         rdf:about="">
        <dc:format>image/svg+xml</dc:format>
        <dc:type
           rdf:resource="http://purl.org/dc/dcmitype/StillImage" />
        <dc:title></dc:title>
      </cc:Work>
    </rdf:RDF>
  </metadata>
  <g
     transform="translate(-31.480932,-50.12225)"
     id="layer1"
     inkscape:groupmode="layer"
     inkscape:label="Layer 1">
    <ellipse
       transform="rotate(-73.580117)"
       ry="10.282442"
       rx="12.799957"
       cx="-50.241486"
       cy="72.711044"
       id="path833"
       style="fill:#000000;stroke:#000000;stroke-width:2" />
    <path
       sodipodi:nodetypes="csssc"
       id="path835"
       d="M 49.598504,79.968784 C 35.750919,103.97562 34.409093,141.94879 42.34979,141.94879 c 5.488906,0 10.723687,-28.51382 16.551744,-28.51382 5.541251,0 8.334417,28.51382 10.278234,28.51382 h 6.698038"
       style="fill:none;stroke:#000000;stroke-width:2;stroke-linecap:butt;stroke-linejoin:miter;stroke-opacity:1" />
    <path
       sodipodi:nodetypes="csc"
       id="path849"
       d="m 45.722642,87.754753 c 3.380881,10.610098 9.09912,19.005667 13.083785,19.005667 3.984662,0 8.234977,-9.364008 18.237935,-15.652137"
       style="fill:none;stroke:#000000;stroke-width:2;stroke-linecap:butt;stroke-linejoin:miter;stroke-opacity:1" />
    <path
       sodipodi:nodetypes="csc"
       id="path851"
       d="m 84.929847,86.950061 c -4.224142,-1.724097 -7.195485,0.978207 -7.953906,4.127633 -0.398567,1.655094 1.477997,3.417895 4.52476,4.33495"
       style="fill:none;stroke:#000000;stroke-width:2;stroke-linecap:butt;stroke-linejoin:miter;stroke-opacity:1" />
    <ellipse
       style="fill:none;stroke:#000000;stroke-width:2"
       id="ellipse860"
       cy="125.65588"
       cx="-34.639004"
       rx="12.799957"
       ry="10.282442"
       transform="rotate(-73.580117)" />
    <path
       style="fill:none;stroke:#000000;stroke-width:2;stroke-linecap:butt;stroke-linejoin:miter;stroke-opacity:1"
       d="m 104.79446,79.968784 c -13.847586,24.006836 -15.189412,61.980006 -7.248715,61.980006 5.488905,0 10.723685,-28.51382 16.551745,-28.51382 5.54125,0 8.33442,28.51382 10.27823,28.51382 h 6.69804"
       id="path862"
       sodipodi:nodetypes="csssc" />
    <path
       style="fill:none;stroke:#000000;stroke-width:2;stroke-linecap:butt;stroke-linejoin:miter;stroke-opacity:1"
       d="m 100.9186,87.754753 c 3.38088,10.610098 9.09912,19.005667 13.08378,19.005667 3.98466,0 8.23498,-9.364008 18.23794,-15.652137"
       id="path866"
       sodipodi:nodetypes="csc" />
    <path
       style="fill:none;stroke:#000000;stroke-width:2;stroke-linecap:butt;stroke-linejoin:miter;stroke-opacity:1"
       d="m 140.1258,86.950061 c -4.22414,-1.724097 -7.19548,0.978207 -7.9539,4.127633 -0.39857,1.655094 1.47799,3.417895 4.52476,4.33495"
       id="path868"
       sodipodi:nodetypes="csc" />
    <ellipse
       transform="rotate(-73.580117)"
       ry="10.282442"
       rx="12.799957"
       cx="-34.639004"
       cy="125.65588"
       id="ellipse872"
       style="fill:#ffffff;stroke:#000000;stroke-width:2" />
    <path
       sodipodi:nodetypes="csssc"
       id="path874"
       d="m 104.79446,79.968784 c -13.847586,24.006836 -15.189412,61.980006 -7.248715,61.980006 5.488905,0 10.723685,-28.51382 16.551745,-28.51382 5.54125,0 8.33442,28.51382 10.27823,28.51382 h 6.69804"
       style="fill:none;stroke:#000000;stroke-width:2;stroke-linecap:butt;stroke-linejoin:miter;stroke-opacity:1" />
    <path
       sodipodi:nodetypes="csc"
       id="path878"
       d="m 100.9186,87.754753 c 3.38088,10.610098 9.09912,19.005667 13.08378,19.005667 3.98466,0 8.23498,-9.364008 18.23794,-15.652137"
       style="fill:none;stroke:#000000;stroke-width:2;stroke-linecap:butt;stroke-linejoin:miter;stroke-opacity:1" />
    <path
       sodipodi:nodetypes="csc"
       id="path880"
       d="m 140.1258,86.950061 c -4.22414,-1.724097 -7.19548,0.978207 -7.9539,4.127633 -0.39857,1.655094 1.47799,3.417895 4.52476,4.33495"
       style="fill:none;stroke:#000000;stroke-width:2;stroke-linecap:butt;stroke-linejoin:miter;stroke-opacity:1" />
    <ellipse
       transform="rotate(-73.580117)"
       ry="10.282442"
       rx="12.799957"
       cx="-19.036526"
       cy="178.60072"
       id="ellipse1183"
       style="fill:#000000;stroke:#000000;stroke-width:2" />
    <path
       sodipodi:nodetypes="csssc"
       id="path1185"
       d="m 159.99041,79.968784 c -13.84758,24.006836 -15.18941,61.980006 -7.24871,61.980006 5.4889,0 10.72368,-28.51382 16.55174,-28.51382 5.54125,0 8.33442,28.51382 10.27823,28.51382 h 6.69804"
       style="fill:none;stroke:#000000;stroke-width:2;stroke-linecap:butt;stroke-linejoin:miter;stroke-opacity:1" />
    <path
       sodipodi:nodetypes="csc"
       id="path1189"
       d="m 156.11455,87.754753 c 3.38088,10.610098 9.09912,19.005667 13.08378,19.005667 3.98467,0 8.23498,-9.364008 18.23794,-15.652137"
       style="fill:none;stroke:#000000;stroke-width:2;stroke-linecap:butt;stroke-linejoin:miter;stroke-opacity:1" />
    <path
       sodipodi:nodetypes="csc"
       id="path1191"
       d="m 195.32175,86.950061 c -4.22414,-1.724097 -7.19548,0.978207 -7.9539,4.127633 -0.39857,1.655094 1.47799,3.417895 4.52476,4.33495"
       style="fill:none;stroke:#000000;stroke-width:2;stroke-linecap:butt;stroke-linejoin:miter;stroke-opacity:1" />
    <ellipse
       style="fill:none;stroke:#000000;stroke-width:2"
       id="ellipse1195"
       cy="231.54556"
       cx="-3.4340439"
       rx="12.799957"
       ry="10.282442"
       transform="rotate(-73.580117)" />
    <path
       style="fill:none;stroke:#000000;stroke-width:2;stroke-linecap:butt;stroke-linejoin:miter;stroke-opacity:1"
       d="m 215.18637,79.968784 c -13.84758,24.006836 -15.18941,61.980006 -7.24871,61.980006 5.4889,0 10.72368,-28.51382 16.55174,-28.51382 5.54125,0 8.33442,28.51382 10.27824,28.51382 h 6.69803"
       id="path1197"
       sodipodi:nodetypes="csssc" />
    <path
       style="fill:none;stroke:#000000;stroke-width:2;stroke-linecap:butt;stroke-linejoin:miter;stroke-opacity:1"
       d="m 211.31051,87.754753 c 3.38088,10.610098 9.09912,19.005667 13.08378,19.005667 3.98467,0 8.23498,-9.364008 18.23794,-15.652137"
       id="path1201"
       sodipodi:nodetypes="csc" />
    <path
       style="fill:none;stroke:#000000;stroke-width:2;stroke-linecap:butt;stroke-linejoin:miter;stroke-opacity:1"
       d="m 250.51771,86.950061 c -4.22414,-1.724097 -7.19548,0.978207 -7.9539,4.127633 -0.39857,1.655094 1.47799,3.417895 4.52476,4.33495"
       id="path1203"
       sodipodi:nodetypes="csc" />
    <ellipse
       transform="rotate(-73.580117)"
       ry="10.282442"
       rx="12.799957"
       cx="-3.4340439"
       cy="231.54556"
       id="ellipse1207"
       style="fill:#ffffff;stroke:#000000;stroke-width:2" />
    <path
       sodipodi:nodetypes="csssc"
       id="path1209"
       d="m 215.18637,79.968784 c -13.84758,24.006836 -15.18941,61.980006 -7.24871,61.980006 5.4889,0 10.72368,-28.51382 16.55174,-28.51382 5.54125,0 8.33442,28.51382 10.27824,28.51382 h 6.69803"
       style="fill:none;stroke:#000000;stroke-width:2;stroke-linecap:butt;stroke-linejoin:miter;stroke-opacity:1" />
    <path
       sodipodi:nodetypes="csc"
       id="path1213"
       d="m 211.31051,87.754753 c 3.38088,10.610098 9.09912,19.005667 13.08378,19.005667 3.98467,0 8.23498,-9.364008 18.23794,-15.652137"
       style="fill:none;stroke:#000000;stroke-width:2;stroke-linecap:butt;stroke-linejoin:miter;stroke-opacity:1" />
    <path
       sodipodi:nodetypes="csc"
       id="path1215"
       d="m 250.51771,86.950061 c -4.22414,-1.724097 -7.19548,0.978207 -7.9539,4.127633 -0.39857,1.655094 1.47799,3.417895 4.52476,4.33495"
       style="fill:none;stroke:#000000;stroke-width:2;stroke-linecap:butt;stroke-linejoin:miter;stroke-opacity:1" />
  </g>
</svg>
