<?xml version="1.0" encoding="UTF-8" standalone="no"?>
<svg
   xmlns:dc="http://purl.org/dc/elements/1.1/"
   xmlns:cc="http://creativecommons.org/ns#"
   xmlns:rdf="http://www.w3.org/1999/02/22-rdf-syntax-ns#"
   xmlns:svg="http://www.w3.org/2000/svg"
   xmlns="http://www.w3.org/2000/svg"
   xmlns:sodipodi="http://sodipodi.sourceforge.net/DTD/sodipodi-0.dtd"
   xmlns:inkscape="http://www.inkscape.org/namespaces/inkscape"
   width="203.10141mm"
   height="85.197693mm"
   viewBox="0 0 203.10141 85.197693"
   version="1.1"
   id="svg1227"
   inkscape:version="1.0 (4035a4fb49, 2020-05-01)"
   sodipodi:docname="alchi-lust-and-fear-prophet-vs-scared-crowd.svg">
  <defs
     id="defs1221" />
  <sodipodi:namedview
     inkscape:snap-object-midpoints="true"
     inkscape:snap-midpoints="true"
     inkscape:snap-smooth-nodes="true"
     inkscape:snap-intersection-paths="true"
     inkscape:object-paths="true"
     inkscape:snap-bbox-midpoints="true"
     inkscape:snap-bbox-edge-midpoints="true"
     inkscape:bbox-nodes="true"
     inkscape:bbox-paths="true"
     inkscape:snap-bbox="true"
     id="base"
     pagecolor="#ffffff"
     bordercolor="#666666"
     borderopacity="1.0"
     inkscape:pageopacity="0.0"
     inkscape:pageshadow="2"
     inkscape:zoom="0.98994949"
     inkscape:cx="454.24013"
     inkscape:cy="156.57891"
     inkscape:document-units="mm"
     inkscape:current-layer="layer1"
     inkscape:document-rotation="0"
     showgrid="false"
     showguides="true"
     inkscape:guide-bbox="true"
     fit-margin-top="5"
     lock-margins="true"
     fit-margin-left="5"
     fit-margin-right="5"
     fit-margin-bottom="5"
     inkscape:window-width="1814"
     inkscape:window-height="944"
     inkscape:window-x="67"
     inkscape:window-y="0"
     inkscape:window-maximized="0">
    <sodipodi:guide
       position="26.186014,7.0823561"
       orientation="0,-1"
       id="guide1800" />
    <sodipodi:guide
       position="26.152231,11.102347"
       orientation="0,-1"
       id="guide1802" />
    <sodipodi:guide
       id="guide908"
       orientation="0,-1"
       position="130.01279,76.130978" />
    <sodipodi:guide
       id="guide910"
       orientation="0,-1"
       position="130.01279,53.049186" />
    <sodipodi:guide
       id="guide912"
       orientation="0,-1"
       position="130.01279,64.590082" />
  </sodipodi:namedview>
  <metadata
     id="metadata1224">
    <rdf:RDF>
      <cc:Work
         rdf:about="">
        <dc:format>image/svg+xml</dc:format>
        <dc:type
           rdf:resource="http://purl.org/dc/dcmitype/StillImage" />
        <dc:title></dc:title>
      </cc:Work>
    </rdf:RDF>
  </metadata>
  <g
     inkscape:label="Layer 1"
     inkscape:groupmode="layer"
     id="layer1"
     transform="translate(-34.473177,-115.79623)">
    <g
       id="g1079">
      <circle
         cy="136.40384"
         cx="53.06826"
         id="path1790"
         style="fill:none;stroke:#000000;stroke-width:1.5"
         r="11.540895" />
      <path
         id="path1794"
         d="m 51.707524,147.8595 c -0.732145,8.91107 -1.053566,30.48584 -1.053566,30.48584"
         style="fill:none;stroke:#000000;stroke-width:1.5;stroke-linecap:butt;stroke-linejoin:miter;stroke-opacity:1" />
      <path
         sodipodi:nodetypes="csc"
         id="path1796"
         d="m 40.173897,168.55167 c 1.40454,-3.68089 4.396967,-10.48447 10.883842,-10.48447 7.96106,0 17.274826,-1.92928 22.100868,-8.09699"
         style="fill:none;stroke:#000000;stroke-width:1.5;stroke-linecap:butt;stroke-linejoin:miter;stroke-opacity:1" />
      <path
         sodipodi:nodetypes="csc"
         id="path1798"
         d="m 45.483986,195.96478 c 0,-3.9976 0.462841,-17.61944 5.169972,-17.61944 4.671424,0 5.3995,13.59945 5.3995,17.61944"
         style="fill:none;stroke:#000000;stroke-width:1.5;stroke-linecap:butt;stroke-linejoin:miter;stroke-opacity:1" />
      <rect
         y="121.54623"
         x="73.158607"
         height="28.423977"
         width="19.784252"
         id="rect1804"
         style="fill:none;stroke:#000000;stroke-width:1.5" />
      <g
         transform="translate(-17.183316,4.4033243)"
         id="g1817"
         style="stroke-width:1.5">
        <rect
           style="fill:none;stroke:#000000;stroke-width:1.5"
           id="rect1806"
           width="7.7932501"
           height="7.7932501"
           x="-22.422224"
           y="156.53062"
           transform="rotate(-45)" />
        <path
           style="fill:none;stroke:#000000;stroke-width:1.5;stroke-linecap:butt;stroke-linejoin:miter;stroke-opacity:1"
           d="m 100.33961,132.04943 v 11.02131"
           id="path1810" />
        <path
           style="fill:none;stroke:#000000;stroke-width:1.5;stroke-linecap:butt;stroke-linejoin:miter;stroke-opacity:1"
           d="m 94.828954,137.56009 11.021316,-1e-5"
           id="path1812" />
      </g>
      <path
         sodipodi:nodetypes="cc"
         id="path1986"
         d="m 61.00688,143.75193 c -3.756765,-2.37132 -8.227188,-0.57996 -8.227188,-0.57996"
         style="fill:none;stroke:#000000;stroke-width:1;stroke-linecap:butt;stroke-linejoin:miter;stroke-opacity:1" />
      <circle
         style="fill:#000000;stroke:none;stroke-width:1.81706"
         id="circle914"
         cx="57.711521"
         cy="133.84273"
         r="1.1499019" />
      <path
         sodipodi:nodetypes="cc"
         id="path916"
         d="m 58.940623,129.67264 -7.12978,1.7981"
         style="fill:none;stroke:#000000;stroke-width:1;stroke-linecap:butt;stroke-linejoin:miter;stroke-opacity:1" />
    </g>
    <g
       id="g993">
      <path
         sodipodi:nodetypes="cc"
         style="fill:none;stroke:#000000;stroke-width:1.5;stroke-linecap:butt;stroke-linejoin:miter;stroke-opacity:1"
         d="m 137.99711,148.26574 c -4.39316,9.16213 -7.05597,16.81362 -13.09092,30.0796"
         id="path1943" />
      <path
         style="fill:none;stroke:#000000;stroke-width:1.5;stroke-linecap:butt;stroke-linejoin:miter;stroke-opacity:1"
         d="m 125.27666,141.97138 c -1.29207,6.11961 4.03472,15.22875 10.47475,16.09582 6.40215,0.86197 14.15546,-1.88316 16.76778,-9.29338"
         id="path1945"
         sodipodi:nodetypes="csc" />
      <path
         style="fill:none;stroke:#000000;stroke-width:1.5;stroke-linecap:butt;stroke-linejoin:miter;stroke-opacity:1"
         d="m 114.28932,195.96478 c 0.37124,-9.5488 5.45267,-15.90243 10.62983,-17.61944 12.5561,-4.16424 13.66614,4.40156 13.91591,12.02063"
         id="path1947"
         sodipodi:nodetypes="csc" />
      <path
         id="path1951"
         d="M 128.58001,161.12595 H 118.7236"
         style="fill:none;stroke:#000000;stroke-width:1;stroke-linecap:butt;stroke-linejoin:miter;stroke-opacity:1" />
      <path
         style="fill:none;stroke:#000000;stroke-width:1;stroke-linecap:butt;stroke-linejoin:miter;stroke-opacity:1"
         d="m 125.95346,166.04087 h -9.85641"
         id="path1953" />
      <path
         id="path1955"
         d="m 123.28827,170.86904 h -9.85641"
         style="fill:none;stroke:#000000;stroke-width:1;stroke-linecap:butt;stroke-linejoin:miter;stroke-opacity:1" />
      <circle
         r="2.0214205"
         cy="134.3853"
         cx="149.79631"
         id="path1961"
         style="fill:#000000;stroke:none;stroke-width:3.19422" />
      <path
         sodipodi:nodetypes="cssscc"
         id="path1979"
         d="m 153.9749,142.41812 c 2.87018,-4.97132 1.82896,-11.27782 -2.48689,-15.06271 -4.31583,-3.78488 -10.70428,-3.99401 -15.25842,-0.4995 -4.55415,3.49453 -6.00559,9.71943 -3.46669,14.86781 2.53891,5.14839 8.36104,7.78636 13.90581,6.30063 -7.7571,-3.97224 -2.57225,-11.96014 7.30619,-5.60623 z"
         style="fill:none;stroke:#000000;stroke-width:1.5;stroke-linecap:butt;stroke-linejoin:miter;stroke-opacity:1" />
      <path
         style="fill:none;stroke:#000000;stroke-width:1;stroke-linecap:butt;stroke-linejoin:miter;stroke-opacity:1"
         d="m 150.23811,129.15272 -7.12978,1.7981"
         id="path1990"
         sodipodi:nodetypes="cc" />
    </g>
    <g
       transform="translate(38.119524)"
       id="g1013">
      <path
         id="path995"
         d="m 137.99711,148.26574 c -4.39316,9.16213 -7.05597,16.81362 -13.09092,30.0796"
         style="fill:none;stroke:#000000;stroke-width:1.5;stroke-linecap:butt;stroke-linejoin:miter;stroke-opacity:1"
         sodipodi:nodetypes="cc" />
      <path
         sodipodi:nodetypes="csc"
         id="path997"
         d="m 125.27666,141.97138 c -1.29207,6.11961 4.03472,15.22875 10.47475,16.09582 6.40215,0.86197 14.15546,-1.88316 16.76778,-9.29338"
         style="fill:none;stroke:#000000;stroke-width:1.5;stroke-linecap:butt;stroke-linejoin:miter;stroke-opacity:1" />
      <path
         sodipodi:nodetypes="csc"
         id="path999"
         d="m 114.28932,195.96478 c 0.37124,-9.5488 5.45267,-15.90243 10.62983,-17.61944 12.5561,-4.16424 13.66614,4.40156 13.91591,12.02063"
         style="fill:none;stroke:#000000;stroke-width:1.5;stroke-linecap:butt;stroke-linejoin:miter;stroke-opacity:1" />
      <path
         style="fill:none;stroke:#000000;stroke-width:1;stroke-linecap:butt;stroke-linejoin:miter;stroke-opacity:1"
         d="M 128.58001,161.12595 H 118.7236"
         id="path1001" />
      <path
         id="path1003"
         d="m 125.95346,166.04087 h -9.85641"
         style="fill:none;stroke:#000000;stroke-width:1;stroke-linecap:butt;stroke-linejoin:miter;stroke-opacity:1" />
      <path
         style="fill:none;stroke:#000000;stroke-width:1;stroke-linecap:butt;stroke-linejoin:miter;stroke-opacity:1"
         d="m 123.28827,170.86904 h -9.85641"
         id="path1005" />
      <circle
         style="fill:#000000;stroke:none;stroke-width:3.19422"
         id="circle1007"
         cx="149.79631"
         cy="134.3853"
         r="2.0214205" />
      <path
         style="fill:none;stroke:#000000;stroke-width:1.5;stroke-linecap:butt;stroke-linejoin:miter;stroke-opacity:1"
         d="m 153.9749,142.41812 c 2.87018,-4.97132 1.82896,-11.27782 -2.48689,-15.06271 -4.31583,-3.78488 -10.70428,-3.99401 -15.25842,-0.4995 -4.55415,3.49453 -6.00559,9.71943 -3.46669,14.86781 2.53891,5.14839 8.36104,7.78636 13.90581,6.30063 -7.7571,-3.97224 -2.57225,-11.96014 7.30619,-5.60623 z"
         id="path1009"
         sodipodi:nodetypes="cssscc" />
      <path
         sodipodi:nodetypes="cc"
         id="path1011"
         d="m 150.23811,129.15272 -7.12978,1.7981"
         style="fill:none;stroke:#000000;stroke-width:1;stroke-linecap:butt;stroke-linejoin:miter;stroke-opacity:1" />
    </g>
    <g
       id="g1119"
       transform="translate(76.239048)">
      <path
         sodipodi:nodetypes="cc"
         style="fill:none;stroke:#000000;stroke-width:1.5;stroke-linecap:butt;stroke-linejoin:miter;stroke-opacity:1"
         d="m 137.99711,148.26574 c -4.39316,9.16213 -7.05597,16.81362 -13.09092,30.0796"
         id="path1101" />
      <path
         style="fill:none;stroke:#000000;stroke-width:1.5;stroke-linecap:butt;stroke-linejoin:miter;stroke-opacity:1"
         d="m 125.27666,141.97138 c -1.29207,6.11961 4.03472,15.22875 10.47475,16.09582 6.40215,0.86197 14.15546,-1.88316 16.76778,-9.29338"
         id="path1103"
         sodipodi:nodetypes="csc" />
      <path
         style="fill:none;stroke:#000000;stroke-width:1.5;stroke-linecap:butt;stroke-linejoin:miter;stroke-opacity:1"
         d="m 114.28932,195.96478 c 0.37124,-9.5488 5.45267,-15.90243 10.62983,-17.61944 12.5561,-4.16424 13.66614,4.40156 13.91591,12.02063"
         id="path1105"
         sodipodi:nodetypes="csc" />
      <path
         id="path1107"
         d="M 128.58001,161.12595 H 118.7236"
         style="fill:none;stroke:#000000;stroke-width:1;stroke-linecap:butt;stroke-linejoin:miter;stroke-opacity:1" />
      <path
         style="fill:none;stroke:#000000;stroke-width:1;stroke-linecap:butt;stroke-linejoin:miter;stroke-opacity:1"
         d="m 125.95346,166.04087 h -9.85641"
         id="path1109" />
      <path
         id="path1111"
         d="m 123.28827,170.86904 h -9.85641"
         style="fill:none;stroke:#000000;stroke-width:1;stroke-linecap:butt;stroke-linejoin:miter;stroke-opacity:1" />
      <circle
         r="2.0214205"
         cy="134.3853"
         cx="149.79631"
         id="circle1113"
         style="fill:#000000;stroke:none;stroke-width:3.19422" />
      <path
         sodipodi:nodetypes="cssscc"
         id="path1115"
         d="m 153.9749,142.41812 c 2.87018,-4.97132 1.82896,-11.27782 -2.48689,-15.06271 -4.31583,-3.78488 -10.70428,-3.99401 -15.25842,-0.4995 -4.55415,3.49453 -6.00559,9.71943 -3.46669,14.86781 2.53891,5.14839 8.36104,7.78636 13.90581,6.30063 -7.7571,-3.97224 -2.57225,-11.96014 7.30619,-5.60623 z"
         style="fill:none;stroke:#000000;stroke-width:1.5;stroke-linecap:butt;stroke-linejoin:miter;stroke-opacity:1" />
      <path
         style="fill:none;stroke:#000000;stroke-width:1;stroke-linecap:butt;stroke-linejoin:miter;stroke-opacity:1"
         d="m 150.23811,129.15272 -7.12978,1.7981"
         id="path1117"
         sodipodi:nodetypes="cc" />
    </g>
  </g>
</svg>
