<svg width="817.88" height="753.45" viewBox="0 0 215.27 194.7" xmlns="http://www.w3.org/2000/svg" xmlns:cc="http://creativecommons.org/ns#" xmlns:dc="http://purl.org/dc/elements/1.1/" xmlns:rdf="http://www.w3.org/1999/02/22-rdf-syntax-ns#">
  <title>animal traps comic</title>
  <desc>
    why would a fly ever land on something that looks like that?
    mice should be ashamed of getting caught off guard by something so obvious.
    come on bears, how can you possibly let yourself get stuck in this?
  </desc>
  <metadata>
    <rdf:RDF>
    <cc:Work>
      <dc:creator>
      <cc:Agent>
        <dc:title>Alex Culang and Raynato Castro</dc:title>
      </cc:Agent>
      </dc:creator>
      <dc:date>2011-01-27</dc:date>
      <dc:rights>
      <cc:Agent>
        <dc:title>© 2011 Alex Culang and Raynato Castro</dc:title>
      </cc:Agent>
      </dc:rights>
      <dc:source>https://www.buttersafe.com/2011/01/27/traps/</dc:source>
      <dc:title>animal traps comic</dc:title>
    </cc:Work>
    </rdf:RDF>
  </metadata>
  <path fill="#fff" d="M0-1.7757h215.27v198.31H0z"/>
  <g stroke-width=".2632">
    <path d="M29.22 57.265c-.9383-.4086-1.9518-1.5889-1.9518-2.2733 0-1.0784 3.0881-3.4142 4.0396-3.0557.1692.0638.0705.2067-.223.3232-1.0666.4231-2.4992 1.4484-2.919 2.0889-.4012.6123-.4002.7071.0138 1.339.6319.9643 1.9505 1.4279 4.0153 1.4114 2.149-.0173 3.8974-.6352 4.6479-1.6428.503-.6753.5158-.7934.156-1.4345-.5462-.9732-1.7561-1.6117-3.7155-1.961-1.4375-.2562-1.5721-.3254-.959-.4925 1.381-.3764 3.9798.5602 4.9393 1.78 1.0923 1.3886.3288 2.9545-1.8934 3.8827-1.224.5113-5.0068.5326-6.1505.0347zM89.76 9.3324c.006-.5607.9314-2.7565 1.1614-2.7565.2341 0 1.5111 2.6738 1.3527 2.8322-.0812.0812-.365-.049-.6306-.2894-.6466-.5851-.9901-.5508-1.4794.1479-.385.5497-.4094.5537-.404.0658zm-4.85-.014c-.0879-.229-.1598-.7523-.1598-1.1629 0-1.0952.2544-1.5793.8298-1.5793.6093 0 1.8024 1.1246 1.8024 1.6989 0 1.0896-2.1125 1.981-2.4724 1.0433zm1.6473-.5639c.3379-.6039-.0936-1.3887-.7635-1.3887-.3924 0-.5172.18-.5172.7458 0 1.1543.7764 1.5441 1.2807.6429zm-4.2373.1639c-.1462-.9961.0382-2.0788.354-2.0788.1279 0 .2325.4849.2325 1.0775 0 .8561.1082 1.1058.5264 1.2152.7879.206.6344.6027-.2333.6027-.6485 0-.7773-.1196-.8796-.8165zm-6.08.335c-.2396-.2647-.4356-.7385-.4356-1.0528 0-.5845.8425-1.6244 1.3161-1.6244.5149 0 1.3161 1.0638 1.3161 1.7477 0 1.2413-1.3842 1.827-2.1965.9295zm1.3641-.2763c.1936-.1227.3121-.5058.2632-.8514-.0664-.47-.2537-.6282-.7432-.6282-.7443 0-1.0254.7191-.5196 1.3286.364.4386.5109.4608.9996.151zM71.88 8.6544c-.178-.5941-.3871-1.2456-.4646-1.4477-.0776-.202-.0133-.3674.1428-.3674s.3835.385.5052.8554c.1946.7523.3368.862 1.1792.9095.8721.0493.9873-.0273 1.2868-.8554.1809-.5002.4362-.9095.5674-.9095.1311 0 .1731.1702.0933.3783-.0799.2081-.2748.8596-.4332 1.4477-.2953 1.0968-.6867 1.3195-1.3008.7403-.279-.2632-.3729-.2632-.4694 0-.2453.669-.7925.2975-1.1067-.7512zm-4.24.473c0-.3509-.2504-.9564-.5564-1.3455-.658-.8364-.4609-1.2305.28-.56.4816.4359.5461.4379.9542.0298.6144-.6145.7951-.2965.2791.491-.2368.3614-.4305.8911-.4305 1.1772 0 .286-.1184.5933-.2632.6828-.1478.0914-.2632-.117-.2632-.4754zm-3.75.453c-.2775-.2776-.2449-2.7406.0363-2.7406.1279 0 .2945.2369.3702.5264s.3375.5264.5817.5264c.2443 0 .5061-.2369.5818-.5264.2561-.9793.6027-.5341.6027.7741 0 1.3344-.4218 2.0748-.5734 1.0065-.116-.8171-1.0646-.8045-1.2584.0168-.0796.3371-.233.5247-.3409.4168zm-5.7-1.943c-.8627-2.237-.9493-2.6406-.567-2.6406.133 0 .4975.7686.8101 1.708.6621 1.9895.9366 2.2591 1.3581 1.3338.3905-.857.9537-.8642 1.1668-.0148.2711 1.0802.5878.7621 1.179-1.1845.3078-1.0134.6666-1.8425.7973-1.8425.3514 0 .3034.2907-.432 2.6185-.6879 2.1778-1.1531 2.6136-1.6994 1.5929-.1549-.2896-.388-.5265-.5179-.5265s-.3114.2369-.4033.5265c-.3282 1.0342-.8874.5148-1.6918-1.5708zm21.46 2.022c-.5485-.401-.8915-2.402-.4577-2.6701.1934-.1195.2932.1206.2932.7052 0 .4876.1649 1.1119.3664 1.3875.5501.7523 1.2129.0844 1.2129-1.2222 0-.5613.1184-1.0206.2632-1.0206.4343 0 .3091 2.2854-.1504 2.7449-.5021.502-.9161.5225-1.5276.0754zm14.32 4.8436c0-1.6003.3753-1.9186.9895-.8394.5564.9778.853 1.0299.853.1503 0-.3619.1184-.658.2632-.658s.2632.5923.2632 1.3162c0 1.4538-.2912 1.6565-.9454.658-.5158-.7872-.8971-.8497-.8971-.1472 0 .281-.1184.5841-.2632.6736-.1621.1001-.2632-.343-.2632-1.1535zm-11.13 1.135c-.4086-.4156-.1536-2.7451.3004-2.7451.0981 0 .3882.3552.6448.7896.5681.9617.9631 1.0156.9631.1316 0-.3619.1184-.658.2632-.658s.2632.5923.2632 1.3161-.0978 1.316-.2173 1.316c-.1196 0-.4955-.2961-.8355-.658-.7823-.8327-.9972-.8278-1.1012.0252-.0458.376-.1722.593-.2807.4827zm-3.26-.43c.2771-1.14.6419-1.9874.9329-2.1673.3042-.1881 1.7345 2.4429 1.4712 2.706-.093.093-.2845-.0372-.4256-.2894-.3276-.5854-.9675-.5846-1.6309.0022-.5062.4478-.5159.4408-.3476-.2516zm-7.41-.802c.0766-1.3312.1093-1.3848.8916-1.4611 1.1368-.1109 1.6737.5529 1.026 1.2686-.4538.5015-.4537.5417.004 1.0479.5544.6126.203.7033-.5419.14-.6575-.4974-.9058-.4996-.9058-.0084 0 .2171-.1246.3948-.2769.3948-.1688 0-.2459-.5399-.1974-1.3819zm1.5272-.7394c0-.1362-.2369-.2477-.5264-.2477-.5807 0-.7169.4143-.1974.6006.3981.1429.7238-.0159.7238-.3529zM66.6 14.618c-.5992-1.3154-.6295-1.4621-.3017-1.4621.1272 0 .3784.3553.5583.7896s.4168.7897.5265.7897c.1096 0 .3465-.3554.5264-.7897s.4311-.7896.5583-.7896c.3128 0 .3076.024-.3074 1.4142-.2963.6698-.6487 1.2179-.7831 1.2179-.1343 0-.4841-.5265-.7773-1.17zm-7.13 1.104c-.0108-.0363-.0728-.3557-.1379-.7102-.0651-.3542-.3122-.8583-.5491-1.1203-.5682-.6278-.226-.9468.404-.3767.4376.3961.5261.4006.8235.0422.5441-.6556.8915-.456.4306.2473-.2338.3569-.4251.9491-.4251 1.3161s-.1185.6673-.2632.6673c-.1448 0-.272-.0295-.2828-.0657zm-5.99-1.316c.0742-1.2889.1283-1.3875.8034-1.4652.3981-.0458.7238.043.7238.1974s-.2369.2807-.5264.2807c-.6485 0-.6703.2276-.0658.6865.4387.333.4387.3501 0 .358-.3136.0058-.4606.2184-.4606.6664 0 .3619-.1247.658-.277.658-.1687 0-.2459-.5398-.1974-1.3818zM91.4 15.76c-.9193-.3401-1.0507-1.4738-.2622-2.2623.7887-.7887 1.6766-.642 2.0494.3386.503 1.3229-.4982 2.4005-1.7872 1.9237zm1.3625-.9328c.1978-.5156-.2892-1.4083-.7683-1.4083-.207 0-.499.2292-.6488.5091-.3515.657-.3474.6946.13 1.1719.451.4511 1.0588.3223 1.2872-.2726zM86.27 15.87c-.6293-.1646-.6715-2.6495-.049-2.8885.62-.2379 1.6617.342 2.0175 1.1229.2843.624.2433.755-.4134 1.3199-.4009.3449-.8112.6134-.9117.5966-.1006-.0168-.3901-.0848-.6434-.1509zm1.2163-.8339c.4152-.4588.4122-.5261-.0482-1.0947-.5939-.7334-1.1023-.5016-1.1023.5025 0 1.1688.4289 1.3896 1.1505.5923zm-9.9063.8099c-.6793-.087-.7238-.1725-.7238-1.3913 0-.7142.1184-1.2986.2632-1.2986s.2632.4509.2632 1.002c0 .8556.1058 1.0395.7238 1.2581.8453.299.5209.5639-.5264.4297zm-8.05-.021c-.2442-.1591-.309-.5503-.2073-1.2526.0813-.5617.1522-1.1693.1576-1.3502.0119-.3936 1.8524-.459 1.8524-.0658 0 .1448-.2961.2632-.658.2632-.4094 0-.658.1492-.658.3948 0 .2172.2072.3975.4606.4007.3733.0047.3359.1034-.1974.5206-.4634.3624-.5412.5254-.2632.5509.819.0751.9231.1139.9952.3703.096.3416-1.0213.4684-1.4819.1682zm-6.05-.008c-.2259-.1396-.3145-.6508-.2605-1.5021.0815-1.2845.0865-1.291 1.0689-1.3723.5714-.0473.9871.0358.9871.1974 0 .1535-.2961.2791-.6581.2791-.7493 0-.9433.7845-.1974.798.4267.0078.4248.0356-.0264.3773-.5316.4028-.3742.9919.2056.7694.1979-.076.438-.0116.5335.1431.0956.1546.0779.2899-.0392.3007-.1171.0107-.451.0649-.7421.1203-.291.0554-.6832.0055-.8715-.1108zm-6.89-.016c-.7425-.1894-.9159-.712-.6705-2.0205.2176-1.1596.731-.8747.6258.3471-.0639.7411.0412.9829.5441 1.252.7406.3964.4301.6585-.4994.4213zm32.9 5.186c.2889-.76.5253-1.4115.5254-1.4477 0-.0362.1165-.0658.2589-.0658.3972 0 1.623 2.5768 1.316 2.7665-.1444.0892-.3335-.023-.4204-.2493-.2014-.525-1.3131-.5372-1.5128-.0167-.0833.2171-.2732.3948-.4219.3948-.1527 0-.0418-.6016.2548-1.382zm-3.27 1.08c-.263-.5997-.0815-2.4624.24-2.4624.1448 0 .302.2734.3494.6076.1112.7851.9342.6679 1.0508-.1497.1665-1.1674.5739-.5582.5739.8582 0 .7962-.1185 1.4477-.2632 1.4477-.1448 0-.2632-.2243-.2632-.4983 0-.9853-1.1454-.8992-1.3765.1035-.1053.4567-.1465.4691-.3112.0934zm-2.25-.524c.0757-1.3565.0275-1.543-.3988-1.543-.2171 0-.3948-.1185-.3948-.2633 0-.3311 2.0214-.3492 2.225-.0199.0827.1339-.0584.2836-.3135.3326-.3484.0672-.4638.3449-.4638 1.1164 0 .623-.1384 1.0733-.3517 1.1445-.2528.0846-.3379-.1313-.3024-.7673zm-9.02.675c-.2697-.2743-.2423-2.0036.0389-2.4473.1765-.2786.3658-.1741.8351.4606.7337.9924 1.0343 1.0397 1.0343.1629 0-.362.1185-.6581.2632-.6581.1448 0 .2632.5923.2632 1.3161 0 .7239-.0978 1.316-.2173 1.316s-.4955-.2961-.8355-.658c-.7823-.8327-.9972-.8278-1.1012.0252-.0458.3759-.1721.593-.2807.4827zm-1.25-1.297c0-.7962.1184-1.4478.2632-1.4478s.2632.6514.2632 1.4478c0 .7961-.1184 1.4477-.2632 1.4477S73.7 21.7172 73.7 20.921zm-2.9 0c0-1.5123.3477-1.9326.6389-.7723.2101.8372 1.0335.7732 1.1566-.0898.0466-.3264.1946-.5255.329-.4424.3305.2042.3131 2.7521-.0188 2.7521-.1447 0-.2632-.2369-.2632-.5265 0-.3859-.1755-.5263-.658-.5263-.4826 0-.658.1404-.658.5263 0 .2896-.1185.5265-.2633.5265-.1447 0-.2632-.6515-.2632-1.4477zm-1.84.37c0-.8541-.1085-1.106-.5235-1.2144-.839-.2195-.3284-.6036.8022-.6036 1.0379 0 1.3856.3366.6425.6218-.2606.1-.3948.5122-.3948 1.2124 0 .5837-.1184 1.0611-.2632 1.0611s-.2632-.4848-.2632-1.0775zm24.45 1.077c-.0223-.2171-.0671-.6909-.0996-1.0528s-.0753-.8061-.0951-.987c-.0198-.181-.2207-.3291-.4464-.3291s-.3372-.1184-.2477-.2632c.202-.3268 1.8899-.3491 2.0886-.0276.0801.1296-.0314.3036-.2477.3866-.237.091-.3949.4941-.3973 1.0146-.004.9352-.4778 2.0091-.5549 1.2585zm-15.06-.218c-.7858-.8684-.3771-2.6772.605-2.6772.7813 0 1.3283.2864 1.3283.6955 0 .299-.1119.316-.547.0831-.8106-.4338-1.3454-.1193-1.2473.7334.0598.5197.2513.7491.6756.8094.3984.0566.5923-.0511.5923-.329 0-.2272.1776-.4131.3948-.4131.5904 0 .4761.7029-.1902 1.1695-.7579.5308-1.0792.5166-1.6115-.0716zm-13.1.301c-.1007-.76-.1155-2.3731-.0242-2.6488.1286-.3887 1.8951-.4499 1.8951-.0658 0 .1448-.2891.2632-.6425.2632-.8211 0-1.0854.4161-.4817.7583.4395.249.4361.287-.0603.6658-.5049.3852-.4905.402.351.41.5814.0055.8409.1194.7693.3374-.1198.3649-1.7617.6193-1.8067.2799zm-3.66-1.383c0-1.7879.3263-2.0541.8255-.6736.1832.5067.4297.9213.5477.9213s.4123-.4146.6539-.9213c.2416-.5066.5358-.9212.6538-.9212.1179 0 .2144.6515.2144 1.4477s-.1184 1.4477-.2632 1.4477c-.1447 0-.2632-.1777-.2632-.3948 0-.5243-.2594-.4992-.6785.0658-.3227.4349-.3642.4312-.7445-.0658-.3475-.4542-.4039-.4654-.4111-.0814-.005.2448-.1268.5183-.2716.6078-.1644.1016-.2632-.4359-.2632-1.4321zm-2.89 1.037c-.2895-.2895-.5264-.7633-.5264-1.0528 0-.5868.8727-1.5815 1.3819-1.5752.9411.0115 1.6718 1.3097 1.2201 2.1675-.5883 1.1172-1.2681 1.268-2.0756.4606zm1.6818-.6771c.2043-.5323-.2729-1.4286-.7605-1.4286-.471 0-1.0102.9678-.8182 1.4682.1943.5062 1.3807.4764 1.5787-.0396zM55.5 22.114c-.7103-.5918-.5557-.6739.4262-.2265.4676.2131.7621.2241.9504.0359.1883-.1883-.0236-.4477-.684-.8374-.6241-.3682-.9267-.7239-.87-1.0229.1178-.6211 1.342-.7389 1.8107-.1742.3348.4034.2922.4259-.4831.2556-1.126-.2473-1.0848.1722.071.7233 1.0234.488 1.1862 1.0772.4121 1.4914-.7081.379-.9227.3468-1.6332-.2452zm39.26 5.301c0-.2643.2876-.7507.639-1.0809.3515-.3303.5757-.7654.4983-.9671-.1883-.4908-1.3776-.4695-1.5685.028-.2115.5512-.6216.4937-.6216-.0871 0-.7868 1.1277-1.2392 2.0925-.8396 1.0043.416 1.0615 1.25.1448 2.1112-.3619.34-.658.7752-.658.967 0 .1919-.1185.3489-.2632.3489-.1448 0-.2633-.2162-.2633-.4804zm-3.16.456c0-.8541-.1085-1.1059-.5235-1.2144-.2879-.0753-.4585-.2419-.3792-.3702.1976-.3198 1.886-.2956 2.0872.0299.0895.1448-.022.2633-.2477.2633-.3109 0-.4104.2871-.4104 1.1845 0 .6514-.1184 1.1845-.2632 1.1845S91.6 28.4637 91.6 27.871zm-4.21.74c-.0109-.6105.6479-2.1812 1.0082-2.4039.1621-.1002.5645.3866.9525 1.1523.3695.7292.5584 1.3258.4198 1.3258-.1387 0-.3254-.1184-.4148-.2632-.261-.4223-1.2274-.3036-1.6077.1973-.3323.4377-.3501.4374-.3581-.0084zm-2.97.187c-.2781-.2824-.247-2.4816.0351-2.4816.1279 0 .2972.2472.3762.5493.1909.7303 1.0744.5614 1.1868-.2269.0465-.3264.1946-.5255.329-.4424.3305.2043.313 2.7521-.0188 2.7521-.1448 0-.2632-.2369-.2632-.5264 0-.7606-1.2472-.7378-1.3636.0249-.0463.3034-.173.4613-.2816.3509zm-2.12-.042c-.0643-.1109-.0906-.6025-.0584-1.0924.0444-.6746-.0593-.9213-.4276-1.0177-.2674-.0699-.4862-.2318-.4862-.3597 0-.3218 2.0367-.2939 2.2373.0307.0895.1448-.022.2632-.2477.2632-.3023 0-.4104.2733-.4104 1.0374 0 .9653-.3388 1.6009-.607 1.1385zm-5.44-1.255v-1.4477h.9212c.5067 0 .9213.1184.9213.2632s-.2961.2632-.658.2632c-.7494 0-.9434.7845-.1975.798.4387.008.4387.0251 0 .3581-.6321.4799-.5774.6864.1819.6864.3534 0 .7157.1185.8052.2632.0983.159-.2605.2632-.9057.2632H76.86zm-3.02.264c-.1991-1.3274.0389-2.0503.4393-1.3348.2286.4085.3004.4106.8849.0276.7852-.5145.8235-.2433.0777.5506l-.5584.5944.7558.6961c.7384.68.6298.715-.6261.2015-.181-.0741-.329-.0034-.329.1569 0 .1601-.105.2912-.2334.2912-.1283 0-.3132-.5325-.4108-1.1837zm-1.19-.132c0-.7239.1184-1.3161.2632-1.3161s.2632.5921.2632 1.3161c0 .7238-.1184 1.316-.2632 1.316s-.2632-.5921-.2632-1.316zm-2.46 1.118c-.0647-.1086-.0868-.4935-.0491-.8554.0376-.362.0836-.9316.102-1.2658.0568-1.0272.5601-.3488.5601.7549 0 .8618.089 1.0373.5264 1.0373.2895 0 .5264.1184.5264.2632 0 .3034-1.4892.3622-1.6658.0658zm-7.8-1.316c.008-1.3805.042-1.4691.3906-1.0083.3704.4895.3988.4903.9129.025.6739-.6099.7379-.011.0768.7195-.4326.478-.4236.5243.1935.9898.7773.5863.5567.969-.2748.4767-.4641-.2748-.6114-.2786-.7056-.0183-.2938.8113-.601.198-.5934-1.1845zm-3.02 1.1c-.5633-.5634-.5195-1.323.1128-1.9554.6479-.6478 1.114-.6666 1.6301-.0657.6364.741.7257 1.2834.3092 1.8781-.4597.6564-1.4684.7267-2.0521.143zm1.7946-.5268c.2043-.5322-.2729-1.4286-.7605-1.4286-.4877 0-.9648.8964-.7606 1.4286.0873.2277.4296.414.7606.414.3309 0 .6731-.1863.7605-.414zm-5.2046.4508c-.3341-.3692-.3832-.647-.1998-1.1295.5458-1.4356 1.7045-1.6512 2.3824-.4435.8604 1.5329-1.0033 2.876-2.1826 1.5729zm1.8593-.4675c.202-.5263-.2191-1.2505-.7928-1.3635-.457-.09-.8858 1.0256-.5827 1.5159.2662.4308 1.191.3282 1.3755-.1524zM53.22 27.567c.0954-1.6567.5729-1.8396.6869-.2633.0534.738.2049 1.1188.4451 1.1188.2003 0 .4374.1184.5268.2632.097.1569-.2212.2632-.7878.2632h-.9506zm41.54 1.382a.264.264 0 0 1 .2632-.2632c.1448 0 .2632.1184.2632.2632s-.1184.2632-.2632.2632a.264.264 0 0 1-.2632-.2632zm-28.89-.058c-.6921-.3338-.8119-.8783-.1316-.5983 1.0756.4428 1.3819.4504 1.3819.034 0-.2313-.2913-.4936-.6472-.5829-.9488-.2382-1.3437-.7993-.921-1.3086.3741-.4509 1.6036-.4196 1.7558.0446.0609.1858-.1502.2473-.572.1667-.7886-.1508-.9098.3479-.1436.5911.2887.0916.7089.3506.9338.5755.3696.3696.3659.4563-.0392.904-.5036.5564-.7652.5846-1.6168.1739zm-10.3 11.776c.0693-.0692.8477-.5925 1.7298-1.1625 1.9856-1.2833 3.5395-2.6686 4.8552-4.3283 1.1868-1.4972 1.3274-1.2998.2616.3669-1.3496 2.1104-5.2091 5.25-6.4538 5.25-.2853 0-.4621-.0567-.3928-.126zM43.3 46.533c-.688-.3902-.9123-.743-.9172-1.4433-.009-1.2801 1.8298-1.9018 2.7189-.9193.7542.8333.5341 1.8123-.5341 2.3746-.684.36-.6106.3607-1.2676-.0119zm-22.24 1.893c-1.5554-1.5553.7124-3.9915 2.4461-2.6278.927.7292.9924 2.1387.1275 2.7446-.8062.5647-1.9438.5131-2.5736-.1166zm41.58 10.359c-1.7851-.4764-3.6275-1.318-4.3962-2.0087-.3583-.3218-.7895-.4658-1.1295-.3768-.4434.1159-.5199.0491-.3949-.3444.0852-.2684.009-.7215-.1689-1.0066-.2523-.4041-.5313-.492-1.2628-.3983l-.939.1203.9871-.5458c.9208-.5092 1.2847-1.1647.7586-1.3667-.3061-.1176-.6549-1.274-.3816-1.265.1184.0039.5055.4776.8603 1.0527.6651 1.0781 1.1978 1.3978.9749.5851-.0695-.2533-.2036-.9172-.2981-1.4753-.2187-1.2922.3441-1.2141.7878.1094.2098.626.4897.9327.9071.9938.5598.0821.5908.0201.4266-.8554-.1412-.7523-.0945-.944.2296-.944.2255 0 .4068.225.4068.5049 0 .8675.2992 1.3376.8513 1.3376.48 0 .5193.1291.4044 1.3254-.0799.8311-.028 1.2923.139 1.2366.3435-.1144.4076-1.6561.1154-2.7751-.374-1.4322-.0306-1.5869.5734-.2584.31.6817.6652 1.3022.7895 1.379.4214.2605.839-.5763.6545-1.3114-.1351-.5384-.0917-.688.174-.5995.1948.0649.459.5246.5873 1.0214.3082 1.1938.68 1.6071 1.2758 1.418.5622-.1784.6409.1406.1603.6501-.2656.2815-.2529.3258.0658.2297.2354-.0709.4278-.5093.4765-1.0858.1004-1.188.4203-1.2451.7396-.1319.1317.4593.4017.8891.6001.9551.283.0943.3211-.091.1767-.8607-.212-1.1299.214-1.0839.4996.0539.3467 1.3816 1.2654 1.8788 1.5388.8329.1875-.7171.7064-.3962.7064.4369 0 .3957.1517.6425.3949.6425.2314 0 .3982-.2449.4031-.5922.008-.5736.0252-.5696.546.1283.5185.695.5652.7062 1.3163.3178.7763-.4015.8186-.9067.076-.9067-.2152 0-.6578-.2665-.9835-.5922-.3257-.3258-.6492-.5923-.7189-.5923-.0696 0-.6604-.4373-1.3127-.9718-2.5884-2.121-6.6951-3.1076-10.381-2.494-1.078.1794-1.2557.1571-.9824-.1232.2362-.2422 1.2359-.3425 3.4218-.3434 2.5386-.0011 3.3648.1018 4.6431.5784 2.2174.8266 5.0709 2.5873 6.3858 3.9403 1.0651 1.0959 1.1065 1.1944.7385 1.7561-.2145.3273-.3308.6542-.2584.7266.0723.0723-.1612.4064-.5189.7424-1.4053 1.3202-7.5467 1.9827-10.666 1.1505zm6.9645-1.0768c.9407-1.0144.831-1.2691-.2676-.6209-.95.5605-1.959.7324-1.959.3338 0-.1204.2961-.3773.658-.571.362-.1937.6581-.4506.6581-.5709 0-.3904-.9017-.2282-1.7109.3077-1.0436.6911-1.7029.7183-1.0936.045.7038-.7777.5124-.8489-.7861-.2923-1.3066.5601-1.6932.5103-1.1472-.1475.6057-.7298.0878-.6979-.8003.0493l-.8663.729.1803-.7183c.2008-.8001.022-.9029-.5987-.3438-.2286.2059-.7677.4623-1.198.5697l-.7825.1954.4535-.6921c.4886-.7458.5984-1.5002.2183-1.5002-.1292 0-.3052.1831-.3911.4067-.0858.2237-.5723.5807-1.081.7932-.5087.2126-.9249.4417-.9249.5092s.4522.3534 1.0049.6354c.9563.4879 3.1183.8743 6.8915 1.2319.941.0891 1.7602.2093 1.8206.267.3229.3088 1.1333.0188 1.7222-.6163zm2.5309-.1409c-.0326-.3147-.3936-.2537-.5067.0856-.0579.1737.0368.2684.2106.2105.1737-.0578.307-.191.2961-.2961zm1.1417-.35c.4819-.1849.3011-.6304-.2557-.6304-.2086 0-.3793.1776-.3793.3948 0 .4428.0483.4607.635.2356zm-14.253-2.1331c.3999-.0755.8043-.2623.8986-.4149.1053-.1705.009-.2153-.2494-.1161-.2316.0889-.4686.0202-.5268-.1527-.0808-.2399-.2004-.2361-.5058.0158-.2498.2061-.7201.2659-1.2533.1593-.8237-.1648-.841-.1507-.4983.4051.2518.4084.5082.5272.8815.4084.2895-.0922.8536-.2294 1.2535-.3049zM67.78 63.431c.0968-.3619.2583-1.1915.3589-1.8437.2045-1.3264.4497-1.8413.8765-1.8413.1587 0 .0925.2166-.1471.4815-.2689.2971-.4356.9326-.4356 1.6606 0 .681-.1751 1.3951-.4144 1.6902-.3991.4921-.4078.4867-.2383-.1472zm-20.27 1.653c-2.028-.4917-4.6242-1.365-4.0925-1.3766.5799-.0127 4.1581.7349 6.1982 1.2947.721.198.6867.2164-.3948.213-.6515-.0021-1.4213-.061-1.7109-.1313zm-2.55.009c.19-.076.417-.0667.5045.0207s-.068.1497-.3455.1382c-.3066-.0126-.369-.075-.159-.159zm1.04.269c.181-.073.4771-.073.658 0 .181.073.0329.1328-.329.1328s-.51-.0598-.329-.1328zm18.79 3.204c-.3377-.1463-1.1962-1.1543-1.9076-2.2402-.7115-1.0858-1.4752-2.165-1.6971-2.3986-.5147-.5415-.9139-1.9294-.9139-3.1774 0-.5353-.1026-1.0367-.228-1.1141-.2684-.1659-.9271.545-1.1992 1.2943-.1879.5174-.1993.5165-.6657-.055-.261-.3198-.6367-.616-.835-.6581-.3803-.0808-.9978-.7297-1.012-1.0636-.0171-.4029.5253-.175 1.39.5843l.8903.7815.3404-.636c.4088-.7639 1.0028-1.0359 1.4506-.6641.1803.1496.409 1.0963.5083 2.1036.1515 1.5377.3179 1.9959 1.037 2.8567.4711.5638 1.2465 1.633 1.723 2.3755.9026 1.4065 1.5147 1.7806 1.2407.758-.0873-.3257-.1621-.9475-.1663-1.3819-.006-.6163-.0656-.703-.2718-.3948-.2279.3405-.3163.3224-.6429-.1316-.2083-.2895-.7051-.8477-1.104-1.2403-.7229-.7115-.7232-.7133-.0906-.5479l.6347.166-.6143-1.0314c-1.3556-2.2758-1.595-2.7822-1.5805-3.3425.0113-.4351.1628-.2819.5937.6002.3182.6515.885 1.6582 1.2595 2.2373s.7983 1.4082.9417 1.8425c.2588.7839.7993.8882.6821.1316-.0337-.2171-.1201-1.0161-.1921-1.7753s-.2078-1.7069-.3018-2.1057c-.1342-.5691-.1009-.6596.1546-.4204.1791.1676.3888 1.0925.4661 2.0553.141 1.757.4544 2.0096.6643.5353.0812-.5702.132-.4239.183.5265.0388.7238.1564 1.6714.2613 2.1057.2106.8718.261.8001.9237-1.3161.2539-.8106.3623-.9875.2824-.4607-.0957.6308-.0298.8555.251.8555.2936 0 .2318.2802-.2698 1.2237-.39.7334-.6507 1.6599-.6507 2.3125 0 1.1799-.3072 1.3419-1.5353.8097zm-2.19-.134c-.1922-.4342-.4391-.7895-.5485-.7895s-.1989-.1589-.1989-.3531c0-.468-3.3418-3.6656-3.7045-3.5447-.5009.1669-2.8758-2.3601-2.8758-3.06 0-.2591 1.2777-.1609 1.4458.1113.0898.1452-.008.1953-.2211.1135-.21-.0805-.4542-.0295-.5426.1136-.2001.3237.8246 1.1455 2.3475 1.8828 1.3495.6532 3.7046 3.0978 4.6995 4.8778.8086 1.4468.8067 1.4379.3209 1.4379-.205 0-.53-.3553-.7223-.7896zm-3.9.526c-.4816-.3112 1.0143-.3112 2.2373 0 .6871.1749.6188.2045-.5264.228-.7239.015-1.4937-.0877-1.7109-.228zm27.51 5.015c-.0759-.1228.7203-.3027 1.7694-.3996 1.0491-.097 2.3003-.2984 2.7804-.4477.4802-.1492.9371-.2073 1.0153-.1291.2035.2036-2.4296.8911-4.0526 1.0582-.756.0778-1.4366.041-1.5126-.0818zm-.07 9.806c.2561-.0667.6114-.0622.7896.0098.1782.0721-.0313.1267-.4656.1213-.4343-.0053-.5801-.0643-.324-.1311z"/>
    <path d="M4.5 21.428c3.2489-3.0849 6.5741-4.9937 10.972-6.3593 2.2782-.6708 5.9777-1.4024 7.6192-1.4141 5.5143.3386 9.922 2.2536 13.962 4.7047 3.0388 1.8432 6.8351 4.8195 8.7598 8.089 3.2648 5.5459 4.5415 12.462 3.2398 17.552-.8691 3.3982-3.1072 7.3269-4.8614 9.1441-3.7866 3.9229-5.559 4.7061-9.1918 6.6812-1.7509.952-4.4232 1.4861-6.1666 1.8029-1.94.3525-5.0189.5987-6.1297.6003-1.6332.0023-3.6424-.2624-5.1795-.4605-1.7601-.2269-3.2297-.7283-4.8542-1.3765-1.6196-.6462-2.934-1.1128-4.3927-2.0895-1.4451-.9675-4.463-2.3484-5.6101-3.6094-.593-.6519-.9016-1.3287-.9016-1.3287l-.1291-28.064s1.7417-2.807 2.8639-3.8725zm34.848 35.386c1.534-1.3075 2.4164-1.9594 4.0954-4.0338 5.6827-7.0211 6.952-15.988 2.1145-25.221-1.33-2.5385-4.675-6.1208-7.1862-7.6961-.8686-.5449-1.6473-.983-2.6082-1.5631-5.6783-3.4281-9.8533-5.0017-19.854-2.5859-2.8402.6861-8.7495 4.3086-10.725 6.3501-1.8025 1.5381-3.1999 4.356-3.1999 4.356l.1254 25.534s.2917 1.3006.9227 2.2078c2.3577 2.3778 7.4078 4.9173 10.958 6.3327 2.1928.7362 5.533 1.3274 8.2435 1.226 3.2234-.1205 4.2846-.1736 6.6371-.3682 2.2774-.1885 9.2134-3.4632 10.476-4.539z"/>
    <path d="M3.33 90.265c-.7021-.1178-1.4424-.2778-1.6451-.3555-.3138-.1205-.3685-6.7008-.3685-44.348 0-24.314.1588-44.311.164-44.634.0497-.3074.0677-.7588.491-.9997.9679-.5507 2.5714-.4583 51.181-.4583h49.488l.467.7122c.442.6737.471 3.1076.535 44.92.061 39.336.024 44.276-.335 44.824l-.403.6154-49.148-.031c-27.032-.017-49.723-.1274-50.425-.2452zm34.804-.6053c.4206-.1442.3436-3.0589-.5537-9.2051-.5353-3.6667-.6133-3.9321-1.2995-4.4208l-.73-.5198-6.786.8186c-3.7323.4502-7.5559.9245-8.4969 1.0536-1.7408.2391-9.5535 1.1407-13.779 1.5902-1.281.1364-3.7816.3137-3.912.3943-.2286.1413-.3507 10.236-.1276 10.459.1512.1514 35.235-.0157 35.685-.17zm52.543-2.6719c0-.8907.0765-.8825-2.6061-.2842-2.3283.519-6.2859.9008-7.725.7449-2.1464-.2324-1.0929-.5247 2.3689-.6569 3.2814-.1254 4.863-.3715 7.0409-1.0955.7213-.2398.9398-.4665 1.0068-1.0447.0703-.6067-.0001-.715-.3948-.607-.2642.0723-1.1319.3214-1.9281.5535-1.9249.5613-5.8873 1.1162-8.4535 1.1841-3.2898.087-2.4081-.4117 1.0177-.5756 1.701-.0812 3.685-.2908 4.4088-.4655 2.8707-.693 4.343-1.1527 4.343-1.3562 0-.2657-.8964-.2821-1.1572-.0213-.1057.1057-1.0434.2106-2.0838.2331s-3.2538.1721-4.9186.332c-3.4416.3309-6.728.3551-7.4958.0551-.2924-.1142 1.7845-.2839 4.7378-.3871 5.2541-.1836 6.9097-.3829 10.128-1.2187 1.1858-.308 1.7383-.5842 1.8002-.9001.0719-.3669-.005-.4061-.3948-.201-1.1725.6168-4.8814 1.4272-6.9328 1.5147l-2.2373.0954 2.6321-.4705c1.4477-.2588 3.1651-.6293 3.8166-.8234 1.3798-.411 2.1411-.9626.9212-.6674-.8016.194-2.207.4201-5.5275.8891-1.0134.1432-3.3231.3201-5.1326.3931-3.6643.1479-2.6463-.0793 2.8418-.6344 2.6428-.2672 3.2096-.3977 3.0894-.7111-.1142-.2976.0308-.3576.6458-.2674.4361.064.793.0245.793-.088 0-.1124.7136-.3447 1.5857-.5163.8722-.1716 1.649-.4144 1.7264-.5397.0774-.1252.4002-.237.7174-.2485.3172-.0114.428-.0807.2463-.154-.1817-.0732-1.5307.176-2.9978.554-3.3098.8526-8.392 1.4633-12.178 1.4633-1.5813 0-2.8175-.0575-2.7473-.1278.0703-.0702 1.8371-.2484 3.9262-.396 3.9148-.2764 8.1039-.8341 9.7208-1.2941.7432-.2114.5651-.2329-.9212-.1114-1.0134.0829-1.9823.2624-2.1531.399-.1709.1365-.7631.2072-1.3161.1572l-1.0054-.091.9212-.2971c.7916-.2552.8287-.3001.2632-.3186-.3619-.0119-2.0062.1565-3.654.3741-7.0976.9377-19.562.9823-26.615.0953-6.0942-.7664-9.2959-1.3398-11.444-2.0497-.8651-.286-1.6122-.4807-1.6601-.4328s.1456 1.3141.4299 2.8138c.2844 1.4997.5922 3.4966.684 4.4376.0918.9409.2318 2.1556.3111 2.6992l.144 2.887 51.411-.1342zm12.092-10.199-.069-11.121-1.052.0552c-.579.0303-3.9551.2586-5.6746.5072l-3.1262.4521.2261 1.8617c.3812 3.1382.2831 5.6956-.2583 6.7311-.5056.9672-.8228 3.6289-1.1215 9.4098l-.1665 5.1231h11.311zm-12.224 6.1196c0-.1447-.1254-.2631-.2787-.2631s-.2056.1184-.1161.2631c.0895.1449.2149.2633.2787.2633s.1161-.1184.1161-.2633zm.5045-3.3208c.3609-.332-.2978-.3102-1.0569.0348l-.8953.407.9213-.1705c.5067-.0938.9706-.2159 1.0309-.2713zm-16.034-1.0315c4.5043-.4462 6.1176-.7014 9.4756-1.4988 2.493-.5919 2.4969-.5941 1.3161-.7418-1.2568-.1572-1.1566-.2243.9871-.6612.3981-.0812.9015-.3632 1.1186-.6265.2548-.3091.9081-.5341 1.8425-.6346 1.0937-.1177 1.2935-.0919.8172.1057-.9992.4142-.4013.634.7191.2642.9016-.2975 1.0163-.4335 1.0466-1.24.0187-.4981.1084-1.026.1991-1.1728.1995-.3226-1.7322-.0253-2.1109.3249-.3276.303-.9344.2973-.9344-.0088 0-.132.5034-.3245 1.1187-.4278 1.2024-.2018 2.2298-.7629 1.8391-1.0044-.1317-.0814-.9991.083-1.9276.3653-.9285.2824-2.1027.5107-2.6094.5074-1.324-.0086-.487-.4137 1.3161-.6369 2.0176-.2497 3.1586-.6433 3.1586-1.0894 0-.2719-.205-.3403-.7238-.2412l-.7238.1382.7238-.2867c.3981-.1577.7238-.4546.7238-.6596 0-.4842-.1429-.4735-2.1206.1583-2.2422.7162-3.6701.9323-3.6701.5553 0-.1633.0613-.2969.1362-.2969.572 0 5.3117-1.1493 5.5053-1.335.5797-.5558-.2587-.5255-2.7983.1011-12.342 3.0451-23.576 3.9708-35.876 2.9564-7.5242-.6205-13.126-1.782-17.833-3.6971-.4146-.1687-.4606.0114-.4606 1.8019 0 2.1685.383 4.3726.9543 5.4918.3016.5907.8036.8484 2.9291 1.5033 3.5304 1.0878 11.113 2.2339 16.515 2.4962 3.6332.1764 15.603-.1393 19.346-.5102zm10.792-.0968c1.7181-.3007 5.8733-1.6098 5.6904-1.7927-.1085-.1085-7.8081 1.6758-8.8489 2.0505-.5444.1962-.4763.2202.3948.1394.5791-.0538 1.8228-.2324 2.7637-.3971zm5.001.2378c.3403-.2199.3333-.2557-.0503-.2592-.2448-.0021-.5183.1144-.6078.2592-.2058.3331.1426.3331.6581 0zM6.2195 78.41c3.897-.3947 8.5347-.8296 12.864-1.5266 2.6463-.4409 5.9018-.8503 10.779-1.3554 2.7435-.2841 5.0951-.6235 5.2257-.7541.1412-.1412.1197-.7868-.053-1.5919-.1598-.7449-.2905-2.3986-.2905-3.6748 0-1.9219.0904-2.4354.5265-2.9897.2895-.3681.5264-.7404.5264-.8274 0-.414-1.5567-2.2455-1.7049-2.0058-.0928.1501-.3539.2729-.5802.2729-.341 0-.3538-.0696-.0746-.4059.2552-.3075.263-.4799.0322-.7107s-.3047-.2281-.3047.0111c0 .1738-.1311.3159-.2914.3159s-.2232-.1777-.1399-.3948c.1721-.4485-.2364-.542-.5006-.1145-.1165.1885-.3156.1563-.6077-.0983-.8835-.77-2.226-1.0065-3.7478-.6603-.8218.187-3.2619.3225-5.7675.3206-6.1104.1472-13.96-2.3999-17.855-6.2189-.154-.3578-1.916-.2183-1.916.1911.047.6004.1826 1.8618 0 4.0798-.1259 3.531.1114 7.618.1316 11.45l-.0746 3.1433c-.041 1.7288-.016 3.2961.0558 3.483.089.2318 1.751.2874 2.3415.1749.3313-.0625 1.0978-.0908 1.4254-.1131zm81.36.1281c-.0875-.0875-.3145-.0968-.5045-.0207-.21.084-.1476.1464.159.159.2775.0114.433-.0508.3455-.1382zm4.4143-3.2626c.1924-.3115-.0651-.3115-.7896 0-.5076.2181-.5058.2267.0503.2446.3172.0102.6499-.0999.7393-.2446zm-2.4347-.1745c-.181-.0729-.4771-.0729-.658 0-.181.0731-.0329.1328.329.1328s.51-.0597.329-.1328zm-27.241-4.3661c-.125-.3788-2.9308-.602-3.5908-.2856-.266.1275.2632.2628 1.4182.3626 1.0134.0875 1.9412.18 2.0618.2056.1206.0255.1705-.1016.1108-.2826zm3.2232-.1692c0-.1293-.1777-.3032-.3948-.3866-.2172-.0833-.3948-.2806-.3948-.4385 0-.1578.1355-.2032.3011-.1009.1656.1024.6383.1766 1.0503.1649.4692-.0134.8874.176 1.119.5067.22.314.4378.4182.5374.2571.0921-.1491.3414-.2044.5539-.1228.2125.0815.3864.0142.3864-.1497s-.3527-.3685-.7837-.4547c-.4311-.0862-.9194-.3201-1.0851-.5198-.2489-.2999-.0867-.3631.9308-.3631.8738 0 1.1769-.0896 1.0419-.308-.123-.1991-.0531-.2553.1982-.1589.2136.082.6737-.0662 1.0225-.3292l.6341-.4783-.782-.3124c-.43-.1718-.9857-.4169-1.2347-.5446-.3343-.1715-.5261-.0952-.7331.2915-.1541.2881-.4066.5238-.561.5238-.3752 0 .9299-2.1873 1.3878-2.326.2885-.0874.2944-.0402.03.24-.5388.5712-.38 1.0331.3551 1.0331.3762 0 1.1015.1981 1.6118.4403.7366.3495 1.0837.3814 1.6849.1545 1.066-.4024.941-.0036-.3431 1.0957-.6052.5179-1.0309.9417-.9462.9417.5037 0 2.4959-1.3269 3.2568-2.1692.7413-.8205.8952-.9002.8952-.4637 0 .5895-1.909 2.6329-2.4597 2.6329-.1947 0-.5684.2369-.8304.5264-.441.4874-.4429.5265-.0253.5265.272 0 .3771-.1198.2647-.3016-.1347-.2181.0251-.2405.5767-.0809 1.1416.3302 2.4202.2107 2.9022-.2713.2354-.2354.6796-.4084.987-.3844.3074.0239.9143.0188 1.3486-.0114.7501-.0522.7354-.0701-.2952-.3582-.5966-.1667-1.2777-.4657-1.5135-.6644-.3654-.3079-.4287-.3043-.4287.025 0 .4382-.9803 1.4177-1.1996 1.1985-.0789-.0789.3899-1.0455 1.0416-2.148.6518-1.1025 1.1613-2.0032 1.1321-2.0016-.0291.0016-.6343.1793-1.345.3949-.7106.2155-1.8782.3919-2.5945.3919-1.0495 0-1.273.0767-1.1509.3948.0833.2172.0257.3949-.128.3949-.1538 0-.3416-.2369-.4173-.5265-.0757-.2895-.2919-.5264-.4805-.5264-.1885 0-.7069-.2073-1.1521-.4606-1.0195-.5802-1.0696-1.5062-.1546-2.8546.362-.5333.6623-1.1012.6675-1.2619.0138-.4276 1.2551-1.8791 1.4448-1.6895.1657.1657-.2631 1.0587-.8804 1.8331-.3227.4049-.2292.407 1.3161.0293 1.958-.4786 2.2641-.6896 1.8043-1.2436-.2286-.2755-.242-.406-.0415-.406.2806 0 .3407.1554.4022 1.0396.0174.2507.5678.4857 1.605.6852 1.9116.3677 3.0261.7989 3.0261 1.1709 0 .1735-.2694.1435-.7239-.0808-.3981-.1965-1.6716-.5049-2.8301-.6855-1.9548-.3046-2.2124-.2885-3.5834.2244-1.4941.559-2.5749 1.7862-2.1305 2.0608.1332.0823.7035.0866 1.2674.0094.564-.0771 1.6371-.1278 2.3849-.1126s1.435-.4633 1.5272-.6124c.1086-.1757.3859-.1282.7876.135.4124.2703.6773.3133.7914.1287.0943-.1527.3916-.2775.6605-.2775s.5307-.1253.5817-.2783c.13-.3899 1.004-.0085 1.004.438 0 .2017-.1254.3667-.2787.3667-.1534 0-.2059.1179-.1167.2621.1004.1625.482.0873 1.0026-.1974 1.2946-.708 5.553-.6176 7.8786.1672.9756.3293 1.8347.6972 1.9092.8176.0744.1204.974.3688 1.999.552 1.5888.2839 2.416.2663 5.6073-.1192 2.059-.2487 5.4982-.5202 5.8162-.6032l.577-.151V.4026L2.213.5356l.0923 11.7.0849 10.304-.0603 1.0509.0732 15.631.0731 15.631c5.5174 4.5993 14.141 6.7867 19.639 6.8133 3.7824-.0167 7.5254-.5193 10.177-1.3663 2.4034-.7678 5.91-2.5702 6.7311-3.4597.8599-.9315 1.4482-.9939 1.7722-.1878l.2381.5922.0167-.5922c.0169-.6007.387-.7945.6633-.3475.1711.2769 1.1785.2229 1.6851-.0902.5076-.3137.6415-.0091.2628.5975-.3386.542-.0941 1.1906.2493.6616.1872-.2884 1.1994-.8872 1.4996-.8872.0917 0 .0917.2361.0001.5247-.1279.4029-.0708.4881.2455.3667.2266-.087.412-.2639.412-.3932 0-.402.7247-.2574.8918.1779.1075.2802.334.3573.7046.2397.4167-.1323.5812-.0398.6936.39.1198.4584.2819.5339.8694.4049.5187-.114.7668-.0419.881.2557.1285.3349.2537.3553.6525.1062.4064-.2538.593-.2085 1.0588.2573.6009.6009.7368 1.0918.3021 1.0918-.1447 0-.2632.1226-.2632.2725 0 .1878.1582.1878.5091 0 1.0156-.5436 1.1802-.2402.2806.5171-.5067.4265-.7958.7787-.6423.7826.1534.0039.9033.5401 1.6666 1.1915 1.3819 1.1796 2.252 1.4814 2.4662.8554.0679-.1983.5731.1531 1.2722.8851.6378.6676 1.5838 1.3653 2.1022 1.5502 1.1629.4149 1.9738.9873 1.7358 1.2255-.0982.0982-.445.0443-.7705-.1197-.3255-.1641-1.2895-.5361-2.1422-.827-1.6831-.574-2.053-.8131-1.5407-.9959.526-.1878.0972-.5996-.6242-.5996h-.6574l.4728.8004c.3966.6714.834.907 2.7128 1.4607 1.232.3633 2.5361.7956 2.898.9609 1.2356.5642-.2595.5315-2.1136-.0463-.9842-.3068-1.7397-.4233-1.79-.2761-.1845.5399-1.1695-.3625-2.2952-2.1026-1.9263-2.9777-3.9396-4.4444-5.0961-3.7123-.2818.1784-.007.4687 1.139 1.2015 1.8319 1.1719 4.8361 3.9627 4.5614 4.2374-.109.1091-.4643-.0477-.7894-.3484-1.0054-.9298-4.1853-2.4104-6.1186-2.849-3.8356-.8701-4.0851-.9633-4.6322-1.7316-.295-.4143-.7099-.7532-.922-.7532-.8318 0-3.0163-1.3666-3.928-2.4573l-.9603-1.1489-2.2803 1.1675c-1.2542.6421-2.3656 1.2486-2.4698 1.3477-.2024.1925 1.3442 3.4545 2.1126 4.4558.448.5838.4941.5894 1.6052.1974 1.3908-.4907 2.9054-.5288 2.9592-.0746.0214.181.0631.5067.0926.7238.0295.2172.0712.5399.0926.7171.0687.568 1.5576 1.1764 2.1298.8702.2787-.1492.759-.2712 1.0673-.2712s1.1748-.2791 1.9256-.6201c1.8007-.8181 4.3306-1.1019 5.4926-.6162 1.2498.5224 1.6502 1.1306 1.657 2.5172.006 1.1347.058 1.2256.7956 1.3834 1.2319.2634 3.6013.2583 3.4371-.0073-.1853-.2999 5.1387-.0423 5.5327.2677.1561.1228.7484.3322 1.3161.4653 1.3954.3272 1.427.3285 1.427.0599zm-13.029-11.948c-1.0387-2.1885-4.3292-3.6599-8.1909-3.7205l-2.2575-.0354c.0851-.1798.2929-.4666.2929-.4666s.8622-.0557 2.8759.0864c2.5629.174 6.2745 1.5623 7.3764 3.1098.5934.8333.9987 2.1594.6555 2.1449-.1243-.0052-.4628-.5086-.7524-1.1187zm17.907 11.452c-.1262-.3288-.0833-.34.2483-.0648.4344.3605.4889.2774.2411-.3683-.3291-.8577-1.7519-.3428-1.5185.5496.1031.3943.2927.5134.663.4166.3307-.0865.4634-.2797.3661-.5331zm-17.381.0508c-.2895-.2194-.7633-.3357-1.0528-.2584s-.6745.1422-.8554.1442c-.181.0021-.329.122-.329.2668 0 .1449.6218.2595 1.3819.255 1.2916-.0078 1.3475-.0345.8554-.4075zm-7.5016-.7562c0-.2104-.142-.6942-.3156-1.0752-.2911-.6388-.4091-.6811-1.5135-.5426-.6588.0825-1.4286.1574-1.7106.1664-.8149.0258-1.8546-.906-1.8681-1.6741-.007-.376-.0708-.7424-.1426-.8142-.2249-.2249-3.0814.5411-3.8182 1.0239-.8395.55-.6646.7117 1.4723 1.3618 1.6968.5162 7.0897 1.8797 7.5674 1.9134.181.0126.329-.149.329-.3594zm1.0528.1192c0-.1448-.0522-.2632-.1161-.2632-.0638 0-.1892.1184-.2787.2632-.0895.1447-.0372.2632.1161.2632s.2787-.1185.2787-.2632zm3.9482-.2632c0-.1448-.0522-.2632-.1161-.2632-.0638 0-.1892.1184-.2787.2632-.0895.1447-.0372.2632.1161.2632s.2787-.1185.2787-.2632zm-2.7273-1.4477c-.1763-.4595.4949-.5497.7706-.1035.1269.2053.2418.1914.3893-.0473.3356-.5431 1.1171-.5319 1.8858.027.8909.6478.982.6469.8107-.0079-.1552-.5937.1788-.6913.6764-.1974.2657.2638.298.2411.1627-.1142-.2512-.6602-2.2372-1.2422-3.7137-1.0884-1.6441.1714-3.4408 1.0569-3.0127 1.4849.2319.2319.364.2109.5483-.0871.2113-.3419.3022-.3331.7034.068.5648.5646.9842.6001.7792.0658zm29.831-.1419c-.5065-.3204-1.4983-.3334-1.1637-.0153.2812.2673 1.237.5068 1.4269.3576.0682-.0536-.0503-.2076-.2632-.3422zm11.589-.0858c1.3753-.3337 2.4796-.7151 2.454-.8475-.0256-.1325-.6142-.3862-1.3081-.5637-1.189-.3042-1.3-.287-1.9276.299-.3663.3419-1.0509.816-1.5214 1.0534-.4705.2373-.8554.4878-.8554.5564 0 .2181.5949.1244 3.1586-.4976zm-6.3171.0961c0-.1448-.2299-.2632-.5109-.2632s-.5841.1184-.6735.2632c-.0923.1492.1288.2632.5108.2632.3705 0 .6736-.1185.6736-.2632zm3.4298-.6924c.1895-.1895-1.1322-.2621-1.5874-.0872-.0724.0278-.3389.0295-.5922.0037-.4392-.0447-.6176.2679-.3218.5637.1911.1912 2.2193-.1982 2.5014-.4802zm-7.9701-.699c.2107.0763.2716-.0308.1693-.2975-.2067-.5387.1443-.5298.9343.0235.3457.2422.5478.3096.4491.1498-.2838-.4592.2598-.6276.621-.1924.4326.5211.8123.5002.6075-.0335-.1391-.3624-.0793-.3806.4031-.1224.4623.2474.5663.2308.5663-.0907 0-.2883.2645-.3808.987-.3451.5429.0268 1.1403-.0472 1.3276-.1645.1961-.1228.514-.0694.7492.1258.3523.2924.396.2517.3174-.2957-.2589-1.8047-6.5836-1.1329-7.9701.8466-.5515.7874-.5237 1.1765.0484.6781.2534-.2207.6088-.3476.7899-.282zm9.7105-.3195c.4285-.4286.3648-.4822-.2793-.2351-.229.0879-.4163.2656-.4163.3948 0 .3448.2481.2877.6956-.1597zm-.8354-.6448c.1704-.2757-.8699-.9338-1.1047-.699-.1743.1744.4254.949.7348.949.1185 0 .285-.1125.3699-.25zm-15.916-.2765c0-.1447-.1254-.2632-.2787-.2632-.1534 0-.2056.1185-.1161.2632.0895.1448.2149.2632.2787.2632s.1161-.1184.1161-.2632zm-19.215-.7411c0-.1182-.4613-.4741-1.0252-.791-.5638-.3169-1.0842-.7301-1.1564-.9182-.0942-.2455-.8543-.3497-2.6917-.3691-2.1307-.0225-2.4999.0315-2.1995.3215.1985.1917 1.3824.5371 2.6308.7675 1.2484.2303 2.729.5872 3.2902.7929s1.05.3823 1.0862.3926c.0362.0101.0658-.0781.0658-.1962zm-19.064-2.7934c.4733-.4733.4768-.6769.0119-.6769-.2003 0-.4261.2369-.5018.5264-.1627.6224-.0245.6648.4899.1505zm13.617-.5847c-.1403-.3657-.0457-.4038.6-.2418.4216.1058.679.1049.5719-.0021-.107-.107-.0585-.3585.1079-.559.425-.5121-.1555-1.1253-.6229-.6579-.4289.429-.8816.3968-1.3762-.0977-.2275-.2275-.4136-.2867-.4136-.1317 0 .1552-.1311.2821-.2914.2821-.1602 0-.2202-.1855-.1332-.4121.1213-.3163.0362-.3733-.3667-.2455-.3899.1238-.5293.0437-.5426-.3118-.0137-.3679-.0864-.3265-.3149.1797-.1634.3619-.3218.6961-.352.7427s-.3051-.1296-.611-.3915c-.3297-.2823-.865-.4438-1.315-.3966-.4173.0438-.8368-.0465-.9321-.2007-.0953-.1543-.0478-.2804.1055-.2804s.2788-.1311.2788-.2914c0-.1602-.1641-.2284-.3646-.1514-.2006.0769-.6151-.0356-.9213-.25-.5067-.355-.5566-.3462-.5566.098 0 1.0229 3.2315 3.4342 3.6642 2.7342.2097-.3393 2.2221.0489 2.9752.574.7798.5436 1.0163.5469.8106.011zm-2.1858-.0922c0-.1447-.1847-.2632-.4103-.2632-.2257 0-.3372.1185-.2477.2632.0895.1448.2741.2632.4103.2632.1363 0 .2477-.1184.2477-.2632zm4.4746.0439c0-.3427-.3129-.5707-.5674-.4133-.2722.1682-.0375.6326.3197.6326.1363 0 .2477-.0987.2477-.2193zm2.2373-.3071c.0895-.1447-.0812-.2632-.3793-.2632s-.5419.1184-.5419.2632.1706.2632.3792.2632.4525-.1184.542-.2632z"/>
  </g>
  <g stroke-width=".2632">
    <path d="M132.82 73.958c-.337-.218-.328-.256.066-.259.253-.002.46.114.46.259 0 .321-.029.321-.526 0zm3.9 3.15c-.895-.473-1.517-1.044-1.138-1.044.313 0 2.236 1.188 2.238 1.382.003.252.04.264-1.1-.338zm11.76 1.7c3.327-.442 4.188-.431 1.974.025-.941.194-2.362.347-3.158.339-1.207-.012-1.01-.072 1.184-.364zm-5.73.48c.467-.058 1.296-.059 1.843-.002.546.057.163.105-.85.106s-1.46-.046-.993-.104zm3.3-5.32c-1.062-.504-1.097-.794-.086-.722.521.037.821.225.911.57.168.642.196.637-.825.152zm-4.54.25c0-.145.112-.263.248-.263s.321.118.41.263-.022.263-.248.263c-.225 0-.41-.118-.41-.263zm6.49.11c-.268-.367-.406-.748-.307-.847.214-.214.925.698.925 1.187 0 .464-.054.435-.618-.34zm-2.08 1.82c-.692-.185-.554-.611.197-.611h.856c.108 0 .197.146.197.325 0 .357-.531.478-1.25.286zm-2.57.72c0-.133.148-.29.328-.351.201-.067-.024-.43-.585-.943-.51-.466-.748-.834-.54-.834.205 0 .701.314 1.1.697.577.553.673.797.466 1.184-.271.508-.769.667-.769.247z"/>
    <path d="M136.02 79.088c-2.452-1.142-5.059-3.362-5.848-4.98-.608-1.249-.624-1.464-.11-1.464.217 0 .395.168.395.372 0 .987 5.852 4.892 7.331 4.892.419 0 1.266-.178 1.882-.395.615-.217 1.4-.394 1.744-.394.858 0 .794-.173-.479-1.303-1.02-.905-1.185-.964-2.172-.78-2.137.398-4.279.357-4.727-.091-.608-.609-.516-.796.172-.348.488.319.963.34 2.698.121 2.803-.353 2.846-.37 2.467-.976-.265-.426-.691-.501-3.098-.548-1.535-.03-3.442-.144-4.239-.255l-1.447-.201 1.71-.168c.942-.093 4.715-.229 8.386-.301 6.401-.128 6.72-.11 7.765.42 2.597 1.318 5.959 3.975 5.959 4.708 0 .544-.753 1.053-1.496 1.011-.268-.015-.102-.148.378-.302.47-.15.855-.435.855-.631 0-.427-.283-.439-2.135-.087-2.275.431-5.847.781-10.362 1.014-4.659.24-4.763.219-7.46-1.515-1.845-1.185-2.03-.877-.265.44 1.696 1.266 2.903 1.897 3.626 1.897.297 0 .54.119.54.264 0 .414-.549.309-2.071-.4zm12.521-1.823c2.201-.2 4.133-.445 4.293-.544.304-.188-2.39-2.204-4.479-3.351-1.138-.625-1.297-.642-4.079-.442-1.593.115-3.222.216-3.62.226-.398.009-.723.124-.723.256s.481.848 1.069 1.592c.823 1.042 1.186 1.315 1.579 1.19.623-.198.702.439.115.926-.681.566-.435.785.724.645.615-.074 2.92-.298 5.121-.498zm-16.928-2.1c-.079-.206-.335-.448-.569-.538-.35-.134-.339-.067.061.374.573.634.705.676.508.164zM177.3 8.4381c0-.732.118-1.332.263-1.332s.263.237.263.527c0 .351.176.526.527.526s.526-.175.526-.526c0-.29.119-.527.263-.527.145 0 .264.593.264 1.317 0 .723-.119 1.316-.264 1.316-.144 0-.249-.089-.232-.198.092-.582-.086-.855-.557-.855-.29 0-.527.17-.527.379s-.118.453-.263.542c-.162.1-.263-.348-.263-1.169zm-6.43.7c.33-1.096.966-2.299 1.153-2.184.339.21 1.423 2.514 1.259 2.678-.089.088-.353-.031-.587-.265-.534-.534-1.148-.548-1.346-.032-.244.634-.676.455-.479-.197zm19.21.53c-.56-1.832-.177-3.042.859-2.713 1.338.425 1.797 1.779.882 2.606-.567.514-1.597.577-1.741.107zm1.696-.975c0-.591-.364-1.065-.817-1.065-.372 0-.499.19-.499.746 0 .41.075.82.167.912.207.208 1.149-.278 1.149-.593zm-4.556 1.125c-.219-.219-.23-2.008-.016-2.567.198-.515 2.052-.601 1.881-.087-.06.181-.455.392-.878.469-.728.133-.74.157-.241.461.496.302.499.336.06.6-.6.359-.343.773.482.773.353 0 .642.119.642.263 0 .292-1.651.367-1.93.088zm-3.66.03c-.109-.11-.197-.773-.197-1.473 0-1.486.569-1.757 1.013-.482.151.434.385.789.52.789s.392-.355.572-.789c.546-1.318 1.053-1.001 1.053.658 0 1.409-.405 2.025-.574.872-.082-.564-.094-.565-.577-.081-.46.462-.514.465-.818.049-.431-.588-.609-.562-.71.106-.047.303-.173.461-.282.351zm-3.34-.25c-.008-.555.909-2.764 1.148-2.764.224 0 1.514 2.671 1.363 2.821-.075.076-.328-.054-.563-.289-.584-.584-1.038-.534-1.527.166-.392.562-.413.565-.421.066zm-5.82 0c-.404-.486-.114-.876.325-.437.383.383 1.26.412 1.26.042 0-.148-.272-.373-.604-.499-.331-.126-.765-.425-.964-.665-.308-.371-.3-.496.054-.851.527-.526 1.777-.267 1.777.368 0 .344-.071.373-.316.127-.428-.428-1-.399-1 .05 0 .202.301.442.669.535.802.201 1.091.801.644 1.34-.421.507-1.42.502-1.845-.01zm-8.23.2c-.239-.427-.155-2.284.118-2.613.376-.453 1.889-.47 1.737-.019-.06.181-.299.33-.529.332-.699.006-.843.374-.306.781.48.363.482.384.025.392-.662.011-.404.646.305.75.315.047.572.195.572.33 0 .29-1.762.333-1.922.047zm-2.9.02c-.097-.097-.175-.752-.175-1.456 0-1.425.395-1.791 1.426-1.322.694.317 1.115 2.034.638 2.608-.298.36-1.584.475-1.889.17zm1.524-.596c.084-.135.026-.323-.129-.418-.389-.241-1.113.075-.914.398.206.333.842.345 1.043.02zm-.12-1.319c0-.355-.48-.601-.794-.407-.147.091-.2.275-.116.41.197.32.91.318.91-.003zm-6.434.955c-.301-2.006.388-2.574 1.786-1.474 1.215.955.618 2.613-.942 2.613-.592 0-.694-.138-.844-1.139zm1.68.23c.481-.58.084-1.508-.605-1.41-.4.057-.546.238-.491.608.188 1.26.516 1.501 1.096.802zm-4.02.73c-.27-.27-.208-2.669.073-2.842.139-.086.284.4.329 1.103.069 1.073.167 1.269.673 1.34.326.047.592.195.592.33 0 .278-1.4.336-1.667.069zm-6.04-.19c-.669-.508-.598-1.876.124-2.382.753-.528.887-.517 1.521.116.657.657.677 1.625.045 2.197-.576.521-1.068.541-1.69.069zm1.371-.542c.482-.58.084-1.508-.604-1.41-.959.137-.848 1.764.122 1.788.091.002.308-.168.482-.378zm-2.981.262c-.209-.833-1.211-.952-1.211-.144 0 .29-.118.527-.263.527s-.263-.474-.263-1.053-.009-1.139-.02-1.244.107-.233.263-.285.283.152.283.454c0 .373.168.548.526.548.346 0 .527-.175.527-.511 0-.578.507-1.022.561-.491.053.53-.069 2.703-.157 2.791-.043.043-.153-.223-.246-.592zm-4.64.25c-.404-.486-.114-.876.325-.437.383.383 1.26.412 1.26.042 0-.148-.272-.373-.603-.499-.332-.126-.766-.425-.965-.665-.308-.371-.301-.496.054-.851.502-.502 1.777-.273 1.777.318 0 .323-.091.335-.515.071-.283-.177-.608-.223-.723-.103-.116.12.011.352.282.516.27.164.729.483 1.019.708.495.385.5.437.081.856-.554.554-1.55.576-1.992.044zm-4.82.22c-.219-.219-.23-2.008-.016-2.567.198-.515 2.051-.601 1.882-.087-.06.181-.366.367-.68.413-.628.092-.76.454-.243.664.255.103.247.191-.034.387-.448.314-.142.88.421.78.228-.04.466.076.529.256.122.35-1.527.486-1.859.154zm-2.79-.33c-.752-.752-.697-1.745.126-2.285.536-.351.798-.379 1.316-.143.947.431.791.765-.34.731-.825-.025-1 .064-1.068.544-.095.668.726 1.227 1.414.962.315-.121.414-.061.328.199-.194.589-1.183.585-1.776-.008zm-1.42.33c-.281-.281-.202-2.72.088-2.72.145 0 .263.652.263 1.448 0 1.464-.034 1.589-.351 1.272zm-3.57-1.01c-.672-1.43-1.084-1.522-1.006-.224.032.527-.072 1.005-.231 1.061-.197.07-.281-.589-.264-2.054.015-1.187.145-2.194.29-2.238.145-.045.605.685 1.024 1.622s.85 1.703.959 1.703.493-.735.852-1.634c.959-2.397 1.245-2.268 1.245.559 0 1.419-.107 2.391-.264 2.391-.259 0-.364-.506-.281-1.358.086-.868-.523-.776-.905.137-.562 1.347-.8 1.353-1.419.035zm21.99.97c-.475-.525-.614-2.677-.172-2.677.144 0 .263.459.263 1.02 0 1.214.568 1.86 1.184 1.349.227-.188.395-.762.395-1.349 0-.561.119-1.02.263-1.02.501 0 .293 2.076-.263 2.632-.653.653-1.108.666-1.67.045zm36.46 5.1499.08-1.382.891.043c1.062.051 1.476.561.938 1.156-.496.548-.481.773.079 1.198.597.454-.007.483-.762.038-.446-.263-.581-.263-.676 0-.299.824-.622.203-.55-1.053zm1.397-.462c.09-.146-.027-.339-.259-.428-.504-.193-.785.02-.543.412.219.354.588.361.802.016zm-4.527.992c.78-2.117 1.097-2.185 2.011-.43.627 1.202.54 1.604-.201.933-.598-.541-.941-.552-1.363-.042-.555.668-.778.438-.447-.461zm-11.08-.53c.071-1.225.15-1.392.702-1.47.343-.048.751.04.908.197.205.206.086.286-.425.286-.763 0-.965.445-.316.694.217.084.395.258.395.387s-.178.235-.395.235c-.219 0-.395.234-.395.526 0 .29-.124.527-.277.527-.168 0-.246-.54-.197-1.382zm-2.68.1c0-.932.115-1.332.416-1.448.642-.246 1.426-.189 1.426.104 0 .145-.236.263-.526.263-.648 0-.701.704-.066.874.39.104.37.152-.131.313-.338.109-.593.404-.593.686 0 .273-.118.496-.263.496s-.263-.58-.263-1.288zm-7.11.25c0-.713-.145-1.124-.461-1.308-.365-.213-.227-.27.665-.276l1.124-.008-.423.646c-.233.356-.354.759-.269.898.196.316-.088 1.088-.401 1.088-.129 0-.235-.468-.235-1.04zm-3.72.88c-.257-.506-.083-2.308.234-2.414.193-.064.329.117.329.439 0 .373.168.548.526.548.351 0 .527-.175.527-.526 0-.29.118-.527.263-.527s.263.599.263 1.332c0 .821-.101 1.269-.263 1.169-.145-.09-.263-.334-.263-.542 0-.604-1.045-.447-1.281.192-.117.314-.267.462-.335.329zm-9.82-.44c.308-.998.906-2.04 1.17-2.04.276 0 1.315 1.896 1.315 2.399 0 .194-.195.138-.508-.145-.511-.462-1.598-.372-1.598.133 0 .135-.126.245-.281.245-.17 0-.209-.234-.098-.592zm-11.73-.72c0-1.497.445-1.749 1.16-.658.237.362.547.658.689.658.141 0 .257-.296.257-.658s.122-.658.27-.658c.285 0 .198 2.252-.098 2.548-.091.09-.412-.15-.714-.534-.688-.875-1.038-.888-1.038-.04 0 .362-.118.658-.263.658s-.263-.592-.263-1.316zm-1.05 0c0-.724.119-1.316.263-1.316.145 0 .263.592.263 1.316s-.118 1.316-.263 1.316c-.144 0-.263-.592-.263-1.316zm-2.11.28c0-.713-.145-1.124-.461-1.308-.361-.211-.206-.268.724-.268 1.041 0 1.129.043.724.35-.29.22-.461.704-.461 1.308 0 .527-.118.958-.263.958s-.263-.468-.263-1.04zm-2.89-.03c0-.855-.115-1.108-.592-1.299-.473-.19-.327-.24.724-.247 1.149-.007 1.257.036.855.342-.29.22-.461.704-.461 1.307 0 .527-.118.958-.263.958s-.263-.477-.263-1.061zm-11.58-.22c0-.932.115-1.332.416-1.448.642-.246 1.427-.189 1.427.104 0 .145-.23.263-.511.263-.732 0-.963.535-.306.706.703.184.722.61.027.61-.351 0-.526.176-.526.526 0 .29-.119.527-.264.527-.144 0-.263-.58-.263-1.288zm78.6 1.37c-.093-.093-.168-.418-.168-.724 0-.305-.19-.826-.422-1.158-.511-.729-.253-1.134.269-.42.35.479.393.481.874.046.798-.722.893-.54.306.586-.299.574-.473 1.158-.387 1.298.185.298-.224.62-.472.372zm-3.8-1.34c.067-1.284.159-1.524.605-1.581.858-.109 1.244.332 1.346 1.537.106 1.257-.135 1.547-1.293 1.553-.731.004-.736-.007-.658-1.509zm1.527.592c0-.219-.234-.395-.527-.395-.292 0-.526.176-.526.395 0 .22.234.395.526.395.293 0 .527-.175.527-.395zm-.499-1.525c-.338-.338-.681-.077-.431.328.097.156.297.21.444.119.18-.111.176-.258-.013-.447zm-5.768 2.133c-.468-.468-.406-2.488.081-2.675.86-.33 2.235.69 2.235 1.657 0 .451-1.01 1.334-1.526 1.334-.261 0-.616-.142-.79-.316zm1.365-.613c.462-.462.307-1.08-.361-1.438-.582-.311-.793-.101-.793.788 0 1.1.45 1.354 1.154.65zm-14.135.453c-1.039-1.149.09-3.119 1.389-2.423.791.423.667.725-.242.592-.89-.13-1.334.496-.873 1.229.418.663 1.046.654 1.222-.018.123-.47.226-.531.475-.282s.213.434-.164.851c-.598.661-1.239.679-1.807.051zm-9.86.07c-1.082-.758-.574-2.486.731-2.486 1.206 0 1.787 1.598.903 2.482-.521.521-.895.521-1.634.004zm1.475-.858c.124-.868-.405-1.423-1.035-1.086-.568.304-.653 1.041-.175 1.519.481.481 1.112.255 1.21-.433zm-12.835.688c-.624-.67-.637-.758-.233-1.644.365-.803 1.066-1.069 1.792-.681.786.421.677.836-.139.526-.876-.334-.84-.342-1.167.269-.2.374-.2.679 0 1.053.325.607 1.053.709 1.053.147 0-.525.513-.792.859-.446.207.207.152.435-.196.819-.624.691-1.299.676-1.969-.043zm-9.29.3c-1.44-.839-.946-2.613.727-2.613.647 0 .915.118.915.404 0 .318-.109.346-.507.133-.703-.376-1.336-.071-1.336.644 0 .871.693 1.375 1.338.973.408-.255.505-.245.505.053 0 .623-.891.844-1.642.406zm-5.55-.2c-.573-.633-.551-1.423.06-2.178.437-.54.576-.575 1.184-.298.379.173.689.439.689.592 0 .191-.169.187-.543-.013-1.047-.56-1.801.845-.868 1.619.372.308.483.279.811-.215.221-.333.541-.51.767-.423.317.121.28.264-.198.773-.703.748-1.313.794-1.902.143zm-13.16.3c-.263-.263-.212-2.667.061-2.835.13-.08.633-.062 1.118.039l.883.185-.768.143c-.814.151-1.277.801-.57.801.528 0 .543.421.022.622-.684.262-.429.694.41.694.47 0 .737.11.642.263-.181.295-1.526.36-1.798.088zm-3.19-.24c-.775-.774-.29-2.745.675-2.745.442 0 1.28.53 1.28.808 0 .173-.174.17-.507-.008-.279-.149-.694-.2-.921-.113-.547.21-.545 1.575.002 1.785.586.225.636.208.636-.219 0-.522.345-.688.803-.388.318.21.278.338-.24.773-.75.629-1.18.655-1.728.107zm-7.58.14c-.536-.312-.631-1.809-.145-2.295.174-.174.644-.316 1.044-.316 1.204 0 1.723 1.616.791 2.46-.547.495-1.026.538-1.69.151zm1.329-.558c.467-.467.384-1.209-.17-1.505-.334-.179-.581-.166-.79.043-.404.404-.387 1.437.026 1.604.514.207.598.195.934-.142zm62.051.518c-.433-.618-.57-2.574-.181-2.574.125 0 .294.489.374 1.085.08.597.268 1.208.418 1.358.48.479 1.085-.314 1.085-1.422 0-.561.118-1.021.263-1.021.416 0 .306 1.928-.146 2.574-.226.322-.633.585-.907.585-.273 0-.681-.263-.906-.585zm-27.41.38c-.764-.51-1.203-2.473-.632-2.825.152-.094.264.153.264.583 0 .411.188 1.016.418 1.345.579.826 1.161.305 1.161-1.04 0-.561.118-1.02.263-1.02s.263.514.263 1.144c0 1.48-.872 2.39-1.737 1.813zm33.06 5.73c0-.145.119-.263.263-.263.145 0 .263.118.263.263s-.118.263-.263.263a.264.264 0 0 1-.263-.263zm-10.62.09c-.219-.219-.23-1.746-.016-2.304.33-.858.63-.367.63 1.032 0 1.341-.177 1.709-.614 1.272zm-2.77-1.04c-.325-.669-.517-1.291-.426-1.382.204-.203.912.729.912 1.201 0 .644.553.348.829-.445.263-.756.75-1.09.75-.516 0 .427-1.039 2.358-1.269 2.358-.113 0-.471-.547-.796-1.216zm-23.2-.22c0-.805.096-1.463.214-1.463.117 0 .479.358.803.797.324.438.703.726.843.64.14-.087.187-.267.104-.4-.082-.134-.029-.452.12-.706.206-.355.271-.105.277 1.066.008 1.587-.217 1.736-.994.659-.45-.623-.841-.608-.841.034 0 .281-.118.584-.263.674-.163.101-.263-.393-.263-1.301zm-3.95-.02c0-1.407.405-2.025.574-.876.127.861.698.883 1.054.042l.316-.745.098.719c.054.395.049 1.106-.011 1.579-.099.78-.127.805-.311.268-.257-.753-1.194-.804-1.194-.066 0 .29-.118.527-.263.527s-.263-.652-.263-1.448zm-2.1.38c0-.856-.108-1.106-.526-1.215-.944-.247-.555-.603.658-.603 1.161 0 1.57.322.789.622-.26.1-.395.512-.395 1.212 0 .584-.118 1.061-.263 1.061s-.263-.484-.263-1.077zm39.97.82c-.682-.568-.264-.727.56-.213.372.233.596.243.803.036.207-.206.025-.441-.652-.84-.976-.576-1.222-1.268-.542-1.529.645-.248 1.71.139 1.71.621 0 .344-.07.372-.316.126-.356-.356-1.263-.429-1.263-.101 0 .118.415.412.921.654.957.456 1.146.907.606 1.448-.461.46-1.119.387-1.827-.202zm-6.43-.13c-.786-.786-.794-.937-.101-1.819.667-.847 1.395-.888 1.941-.109.551.788.515 1.415-.117 2.048-.682.681-.94.663-1.723-.12zm1.67-.825c.095-.67-.515-1.23-1.098-1.006-.43.165-.59 1.174-.242 1.523.372.372 1.262.028 1.34-.517zm-9.31 1.105c-.077-.201-.103-.882-.057-1.513.069-.97.177-1.163.689-1.235.333-.048.762.043.953.201.475.394.729 2.138.373 2.566-.379.457-1.78.444-1.958-.019zm1.586-.395c.239-.387-.616-.949-.944-.621-.155.155-.202.411-.105.568.213.345.848.377 1.049.053zm-.245-1.609c-.09-.145-.333-.263-.542-.263s-.379.118-.379.263.244.263.542.263.468-.118.379-.263zm-4.161 1.904c-.593-.656-.565-1.71.061-2.276.67-.607 1.357-.442 1.853.445.363.648.363.795 0 1.445-.492.883-1.314 1.049-1.914.386zm1.556-.694c.196-.509-.35-1.468-.835-1.468-.516 0-.928 1.079-.578 1.513.358.445 1.236.417 1.413-.045zm-6.676.724c-.741-.521-.763-1.498-.05-2.211.68-.68 1.225-.582 1.916.345l.54.724-.54.724c-.651.873-1.082.969-1.866.418zm1.582-.681c.217-.569-.298-1.559-.763-1.468-.583.115-1.007.836-.803 1.366.193.504 1.384.581 1.566.102zm-4.842.601c-.682-.568-.264-.727.56-.213.372.233.596.243.803.036.206-.206.019-.444-.67-.851-.625-.368-.927-.724-.87-1.023.115-.609 1.34-.74 1.796-.192.313.378.274.405-.352.248-.916-.23-.948.327-.039.673.81.308 1.085.922.648 1.448-.445.537-1.136.491-1.876-.126zm-5.18-.02c-.68-.633-.729-1.234-.166-2.037.481-.687 1.481-.765 1.987-.156.32.385.274.411-.452.252-.958-.211-1.554.32-1.291 1.149.197.619 1.188.739 1.188.144 0-.219.235-.395.527-.395.69 0 .665.305-.083 1.007-.754.708-.983.713-1.71.036zm-4.52-.99c-.003-1.041.094-1.6.259-1.498.336.208.336 2.244 0 2.764-.179.278-.256-.097-.259-1.266zm-8.51 1.35c-.097-.097-.176-.807-.176-1.579v-1.405h1.069c.645 0 1.004.104.906.263-.09.145-.452.263-.806.263-.737 0-.916.785-.181.798.438.008.438.025 0 .358-.633.48-.578.687.181.687.354 0 .708.106.789.235.263.427-1.384.777-1.782.379zm-1.42-.36c-.132-.505-.169-.511-.628-.096-.449.407-.5.408-.653.011-.207-.54-.635-.564-.635-.036 0 .217-.118.395-.263.395s-.263-.652-.263-1.448c0-1.611.294-1.854.792-.652.476 1.149.702 1.174 1.196.132.242-.51.545-.928.674-.928.128 0 .233.711.233 1.58 0 1.59-.193 2.035-.453 1.042zm-5.29 0c-.722-.673-.734-1.411-.033-2.112.71-.71 1.602-.561 2.033.341.27.565.276.846.029 1.316-.592 1.123-1.172 1.253-2.029.455zm1.69-.627c.195-.509-.351-1.468-.836-1.468-.437 0-.905.999-.709 1.513.171.451 1.368.416 1.545-.045zm-4.94.647c-.682-.568-.264-.727.56-.213.372.233.596.243.803.036.207-.206.019-.444-.67-.851-1.184-.698-1.167-1.444.036-1.561.546-.054.871.053.973.32.124.321 0 .369-.624.244-1.028-.205-1.016.302.015.662 1.005.35 1.3 1.046.647 1.524-.659.482-1.007.45-1.74-.161zm50.3.23c-.539-.539-.732-2.613-.244-2.613.145 0 .264.346.264.769 0 1.096.248 1.6.789 1.6s.79-.504.79-1.6c0-.423.118-.769.263-.769.33 0 .343 1.336.02 2.185-.329.864-1.238 1.072-1.882.428zm-5.98 19.98c-.433-.433-.408-.873.071-1.271.527-.438 1.242.128 1.132.895-.092.639-.738.841-1.203.376zm-10.32 2.51c-5.926-1.972-9.969-5.532-12.888-11.349-1.149-2.29-2.17-5.061-1.864-5.061.1 0 .575.918 1.058 2.04 2.383 5.543 5.333 9.389 8.998 11.732 1.326.848 4.725 2.369 5.881 2.631.414.094.386.121-.132.129-.362.005-.835-.05-1.053-.122zm20.28 1.12c-.482-.581-.105-1.473.623-1.473.827 0 1.387.695 1.025 1.272-.367.585-1.241.691-1.648.201z"/>
    <path d="m146.97 90.608-34.41-.068c-.397.0129-.905-.0284-1.077-.4712-.225-1.1429-.25-3.6348-.25-46.229V1.7858l1.79-1.7898 98.563-.0097c.297.0809.881.1521 1.051.4959.166.33.104 1.5855.144 2.289l.455 42.75c-.105 8.1265.922 43.203-.215 44.822-.239.4678-4.567.4835-16.876.3965-8.121-.058-30.249-.096-49.174-.133zm29.634-1.5627c.09-.542.164-5.4493.166-8.9533l.003-6.37 1.21-3.369c1.127-3.137 2.951-9.64 3.381-12.055.27-1.511-.168-.944-1.279 1.656-1.169 2.736-2.813 5.521-3.84 6.505-1.059 1.015-.993.56.169-1.166 2.257-3.352 5.887-11.56 5.887-13.312 0-.187-.563-.701-1.251-1.143-6.125-3.933-7.986-10.887-4.413-16.493 1.124-1.763 3.791-4.187 5.622-5.111 2.736-1.38 4.818-1.868 7.768-1.824l2.67.041-2.5.187c-4.92.368-8.049 1.675-10.951 4.575-1.976 1.974-2.855 3.396-3.431 5.554-1.617 6.054 2.664 12.311 9.826 14.359 6.014 1.719 14.168-.742 17.104-5.163 3.989-6.008.29-16.229-6.813-18.825-1.579-.815-1.986-.424-2.049-.789 0-.765 4.378 1.026 6.241 2.553 1.996 1.635 3.774 4.769 4.572 8.057.473 1.95.203 6.386-.481 7.901-.733 1.625-2.991 4.004-4.739 4.993-.76.43-1.382.838-1.382.907s.34.62.756 1.225c.987 1.438 2.771 4.986 3.288 6.538 1.11 3.336 1.912 9.664 1.274 10.059-.292.18-.305.11-.841-4.529-.26-2.252-.706-4.371-1.202-5.703-.634-1.706-2.566-5.477-2.667-5.206-.066.177.415 1.979 1.07 4.005 1.222 3.779 1.54 5.173 2.015 8.834.62 4.774.842 7.977 1.005 14.477l.172 8.4393h9.546v-21.337c0-10.858-.065-30.164-.132-42.904l-.131-24.806-49.818-.034c-31.829-.0226-49.931.0553-50.149.2296-.256.2053-.329 5.162-.329 16.602v14.696l4.48 1.92c2.549 1.732 3.582 2.813 2.648 2.774-.189-.008-1.439.004-2.778.027l-4.086.041v42.904h4.926c1.801 0 3.36.052 3.425-.057.065-.108-.085-1.937-.294-3.891-.265-2.481-.406-7.725-.468-17.372-.049-7.6-.155-15.536-.235-17.635-.101-2.636-.072-3.45.094-2.632.335 1.652.765 12.407.775 19.412.005 3.221.366 12.795.366 12.795s10.699.03 15.327.168c6.828 0 14.904.417 16.033.828.435.158 1.264.496 1.843.751.579.256 4.31 1.849 8.291 3.542 3.981 1.692 7.328 3.164 7.438 3.27.11.107.276 2.23.37 4.719l.171 6.1213h6.166zm25.532.066c-.02-.434-.058-5.0923-.083-8.4013l-.047-6.015-.574.142c-.316.079-1.266.392-2.11.696-5.754 2.074-14.158 2.299-19.464.522-1.279-.428-2.349-.779-2.377-.779-.028.001-.055 2.963-.061 6.583l-.011 8.1793 12.382-.069 12.382-.068zM169.271 83.83c0-3.555-.06-4.198-.384-4.127-.598.131-5.728.541-10.802.864-4.902.311-19.351.401-34.81.217l-11.062-.112v3.334c0 1.834-.1 5.1494-.02 5.3825.146.4274 3.864.3778 29.215.3168l27.863-.067zm-13.424-4.234c6.37-.229 11.631-.466 11.691-.526.176-.176.195-.167-6.953-3.275-3.764-1.636-7.258-3.208-7.765-3.493-1.442-.811-7.818-1.038-27.703-.986l-4.409.012c.025 5.27.654 8.642.654 8.642 11.879.437 24.129-.013 34.485-.374zm35.961-3.27c3.202-.303 6.269-1.026 8.301-1.957l1.406-.643-.015-1.397c-.051-1.868-.861-7.242-1.04-8.38-.118-.751-.438-2.79-1.875-7.181-.56-1.71-1.02-3.309-1.022-3.553-.007-.761-.437-1.236-.832-.92-.565.454-3.599 1.076-6.008 1.233-2.144.14-3.93-.174-7.269-1.274-.529-.175-.573-.054-.872 2.404-.717 5.887-2.742 13.588-4.61 17.536-.396.838-.656 1.692-.578 1.896.343.895 3.329 1.864 6.881 2.233 2.81.293 4.477.293 7.533.003zM118.195 36.08c-.835-.801-5.859-2.892-5.937-2.657-.052.156.057.465.243.689.208.251.239.473.082.583-.141.098-.252.503-.247.901l.009.724h3.876c1.346 0 2.125-.095 1.974-.24z"/>
    <path d="M182.66 50.078c-.93-.238-3.053-1.696-3.053-2.097 0-.32.168-.286.856.172 2.874 1.914 4.553 1.566 3.779-.782-.214-.649-.504-.944-1.081-1.101-.928-.253-2.121-.057-2.984.491-.834.528-1.117.163-.354-.456 1.214-.984 3.75-.984 4.64-.001.249.275.517.974.594 1.554.119.887.034 1.16-.536 1.731-.674.674-.903.734-1.861.489z"/>
  </g>
  <g stroke-width=".2632">
    <path d="M162.44 138.03c-.262-.683.105-1.247.752-1.156.435.062.593.26.593.743 0 .482-.158.68-.593.742-.356.051-.657-.081-.752-.329zm-13.51 2.26c-.337-.63.217-1.448.891-1.315.624.122 1.061.827.851 1.375-.227.589-1.417.548-1.742-.06zm37.48 34.8c.105-.561.303-1.157.44-1.323.621-.751 1.124-9.933.622-11.355-.169-.479.665-.736.947-.291.637 1.006-.02 9.623-.926 12.139-.686 1.908-1.385 2.443-1.083.83zm-17.76-6.94c.51-.33.79-.33.79 0 0 .145-.267.261-.593.259-.479-.003-.516-.053-.197-.259z"/>
    <path d="M168.65 169.57c-1.23-.324-2.563-.599-2.961-.611-1.081-.033-.878-.454.526-1.091 3.007-1.364 4.836-2.056 4.75-1.796-.051.153-1.096.693-2.323 1.199-1.226.506-2.334 1.02-2.461 1.143-.129.124.22.303.79.404 1.454.258 3.84.876 4 1.036.334.334-.237.264-2.321-.284zm-9.21 1.09c0-.191 2.037-1.19 2.424-1.189.187 0-.243.297-.955.658-1.37.695-1.469.731-1.469.531z"/>
    <path d="M161.12 172.91c-3.692-.845-4.044-.96-4.044-1.328 0-.32.706-.369.834-.059.048.118 1.627.531 3.509.919l3.422.705 2.103-1.05c1.156-.577 2.282-1.054 2.501-1.058.943-.019-.59-.542-2.638-.899-2.73-.477-3.074-.789-.602-.545 2.001.197 3.828.709 3.962 1.111.064.191-4.457 2.498-5.589 2.853-.145.045-1.701-.247-3.458-.649zm-17.47 3.83c0-.182 5.049-2.315 5.177-2.187s-.134.262-3.145 1.603c-1.42.633-2.032.809-2.032.584zm5.26.14c0-.318.499-.689.682-.506.066.066-.06.27-.281.453-.25.208-.401.228-.401.053zm7.64-.48c-3.015-1.122-3.367-1.258-4.211-1.627-.63-.276-.624-.281.131-.122.874.184 6.083 2.099 6.71 2.467.781.457-.169.198-2.63-.718zm-12.51 1.6-.79-.678.922.594c1.181.763 1.184.765.899.764-.133 0-.597-.307-1.031-.68zm8.13 1.83c-.599-.212-1.546-.805-2.106-1.318l-1.017-.932 2.369 1.273.866-.987c.951-1.083.893-1.197-.796-1.562-1.088-.235-1.079-.238.285-.106 1.374.133 3.263.729 3.922 1.238.181.14.329.596.329 1.015 0 .577-.207.888-.855 1.283-.996.607-1.509.624-2.997.096zm1.681-.404c-.517-.189-.724-.447-.724-.901 0-.792-.429-.833-.673-.064-.219.692.286 1.133 1.365 1.191l.756.04zm-1.431 2.134c-1.109-.219-4.792-1.613-5.581-2.112-.637-.402.527-.075 2.562.72.922.36 2.639.872 3.817 1.138 2.152.487 1.472.703-.798.254zm3.74.28c-.091-.147-.045-.268.101-.268.147 0 1.001-.713 1.897-1.585.896-.871 1.666-1.548 1.71-1.504.146.146-2.01 2.534-2.784 3.085-.467.333-.822.437-.924.272zm12.93-32.43c-.145-5.572-.112-17.105.097-33.637l.078-6.185.232 4.474c.205 3.935.058 41.173-.162 41.393-.047.047-.157-2.674-.245-6.046z"/>
    <path d="M117.59 186.84c-3.112-.085-5.683-.179-5.713-.208-.53-.522-.601-5.755-.603-44.505-.001-32.023.149-42.755.198-43.574.042-.6878.061-1.5073.547-1.7273.33-.126 23.024.2093 49.847.1203l48.769-.162 1.053.621 1.053.62.16 87.45c.054 1.416-.336 1.668-1.276 1.649l-44.516-.073c-24.123-.031-46.407-.125-49.519-.211zm7.987-2.892c-.022-.362-.2-2.021-.395-3.685-.225-1.93-.351-5.986-.347-11.187.007-8.478.301-12.09 1.435-17.635.498-2.439.691-1.767.264.921-.822 5.178-1.124 9.523-1.151 16.582-.026 6.931.432 15.113.862 15.379.089.055.163-6.018.163-13.495 0-14.008.052-14.935 1.227-21.824.218-1.282.206-1.737-.054-2.051-.477-.574.081-1.133.655-.656.433.359 1.103.29 4.16-.431.977-.23 1.776-.518 1.776-.64 0-.239-.895-.109-3.148.458-.79.199-1.738.349-2.105.334-.636-.025-.63-.038.121-.25.434-.123 1.678-.42 2.763-.66 1.086-.24 2.016-.475 2.067-.522s-.33-.775-.846-1.616c-2.925-4.769-2.114-11.047 1.98-15.316 2.881-3.005 6.93-4.853 12.417-5.668 4.162-.618 6.22-.227 10.516 2.001 2.718 1.409 5.986 4.556 7.254 6.985 3.555 6.812.835 14.397-6.434 17.942-.927.452-1.685.921-1.685 1.043s.359.718.799 1.325c2.077 2.867 6.703 6.531 10.867 8.608 1.278.637 2.443 1.159 2.59 1.159.177 0 .205-1.138.083-3.356-.11-1.999-.06-4.953.124-7.304.288-3.674.354-3.986.951-4.485 1.439-.751 3.255-1.536 5.078-2.341 4.301-1.712 8.514-2.879 13.857-3.838.723-.13 2.322-.426 3.553-.659 4.153-.786 4.113-.786 4.569-.089.226.345.614 1.395.862 2.334.571 2.164.58 11.161.015 15.994-.415 3.554-.504 3.735-2.551 5.151-.971.672-1.089.835-.658.907.514.086 2.236.519 9.213 2.321 1.882.486 5.444.886 5.626.888.263.003.317-5.091.263-25.046l-.067-25.05-5.691-.706c-3.895-.72-8.53-1.672-12.766-2.621-4.075-.914-13.821-2.849-16.846-3.346-2.614-.429-4.821-.475-22.768-.466-10.93.005-24.492.084-30.138.175l-11.912.165-.068 37.201c-.037 20.461-.38 38.095.116 39.196.119.263 3.595.33 8.21.268l5.237.041zm3.331.52c0-.331-1.257-.931-1.481-.706-.09.09-.093.346-.007.569.171.447 1.488.568 1.488.137zm21.824 1.995c-.094-.094-4.977-2.607-6.868-3.583-2.284-1.105-5.954-2.909-7.98-3.656-2.027-.747-3.879-1.422-4.116-1.499-.382-.124-.431.221-.436 3.105-.003 1.785.026 5.391.088 5.492s4.471.1 9.774.107 9.633.129 9.538.034zm61.646-10.646v-8.657l-4.835-.708c-1.629-.39-4.086-1.042-5.462-1.448-1.375-.407-3.047-.869-3.716-1.027s-1.41-.361-1.646-.452c-.687-.264-.508.275.794 2.386l1.223 1.981h1.4c1.589 0 4.006.812 5.026 1.69l.686.59-.896.663c-1.334.987-12.889 6.833-15.768 7.978-3.306 1.314-5.812 1.951-7.034 1.787-1.054-.142-4.362-1.667-5.139-2.37-1.185-1.072-.022-2.733 2.622-3.747.838-.321 1.794-.691 2.125-.823.392-.155.878-.85 1.385-1.981 1.066-2.377 1.206-2.998.673-2.998-.233 0-.423.119-.423.264 0 .144-.156.263-.347.263s-1.642.575-3.224 1.277c-3.078 1.367-4.793 1.881-6.271 1.881-.592 0-1.472.333-2.45.927-.84.51-2.149 1.111-2.909 1.335-1.196.353-1.382.497-1.382 1.076 0 .596.077.648.724.487.838-.209 2.505-.954 2.698-1.205.073-.095.309-.25.527-.345.217-.095.069-.11-.329-.034-.909.173-.944-.213-.058-.617 1.02-.465 2.875-.714 2.654-.357-.171.277.664-.007 2.602-.885.434-.197 1.441-.609 2.237-.916.797-.307 2.214-.964 3.15-1.46 1.944-1.029 2.478-1.148 1.563-.348-1.249 1.091-9.17 4.651-13.267 5.962-1.158.371-2.495.841-2.971 1.045-.788.337-1.075.308-3.233-.327-2.867-.843-5.058-1.713-7.396-2.936-1.611-.842-2.829-1.802-2.564-2.02.439-.363 17.348-6.778 17.348-6.583 0 .178-3.201 1.561-6.581 2.843-6.252 2.373-9.607 3.788-9.496 4.007.144.288 3.054.979 6.996 1.663 1.737.302 3.522.665 3.967.808.709.227 1.168.091 3.757-1.118 2.054-.959 2.907-1.486 2.811-1.737-.076-.198-.138-2.141-.138-4.318v-3.957l-.593.136c-.325.075-3.375 1.084-6.777 2.243s-7.548 2.544-9.213 3.079c-5.162 1.658-12.822 4.304-17.635 6.092-2.533.942-4.774 1.766-4.979 1.832-.701.226.136.662 3.57 1.863 3.243 1.133 12.512 6.558 16.096 7.67 1.67.519 2.443.247 29.993.261l30.174-.096zm-81.891 7.207c0-1.056-.051-1.157-.461-.921-.253.146-.786.381-1.184.522-.945.335-.913.606.132 1.126 1.347.671 1.513.591 1.513-.727zm.133-2.503c.095-.563.151-1.473.126-2.023-.072-1.553-.04-1.649.682-1.977.586-.267.656-.425.517-1.164-.261-1.395-.189-7.706.113-9.834.691-4.878 2.826-10.648 5.287-14.295.861-1.276 1.558-2.401 1.55-2.501s-.906-.804-1.995-1.565l-1.98-1.384-1.493.382c-.821.21-2.293.52-3.271.687-1.48.254-1.798.4-1.896.87-.064.311-.378 2.756-.697 5.435-.512 4.306-.582 6.254-.604 16.846-.014 6.587.065 12.116.176 12.287.15.231.597.176 1.757-.215 1.477-.499 1.563-.576 1.728-1.548zm56.327-1.86c3.956-1.429 6.326-2.613 5.875-2.936-.256-.184-.225-.21.119-.099.667.215 4.82-2.067 4.72-2.593-.043-.222.053-.404.213-.404.159 0 .217.119.127.264-.262.424.582.301 1.034-.151.228-.227.414-.346.414-.264s1.066-.389 2.369-1.047 2.369-1.296 2.369-1.418c0-.338-2.376-1.381-3.488-1.531-1.004-.136-1.38.255-.552.573.393.151.386.205-.065.546-.276.209-.58.383-.676.388-.241.012-2.388-3.029-3.256-4.612-.949-1.731-1.31-2.075-.813-.776.472 1.236.96 3.834.937 4.984-.015.689-.049.729-.235.27-.119-.295-.279-.947-.355-1.448-.378-2.487-1.081-4.85-2.012-6.754-.297-.608-.54-1.328-.54-1.599s-.298-1.368-.661-2.438c-.364-1.069-.736-2.742-.827-3.717-.193-2.076-.339-2.159-2.855-1.603-1.144.252-1.816.584-2.438 1.202l-.858.853.455 1.44c.34 1.079.455 2.366.455 5.125.001 4.006-.452 6.696-1.619 9.608-.087.217-.133.502-.103.634.031.131-.039.309-.155.394-.117.086-.445.63-.731 1.209-.285.579-.808 1.526-1.162 2.104-.354.579-.644 1.176-.644 1.328 0 .153-.287.301-.637.33-.872.072-1.117.261-1.117.86 0 .691-.692.651-.875-.05-.103-.394-.278-.51-.589-.391-.346.133-.412.054-.304-.36.177-.677-.096-.677-.674 0-.553.645-.566.786-.072.786.21 0 .476.148.592.329s1.04.773 2.053 1.316c2.189 1.172 2.394 1.161 6.58-.351zm-20.978-2.769.08-.817-2.054-.326c-1.997-.316-5.986-1.087-7.581-1.463-.739-.175-.755-.163-.263.192 1.071.77 8.351 3.363 9.212 3.281.383-.036.549-.273.606-.867zm-29.144-1.447c1.944-.739 6.317-2.277 9.718-3.418s6.219-2.179 6.261-2.307c.043-.127-.252-.302-.656-.386-.404-.085-1.326-.55-2.05-1.034l-1.316-.879.055-1.699c.03-.935.298-3.121.596-4.858.297-1.738.616-4.432.708-5.989l.169-2.829h-1.291c-1.901-.003-5.557-.654-7.213-1.288-.796-.304-1.572-.553-1.724-.553-.189-.001-.204.523-.047 1.645.686 4.903 2.144 8.404 5.815 13.957 1.127 1.704 2.003 3.239 1.945 3.411-.27.812-5.06-6.49-6.709-10.229-.796-1.805-1.735-5.57-1.878-7.535-.054-.74-.373-.542-1.269.791-2.788 4.149-4.875 10.454-5.392 16.289-.325 3.663-.091 8.255.421 8.255.178 0 1.914-.605 3.857-1.344zm39.331-3.53c.434-.104.908-.323 1.052-.488.145-.164.521-.325.836-.357.315-.033 1.499-.486 2.632-1.006 1.133-.521 2.425-1.112 2.871-1.314 1.188-.538 1.561-2.349 1.544-7.492-.012-3.222-.108-4.291-.457-5.089-.435-.993-.432-1.024.217-1.875 1.019-1.336 3.644-2.511 5.607-2.511 1.814 0 2.148.304 2.148 1.953 0 1.325.34 3.381 1.362 5.965.543 1.421 1.121 2.23 1.766 3.622.274.432 1.266-.026 2.582-1.19.781-.691.849-.891.979-2.849.077-1.158.249-3.231.383-4.606.272-2.797.441-7.215.367-9.607-.067-2.2-.811-5.133-1.302-5.133-.757 0-9.746 1.894-13.139 2.769-4.668 1.203-11.242 3.852-12.977 5.229-.314.249-.337 1.919-.152 10.954.119 5.863.2 11.293.178 12.066l-.039 1.406 1.376-.129c.757-.071 1.732-.214 2.166-.318zm-19.724-3.155c1.547-.507 2.975-.921 3.174-.921.586 0 .425-.675-.69-2.893-1.846-3.671-2.441-6.156-2.473-10.333-.018-2.226-.13-3.614-.292-3.608-.145.006-.856.168-1.579.36l-1.317.349.041 4.18c.028 2.941.19 4.918.545 6.671l.505 2.491-.611 2.102c-.688 2.365-.711 2.523-.363 2.523.136 0 1.514-.414 3.06-.921zm-3.204-1.94c.464-1.786.462-1.843-.139-4.672-.466-2.198-.608-3.705-.608-6.483 0-2.304-.099-3.618-.271-3.615-1.248.016-1.322.176-1.364 2.971-.023 1.476-.177 3.454-.343 4.395-.362 2.046-1.075 7.453-.992 7.515 1.577 1.161 2.464 1.697 2.812 1.697.318 0 .563-.488.905-1.808zm11.872-.799c1.882-.598 3.659-1.195 3.949-1.327.289-.132.97-.376 1.513-.542 1.59-.487 1.249-1.577-.493-1.577-.356 0-.968-.221-1.36-.489-.392-.269-2.076-1.381-3.743-2.471-2.89-1.891-5.913-4.53-7.464-6.516l-.719-.921.123 2.763c.149 3.34.982 6.416 2.698 9.963.919 1.9 1.291 2.431 1.632 2.332.244-.07 1.982-.617 3.864-1.215zm-10.576-15.443c3.944-.998 6.529-2.425 8.545-4.715 3.333-3.786 3.87-8.886 1.442-13.682-1.557-3.074-5.845-6.52-9.995-8.032-2.217-.808-2.438-.838-5.34-.72-3.365.138-6.504.92-9.399 2.343-1.258.619-2.607 1.698-3.782 2.764-.944.856-2.036 2.367-2.45 3.108-.51.91-1.094 2.455-1.391 3.709-.166.704-.251 2.15-.25 3.287.001.686.228 1.774.544 2.665 2.677 7.554 12.526 11.69 22.077 9.273zm57.802-35.639c-.916 0-.019-1.762-.14-1.883s-6.308-.931-11.459-1.799c-5.151-.869-10.181-1.752-11.178-1.961-2.552-.536-7.688-1.359-12.472-2-4.692-.627-6.993-1.121-4.212-.903.941.074 2.6.252 3.685.395 7.655 1.008 10.278 1.393 13.292 1.954 4.89.908 21.333 3.296 21.987 3.296.542 0 .551-.091.551-5.791v-7.5936h-27.604c-14.151 0-35.949-.079-48.44-.175l-24.358-.175.149 7.7026 26.768-.016c13.816-.009 26.371.075 27.901.186 1.643.12-8.632.257-25.12.334l-29.549.132-.02 1.684c-.001.397-.007 1.791.029 1.827.035.035 7.492-.084 14.288-.22 17.519-.35 44.272-.372 46.837-.038 1.158.151 3.23.41 4.606.575 2.33.28 8.378 1.45 24.216 4.683 7.445 1.52 9.551 1.563 9.902 1.498.145-.027.299-.797.343-1.712z"/>
  </g>
  <g stroke-width=".2632">
    <path d="M69.75 108.18c0-1.445.4365-1.776 1.1146-.845.6414.88.9911.889.9911.024 0-.382.1139-.603.2632-.511.1448.09.2632.689.2632 1.332 0 1.355-.4736 1.559-1.1658.503-.4769-.728-.9399-.652-.9399.155 0 .281-.1185.511-.2632.511-.1448 0-.2633-.526-.2633-1.169zm17.42 1.1c-.4904-.49-.3723-.786.1933-.483.6517.349 1.3334.35 1.3334.003 0-.148-.2714-.373-.6031-.499s-.7607-.419-.9535-.652c-.6815-.821.7349-1.665 1.5039-.896.4905.491.3723.786-.1932.483-.68-.363-.807-.344-.807.123 0 .217.1514.395.3363.395s.5999.184.9222.41c.4729.331.5332.509.3125.921-.3097.579-1.5434.697-2.0447.195zm-3.3.14c-.0926-.093-.1683-.667-.1683-1.277 0-1.303.4846-1.833 1.4555-1.589.8534.214 1.1098.859.5599 1.409-.3917.392-.3912.463.006.903.5651.624.2296.95-.3957.384-.5124-.464-1.2346-.605-.9792-.192.1798.291-.2354.605-.4785.362zm1.5255-1.895c.176-.285-.5889-.618-.9322-.406-.1341.083-.1757.261-.0923.396.1928.312.8339.318 1.0246.009zM80.56 109.34c-.0241-.675.8351-2.641 1.154-2.641.3413 0 1.5705 2.351 1.3464 2.575-.0781.078-.3594-.055-.625-.295-.6457-.585-.9558-.551-1.4484.155-.277.397-.4177.465-.4269.206zm-2.86-1.24.0789-1.514h.8554c1.0078 0 1.1727.489.2056.61-.7709.097-.8721.439-.2056.696.4387.169.4387.19 0 .436-.7103.399-.5468.759.3446.759.4698 0 .7374.11.6425.263-.0895.145-.5762.263-1.0815.263h-.9189zm-2.9 0c.0676-1.295.1569-1.525.6199-1.591.7063-.101 1.4011.688 1.4764 1.676.0842 1.105-.2001 1.428-1.2564 1.428h-.9189zm1.5266.592c0-.219-.234-.395-.5264-.395-.2925 0-.5264.176-.5264.395 0 .22.2339.395.5264.395.2924 0 .5264-.175.5264-.395zm-.3235-1.234c-.1627-.488-.7293-.569-.7293-.104 0 .229.1875.417.4167.417s.3699-.141.3126-.313zM67.01 109.2c-.775-.775-.3837-2.19.711-2.571.6139-.213 1.5075.686 1.5075 1.518 0 .76-.6341 1.467-1.3161 1.467-.2688 0-.675-.187-.9024-.414zm1.3861-.344c.1936-.123.3121-.506.2632-.851-.1111-.787-1.343-.912-1.4894-.153-.1993 1.035.4014 1.527 1.2262 1.004zM62.17 108.1c.0771-1.479.0965-1.513.8469-1.513.4224.001.8172.149.8774.329.0685.206-.1445.329-.5706.329-.7952 0-.8593.2-.2193.686.4387.333.4387.35 0 .358-.746.014-.5519.798.1974.798.3619 0 .658.119.658.263 0 .145-.4204.264-.9344.264h-.9343zm-3.74.06c0-1.61.3974-1.911.8702-.658.1639.434.4238.79.5775.79.1536 0 .4135-.356.5774-.79.4729-1.253.8702-.952.8702.658 0 .796-.1184 1.448-.2632 1.448-.1447 0-.2632-.237-.2632-.527 0-.712-.4258-.668-.629.066l-.164.592-1.0378-1.316-.006.592c-.003.326-.1243.593-.269.593-.1448 0-.2632-.652-.2632-1.448zm-2.88.94c-.6497-.65-.6773-1.023-.1329-1.8.5638-.805 1.5717-.756 2.1348.103.4042.617.4107.761.0631 1.382-.4923.88-1.3665 1.014-2.0651.315zm1.5526-.398c.4706-.567.0848-1.509-.5775-1.41-.7826.117-1.1812.851-.7464 1.375.4312.519.9111.532 1.3239.035zM51.38 109c-1.2697-1.352-.9387-3.174.6997-3.853.6398-.265.9282-.26 1.5144.025.844.412 1.2775 1.227.4698.884-1.1381-.483-1.8917-.452-2.4446.101-.6979.698-.6999 1.347-.007 2.228.5815.739 1.2641.87 2.1264.409.7152-.383 1.012-.032.37.438-.7851.574-2.0748.464-2.7289-.232zm38.64.58c0-.298.1184-.469.2632-.379.1448.089.2632.333.2632.542 0 .208-.1184.379-.2632.379s-.2632-.244-.2632-.542zm7.1 5.52c0-.303-.2449-.896-.5443-1.316-.6063-.851-.4254-1.009.3513-.306.4836.437.5276.432.9751-.121.6622-.817.8898-.417.263.463-.2853.401-.5187.977-.5187 1.28s-.1184.552-.2632.552c-.1447 0-.2632-.249-.2632-.552zm-7.39.5c-.2086-.626-.2037-2.559.007-2.689.1829-.113.2783.33.2783 1.292 0 .804-.0592 1.463-.1316 1.463s-.1414-.03-.1535-.066zm-12.3-1.3c.0672-1.175.1673-1.419.6087-1.482.2906-.042.7644.099 1.0528.313.4203.312.4669.484.2345.866-.1596.262-.5445.514-.8555.56-.3109.046-.5653.246-.5653.445s-.125.438-.2778.533c-.1852.114-.251-.297-.1974-1.235zm1.2649-.617a.3962.3962 0 0 0-.3948-.395c-.2172 0-.3948.178-.3948.395s.1776.395.3948.395a.3962.3962 0 0 0 .3948-.395zM67.12 115.1c0-.303-.245-.896-.5443-1.316-.5983-.84-.4282-1.012.3262-.329.4487.406.517.403 1.0078-.041.6125-.554.7033-.203.1399.542-.2125.281-.3902.778-.3948 1.103-.005.326-.1268.593-.2716.593-.1447 0-.2632-.249-.2632-.552zm-5.79-.72c0-.7.0861-1.358.1913-1.463.1052-.106.5166.2.9141.679l.7229.872.007-.746c.0107-1.122.6492-.72.7489.472.1154 1.38-.3148 1.737-1.0166.845-.6919-.879-1.0413-.895-1.0413-.045 0 .362-.1185.658-.2632.658-.1448 0-.2632-.572-.2632-1.272zm-3.42 1.12c0-.345 1.133-2.747 1.296-2.747.2125 0 1.3361 2.254 1.3361 2.68 0 .17-.2059.111-.4813-.138-.5997-.543-1.3291-.562-1.5292-.041-.1436.374-.6217.563-.6217.246zm-15.34 0c-.2781-.282-.247-2.482.0351-2.482.1279 0 .2945.237.3702.527.0757.289.3375.526.5818.526.2442 0 .506-.237.5817-.526.2573-.984.6027-.532.6027.789 0 .724-.1184 1.317-.2632 1.317s-.2632-.237-.2632-.527c0-.76-1.2472-.738-1.3636.025-.0463.303-.173.461-.2815.351zm51.72.24c-.5175-.1-.5922-.276-.5922-1.396 0-.706.1184-1.356.2632-1.445.1607-.099.2632.302.2632 1.032 0 1.054.0773 1.215.6562 1.36.3609.09.5908.27.5109.4-.0799.129-.2272.219-.3272.199s-.4484-.087-.7741-.15zm-3.38-.18c-.077-.201-.1029-.882-.0575-1.513.0736-1.026.158-1.158.7885-1.231.4759-.055.7829.074.9415.395.3722.754.3753 2.257.005 2.492-.5356.34-1.5247.256-1.6776-.143zm1.4725-.528c0-.397-.6394-.749-.8955-.493-.3466.347-.1264.859.3691.859.2895 0 .5264-.165.5264-.366zm-.2632-1.492c0-.136-.1777-.247-.3948-.247-.4071 0-.5229.31-.2265.607.2103.21.6213-.028.6213-.36zm-5.1393 2c-.2808-.205-.4199-.464-.3091-.575.1107-.11.3415-.061.5128.11.441.441 1.259.387 1.259-.083 0-.217-.1645-.395-.3656-.395-.2012 0-.6453-.229-.9871-.509-.5804-.476-.5925-.539-.183-.956.5448-.554 1.799-.318 1.799.338 0 .345-.0702.373-.3159.127-.1737-.174-.4698-.316-.658-.316-.5033 0-.4167.517.1184.707.2534.089.6689.342.9234.56.4321.372.4337.43.025.882-.5246.579-1.1272.616-1.8189.11zm-3.16 0c-.6661-.487-.3324-.819.3777-.375.3933.245.6254.26.832.054.2066-.207.0248-.441-.6514-.84-1.0302-.608-1.1354-.87-.5466-1.358.4312-.358 1.7143-.156 1.7143.27 0 .15-.2848.192-.6581.098-.757-.19-.9313.338-.1974.598.2534.09.6689.343.9234.561.432.372.4337.43.025.882-.5246.579-1.1272.616-1.8189.11zm-3.22-.02c-.7304-.512-.757-1.524-.0586-2.222.6536-.654 1.1083-.666 1.6701-.045.5753.635.5536 1.699-.0457 2.241-.5964.54-.8267.544-1.5658.026zm1.1044-.276c.5276-.203.541-1.252.0215-1.683-.799-.663-1.6184.777-.8686 1.526.3691.37.317.36.8471.157zm-11.8944.276c-.7223-.506-.776-1.705-.1036-2.313.6291-.57.984-.55 1.6244.091.6569.657.6767 1.624.0451 2.196-.5965.54-.8267.544-1.5658.026zm1.2048-.433c.7498-.749-.0696-2.189-.8686-1.526-.4787.397-.5216 1.484-.0658 1.668.5147.208.5978.195.9344-.141zm-15.5748.293c-.8203-.645-.8781-1.274-.1946-2.118.4249-.525.607-.578 1.2288-.358.4014.142.7798.408.8408.592.0878.264-.0295.27-.5629.027-.7868-.358-1.4791.038-1.4791.846 0 .631.9945 1.194 1.397.791.4729-.473.7476-.325.4455.239-.3589.671-.805.666-1.6754-.019zm-6.09.22c-.6871-1.898-.8593-2.579-.6809-2.689.2311-.143.8141.976.8141 1.562 0 .26.2869.349.9806.305.8564-.055 1.0112-.17 1.2225-.907.1331-.464.3432-.843.4671-.843.2873 0 .2815.186-.0405 1.316-.4207 1.475-.6642 1.746-1.1834 1.315-.3479-.289-.5398-.298-.9473-.043-.4045.252-.5363.249-.6323-.016zm-3.49-.08c-.7304-.512-.757-1.524-.0586-2.222.6535-.654 1.1083-.666 1.6701-.045.5753.635.5536 1.699-.0457 2.241-.5964.54-.8267.544-1.5658.026zm1.1044-.276c.5276-.203.541-1.252.0215-1.683-.799-.663-1.6184.777-.8686 1.526.3691.37.317.36.8471.157zm26.0956.596c-.5509-.403-.9388-2.814-.4526-2.814.1689 0 .2974.433.2974 1.001 0 1.215.4053 1.715 1.0932 1.347.3472-.186.4861-.559.4861-1.304 0-.574.1184-1.043.2632-1.043.5004 0 .2928 2.076-.2632 2.632-.6194.619-.7945.641-1.4241.181zm18.01 5.32c0-.854-.1085-1.106-.5235-1.214-.839-.22-.3284-.604.8023-.604 1.0379 0 1.3856.337.6424.622-.2606.1-.3948.512-.3948 1.212 0 .584-.1184 1.061-.2632 1.061s-.2632-.484-.2632-1.077zm-11.53-.3c.0776-1.348.1008-1.384.935-1.464.4805-.047.8554.04.8554.197 0 .154-.2299.28-.5108.28-.6877 0-.9143.428-.3431.648.4363.168.4362.19-.002.436-.2533.142-.4606.489-.4606.772 0 .282-.1246.513-.277.513-.1687 0-.2459-.54-.1974-1.382zm-24.79.2c0-.877-.1024-1.184-.3948-1.184-.2172 0-.3948-.119-.3948-.264 0-.144.4668-.263 1.0373-.263s1.1105.119 1.2.263c.0895.145-.022.264-.2477.264-.3638 0-.5496.492-.4324 1.145.0221.124-.031.45-.1182.724-.2868.904-.6494.521-.6494-.685zm32.54 1.24c-.1718-.278-.1716-1.872.0003-2.501.0888-.325.3923-.46 1.0294-.46.4969 0 .9035.118.9035.263s-.2892.263-.6425.263c-.8211 0-1.0854.416-.4817.758.4395.249.4361.287-.0603.666-.5049.385-.4905.402.3509.41.5814.006.841.119.7694.338-.1255.382-1.6618.598-1.8691.263zm-3.06-.32c-.6324-.632-.6682-1.26-.1167-2.047.4564-.652 1.4745-.774 1.9247-.232.4115.496.076.73-.516.36-.6682-.417-1.4252.295-1.1696 1.1.2009.633 1.1938.767 1.1938.161 0-.402.5572-.54.8798-.217.2326.233-.8687 1.401-1.3205 1.401-.192 0-.5859-.236-.8754-.526zm-7.12.1c-.3536-.426-.0467-2.816.3315-2.582.1424.088.2106.575.1514 1.081-.0952.815-.0226.951.6326 1.179.407.142.6831.35.6135.463-.2054.332-1.4183.233-1.729-.141zm-2.7.26c-.1034-.103-.1879-.82-.1879-1.592v-1.404h1.0528c1.1755 0 1.4459.445.3493.575-.7549.09-1.1971.741-.5029.741.2292 0 .4168.119.4168.264 0 .144-.1777.263-.3948.263-.6994 0-.4197.488.329.575.3981.045.7238.201.7238.346 0 .31-1.512.506-1.7862.232zm-3.12-.36c-.6822-.568-.2638-.727.5601-.213.3864.242.5917.247.8163.023.2245-.225.098-.405-.5032-.716-.9644-.498-1.1533-.763-.9408-1.316.2764-.721 1.9468-.446 1.9468.32 0 .326-.0702.349-.3159.103-.1737-.173-.4698-.315-.658-.315-.5885 0-.3737.527.3226.792.8103.308 1.0853.922.6485 1.448-.4457.537-1.136.491-1.8764-.126zm-3.22.22c-.107-.237-.1574-.947-.1121-1.579.0799-1.115.1093-1.149.975-1.149 1.1797 0 1.7211.768.9499 1.348-.497.373-.5007.414-.0658.737.8119.603.5194 1.02-.3039.433-.956-.68-1.018-.678-1.145.048-.0858.491-.1369.519-.2981.162zm1.2633-1.703c.5357-.205.2747-.63-.3873-.63-.5109 0-.6659.283-.3354.614.2135.213.2088.213.7227.016zM62.18 122.1c-.7304-.512-.757-1.524-.0586-2.222.6536-.654 1.1083-.666 1.6701-.045.5753.635.5536 1.699-.0457 2.241-.5964.54-.8267.544-1.5658.026zm1.5207-1.006c0-.864-.6555-1.392-1.1845-.953-.4084.339-.5267 1.096-.2193 1.404.0965.096.4518.175.7896.175.4712 0 .6142-.146.6142-.626zM59.65 122.32c-.0926-.093-.1683-.465-.1683-.828 0-.362-.1967-.876-.4371-1.142-.5702-.63-.2377-.959.3927-.388.455.412.5154.406.9652-.091.7085-.783.8012-.425.1589.614-.3077.498-.4908 1.084-.4069 1.303.1611.42-.2175.819-.5045.532zm-8.47-.16c-.0805-.21-.1093-.898-.064-1.53.0804-1.121.1068-1.151 1.0694-1.231.5714-.047.9871.036.9871.198 0 .153-.2892.279-.6425.279-.8245 0-1.0821.413-.4817.773.4394.264.4359.298-.0603.6-.4975.303-.483.329.2632.463 1.0487.19 1.0076.643-.0676.747-.5653.054-.9071-.047-1.0036-.299zm-2.42.16c-.3608-.146-.4181-.894-.1654-2.157.2188-1.094.626-.786.626.474 0 .785.1158 1.037.5265 1.144.2895.076.5264.267.5264.426 0 .29-.9061.358-1.5135.113zm16.67.04c-.2275-.227-.4271-.553-.4436-.724-.0165-.17-.0684-.633-.1154-1.028s.0258-.787.1616-.871.247.187.247.602c0 .984.5833 1.781 1.1464 1.564.3026-.116.4329-.485.4329-1.227 0-.583.1184-1.061.2632-1.061s.2632.526.2632 1.17c0 .91-.1297 1.26-.585 1.579-.7286.51-.8565.51-1.3703-.004zm21.29 5.06c-.1402-.348.005-.67.5141-1.142.3902-.362.6642-.795.609-.963-.1602-.487-1.2995-.535-1.5621-.066-.2946.526-.7345.544-.7345.03 0-.214.2953-.583.6561-.819 1.3613-.892 2.9639.332 2.1203 1.62-.2308.352-.5391.64-.6852.64s-.3684.267-.494.592c-.2104.546-.2437.555-.4237.108zm-5.39.08c0-.724.1184-1.316.2632-1.316s.2632.592.2632 1.316-.1184 1.316-.2632 1.316-.2632-.592-.2632-1.316zm-2.89 0c0-1.321.3454-1.774.6027-.79.0757.29.3184.527.5394.527.2209 0 .4769-.237.5688-.527.2929-.923.658-.566.658.643 0 1.237-.3731 1.815-.6034.934-.1869-.715-1.239-.712-1.239.003 0 .289-.1185.526-.2633.526-.1447 0-.2632-.592-.2632-1.316zm-2.11.14c0-.877-.1024-1.184-.3948-1.184-.2172 0-.3948-.119-.3948-.264 0-.144.4738-.263 1.0528-.263 1.0509 0 1.4054.335.658.622-.2606.1-.3948.512-.3948 1.212 0 .584-.1185 1.061-.2632 1.061-.1448 0-.2632-.533-.2632-1.184zm-5.79-.12c0-1.603.3227-1.849 1.0814-.823.6233.843 1.0243.838 1.0243-.013 0-.29.1086-.459.2414-.377.233.144.2041 2.156-.0345 2.394-.0644.065-.3949-.178-.7343-.539-.7802-.831-1.0519-.831-1.0519.001 0 .361-.1185.658-.2632.658-.1448 0-.2632-.586-.2632-1.301zm-1.05-.02c0-.724.1185-1.316.2632-1.316.1448 0 .2632.592.2632 1.316s-.1184 1.316-.2632 1.316c-.1447 0-.2632-.592-.2632-1.316zm-4.68 0c-.053-1.218.212-1.682.6013-1.052.109.176.3266.176.6562 0 .8251-.442.915-.298.2542.405l-.6286.669.7801.638c.8179.668.515.892-.4423.327-.4458-.263-.5811-.263-.6764 0-.2537.701-.4897.273-.5445-.987zm-8.46.6c.0971-1.243-.009-1.645-.4332-1.645-.2257 0-.3371-.119-.2477-.263.2063-.334 1.9741-.348 1.9741-.016 0 .136-.1184.321-.2632.411-.1448.089-.2632.629-.2632 1.2 0 .765-.1079 1.037-.4117 1.037-.2873 0-.3945-.219-.3551-.724zm30.51.72c0-.145.1185-.263.2632-.263.1448 0 .2632.118.2632.263s-.1184.263-.2632.263a.2637.2637 0 0 1-.2632-.263zm-3.99-.26c-.6822-.568-.2638-.727.5601-.213.3722.233.5962.243.8028.036.2066-.206.0195-.444-.6703-.851-.6241-.368-.9267-.724-.87-1.023.1178-.621 1.342-.739 1.8107-.174.3348.403.2922.426-.4831.256-1.0867-.239-1.1311.232-.0572.606 1.0048.35 1.3003 1.046.647 1.524-.6593.482-1.0068.45-1.74-.161zm-20.63-.12c-.7837-.784-.8143-1.291-.1196-1.986.5941-.594 1.3208-.68 1.7898-.211.4891.49.3727.777-.1758.435-1.0815-.676-2.0544.506-1.1564 1.404.4375.437.6293.478 1.0894.232.6062-.325.7511-.052.2427.456-.478.478-.9567.384-1.6702-.33zm-9.27.32c-.6921-.334-.8119-.878-.1316-.598 1.0794.444 1.3819.45 1.3819.029 0-.234-.1553-.426-.3452-.426-.1898 0-.6104-.247-.9346-.549-.4663-.434-.5249-.627-.2806-.921.4162-.502 1.414-.471 1.852.057.3205.386.2711.41-.4942.242-1.0828-.238-1.1205.206-.055.647 1.0557.437 1.1906.719.6374 1.33-.517.572-.7749.602-1.6301.189zm5.99.06c-.556-.556-.7636-2.632-.2632-2.632.1448 0 .2648.266.2668.592.007 1.085.3135 1.777.7886 1.777.5382 0 .7871-.506.7871-1.601 0-.422.1184-.768.2632-.768s.2632.474.2632 1.053c0 1.022-.6772 2.105-1.3161 2.105-.1448 0-.5001-.236-.7896-.526zm-23.12 3.72c-.1936-.123-.3121-.506-.2632-.851.0666-.471.2536-.629.7469-.629s.6802.158.7468.629c.076.537-.2975 1.074-.7468 1.074-.0724 0-.2901-.1-.4837-.223zm-15.28 1.34c-.3518-.657.2017-1.464.9106-1.328.7708.149.7151 1.641-.0654 1.752-.3568.051-.677-.11-.8452-.424zm24.19 1.28c2.1925-.702 4.7435-2.068 5.8442-3.13 1.0951-1.057 1.7083-.974.7078.096-1.3406 1.433-5.806 3.552-7.4066 3.514-.3324-.008.0492-.222.8546-.48zM21.96 164.2c-.4931-.4-.488-.409.1471-.267.3619.081.9908.149 1.3974.151.1766.001.4336.01.667.031.1387.013.5133-.034.8959-.085.1932-.026.4866-.099.8716-.189.5202.218 2.3023.888 2.3023.888-.752.235-2.2362-.464-2.3713-.493-.4716.132-1.7199.3-1.9058.318-.689.064-1.6344-.054-2.0041-.354z"/>
    <path d="M18.29 173.06c-3.0054-1.09-8.2037-4.134-9.4703-5.547-.2866-.319-.9084-.743-1.3819-.94-.4734-.198-.8608-.484-.8608-.637 0-.152.0457-.276.1015-.276.3215 0 1.5657.814 2.7165 1.777 2.764 2.315 10.049 5.968 10.879 5.455.4751-.293-1.754-4.96-4.0749-8.53-2.7159-4.178-3.4636-5.718-4.0066-8.252-.466-2.174-.4902-4.968-.0678-7.822.298-2.013 1.9763-7.414 2.8942-9.314.2793-.578.5074-1.058.507-1.067s-.7652-.819-1.6996-1.799c-4.7218-4.956-5.2565-11.241-1.3926-16.371 3.0423-4.039 8.0034-6.387 12.569-5.949l1.711.164-2.7638.163c-4.2613.251-7.1776 1.584-9.9474 4.545-4.9686 5.311-4.8409 11.979.3281 17.131 4.2914 4.277 10.252 5.249 16.66 2.716 1.5601-.616 4.6528-2.831 5.691-4.075 1.0823-1.296 2.1987-3.61 2.5475-5.279 1.2272-5.872-3.4883-12.271-10.32-14.006-1.0506-.267-1.9545-.618-2.0087-.781-.158-.474.479-.353 3.19.603 2.5056.884 5.218 2.536 6.3743 3.882 3.6356 4.232 4.4294 8.779 2.3172 13.272-.7082 1.506-3.14 4.233-4.9612 5.563l-.7897.577.658.548c1.346 1.122 6.2353 4.166 8.6202 5.368.7601.382 1.382.822 1.382.976 0 .155-.0889.24-.1975.191-2.5916-1.18-7.4017-4.089-9.607-5.809-.839-.654-1.0113-.706-1.1495-.346-.2232.582.3887 8.792.8301 11.135.1975 1.049.5278 2.293.7338 2.764.2061.471.5208 1.39.6994 2.041.1785.652.7734 2.073 1.322 3.159 1.2025 2.38 3.1573 8.11 3.1573 9.255v.823l-1.7015-.159c-1.417-.132-6.5332-1.828-11.196-3.711-.2172-.088.0338-.109.5576-.047.5238.061 2.6752.722 4.7807 1.469 3.744 1.328 6.657 1.977 6.9253 1.543.149-.241-2.2082-7.533-2.6042-8.056-.1952-.258-.4368-.214-1.1043.198-2.5963 1.605-13.085 2.654-18.557 1.857-.7962-.116-1.494-.17-1.5507-.119-.0567.05.6695 1.25 1.6136 2.665 1.9566 2.932 2.7938 4.519 3.8982 7.387.4272 1.109.7768 2.05.7768 2.089 0 .246-1.9208-.023-3.027-.424zm7.9726-12.138c1.4058-.145 3.2666-.395 4.1352-.556 1.5025-.278 5.1685-1.252 5.3495-1.421.0469-.044-.116-.469-.3619-.944-.8364-1.618-1.9558-5.04-2.3491-7.182-.4267-2.325-.9276-7.99-.9276-10.494 0-1.392-.0519-1.547-.4606-1.376-4.9153 2.06-9.7526 2.152-13.492.257-1.4654-.743-1.7457-.498-.5068.442.4439.336 1.3026 1.035 1.9083 1.553 2.1602 1.846 6.6753 4.232 9.1951 4.858.3982.099.7239.286.7239.415 0 .433-1.0829.24-3.0354-.542-4.1158-1.648-7.9198-4.124-9.55-6.217-.5083-.652-1.0087-1.092-1.1121-.978s-.3959.858-.6501 1.654c-.2541.797-.5476 1.567-.6523 1.711-.1047.145-.2572.5-.3388.79s-.397 1.356-.7008 2.369c-1.1802 3.937-1.1856 9.712-.0119 12.849.8736 2.335 1.1123 2.515 3.6804 2.777 3.1991.326 6.2173.338 9.157.035z"/>
    <path d="M2.73 187c-.322-.13-.657-.598-.7895-1.102-.1279-.487-.2081-19.827-.1805-43.517.04-34.405.1164-42.844.3955-43.693l.3458-1.053 10.133-.16c5.5731-.088 27.843-.177 49.488-.197l39.355-.038c.548.1132 1.227-.1096 1.585.49l.319 44.084c-.065 39.983-.104 43.282-.513 43.907-.243.371-.637.869-.874 1.107-.398.397-4.3607.43-49.568.415-27.025-.009-49.388-.119-49.695-.243zm99.809-.808.002-43.795c.001-23.371-.097-44.1-.217-44.175-.121-.074-23.413-.151-49.967-.17l-49.632-.035.0241 3.083c.0133.845.0438 20.025.068 42.622.0241 22.597.1186 42.462.21 42.553.0912.091.416.119.7216.061.3056-.057 49.586.185 49.586.185z"/>
    <path d="M27.44 134.42c-.2873-.287 1.7108-.852 3.5191-.994l1.7109-.134-2.2373.468c-1.2305.257-2.3688.55-2.5296.649-.1608.1-.3691.105-.463.011z"/>
    <path d="M26.01 137.76c-.9564-.891-.5876-3.148.5144-3.148.1448 0 .0848.178-.1332.396-.6557.656-.7698 1.423-.315 2.117.9029 1.378 4.5644.674 6.686-1.286.9356-.864 1.2183-1.509.7927-1.807-.2876-.202-.2802-.229.0386-.144.7224.195.5754 1.1-.3188 1.961-2.2668 2.184-5.936 3.149-7.2648 1.911zm45.33 26.72c-.3604-.791-.7417-.859-.7417-.132 0 .29-.1185.527-.2632.527-.3357 0-.3446-.708-.0115-.914.1384-.086.1896-.318.1136-.516-.3086-.804.3844-.596.8416.253.5558 1.032.757 1.112 1.1409.453.3531-.606.3637-.18.0118.478-.3691.689-.732.64-1.0915-.149zm6.21 0-.4168-.998-.5032.828c-.6174 1.015-.8535 1.034-1.3009.104l-.348-.724-.2715.724c-.3588.956-.7039.908-1.4201-.197-.7896-1.219-.7409-1.768.0746-.841.6563.746 1.1757.752 1.1757.013 0-.561.6053-.308.9179.384.3022.669.6258.741.8013.18.4061-1.3.3712-1.262.8119-.896.2305.191.5223.619.6484.951.3024.795.7687.771.7687-.039 0-.766.4914-1.153.815-.642.3108.491.2973.825-.0254.626-.1447-.089-.2632.004-.2632.207s-.2357.583-.5238.844c-.5115.462-.5336.45-.9406-.524zm4.97.46c-.2847-.713-.2915-.715-.4763-.132-.2477.783-.5543.748-1.0058-.114-.3635-.693-.3735-.696-.5526-.131-.1944.612-.5375.744-.8062.309-.0902-.146.0213-.45.2476-.677.2264-.226.4116-.521.4116-.656 0-.531.4805-.201.7883.542.3696.893.791.816.791-.144 0-.906.4142-.797.81.213l.335.856.103-.724c.1058-.743.4304-.939.7359-.445.232.376-.3882 1.827-.7805 1.827-.1717 0-.4421-.326-.601-.724zm-10.41 3.96c.4731-.059 1.1838-.057 1.5793.003s.008.108-.8602.107c-.8686-.002-1.1922-.051-.7191-.11z"/>
    <path d="M54.14 183.26c-3.8411-.429-6.9268-1.473-8.686-2.937l-.7896-.657.0223-4.566c.0308-6.288.6558-9.312 1.5088-7.3l.3782.893.2961-.79c.4022-1.073.993-2.075 1.279-2.17.1298-.044.4056.479.613 1.16.445 1.463 1.0352 1.835 1.0352.654 0-.437.1306-1.128.2901-1.535.2694-.688.3118-.706.5923-.252.1661.269.5354.795.8206 1.168l.5184.679.1792-.642c.0985-.353.1909-1.019.2053-1.481.0369-1.181.4703-1.315.903-.279.3766.901 1.1045 1.777 1.4774 1.777.1159 0 .285-.444.3758-.987s.2898-1.165.4421-1.382c.2399-.342.3193-.327.5924.116.4799.777 1.4424 1.726 1.7511 1.726.1513 0 .2752-.24.2752-.535 0-.294.1899-.975.4221-1.513l.4221-.979.4613 1.055c.2537.581.6546 1.216.8909 1.412.3689.306.4519.287.5889-.134.0877-.27.2865-.829.4419-1.243l.2824-.753.3791.95c.4672 1.172.7684 1.204 1.0511.113.1193-.461.3503-.882.5132-.936.1869-.063.2408.113.1459.476-.0969.37-.003.657.2634.806.2275.127.4915.586.5867 1.02.1914.871.4338.98.9083.408.1733-.209.6912-.416 1.1509-.461.7431-.072.8796-.219 1.2307-1.328.2171-.686.5115-1.264.6541-1.285.1426-.02.4596.305.7046.722.5273.897.5761 1.152.2206 1.152-.1448 0-.2632-.177-.2632-.394 0-.654-.4623-.447-.8818.394-.4669.936-.4546.939 2.1978.508 3.5261-.573 10.461-.338 13.225.449.3293.094.4155.017.305-.27-.1857-.484.3641-2.266.6991-2.266.4805 0 .5561 1.266.1158 1.938-.4804.733-.3387 1.284.2701 1.05.2584-.099.3324-.355.2255-.781-.1243-.495-.0715-.6.2421-.48.253.097.4429-.023.5143-.326.0916-.388.1818-.329.4729.31.4152.912.3965 7.262-.0237 8.047-.8998 1.681-8.1834 4.969-10.179 4.594-.7193-.135-1.0431-.036-1.7041.52-2.0908 1.76-8.0377 3.845-12.706 4.457-3.4252.448-4.7035.466-7.9073.108zm7.3637-1.024c2.9763-.341 5.9944-1.089 8.67-2.151 1.6811-.667 1.986-.869 1.5793-1.047-.3776-.165-.3253-.185.2088-.082.392.076 1.1916-.054 1.7767-.288 1.0454-.418 1.0638-.448 1.0638-1.749 0-1.08-.1233-1.437-.6714-1.945-.6274-.581-.7208-.597-1.423-.234-1.308.677-5.0358 1.635-8.2026 2.108-2.3911.357-4.1431.429-8.028.33-5.5059-.14-8.188-.589-10.06-1.683-.9967-.582-1.1313-.608-1.0524-.198.0541.281.4595.564 1.0112.707 1.129.291 1.2729.418.8047.707-.3091.191-.308.28.0076.593.2044.202.579.446.8323.542.6901.261.5547.717-.2129.717-.8941 0-.6052.415.4333.623.5709.114.7792.281.6788.542-.1107.289.425.514 2.2746.957 4.6563 1.117 11.992.713 17.515-.962 1.2092-.367 2.2626-.603 2.3408-.525.1615.162.0466.209-2.2879.946-5.94 1.875-11.441 2.219-18.702 1.167l-.9212-.133 1.0805.4c2.2695.842 7.1824 1.128 11.284.658zm-13.62-2.516c-.0875-.087-.3145-.097-.5045-.021-.21.084-.1476.147.159.159.2775.012.433-.05.3455-.138zm32.183-2.917c2.2162-.821 4.3863-2.036 5.4616-3.058.7417-.705.8554-.987.8554-2.123v-1.31l-.5922.542c-.7526.688-4.8494 2.302-6.8901 2.713-1.9305.39-2.499.989-2.511 2.649-.005.664.0644 1.28.1539 1.369.2368.237 1.5694-.059 3.5223-.782zm-15.585-.911 1.9185-.3-.8704-.817c-.4787-.45-1.0693-1.114-1.3125-1.476-.4418-.658-.4421-.657-.4559.724-.01.957-.1198 1.382-.359 1.382-.4765 0-1.4107-.912-1.8961-1.851-.2224-.43-.4447-.782-.4939-.782-.0493 0-.0758.669-.059 1.487.0176.859-.0901 1.529-.2552 1.587-.52.182-1.6899-1.279-1.8561-2.318-.1936-1.211-.54-1.102-.7664.241-.2656 1.576-.3967 1.899-.7712 1.899-.5182 0-1.6445-1.442-1.8473-2.365-.2288-1.042-.5647-.799-1.0113.733-.1984.68-.4668 1.229-.5964 1.219s-.4725-.391-.762-.846c-.2896-.454-.6021-.831-.6946-.837-.0924-.006-.2459.405-.3409.911-.2957 1.577-1.3052.958-1.7189-1.052-.1761-.856-.6079-.975-.7649-.212-.0537.261-.2109.771-.3495 1.133l-.2519.658-.506-.621c-.2783-.342-.5059-1.023-.5059-1.514 0-1.163-.3139-1.13-.9058.095l-.4767.987-.2594-.658a96.6124 96.6124 0 0 1-.4567-1.184c-.1575-.421-.2357-.302-.388.588-.2824 1.652.2902 2.098 3.6479 2.84 4.0279.89 10.901 1.046 15.365.349zm4.6445-.924c.8781-.241 1.6298-.462 1.6706-.491.1498-.109-.8712-1.701-1.0918-1.703-.1255 0-.1716.294-.1026.655.2638 1.38-1.0948 1.468-1.6961.109-.4072-.92-.6223-.964-.8343-.173-.2622.978-.1863 2.04.1459 2.04.1714 0 1.0302-.197 1.9083-.438zm-8.5371-.32c0-.682-.3612-1.876-.5676-1.876-.4059 0-.5195.666-.2393 1.403.2502.658.8069.984.8069.473zm-3.1586-.544c0-.614-.3013-.844-.7453-.569-.4069.251-.1164 1.08.3786 1.08.2017 0 .3667-.23.3667-.511zm5.7907-.56c0-.95-.0648-1.062-.5716-.987-.3144.046-.6137.212-.6651.368-.0858.261.8647 1.69 1.1242 1.69.0619 0 .1125-.482.1125-1.071zm3.1586.132c0-.852-.0547-.922-.5922-.757-.3258.1-.6421.227-.703.282-.1041.094 1.0249 1.414 1.2094 1.414.0472 0 .0857-.423.0857-.939zm9.7671.384c.5051-.505.5176-.591.1394-.97-.358-.358-.5071-.366-1.081-.058-.8361.447-.9361 1.583-.1394 1.583.2895 0 .776-.25 1.081-.555zm-23.96-2.234c.4194-.505.6798-.268.8807.803.25 1.332.582 1.356 1.1463.084.8533-1.925 1.9003-2.319 1.9003-.715 0 1.121.9132 1.03 2.0441-.205.7947-.867.926-.927 1.1516-.524.14.25.182.572.0932.716-.09.145.1241.261.4837.261.466 0 .6902-.18.8078-.649.1729-.689.9471-.673.9471.019 0 .493 1.1725.473 1.6733-.028.4811-.481.8638-.505 1.0685-.066.1222.262.1852.261.3087-.005.0853-.183.3222-.5.5264-.705.4873-.487.4708-1.444-.0429-2.474-.3206-.643-.5437-.801-.9871-.701-.315.072-1.402.255-2.4154.407-3.1914.481-7.0271 1.312-9.2928 2.015-1.7675.549-2.1538.76-2.0175 1.104.0927.234.2342.839.3144 1.346s.2713 1.158.4247 1.448c.2454.463.3031.388.4809-.621.1111-.63.3379-1.31.5039-1.51zm21.022 1.838c.0652-.066-.2602-.498-.7233-.961l-.8419-.842v1.142c0 1.115.0176 1.138.7232.961.3979-.1.7767-.235.842-.3zm-4.1974-.628c0-.483-.1365-.79-.3509-.79-.5732 0-.6842.277-.3789.947.3944.866.7298.793.7298-.157zm-20.003-.066c.0008-.181.1807-.673.3995-1.092.4704-.902.4426-.957-.3353-.663-.4601.174-.5923.432-.5923 1.154 0 .511.1185.93.2633.93.1447 0 .2639-.148.2648-.329zm22.108-.051c0-.063-.1184-.189-.2632-.278-.1448-.09-.2632-.038-.2632.116 0 .153.1184.279.2632.279s.2632-.053.2632-.117zm3.5657-.311c.4141-.271.9294-.371 1.4128-.274.6511.13.7848.057.9262-.507.2801-1.116-.005-1.245-2.3209-1.052-1.1731.098-2.2291.274-2.3467.392-.2317.231 1.019 1.869 1.4277 1.869.137 0 .5424-.193.9009-.428zm7.0541-.597c1.232-.419 2.4573-.922 2.7228-1.119.4634-.343.4589-.382-.1129-.991-.5408-.576-.596-.588-.5996-.131-.009 1.133-.411 1.23-1.3326.323l-.8879-.874-.155 1.114c-.2525 1.814-.7645 1.843-1.257.07l-.2561-.921-.4625 1.119c-.2543.615-.5355 1.118-.6248 1.118s-.3643-.325-.6111-.723l-.4488-.724-.007.965c-.004.531-.0859 1.171-.1823 1.423-.1548.403-.049.437.8997.285.5913-.095 2.0831-.515 3.3152-.934zm-16.411.498c0-.145-.1777-.263-.3948-.263-.2172 0-.3948.118-.3948.263s.1776.263.3948.263c.2171 0 .3948-.118.3948-.263zm1.5892-.67c.1857-.224.5024-.343.7039-.266s.294.023.2055-.12c-.1792-.29-1.7868-.358-2.0577-.087-.1891.189.2913.88.6119.88.1093 0 .3507-.183.5364-.407zm4.4647-.398c0-.136-.2514-.248-.5587-.248-.4649 0-.504.066-.2334.392.3288.396.7921.312.7921-.144zm-23.513-.618c2.9646-1.476 9.5615-3.105 15.123-3.734 1.1168-.127 1.4984-.261 1.3006-.459-.154-.154-.28-.493-.28-.754 0-.642-.542-.602-.7133.053-.167.638-1.0074.697-1.2418.086-.1492-.389-.216-.373-.5695.131-.5438.777-.9896.72-1.7872-.228l-.6737-.801-.1614.735c-.0888.404-.2101.891-.2696 1.082-.1507.483-1.1215.151-2.0192-.689l-.7239-.678v.971c0 .584-.1307.982-.329 1-.8161.076-1.4259-.118-1.9741-.626l-.5922-.549v.551c0 1.559-.6368 1.759-1.8222.574l-.8099-.81v.759c0 .418-.1774.99-.3942 1.271-.3845.498-.4105.493-1.0528-.228-.3623-.406-.6586-.975-.6586-1.265 0-.856-.4282-.34-.7897.951-.4133 1.476-.6688 1.655-1.2821.898l-.4778-.59-.0237.833c-.0159.559.1005.833.3536.833.2269 0 .3772.262.3772.658 0 .362.0495.658.11.658s.6823-.285 1.3819-.633zm22.934-.407c.7671-.152 2.4069-.276 3.6438-.276 2.0276 0 2.2625-.052 2.3866-.526.1749-.669.6532-.671 1.2551-.006.5185.573.9246.482.9309-.207.002-.245.1116-.615.2431-.823.2054-.324.3019-.326.6835-.009.2444.203.5527.61.6851.904.1872.417.2114.345.1087-.319-.1641-1.064.2813-1.128 1.3861-.198.9878.831 1.1523.828.8312-.017-.3504-.921-.3233-1.167.1286-1.167.2119 0 .6666.414 1.0104.92.6823 1.004.9732.961.9732-.142 0-.849-.2994-1.11-1.7414-1.522-1.5187-.433-1.9626-.402-1.7604.125.1406.366.0467.403-.6005.237-1.245-.319-8.0182-.4-9.5393-.114-.7712.145-1.6596.22-1.9741.165-.4733-.081-.413-.147.3494-.386l.9213-.289-.7897-.02c-1.366-.035-1.9797.266-2.3501 1.153-.6402 1.532.0786 3.137 1.2972 2.896.2896-.057 1.1541-.228 1.9212-.379zm15.431-.977c.0838-.218.0554-.57-.0631-.782-.1603-.286-.2874-.151-.496.529-.2239.73-.2112.887.0631.782.189-.072.4122-.31.496-.529zm-19.562-1.561c.5883-.532.3613-1.159-.4196-1.159-.5976 0-.9464.599-.7274 1.25.1507.448.5903.413 1.147-.091zm19.367-.946c-.084-.21-.1464-.147-.159.159-.0114.278.0508.433.1382.346.0875-.088.0968-.315.0208-.505z"/>
  </g>
  <text x="114.2402" y="193.6125" font-size="3.3514" font-family="sans-serif" stroke-width=".2646"><tspan x="114.2402" y="193.6125">www.buttersafe.com © 2011 Alex Culang and Raynato Castro</tspan></text>
</svg>
