<?xml version="1.0" encoding="UTF-8"?>
<svg version="1.1" viewBox="0 0 285.75 252.41" xml:space="preserve" xmlns="http://www.w3.org/2000/svg" xmlns:xlink="http://www.w3.org/1999/xlink"><g><g fill="#ababab"><g stroke="#000" stroke-linecap="round"><g><path d="m-8.8635 270.66s6.1115-11.434 7.6146-12.085c1.6997-0.73692 14.344-3.3285 21.865-4.623 7.96-1.37 19.872-10.313 22.456-12.573 1.5341-1.3419-0.3729-4.8824 0.72841-9.0222 1.1927-4.4835-0.76496-9.6221-1.0187-14.55-0.29544-5.7383-0.46474-10.299-0.79626-11.354-1.31-4.1712-6.7007-12.892-8.0578-19.678-1.3571-6.7855 1.6207-27.937 8.9059-36.048 1.2368-1.377 4.6917-2.2234 7.2143-3.4764 4.7289-2.3489 9.5872-3.4781 16.45-3.3939 15.535 0.19055 19.657 1.3945 28.753 9.4997 3.3883 3.0189 5.8519 6.1135 7.4727 9.9463 1.3555 3.2055 1.5559 7.9941 1.9422 9.3075 0.42534 1.4462 1.0232 2.0139 2.0008 4.0067 0.97195 1.9811 0.9672 5.133 1.2223 6.5108 0.48482 2.6189-1.335 4.4493-1.0178 7.464 0.26858 2.553 1.4616 1.2331 2.0356 4.0713 1.3804 6.8253-0.33074 10.428-2.5275 14.358-1.9479 3.4854-4.8842 7.2868-5.0309 11.184-0.13213 3.5086-5.3088 12.424-15.288 12.846 0 0-1.1575 5.7167 0.87819 9.2791 2.0356 3.5624 7.2096 3.1383 10.518 5.1739 1.5704 0.96641 5.0525 2.8313 8.2834 4.527 0 0 11.819 0.13799 13.515 0.6469s7.5488 4.3257 8.7363 7.1248c1.1875 2.799 5.0891 11.026 5.0891 11.026" fill="#fff"/><path d="m86.049 233.05c-3.7878 0.16022-8.9618-0.27029-13.109-2.5872-3.8344-2.1421-7.9793-6.9504-9.4293-8.2432-2.7871-2.4851-8.3083-7.9406-11.178-13.988-1.7583-3.7048-2.5215-7.6318-1.0512-11.234" fill="#fff"/><path d="m105.73 252.02c3.5678 1.8725 6.8205 3.534 6.8205 3.534" fill="#ababab"/></g><path d="m88.551 190.93 5.2163 18.915-15.395-0.59373" fill="#fff" stroke-linejoin="round" stroke-width="2"/></g><g fill="#ababab" stroke="#000" stroke-linecap="round"><path d="m75.87 218.75 18.533 0.50891" stroke-width="2"/><g stroke-linejoin="round"><path d="m74.4 234.81 0.05998 5.3678"/><path d="m71.523 250.26c0.43458 0.70619 1.6626 1.7175 2.4173 1.9508 0.80143 0.24775 3.3301 0.50927 4.1349 0.14843 0.50668-0.22718 0.88933-0.70598 1.1238-1.039 0.11638-0.16528 0.84273-0.29822 1.1875-0.21204"/><path d="m115.9 265.29-0.015 3.5236"/></g></g><g><path d="m52.927 215.31s0.53012 0.42409 0.61493 0.82698c0.08482 0.40289 0.06361 5.704-0.02119 6.0645-0.08482 0.36048-0.61493 0.50891-0.61493 0.50891" fill="#fff" stroke="#000" stroke-linecap="round" stroke-linejoin="round" stroke-width=".5"/><circle cx="71.205" cy="187.79" r="2.9262" fill="#000"/><circle cx="97.939" cy="187.97" r="2.9262" fill="#000"/></g><g><rect x="75.489" y="159.2" width="20.568" height="20.229" fill="#fff" stroke="#000" stroke-linecap="round" stroke-linejoin="round" stroke-width=".25"/><g><use transform="translate(14.754)" xlink:href="#g106"/><use transform="translate(0 14.334)" xlink:href="#g106"/><rect id="rect109" x="82.08" y="160.34" width=".59601" height=".59601" fill="#000"/><use transform="translate(0 .59601)" xlink:href="#rect109"/><use transform="translate(0 1.192)" xlink:href="#rect109"/><use transform="translate(1.2595 .59601)" xlink:href="#rect109"/><use transform="translate(1.8555)" xlink:href="#rect109"/><use transform="translate(2.4515)" xlink:href="#rect109"/><use transform="translate(3.0475)" xlink:href="#rect109"/><use transform="translate(3.6435 .60263)" xlink:href="#rect109"/><use transform="translate(4.2395 .60263)" xlink:href="#rect109"/><use transform="translate(5.6827 -.59601)" xlink:href="#rect109"/><use transform="translate(6.2787 -.59601)" xlink:href="#rect109"/><use transform="translate(6.8747 -.59601)" xlink:href="#rect109"/><use transform="translate(5.386 2.384)" xlink:href="#rect109"/><use transform="translate(5.982 2.384)" xlink:href="#rect109"/><use transform="translate(6.578 2.384)" xlink:href="#rect109"/><use transform="translate(7.174 2.384)" xlink:href="#rect109"/><use transform="translate(7.174 1.788)" xlink:href="#rect109"/><use transform="translate(7.174 1.788)" xlink:href="#rect109"/><use transform="translate(.59601 2.384)" xlink:href="#rect109"/><use transform="translate(.59601 2.98)" xlink:href="#rect109"/><use transform="translate(2.3818 2.384)" xlink:href="#rect109"/><use transform="translate(2.9778 2.384)" xlink:href="#rect109"/><use transform="translate(2.9778 2.98)" xlink:href="#rect109"/><use transform="translate(3.5738 2.98)" xlink:href="#rect109"/><use transform="translate(-5.9376 4.8543)" xlink:href="#rect109"/><use transform="translate(-5.3416 4.8543)" xlink:href="#rect109"/><use transform="translate(-4.7456 4.8543)" xlink:href="#rect109"/><use transform="translate(-4.1496 4.8543)" xlink:href="#rect109"/><use transform="translate(-1.6906 4.8543)" xlink:href="#rect109"/><use transform="translate(-1.0946 4.8543)" xlink:href="#rect109"/><use transform="translate(-.49855 4.8543)" xlink:href="#rect109"/><use transform="translate(.097455 4.8543)" xlink:href="#rect109"/><use transform="translate(.097455 5.4503)" xlink:href="#rect109"/><use transform="translate(.097455 6.6423)" xlink:href="#rect109"/><use transform="translate(.097455 7.2383)" xlink:href="#rect109"/><use transform="translate(-.49855 7.2383)" xlink:href="#rect109"/><use transform="translate(-.49855 6.6423)" xlink:href="#rect109"/><use transform="translate(1.2895 6.6423)" xlink:href="#rect109"/><use transform="translate(1.2895 7.2383)" xlink:href="#rect109"/><use transform="translate(1.8855 6.0463)" xlink:href="#rect109"/><use transform="translate(-3.8065 7.2383)" xlink:href="#rect109"/><use transform="translate(-3.8065 6.6423)" xlink:href="#rect109"/><use transform="translate(-3.8065 7.8343)" xlink:href="#rect109"/><use transform="translate(-2.8099 9.2762)" xlink:href="#rect109"/><use transform="translate(-1.2831 8.7673)" xlink:href="#rect109"/><use transform="translate(.45566 8.5765)" xlink:href="#rect109"/><use transform="translate(2.3641 8.3644)" xlink:href="#rect109"/><use transform="translate(2.9601 8.3644)" xlink:href="#rect109"/><use transform="translate(2.9601 8.9605)" xlink:href="#rect109"/><use transform="translate(2.3641 9.5565)" xlink:href="#rect109"/><use transform="translate(-4.8667 9.8276)" xlink:href="#rect109"/><use transform="translate(-5.4627 10.424)" xlink:href="#rect109"/><use transform="translate(-6.0587 11.02)" xlink:href="#rect109"/><use transform="translate(-6.0587 11.616)" xlink:href="#rect109"/><use transform="translate(-6.0587 12.212)" xlink:href="#rect109"/><use transform="translate(-3.6838 12.212)" xlink:href="#rect109"/><use transform="translate(-3.0878 12.212)" xlink:href="#rect109"/><use transform="translate(-2.4918 12.212)" xlink:href="#rect109"/><use transform="translate(.28602 13.229)" xlink:href="#rect109"/><use transform="translate(.28602 13.825)" xlink:href="#rect109"/><use transform="translate(-.30999 13.825)" xlink:href="#rect109"/><use transform="translate(1.325 12.021)" xlink:href="#rect109"/><use transform="translate(1.325 11.425)" xlink:href="#rect109"/><use transform="translate(.72904 11.425)" xlink:href="#rect109"/><use transform="translate(.72904 10.829)" xlink:href="#rect109"/><use transform="translate(4.4088 6.0463)" xlink:href="#rect109"/><use transform="translate(4.4088 5.4503)" xlink:href="#rect109"/><use transform="translate(4.4088 4.8543)" xlink:href="#rect109"/><use transform="translate(5.0048 4.8543)" xlink:href="#rect109"/><use transform="translate(5.6008 4.8543)" xlink:href="#rect109"/><use transform="translate(6.1969 5.4503)" xlink:href="#rect109"/><use transform="translate(6.7929 5.4503)" xlink:href="#rect109"/><use transform="translate(7.3889 4.8543)" xlink:href="#rect109"/><use transform="translate(7.3889 4.2583)" xlink:href="#rect109"/><use transform="translate(7.3889 3.6623)" xlink:href="#rect109"/><use transform="translate(7.9849 5.4503)" xlink:href="#rect109"/><use transform="translate(8.5809 5.4503)" xlink:href="#rect109"/><use transform="translate(1.8855 4.2121)" xlink:href="#rect109"/><use transform="translate(2.4815 4.2121)" xlink:href="#rect109"/><use transform="translate(9.1769 5.4503)" xlink:href="#rect109"/><use transform="translate(6.7929 6.9797)" xlink:href="#rect109"/><use transform="translate(6.7929 7.5757)" xlink:href="#rect109"/><use transform="translate(6.7929 8.1717)" xlink:href="#rect109"/><use transform="translate(7.3889 8.1717)" xlink:href="#rect109"/><use transform="translate(5.0048 7.2383)" xlink:href="#rect109"/><use transform="translate(5.0048 6.6423)" xlink:href="#rect109"/><use transform="translate(4.4088 7.8343)" xlink:href="#rect109"/><use transform="translate(4.4088 8.4303)" xlink:href="#rect109"/><use transform="translate(-2.2138 9.8723)" xlink:href="#rect109"/><use transform="translate(-1.6178 10.468)" xlink:href="#rect109"/><use transform="translate(-1.0218 11.064)" xlink:href="#rect109"/><use transform="translate(.13303 10.829)" xlink:href="#rect109"/><use transform="translate(.72904 10.233)" xlink:href="#rect109"/><use transform="translate(9.4351 8.1717)" xlink:href="#rect109"/><use transform="translate(9.4351 8.7677)" xlink:href="#rect109"/><use transform="translate(10.031 8.7677)" xlink:href="#rect109"/><use transform="translate(10.406 6.9797)" xlink:href="#rect109"/><use transform="translate(11.002 6.9797)" xlink:href="#rect109"/><use transform="translate(11.598 6.9797)" xlink:href="#rect109"/><use transform="translate(12.824 5.4503)" xlink:href="#rect109"/><use transform="translate(12.228 4.8543)" xlink:href="#rect109"/><use transform="translate(12.228 4.8543)" xlink:href="#rect109"/><use transform="translate(9.7729 4.8543)" xlink:href="#rect109"/><use transform="translate(10.328 4.8543)" xlink:href="#rect109"/><use transform="translate(3.8128 6.6423)" xlink:href="#rect109"/><use transform="translate(3.2168 6.6423)" xlink:href="#rect109"/><use transform="translate(5.0048 9.0263)" xlink:href="#rect109"/><use transform="translate(6.7929 9.6224)" xlink:href="#rect109"/><use transform="translate(6.7929 10.218)" xlink:href="#rect109"/><use transform="translate(5.0048 10.814)" xlink:href="#rect109"/><use transform="translate(5.6008 10.814)" xlink:href="#rect109"/><use transform="translate(5.0048 13.198)" xlink:href="#rect109"/><use transform="translate(4.4088 13.198)" xlink:href="#rect109"/><use transform="translate(4.4088 12.602)" xlink:href="#rect109"/><use transform="translate(3.8128 12.602)" xlink:href="#rect109"/><use transform="translate(3.8128 12.006)" xlink:href="#rect109"/><use transform="translate(2.3853 13.229)" xlink:href="#rect109"/><use transform="translate(2.9813 13.229)" xlink:href="#rect109"/><use transform="translate(2.9813 13.825)" xlink:href="#rect109"/><use transform="translate(12.807 8.1717)" xlink:href="#rect109"/><use transform="translate(11.916 9.1471)" xlink:href="#rect109"/><use transform="translate(11.916 9.7431)" xlink:href="#rect109"/><use transform="translate(10.985 10.252)" xlink:href="#rect109"/><use transform="translate(11.581 10.848)" xlink:href="#rect109"/><use transform="translate(9.7221 11.444)" xlink:href="#rect109"/><use transform="translate(-1.0946 6.0463)" xlink:href="#rect109"/><use transform="translate(-1.6906 6.0463)" xlink:href="#rect109"/><use transform="translate(-2.2021 7.2383)" xlink:href="#rect109"/><use transform="translate(-1.6061 7.8343)" xlink:href="#rect109"/><g id="g106"><rect x="76.379" y="160.16" width="4.0077" height="4.0077" fill="none" stroke="#000" stroke-linecap="round" stroke-width=".5"/><rect x="77.819" y="161.62" width="1.192" height="1.192" fill="#000"/></g><use transform="translate(-5.9376 5.4503)" xlink:href="#rect109"/><use transform="translate(-5.9376 6.0463)" xlink:href="#rect109"/><use transform="translate(-5.9376 6.6423)" xlink:href="#rect109"/><use transform="translate(-5.3416 7.2383)" xlink:href="#rect109"/><use transform="translate(-4.8667 9.2316)" xlink:href="#rect109"/><use transform="translate(-.30999 15.613)" xlink:href="#rect109"/><use transform="translate(-.30999 16.209)" xlink:href="#rect109"/><use transform="translate(.28602 15.613)" xlink:href="#rect109"/><use transform="translate(-.30999 16.805)" xlink:href="#rect109"/><use transform="translate(2.9813 14.421)" xlink:href="#rect109"/><use transform="translate(2.3853 15.017)" xlink:href="#rect109"/><use transform="translate(.88203 14.421)" xlink:href="#rect109"/></g></g><g><g id="g15" fill="#fff"><path d="m124.52 169.19s-0.45922-1.1987 0.19495-1.7093c0.7128-0.55639 1.8892 0.70471 2.8338 2.0692s1.8143 2.6839 1.2745 3.2987c-0.65152 0.742-1.8143-0.045-1.8143-0.045" fill="#fff" stroke="#000" stroke-linecap="round" stroke-width=".5"/><g><path d="m117.98 173.37 6.5453-4.1758s0.80455-0.0133 1.1438 0.45317c0.33927 0.4665 0.2234 1.1585 0.2234 1.1585s0.93044 0.20992 1.1637 0.69763c0.23325 0.4877-0.0419 1.3042-0.0419 1.3042l-6.8546 4.0302" fill="#fff" stroke="#000" stroke-linecap="round" stroke-width=".5"/><path d="m119.23 175.04 6.6582-4.2409" fill="#fff" stroke="#000" stroke-linecap="round" stroke-width=".5"/><path d="m114.82 173.37s-0.16971-0.92788 0.4453-1.2723c0.53012-0.29686 2.3113 0.36048 3.9653 2.9474 1.654 2.587 1.6144 4.5944 1.1875 4.8559-0.54669 0.33482-1.5055-0.40289-1.5055-0.40289" fill="#fff" stroke="#000" stroke-linecap="round" stroke-width=".5"/><path d="m103.13 181.25 11.695-7.8777s1.8598 0.47066 2.9093 2.2699c1.0496 1.7993 1.1832 3.8582 1.1832 3.8582l-12.369 7.0574" fill="#fff" stroke="#000" stroke-linecap="round" stroke-width=".5"/><path d="m102.51 183.22 0.62278-1.9782s1.5133 0.72698 2.413 2.2564 1.0057 3.0515 1.0057 3.0515l-2.0379 0.0172" fill="#fff" stroke="#000" stroke-linecap="round" stroke-width=".5"/><path d="m101.6 184.43 0.9066-1.2005s0.87147 0.53304 1.4412 1.4027c0.59753 0.91203 0.5623 1.9442 0.5623 1.9442l-1.7106 0.13274" fill="#fff" stroke="#000" stroke-linecap="round" stroke-width=".5"/><path d="m99.635 186.09 1.9642-1.6643s0.56443 0.37178 0.91463 0.96711c0.29989 0.50979 0.28488 1.312 0.28488 1.312l-2.2341 0.76469" fill="#fff" stroke="#000" stroke-linecap="round" stroke-width=".5"/><path d="m96.651 188.07 2.9838-1.9792s0.47981 0.13495 0.64474 0.46481c0.16494 0.32987 0.28489 0.91463 0.28489 0.91463l-3.4186 1.9192s-0.37485-0.11995-0.58476-0.43483c-0.20992-0.31487 0.08996-0.88464 0.08996-0.88464z" fill="#fff" stroke="#000" stroke-linecap="round" stroke-width=".5"/><path d="m112.29 183.28c-0.83145 0.47441-1.9986 0.40845-3.3769-1.7544s-1.2661-3.3206-0.31588-3.9607c0.6868-0.46264 2.1966 0.12036 3.2097 1.8929 1.013 1.7725 1.3145 3.3478 0.48307 3.8223z" fill="#fff" stroke="#000" stroke-linecap="round" stroke-width=".5"/><path d="m111.81 179.45 6.0114-3.6576" fill="#fff" stroke="#000" stroke-linecap="round" stroke-width=".5"/><path d="m110.64 178.04 5.9064-3.7612" fill="#fff" stroke="#000" stroke-linecap="round" stroke-width=".5"/><path d="m118.6 177.75-5.9822 3.5189" fill="#fff" stroke="#000" stroke-linecap="round" stroke-width=".5"/><path d="m96.55 188.94-0.73984 0.45719" fill="#fff" stroke="#000" stroke-linecap="round" stroke-width=".5"/></g></g><use transform="rotate(-26.968 264.39 174.76)" xlink:href="#g15"/><use transform="translate(-24.004 -.16964)" xlink:href="#g15"/><use transform="translate(5.1951 -21.565)" xlink:href="#g15"/><use transform="rotate(-14.729 -2.0711 164.82)" xlink:href="#g15"/><use transform="rotate(-14.734 -27.837 184.45)" xlink:href="#g15"/><use transform="rotate(-15.032 -43.833 214)" xlink:href="#g15"/><use transform="rotate(-29.767 17.406 199.8)" xlink:href="#g15"/><use transform="rotate(-45.593 40.275 196.24)" xlink:href="#g15"/><use transform="rotate(-60.499 47.819 193.95)" xlink:href="#g15"/><use transform="rotate(-69.157 50.998 196.03)" xlink:href="#g15"/><use transform="rotate(-81.946 54.091 194.19)" xlink:href="#g15"/><use transform="rotate(260.98 57.965 191.01)" xlink:href="#g15"/><use transform="rotate(247.48 60.044 190.4)" xlink:href="#g15"/><use transform="rotate(231.85 63.664 188.55)" xlink:href="#g15"/><use transform="rotate(214.62 65.418 186.87)" xlink:href="#g15"/><use transform="rotate(213.67 66.735 190.96)" xlink:href="#g15"/><use transform="rotate(212.92 68.365 194.92)" xlink:href="#g15"/><use transform="rotate(207.09 69.083 196.75)" xlink:href="#g15"/><use transform="rotate(197.42 69.642 198.06)" xlink:href="#g15"/><use transform="rotate(-26.968 243.8 219.81)" xlink:href="#g15"/><use transform="rotate(-26.968 250.39 245.33)" xlink:href="#g15"/><use transform="rotate(-31.823 217 255.46)" xlink:href="#g15"/><use transform="rotate(-26.968 224.25 232.7)" xlink:href="#g15"/><use transform="rotate(-26.968 268.16 197.61)" xlink:href="#g15"/><use transform="rotate(-26.968 252.38 197.27)" xlink:href="#g15"/><use transform="rotate(-26.968 261.61 223.82)" xlink:href="#g15"/><use transform="rotate(-6.9295 761.05 55.842)" xlink:href="#g15"/><use transform="rotate(3.967 -992.68 636.5)" xlink:href="#g15"/><use transform="rotate(-53.448 161.58 247.99)" xlink:href="#g15"/><use transform="rotate(-80.508 119.52 233.39)" xlink:href="#g15"/><use transform="rotate(-80.508 130.51 241.33)" xlink:href="#g15"/><use transform="rotate(-80.508 113.39 240.42)" xlink:href="#g15"/><use transform="rotate(265.86 101.49 238.83)" xlink:href="#g15"/><use transform="rotate(-80.508 124.11 249.49)" xlink:href="#g15"/><use transform="rotate(-83.021 114.37 252.06)" xlink:href="#g15"/><use transform="rotate(267.87 97.767 247.77)" xlink:href="#g15"/><use transform="rotate(-83.021 119.34 262.1)" xlink:href="#g15"/><use transform="rotate(-84.696 102.53 261.38)" xlink:href="#g15"/><use transform="rotate(-83.021 106.93 268.2)" xlink:href="#g15"/><use transform="rotate(-86.713 96.257 267.47)" xlink:href="#g15"/></g><g stroke-linecap="round"><path d="m63.447 195.5c-4.0062-2.0317-10.581-7.623-12.199-7.9622-4.3185-0.9053-8.4118 4.7098-8.3191 8.0864 0.18819 6.8502 5.0425 11.244 8.2847 15.619" fill="none" stroke="#fff"/><path d="m51.213 211.25c3.6588 4.9377 7.3151 8.435 12.961 14.204 4.1454 4.2353 13.225 9.824 21.111 9.6543 4.9169-0.10576 9.9489-1.8267 11.995-4.4382 2.8377-3.6216 9.3211-14.954 9.561-17.233 0.2399-2.2791 0.64952-3.7746 1.391-5.6776 1.1026-2.8299 1.8145-4.9759 2.313-6.4714-1.9083-0.63621-6.0301-1.9368-8.29-2.788-1.9312-0.72746-8.3036-3.2756-12.142-3.6354-3.8384-0.35985-9.6774 5.15-14.826 4.8701-4.7073-0.25585-10.422-3.0753-11.841-4.2279z" fill="#fff" stroke="#000" stroke-width=".5"/></g><g fill="#fff" stroke="#000" stroke-linecap="round"><path d="m54.575 207.96c1.7396 1.6391 6.6225 10.694 10.597 14.653 3.3581 3.3449 8.9492 8.7685 15.02 9.281 8.2846 0.69933 13.82-1.1569 16.156-3.5125 2.4984-2.519 4.936-5.6162 6.073-7.6059 1.1995-2.0992 2.4997-4.6117 3.2412-6.5146 1.1026-2.8299 1.9379-5.6828 2.4364-7.1783-1.0742-1.0126-2.5643-2.6327-3.6637-3.9283-1.4681 0.0706-3.147-0.13744-3.762-0.38155-1.9181-0.76136-4.0644-3.6254-11.127-3.0005-4.941 0.43709-7.6951 3.2161-12.027 2.5978-3.7928-0.54137-10.564-2.223-14.525-3.8267z" stroke-width=".5"/><path d="m52.001 188.58 10.993 9.965"/><path d="m51.689 205.42 2.8857 2.5438"/></g><g stroke="#000" stroke-linecap="round" stroke-width=".5"><path d="m55.231 208.97c1.7396 1.6391 7.4871 7.4256 11.462 11.385 3.3581 3.3449 13.851 11.499 19.938 11.76 3.7264 0.15955 8.1012-1.2533 10.438-3.6088 2.4984-2.519 4.1863-5.4962 5.3233-7.486 1.1995-2.0992 2.3498-4.7916 3.0912-6.6946 1.1026-2.8299 1.4416-5.0366 1.9401-6.5321-1.7883-1.6858-3.9616-3.015-6.2214-3.8662-1.9312-0.72746-6.2233-3.6876-11.831-1.2781-4.5574 1.9582-10.913 0.4807-15.244-0.13757-3.7928-0.54137-7.5819-1.0853-11.37-0.76852z" fill="#fff"/><path d="m52.704 189.49 10.001 12.415" fill="none"/><path d="m53.215 206.38 2.8284 2.7431" fill="none"/></g><path d="m51.671 188.94c-2.5489-1.978-8.9446 1.6308-8.1537 8.8734 0.5395 4.9404 4.4425 8.6794 9.4072 7.3805" fill="#fff" stroke="#000" stroke-linecap="round" stroke-width="2"/></g><g><path d="m259.46 216.29s-5.5225-16.328-5.6425-20.286c-0.11995-3.9584 0.47981-5.8776 1.5594-7.7968 1.0796-1.9192 6.2375-5.9976 7.9168-8.0368 1.6793-2.0392 5.8776-6.3574 5.8776-9.2363 0-2.8788-0.11993-12.955-0.71969-15.234s-9.1158-19.68-14.874-25.79c-5.95-6.3128-14.154-7.9168-19.912-8.9964-5.7577-1.0796-11.842-0.53907-18.627 0.47875-6.7855 1.0178-27.844 6.7285-30.727 9.782-2.8838 3.0535-10.009 21.714-10.009 21.714s-2.3262 1.5852-3.0959 4.7074c-1.069 4.3368 2.587 7.5488 2.587 7.5488s-8.4818 17.388-7.8033 19.763 9.9238 4.4106 9.9238 4.4106l-2.6294 7.8033 3.0535 3.3927s-1.6116 1.5267-1.6116 3.2231-2.4789 10.367-2.6234 15.091c-0.12949 4.2342 5.6684 9.3887 8.5848 10.097 8.9482 2.1731 16.705-6.5517 20.084-7.9328 0 0-1.2359 7.3426-0.98144 8.3604 0.25445 1.0178 2.2901 3.9865 2.2901 3.9865l-0.0424 3.0535s8.5667-1.7812 13.486-3.3079c4.9195-1.5267 23.18-10.811 30.137-14.29 6.9572-3.4786 13.799-2.5043 13.799-2.5043z" fill="#fff" stroke="#000" stroke-linecap="round"/><g fill="none" stroke="#000" stroke-linecap="round"><path d="m206.51 224.71c0.48516 2.7561-1.1115 5.4414-1.3783 6.9339" stroke-linejoin="round"/><path d="m177.47 168.17-3.0888 8.9664"/><path d="m173.62 186.9c4.7774-0.88438 8.6046 2.9306 9.9662 0.8906 1.4909-2.2338-0.50417-5.6838-4.4106-4.9195" stroke-linejoin="round"/><path d="m176.18 153.93c11.309-2.4159 7.7182-1.2606 19.158-0.0246"/><path d="m199.87 156.21c0.58376 2.0069 0.98248 5.1881 0.74216 7.5276"/></g><path d="m186.99 165.47s1.232 1.4755 1.3592 2.8326-0.64599 2.919-0.64599 2.919-0.96983 0.26386-1.9028 0.26386-1.9611-0.0434-1.9611-0.0434-1.8185-1.4263-1.8185-2.9106c0-1.4843 1.1678-3.0567 1.1678-3.0567z" fill="#fff" stroke="#000" stroke-linecap="round"/><circle cx="184.52" cy="168.31" r="1.267"/><g stroke="#000" stroke-linecap="round"><path d="m181.97 171.47s5.068 0.06 6.6873-0.38987c1.6193-0.44982 4.7981-3.0888 4.7981-3.0888s-2.8788-2.459-5.1879-2.6989c-2.0881-0.21695-3.8627 0.25402-5.8476-0.06-1.6912-0.26751-2.7889-1.1396-2.7889-1.1396" fill="none"/><path d="m195.07 167.87c1.0979-3.1e-4 3.9561 0.66297 4.858 1.1096" fill="none"/><path d="m199.32 166.46s-3.4352-1.5267-4.4954-2.4597c-1.0602-0.933-2.6294-2.5446-6.5734-3.6048-3.9441-1.0602-6.0718-0.37955-7.8106 0.3414-1.7388 0.72096-3.5076 0.67855-4.1013 0.50891-0.59373-0.16963-1.8287-0.62948-1.8287-0.62948-0.22478 1.5413 0.0177 3.5531 1.5267 3.8929 1.5308 0.34468 2.2477-0.48771 3.2231-0.95421 0.97542-0.4665 3.7911-1.5507 5.6616-1.4419 3.6472 0.21205 10.199 2.6506 14.398 4.347z" fill="#fff"/><path d="m171.25 159.56c-1.2773 0.96878-1.4005 2.1774-1.1875 3.1595 0.23734 1.094 1.5601 2.458 3.5624 1.866-1.145-1.4843-2.0645-2.5531-2.3749-5.0255z" fill="#fff"/></g><g stroke="#000" stroke-linecap="round"><path d="m207.93 143.39s-1.3995 0.4665-1.9084 3.732c-0.50891 3.2655-0.0424 5.5132 0.42409 7.0824 0.4665 1.5691 2.2053 4.5378 2.3325 5.9373 0.12723 1.3995 2.4173 11.832 1.8236 13.486-0.59373 1.654-1.6116 0.933-2.2477 2.2901-0.63614 1.3571-1.1026 3.0111-1.1026 3.0111s-0.97541-1.9508-2.0356-0.0424c-1.0602 1.9084-1.3571 2.8414-1.3571 2.8414s-0.55132-2.587-1.1875-1.3995-1.1026 3.52-1.1026 3.52-1.3147-0.0848-1.9508 1.7812c-0.63614 1.866-1.7388 6.0221-1.7388 6.0221s-0.59373-1.7812-1.7812-2.6294c-1.1875-0.84818-2.5022-2.8414-4.453-2.6294-1.9508 0.21204-3.1383 0.97541-3.8592 2.3749-0.72095 1.3995-0.80577 2.3749-0.38168 2.7566s1.145 1.2299 1.654 0.933c0.50891-0.29686-0.21205-1.654 0.0848-1.9932 0.29686-0.33928 1.4419-0.67855 1.7812-0.33928 0.33927 0.33928 1.1026 1.9508 0.89059 2.5446-0.21204 0.59373-0.38168 1.8236-0.72095 1.866-0.33928 0.0424-1.2723-0.0424-1.9508-0.4241-0.67855-0.38168-2.9686-1.866-4.2409-2.1629-1.2723-0.29686-2.1205-0.0424-2.587-0.38168-0.4665-0.33927-1.4843-2.0781-1.9084-2.1205-0.42409-0.0424-3.1383-0.29686-3.5624-0.63613-0.42409-0.33928-2.7566-0.50892-3.3503-0.4241-0.59373 0.0848-2.7566 0.16964-3.3503 0.93301-0.59373 0.76336-0.84819 4.4954-0.50891 5.4284 0.33927 0.93301 3.4776 1.866 4.7074 2.1205 1.2299 0.25445 9.0614 2.9154 9.0614 2.9154l-1.3794 1.5594-1.1395 0.06-0.59975 0.89964-3.2387 0.2399s-2.6989 1.8592-3.0588 2.6389c-0.35986 0.77968-2.2791 4.0184-2.459 4.7981-0.17992 0.77968-0.11995 0.4798-0.59975 1.3794-0.47981 0.89964-0.59976 1.3195-0.53979 1.9192 0.06 0.59976 1.0196 2.0992 1.0196 2.0992s-0.65973 0.47981-0.71971 1.4994c-0.06 1.0196-1.1395 6.6573-0.89963 7.317 0.2399 0.65973 1.9792 4.2583 3.6585 5.6377s4.858 3.9584 5.4578 3.9584c0.59976 0 10.496-0.59976 11.036-0.77969 0.53979-0.17992 2.2791-3.5386 2.9388-3.5985 0.65973-0.06 2.9988 0.65973 4.0184-0.35986 1.0196-1.0196 0.71971-2.7589 2.579-3.2387 1.8592-0.4798 4.382-1.803 5.5694-2.4815s1.9508-1.7812 2.6294-2.0356c0.67855-0.25446 4.8347-0.8906 5.2163-1.4419s2.1205-1.7812 2.5446-2.2901 5.1739-2.4597 5.6404-3.52 3.0499-8.8625 3.2298-10.482c0.17993-1.6193 0.35985-8.8164 0.17993-10.676-0.17993-1.8592-3.7914-7.6384-4.7244-9.5044-0.93301-1.866 0.42409-9.5845-0.4241-12.044-0.84819-2.4597-6.2766-6.1918-6.1069-7.0399 0.16963-0.84819 1.9508-2.5446 2.6294-2.799 0.67855-0.25446 2.7785-0.57953 3.1983-0.96937s3.5986-2.369 4.6781-2.1891c1.0796 0.17993 3.0288 1.4694 3.8684 3.0288 0.83967 1.5594 2.1891 5.7577 2.2191 9.4162 0.03 3.6585 0.32797 4.6238-0.0537 5.9384-0.38168 1.3147-3.4776 4.2409-3.6472 5.9373-0.16964 1.6964 0.16963 4.5802 1.0178 4.9619 0.84818 0.38168 8.5007 0.22548 10.42-0.0744 1.9192-0.29988 2.6989-0.65973 3.5986-0.41983 0.89964 0.23991 4.4982 0.11995 5.5178-0.06 1.0196-0.17993 5.8776-1.7993 6.8972-1.6793 1.0196 0.11996 3.3586 0.89964 3.3586 0.89964s2.0392-2.0992 3.3586-3.4786c1.3195-1.3794 3.4186-2.579 4.3782-3.8984 0.95962-1.3195 3.7785-6.2375 4.0184-7.6169 0.23989-1.3794 0.83965-14.154 0.23989-15.714-0.59975-1.5594-3.9584-7.8568-4.1983-8.3966s-0.4798-1.7993-0.89963-2.519-2.7589-3.9584-2.7589-3.9584 0.77969-2.8788-0.06-4.5582c-0.83966-1.6793-2.459-5.4578-3.7785-7.0172-1.3195-1.5594-4.3782-4.1383-7.0771-5.2179-2.6989-1.0796-7.0771-3.2987-12.415-3.7185s-14.574-1.0196-18.113-0.53979c-3.5386 0.47981-9.5362 0.95962-12.415 2.1591-2.8788 1.1995-5.8776 1.7993-9.2363 2.6989-3.3586 0.89964-8.4566 2.7589-11.096 4.0784-2.6389 1.3195-5.0979 2.6389-5.5778 3.8984-0.4798 1.2595-2.8189 4.6781-2.6989 5.6377 0.11996 0.95961 1.5594 3.3586 3.4186 4.4982s6.1472 2.9722 8.0894 3.8881c1.9513 0.92021 3.6367 2.4209 4.3316 3.2987 0.91938 1.1614 1.8532 3.3689 2.7528 3.3689 0.89964 0 0.95961-2.519 0.06-3.8984-0.89964-1.3794-5.6377-6.2375-5.6377-6.2375s2.6989 1.0196 4.7381 1.1395c2.0392 0.11996 8.7565 1.2595 9.2363 1.1995 0.47981-0.06-0.59976-2.519-0.95961-3.1187-0.35986-0.59976 3.2953 1.1232 3.2953 1.1232z" fill="#fff"/><g fill="none"><g><path d="m181.85 139.82s4.3257 3.2655 5.9797 4.1985c1.654 0.93301 5.1315 3.9441 5.1315 3.9441"/><path d="m178.88 137.02s1.7812 0.89059 2.2477 0.97541c0.4665 0.0848 1.145-0.16964 2.2477 0.0848 1.1026 0.25445 3.9016 1.3571 4.7074 1.9932 0.80577 0.63614 3.8592 3.1807 3.8592 3.1807"/><path d="m183.29 133.5s3.9441 0.76336 4.7922 1.3995c0.84818 0.63614 8.6091 6.319 15.352 9.5845"/><path d="m188.89 129.65s2.5658-0.10602 2.8414-0.0424c0.27566 0.0636 4.1561 1.9932 5.7889 3.5412s2.8626 2.4809 4.1349 3.5412c1.2723 1.0602 2.7142 1.3571 3.8592 2.1205 1.145 0.76336 3.8592 2.587 4.2833 2.7566 0.42409 0.16963 3.1383 1.1875 3.1383 1.1875"/><path d="m194.02 127.14s3.5624 0.50891 4.9195 1.1875c1.3571 0.67854 5.2588 2.8414 7.0824 4.6226s4.1561 2.5021 5.2588 3.0959 3.6048 2.3749 4.7922 2.6718c1.1875 0.29686 7.7185 2.7566 7.7185 2.7566"/><path d="m200.85 126.04s3.0959 1.1451 4.4954 1.3147c1.3995 0.16964 1.3995 0.50891 2.799 0.97542 1.3995 0.4665 6.2342 2.8414 7.2944 3.2231s3.5924 0.93291 5.2717 1.5327c1.6793 0.59975 3.4786 1.4394 4.6181 2.0992s2.0392 1.6793 2.8189 2.0392c0.77968 0.35986 3.7785 1.5594 5.3378 1.6194 1.5594 0.06 2.9388 0.47981 3.6585 1.0196"/><path d="m210.01 124.43s2.5446 0.33928 3.732 0.33928 3.1383 1.2723 4.0713 1.2723c0.933 0 3.2231 0.4241 4.5802 0.84819 1.3571 0.42409 7.2096 3.1383 8.2274 3.8168 1.0178 0.67855 5.3436 3.3928 6.2766 3.6472 0.933 0.25446 8.6515 4.7498 8.6515 4.7498"/><path d="m220.36 122.05s4.4954 2.1205 5.6828 2.4597 2.5446-0.0848 4.1561 0.76337c1.6116 0.84818 1.9508 1.0178 2.9686 1.1875 1.0178 0.16963 2.2901 0.33927 3.2231 0.933 0.933 0.59373 5.9373 4.2409 7.0399 5.4284s2.1205 2.5446 3.4776 3.3079 2.4597 0.42409 3.6472 1.0178c1.1874 0.59373 2.6294 2.4597 2.6294 2.4597"/><path d="m232.83 121.81s4.1983 1.5594 5.2179 2.459 2.6389 1.5594 3.5386 2.2191c0.89964 0.65974 3.9584 2.1591 4.6181 2.399 0.65974 0.23991 6.4774 2.579 7.1371 3.1187 0.65973 0.53979 1.7993 3.1187 2.519 4.2583s2.9388 3.8384 2.9388 3.8384"/><path d="m236.84 120.19s13.555 5.8176 14.814 6.8972 9.4762 13.255 9.4762 13.255"/><path d="m208 143.34c2.7269 0.54493 5.2682 0.85679 7.5869 0.80968l-1.6193-2.429c1.0356 0.17353 8.8522 1.4661 13.562 1.0693l-0.40501-1.126 12.873-0.10392-0.4241-1.3995 7.7185 1.9084-1.039-1.9084c2.9321-0.55024 9.33 1.972 9.33 1.972l-0.0212-1.4419c1.55 0.55039 4.7593 2.25 5.598 0.0212"/><path d="m212.09 167.28c2.1535 1.7066 2.2885 3.2169 5.1951 3.9441"/><path d="m213.28 172.18c1.1994 3.4146 4.1351 5.1018 5.9161 5.492"/><path d="m210.16 174.54c3.0851 7.5435 6.2644 5.3229 8.185 6.5522"/><path d="m212.77 176.27 1.6116 1.5691"/><path d="m210.07 179.31 0.61494 0.4453"/><path d="m216.05 183.08c2.6994 1.2571 4.3894 6.5654 7.5737 7.464"/><path d="m216.78 188.32 2.0092 2.1891"/><path d="m220.65 193.69c0.31881 0.25153 2.1005 0.72333 3.2087 0.74969"/><path d="m203.32 180.59c1.3942 7.0114 5.4078 7.7968 8.1867 11.515"/><path d="m206.89 178.37c1.2465 3.5858 4.3425 4.1837 6.5374 6.2375"/><path d="m207.67 182.81 1.8592 1.1096"/><path d="m211.28 188c4.3222 2.6761 4.4327 8.8639 9.4573 9.0756"/><path d="m201.44 183.72c-0.52785 12.083 3.7119 12.13 4.7074 15.946"/><path d="m204.67 190.67 1.6116 2.587"/><path d="m212.64 196.52c0.7259 0.59833 2.1716 1.6001 2.3749 2.8414"/><path d="m217.77 199.87c4.3693-0.19185 6.0043 3.4308 6.4462 3.9228"/><path d="m213.28 199.41c1.9542 6.3871 7.6856 4.2952 7.8033 7.6337"/><path d="m208.1 196.52c3.6542 4.574 5.3466 10.763 8.2698 11.366"/><path d="m207.3 203.78 1.6116 3.3079"/><path d="m213.11 211.03c0.90461 3.0849 2.2135 3.8315 3.2231 3.732"/><path d="m216.54 210.73c2.4723 0.30368 3.5647 0.59998 6.0388-1.2273"/><path d="m210.14 217.69h5.2163"/><path d="m202.96 201.04c1.572 4.335 3.9976 10.468 4.4982 13.674"/><path d="m199.48 195.82 1.6793 2.339"/><path d="m205.18 216.33 1.6793 2.0392"/><path d="m202.66 210.51 1.1395 1.3794"/><path d="m197.98 196.84c1.6866 2.7207 0.69842 6.6423 3.1187 9.3562"/><path d="m194.32 200.68c0.41723 0.27869 0.68524 0.64028 0.84819 1.0602"/><path d="m195.17 204.2c6.7462 4.3326 2.4497 11.352 11.026 15.819"/><path d="m199.24 216.8 1.2723 1.5267"/><path d="m202.42 221.25 2.8414 1.9508"/><path d="m191.77 202.21c1.5499 1.6916 2.2474 4.9973 3.8168 7.5913"/></g><g stroke-linejoin="round"><path d="m186.22 200.72c0.79296 0.48962 0.92833 1.1914 1.1132 2.0356l0.55132 0.10603"/><path d="m188.68 204.24c2.5564 5.3812 5.5298 8.0604 5.5132 8.7363-0.0492 2.0034 0.96531 9.4047 6.319 10.899"/><path d="m196.36 224.91c-2.1591-1.8892-3.7185-10.916-5.2179-13.315-0.73179-1.1709-2.1591-2.0092-2.1591-2.0092l-0.65973-1.4094"/><path d="m195.29 227.25 1.8024 1.5479"/><path d="m190.59 227.74 1.4843 1.972"/><path d="m187.66 211.77c1.6622 4.5896 1.1642 5.7337 1.4077 6.5555 0.28832 0.97327 1.5712 1.6014 2.4308 7.059"/><path d="m184.58 216.57c-0.18658 1.4609 0.5178 2.9165 1.0196 3.4786"/><path d="m185.83 230.36c1.0348 1.0251 1.6043 1.463 2.1947 1.6328"/><path d="m180.84 231.06c0.37298 1.354 1.6162 2.1025 1.9642 2.474"/><path d="m186.03 223.07c-0.0634 1.0325 0.75294 1.8675 0.84819 2.4385 0.17995 1.079-0.0181 2.1088 0.80577 2.799"/><path d="m183.76 220.38c0.68957 2.392 0.6927 6.0575 1.1238 8.185"/><path d="m176.96 223.11c-0.50232 3.2405 0.8167 5.2829 1.4994 6.4174"/><path d="m179.78 220.44c0.17313 2.1952 0.36321 3.5781 1.1395 4.3482"/><path d="m171.77 223.77c-0.16915 1.3157 0.96817 3.269 1.6193 3.8684"/><path d="m174.98 228.27c0.0809 1.4761 2.1912 3.5058 4.0077 5.2588"/><path d="m171.5 215.35c0.72668 0.25199 1.2546-1.0422 1.0602-2.4173"/><path d="m175.55 205.18c-0.73442 0.68546-0.35244 1.6686-0.38621 2.6844-0.0311 0.93632-0.59554 1.984-1.2646 2.6886-0.0205 1.0403-0.0654 2.7262 0.52736 3.962"/><path d="m177.86 205.42c0.27757 1.9494-0.25824 3.7562-0.77969 4.948"/><path d="m180.86 203.68 0.045 2.0692"/><path d="m181.35 207.85c-0.0334 1.5748 0.57288 4.197-2.1291 7.6769"/><path d="m170.57 218.41c2.1858 4e-3 2.3193 2.6353 4.0289 3.2655 1.0075-1.4754 1.6092-4.2133 1.6116-6.9975"/><path d="m175.19 220.74 3.0959-2.8414"/><path d="m177.02 219.17c0.85982 1.8199 3.5641-0.18594 5.2289-2.7224 2.7948-4.2582 4.6438-7.9209 1.3446-16.616"/><path d="m171.5 190.39c-0.63178 2.6243 1.5954 4.4343 2.459 4.7981"/><path d="m173.3 191.14c-0.44171 2.0798 3.3154 3.6312 4.7081 4.3182"/><path d="m177.71 191.26c2.0225 3.455 5.8235 4.6188 8.2467 4.3782"/><path d="m176.2 196.49 0.72096 0.86939"/><path d="m181.22 197.77c2.4803 1.2466 15.085 6.8757 16.763-5.9376"/><path d="m187.75 196.3c1.2478 0.60142 2.9675 1.0258 3.3886 0.29988"/><path d="m188.81 189.22 1.7706 0.9118"/><path d="m192.03 188.37c0.45268 0.28207 0.76106 0.75258 0.86965 1.0496 0.14473 0.30312 0.0732 1.5012 0.03 2.3241"/><path d="m194.86 191.23c0.31485 1.8873-0.35215 2.4031-1.3345 2.9988"/><path d="m193.53 196.21 3.2387-0.2399"/><path d="m187.15 198.28 1.5894 1.6193"/><path d="m190.27 198.31c1.048 0.50933 2.5362 0.7157 3.9584 0.5098"/></g></g></g><g fill="none" stroke="#000" stroke-linecap="round" stroke-linejoin="round"><path d="m218.97 170.48c1.1236-2.0591 6.0151-0.61587 6.0276-0.03"/><path d="m219.47 164.93c7.5576-0.83935 9.6191 5.5395 6.319 12.723"/><path d="m219.24 160.5c-1.4983 0.48089-2.4283 2.515-2.519 3.7185"/><path d="m221.88 185.95c3.3569-1.6481 4.3858-4.0521 5.7877-5.7876"/></g><path d="m202.12 236.3c7.8137-0.87981 18.929-4.884 24.441-7.9562 5.5778-3.1088 15.747-8.2808 21.515-10.777 5.0367-2.1797 18.453-1.2544 19.657-1.2989 0.71502 0.62066 1.5994 3.7585 2.399 5.6377l4.1983-1.6793 7.6769 6.5973c2.6718 0.93447 10.76 3.3457 11.297 4.4388 0 0-19.701 5.7749-21.858 6.1872-2.1572 0.41228-8.601 1.0714-10.507 1.6733s-28.951 10.791-35.188 11.871-32.447 2.0392-33.407 1.3195c-0.95961-0.71971-0.89348-7.3135 0.83966-9.2962 0.65585-0.75032 0.73892-2.5818 1.6253-3.52 1.1011-1.1655 1.1823-2.9916 2.0824-4.0046 1.2579-1.4157 3.3224-2.0827 3.5494-4.2307l1.5594 2.1591z" fill="#fff" stroke="#000" stroke-linecap="round" stroke-linejoin="round"/><g fill="none" stroke="#000" stroke-linecap="round" stroke-linejoin="round"><path d="m199 242.54s14.274-4.1983 15.474-4.5582c1.1995-0.35985 7.317-1.0796 9.3562-1.9192s11.036-2.7589 15.594-5.3978c4.5582-2.6389 16.913-7.0771 16.913-7.0771"/><path d="m221.55 243.5c4.611-2.6459 16.496-6.5474 19.312-6.7173 2.8836-0.17395 5.7639-2.4059 7.9768-2.7589 3.2682-0.52128 27.983-4.2938 32.927-6.9572"/><path d="m270.28 221.86-10.581 4.0122"/></g><g fill="#fff" stroke="#000" stroke-linecap="round" stroke-linejoin="round" stroke-width=".5"><path d="m173.67 197.27c1.0414 1.1219 1.4539 1.7066 2.2901 2.6718 2.1868 0.15468 4.3324 0.65886 5.9797 0.97539l0.55132-1.0178c-2.9671-1.0031-5.0721-2.695-8.8211-2.6294z"/><path d="m176.15 200.26c-0.93063 0.94168-1.0588 1.9607-0.9436 3.4347 1.5294-1.4145 3.1238-1.3768 4.8559-1.2723l1.866-1.5267c-2.9035-0.68506-4.4678-0.55294-5.7783-0.63569z"/></g></g><g stroke-linecap="round" stroke-linejoin="round"><g fill="#fff" stroke="#000" stroke-width="2"><path d="m154.53 20.075c12.872-3.83 22.713 1.7359 27.63 9.7778 35.837 2.2226 25.531 36.955 2.6751 37.291-2.1824 21.046-34.324 25.771-46.396 17.338-8.2138 6.4445-34.79 6.9779-37.631-14.365-10.366 5.0154-36.434-14.914-10.234-30.247-0.39791-6.81 8.7791-15.783 18.981-15.155 11.959-28.689 42.602-16.249 44.973-4.6405z"/><ellipse cx="92.876" cy="87.957" rx="11.451" ry="9.9238"/><ellipse cx="78.288" cy="99.153" rx="7.3792" ry="6.1918"/><ellipse cx="197.63" cy="86.176" rx="10.857" ry="12.553"/><ellipse cx="211.58" cy="100.59" rx="6.2362" ry="7.4665"/></g><text transform="scale(1.1178 .89464)" x="126.39941" y="50.786503" fill="#000000" font-family="'Liberation Sans'" font-size="14.196px" font-weight="bold" letter-spacing="0px" stroke-width="2.2355" text-align="center" text-anchor="middle" style="line-height:1.1" xml:space="preserve"><tspan x="126.39941" y="50.786503" style="line-height:1.1">Why aren't</tspan><tspan x="126.39941" y="67.857773" style="line-height:1.1">they dead yet?</tspan></text></g></g></svg>
