<svg xmlns="http://www.w3.org/2000/svg" width="1289" height="1278" viewBox="0 0 341.05 338.14"><path d="M166.7 110.79c-.16-.16-.29-.97-.29-1.8v-1.5l1.26-.14c.7-.08 1.5-.23 1.82-.32.5-.16.57-.05.71.97.1.63.24 1.47.34 1.87.16.7.13.73-.86.73-.56 0-1.4.1-1.85.24-.56.16-.93.14-1.13-.05zm-26.49 2.56a9.9 9.9 0 0 0-.14-1.83c-.13-.48.05-.57 1.75-.88 1.24-.23 1.98-.26 2.15-.1.35.35.61 3.39.31 3.57-.13.09-1.1.24-2.15.34l-1.91.19v-1.3z"/><path d="M143.18 122.94c-3.6-.96-5.39-5.03-5.42-12.34 0-2.99.05-3.45.65-4.76.74-1.6 2.03-3.02 3.26-3.56 1.36-.6 3.77-1.06 9-1.72a2361.8 2361.8 0 0 0 16.54-2.13l4.23-.54c5.37-.7 6.37-.8 9-.94 3.12-.17 3.59-.03 5.32 1.6 2.4 2.28 3.77 7.45 3.14 11.79-.4 2.73-1.5 5.27-2.7 6.17-1.28.96-2.75 1.37-7.75 2.16l-6.08.96c-2.44.39-4.82.74-7.15 1.05l-3.7.5-3.57.5a518 518 0 0 0-4.1.55 192.8 192.8 0 0 1-9.26 1.04c-.15-.01-.78-.16-1.41-.33zm6.43-.94c6.97-.94 7.38-1.02 8.04-1.63 1.12-1.05 3.2-4.44 3.2-5.23 0-.25.14-.6.3-.75.32-.33.18-4.34-.24-6.17-.87-3.9-2.26-6.3-3.97-6.86-1.06-.35-3.96-.27-8.12.22-6.24.75-8.14 1.59-9.56 4.26-.43.8-.5 1.52-.49 5.16.01 6.36.84 8.7 3.83 10.85.85.6 1.1.65 3.04.53a63.1 63.1 0 0 0 3.97-.38zm11.88-2.19-1.04-.78c-.17-.12-.47.11-.75.58l-.46.78h3.01zm5.21-.2c.79-.14 2.68-.44 4.21-.67 6.37-.93 6.38-.94 7.6-3.58 1.03-2.21 1.21-3.06 1.32-6.1.1-2.56.05-2.94-.57-4.34-.83-1.88-3.77-4.88-5.62-5.72-1.13-.51-1.54-.56-3.78-.4-4.32.3-8.5 1.1-9.62 1.87-.88.6-.99 1.22-.44 2.46l.56 1.32c.16.4.4.93.53 1.19.13.25.23.69.23.97 0 .29.1.59.24.67.32.2.58 1.7.73 4.28.1 1.8.02 2.46-.52 4.09a7.52 7.52 0 0 0-.53 2.27c.07.19.68.7 1.34 1.14 1.3.86 2.03.95 4.32.55zm14.72-2.42c3.5-.8 4.5-1.43 5.44-3.48 2.08-4.51 1.31-10.84-1.72-14.12-1.47-1.6-2.48-2.04-4.23-1.86-.77.08-2.23.22-3.25.3a30.4 30.4 0 0 0-2.5.3c-.62.13-.61.14.27.67 1.37.8 3.82 3.5 4.59 5.05.63 1.25.68 1.64.68 4.79 0 3.3-.2 4.7-.94 6.4-.94 2.17-.95 2.24-.25 2.24.36 0 1.22-.13 1.91-.29zm-23.02-16.54c-.08-.09-.31-.1-.5-.02-.21.09-.15.15.16.16.28.01.43-.05.34-.14zm44.89 39.98c-.86-.67-2.81-1.25-3.43-1-.2.07-.37.02-.37-.12 0-.33 2.75-.98 3.27-.78.4.15 1.63 2.25 1.44 2.44-.05.05-.46-.2-.9-.54zm1.23.88c0-.12.13-.22.28-.22.16 0 .71-.47 1.24-1.06 1.02-1.13 1.63-1.3 2.3-.64.53.54.34.84-.51.84-.37 0-1.26.3-1.99.66s-1.32.55-1.32.43zm12.34 85.07c-.35-.35-.19-2.7.2-2.92.22-.12.42-.72.46-1.4.07-.97.2-1.21.63-1.27.94-.14 1.37.7 1.58 3.05.16 1.87.12 2.2-.24 2.34-.24.1-.62.01-.85-.18-.35-.3-.46-.28-.67.1-.26.46-.8.6-1.11.28zm-1.14 6.92c-.24-.63.25-.98 1.26-.88.69.07.9.2.9.62s-.21.54-1 .6c-.73.07-1.04-.03-1.16-.34zm3.97 1.06c-.1-.24-.04-.56.12-.72.4-.4 1.16-.03 1.06.52-.12.6-.97.75-1.18.2zm2.39.56c-.2-.54.33-1.22.96-1.22.26 0 1.13-.35 1.93-.77l1.46-.77-.66-.62c-.42-.4-.62-.82-.55-1.18.09-.45-.13-.68-1.06-1.13-1.28-.63-1.47-1.42-.38-1.57 1.2-.17 3.17 1.13 2.88 1.9-.08.2.26.76.77 1.26 1.4 1.35 1.19 1.97-1.09 3.23-2.13 1.18-4 1.56-4.26.87zm-8.54 2.77c-2.88-.18-3.39-.53-2.67-1.81.37-.65.56-.73 1.85-.73.83 0 1.56-.14 1.71-.32.38-.46 4.24-.57 4.68-.13.26.26.27.44.03.83-.25.4-.24.53.07.65.42.16.52 1.1.14 1.34-.42.26-3.24.35-5.81.18zm-24.96-9.15c-1.57-.82-2.05-1.72-2.05-3.82 0-1.48.07-1.67.93-2.53.8-.8 1.12-.94 2.13-.94 1.46 0 2.36.56 3.04 1.88 1.01 1.99.39 4.44-1.36 5.33-1.1.56-1.73.58-2.7.08zm2.88-.97c.22-.18.57-.75.79-1.27.94-2.22-1.07-4.87-3.25-4.29-.94.25-1.94 1.7-1.94 2.79 0 1.1.78 2.59 1.58 3 .74.39 2.23.26 2.82-.23zm81.79 17.34c-.29-.29-.24-2.23.05-2.23.38 0 .45.31.3 1.42-.09.56-.24.92-.35.81zm-31 22.6c-.23-.46-.41-1.03-.41-1.27s-.1-.55-.21-.68a6.1 6.1 0 0 1-.56-1.31c-.2-.59-.77-2.2-1.29-3.58l-1.23-3.3c-.5-1.36-.66-1.5-1.56-1.3a7.7 7.7 0 0 0-2.3.9c-.75.38-1.32.33-1.32-.13 0-.22.1-.4.23-.4s.3-.33.38-.74c.12-.58.46-.87 1.69-1.43 3.22-1.46 4.06-1.8 4.43-1.8.21 0 .45-.1.53-.23.18-.3 1.36-.53 1.69-.32.13.08.32.51.41.95.16.74.1.82-1.02 1.28-1.02.42-1.2.6-1.2 1.24 0 .42.12.83.27.92.14.09.26.4.26.68s.11.72.24.98c.13.25.39 1 .56 1.65s.42 1.42.53 1.72c.19.47 1 3.13 1.58 5.13.18.63.11.88-.37 1.33-.76.71-.83.7-1.33-.29zm-148.15.84c-1.5-.76-2.02-1.48-2.02-2.84 0-.94.15-1.32.77-1.95.43-.42.97-.77 1.2-.77.59 0 .82.76.43 1.39-.26.41-.26.7.01 1.35.52 1.3 1.52 2.02 2.75 2.02 2.37-.02 3.5-2.4 2.22-4.68-.58-1.02-.71-1.16-2.69-2.72a6.25 6.25 0 0 1-1.47-1.57c-.73-1.55-.1-3.78 1.39-4.92.77-.59 1.2-.7 2.85-.74 1.86-.05 2-.01 3.33.96 1.4 1.04 1.83 1.82 1.52 2.8-.24.75-1.72.78-1.9.05-.21-.77-2.1-1.16-3.56-.74-1 .3-1.2.48-1.5 1.34-.4 1.25-.24 1.58 1.65 3.2a8.1 8.1 0 0 1 1.87 2.19c.45 1.07.51 2.6.12 2.85-.14.09-.26.38-.26.65s-.55.98-1.23 1.58c-1.15 1.01-1.32 1.08-2.84 1.07a6.18 6.18 0 0 1-2.64-.52zm135.25 4.16c-.46-.36-1.24-2.5-1.8-4.95a11.6 11.6 0 0 0-.6-1.98c-.16-.3-.32-1-.35-1.59-.07-1.2-.31-2.4-.64-3.17a14.5 14.5 0 0 1-.71-2.94c-.12-.7-.01-.92.64-1.39.43-.3 1.76-.81 2.96-1.12 1.85-.5 2.26-.53 2.81-.23.36.19.65.48.65.66 0 .17-1.03.83-2.28 1.47l-2.27 1.17.15 1.33c.09.74.32 1.81.52 2.39l.36 1.04 1.3-.12c2.32-.2 2.88-.16 2.88.2 0 .2-.78.69-1.72 1.09-1.88.8-2.08 1.12-1.63 2.64.15.52.34 1.26.42 1.65.08.38.3.75.48.82s1.16-.27 2.18-.76c1.02-.48 2.06-.88 2.32-.89.58 0 .61.87.04 1.44-.5.5-2.36 1.75-3.37 2.26-.41.2-.86.6-1 .85-.3.55-.72.6-1.34.12zm-117.93.8c-.16-.16-.3-.98-.3-1.82v-1.52l-1.04-.29a15 15 0 0 0-2.42-.34c-1.31-.05-1.39-.02-1.88.87-.28.5-.8 1.22-1.16 1.58l-.63.66-.78-.85c-.95-1.05-1.2-1.74-.83-2.42.16-.29.28-.7.28-.92 0-.21.6-1.26 1.34-2.33a32.67 32.67 0 0 0 1.98-3.27c.82-1.66 3-4.4 3.85-4.8a47.4 47.4 0 0 1 3.85-1.67c.22 0-.04 3.58-.56 7.92a25.92 25.92 0 0 0-.29 3.9c.08.2.45.47.82.62.99.37.81 1.4-.27 1.58-.76.13-.8.2-.88 1.63-.08 1.52-.48 2.07-1.08 1.47zm.3-7.6c.37-3.44.65-7.28.55-7.47-.07-.11-.26-.2-.43-.2-.29 0-.6.6-1.9 3.57-.26.58-.87 1.88-1.36 2.9-1.03 2.11-1.09 2.52-.38 2.52.28 0 .6.13.69.28.1.16.72.24 1.4.2l1.23-.08zm106 7.74c-.28-.73-.57-2.07-1.04-4.83-.37-2.2-.68-3.62-1.3-6.07-.63-2.43-.48-3.45.5-3.45.7 0 1.23.58 1.88 2.06 1.15 2.59 4.15 6.67 4.9 6.67.22 0 .38-.1.37-.2-.01-.24-.41-2.05-.8-3.57-.4-1.61-.78-3.6-.95-4.94-.13-1-.06-1.23.48-1.65a2.4 2.4 0 0 1 1.17-.48c.49 0 .62.32 1.15 2.83l.84 4.04c.42 1.98.78 4.52.94 6.56l.16 1.94-1.27-.08c-1.23-.08-1.31-.14-2.67-1.93a25.38 25.38 0 0 1-1.74-2.52c-.84-1.68-2.93-4.75-3.14-4.62-.31.2-.31 2.1 0 2.7.13.26.37.94.53 1.52.15.58.53 1.86.83 2.83.72 2.3.58 3.9-.35 3.91-.11 0-.33-.32-.49-.72zm-100.66 1.04c-.73-.53-.9-2.24-.9-8.97 0-5.82.05-6.92.38-7.04a.5.5 0 0 1 .6.17c.11.17.24 2.46.28 5.08.07 4.88.17 5.95.55 5.95.12 0 .35-.27.52-.6 1.61-3.2 6.46-9.72 7.22-9.72.67 0 .06 1.53-2.06 5.16a136.65 136.65 0 0 0-3.04 5.38c-.4.78-.96 1.73-1.22 2.12-.26.38-.65 1.04-.85 1.45-.42.83-1.1 1.3-1.48 1.02zm89.19 3.13c-.89-.36-1.72-1.31-1.72-1.94 0-.33-.13-.73-.3-.9-.2-.2-.2-.43-.01-.79.15-.28.41-2.52.58-4.99s.41-4.68.54-4.92.24-.65.24-.9c0-.42 1.2-2.13 2.14-3.08.25-.24.5-.6.57-.79.19-.55.83.13 1.22 1.3.34 1 .5 1.42 1.07 2.79a42.9 42.9 0 0 1 1.09 2.84c.38 1.11.6 1.68 1.17 2.96.37.84.56.99 1.41 1.06.79.06 1 .2 1.07.66.06.37-.11.68-.46.87-.68.36-.68.7-.03 2.23.96 2.23-.36 1.73-1.64-.62-.51-.94-.75-.95-3.45-.09-1.45.46-1.78.92-1.78 2.46 0 1.83-.5 2.37-1.72 1.86zm4.7-6.74c1.08-.23 1.02-.67-.6-4.77l-.81-2.12c-.73-1.95-1.46-2.84-1.86-2.25-.14.22-.2 1-.13 1.72.08.73.21 2.7.3 4.37.1 1.67.29 3.18.42 3.34.16.2.52.23 1.1.08.46-.12 1.17-.3 1.57-.37zm-87.28 6.34c-.37-.56-.39-.9-.13-2.34.16-.92.47-2.27.68-2.98.22-.71.4-1.74.4-2.29 0-.54.1-.99.23-.99s.32-.33.42-.73c.24-.98.61-2.67.8-3.63.6-2.94.86-3.17 3.5-2.9 2.66.28 4.31 1 4.31 1.88 0 .6-.06.62-2.5.62-1.76 0-2.6.1-2.85.36-.2.2-.57 1.23-.83 2.28-.52 2.16-.4 2.5.96 2.73 1.38.23 2.31.67 2.31 1.1 0 .33-.4.4-2.22.4h-2.22l-.17 1c-.1.55-.24 1.56-.32 2.25l-.15 1.26h1.15c.64 0 1.78.08 2.54.17 3.06.37.73 1.94-2.87 1.94-.99 0-1.87.12-1.96.27-.26.43-.62.3-1.08-.4zm71.36 1.17c-.57-.94-.88-2.06-1.46-5.27-1.02-5.71-1.2-8.33-.62-9.04.18-.22.76-.66 1.3-.98.9-.53.97-.54 1.16-.1.1.25.3 1.6.42 2.98s.35 3.4.5 4.5l.47 3.63c.3 2.36.56 2.55 3.08 2.2 2.54-.35 2.53-.35 2.53.05 0 .36-1.18 1-1.84 1-.42 0-2.24.63-4.05 1.42l-1 .43zM182.44 280c-.11-.25-.31-1.71-.45-3.24s-.37-3.61-.5-4.63l-.4-3.57a6.3 6.3 0 0 0-.4-1.97c-.37-.4-.28-1.47.11-1.47.2 0 .49.27.65.6.28.58.29.57.62-.27.2-.47.53-.86.76-.86.22 0 .82-.28 1.33-.63a5.03 5.03 0 0 1 4.09-.7c1.67.56 3.05 3.23 3.05 5.91 0 1.68-.24 2.23-1.6 3.7-1.26 1.4-2.67 2.09-4.05 1.99l-1.1-.08.1 2.67.09 2.67-.86.17c-1.19.24-1.24.23-1.45-.29zm3.73-7.01c1.93-1.51 2.76-3.2 2.31-4.75-.43-1.52-3.3-3.3-4.3-2.67-.47.3-.5 1.26-.16 5.1.27 3.05.66 3.48 2.15 2.32zm-40.43 7.59a21 21 0 0 1 .11-2.73l.45-5.72c.14-1.9.3-3.67.33-3.95.07-.43-.17-.57-1.5-.85-.88-.19-1.98-.34-2.45-.35-.92-.01-1.16-.44-.4-.73.26-.1.62-.39.81-.65.28-.4.72-.48 2.38-.48 2.23 0 6.52.4 6.9.64.15.1.13.48-.05.95-.27.72-.4.79-1.55.79-1.5 0-1.67.23-1.9 2.51-.08.88-.33 2.9-.56 4.5-.98 6.92-.75 6.1-1.77 6.35-.54.14-.73.07-.8-.28zm14.4 1.02c-.57-.11-.6-.21-.6-3.1 0-3.58-.1-3.74-2.17-3.46-2.33.32-2.32.3-2.32 3.32v2.63h-.78c-.43 0-.86-.12-.95-.28-.27-.43.44-14.9.73-15.1.37-.23 1.34.06 1.68.51.18.24.2.83.08 1.6-.11.68-.2 2.47-.22 3.98l-.01 2.75 1.6-.18c.89-.1 1.77-.25 1.96-.32.44-.17.66-.97.67-2.41 0-1.19.43-3.33.83-4.1.12-.26.23-.64.23-.86s.21-.4.48-.4c.26 0 .6-.14.77-.3.17-.17.5-.23.75-.13.49.19.47.59-.15 4.8-.44 2.94-.8 6.16-.97 8.6-.14 1.95-.4 2.71-.88 2.6zm4.8.69c-.43-.48-.52-1.11-.63-4.52-.07-2.18-.04-4.12.07-4.32s.27-1.89.36-3.75c.1-2.36.26-3.5.52-3.78.28-.3 1.04-.38 3.15-.37 2.3 0 2.86.1 3.3.5.3.26.54.55.54.65 0 .27-1.27.8-1.92.8-.3 0-.93.11-1.37.25-.45.14-1.15.33-1.55.4l-.74.16.08 2.44.07 2.44 1.63.08c1.05.05 1.75.22 1.96.47.52.62-.06.97-1.8 1.11a5.4 5.4 0 0 0-1.85.39c-.4.3-.47 4.05-.1 4.28.14.09 1.06.03 2.06-.12 3-.45 2.86-.46 2.86.24 0 .35-.17.73-.4.84a9.24 9.24 0 0 1-2.61 1.05c-.6 0-2.28.61-2.74 1-.3.25-.48.2-.89-.24z"/><path d="M257.11 295.02c-.21-.35-.61-.53-1.15-.53-.45 0-1.4-.18-2.12-.4a9.43 9.43 0 0 0-1.8-.4c-.28 0-.73-.2-.99-.43a2.6 2.6 0 0 0-1.34-.49c-1.18-.08-3.53-1.6-3.91-2.53-.33-.78-.16-2.23.34-2.84.2-.25.12-.45-.3-.74-.53-.37-.57-.63-.57-3.37 0-3.57.35-4.37 2.31-5.24.7-.31 1.44-.67 1.66-.8.22-.12.7-.37 1.06-.54.36-.18.84-.45 1.06-.62.42-.33 3.68-1.62 6.08-2.42 2.2-.73 7.61-.67 9.3.1 1.22.56 2.6 2.03 2.6 2.76 0 .22.15.53.33.71s.31.95.3 1.75c-.02 1.63-.63 2.82-2.11 4.11-.9.79-1.01.82-2.57.66-.9-.1-2.04-.29-2.53-.44-.5-.15-2.74-.26-5-.23-5.48.06-7.67.64-9.31 2.48-.41.46-.69.95-.6 1.08.08.13.33 0 .57-.3a4.7 4.7 0 0 1 3-1.39c.49 0 .96-.22 1.26-.6.46-.56.64-.59 4.1-.55 2.04.03 3.93.18 4.35.35.78.33 4.77.25 6.23-.12a4.89 4.89 0 0 0 3.08-2.74c.43-1 .5-1.63.4-3.48-.06-1.24-.2-2.62-.3-3.06-.16-.72-.27-.8-.96-.7-.46.07-.97-.04-1.24-.28-.54-.47-2-1.13-3.1-1.4-1.4-.34-6.26-.44-6.56-.14a1.3 1.3 0 0 1-.81.29c-.48 0-1.63.3-2.94.8-.3.1-1.72.75-3.18 1.44a121.3 121.3 0 0 1-3.17 1.45c-.3.12-1.54.69-2.78 1.27a31.11 31.11 0 0 1-3.44 1.4c-.66.19-1.38.58-1.62.87-.3.37-.82.55-1.8.6-.84.06-1.66.3-2.13.63a3 3 0 0 1-1.04.53c-.16 0-.5.11-.76.24-.25.13-1 .48-1.65.78s-1.95.9-2.88 1.35c-.94.44-2.14.8-2.67.8-.7 0-1.15.2-1.59.67-.34.36-.78.66-.98.66s-.85.22-1.47.49a17.17 17.17 0 0 1-5.1 1.4c-1.15.18-2.5.54-2.98.8-.47.27-1.08.49-1.35.49s-.84.17-1.25.4c-.42.2-1.31.39-1.99.39-.67 0-1.68.2-2.24.43-1.12.47-3.14.83-6.06 1.07-1.14.1-2.1.33-2.52.62-.5.37-1.38.51-3.7.62-3.53.16-5.32.4-5.67.73-.14.13-4.94.23-10.83.23-8.92 0-10.64.06-11 .4-.24.2-1.1.46-1.92.55-1.28.16-1.6.1-2.2-.38-.66-.52-1.05-.57-4.4-.57-3.4 0-3.66.04-3.66.5 0 .86-.68 1.18-2.06.97a12.8 12.8 0 0 0-2.08-.16 1.5 1.5 0 0 1-1.37-.64c-.46-.59-.72-.67-2.22-.67-.93 0-1.8-.1-1.94-.24-.14-.13-.79-.3-1.44-.38l-4.29-.5c-1.7-.21-3.25-.5-3.44-.66a8.06 8.06 0 0 0-2.46-.43c-3.48-.25-6.63-.82-6.9-1.26-.08-.13-.76-.23-1.52-.24-.75 0-1.67-.18-2.03-.39-.37-.2-.94-.38-1.27-.39a2.7 2.7 0 0 1-1.19-.37 6.2 6.2 0 0 0-1.9-.56 29.4 29.4 0 0 1-5.22-1.3 4.37 4.37 0 0 0-1.87-.28c-.49.12-.78-.06-1.46-.9-.55-.7-1-1.02-1.26-.92-.41.16-1.14-.08-3.56-1.16l-2.64-1.19a40.6 40.6 0 0 1-1.65-.76c-.26-.13-.6-.24-.76-.24a2.8 2.8 0 0 1-1-.48c-.67-.46-3.24-1.47-5.46-2.14-1.53-.47-1.22-.33-7.59-3.28-2.37-1.1-2.48-1.13-3.5-.85-.75.21-.75.22.67.77 2.08.81 6.07 3.12 6.49 3.75.2.3.5 1.75.67 3.22.28 2.4.27 2.74-.14 3.35-.7 1.08-1.69.92-3.08-.5a5.05 5.05 0 0 0-1.49-1.2c-.17 0-.9-.24-1.6-.55-1.14-.5-1.74-.55-5.5-.52-2.34.02-4.9.15-5.7.3l-2.45.4c-.55.07-.93.25-.85.4.22.34 4.54.3 5.2-.05.31-.16 2.16-.3 4.28-.33 3.77-.04 5.57.26 6.54 1.07.23.19.56.35.72.35.17 0 .57.35.9.8s.78.78 1.03.78c.66 0 1.3 1.16 1.3 2.33 0 .78-.2 1.25-.86 1.98-.94 1.06-2.57 2.04-3.36 2.04-.28 0-.58.11-.66.24s-.59.3-1.14.38l-2.97.45c-2.23.34-7.01.2-8.77-.27l-2.21-.58c-.59-.15-1.3-.37-1.6-.5-.28-.11-1-.35-1.58-.52s-1.53-.53-2.12-.81a5.35 5.35 0 0 0-1.72-.51c-.36 0-1.31-.25-2.11-.54a55 55 0 0 0-2.38-.81 19.7 19.7 0 0 1-1.72-.62l-1.86-.8c-2.43-1.04-4.38-2.1-4.93-2.69-.32-.34-.82-.62-1.11-.62-1.3 0-6.68-4.95-10.09-9.26a17.7 17.7 0 0 0-1.96-2.22c-.85-.52-1.62-1.6-1.6-2.25 0-.38.21-1.1.47-1.61l.46-.93 1.97.08c1.26.06 2.13.23 2.4.47.36.33.47.34.73.02.17-.2.75-.44 1.3-.53.95-.16 2.07-.4 4.48-.91.9-.2 4.64-1.91 5.08-2.33.07-.06-.38-.54-.99-1.05-2.43-2.08-5.14-5.99-7.16-10.3a6.6 6.6 0 0 0-.95-1.58c-.19-.15-.42-.72-.51-1.26a12 12 0 0 0-1.13-2.75c-1.77-3.29-2.4-5.88-1.62-6.66.75-.75 1.73-.37 3.04 1.2a53.93 53.93 0 0 0 7.67 7.35c.94.65 1.75 1.18 1.81 1.18.07 0 .86.34 1.78.76.91.42 2.13.92 2.72 1.11.58.2 1.17.45 1.3.57.14.12.51.21.82.21.3 0 .84.3 1.18.66.42.45.9.66 1.49.66.47 0 .94.12 1.03.27.09.14.42.26.74.27.32 0 .88.24 1.24.52.36.29.86.52 1.11.52s.52.13.61.28c.1.14.29.26.44.26.18 0 .24-1.44.18-4.21-.09-4.01-.06-4.24.48-4.83.71-.77 1.15-2.32 1.15-4.1 0-.76.12-1.45.26-1.54.15-.1.28-.6.28-1.14.03-1.65.8-3.26 1.98-4.07a4.4 4.4 0 0 1 1.46-.74c.23 0 .89-.23 1.46-.5 1.61-.76 4.16-1.21 4.82-.86.3.16 1.2.3 1.98.3 1.78 0 2.29.47 2.57 2.43l.2 1.4.04-1.22c.04-1.44.6-2.09 1.83-2.09h.84l-.53-.86a4.05 4.05 0 0 1-.52-1.76c0-.5-.21-1.14-.46-1.42-.4-.43-.48-1.17-.56-4.77-.06-2.62.02-4.83.21-5.73 1.3-6.2 1.8-7.6 3.12-8.88.77-.75.88-.98.61-1.3-.52-.62-.22-1.71 1.41-5.17 1.95-4.14 5.86-9.27 7.07-9.27.67 0 .66-.9 0-1.74a5.39 5.39 0 0 1-.7-2.3c-.31-2.73-.4-2.76-1.57-.5-.58 1.12-1.68 2.96-2.45 4.1s-1.39 2.16-1.39 2.28-.2.38-.44.58a10 10 0 0 0-1.2 1.42 28.84 28.84 0 0 1-6.5 6.13l-2.31 1.54 1.7.08c1.98.1 2.4.35 2.4 1.42 0 2.64-4.96 7.24-8.67 8.02-.47.1-.86.3-.86.42 0 .31 1.75 1.04 2.5 1.04.74 0 1.2.48 1.2 1.23 0 .73-1.3 1.58-3.1 2.01l-1.3.31.81.55c1.75 1.18 1.07 2.69-3.15 6.93l-1.9 1.9.76.56c.53.4.75.78.75 1.36 0 .95-.65 1.59-3.18 3.15-1.43.88-1.6 1.05-1.02 1.05 1.06 0 1.32.53 1.2 2.46-.1 1.5-.25 1.9-1.19 3.17-.92 1.24-3.69 3.9-4.07 3.9-.06 0-.7.55-1.42 1.22-2.4 2.24-3.57 2.69-4.46 1.71-.52-.57-.67-2.58-.35-4.52.31-1.9.01-2.08-1.96-1.2-.92.42-2.23 1.1-2.9 1.51-1.44.88-2.1.94-2.74.23-.39-.43-.44-.8-.3-2.05.16-1.5.15-1.54-.65-2-.65-.36-.8-.6-.73-1.18.05-.45.31-.83.68-1 .33-.14.6-.4.6-.56 0-.17.68-.91 1.52-1.65 1.78-1.57 1.77-1.56 3.68-3.57l1.47-1.54-.62-.32c-.53-.26-.63-.51-.62-1.5 0-.64.07-1.59.13-2.1l.12-.92h-1.58c-1.59 0-1.6 0-1.6-.8 0-.58.15-.81.54-.89.29-.06.67-.31.85-.57s1.14-1 2.12-1.66a44.16 44.16 0 0 0 6.79-5.95l1.3-1.38-1.17-.02a10.1 10.1 0 0 1-2.48-.47c-1.25-.41-1.33-.5-1.33-1.35 0-.83.14-1 1.42-1.72l1.41-.8-2.75-.14c-3.2-.15-4.27-.61-4.13-1.79.07-.56.58-.99 2.75-2.3 3-1.8 4.47-2.93 7.84-6.01 2.33-2.14 2.68-2.67 1.93-2.96-.57-.22-.52-1.73.07-1.95.25-.09.93-.47 1.5-.85l1.04-.68-2.94-.14c-3.11-.15-4.03-.52-4.03-1.62 0-.43 1.89-2.07 2.4-2.07.1 0 1.13-.65 2.27-1.44s2.74-1.9 3.56-2.45a8.22 8.22 0 0 0 1.94-1.74c.24-.4.58-.73.75-.75.18 0 .72-.48 1.2-1.04l.88-1.02-.88.25c-.48.14-1.39.25-2 .25-.95 0-1.19-.11-1.43-.63-.37-.82-.32-.89 2.68-4.29a95.07 95.07 0 0 0 3.04-3.56c.3-.4 1.12-1.48 1.84-2.4s1-1.42.64-1.1-.91.6-1.22.6c-.46 0-.58.18-.64 1-.08.86-.18 1-.81 1.07-.58.07-.73.22-.73.75 0 .36-.39 1.12-.86 1.7-1.33 1.6-2.58 1.31-2.58-.59 0-.54.12-1.06.26-1.15.15-.09.27-.86.27-1.72s.12-1.63.26-1.72c.15-.09.27-.39.27-.66s.21-.66.47-.85c.47-.33.9-1.87 1.55-5.63.08-.44.35-1.27.6-1.86.27-.58.56-1.41.67-1.85.1-.43.4-1.03.65-1.32.74-.84 1.67-3.36 1.35-3.67-.68-.69.05-2.55 1.01-2.55.17 0 .31-.22.31-.49 0-.6.72-2.08 1.15-2.35.62-.39 1.15-1.54 1.5-3.24.39-1.88 1.06-3.33 1.88-4.03.3-.25.63-.81.76-1.25l.23-.8h-5.23c-5.08 0-5.24-.02-5.75-.6a5.95 5.95 0 0 1-.84-1.34c-.38-.9-.41-2.74-.05-2.96.15-.1.27-.4.27-.67 0-.71 1.64-1.87 2.9-2.04.58-.08 1.07-.29 1.07-.46 0-.67.86-2.02 1.67-2.61 1.07-.78 2.85-1.34 3.73-1.17.57.1.68.03.68-.47 0-.8 2.2-3.22 3.37-3.7 1.05-.44 3.92-.53 4.17-.13.1.15.37.27.62.27.52 0 2.69 2.09 2.69 2.59 0 .17.32.32.71.32.56 0 .65-.07.4-.32-.63-.63-.3-1.32 1.47-3.07.99-.97 1.96-2.11 2.18-2.52.37-.74 2.9-3.1 4.76-4.46a5.34 5.34 0 0 1 2.06-.82 3.87 3.87 0 0 0 1.53-.47c.35-.29.35-.38 0-.77-.72-.79-.5-1.72.65-2.76 1.4-1.26 2.55-1.32 2.99-.16.32.86.4.9.93.56.29-.18.27-.25-.06-.38-.54-.2-.56-1.6-.03-2.03.24-.2.72-.27 1.17-.18.51.1.88.03 1.1-.23.17-.21.61-.38.98-.38.64 0 .66-.05.47-1.26a143.69 143.69 0 0 1-1.81-21.76c.01-5.27.18-7.47.8-10.19.8-3.46 3.98-7.9 7.61-10.62 1.48-1.11 4.45-2.48 5.38-2.48.7 0 .79-.1.94-1.07a6 6 0 0 1 2.83-3.99l1.36-.89-.16-8.33a797 797 0 0 0-.32-11.68l-.16-3.34-1.04-.58a5.98 5.98 0 0 1-1.75-1.7c-.62-.95-.7-1.35-.68-3.12.02-2.33.49-3.24 2.22-4.34.84-.53 1.37-.64 2.9-.64 1.9 0 2.57.24 3.92 1.43 1.5 1.33 1.84 4.45.7 6.4a6 6 0 0 1-1.23 1.53c-.52.36-.54.48-.24 1.53.17.63.44 1.68.59 2.34l.53 2.24.5 2.19.5 2.25.54 2.31.55 2.32.5 2.25c1.23 5.54 1.39 6.01 1.97 6.02.3 0 .9.18 1.31.4.42.21.9.39 1.09.39.55 0 2.27 1.86 2.43 2.63.13.69.26.75 1.77.91 4.35.45 9.57 3.05 12.62 6.28 2.35 2.48 5.03 8.3 6.07 13.2.17.8.42 1.82.55 2.26.14.45.25 1.08.25 1.4s.14 1.34.32 2.27c.35 1.89.28 1.84 3.51 2.16.73.08 1.56.24 1.85.37.3.14 1.13.3 1.86.38 1.58.16 4.56.58 6.24.9 2.94.53 6.85 4.05 6.85 6.14 0 .27.12.56.27.65.14.1.26.44.26.78 0 .53.17.64 1.23.8.68.1 1.42.29 1.66.41.23.12.99.37 1.68.54.7.18 1.33.43 1.4.55.09.13.32.23.52.23s1.13.34 2.04.75c.91.4 2.08.9 2.59 1.1s1.04.44 1.19.55c.14.1 1.48.8 2.96 1.55s2.86 1.57 3.05 1.83c.26.36.61.44 1.53.36 1.07-.1 1.26-.22 1.94-1.28 1.96-3.05 5.62-4.05 9-2.47 1.91.9 2.68 1.77 3.65 4.15.3.75.54.9 1.8 1.18 1.16.26 1.72.58 2.68 1.54 1.07 1.07 1.23 1.4 1.39 2.7.18 1.56 0 3.03-.42 3.59-.19.23-1.26.33-3.6.34l-3.35.01 1.85 1.64c2.44 2.16 4.45 4.15 4.94 4.87.37.55.44.56 1.43.21 1.54-.55 3.1-.5 3.9.14.98.77 3.08 3.63 3.73 5.09.53 1.2 1.22 1.63 1.62 1 .21-.36 6.4-.36 6.61 0 .1.14.48.26.88.26.76 0 2.4.52 4.13 1.31 1.34.61 3.85 2.99 3.85 3.64 0 .27.14.63.31.8.2.2.31 1.25.31 2.77 0 1.82.12 2.66.45 3.26.66 1.18 1.22 5.23.83 6.07-.16.37-.48.67-.7.67s-.4.1-.4.24-.07.43-.16.66c-.12.3 0 .42.35.42.29 0 .7.2.94.46.58.64 1.08 3.77.92 5.78-.12 1.5-.08 1.72.5 2.26.4.38.62.88.62 1.45 0 .48.12.94.27 1.03.14.09.26.62.26 1.19 0 .56.1 1.1.24 1.17.13.08.3.6.38 1.14.16 1.1.5 2.74.97 4.57.16.65.27 1.69.23 2.3-.05.75.08 1.27.38 1.61.82.91.5 5.68-.63 9.32a30.53 30.53 0 0 1-2.8 6.02c-.4.57-.39.6.2.6.37 0 1.37.6 2.36 1.4 1.4 1.15 1.72 1.54 1.72 2.18 0 .73-.08.79-1.2.91l-1.19.13.04 1.37c.02.82.27 1.83.64 2.57 1.2 2.42 4.89 5.87 7.96 7.46.57.3.76.58.76 1.17 0 1.03-.62 1.32-2.77 1.32h-1.74l.52 1.02c.68 1.33 1.67 1.75 3.6 1.5 1.66-.2 2.24.08 2.24 1.08 0 .42-.39.9-1.23 1.55-.68.52-1.33.94-1.45.94-.34 0 .62 1.58 2.26 3.7.81 1.05 1.48 2.05 1.48 2.22s.26.42.6.56c.36.17.62.54.67 1 .07.55.23.72.7.72.73 0 1.54 1.1 1.42 1.93-.07.48-.26.58-1.01.58-.51 0-1.02.12-1.12.27-.3.4-.24 1.72.07 1.72.15 0 .36.22.46.49.33.86 1.88 2.42 2.4 2.42.76 0 1.9 1.02 1.9 1.7 0 1.08-.76 1.45-2.91 1.44a8.39 8.39 0 0 1-2.46-.27c-.44-.23-.47-.2-.21.27.37.7.36 2.5-.02 2.87-.45.46-.1 1.38 1.32 3.54 1.31 1.98 2 2.64 5.01 4.89 1.4 1.03 1.66 1.35 1.6 1.92-.06.47-.3.74-.75.87-1.13.3-3.84.25-4.18-.09-.49-.48-.38.03.2.98.5.78 1.58 1.47 3.55 2.24.63.24.73.41.64 1.05-.1.72-.08.74.57.47 2.22-.96 5.59-3.83 8.8-7.53 1.92-2.2 2.5-2.7 3.09-2.7.97 0 1.35.44 1.35 1.6 0 1.29-.37 2.28-2.63 6.99-3.12 6.49-3.97 8.1-5.47 10.27a17.7 17.7 0 0 0-1.42 2.28c0 .5-1.07 1.13-1.68.98-.43-.11-.87.02-1.35.4l-.7.55.52.57c.48.5 2.72 1.75 4.13 2.29a20 20 0 0 0 2.12.52c.87.18 1.93.43 2.36.56.42.13 2.15.23 3.84.23 3.32 0 3.73.15 3.72 1.31 0 .83-.6 2.57-1.01 2.99-.17.17-.31.41-.31.54 0 .91-7.87 9.3-9.92 10.56-2.6 1.6-5.22 2.86-5.97 2.86-.58 0-1 .23-1.48.8-.37.43-.84.79-1.05.79-.2 0-.58.12-.83.26-.39.22-7.28 2.52-10.38 3.46-.51.16-1.17.38-1.46.5a28.12 28.12 0 0 1-6.78 1.48c-1 .1-1.65.32-1.96.66-.6.67-1.62.66-2.04-.01zm1.57-1.03c.25-.39.75-.54 2.25-.66 2.8-.22 4.17-.45 4.33-.72.08-.13.48-.24.87-.24.4 0 .84-.1.98-.22.14-.13.97-.43 1.84-.68s2.6-.82 3.84-1.25a76.8 76.8 0 0 1 4.63-1.53 26.9 26.9 0 0 0 1.72-.6c1.87-.8 1.85-.78 1.85-1.97 0-.9.08-1.11.4-.99.21.08.4.31.4.5 0 .6.52.73 1.02.28.26-.23.55-.34.65-.24.16.16 1.07-.17 2.03-.74.21-.13.88-.46 1.47-.73s1.24-.66 1.45-.86.8-.68 1.31-1.07c1.55-1.18 3.5-3.15 6.62-6.73 1.8-2.06 3.14-4.67 2.81-5.51-.1-.3-.69-.34-2.8-.22-2.01.11-3.06.04-4.2-.27a79.9 79.9 0 0 0-2.83-.73c-1.5-.34-1.78-.45-3.9-1.43-1.47-.69-3.76-2.9-3.47-3.37.07-.12.42-.21.78-.21s.72-.18.8-.4c.22-.56 1.7-1.23 2.3-1.04.35.12.48.06.4-.17-.06-.19.2-.65.6-1.02 1.38-1.33 3.78-5.56 6.08-10.74.32-.72 1.02-2.21 1.55-3.3 1.24-2.57 1.77-4.18 1.46-4.5-.34-.32-.8.08-2.47 2.12-2.13 2.6-7.13 7.14-7.87 7.14-.2 0-.36.12-.36.26s-.11.27-.26.27c-.14 0-1.03.36-1.99.8-.95.43-1.96.79-2.24.79s-.57.1-.65.24c-.09.13-.72.45-1.4.7-.7.24-1.77.67-2.39.94-.61.27-1.23.5-1.36.5s-.49.3-.78.66c-.35.45-.56.56-.64.33-.1-.26-.3-.24-.89.07-.68.37-.77.56-.84 1.92-.08 1.62-.43 1.95-.86.81-.49-1.28-.85-.32-.69 1.8.57 7.37.75 9.29 1 10.81.16.95.34 3.2.4 4.99.12 3 .08 3.37-.48 4.55-.7 1.46-2.06 2.37-4.32 2.86a22.31 22.31 0 0 1-5.51.28c-.13.02-.41-.11-.64-.3-.25-.2-1.47-.37-3.28-.43l-2.87-.1V286c0 1.53-.42 1.64-.48.12-.04-1.07-.15-1.3-.52-1.07-.14.08-.21 1.05-.16 2.15.05 1.23-.02 1.94-.17 1.85-.14-.09-.26-.6-.26-1.14 0-.53-.12-1.15-.26-1.37-.2-.31-.26-.24-.26.31 0 .4-.13.79-.27.88-.16.1-.27-.18-.27-.65 0-.71-.58-1.37-.91-1.04-.18.19.58 6.36.81 6.58.24.22 1.28.4 4.15.7 1.11.12 1.6.3 1.8.66.33.63.56.63.95 0zm-103.04.06c-.18-.08-.33-.36-.33-.64 0-.5.42-.51 15.81-.55 18.76-.05 18.33-.04 20.18-.48.8-.19 2.8-.4 4.46-.46 3.07-.11 4.27-.48 4.27-1.3 0-.2.18-.37.4-.37s.4.14.4.3c0 .32 1.1.25 4.22-.28 2.99-.5 3.25-.59 3.89-1.28.48-.52.7-.6.94-.37.41.42 2.34.38 2.91-.06.26-.2.47-.63.48-.98l.02-.63.29.6c.32.67.43.7 1.4.32.47-.18.66-.4.56-.66-.18-.47-.05-.5.66-.11.3.16.74.2.98.09a6.1 6.1 0 0 1 1.58-.28c1.17-.07 4.48-1.13 6.16-1.97l.95-.47-.12-2.1c-.08-1.39-.02-2.16.17-2.28.18-.11.3-1 .3-2.2 0-2.97.26-2.18.39 1.15.06 1.58.16 3.06.24 3.28.07.21.18.63.23.92.12.69.89.6 2.83-.3l2.53-1.16 3.15-1.46a8.66 8.66 0 0 1 3.1-.96c.84.01 1.02-.08 1.02-.5 0-.4.19-.51.78-.51.43 0 .85-.12.94-.27.1-.14.4-.26.68-.26s.73-.11.98-.25c.89-.47 5.1-2.4 5.24-2.4.13 0 4.8-2.16 5.73-2.66.26-.14.7-.25.98-.25s.58-.1.66-.23c.24-.39 1.93-.61 5.58-.74 3.26-.12 4.72.06 6.01.73.26.13.6.24.75.24.16 0 .47.18.68.4.98.97 1.26.12.86-2.54-.25-1.61-.25-2.15 0-2.45.2-.25.23-.45.06-.55-.27-.17-.35-.67-.83-5.18-.4-3.82-.77-5.55-1.58-7.54-.48-1.16-.52-2.6-.09-3.09.33-.36.39-.78.26-1.86a105.54 105.54 0 0 0-1.39-8.67c-.27-1.41-.8-2.01-2.16-2.5-1.45-.53-2.38-.9-3.04-1.24-.64-.33-4.51-.21-4.75.14-.14.2-.32.2-.66 0-.34-.21-1.04-.2-2.59.06-5.28.86-5.67 1.02-5.72 2.29-.03.65-.07.7-.16.24-.08-.45-.26-.6-.69-.53-.52.07-.58.26-.65 2-.1 2.63-.6 2.6-1-.05-.1-.69-.34-1.31-.54-1.39-.33-.12-3.93 1.12-5.2 1.8-.24.13-.63.23-.85.23s-.62.11-.87.24c-.25.14-1 .39-1.65.56s-1.49.42-1.85.55c-.36.12-1.97.53-3.56.91-1.6.38-3.24.87-3.65 1.09-.72.37-.75.45-.57 1.63.16 1.1.14 1.2-.22.9-.22-.18-.48-.7-.57-1.15-.15-.74-.23-.8-.89-.64-.4.1-1.12.25-1.59.33s-.93.25-1 .38c-.09.13-.44.23-.79.23s-.9.1-1.24.24c-.33.13-1.14.38-1.8.55-1.87.5-4.83 1.36-5.48 1.61-.32.13-1.63.36-2.9.52-1.26.15-2.4.35-2.52.42-.45.28-6.54.93-10.8 1.15-2.4.12-5.76.31-7.47.42-3.05.19-3.1.18-3.1-.37 0-.33-.17-.57-.4-.57-.22 0-.4.23-.4.51 0 .47-.28.52-3.9.66-11.8.47-11.71.47-11.71.12 0-.26-.07-.27-.32-.02-.18.18-1.04.32-1.97.32-1.44 0-1.7.08-1.97.58l-.32.59-.21-.59c-.12-.32-.33-.58-.47-.58-.3 0-.82 1.44-.82 2.29 0 .34-.12.62-.27.62s-.26-.6-.26-1.33c0-1.17-.09-1.37-.68-1.63-1-.46-2.08 0-2.19.93-.04.4-.28.81-.53.9a5.2 5.2 0 0 0-1.15.75c-.4.32-1.4.78-2.25 1.03l-2.5.72c-.53.15-1.8.23-2.84.17l-1.89-.1v1.33c0 .73-.1 1.47-.2 1.63-.19.3-2.14 1.25-4.03 1.98-1.46.55-4.4.4-5.96-.32a6.24 6.24 0 0 1-3.3-3.24c-.47-.93-.77-1.23-1.23-1.23a4 4 0 0 1-1.2-.24c-.34-.13-1.15-.38-1.8-.56a17.04 17.04 0 0 1-6.65-3.75c-1.26-1.16-2.12-1.52-4.37-1.8a93.54 93.54 0 0 1-4.4-.68c-3.49-.65-3.9-.53-3.9 1.11 0 .41-.1.59-.3.47-.16-.1-.23-.55-.14-1.05.18-1.11-.13-1.37-2.07-1.73-1.13-.2-1.58-.2-1.72.02-.1.17-.35 1.34-.55 2.6-.3 1.97-.38 2.17-.52 1.36-.08-.51-.07-1.7.02-2.64.19-1.85-.14-2.64-1.1-2.64a4 4 0 0 1-1.21-.3l-1.27-.49c-4.78-1.77-10.5-5.13-12.81-7.5-1.24-1.29-2.43-1.76-3.08-1.22-.26.21-.39.85-.4 1.94 0 1.59-.52 2.9-.9 2.3-.26-.42-.67-.08-.67.56 0 .47-.06.5-.43.18-.36-.3-.4-.7-.27-2.48.2-2.63.03-3.36-.73-3.26-.47.07-.58.3-.69 1.59-.2 2.2-.53 2.2-.53 0 0-1.47-.08-1.9-.37-1.9-.27 0-.42.5-.54 1.78-.09.99-.26 2.27-.39 2.85-.2.96-.22.88-.25-.87-.02-1.05.1-2.14.27-2.4.58-.93.11-1.36-1.5-1.36-.8 0-1.66.1-1.92.23-.7.36-1.68.76-2.72 1.1-1.58.54-2.04 1.1-2.5 3.06-.8 3.38-.93 4.08-.93 5.1 0 1.16-.56 2.69-1.17 3.2-.53.44-.56 2.35-.04 2.55.32.12.32.29-.03 1.12-.3.7-.37 1.49-.26 2.91.08 1.07.03 2.67-.11 3.55-.23 1.42-.46 4.16-.95 11.38-.07 1.12-.06 2.05.04 2.05s.67-.28 1.28-.62c1.93-1.06 3.23-1.28 6.93-1.15 3.65.13 5.34.35 5.58.74.08.13.43.23.77.23.72 0 1.09.44.97 1.16-.05.31.04.44.27.36.2-.06.33-.31.31-.55a1.8 1.8 0 0 1 0-.44c.03 0 1.15.54 2.5 1.2 1.34.65 2.5 1.18 2.56 1.18s1.36.6 2.9 1.33 2.92 1.32 3.1 1.32c.34 0 1.8.44 2.87.86.37.15.9.36 1.2.46.28.11 1.41.62 2.5 1.13a216.76 216.76 0 0 0 5.63 2.55c2.34 1.04 2.85 1.18 3.18.85.18-.17.39-1.41.48-2.75.08-1.34.18-2.26.22-2.04.03.22.13.63.22.92s.17 1.46.18 2.6l.01 2.06 1.33.61c2 .94 4.38 1.72 5.56 1.84.58.06 1.4.2 1.81.3 1.08.3 1.22-.1 1.23-3.44.01-2.53.08-3 .55-3.57l.55-.66-.2 1.72c-.1.94-.21 2.77-.24 4.06-.06 2.24-.03 2.34.58 2.63.84.38 1.13-.05 1.14-1.66.01-.67.2-1.43.43-1.72.46-.58.46-.74-.06 2.65-.15.97-.1 1.1.54 1.4.9.4 2.33.4 2.74 0 .19-.2.32-1.1.32-2.24 0-1.05.12-1.99.26-2.08.17-.1.27.75.27 2.38v2.54l.86.35c1.1.44 6.9 1.34 7.4 1.14.23-.08.49-.73.62-1.56l.23-1.4.09 1.44c.12 1.89.38 2.17 1.94 2.09.69-.04 1.41.06 1.6.22.2.16 1.07.35 1.94.43.88.07 2.24.28 3.05.45.8.17 2.2.33 3.12.35 1.42.03 1.74.13 2.15.67.48.65 1.08.58 1.08-.12 0-.2.2-.38.45-.38.34 0 .37.07.13.32-.47.46-.4.69.28.82.84.16 1.98.17 1.58 0zm11.19-.37c.09-.14-.1-.26-.4-.26s-.49.12-.4.26c.1.15.27.27.4.27s.3-.12.4-.27zm-82.16-.66c.66-.1 1.3-.3 1.45-.42.13-.13.46-.24.72-.24s.9-.25 1.44-.55c2.44-1.37 3.1-2.36 2.34-3.53-.25-.38-.65-.66-.88-.62-.24.04-.55-.2-.7-.52a2.1 2.1 0 0 0-.99-.89c-.4-.17-.73-.4-.73-.54 0-.12-.3-.23-.66-.23s-.66-.1-.66-.23c0-.34-.85-.51-1.46-.29-.3.1-.68.07-.86-.08-.46-.36-5.75-.1-6.24.3-.2.17-.72.32-1.14.32-2.97 0-3.97-.08-4.94-.42a7.08 7.08 0 0 0-1.6-.39c-.53 0-2.48-1.9-3.03-2.95-.36-.67-.31-5.72.07-8.3l.41-2.78c.14-.94.32-2.73.38-3.96.07-1.24.25-3.5.4-5.03.3-3.05.24-3.25-1.3-3.63a2.57 2.57 0 0 1-1.12-.67c-.56-.64-1.45-.41-1.61.4-.08.42-.13.35-.15-.25-.06-1.32-.97-1.47-1.59-.27-.16.32-.55 1-.85 1.5l-.55.93.13-.79a27 27 0 0 1 .38-1.75c.31-1.2.04-1.73-1.01-1.96-.87-.19-3.22-1.1-5.49-2.14a9.41 9.41 0 0 0-1.65-.63c-.14 0-.26-.12-.26-.27s-.12-.26-.28-.26c-.76 0-5.87-4.6-8.05-7.25-2.3-2.8-2.39-2.83-2.17-1.01.08.72.68 2.33 1.4 3.77a60.66 60.66 0 0 1 1.43 3.03c.29.8 3.75 7.66 3.94 7.8.09.08.33.46.53.85.5.98 3.63 4.37 4.83 5.24l.97.7-.6.78c-1.09 1.37-4.63 2.88-8.03 3.42-.63.1-1.2.34-1.28.52-.08.23-.45.3-1.06.22-.93-.13-.94-.12-.76.69.23 1.05-.16 1.06-1.26.02a3.86 3.86 0 0 0-3.26-1.01c-.62.07-.75.2-.7.68.03.33-.06.6-.2.6-.49 0-.27.7.4 1.27.37.32.78.58.93.58.14 0 .26.1.26.2 0 .72 6.4 7.75 8.44 9.27.52.4 1.18.93 1.47 1.18 1.22 1.1 2.41.33 2.83-1.82.16-.85.41-1.67.55-1.82.41-.42-.02 2.94-.5 3.96-.38.79-.39.94-.05 1.28.26.26.53.31.8.16.31-.17.46-.1.56.28.12.46 1.36 1.16 3.9 2.19.36.14.86.37 1.11.5s.7.23.98.23.59.12.68.27c.09.14.43.26.76.26.32 0 .7.1.84.24a9.8 9.8 0 0 0 2.23.67c1.09.25 2.1.55 2.27.69.41.34 4.06 1.61 5.08 1.77.47.07.93.23 1 .36.09.13.53.25 1 .26a4.4 4.4 0 0 1 1.37.25c.58.26 7.5.15 9.4-.14zm165.55-3.72a13.8 13.8 0 0 0-.3-2.7c-.37-.37-.73.51-.77 1.94-.05 1.8-.56 2.2-.8.64-.17-1-.24-1.08-.9-1-.6.06-.74.23-.8.9-.07.72.08.95 1.19 1.77.7.52 1.55.95 1.9.96l.63.02zm-2.65-4.44c1.7-2.04 4.3-2.82 9.38-2.82h3.43l.5-1.12a6.4 6.4 0 0 0 .55-1.92l.03-.8.21.72c.12.4.11 1.17-.01 1.72-.32 1.38-.32 1.4.28 1.4.39 0 .53-.18.53-.66 0-.36.13-.66.3-.66s.24.28.16.68c-.16.85.54 1.17 2.55 1.17 1.1 0 1.5-.12 1.94-.6 1.02-1.11 1.47-2.32 1.3-3.52-.42-3.11-2.05-4.21-6.23-4.21-2.91 0-4.74.38-8.1 1.7l-2.37.94-.28 1.46c-.28 1.44-.65 1.35-.65-.17 0-.56-.07-.6-.52-.36-.3.15-.6.57-.7.93-.18.75-.2.76-.85.36-.64-.4-2.1.34-2.44 1.25-.32.86-.33 5.4 0 5.4.13 0 .58-.4.99-.9zm-156.02-1.3c0-3.33-.2-3.7-2.8-5.11a42.14 42.14 0 0 0-8.98-3.7c-2.64-.72-5.27-.86-5.6-.3-.12.2-.42.43-.67.52-.3.11-.5.6-.62 1.47-.22 1.63-.53 2.2-.9 1.63-.3-.46-.2-1.3.27-2.04.2-.33.25-.72.11-1.03-.2-.46-.23-.46-.32.1-.06.32-.22.6-.35.6s-.25.17-.25.38c0 .57-.85 2.26-1.14 2.26-.26 0-.13-1.42.2-2.19.44-1-.32-.4-.86.7-.76 1.5-.73 2.53.09 4.15.88 1.74 1.37 1.9 4.3 1.43 1.28-.2 4-.41 6.02-.46l3.7-.08.83-1.66.56 1.41.03-.79c.02-.44.16-.97.3-1.19.2-.29.26 0 .21 1.04-.06 1.37-.02 1.46.72 1.78.43.18 1.06.34 1.4.34.54.01.6-.1.53-.84-.07-.65.02-.88.37-.95.4-.07.47.12.47 1.21 0 1.14.11 1.42.97 2.27.53.53 1.07.97 1.19.97s.22-.86.22-1.92zm-20.9.15c-.74-.27-1.38-1-2.05-2.32-.57-1.12-.64-1.56-.53-2.98.16-2.02 1.13-3.65 2.32-3.91.41-.1.9-.34 1.08-.56s.65-.36 1.04-.32c.4.04.9-.09 1.14-.28.32-.27 1.06-.32 2.88-.23 2.24.12 3.67.44 6.31 1.4l.95.35-.42-.9c-.29-.61-.6-.9-1-.9-.32-.01-.65-.12-.73-.25-.18-.3-1.76-.55-4.51-.73-2.88-.2-5.99.49-7.2 1.57-.4.36-.83.48-1.39.4-.9-.13-1 .13-.5 1.23.27.58.23.77-.26 1.3-.45.47-.57.92-.56 2.04 0 .79.15 1.77.33 2.17.5 1.13 2.37 3.07 2.96 3.07.38 0 .42-.05.14-.15zm72.54-23.22c1.7-.51 3.3-1.48 3.7-2.21.49-.91.22-5.42-.35-5.76-.12-.08-.22-.36-.22-.63 0-1.68-4-6.88-6.11-7.96-2.15-1.1-4.6-.33-6.32 1.96-1.57 2.08-1.68 2.55-1.03 4.34 1.1 2.99 3.87 8.4 4.7 9.18 1.5 1.4 3.39 1.76 5.63 1.08zm128.58-3.7a3.1 3.1 0 0 1 1.08-.68c.28 0 2.75-1.06 3.7-1.6.26-.14.63-.25.84-.25.2 0 .69-.16 1.07-.37l.7-.36-.62-.16a4.67 4.67 0 0 1-1.4-.75c-.4-.33-1.02-.56-1.34-.52-.33.04-.88-.11-1.24-.34-.6-.4-.66-.4-1.08.24-.68 1.05-1.69.9-3-.45a8.05 8.05 0 0 1-1.42-1.92l-.32-.8-.2 1.42c-.1.78-.33 1.55-.49 1.7-.34.35-.38 1.3-.06 1.66.25.28 1 2.47 1.23 3.63.1.49.3.72.65.72.28 0 .6.15.72.33.15.23.24.16.3-.25.05-.32.44-.89.88-1.26zm-139-2.6c-1.75-3.57-2.19-6.27-1.65-10.32.2-1.5.43-2.95.52-3.24.79-2.4 3.15-5.27 5.97-7.28 2.1-1.5 2.68-2.06 2.49-2.38-.25-.4-5.6-.3-7.94.16l-2.9.56a3.5 3.5 0 0 0-1.06.34c-.15.1-.6.28-1 .37-1.36.33-3.9 3.62-4.84 6.29-.85 2.37-.74 7.51.2 10.15.9 2.46 6.36 6.19 9.6 6.54 1.17.13 1.22.04.61-1.2zm21.2.83a18.3 18.3 0 0 0 2.14-.89c1.13-.56 1.2-.66 1.27-1.83.1-1.43-.6-3.71-2.09-6.9-2.39-5.11-9.75-9.91-11.63-7.59-.71.88-1.04 2.28-1.04 4.44 0 1.72.07 1.97.82 2.91a34.53 34.53 0 0 1 3.95 6.46c1.54 3.1 2.2 3.68 4.2 3.69.8 0 1.86-.13 2.38-.29zm126.93-2.93c1.18-.43 1.1-.85-.24-1.36a6.49 6.49 0 0 1-3-2.41c-.48-.73-.61-3.2-.2-3.61.43-.42 1.37.15 1.57.96.15.58.3.65 1.46.65 1.77 0 1.77-.73 0-1.74-2.09-1.17-4.08-3.53-5.85-6.9l-.85-1.62.56-.56c.76-.77.7-1.51-.24-2.45-.45-.44-.8-1.07-.8-1.43 0-.72.29-.8 1.05-.32.74.45.92.12.64-1.18a7.11 7.11 0 0 1 0-2.52c.19-1.01.17-1.49-.05-1.71-.24-.24-.31-.2-.31.14 0 .68-.5.54-.68-.2-.2-.77-.2-2.12.02-4.11l.15-1.46-1.5-1.85a20.67 20.67 0 0 1-1.9-2.71c-.6-1.21-1.23-1.2-1.29.02-.04.94-.5 1.46-.92 1.05-.42-.43-.03-2.46.48-2.46.22 0 .7-.24 1.07-.53.37-.3.81-.53.99-.53.17 0 .59-.3.93-.66.58-.62.59-.67.11-.69-2.3-.1-3.09-.22-3.57-.54-.73-.49-2.7-4.22-2.4-4.53.14-.14.72-.08 1.4.16.72.24 1.64.33 2.41.25 1.27-.15 1.64-.5.8-.76-.26-.08-.6-.23-.77-.33-3.41-2.04-6.78-5.57-7.69-8.05-.33-.91-.6-2.27-.6-3.02 0-1.46-.06-1.4 1.7-1.8l.78-.18-1.44-1.29a9 9 0 0 0-1.68-1.3c-.13 0-.98.64-1.9 1.44-.9.8-1.73 1.46-1.82 1.46-.1 0-.56.27-1.02.6-2.24 1.63-8.34 3.36-14.6 4.17-2.72.35-3.84.7-3.84 1.19 0 .19-.11.38-.24.43-.14.05-.76.56-1.4 1.15a11.8 11.8 0 0 1-2.14 1.58 13 13 0 0 0-1.72 1.1l-.72.58.75.29c1.04.4 2.77.35 4.3-.11 1.65-.5 1.7-.5 1.7.08 0 .53-1.5 1.97-2.69 2.58-.81.42-.99 1.1-.35 1.34.21.08.4.26.4.4 0 .37-1.92 2.71-3 3.66-.54.47-.91.95-.84 1.07.08.13-.16.44-.53.7a28.5 28.5 0 0 0-2.72 2.24c-.48.43-1 .7-1.17.6-.18-.12-.22-.07-.1.12.11.19 0 .3-.32.3-.47 0-1.86 1.21-1.62 1.43.06.05.67.22 1.36.36.92.2 1.65.17 2.78-.1 1.96-.46 2.18-.45 2.18.05 0 .51-1.45 1.92-2.62 2.56-.47.25-.78.58-.69.72.22.36 1.93.8 3.1.8 1.24 0 1.49.4.74 1.2-.6.64-.57 1.45.07 1.45.38 0 2.54-2.18 3.8-3.84a12.13 12.13 0 0 0 2.22-4.9c.57-2.84 1.07-3.32 1.75-1.65.22.55.57 1.37.78 1.83.2.46.38.94.38 1.06 0 .31 1.7 3.6 2.85 5.52 1.85 3.08 3.01 4.35 7.44 8.11 1.8 1.54 1.28 1.76-2.55 1.1-.73-.12-.86-.07-.86.38 0 .76.7 2 1.22 2.2.25.08 1 .05 1.66-.06a50.8 50.8 0 0 1 3.6-.38 13.9 13.9 0 0 0 2.83-.4c.68-.36 1.82-3.02 2.13-4.97.31-1.97.54-2.37 1.07-1.93.2.16.62.25.94.19.66-.13.82.57.18.82-.6.23-.34 1.1 1.53 5.19.45.98.9 1.78 1 1.78s.71.53 1.36 1.16c.9.89 1.28 1.54 1.62 2.75.38 1.34.67 1.79 1.96 2.95a50.93 50.93 0 0 0 3.75 3.17c.99.73.5 1.12-1.19.92-1-.12-1.44-.08-1.44.13 0 .17-.12.3-.28.3-.15 0-.21-.1-.13-.24.08-.13-.04-.3-.27-.4-.73-.27-.94-.17-.86.44.06.43.26.6.68.58.52-.02.6.1.6.99 0 .83.18 1.18.98 1.94 1.17 1.1 1.34 1.13 1.67.26.35-.93.9-1.07 1.78-.44.85.6 1.65.37 1.65-.48 0-.28.1-.56.23-.64.27-.17.83.98.83 1.7 0 .56 1.12 1.25 2.1 1.29.35.01 1.04-.12 1.52-.29zm-109.32-1.51c1.3-.14 6.25-.35 10.98-.46a6789.4 6789.4 0 0 0 13.93-.32c2.13-.03 2.71-.12 2.84-.44.08-.22.03-2.22-.11-4.43-.28-4.32-.66-10.25-1.06-16.86a1521.6 1521.6 0 0 0-1.04-15.75c-.25-3.85-.5-7.42-1.04-15.08a71.4 71.4 0 0 0-.72-6.96c-.16-1.09-.95-1.9-1.84-1.9-.6 0-4.8 1.48-7.12 2.52a59.62 59.62 0 0 1-12.7 3.86c-.73.14-1.83.38-2.46.51-.62.14-1.44.25-1.82.25s-1.12.11-1.65.25c-1.25.32-5.38.86-12.2 1.59-5.25.56-9.57.82-14.82.9-8.48.13-8.6.24-7.24 6.93.38 1.89.74 3.79.8 4.22.07.44.22 1.21.35 1.72s.37 1.64.54 2.52c.17.87.4 2.06.53 2.64l.5 2.52c.27 1.34 1.72 8.52 2.05 10.05.12.6.35.7 2.32 1.09 2.71.53 6.88 2.52 9.68 4.63 2.09 1.57 2.34 1.7 4.23 2.22 3.74 1.02 6.63 3.26 7.7 6 .63 1.63.87 5.3.42 6.72l-.22.7 2.45.18c1.35.1 2.63.29 2.86.42s.66.19.95.13 1.6-.23 2.9-.37zm-110.98-.29c.6-.32.69-1.05.13-1.05-.21 0-.5-.2-.64-.46-.25-.44-.27-.44-.44 0-.18.47.03 1.79.3 1.79.08 0 .37-.13.65-.28zm60.31-2.43c-.4-1.59-.4-4.24.03-6.95.35-2.28.76-3.36 2.28-6 .48-.82.86-1.62.86-1.76 0-.42-1.51-.78-3.83-.93-1.17-.07-2.3-.2-2.52-.29-.64-.25-2.61 1.88-3.52 3.79-1.43 3.03-1.3 4.05 1.47 11.14l.88 2.25 2.11.28c1.16.16 2.22.19 2.36.07.15-.13.1-.74-.12-1.6zm82.44 1.61a8.15 8.15 0 0 0 1.74-.46c.23-.2.01-4.35-1.38-26.75a7172.4 7172.4 0 0 1-1.57-25.54l-1.05-16.93c-.62-10.14-.77-11.84-1.04-12.11s-1.5.14-1.88.63c-.57.72-8.81 5.32-11.9 6.65l-2.19.96a6.9 6.9 0 0 1-1.6.56 1 1 0 0 0-.6.24c-.25.24-3.18 1.26-7.13 2.48-2.23.7-5.54 1.52-8.2 2.05-5.82 1.15-6.63 1.24-19.8 2.14-12.88.88-29.58-1.17-36.42-4.48-1.73-.83-1.9-.78-1.7.55.1.62.28 1.32.4 1.57.14.24.24.68.24.98s.14.84.3 1.2c.26.56.5.68 1.34.68 3.49 0 7.97 4.72 10.06 10.57 1.67 4.7 2.18 9.62 1.42 13.77-.65 3.55-1.67 5.59-3.59 7.18l-1.1.9.56 2.25.79 3.17c.5 2.06 1.03 4.05 1.55 5.95.16.58.46 1.77.66 2.65l.36 1.58 1.62.08c1.27.06 2.25-.12 4.55-.85 2.08-.66 3.9-1.02 6.26-1.26l3.32-.33-.16-1.07a83.4 83.4 0 0 0-.94-4.97 500 500 0 0 1-1.56-7.47 807.13 807.13 0 0 1-2.17-10.72c-.15-.8-.39-1.96-.53-2.58-.35-1.55-.32-2.35.12-3.19.95-1.84 2.26-2.12 10.74-2.29a158.4 158.4 0 0 0 20.17-1.57 120.4 120.4 0 0 0 16.6-3.08c1.09-.3 6.92-2.46 8.87-3.29 3.54-1.51 5.55-1.85 6.53-1.1.71.54 1.22 2.24 1.38 4.67l.42 5.68c1.09 14.38 2.46 35.2 2.9 44.06.21 4.37.35 5.69.7 6.81.12.41.9.42 2.9.03zm-42.56-.79c1.34-.75 1.42-.92 1.25-2.61-.3-3-1.26-5-2.99-6.18a30.8 30.8 0 0 0-5.94-2.79c-1.05-.42-2.44-.36-2.84.12-.2.23-.24.49-.1.6 4.47 3.8 5.82 5.37 6.74 7.86.32.87.68 1.7.8 1.83.14.14.24.44.24.67 0 1.14 1.3 1.37 2.84.5zm46.44.39a1.52 1.52 0 0 0-.79-.01c-.26.07-.11.13.33.13.43 0 .64-.05.46-.12zm-92.32-.65c-.02-.2-.53-1.73-1.12-3.4-1.89-5.3-1.73-7.49.81-11.24.77-1.14 1.26-2.11 1.12-2.23a6.14 6.14 0 0 0-1.43-.54c-.65-.19-2.17-.82-3.36-1.42-2.55-1.27-2.47-1.29-5.18 1.16-1.89 1.7-4.11 4.4-4.65 5.66-.58 1.33-.26 5.46.65 8.4.23.74 3.54 1.97 8.7 3.23 4.06 1 4.54 1.04 4.46.38zm-52.08.03c.1-.15-.08-.27-.38-.27s-.54.12-.54.27c0 .14.17.26.38.26.2 0 .45-.12.54-.26zm148.56 0c.35-.23.35-.26 0-.24-.22 0-.63.11-.92.24l-.53.23.53.01a2 2 0 0 0 .92-.24zm1.25-.43c-.08-.08-.31-.1-.5-.02-.21.09-.15.15.16.16.27.02.43-.05.34-.14zm-4.3-.53c.88-.23 1.95-.48 2.39-.55a3.4 3.4 0 0 0 1.06-.35c.14-.1.66-.28 1.14-.38.88-.2 1.42-.96 1.48-2.12.02-.35.32-.6.95-.8a9 9 0 0 0 1.85-.87 6.1 6.1 0 0 1 1.85-.75c1.1-.18 3.5-1.42 3.64-1.87.06-.19-.25-.34-.77-.4-.75-.07-.9-.2-.97-.85a3.8 3.8 0 0 0-.5-1.39c-.45-.7-.3-1.41.32-1.41.22 0 .95.25 1.6.56.89.42 1.34.85 1.72 1.64.55 1.13.65 1.95.31 2.48-.49.78-4.5 3-5.42 3-.83 0-2.91 1.34-2.59 1.67.44.43.33 1.44-.18 1.77-.41.26-.4.28.07.11a19 19 0 0 1 1.45-.4c.51-.11 2-.51 3.3-.88s2.65-.68 2.97-.68 1-.26 1.53-.57c1.08-.64 3.15-1.22 6.16-1.73.48-.08.93-.26 1-.39.09-.12.5-.23.92-.23s.83-.12.92-.27c.1-.14.5-.26.9-.26s.83-.1.97-.21c.14-.12.73-.36 1.3-.55.59-.2 2.1-.77 3.37-1.28 1.4-.57 2.56-.89 2.97-.8.4.07.8-.03.97-.24.17-.2.46-.36.66-.36s.75-.24 1.23-.53a3.98 3.98 0 0 1 1.66-.54h.79l-.7-.39c-.76-.41-1.55-2.08-1.55-3.3 0-1.02.77-1.44 2.2-1.2l1.09.16-1.05-.76a29.92 29.92 0 0 1-5.44-5.94 49.18 49.18 0 0 1-3.7-7.03c-.57-1.37-1.02-1.47-1.03-.21-.01 1.4-3.46 6.48-5.4 7.95-1.02.79-1.66.85-2.52.24-.5-.35-.6-.6-.48-1.42l.13-.99-1.28-.15c-1.9-.22-2.41-.57-2.31-1.58.06-.59.32-1 .93-1.4l.84-.57-1.7-.13c-2.19-.18-3.13-.75-2.97-1.81.1-.7.04-.77-.7-.77-.53 0-1.1-.28-1.71-.86l-.93-.86.87 1.13c.48.62 1.1 1.25 1.37 1.4.65.34.7 1.78.07 2.02-.24.09-.8.03-1.24-.14s-.84-.26-.89-.22c-.18.18 2.54 2.64 3.66 3.3.65.4 1.62 1.05 2.14 1.46.53.4 1.3.83 1.71.94.5.13.78.4.83.79.17 1.13-1.18 1.91-1.46.85-.18-.72-.8-.89-.95-.27-.1.4-.37.51-1.19.51-1.14 0-1.75-.48-1.59-1.24.07-.35.32-.47.88-.43.71.04.74.01.27-.27-.28-.17-.8-.58-1.13-.9-.35-.33-.71-.6-.82-.6-.1 0-.56-.33-1-.73-1.94-1.76-3.3-2.72-4.04-2.87-.63-.13-.93-.44-1.47-1.55-.82-1.67-.84-2.03-.15-2.65.43-.4.65-.43 1.16-.2.92.42 1.04.1.29-.79-.76-.9-.85-1.73-.22-1.98.47-.18 1.68 1 1.68 1.63 0 .2.3.4.68.48.63.12.59.03-.52-1.1-1.3-1.32-1.79-2.65-1.22-3.33.27-.33 1.22-.4 5.44-.4 2.81 0 5.41.11 5.79.26.52.2.68.44.68 1.08 0 .8.01.8 1.83-1.1 1.72-1.79 1.82-1.95 1.46-2.46-.62-.89-.45-1.46.6-2.09l1-.59-1.72-.16c-.94-.09-2.06-.3-2.47-.47-.66-.26-.75-.42-.66-1.17l.1-.87-2 1.09.8.33c.45.18.92.6 1.06.93s.4.79.58 1.04c.26.36.22.55-.2 1.02-.51.58-.57.58-7.13.43a81.2 81.2 0 0 1-7.6-.4c-.55-.14-1-.21-1-.16 0 .26.75 1.77 1.67 3.35.57.98.97 1.97.88 2.19-.26.69-1.13.43-1.79-.53-1.02-1.5-2.82-1.13-3.42.72-.43 1.28-1.2 2.32-1.73 2.32-.22 0-.46.2-.55.46-.1.26-.45.85-.79 1.3-.6.83-.6.85-.09 1.02.3.1.53.3.53.46 0 .52-.86 1.26-1.48 1.26-.33 0-.68.12-.77.26-.09.15-.56.27-1.06.27-.65 0-1.04.19-1.46.73-.57.7-.58.84-.4 6.01a428 428 0 0 1 .17 5.96c0 .36.16 1.55.36 2.65s.46 4.22.56 6.94c.13 3.33.28 4.96.48 4.95.16 0 1-.2 1.88-.42zm-143.98-.21c.88-.37 2.46-1.93 3.73-3.66.6-.83.66-1.02.31-1.15-.6-.23-2.95.4-3.69.98-.77.6-1.05.63-1.48.1-.19-.22-.77-.4-1.33-.4-1.37 0-2.66-.28-2.5-.54.08-.12.3-.16.48-.1.19.08.72-.22 1.18-.67.46-.44 1.02-.8 1.24-.8s.4-.1.4-.23.72-.5 1.6-.83c.89-.33 1.48-.69 1.31-.79-.4-.24.04-.56 1.8-1.3 1.53-.64 4-2.13 4.48-2.72.39-.47.15-.83-.9-1.37a3.5 3.5 0 0 1-1.01-.7c-.1-.14 1.06-1.45 2.56-2.9 2.96-2.87 4.06-4.27 3.83-4.89-.09-.21-1-.82-2.04-1.34-1.06-.53-1.83-1.08-1.77-1.26.06-.2.93-.37 2.33-.46a7.9 7.9 0 0 0 3.27-.7l1.05-.55-.91-.2c-1.5-.33-4.25-1.8-4.17-2.22.05-.24.92-.62 2.26-.98 2.69-.73 4.9-2.05 6.64-3.95 1.32-1.44 2.15-3.16 1.72-3.56-.12-.11-1.24-.12-2.47-.02-3.98.34-3.64-.3 2.28-4.28 1.65-1.11 3.48-2.9 5.72-5.63.98-1.2 3.83-5.58 4.03-6.2.1-.3.31-.7.49-.88s.84-1.4 1.5-2.69c.65-1.3 1.3-2.34 1.45-2.32s.48 1.5.74 3.28c.58 3.99.81 4.3 2.21 3.06a7.3 7.3 0 0 1 1.46-1.06c.25-.1.67-.92 1-1.97.32-.99.68-2 .81-2.23.17-.31-.13-1.27-1-3.25-1.1-2.54-1.18-2.85-.81-3.22.34-.34.7-.37 2.24-.16 2.54.35 2.92.05 1.18-.95-2.12-1.21-6.17-4.92-8.45-7.73-.53-.66-1.1-1.31-1.26-1.46-.77-.67-5.57-8.04-6.77-10.38-.32-.62-.66-1.13-.76-1.13s-.25.37-.34.82c-.09.44-.33 1.19-.53 1.65s-.7 1.67-1.1 2.7c-.4 1.01-.94 2.08-1.18 2.37-.25.3-.91 1.29-1.48 2.21-1.97 3.2-2.97 4.52-6.56 8.64-1.4 1.6-2.54 3.1-2.54 3.34s-.24.5-.54.57c-.29.08-.52.25-.52.4 0 .32 1.58.37 2.24.06 3.25-1.52 3.83-1.2 1.99 1.12-.58.73-1.06 1.49-1.06 1.69s-.18.36-.4.36a.65.65 0 0 0-.56.4c-.09.22-.32.4-.53.4-.2 0-.57.42-.82.93-.28.6-.57.88-.81.79-.2-.08-.77.19-1.26.59-1.98 1.63-4.87 3.65-5.58 3.88-.27.09-.79.4-1.15.67-1.07.83-.41 1.1 2.71 1.13 2.55.02 2.9-.04 4.04-.68.69-.39 1.29-.7 1.33-.7s.04.67-.01 1.5c-.11 1.77-.59 2.42-1.4 1.92-.45-.29-.7-.22-1.8.5-.69.46-1.36.84-1.48.84-.44 0-.2.5.31.66.3.1.53.4.53.66 0 .6-1.08 2.36-1.45 2.38-.15.01-1.05.76-2 1.67-3.2 3.02-4.4 3.93-7.71 5.88-2.08 1.21-2.25 1.37-1.8 1.66.61.38 6.08.45 6.08.08 0-.46 1.62-.64 2.03-.22.34.34.25.52-.75 1.49-.63.6-1.68 1.38-2.33 1.72-.64.34-1.21.74-1.26.88-.13.39 1.8.87 3.53.87 2.12 0 2.46.25 1.74 1.25-1.08 1.53-6.64 6.63-8.6 7.9-1.1.72-1.97 1.42-1.93 1.56.04.15.5.38 1.03.51.88.22.95.3.85 1.06-.06.45-.2 1.51-.29 2.37l-.17 1.54.63-.32c.34-.18.82-.5 1.05-.7.42-.36 1.3-.24 1.3.19 0 .25-1.47 2-3.73 4.46-.86.93-1.56 1.8-1.56 1.92s-.16.22-.35.22-.8.47-1.36 1.04c-.73.75-.97 1.2-.87 1.59.11.42 0 .58-.5.7-.79.2-.78.26.04.98.6.53.64.68.4 1.5-.58 1.96-.16 3 .83 2.06.55-.52 4.23-2.24 5.13-2.4.44-.08.93-.06 1.08.04.48.3.9 1.31.73 1.75-.13.32.03.41.72.42 1.15 0 1.8.37 1.12.63-.4.16-.42.22-.09.43.57.36 2 .3 2.98-.11zm205.44-1.67 1.25.14-.66-.51a87.3 87.3 0 0 1-1.96-1.62c-.85-.72-1.23-.92-1.08-.59.13.29.28 1.1.34 1.8.1 1.05.17 1.2.48.95.23-.19.86-.25 1.63-.17zm-136.08-1.34c2.03-1.9 3.45-2.34 5.8-1.8l1.48.35.15-.96c.4-2.58 1.13-4.51 1.97-5.25.82-.73 2.87-.81 4.39-.18.76.32 1.15.35 1.62.14.34-.15.62-.38.62-.51 0-1.1-5.48-4.28-7.4-4.28-.7 0-3.83 1.83-5.44 3.17-1.65 1.37-3.37 3.33-3.95 4.5-.34.67-.68 1.98-.78 2.99-.1.98-.25 2.15-.33 2.58-.1.43-.07.78.04.78.1 0 .93-.69 1.83-1.53zm-33.7-2.07a24.4 24.4 0 0 1-.28-3.52c0-1.89.06-2.1 1.04-3.56a24.27 24.27 0 0 1 5.5-5.9 9.77 9.77 0 0 0 1.66-1.35c0-.08-.48-.89-1.06-1.8-1-1.52-1.15-1.64-2.3-1.8-3.19-.43-6.4.17-9.42 1.77-3.06 1.62-7.06 6.07-7.06 7.85 0 .38.37 1.28.82 1.99 1.81 2.86 4.68 5.2 9.36 7.65 2.12 1.1 2.18 1.06 1.74-1.33zm-30.97-.33c0-.65-.8-.88-2.05-.6-1.32.3-2.66.26-3.22-.08a.53.53 0 0 0-.62.08c-.41.41.1.54 2.58.64 1.16.04 2.39.1 2.71.14.33.03.6-.06.6-.18zm194.39-5.27c-.54-.6-2.56-4.95-2.56-5.5 0-.23-.12-.34-.27-.25-.14.1-.26.43-.26.75s-.35 1.32-.78 2.22l-.78 1.65 1.1.3c.62.17 1.6.53 2.18.8 1.43.65 1.94.66 1.37.03zm-7.33-.44c0-.28-.5-.4-.66-.15-.09.15.02.27.25.27s.41-.05.41-.12zm23.42-4.64c-.1-.15-.28-.27-.41-.27-.14 0-.25.12-.25.27s.18.26.41.26.34-.12.25-.26zm-190.81-1.2c1.43-2.26 4.32-4.4 7.71-5.7a16.64 16.64 0 0 1 6.34-1.04h2.75l.19-.86c.1-.47.29-1.52.4-2.32.13-.8.3-1.84.4-2.32.16-.82.05-1-2.04-3.04a17.15 17.15 0 0 0-3.54-2.8c-.73-.34-1.53-.73-1.78-.86-.65-.34-3.56-.3-4.68.07-3.1 1-5.03 2.52-5.69 4.5-1.4 4.27-2.08 8.73-1.86 12.33.1 1.42.21 2.72.27 2.9.2.65.79.32 1.53-.86zM277 231.41c0-.4-.36-.92-.56-.8-.38.24-.27.9.16.9.22 0 .4-.04.4-.1zm-156.9-.76c0-.33-.23-1.43-.5-2.45a28.92 28.92 0 0 1-.67-3.22c-.1-.75-.34-1.7-.56-2.11a3.45 3.45 0 0 1-.39-1.22 18 18 0 0 0-1.13-4.36c-.14-.18-.83-.33-1.55-.33-1.35 0-3.5-.87-4.18-1.7-.53-.63-.88-.51-2.19.74-.82.8-1.24 1.44-1.34 2.05-.07.5-.33 2.04-.57 3.45l-.44 2.54.67 1.03c1.74 2.68 1.96 2.89 3.9 3.83 1.06.53 3 1.2 4.32 1.51 4.47 1.05 4.63 1.05 4.63.24zm154.96-7.39c-.09-.2-.15-.14-.16.16-.01.28.05.44.14.35s.1-.31.02-.5zm-67.19-5.42c.77-.79 1.4-1.66 1.4-1.95 0-.54 1.45-2.73 2.72-4.09 1.5-1.6 2.77-4.1 2.09-4.1-.55 0-5.64 6.26-6 7.37a2.7 2.7 0 0 1-.85.97c-1.29.94-2.47 2.03-2.47 2.27 0 .43.7.26 1.2-.29.26-.29.57-.53.7-.53.12 0-.2.44-.7.98s-.93 1.15-.93 1.36c0 .55 1.16-.26 2.84-1.99zm11.16.65c-.01-.73-.05-.78-.24-.34-.32.74-.32 1.2 0 1.2.14 0 .25-.4.24-.86zm-14.27-1.92c.27-.33.26-.4-.1-.4-.23 0-.43.18-.43.4s.05.4.1.4.25-.18.43-.4zm19.39-.34c-.04-.17.1-.24.3-.16.75.28 5.17-3.25 4.8-3.83-.19-.32-8.9-.45-9.22-.14-.3.3.55 1.58 1.25 1.9.38.17.68.45.68.62 0 .6 1.37 2.11 1.81 2.01.24-.05.41-.23.38-.4zm-115.72-1.4c.5-.72 1.6-2.06 2.45-2.96l1.55-1.65-.15-1.86c-.58-6.94-4.3-10.17-11.68-10.18-1.75 0-1.99.07-2.83.8-1.3 1.14-4.53 5.99-5.62 8.41a59.78 59.78 0 0 1-1.16 2.5c-.32.57-.34 1.52-.03 1.52.13 0 .93-.31 1.79-.7 1.37-.6 1.82-.67 3.8-.57 1.9.09 2.52.24 3.95.97 1.64.83 4.96 3.37 5.9 4.5.69.82 1.04.69 2.03-.77zm8.43.67c1.36-.57 2.11-1.34 2.97-3.03 3.38-6.7.86-19.93-4.85-25.47-1.54-1.49-2.9-2.1-4.57-2.09-.78.01-1.76.2-2.19.42-1.5.77-3.2 3.4-3.6 5.53-.21 1.1-.2 1.1 1.57.57 2.16-.66 3.74-.52 5.24.44a13.68 13.68 0 0 1 4.43 5.43 32.7 32.7 0 0 1 1.33 7.57c0 .63-.18 1.77-.4 2.52-.37 1.21-.62 1.52-2.32 2.79-2.43 1.8-2.94 2.27-3.34 3.03-.29.54-.25.68.28 1.14 1.6 1.4 3.77 1.85 5.45 1.15zm88.86-1.25c.28-.33.78-.98 1.11-1.45l.6-.86H206c-1.61 0-1.76.18-1.56 1.92.14 1.13.54 1.25 1.28.4zm3.44-2.63c.24-.46.99-1.45 1.67-2.18s1.4-1.57 1.62-1.85c.37-.48.36-.49-.26-.16-.5.27-1.6.31-4.6.19l-3.94-.16.16.81c.09.45.16 1.22.16 1.72v.89h1.93c2 0 2.57.25 2.57 1.11 0 .7.2.59.69-.37zm-95.06-2.36c.32-.16.9-.6 1.3-.98.72-.66.73-.74.73-3.66 0-2.82-.29-4.92-.82-5.97a2.13 2.13 0 0 1-.24-.71c0-.14-.43-.98-.96-1.87a10.4 10.4 0 0 0-3.72-3.68c-1.51-.78-4.69-.02-7.28 1.76-1.68 1.16-3.2 2.63-3.02 2.92.09.13 1.27.3 2.63.37 2.83.15 4.67.86 6.85 2.65 1.59 1.31 2.4 3 3.17 6.62.33 1.57.65 2.85.7 2.85.04 0 .34-.14.66-.3zm115.7-2.74c-.2-.46-.71-.79-1.7-1.1-.94-.3-1.37-.57-1.32-.83.08-.38 1.82-1.47 4.64-2.9.77-.4 1.39-.86 1.39-1.05 0-.18.3-.4.66-.5.37-.1.66-.33.66-.53 0-.3-.65-.38-3.24-.39-1.78 0-6.05-.07-9.5-.15-4.57-.1-6.3-.05-6.44.17-.1.17-.01.74.2 1.28.23.53.53 2.08.68 3.44s.34 2.53.4 2.6c.23.23 5.45.54 9.61.58l4.27.03zm-17.87-.43c.3-.3.87-1.22 1.26-2.05.4-.82.92-1.79 1.17-2.15.57-.82.58-1.07.02-1.07-.61 0-1.41-.77-1.41-1.36 0-.46-.29-.49-4.37-.47-4.15.03-4.39.06-4.76.6-.42.6-.5 2.9-.18 5.34l.18 1.32 1.97.07c1.08.04 2.02.13 2.09.2s.88.13 1.8.13c1.35 0 1.79-.11 2.23-.56zm3.14-.1c0-.3-.16-.9-.35-1.33l-.34-.8-.21.67c-.12.36-.42.96-.68 1.32l-.46.66h1.02c.86 0 1.03-.09 1.02-.53zm21.44-6.89.9-.92h-1.14c-.98 0-1.1.05-.81.4.18.21.26.63.18.92-.07.3-.1.53-.08.53.03 0 .46-.42.95-.93zm-19.05-1c1.7.03 2.26-.04 1.72-.18-.43-.11-1.57-.22-2.52-.24-.97-.02-1.88-.17-2.06-.35s-.74-.3-1.24-.25-1.31-.03-1.78-.17c-.48-.14-1.58-.41-2.45-.6a9.14 9.14 0 0 1-2.16-.7c-.52-.34-.62-.28-1.4.87-.46.68-.77 1.3-.7 1.37.08.08 1.79.12 3.8.1 2-.02 4 .07 4.43.2.44.13 1.03.17 1.32.09.3-.09 1.66-.15 3.04-.13zm-12.28-2.9c.5-.85.9-1.72.9-1.93s.13-.38.27-.38.27-.18.27-.4.11-.61.25-.86c1.16-2.08 1.95-6.89 1.55-9.46a8.08 8.08 0 0 0-.52-2.1c-.12-.14-.22-.5-.22-.8 0-1-2.25-4.96-3.97-6.97-.95-1.1-1.84-1.98-1.99-1.96-.6.11-.51 2.8.53 16.6l.55 7.8c.09 1.53.23 2.89.31 3.02.2.3.91-.59 2.07-2.56zm22.17 1.98c.07-.1-.16-.8-.5-1.52a7.02 7.02 0 0 1-.64-1.86c0-.3-.1-.66-.23-.8-.78-.93-1.44-4.95-1.33-8.04.09-2.47.08-2.5-.57-2.68-.36-.1-1.66-.2-2.88-.21a28.27 28.27 0 0 1-3.91-.34c-1.93-.36-2.1-.27-2.64 1.3-.68 1.94-.35 12.62.42 13.39.44.44 12.03 1.16 12.28.76zm12.74-.3 2.84-.28c.5-.03.1-.84-.73-1.48a28.43 28.43 0 0 1-2.8-2.86c-1.7-1.93-2.24-2.78-2.9-4.53-.32-.86-.78-3.29-.78-4.11 0-.49-.19-.87-.51-1.04-.3-.16-2.31-.28-4.68-.28-5.38 0-5.13-.2-5.13 4.13 0 1.8.13 3.59.3 4l.5 1.27a28.5 28.5 0 0 0 1.95 3.93l1.03 1.8 4.13-.14c2.27-.07 5.32-.26 6.78-.4zm9.95-1.89c4.16-1.39 7.64-3.3 7.64-4.19 0-.14-.36-.33-.8-.43-1.25-.27-5.24-2.2-6.87-3.32-2.65-1.82-3.75-3.18-4.67-5.75-.26-.76-.63-1.38-.81-1.38s-.72.22-1.2.48c-.47.26-1.4.63-2.05.82l-1.86.56c-.36.11-1.12.28-1.7.36s-1.13.3-1.24.48c-.28.45-.01 2.93.48 4.45.76 2.35 1.71 3.6 4.84 6.35 1.07.94 2.22 1.97 2.53 2.29.56.55.64.55 2.3.2.95-.2 2.48-.6 3.41-.92zm-36.37-.45c-.53-5.18-.51-6.88.1-9.82.32-1.6.53-3.06.45-3.27-.18-.48-4.67-2.65-5.13-2.48-.27.1-.29.3-.07.88.48 1.25.4 7.12-.14 8.94-.25.87-.53 1.94-.6 2.37a8 8 0 0 1-.78 1.91l-.63 1.12.6.38c1.12.7 3.7 1.38 5.46 1.46l.9.03zm47.68-8.26a24.9 24.9 0 0 0 1.2-2.65 26.36 26.36 0 0 0 1.26-7.63c.02-1.68-.36-1.9-1.59-.9-2.02 1.62-4.22 2.35-7.88 2.6a9.93 9.93 0 0 1-3.83-.24c-2.9-.84-3.06-.83-3.95.4-1.14 1.57-1.22 2.15-.5 3.6a9.6 9.6 0 0 0 3.53 4.14c1.52 1.07 5.88 3.32 6.45 3.32.14 0 .78.23 1.41.51l1.16.52.86-.84c.48-.46 1.32-1.74 1.88-2.83zm-156.24.67c.08-.22-.13-.55-.52-.8l-.66-.44.42.81c.47.92.55.96.76.43zm1.36-2.28c-.18-.29-1.01-.34-1.27-.08-.1.1-.05.34.11.53.34.4 1.42-.02 1.16-.45zm-2.44-1.11c-.06-.1-.33-.2-.61-.2-.5 0-.5.03-.05.97l.46.96.15-.77c.08-.42.1-.85.05-.96zm4.6.1c-.77-2.96-.76-2.94-1.38-2.94-.33 0-.82-.07-1.09-.15-.26-.09.03.16.64.55 1.14.71 1.46 1.54.86 2.14-.15.15-.2.46-.12.69.22.56 1.24.29 1.09-.29zm43.62-1.62c9.06-.93 10.24-1.08 14.28-1.9 4.58-.93 4.42-.89 9-2.11.58-.16 1.3-.38 1.59-.49s1.06-.36 1.72-.55c1.6-.47 7.08-2.7 9.52-3.88 4.55-2.2 10.85-6.38 10.85-7.2 0-1.5-10.01-8.5-14.23-9.95-3.9-1.34-5.36-1.47-5.99-.5-1.43 2.17-5.1 4.5-9.02 5.7-.58.17-1.3.4-1.58.52-1.59.6-7.43 1.85-11.12 2.36-1.16.16-2.9.4-3.88.55-2.26.32-13.74.33-15 0-.53-.13-1.76-.38-2.75-.55a36.6 36.6 0 0 1-6.54-1.93c-1.44-.62-3.17-1.98-3.45-2.7-.13-.36-.4-.65-.6-.65-1 0-6.17 3.9-9.27 7-2.15 2.13-4.94 5.5-4.94 5.95 0 .15-.1.27-.24.27-.12 0-.68.9-1.24 2.01-1.16 2.32-1.12 2.45.83 3.54 3.4 1.87 9.76 3.5 16.66 4.28 6.04.68 19.84.8 25.4.23zm86.82-1.37c.76-.2 1.46-.44 1.57-.55.1-.1.46-.2.78-.2 2.09 0 5.42-2.9 5.42-4.72 0-.4-.23-.54-.97-.62-.54-.07-9.46-.15-19.85-.19-15.53-.05-18.87 0-18.86.29.01.7 1.26 2.37 2.14 2.87 1.4.8 4.56 2.25 5.52 2.54.88.26.75.24 4.37.61 1.74.18 3.41.36 3.7.41 1.5.25 14.93-.1 16.18-.44zm-133.79-.6c0-.05-.5-.48-1.12-.94l-1.12-.85 1.05.95c1.07.96 1.2 1.04 1.2.85zm1.99-2.53v-2.12h-2.25c-2.87.01-3.17.2-2.05 1.23 1.37 1.27 3.68 3 4 3 .2 0 .3-.72.3-2.1zm-32.24-.33c-.07-.18-.13-.03-.13.33s.06.51.13.33a.94.94 0 0 0 0-.66zm26.34-.52a1.45 1.45 0 0 1-.32-.89c0-1.08.66-1.3 3.87-1.3 2.28 0 3.04-.09 3.14-.36.11-.3-.4-.32-2.97-.13-1.71.12-3.7.2-4.43.17-1.24-.05-1.41-.14-2.65-1.48-.73-.79-1.54-1.75-1.81-2.15s-.55-.66-.63-.58c-.22.22 5.56 7.04 5.97 7.04.08 0 0-.14-.17-.32zm-25.19-.36c0-.22-.12-.33-.27-.24s-.2.28-.11.41c.22.37.38.3.38-.17zm180.56-.23c2.67-.68 5-1.97 6.02-3.33.5-.69.48-1.1-.34-4.36-.15-.58-.37-1.53-.5-2.11l-1.13-4.9c-.2-.87-.5-1.48-.73-1.52s-.8.57-1.39 1.48c-2.21 3.45-5.67 5.6-9 5.6-1.51 0-1.8.49-1.63 2.86.33 4.96.44 5.85.73 6.1.45.36 2.49.77 4.05.8.74.01 2.51-.27 3.92-.62zm-180.38-1.68c.41-.06.64-.4.88-1.33.18-.68.43-1.6.56-2.03l1-3.44c.41-1.46.83-2.83.92-3.04.22-.55-.19-1.11-.66-.93s-1.03 1.6-1.03 2.58c0 .38-.11.77-.26.86s-.26.48-.26.88c0 1.22-.9 4.28-1.25 4.28-.19 0-.34.23-.34.51 0 .29-.12.59-.27.68-.14.09-.25.66-.24 1.27.03.9.07.98.21.45.11-.4.41-.7.74-.74zm1.67-.04c0-.14-.11-.32-.26-.41-.15-.1-.26.02-.26.25s.11.41.26.41.26-.11.26-.25zm27.74-1.52 3.26-.17 1.09-1.6a34.67 34.67 0 0 1 4.1-5.2c1-1.06 1.38-1.65 1.38-2.21v-.77l-7.07.17c-3.9.09-8.9.17-11.12.17-3.2 0-4.08.08-4.19.37-.12.31 1.5 3.27 2.3 4.22l1.65 2.16a9.76 9.76 0 0 0 1.96 2.1c.31.15.63.5.7.77.12.45.3.5 1.4.34.7-.1 2.75-.26 4.54-.35zm141.4-2.31c-.08-2.5-.4-3.1-2.06-3.86a15.6 15.6 0 0 1-3.16-2.48l-1.97-1.93-9.2-.15c-13.93-.21-33.13-.25-33.44-.05-.16.1.21.63.89 1.27 1.67 1.57 2.57 2.88 2.57 3.75 0 .6.42 1.15 2.05 2.68l2.05 1.93 4.9.03c6.98.04 15.15.23 15.28.36.06.06 2.15.12 4.65.13 4.19.02 11.06.27 11.23.41.04.03 1.46.05 3.17.03l3.1-.02zm-166.83.97c1.06-1.38 2.2-3.18 2.2-3.48 0-.13.08-.28.2-.33.3-.14 1.91-3.29 1.91-3.77 0-.34-.3-.42-1.54-.42-2.33 0-2.79.55-3.05 3.7-.15 1.75-.37 2.83-.71 3.47-.33.6-.33 1.82-.01 1.82.13 0 .58-.44 1-.99zm1.43.27c.33-.42.32-.43-.1-.1-.25.2-.46.4-.46.46 0 .22.22.08.56-.36zm1-1.54c.3-.52.44-.87.3-.78-.3.18-1.15 1.72-.97 1.72.07 0 .37-.42.67-.94zm12.2-1.43c-.15-.28-.4-.6-.56-.69-.16-.1-.09.13.16.51.53.81.8.94.4.18zm-9.24-3.97c.58-1.35 1-2.52.92-2.6-.07-.07-.25.19-.4.57s-.39.7-.54.7-.27.38-.27.86c0 .47-.3 1.38-.66 2-.7 1.23-.84 1.65-.38 1.2.15-.15.75-1.38 1.33-2.73zm7.62 1.64a47.8 47.8 0 0 0-.94-1.51c-.2-.29-.35-.85-.35-1.26 0-.4-.14-.73-.31-.73s-.55-.21-.83-.46c-.51-.46-.52-.45-.18.19.19.35.75 1.3 1.26 2.11l1.29 2.06c.2.33.43.6.52.6.08 0-.13-.45-.46-1zm159.42-1.22c1.51-.68 3.48-2.1 4.46-3.2.26-.3.9-1.4 1.43-2.46.94-1.89.95-1.96.81-4.36-.2-3.74-.58-4.26-1.37-1.93-.75 2.22-1.52 2.69-5.46 3.3-3.66.59-10.98.22-11.78-.59-.1-.1-.45-.18-.77-.18-.31 0-.65-.09-.75-.19s-.6-.32-1.13-.5l-.94-.33.18.7c.2.82 2.2 4.25 3.25 5.6 1.52 1.93 3.17 3.53 4.43 4.27 1.23.71 1.46.76 3.7.66a9.21 9.21 0 0 0 3.94-.8zm-98.8-1.48a94.1 94.1 0 0 0 11.78-2.1c5.76-1.41 9.69-3.27 12.1-5.71.74-.75.78-.88.63-2.38a69.6 69.6 0 0 0-.58-4.8c-.2-1-2.88-1.57-3.55-.77-.45.55.13 2.23.87 2.5.47.18.2.38-1.68 1.29-4.98 2.4-9.59 3.46-18.77 4.32-4.46.42-18.04 0-18.64-.58a1.17 1.17 0 0 0-.7-.24c-.72 0-2.57-1.1-3.64-2.14-3.12-3.06-4.52-10.63-2.66-14.33.13-.25.24-.59.24-.74 0-.63 2.89-3.6 3.9-4.01.48-.2 4.03-.31 10.38-.34 5.59-.03 10.78-.19 12.3-.37l4.9-.59a72.98 72.98 0 0 0 8.87-1.6c2.75-.75 6.74-2.16 7.93-2.82l1.33-.72-.02-1.45c0-.8-.1-1.91-.21-2.48l-.2-1.02-1.64.14c-1.5.13-3.73.48-7.99 1.24-.87.16-2.54.4-3.7.54-1.17.14-2.9.37-3.84.5-3.35.49-7.06 1-13.89 1.89-3.65.47-4.58.51-6.72.26-5.51-.64-10.37-2.58-11.9-4.73-1.65-2.33-3.19-7.6-3.73-12.8-.55-5.36.34-9.33 2.69-11.87 1.84-2 1.61-1.96 9.73-2 6.92-.03 12.12-.4 16.44-1.14l3.41-.56c5.53-.88 11.16-2.69 12.32-3.97.42-.46.43-.72.14-2.83-.35-2.56-1.8-8.52-2.17-8.91a1.24 1.24 0 0 1-.23-.73c0-.27-.11-.69-.25-.94a29.02 29.02 0 0 1-1.34-3.12c0-.33-1.95-3.15-2.86-4.15-2.05-2.23-5.2-4.08-9.05-5.32-3.32-1.07-3.68-1.08-5.11-.18a6 6 0 0 1-1.59.8c-.18 0-.45.1-.59.22-.13.12-.96.37-1.84.55s-2 .43-2.53.57c-1.66.42-8.45.6-9.77.25-2.3-.61-2.74-.6-4.36.11a19.4 19.4 0 0 0-10.9 13.12c-.4 1.68-.48 3.08-.46 9.26.02 7.62.06 8.05 1.96 22.29a132912 132912 0 0 0 1.07 8.13c.36 2.8.93 6.64 1.55 10.45l.53 3.31c.14.95.46 2.8.69 4.1s.53 3.1.66 3.97a264.53 264.53 0 0 0 1.07 6.55c.15.9.4 2.37.53 3.24l.52 3.04.5 3.07c.32 2.21.58 2.6 2.48 3.64 2.72 1.5 5.64 2.35 11.57 3.34 1.7.28 11.15.12 14.02-.25zm-37.45-.56a.3.3 0 0 0-.4-.1.3.3 0 0 0-.1.41.3.3 0 0 0 .4.1.3.3 0 0 0 .1-.4zm-35.78-1.57c.4-.8.72-1.58.73-1.75 0-.17.18-.63.38-1.02l.38-.73.17 1.16a3.9 3.9 0 0 1-.23 2.11c-.23.53-.33 1.04-.24 1.13s.86.16 1.71.16c1.45 0 1.57-.05 1.84-.72.31-.79.68-3.46.93-6.75.23-3 .3-2.94 3 2.31a37.36 37.36 0 0 0 2.36 4.19c.43.44.73.45 3.75.2 1.8-.14 4.87-.34 6.8-.44s3.57-.28 3.65-.4c.08-.14.35-.14.6-.02.24.12 3.4.1 7-.07 5.77-.24 6.62-.34 6.92-.75a6.1 6.1 0 0 1 1.5-1.09c2.7-1.45 2.87-1.6 2.88-2.33 0-.69-.08-1.17-.82-4.95l-.33-1.7-11.4.22-19.6.37-8.2.16-.34.73c-.2.4-.47.73-.61.73-.35 0-1.29 2.07-1.3 2.85a4 4 0 0 1-.43 1.44c-.23.45-.7 1.6-1.05 2.54-.34.94-.86 1.97-1.16 2.28s-.53.85-.53 1.17c0 1.07.88.52 1.64-1.03zm37.51.37c0-.05-.24-.1-.54-.1s-.48.11-.39.25c.14.23.93.1.93-.15zm-7.33 0a1.52 1.52 0 0 0-.8-.02c-.25.07-.1.13.33.13.44 0 .65-.05.47-.12zm-22.58-1.95c.5 0 .94.21 1.22.6.6.81.44.43-.94-2.27l-1.19-2.32-.2 1.53c-.12.84-.27 2.13-.33 2.86l-.12 1.32.4-.86c.3-.69.54-.86 1.16-.86zm150.56.42c0-.18-.36-.88-.8-1.57-.43-.69-.79-1.3-.79-1.37s-.32-.8-.72-1.64-1.02-2.54-1.4-3.78l-.68-2.25-13.48-.15c-7.42-.09-19.91-.15-27.77-.14l-14.29.03.1 1.85c.1 2.14.31 2.41 2.12 2.65 2.83.38 8.02 2.63 11.26 4.88l1.08.75 9.92.15c9.29.15 20.74.5 30.56.92 4.47.2 4.9.17 4.9-.33zM81.57 156c.1-.27.02-.34-.23-.25-.22.09-.39.26-.39.39 0 .38.46.27.62-.15zm162.83-.42c-.18-.3-.49-.47-.68-.4-.2.07-.56.14-.8.16-.24 0-.02.18.49.37 1.27.5 1.37.48 1-.13zm-91.76-.25c.33-.21.34-.48.07-1.8a15.6 15.6 0 0 1-.32-2.4c0-.48-.14-.85-.33-.86-1.36-.1-13.78.01-13.88.12a9.6 9.6 0 0 0 .05 2.27c.22 2.39.06 2.25 2.85 2.65 2 .3 11.1.3 11.56.02zm100.71-.2c1.74-.66-3.62-1.2-5.97-.6-2 .51-2.06.55-1.46.81.54.24 6.72.07 7.43-.2zm-93.42-.37c2.68-.34 5.87-.97 6.81-1.34.72-.28.73-.32.73-2.6 0-3.39.5-3.24-6.88-2-2.25.37-4.9.75-5.87.85-1.1.1-1.82.3-1.9.52-.15.38.5 4.44.78 4.9.19.3 2.23.19 6.33-.33zm-22.25-1.84c-.04-2.88-.12-2.96-3.2-3.5-1.42-.26-2.92-.54-3.32-.63-.62-.13-.73-.06-.73.43 0 .33.2.9.46 1.3.26.38.6.93.76 1.23.69 1.26 4.2 3.3 5.53 3.2.48-.03.52-.21.5-2.03zm118.17 1.87c.32-.21.28-.26-.2-.26-.33 0-.6.11-.6.26 0 .33.28.33.8 0zm-12.2-.73c.09-.13.75-.52 1.48-.87 1.16-.57 1.68-.64 4.28-.64 1.63 0 3.23.14 3.57.3 1.52.71 2.84.97 3.25.63 1.13-.94 1.61-4.1.88-5.76-.94-2.1-3.63-3.77-7.17-4.44-3.95-.76-6.83-.36-9.98 1.35-1.71.93-3.8 3.07-4.21 4.3-.63 1.9 1.02 4.2 3.7 5.17 1.21.44 3.89.41 4.2-.04zm-73.34-1.69c3.46-1.39 3.25-1.23 3.25-2.54 0-.64-.13-1.69-.3-2.33-.28-1.14-.32-1.18-1.32-1.18-.56 0-1.02.12-1.02.26s-.34.27-.76.27c-.41 0-1.14.2-1.62.43l-.87.44.15 2.21c.1 1.22.23 2.34.32 2.48.22.35 1.26.33 2.17-.04zm-77.05-2.64c8.78-.48 15.95-.77 22.5-.91 3.48-.08 6.6-.2 6.94-.27.69-.14.76-.83.31-3.07-.28-1.4-.42-2.16-1.12-6.04l-.36-1.98h-11.6l-.34 1.05c-.62 1.93-1.14 2.8-2 3.33-.78.48-1.4.5-9.98.51-6.75 0-9.22.08-9.45.32-.18.17-.32.65-.32 1.05 0 .45-.2.83-.52 1-.77.42-2.13 2.53-2.08 3.23.02.34-.05 1.02-.16 1.51l-.2.9 1.67-.18c.93-.1 3.95-.3 6.71-.45zm58.28-.36c.29-.1.34-.5.23-1.66l-.32-3.45c-.12-1.4-.3-1.98-.6-2.14-.24-.11-3.42-.2-7.05-.19l-6.62.02.04 1.6c.06 2.78.42 5.4.77 5.7.74.6 12.02.7 13.55.12zm-14.42-1.07c-.2-2.34-.58-5.36-.73-5.86-.2-.63-.67-.83-2.65-1.15a37.6 37.6 0 0 1-2.49-.51c-1.9-.5-1.93-.44-1.83 3.13.1 3.52.35 4.09 1.9 4.35.46.08 1.6.32 2.55.54.95.21 2.08.37 2.52.34.71-.04.79-.12.73-.84zm19.6.67a76.1 76.1 0 0 0 9.13-1.65l1.15-.29-.15-2a50.5 50.5 0 0 0-.35-3.34c-.24-1.52-.03-1.47-4.31-.94-1.24.15-3.44.4-4.9.55-1.45.15-3.3.35-4.1.46l-1.46.2.03 1.05c.04 1.39.55 5.17.78 5.76.2.54 1.3.6 4.17.2zm78.08-.86c.23-.32.4-.89.4-1.25 0-.6-2.13-5.1-4.1-8.68l-.78-1.39H201.7c-16.29 0-28.69.1-28.77.24-.08.13-.02 1.11.12 2.18.15 1.07.38 3.03.52 4.35.13 1.31.32 2.58.4 2.82.13.31.67.48 1.94.61.97.1 1.88.28 2.03.4s6.45.27 14.02.35c19.4.2 36.6.57 36.82.78.1.1 1.4.18 2.9.18 2.5 0 2.75-.04 3.13-.59zm23.41-3.83c-.33-1.2-.61-1.42-.88-.72-.25.67-.19 1.35.22 2.29.2.48.47 1.1.58 1.4.37.91.44-1.7.08-2.97zm-87.84 2c.52-.17 1.34-.48 1.83-.69.86-.37.89-.42.7-1.48-.1-.6-.27-1.9-.37-2.88-.24-2.44-.36-2.52-2.86-1.92a9.87 9.87 0 0 0-2.41.8c-.28.25-.3.87-.09 3.12.14 1.54.34 2.93.43 3.08.23.36 1.6.35 2.77-.03zm67.16-1.55c.47-.43.85-.93.85-1.12 0-.18-.54-.9-1.2-1.61-1.8-1.95-2.09-2.63-2.1-5.12 0-2.02.05-2.22.74-2.94.4-.43 1.4-1.12 2.2-1.54 2.1-1.1 2.16-1.22 1.4-2.76-.35-.72-.73-1.3-.84-1.3-.1-.01-.2-.13-.2-.28 0-.26-1-1.49-1.96-2.42-.77-.73-2.3-.61-4.21.3-1.78.86-4.07 2.91-4.3 3.86-.15.57.53 2.2 1.48 3.56.87 1.23 1.85 3.03 4.12 7.6 1.6 3.2 2.4 4.56 2.72 4.56.24 0 .82-.36 1.3-.8zm18.92-1.59c.25-.3.46-.7.46-.9 0-.22.12-.46.26-.55.15-.09.27-1.04.27-2.12s-.12-2.02-.27-2.11c-.14-.1-.26-.4-.26-.7 0-.78-2.46-3.09-4.04-3.78-.76-.33-2.04-.76-2.84-.94-.8-.19-1.8-.44-2.23-.57-2.97-.9-9.93 1.14-11.36 3.32-1.1 1.67-.06 4.6 2.4 6.76 1.14 1.01 1.37 1.1 2.32.98l3.44-.45c2.6-.35 6.38-.2 6.83.25.16.16.5.29.77.29s.75.13 1.07.3l1 .51c.72.39 1.72.25 2.18-.29zm-148.66-2.47c.85-.8.95-1.04.95-2.27 0-1.48-.3-2.25-1.17-3.02a4.17 4.17 0 0 0-3.16-1.19c-1.02.08-1.13.02-1.55-.8-1.25-2.52-4.28-3.97-6.01-2.9-.4.25-.6.24-.93-.03-.23-.19-.41-.5-.41-.69s-.47-.8-1.03-1.38c-1.37-1.38-3.04-1.88-4.6-1.36-2.02.66-3.63 2.62-3.63 4.38 0 .56-.09.61-.73.44a4.16 4.16 0 0 0-3.62.54c-.92.7-1.74 2.02-1.74 2.8 0 .33-.29.44-1.2.48a2.7 2.7 0 0 0-2.04.84c-.73.69-.83.95-.85 2.23 0 1.18.1 1.58.63 2.13l.64.69h29.5zm42.97-.44a20.3 20.3 0 0 0-.22-3.36l-.32-2.17-6.65-.08c-3.71-.04-6.8.03-7 .17-.19.13-.28.4-.21.58.07.19.15 1.43.18 2.77.07 3.64-.37 3.44 7.59 3.36l6.54-.08zm7.45.54c1.52-.22 5.27-.71 6.75-.89 1.05-.12 1.19-.39 1.04-2.1-.16-1.98-.66-4.4-.93-4.57-.11-.07-2.26.11-4.79.4-2.52.28-5.6.61-6.83.73l-2.25.2.02 2.65c.01 1.46.15 2.95.3 3.3.27.65.35.67 2.63.6 1.29-.03 3.12-.18 4.06-.32zm-22.08-1.4-.37-3.24c-.16-1.5-.2-1.58-.83-1.52-1.54.16-3.54 1.78-4.51 3.67-.7 1.35-.66 1.41 1.16 1.94.6.17 1.4.41 1.76.53.37.12 1.19.23 1.82.25l1.17.03zm32.95-.34c3-.85 2.96-.82 2.78-2.34l-.31-3c-.18-1.77-.63-2.23-1.67-1.67-.29.15-.83.28-1.2.28-.39 0-1.1.17-1.61.38-.84.35-.92.48-.92 1.5 0 .97.42 4.02.68 4.93.13.43.5.42 2.25-.08zm-49.1-2.84 1.06-.06-.04-1.45c-.04-1.7-.28-3.71-.61-5.03-.13-.5-.37-1.94-.53-3.17-.17-1.24-.41-2.97-.55-3.84-.82-5.27-1.04-6.77-1.18-8.1a5.6 5.6 0 0 0-.5-1.96c-.32-.43-.4-.4-1.05.46a3.4 3.4 0 0 0-.7 1.42c0 .48-1.04 1.17-1.75 1.17-.18 0-.8.47-1.36 1.06-.57.58-1.22 1.05-1.45 1.05s-.57.2-.77.44a4.5 4.5 0 0 1-2.7 1.15c-1.12 0-6 4.04-6 4.96 0 .5-1.27 1.92-1.72 1.92-.16 0-.47.3-.67.68s-.57.8-.83.94c-.75.4-.57.68.66.99a6.2 6.2 0 0 1 3.7 2.62c.64.95.89 1.12 1.65 1.12 1.61 0 3.72 1.46 4.5 3.12l.45.93 4.67-.18zm109.54-.46c.1-.15-.4-1.19-1.08-2.31-1.72-2.83-1.71-3.7.04-5.83.72-.88 1.57-1.67 1.9-1.76 1.11-.3 1.2-.2-5.44-6.53-1.41-1.34-1.8-1.57-2.5-1.5-.45.04-.85.2-.9.34-.07.28 2.33 2.25 2.75 2.25.41 0 4.32 4.1 4 4.2-.15.05-.71-.32-1.24-.82a20.6 20.6 0 0 0-1.9-1.55c-.5-.35-1.22-.9-1.58-1.24l-2.12-1.92-1.45-1.32h-17.88l-.52-.85c-1.03-1.7-.53-4.19 1.17-5.9.88-.88 3.09-1.55 4.47-1.36.84.11 1.27.03 1.77-.35.62-.47.63-.51.2-1-.26-.27-1.09-.79-1.85-1.14s-1.45-.7-1.52-.78a76.03 76.03 0 0 0-7.28-3.29 29.6 29.6 0 0 0-1.72-.67c-.5-.17-1.16-.41-1.45-.53-1.45-.57-3.2-.98-3.4-.79-.13.12-.16.73-.06 1.36.37 2.4.47 10.12.15 11.6-.65 2.95-2.3 5.33-4.42 6.33-1.57.75-1.97.86-4.84 1.36-.8.14-1.87.35-2.37.46l-.9.2.06 1.58c.04.87.17 2.02.28 2.56.18.82.13 1.05-.34 1.5-.62.57-4.38 2.37-6.26 3l-1.19.4.1 1.69c.05.93.21 1.84.36 2.02.2.26 3.51.34 14.72.36 7.95.02 16.6.12 19.22.22 7.91.3 22.83.31 23.02.01zm-81.76-9.92a1573.6 1573.6 0 0 0 13.5-1.72l3.96-.52a468.43 468.43 0 0 0 7.8-1.05c12.17-1.67 13.9-2.1 16.16-4.16 1.8-1.62 2.33-3.3 2.52-7.88.24-5.67-.47-10.93-1.83-13.56-.5-.97-2.58-2.85-3.89-3.52-.85-.44-3.12-.91-7.66-1.6-.95-.15-2.32-.37-3.04-.5-4.28-.77-4.17-.76-5.05-.27a51.9 51.9 0 0 1-2.9 1.53c-2 1.02-7.73 2.32-13.22 2.99-7.22.88-14.67 1.32-18.57 1.11-3.56-.19-4.88.1-6.46 1.46-3.25 2.78-4 10.29-1.77 17.9 1.95 6.7 3.32 8.02 9.87 9.5 4.29.98 4.87 1 10.58.29zm83.42-10.66c.07-1.37-.02-1.8-.52-2.5-.78-1.12-1.18-1.52-1.5-1.52-.14 0-.3-.13-.36-.28-.05-.16-.75-.3-1.56-.32l-1.48-.04-.34-1.2a5.92 5.92 0 0 0-3.5-4.19 5.97 5.97 0 0 0-7.9 2.95c-.46 1.03-.53 1.07-1.55 1-.73-.05-1.4.11-2.13.52-.59.33-1.07.67-1.07.75s-.17.36-.37.62c-.33.44-.43.44-1.59.05-1.04-.35-1.38-.36-2.21-.08-2.32.8-3.23 2-3.23 4.24 0 .8.08 1.53.18 1.63s6.67.14 14.61.1l14.44-.06.08-1.66zm-119.75.56c.78-.74.98-1.4.41-1.4-.67 0-1.93 1.4-1.66 1.83.26.42.43.36 1.25-.43zm3.4-2.46c0-.15-.14-.27-.29-.27s-.2.12-.12.27c.1.14.22.26.28.26.07 0 .12-.12.12-.26zm27.74-48.05c2.2-.44 5.02-1.34 5.52-1.75.64-.53.38-1.74-.6-2.71-.52-.52-1.15-.94-1.4-.94a1.2 1.2 0 0 1-.74-.27c-.35-.35-2.02-.41-2.5-.1-1.06.67-2.43.9-5.21.87l-2.98-.03-1.2.98a7.47 7.47 0 0 0-1.58 1.73c-.5.98-.5 2.09 0 2.28 1.76.68 7.21.64 10.7-.06zm-.72-6.1c.85-.35 1.02-.54 1.02-1.17 0-.41-.1-1.02-.24-1.36a18.5 18.5 0 0 1-.54-2.06c-.4-1.9-.79-3.6-1.08-4.76l-.5-2.12c-.74-3.26-2.24-9.53-2.53-10.58-.36-1.3-.83-1.55-2.07-1.08l-.7.27.13 8.4c.17 10.6.29 14.36.47 14.55.68.67 4.26.61 6.04-.1zm-4.33-24.54a5.22 5.22 0 0 0 2.44-2.97c1-3.42-3.23-6.73-6.26-4.88-1.46.9-2.21 2.14-2.21 3.7 0 2.68 1.7 4.46 4.31 4.5.55.01 1.33-.15 1.72-.35zm74.28 276.6c-.09-.14-.07-2.52.03-5.3.2-5.25.32-5.77 1.38-5.43.34.1.62.58.82 1.4.6 2.4.9 3.37 1.12 3.62.12.14.22.42.22.62s.24.67.53 1.04l.53.68.04-3.15c.02-1.73.05-3.3.07-3.48.04-.45 1.48-1.17 1.96-.99.33.13.36.62.2 2.99l-.31 4.65c-.07 1-.3 2.22-.5 2.73-.33.78-.48.9-1 .74-.76-.23-1.43-1.06-1.8-2.24-.16-.51-.36-1.1-.45-1.32a30.3 30.3 0 0 1-.57-1.83c-.23-.8-.58-1.5-.78-1.56-.29-.1-.32.38-.17 2.65.16 2.3.12 2.9-.24 3.6-.44.86-.8 1.04-1.08.58zm-10.94-.07c-.17-.17-.3-.42-.3-.55 0-.14-.21-.4-.47-.59-.39-.28-.48-.87-.55-3.67-.06-1.83-.2-3.33-.32-3.33s-.4.4-.6.86l-.94 2.12a6.71 6.71 0 0 0-.56 1.64c0 .2-.14.47-.31.57-.44.27-1.54-1.2-1.55-2.06 0-.4-.12-.79-.26-.88-.15-.09-.27-.45-.27-.8 0-.36-.12-.65-.26-.65-.15 0-.28.68-.3 1.52-.09 4.53-.2 5.49-.6 5.75-.3.2-.56.12-.95-.27-.5-.51-.52-.68-.25-4.23.37-4.97.79-7.54 1.23-7.54.2 0 .4.15.44.34.24.89.75 2.5.96 2.97a43 43 0 0 1 .67 1.93c.52 1.66 1.06 1.75 1.57.26.4-1.19 2.33-4.48 2.9-4.94.21-.19.5-.27.64-.19.13.09.32 1.91.41 4.06.1 2.15.24 4.76.32 5.8.15 1.88-.06 2.48-.65 1.88zm-14.33-.2c-.95-1.01-1.2-3.02-.93-7.23.2-3 .4-3.7 1.08-3.44.3.12.38.88.38 3.79 0 3.76.38 5.56 1.16 5.56.65 0 1.72-4.05 1.95-7.33.1-1.39.27-2.03.61-2.34.95-.87 1.07-.29.89 4.2-.1 2.35-.2 4.81-.21 5.47-.03.96-.12 1.17-.48 1.12-.24-.05-.84.16-1.32.46-1.27.77-2.24.69-3.13-.27zm-22.76.13c-.3-.83-.4-8.59-.12-9.73.14-.54.44-.79 1.22-1.02.56-.17 1.1-.25 1.17-.17.18.18.18.2-.02 5.1-.09 2.19-.06 4.12.07 4.3s.82.4 1.54.49c.72.08 1.48.2 1.68.27.7.22-.18.73-1.63.93-.76.1-1.9.27-2.5.37-1.06.18-1.14.15-1.4-.55zm-6.84.2c-.73-1.37-.56-9.96.2-10.73.14-.13.64-.25 1.12-.27l.89-.04-.1 4.66c-.05 2.97.02 4.72.2 4.83.14.1.84.24 1.54.32 2.55.3 2.52.77-.07 1.17-.86.13-2 .31-2.53.41-.8.15-1.01.09-1.25-.35zm-23.81-1.18a27.76 27.76 0 0 1 0-7.95c.25-1.25.41-1.53 1.05-1.8 1.5-.61 1.53-.48 1.37 4.62l-.15 4.64.72.27a6 6 0 0 0 1.76.28c1.32 0 1.46.7.18.9a35669 35669 0 0 1-3.67.58l-.96.17zm-6.78 1.21c-.3-.75-.49-5.88-.28-8.12.22-2.35.52-2.85 1.75-2.91 1.06-.05 1-.5.66 5.25-.24 4.15-.17 4.32 2.04 4.55 2.22.22 1.97.83-.47 1.17-.72.1-1.8.27-2.4.37-.92.15-1.12.1-1.3-.3zm-5.14-.25c.62-.66.64-.82.64-4.56 0-2.97-.08-3.87-.33-3.82-.22.05-.33-.28-.33-.99v-1.06h1.85c1.64 0 1.85.06 1.85.5a.7.7 0 0 1-.5.63c-.42.11-.5.5-.66 3-.1 1.59-.25 3.5-.33 4.27-.13 1.13-.08 1.41.27 1.52 1.43.45 1.4.42.7.8a6 6 0 0 1-2.23.39h-1.57zm-8.34.22a54 54 0 0 1-.33-5.49c-.14-4.9-.13-5.04.43-5.75.65-.81 1.2-.94 1.44-.33.08.21.33.4.55.4.46 0 .5.6.17 2.84a5.4 5.4 0 0 0-.08 1.5c.06.07.56-.44 1.1-1.12 1.4-1.74 3.4-3.76 3.71-3.76.15 0 .27.25.27.55 0 .48-.86 1.52-3.64 4.41-.32.35-.6.81-.6 1.05 0 .23.9 1.31 2 2.4 1.34 1.35 1.98 2.19 1.98 2.61 0 .35-.12.63-.26.63s-1.28-.72-2.53-1.6c-1.25-.87-2.37-1.53-2.5-1.46-.11.08-.29.7-.39 1.4-.25 1.78-.4 2.18-.8 2.18-.19 0-.43-.2-.52-.46zm108.17.45c-1.57-.46-2.06-2.15-1.03-3.52.46-.62 1.2-.39 1.2.37 0 .95.5 1.55 1.42 1.72 1.13.21 1.9-.19 2.13-1.1.3-1.17-.3-2.13-1.67-2.75-2.69-1.2-3.04-1.48-3.42-2.62-.3-.9-.3-1.26-.04-1.9.37-.9 1.46-1.76 2.67-2.1 1.12-.32 3.1.23 3.6 1 .72 1.1-.21 2.02-1.39 1.39-.51-.28-.8-.26-1.63.07-.88.34-1.03.52-1.1 1.35-.07.84.02 1 .66 1.26 2.8 1.14 3.24 1.53 3.45 3.1.26 1.95-1.54 4.06-3.4 3.99-.34-.02-1-.14-1.45-.27zm-38.74-.4a8.34 8.34 0 0 1-.25-2.22c0-1.7-.21-1.9-1.8-1.66-.74.1-.85.23-.87.95-.07 3.03-.1 3.2-.62 3.3-1.06.2-1.21-.56-1.21-5.96v-5.1h.9c1.18 0 1.27.3 1.05 3.5l-.18 2.64 1.16-.2c1.56-.25 1.57-.26 1.57-1.52 0-.6.14-1.78.31-2.61.27-1.3.43-1.58 1.07-1.84 1.12-.47 1.36-.07 1.17 1.92-.1.92-.24 3.34-.34 5.38-.1 2.24-.29 3.78-.47 3.9-.6.39-1.23.19-1.49-.48zm21.44.54c0-.24-.22-.5-.5-.57-.82-.22-.88-1.7-.14-3.73.35-.97.64-2.04.64-2.36 0-1.2 1.32-3.64 2.59-4.78a6.05 6.05 0 0 1 1.52-1.12c.28 0 .92 2.35.92 3.38 0 .32.12 1.09.26 1.7.14.63.33 1.58.4 2.13.12.77.3 1.02.8 1.15.47.12.65.34.65.8 0 .4-.15.63-.4.63-.33 0-.4.26-.34 1.23.11 1.7-.43 1.8-1.11.21-.5-1.17-.58-1.23-1.36-1.08a8 8 0 0 1-1.41.17c-.47 0-.67.25-.99 1.26-.3.91-.55 1.27-.96 1.34-.39.05-.57-.06-.57-.36zm4.5-4.95c0-.96-.71-5.24-.9-5.43-.34-.33-.63.36-.78 1.85l-.34 3.05-.17 1.39h1.1c1.05 0 1.09-.03 1.09-.86zm-59.66 4.84c-.1-.3-.4-.54-.67-.54-.38 0-.51-.23-.58-1-.05-.54.05-1.29.21-1.65.48-1.05.9-2.5.9-3.12 0-1.5 1.52-4.19 2.96-5.22.7-.5 1.32-.92 1.37-.92.15 0 .67 1.94.8 3.04.19 1.48.69 4.41.85 4.95.07.24.4.48.71.53.79.1.94 1 .2 1.19-.47.12-.53.28-.38 1.1.26 1.48.26 1.5-.14 1.5-.2 0-.62-.48-.93-1.06-.3-.58-.63-1.03-.74-1-.11.04-.77.07-1.48.07h-1.27l-.4 1.25c-.41 1.36-1.12 1.8-1.41.88zm4.36-5.23c0-.7-.2-2.18-.44-3.32-.52-2.42-.91-2.37-1.18.14-.1.9-.26 2.27-.37 3.04l-.2 1.39h2.2z"/></svg>