<svg xmlns="http://www.w3.org/2000/svg" width="1440" height="1080" viewBox="0 0 381 285.75"><path d="M159.47 260.47c-1.57-.19-3.23-.46-3.7-.6s-1.33-.34-1.91-.44c-2.34-.37-6.67-1.55-7.47-2.03-2.23-1.36-2.88-3.2-1.9-5.34.52-1.1 1.27-2.22 1.78-3.08.54-.88 1.49-1.93 1.97-2.44.73-.82 4.57-4.44 8.27-5.74.03-.9.09-1.63.15-2.67.07-1 .49-5.56.63-6.62.07-.5.2-2.17.29-3.7.2-3.42.24-4.05.47-5.56.34-2.32.52-4.39.54-6.33l.16-2.26-2.62-.64c-1.41-.34-4.27-1.18-5.82-1.48-.9-.19-5.86-1.29-9.55-1.98-5.1-.96-5.69-1.09-6.48-1.4-1.06-.4-1.19-.63-1.19-2.18 0-1.5.22-2.97 1.2-8.2.66-3.55.84-4.73 1.45-9.6.15-1.2.44-2.74.65-3.43s.68-3.05 1.05-5.23l4.13-24.18c1.9-11.12 3.49-20.3 3.54-20.38s.17-.8.26-1.6c.1-.8.28-2 .42-2.65.49-2.4.87-4.44 1.3-6.66.16-.88.35-2.33.35-2.33-.76-.4-1.56-.87-2.2-1.2-.52-.3-1.9-1.17-3.91-2.92a21.07 21.07 0 0 0-1.96-1.53c-.4-.25-1.4-1.37-2.23-2.5-.82-1.13-1.84-2.5-2.26-3.04-.97-1.27-4.7-8.61-4.7-9.25 0-.27-.2-.93-.43-1.47a17.1 17.1 0 0 1-.78-2.7c-1.41-6.45-2.38-13-2.9-19.58-.14-2.27.2-8.14.64-10.85.65-4 2.38-7.76 4.4-9.56l1.53-1.4c.4-.38.97-.69 1.25-.69.83 0 .62-.94-.54-2.4a10.8 10.8 0 0 1-2.39-5.6c-.27-1.69-.24-2.4.25-5.5.77-4.98 1.03-8.32.8-10.31a7.49 7.49 0 0 1-.08-1.9c.18-.3 2.48-1.85 2.48-1.69 0 .08.47-.04 1.04-.27 1.66-.66 7.15-.51 10.57.28 3.72.87 7.61 3.16 9.29 5.47.98 1.36 1.02 2.4.12 3.35-1 1.07-2.6 4.53-3.82 8.28-.7 2.13-1.6 4.2-2.68 6.16-1.4 2.48-1.78 2.96-3.03 3.76-1.76 1.13-2.04 1.6-1.65 2.79l.38 1.24c.05.19.3.32.56.28.25-.04.76.02 1.12.13 2.7.82 3.65 2.39 3.98 6.58.3 3.7-.26 6.04-2.57 10.75l-1.22 2.48.42 2.02c.23 1.1.54 2.5.69 3.08.49 1.92 3.16 7.5 4.32 9.02l1.8 2.38c.78 1.04 4.4 3.97 6.1 4.94l1.22.7.77-.81c.75-.8.82-.8 2.65-.67 2.32.16 5.31 1.46 7.45 3.22.8.66 1.57 1.2 1.72 1.2.39 0 2.82-1.55 3.7-2.35.54-.5.72-.91.72-1.66 0-.54.12-1.28.25-1.64.14-.36.32-1.59.4-2.73s.24-2.87.36-3.84c.25-2.08.1-2.66-.72-2.78-1.02-.16-2.72-1.49-3.27-2.55a10.8 10.8 0 0 1-.74-3.16c-.19-1.87-.15-2.3.31-3.38.53-1.24.53-1.24.01-2.27-.5-1-.95-3.66-1.22-7.29-.15-2.1.2-2.44 1.34-1.26.9.94 2.33 3.05 2.33 3.05l-1.93-6.33-.9-3.19-.7-2.36s-.24-.92-.55-2.3c-.79-3.51-.67-8.44.26-10.59.35-.8.88-1.75 1.2-2.12 1.14-1.32 1.46-2.08 1.46-3.5 0-1.88.38-3.07 1.3-4.12.43-.48.82-.96.86-1.06.15-.32 2.99-2.16 3.34-2.16.18 0 .95-.33 1.71-.74 3-1.6 4.55-1.98 8.13-2.01l3.31-.03 2.25 1.28c1.27.72 2.85 1.38 3.63 1.53 1.34.25 2.39.64 5.26 1.97.83.38 1.93 1.24 2.85 2.24 2.19 2.36 3.23 4.62 4.14 8.99.75 3.54 1.06 4.08 3.23 5.62.28.2.54.85.64 1.65.13.96.42 1.61 1.06 2.36a8.87 8.87 0 0 1 1.94 5.35c0 1.48-.63 4.18-1.12 4.8-.14.18-.18.32-.08.32.23 0-.63 1.2-1.69 2.34-.71.77-.81 1.06-.81 2.44 0 1.4.1 1.68.89 2.57a13.95 13.95 0 0 1 2.77 4.96c.29.87.79 2.2 1.11 2.94.79 1.79.58 2.95-.78 4.31-.46.5-1.02.89-1.64 1.16l-1.72.43a20 20 0 0 1-1.98.38c-.5.06-1.41.25-2.05.42a5 5 0 0 1-1.9.15c-.77-.17-1.01.14-3.36 4.2-.18.3-.33.93-.33 1.39 0 .74.1.85.9 1 1.71.32 2.78 2.4 2 3.88-.22.4-.2.5.12.5 1.08 0 2.02 2.43 2.41 6.26l.17 1.63 1.77.1c1.53.08 2 .24 3.3 1.1.8.52 1.5 1.17 2.1 1.92.38.59 1 1.06 1.78 1.35 4.1 1.56 7 4.68 9.9 10.67.39.8 1.01 2.05 1.39 2.77 2.77 5.34 3.84 10 2.48 10.84-.35.22-.36 1.56-.02 2.79.14.51.55 2.71.92 4.9.37 2.18.86 4.7 1.08 5.6s.63 3.24.92 5.19c.28 1.95.57 3.71.64 3.92.19.51 1.2 12.94 1.2 14.68 0 .89.26 2.08.7 3.2 1.73 4.55 1.75 4.64 1.63 9.2-.1 4.12-.12 4.29-.94 5.96a8.6 8.6 0 0 1-3.48 3.7c-.3.18-.44 1.9-.7 8.38-.2 4.5-.35 9.07-.36 10.19l-.02 2.02-1.25.74c-2.52 1.48-3.15 1.7-5.09 1.7h-1.86v3.24c0 2.76-.08 3.36-.53 4.1-.36.59-.72.86-1.16.86l-.9-.13.52 3.63c.48 3.34-.55 6.65-1.1 8.2-.51 1.3-.79 2.09-1.37 3.57-.47 1.39-1.36 3.09-3.3 5.36-2.63 3.05-2.93 3.3-5.11 4.22-1.3.55-1.57.58-2.83.3-1.76-.4-3.14-1.4-4.66-3.4a15.83 15.83 0 0 1-2.84-5.35c-.59-1.75-1.35-5.34-1.18-5.52.2-.2-1.1-1.02-2.13-1.35-.94-.3-1.58-.59-3.04-1.35-4.33-2.25-7.3-3.53-7.67-3.3-.21.14-.44 1.18-.69 3.19-.28 2.3-1.47 9.58-1.72 10.5-.15.6-.46 1.04-.78 1.14-.28.1-.53.25-.54.35-.02.1-.06 1.3-.1 2.7-.17 5.45-1.12 8.73-2.75 9.4-1.05.44-6.04.13-8.75.13-.9 0-1.5-.01-1.77-.6-.2-.43-.2-1.34-.22-1.91 0 0-1.06 1.03-1.59 1.3-3.1 1.62-7.12 2.28-12.92 1.58zm9.86-2.03a13.2 13.2 0 0 0 3.32-1.36c.36-.21.94-.61 1.4-.88l1.06-.78.04 1.83v1.2l3.9.1c2.15.05 4.41 0 5.03-.13 1.02-.2 1.14-.32 1.39-1.26l.54-2.09c.31-1.2.46-6.35.2-6.78-.12-.18-1.89-.36-4.63-.47-2.44-.1-5.51-.3-6.82-.46-5-.58-10.52-2.2-15.55-4.6-1.53-.73-2.24-.97-2.49-.88-.2.08-.98.24-1.65.58-.74.38-1.86 1.18-2.4 1.52-.34.2-1.29 1.1-2.36 2.03-1.07.94-1.87 2.18-2.17 2.55-.2.26-.92 1.04-1.53 2.15-.54.99-1.15 2.17-1.25 2.7-.17.88-.1 1.04.8 1.8.53.47 1.3.86 1.69.99 2.25.75 7.04 1.71 7.57 1.91.34.13 1.69.37 3 .54 1.3.16 2.94.17 3.37.22 1.26.17 6.23-.11 7.54-.43zm46.55-7.66c1.85-.9 5.29-4.58 6.42-6.9 1.9-3.86 3.14-7.24 3.35-10.15.14-1.88-.08-3.16-.62-6.05-.2-1.06.17-1.61.82-1.25 1.28.72 1.7-.58 1.75-5.44.02-2.51-.03-2.77-.6-3.38-.77-.82-7.37-5.27-7.55-5.09a32.7 32.7 0 0 0-.22 3.94c-.1 4.3-.45 5.86-2.24 10.09a35.58 35.58 0 0 1-4.91 8.57c-1.8 2.27-3.12 3.1-5.5 3.4-.71.1-1.26.3-1.26.48.01.7 1.27 5.16 1.77 6.27 1.01 2.26 3.54 5.17 5.1 5.87.82.37 2.52.2 3.7-.36zM187.85 246c.35-.55 1.11-5.93.89-6.33-.05-.1-.48-.07-.95.06-1.17.34-8.57.32-11.18-.03-6.22-.82-12.73-2.62-16.87-4.67l-1.26-.62-.23.6c-.13.33-.3 1.8-.4 3.25l-.19 2.64 2.64 1.12a54.6 54.6 0 0 0 8.5 2.9c4.4 1.01 5.13 1.16 6.81 1.38.99.12 4.06.24 6.82.26 4.95.03 5.04.02 5.42-.56zm.46-7.5c.76-.15.81-.26 1.21-2.32.23-1.18.56-3.46.72-5.06s.54-4.32.83-6.03c.3-1.71.49-3.35.41-3.64s-.03-.46.1-.37c.38.23.28-.32-.11-.65-.2-.16-1.84-.6-3.64-.98s-4.53-.96-6.06-1.3c-2.83-.6-5.98-1.25-11.9-2.4-1.83-.36-4.53-.96-6.01-1.33-3.05-.76-3.78-.64-3.8.63s-.71 8.8-1.2 13.04c-.26 2.27-.4 4.32-.3 4.55.24.64 4.19 2.44 7.33 3.35 2.66.76 8.48 1.84 12.7 2.35 2.35.28 8.6.38 9.72.16zm20.12-2.08c2.02-1.33 2.84-2.26 4.99-5.7 1.14-1.82 2.48-4.49 2.48-4.93 0-.21.2-.77.44-1.24.24-.46.53-1.2.65-1.64l.6-2.16c.57-2 .73-3.91.53-6.37-.17-2.1-.22-2.23-1.26-3.34-.95-1-3.29-2.55-3.87-2.55-.1 0-.26 1.7-.34 3.77-.2 5.39-1.38 10.37-3.3 13.96l-1.49 2.78a60.73 60.73 0 0 1-3.9 5.74c-1.07 1.37-.98 1.7.5 2 2.09.44 2.92.37 3.97-.32zm-6.17-1.43c.09-.28.66-1.04 1.28-1.7s1.53-1.83 2.04-2.59c.51-.75 1.14-1.59 1.39-1.86.25-.28.46-.63.46-.78s.47-1.08 1.03-2.08a23.8 23.8 0 0 0 2.26-5.62l.54-2.47c.58-2.63.8-8.8.36-9.64a5.86 5.86 0 0 0-2-1.46c-.9-.46-1.8-.98-1.97-1.15s-.52-.32-.77-.32c-.47 0-.6.54-.92 3.9-.1 1.06-.29 2-.41 2.07-.13.08-.24.58-.24 1.12s-.18 1.99-.39 3.23l-.56 3.3c-.24 1.5-.97 2.18-2.7 2.53-1.53.32-1.8.3-5.8-.41-.91-.2-1.84-.3-2.77-.33-.37.12-.9 2.43-1.26 5.52-.09.91-.23 1.82-.43 2.71-.43 1.13.08 1.64 3.03 3.04 1.58.75 3.01 1.36 3.18 1.36s.3.1.3.24.2.3.46.4 1 .46 1.65.81c1.46.78 2.04.83 2.24.18zm-1.3-14.81c.14-.12.75-.36 1.35-.53 1.25-.36 1.1.07 1.93-5.47l1.07-7.01c.3-1.96.66-4.46.8-5.56.15-1.09.45-3 .67-4.23.75-4.27 1.45-8.55 2.1-12.83a915.72 915.72 0 0 1 2.92-17.86c.51-2.98 1.17-6.97 1.46-8.86.29-1.9.75-4.7 1.03-6.22s.59-3.66.68-4.73c.1-1.08.28-2.24.42-2.6.28-.73 1.48-7.66 1.85-10.66.13-1.1.54-3.65.9-5.7.23-1.8.75-4.48.76-5.4l-1.46-.2c-1.15-.12-2.09-.42-2.2.1-.27 1.15-3.43 18.69-4.09 22.71-.16 1.01-.53 3.1-.8 4.63-.58 3.26-1.15 6.52-1.7 9.79l-1.75 10.05c-.3 1.67-.65 3.76-.78 4.63s-.6 3.73-1.04 6.35l-2.3 13.63-1.97 11.77c-.73 4.37-1.57 9.21-1.88 10.77-.3 1.56-.49 3.02-.4 3.24.17.44 1.98.58 2.43.19zm-3.3-.64c.14-.33.97-4.82 1.83-9.99l3.58-21.3c1.11-6.55 2.14-12.74 2.28-13.76.14-1.01.6-3.7 1.02-5.95s1.02-5.7 1.34-7.67.98-6.01 1.49-9l1.28-7.67c.66-4.2 3.38-19.18 3.46-20.02.05-.44.8-2.4-1.14-2.65-19.73-3.27-42.76-6.32-59.39-8.65-2.67-.15-3.39.74-3.39 1.12l-1.75 9.43c-.52 2.73-3.33 18.97-4.35 25.1-.43 2.6-.84 4.81-.9 4.91-.07.1-.37 1.73-.68 3.61-.3 1.88-.9 5.27-1.31 7.52-.42 2.26-1.01 5.6-1.32 7.41-.3 1.82-.85 4.8-1.2 6.62a929.34 929.34 0 0 0-3.6 20.24c-.28 1.74-.69 4.03-.9 5.08s-.4 2.08-.4 2.28c0 .26.64.53 1.92.82l2.98.7c.58.14 2.78.6 4.9 1.04s5.26 1.08 7 1.46c1.75.38 4.85 1.03 6.89 1.45 2.03.42 5.3 1.13 7.27 1.58s4.82 1.07 6.35 1.37 4.39.88 6.35 1.3 4.82.98 6.35 1.28c4.03.78 10.87 2.33 11.64 2.64 1.18.47 2.1.35 2.4-.3zm-8.33-13.52c-.87-1.2-1.62-2.5-2.25-3.84-1.25-2.5-1.78-3.29-2.42-3.62-1.17-.6-1.44-.23-1.96 2.6-.5 2.79-1.01 3.84-1.61 3.35-.5-.42-.49-.71.3-5.23 1.4-8.15 1.7-9.67 1.9-9.88.21-.2 2.27.08 4.34.6 1.46.37 3.35 2.23 3.8 3.73.34 1.17.32 1.32-.23 2.38a4.72 4.72 0 0 1-3.67 2.33c-.5 0-.73.14-.73.42 0 .23.83 1.79 1.85 3.47s1.85 3.27 1.85 3.54c0 .78-.48.84-1.17.15zm-.5-9.86c.9-.66 1.11-1.95.5-2.9-.98-1.48-4.17-2.73-4.86-1.9-.38.45-1.2 4.88-.97 5.25.12.19.97.26 2.38.2 1.72-.07 2.36-.21 2.95-.65zm-11.53 5.92c-.12-.33-.37-1.42-.54-2.43-.38-2.23-.66-2.8-1.39-2.8-.3 0-1.02-.14-1.6-.31-1.25-.38-1.18-.46-2.33 2.76-.64 1.79-.94 2.32-1.27 2.26-.87-.16-.64-1.78.85-6.05 2.35-6.7 3.06-8.4 3.58-8.57.9-.29 1.31.13 1.62 1.67.16.82.4 1.85.52 2.29a75.94 75.94 0 0 1 1.59 9.6c0 2.07-.54 2.9-1.03 1.58zm-1.54-7.68c-.1-.47-.3-1.62-.46-2.55-.15-.94-.43-1.75-.61-1.81s-.33.1-.34.37a9.8 9.8 0 0 1-.5 1.9c-.58 1.7-.47 2.31.47 2.66 1.36.5 1.63.38 1.44-.57zm-11.85 5.24c-3.72-1.08-3.67-1.04-3.47-2.33.1-.62.35-2.49.56-4.16.22-1.68.61-4.35.87-5.96l.47-2.9.92.06c.9.06 3.26.67 4.42 1.14.34.14.6.47.6.77 0 .67-1.1.72-2.99.15-2-.6-2.15-.44-2.4 2.52-.13 1.57.14 2.37.8 2.37.94 0 2.52.65 2.78 1.15.59 1.09-.72 1.31-3.24.55-.6-.18-1.04.95-1.04 2.68 0 1.64-.14 1.52 2.78 2.36 1.76.5 1.85.57 1.85 1.32 0 1.01-.28 1.04-2.91.28zm-8.65-2.33c-.23-.18-.68-1.22-1-2.31a77.29 77.29 0 0 0-2.7-7.48c-.14-.28-.37-.41-.49-.29-.12.13-.41 1.9-.65 3.93-.57 4.8-.91 5.74-1.73 4.76-.36-.44-.2-3.9.27-5.68.13-.51.5-2.36.8-4.1.64-3.72.74-4.1 1.07-4.1.32 0 1.73 2.82 2.36 4.71 1.35 4.1 2.87 8.1 3.11 8.18.15.05.35-.12.46-.38.27-.67 1.19-7.9 1.2-9.38 0-1.57.2-2.08.79-2.08.66 0 .75.42.52 2.38-.12.95-.35 3.03-.52 4.63-.35 3.27-.92 6.26-1.33 7.03-.32.6-1.52.7-2.16.18zm17.62-15.78c-1.21-.74-1.96-1.82-1.96-2.85 0-.94.78-1.6 1.02-.86.26.8 2.1 2.36 2.79 2.36.96 0 1.75-.87 1.75-1.93 0-.75-.3-1.17-1.95-2.78-2.52-2.45-2.94-3.61-1.99-5.53 1.04-2.09 3.21-2.7 5.28-1.48 1.43.85 2.37 3.67 1.51 4.53-.52.52-.74.37-1.3-.89-.69-1.56-1.89-2.22-3.03-1.67-.42.2-.88.7-1.02 1.1-.24.7-.14.86 1.57 2.54a17 17 0 0 1 2.3 2.7c.94 1.76.42 4.08-1.1 4.86-1.07.56-2.88.5-3.87-.1zm-8.17-2.9c-.29-1.32 1.32-10.86 1.94-11.48.48-.48.83.1.83 1.36 0 1.24-.87 8.03-1.22 9.47-.36 1.53-1.27 1.91-1.55.66zm17.32-12.5c-1.53-.29-2.21-1.07-1.99-2.28.24-1.24.6-4.38.98-8.35.32-3.35.33-3.38 1.1-3.77 1.07-.53 2-.49 3.73.16a5.2 5.2 0 0 1 2.56 1.92c2.4 2.97 3.16 6.1 2.1 8.55-1.4 3.25-4.36 4.57-8.48 3.78zm4.54-2.34a4.49 4.49 0 0 0 2.59-2.48c.98-2.58-.88-6.16-3.9-7.5-2.35-1.04-2.58-.86-2.81 2.16l-.43 5c-.21 2.3-.2 2.94.07 3.11.65.41 3.28.24 4.48-.29zm-12.05-.15c-.43-.44-.64-.97-2.76-7.14-.85-2.47-1.65-4.5-1.79-4.5s-.38 1.4-.55 3.1c-.46 4.74-.89 6.81-1.46 7.12-.73.4-.98-.6-.7-2.8.45-3.6 1.58-10.03 1.83-10.5.31-.58.85-.63 1.27-.12.17.2.6 1.21.95 2.25.69 2.04 2.7 7.33 3.01 7.94.45.87.72.18 1.52-3.9.8-4.11 1.17-5.16 1.62-4.7.73.73-1.28 13.14-2.18 13.49-.2.08-.55-.03-.76-.24zm-12.2-2.26a38.8 38.8 0 0 1-3.04-.85c-2.53-.8-2.7-1.09-2.23-3.84l.76-4.46c.23-1.33.41-2.8.41-3.25 0-1.47.55-3.2 1.02-3.2.24 0 1.63.26 3.08.58 2.6.56 3.57 1.03 3.57 1.7 0 .72-.83.82-3.09.35a10.9 10.9 0 0 0-2.58-.34c-.33.12-.79 3.94-.53 4.36.06.1.74.32 1.5.5 2.02.44 2.59.78 2.59 1.53 0 .64-.01.64-1.92.45l-2.16-.22c-.44-.07-.94 1.26-.95 2.48 0 1.19 0 1.2 1.26 1.62.69.24 1.87.58 2.63.75.97.22 1.43.47 1.55.84.15.48-.28 1.32-.64 1.25-.1-.01-.65-.12-1.23-.25zm25-14.7c-4.14-.64-4.02-.49-3.54-4.33l.8-6.32c.3-2.48.57-3.68.87-3.98.39-.38.83-.41 3.47-.23 1.67.12 3.29.27 3.6.34.65.15 1.03.9.66 1.26-.14.14-1.74.24-3.56.21l-3.3-.04-.15 1c-.11.73-.22 1.47-.31 2.2l-.16 1.2 2.43.33c1.34.19 2.54.4 2.67.48.35.22.27 1.43-.1 1.58a9.15 9.15 0 0 1-2.32-.25c-2.81-.53-2.95-.43-3.3 2.64-.1.94-.04 1.44.19 1.62.3.24 2.42.63 5.5 1.03 1.24.15 1.91.69 1.67 1.32-.18.46-1.95.44-5.12-.05zm-9.51-2.6a5.98 5.98 0 0 1 0-2.3c.13-.93.25-1.82.25-2 0-.4-.53-.55-2.64-.76-.95-.09-2.2-.26-2.77-.39-1.38-.3-1.66-.02-1.87 1.82-.44 3.94-1.32 4.31-1.3.55.03-2.56.74-8.84 1.2-10.64.69-2.6 1.32.63.8 4.02-.16 1-.18 1.84-.05 1.97.25.25 1.67.55 4.39.95.87.13 1.78.31 2.01.4.56.23.66-.07 1.17-3.37.55-3.5.5-3.32.84-3.66.66-.66.94.07.77 1.99-.42 3.8-.97 7.6-1.64 11.36-.27.7-.9.74-1.16.07zm-16.5-1.64c-.29-.3-.2-1.93.2-4.2 1.04-5.65 1.19-6.84.92-7.17-.15-.18-.95-.41-1.78-.51-1.68-.2-2.16-.48-2.16-1.22 0-.8.65-.86 3.93-.37l4.27.64c1.04.15 1.19.26 1.19.83 0 .64-.06.66-1.8.66-1.25 0-1.86.12-2.02.38-.13.2-.37 1.57-.54 3.04-.37 3.32-1.04 7.02-1.37 7.63-.26.48-.55.58-.84.29zm69.48 76c.37-.37.74-4.95 1.12-13.92.08-1.82.21-3.93.29-4.7.13-1.27.1-1.4-.47-1.62-.34-.13-.73-.14-.88-.03-.4.3-2.45.12-2.9-.25-.75-.62-1.71-3.06-2.15-5.44-.6-3.33-1-4.7-1.35-4.82-.17-.06-.63.26-1.03.7-.72.8-1.6 1.08-4.74 1.48-1.54.2-3.8 1.58-6.5 4-1.88 1.68-4.28 4.26-4.7 5.06-.44.8-.8 4.1-.53 4.64.13.25 1.64 1.16 3.34 2 3.6 1.8 7.17 3.88 7.58 4.42.15.2 1.12.82 2.16 1.37 3.94 2.1 8.04 5.29 8.04 6.25 0 1.06 1.91 1.66 2.72.86zm3.37-1.09a6.1 6.1 0 0 0 1.69-1.34c.09-.23.16-1.39.16-2.58s.11-3.77.25-5.73c.13-1.97.32-5.42.4-7.67l.17-4.1-.97.98c-.48.5-1.06.88-1.7 1.13-1.05.23-1.26 1.3-1.6 8.34-.17 3.27-.38 7.17-.48 8.66-.09 1-.11 1.99-.08 2.98.14.43.56.3 2.16-.67zm-3.18-20.72c1.02-1.02 1.6-3.08 1.78-6.34.08-1.5.27-2.79.41-2.88.17-.1.2 1 .1 3.12-.17 3.88-.25 4.4-.8 5.47-.2.35-.35.72-.43 1.11 0 .48 1.89 0 2.97-.76 1.7-1.2 2.85-4.38 2.85-7.85 0-.79.12-1.44.27-1.44.46 0 .3 4.03-.27 6.22l-.53 2.12c0 .03.4-.13.87-.37 1.83-.9 2.98-3.29 3.32-6.88.29-3.04-.55-7.62-1.86-10.19-.44-.86-.57-1.85-.75-5.56-.29-5.79-.72-11.2-1.06-13.38-.16-.95-.4-2.56-.53-3.58-.18-1.24-.4-2.47-.65-3.7-.22-1.02-.83-3.98-1.35-6.58-.33-1.8-.74-3.6-1.23-5.36-.28-.63-1.09-.85-1.38-.38-.42.31-.9.55-1.4.7-.69.25-2.2.9-3.37 1.44a44.57 44.57 0 0 1-8.29 2.91c-1.5.4-2.9.88-3.11 1.1s-.52 1.05-.7 1.88c-.36 1.74-.28 2.2 1.37 7.73 1.88 6.32 3.58 13.87 4.1 18.25.4 3.34-.78 7.15-3.1 10-1.72 2.11-1.9 3.51-.65 4.89.43.47.84.6 1.9.6 1.68 0 3.22-.98 4.52-2.88l.6-.88.35.62c.37.65.8 2.43 1.28 5.17.69 4.01 1.96 6.43 3.39 6.43.34 0 .97-.34 1.38-.75zm-18.33-4.52c.6-.5 1.32-1.03 1.58-1.17.27-.14.68-.46.93-.72s.7-.64 1-.86l.56-.38-.57-1.09c-.74-1.43-.53-2.7.77-4.42 1.98-2.63 3.18-5.15 3.2-6.7.02-.7.4-.69-3.69-.05-.95.15-2.58.28-3.64.28-1.05 0-1.92.1-1.92.23s-.71 4.53-1.58 9.79c-.88 5.25-1.6 9.62-1.6 9.7s.87-.72 1.93-1.78a53.2 53.2 0 0 1 3.03-2.83zm6.25-17.27 1.8-.34-.17-1.43c-.4-3.19-2-10.67-2.9-13.53-.52-1.67-1.22-4.11-1.55-5.42-.32-1.31-.7-2.36-.85-2.33-.14.03-.35.75-.47 1.59s-.86 5.46-1.65 10.26-1.51 9.44-1.61 10.3l-.18 1.56 2.89-.15c1.57-.09 3.14-.26 4.69-.5zm1.63-31.62c1.6-.51 3.86-1.32 5.03-1.8s2.6-1.01 3.17-1.2c2.57-.8 6.09-3.2 6.37-4.34.41-1.64-2.7-9.07-5.81-13.86-1.8-2.78-4.68-6.04-6.1-6.92a7.11 7.11 0 0 0-5.3-.66l-2.08.52c-1.2.28-6.79 4.34-6.79 4.91 0 .13.27.3.6.37 1 .22 6.04.9 7.95 1.08 1.52.14 1.83.26 2.02.74.19.51-.31 3.18-.5 4.4-.29 1.51-2.68 17.11-2.49 17.6.1.27.33.37.6.27.23-.1 1.73-.6 3.33-1.1zm-72.15-24.82c1.13-5.26 1.23-5.54 1.97-5.9.49-.23 2.26-.37 5.4-.42l4.68-.08 1.12-2.06c1.05-1.94 2.23-5.1 2.23-5.98 0-.25-.58-.65-1.45-1.01-.8-.33-2.42-1.25-3.62-2.05-2.19-1.47-6.3-5-6.3-5.42 0-.12-.42-.77-.93-1.43a40.2 40.2 0 0 1-3.93-7.27c-.8-1.97-2.03-6.6-2.03-7.63 0-.39.6-1.95 1.34-3.47 3.55-7.32 3.21-14.25-.75-15.34-.82-.23-2.54.28-3.32.98-.87.8-2.34 3.2-2.58 4.24-.29 1.25.13 2.87.84 3.24.93.5 3.18-.14 4.22-1.2.49-.51.98-.92 1.1-.92.54 0 .12 1.21-.7 1.98-.7.66-1.26.91-2.45 1.1l-1.53.22-.04 1.34c-.04 1.54-.47 2.48-1.79 3.89-.81.87-2.01 1.35-2.01.8 0-.1.61-.81 1.36-1.57 1.13-1.14 1.4-1.6 1.56-2.65.19-1.25.16-1.3-.92-2.38-.52-.56-1.17-1-1.88-1.28-2.77-.59-4.53-1.1-4.64-1.32-.23-.54 1.62-.41 3.57.25 1.11.37 2.14.67 2.28.67s.26-.38.26-.84.2-1.54.43-2.4c.28-.98.35-1.64.19-1.8-.68-.67-3.5-1.38-5.58-1.41-2.27-.03-2.7-.24-1.46-.72.98-.38 3.96-.1 5.83.56.82.3 1.7.53 1.96.53.58 0 2.14-1.5 2-1.93-.23-.72-3.37-2.54-5.14-2.99-2.42-.6-2.96-.55-4.58.44-1.97 1.22-3.47 3.37-4.45 6.39-.96 2.98-1.07 3.58-1.5 8.27-.37 3.92-.3 4.96 1.09 14.95.23 1.68.52 3.85.64 4.84.12.98.65 3.36 1.19 5.29.53 1.92 1.06 3.86 1.16 4.3.23.91 2.77 5.87 4.2 8.2 1.83 2.96 7.75 8.68 10.5 10.14l1.9 1.02s.36-1.24.56-2.17zm-16.12-39.82c-1.22-.65-1.37-1.07-1.02-2.89.54-2.81.46-2.67 1.39-2.66.84.01 3.32.55 4.23.92s.27 3.64-.93 4.7c-.7.61-2.44.58-3.67-.07zm3.16-1.02a3 3 0 0 0 .72-.95c.48-.91.13-1.66-.88-1.88-.5-.12-1-.25-1.5-.41-.68-.21-.86-.16-1.25.35-1.15 1.52-.4 3.12 1.48 3.11.6 0 1.24-.1 1.43-.22zm73.83 40.8c2.57-2.88 5.37-4.48 8.57-4.88 1.2-.15 2.2-.3 2.24-.34s-.7-.63-1.64-1.32c-3.2-2.35-5.76-2.26-9.68.36-2.01 1.34-6.86 5.96-6.86 6.53 0 .33.6.5 3.23.88 2.7.39 2.7.39 4.14-1.22zm-7.98-.53c1.75-2.58 6.38-6.59 8.81-7.62 1.7-.72 1.71-.75 1.36-2.32l-.41-1.92c-.59-2.95-1.2-4.37-1.88-4.37-.54 0-.5.71.06 1.02.58.33.2.82-1.18 1.52-.54.28-1.51.84-2.14 1.26-.64.42-2.36 1.34-3.84 2.05-1.35.65-2.68 1.33-4 2.03-1.09.57-2.2 1.1-3.32 1.6-1.82.8-2.11 1.04-3.5 2.9-.84 1.12-1.52 2.23-1.52 2.47 0 .44.97.78 3.37 1.16 1.09.17 1.13.15 1.13-.54 0-.39-.2-1.43-.42-2.3-.28-1.1-.33-1.69-.14-1.88.32-.31 1.08 1.27 1.1 2.26 0 .33.22 1.1.5 1.71.43.96.65 1.14 1.52 1.28.55.1 1.13.21 1.27.26.15.05.83.1 1.51.11 1.06.02 1.31-.08 1.72-.68zm-12.49-1.74c.6-.91 1.19-1.84 1.75-2.78 1-1.67 1.57-2.32 2.36-2.72.56-.29 1.2-.52 1.41-.52.22 0 .43-.1.48-.21.05-.12.74-.46 1.54-.76.84-.31 1.5-.73 1.54-.98.08-.37-.2-.43-1.9-.43-2.35 0-3.77-.49-6.43-2.2a14.38 14.38 0 0 1-6.28-8.37c-.52-1.78-.53-2.76-.02-5.74.47-2.72.67-3.29 2.08-5.79 1.4-2.49 2.48-3.59 5.46-5.55 3.58-2.36 4.47-2.75 7.88-3.48 1.67-.35 3.13-.7 3.23-.76s1.79-.3 3.73-.53c5.59-.65 6.3-.86 7.2-2.16.7-.97.76-1.23.6-2.34a3.9 3.9 0 0 0-1.08-2.2c-.87-.95-.93-.97-2.76-.93-1.04.02-2.68.19-3.66.37-1.67.32-1.86.43-3.28 1.95a9.36 9.36 0 0 1-3.93 2.75c-1.5.66-3.64 1.1-5.27 1.1-3.69 0-6.42-1.57-7.8-4.47-.72-1.54-.81-2-.8-3.99-.1-2.2.66-4.34 2.13-5.97 1.3-1.58 3.92-3.14 5.48-3.37.12-.02.5-.12.82-.16.21-.03.77-.1 1.19-.1.5.02 2.14.27 2.2.28.55.15-.29.8-.29.8s-.9-.32-1.8-.32c-.66 0-1.32.13-1.51.19l-1.03.3-.39.14c-.89.39-3.19 1.85-4.2 3a8.2 8.2 0 0 0-1.55 7.9 8.49 8.49 0 0 0 3.26 3.72c1.08.67 5.26 1.35 6.86 1.13 2.6-.37 6-2.86 7.03-5.16.62-1.38.72-3.85.21-5.33-.84-2.45-3.21-4.48-6.32-5.4-1.67-.5-1.97-.73-1.28-1 .9-.34 4.66 1.2 5.7 2.34 1.27 1.36 1.48 1.34 2.49-.23a6.63 6.63 0 0 1 4.16-3.2 9.75 9.75 0 0 1 5.74.15c1.21.42 1.42.43 1.55.1.19-.49-.35-1.16-1.16-1.47-.78-.3-1.15-1.18-2.33-5.54-2.14-7.87-4.35-10.25-11.24-12.08-2.19-.58-6.95-.57-8.86.03-.73.22-1.62.41-1.98.41-1.57.02-7.6 2.52-8.4 3.49-.16.2-.34.83-.4 1.41l-.09 1.06-.31-.73c-.17-.4-.43-.73-.56-.73s-.9.73-1.7 1.63c-1.3 1.45-1.44 1.73-1.32 2.52.14.85-.26 1.26-.53.55-.17-.45-1.26.7-1.83 1.92-1.05 2.26-1.44 6.35-.86 8.95 1.14 5.1 4.41 17.12 4.75 17.46.1.1.14-1.76.1-4.12-.04-2.35 0-4.36.1-4.46.25-.25 1.6 1.97 3.26 5.36 1.47 3.02 1.99 4.59 1.5 4.59-.28 0-.63-.67-1.74-3.31-.87-2.08-2.01-4.1-2.31-4.1-.28 0-.3 4.11-.02 7.37.18 2.2.18 2.22-.48 2.47-2.56.97-3.55 2.13-3.88 4.54-.14 1.01-.05 1.46.58 2.7.8 1.6 2.45 3.03 3.48 3.03.34 0 1.05-.18 1.58-.4 1.24-.52 1.47-.26.52.56-.68.58-.8.94-1.14 3.35-.2 1.49-.48 3.72-.6 4.95s-.5 4.07-.81 6.29l-.58 4.03.72 2.45c.4 1.35.86 3.06 1.05 3.8.57 2.33.5 2.29 4.28 2.91 4.39.73 4.22.73 4.71.04zm-9.92-33.13c0-.5-.12-.98-.27-1.07-.14-.09-.26-.28-.26-.41 0-.44.96-.27 1.68.3.83.65.94 1.56.19 1.56-.28 0-.59.12-.68.27-.34.55-.66.23-.66-.65zm2.15-4.65a3.2 3.2 0 0 0-1.3-.55c-.44-.08-1.02.23-1.15.12-.15-.13-.1-.97.53-1.01 1.15-.08 2.85 1.18 2.94 1.6.1.5-.27.46-1.02-.16zm13.25-12.05c-1.2-.85-.29-2.66 1-1.97.6.32.73 1.56.21 2.07-.4.4-.5.4-1.2-.1zm-16.72 48.32c0-.28-.9-2.08-2-4.01-1.45-2.56-1.9-3.58-1.69-3.79.35-.34.73.16 2.1 2.73 1.64 3.07 3.01 5.32 3.25 5.32.35 0-.88-5.02-1.4-5.69a7.38 7.38 0 0 1-.53-1.59c-.28-1.13-.27-1.46.1-2.34.24-.57.43-1.32.43-1.68v-.65l-1 .6c-.4.23-.77.48-1.12.77-.07.09-.58.5-1.13.91-1.29.97-1.52 1.42-1.94 3.84-.45 2.53-.46 4.63-.04 4.97.3.24.95.4 3.78.96 1.03.2 1.19.16 1.19-.35zm-5.82-3.49c0-1.29-.1-2.35-.21-2.35-.26 0-1.82 2.55-2.24 3.66-.36.96-.26 1.1.91 1.36 1.35.3 1.54-.03 1.54-2.67zm-2.65.1a37.38 37.38 0 0 1 2.45-3.89c.69-.93 1.25-1.87 1.25-2.1s-.39-.7-.87-1.06a32.68 32.68 0 0 0-5.45-3.02c-.77-.27-.83-.24-.97.43-.65 3-2.58 8.15-3.62 9.65-.75 1.08-.46 1.44 1.3 1.65.85.1 1.96.28 2.47.4 1.91.44 2.14.3 3.44-2.07zm32.54-5.63c2.46-.98 3.95-1.93 4.84-3.08a27.3 27.3 0 0 1 1.57-1.8c.55-.59 1-1.33 1-1.66 0-.76-.98-1.78-1.4-1.45-.4.3-2.15.92-4.68 1.65-1.1.31-2.53.79-3.18 1.06a18.12 18.12 0 0 1-6.96 1.31c-3.04-.02-3.2-.08-4.32-1.7-1.37-1.99-.72-5.39 1.5-7.93 1.46-1.67 2.99-3.06 3.37-3.06.14 0 .4-.16.57-.37.57-.69 3.95-1.1 10.87-1.34 2.69-.1 5.13-.24 5.42-.33.62-.19 1.43-.32 2.96-.49 1.06-.11 1.71.2 1.15.54-.15.1-.27.4-.27.68 0 .43.13.48.86.34 1.65-.31 3.62-1.18 4.45-1.96.94-.88.94-1.04-.09-3.55a97.9 97.9 0 0 1-1.1-2.84 9.5 9.5 0 0 0-3.25-4.13c-1.31-.99-1.48-1-3.09-.3-.86.39-2.44.66-5.39.93-6.15.57-8.06 1.07-12.53 3.29-3.23 1.6-4.57 2.52-6.05 4.18a11.37 11.37 0 0 0-2.58 3.79c-1.14 2.38-1.68 5-1.59 7.64.18 2.31 1.6 5.43 3.16 6.9 4.92 4.64 9.48 5.78 14.76 3.68zm-37.22-3.36c.14-.73-.4-1.92-.87-1.92-.13 0-.58.3-.98.66-.63.55-.68.7-.35.9.22.14.64.44.93.66.77.6 1.1.51 1.27-.3zm27.64-1.54c.47-.33.59-.67.59-1.7 0-1.19.05-1.3.72-1.44.4-.09 1.27-.17 1.92-.2 1.24-.02 2.91-.97 2.91-1.63 0-.56-1.67-1.95-2.51-2.1a3.54 3.54 0 0 0-1.66.22c-.49.2-1.22.3-1.66.2-.6-.11-1.04.03-1.84.58-2.17 1.5-2.77 3.81-1.39 5.34 1.1 1.2 1.94 1.42 2.92.73zm6.86-.9c1.94-.98 2.18-1.26 1.35-1.57-.74-.27-1.14-.15-2.28.7-.63.46-1.06.6-1.55.47-.79-.2-1.94.45-1.94 1.08 0 .69 2.5.31 4.42-.67zm4.42-1.49c.54-.53.53-.9-.02-.9-.48 0-1.41.73-1.41 1.1 0 .38 1 .24 1.43-.2zm2.93-1.5-.3-1.06c-.17-.6.99-3.12 2.03-4.43.44-.56.7-1.08.58-1.15-.47-.3-2.85.77-3.75 1.67-2.03 2.02-2 5.31.03 5.07.24-.03.52.07.61.22.1.15.35.28.57.28.29 0 .35-.17.23-.6zm-12.22-6.06c.32-.18 1.3-.32 2.17-.34 1.23-.01 1.77-.15 2.41-.63.82-.62.83-.62 2.14-.16 1.29.46 1.33.46 2.5-.1 1.1-.54 1.28-.55 2.1-.21 1.46.6 2.18.6 3.1-.06.46-.33.96-.53 1.11-.44.48.3 2.37.2 2.78-.13.22-.19.4-.57.4-.87 0-.5-.11-.52-1.79-.34-.98.11-3.27.24-5.1.29-4.91.13-7.25.35-8.3.79-.51.21-1.37.4-1.89.4-1.03 0-3.43 1.41-3.15 1.86.2.34.83.31 1.52-.06zm-17.7-13.05c.48-.37 1-.67 1.16-.67.6 0 .56-.53-.18-2.15-.84-1.87-2.26-3.93-2.7-3.93-.26 0-.22.81.18 3.57.06.44.19 1.48.28 2.32.1.83.22 1.52.28 1.52s.5-.3.98-.66zm38.48-4.38c.24-.66.06-2.5-.21-2.2-.4.47-.86 1.96-.71 2.34.22.57.68.5.92-.14zm1.45-4.82c1.9-2 2.37-3.27 2.23-5.89-.1-1.88-.21-2.28-1.05-3.58a7.61 7.61 0 0 0-7.17-3.57c-2.28.3-4.01 1.11-5.06 2.39-1.51 1.85-1.75 2.63-1.29 4.2.23.77.36 2.07.31 3.18-.08 2.1.1 2.67.78 2.31.25-.12 1.52-.44 2.83-.7 3.3-.64 4.2-.38 5.57 1.6.55.8 1.12 1.45 1.27 1.45s.87-.62 1.58-1.39zm-3.78-3.62c-.62-1.15.07-2.02 1.25-1.58.96.36.57 2.1-.47 2.1-.28 0-.63-.24-.78-.52zm-70.8-8.65c.08-.24.08-.84-.01-1.33-.13-.7-.4-1.02-1.19-1.42-1.3-.67-2.66-.68-3.26-.01-.76.83-.42 1.35 1.3 1.98.87.31 1.83.71 2.12.88.7.42.84.4 1.03-.1zm3.06-2.61c2.55-1.26 3.92-3.47 6.54-10.58 1.5-4.06 2.4-6.06 3.3-7.34.6-.85.51-1.03-1.12-2.51-1.68-1.53-4.83-3.16-7.58-3.92-1.91-.53-3.03-.66-6.17-.7-3.45-.05-3.9 0-4.43.45-.42.36-.6.8-.6 1.5 0 1.3-.45 1.53-.67.35-.37-1.94-1.08-1.04-.78.98.1.7-.08 2.77-.5 5.5-.94 6.07-1.08 8.08-.71 10.2.39 2.22.77 2.97 2.27 4.47.65.66 1.19 1.37 1.19 1.6 0 .68.41.44.87-.54.57-1.19 1.4-1.5 3.1-1.18 1.73.33 2.53.88 3.09 2.15.44 1 .47 1.03.87.54.22-.29.82-.72 1.33-.97zm-11.59-4.7c-.6-1.43-.64-4.68-.1-9.25.3-2.43.66-4.63.81-4.9.4-.69.38.76-.1 4.44-.55 4.4-.68 7.27-.37 8.16.15.43.23 1.12.17 1.53l-.1.75zm17.94-11.47c-1.72-1.37-3.33-2.12-6.2-2.88-3.74-1-5.02-1.2-7.88-1.23-.87.03-1.74-.01-2.6-.13 0-.39 1.83-.69 3.98-.65 3.7.14 7.34 1 10.71 2.54 1.71.78 3.4 2.25 3.28 2.84-.08.38-.3.3-1.3-.5zm29.86.3c.72-1.08.95-1.62.72-1.67-.6-.14-2.8 1.54-3.53 2.68-.8 1.27-1.46 3.02-1.26 3.35.2.31 2.79-2.47 4.07-4.37zm2.55-.14c.26-.29.65-.53.85-.53s1-.28 1.75-.63c.76-.35 2.13-.84 3.04-1.1 1.2-.33 1.64-.57 1.58-.87-.1-.53-1.65-.92-2.85-.73l-1.26.2c-.18.03-.33.14-.33.25 0 .1-.47.4-1.04.65-.88.4-2.93 2.57-2.93 3.12 0 .37.73.14 1.19-.36zm12.15-3.72c.36-.35-1.55-1.07-3.27-1.23-1.6-.16-1.6-.05.06 1.05.77.5 1.25.63 1.99.54.43-.03.84-.16 1.22-.36z"/></svg>