<?xml version="1.0" encoding="UTF-8"?>
<svg version="1.1" viewBox="0 0 225.78 127" xml:space="preserve" xmlns="http://www.w3.org/2000/svg"><g><g fill="#fff" stroke="#000"><g><path d="m85.083 36.335-16.271 2.108c-0.73124-4.3874 2.4988-21.08 10.636-15.121 8.8322 6.4677 6.279 22.938 1.5377 41.775-4.7413 18.837-6.1509 41.39-6.1509 41.39s16.787 9.4826 33.445 8.8419c16.659-0.64072 34.214-8.5856 34.214-8.5856s-3.0754-11.917-2.3066-27.551c0.76885-15.633 5.5101-27.166 4.9976-42.415-0.51257-15.249-4.6131-14.993-6.4071-15.762-1.794-0.76886-23.45-3.2036-32.164-2.691-8.7137 0.51257-30.719 3.7351-30.719 3.7351 2.8823-0.09999 5.5243 2.8119 6.8057 4.8622 1.2814 2.0503 2.5068 6.2481 2.3821 9.4132z" fill="#fff" stroke-width=".5"/><g fill="#fff" stroke-width=".25"><path d="m124.22 27.381c-4.6357-0.25562-12.401 0.02889-16.338 0.22852-3.3788 0.17133-9.019 1.2432-10.906 1.498-3.9319 0.53091-12.966 0.66666-12.966 0.66666l0.55248 1.992s8.3971-0.09787 12.681-0.67628c2.1286-0.28742 7.1391-1.3278 10.188-1.4824 3.898-0.19766 12.252-0.47268 16.68-0.22852 3.6897 0.20346 8.9436 0.72657 11.568 0.82031 1.7862 0.06379 9.0456 0.62004 9.0456 0.62004l-0.34109-2.0344s-6.6153-0.51358-8.6323-0.58561c-2.4494-0.08748-7.7591-0.61035-11.531-0.81836z" stop-color="#000000"/><path d="m124.75 31.777c-4.6559-0.25674-11.552 0.21838-15.449 0.41602-3.3918 0.17199-9.0794 1.3355-10.963 1.5898-3.8792 0.52379-13.31 0.3498-13.31 0.3498l0.19752 2.0062s9.0435 0.21193 13.38-0.3736c2.1323-0.28792 7.7614-1.4203 10.797-1.5742 3.9374-0.19965 10.831-0.65907 15.238-0.41602 3.68 0.20292 8.7893 0.77101 11.428 0.86523 1.8236 0.06513 9.0425 0.5094 9.0425 0.5094l-0.14761-2.0146s-6.843-0.42212-8.8226-0.49282c-2.4358-0.08699-7.6088-0.65669-11.391-0.86523z" stop-color="#000000"/><path d="m140.7 95.981s-0.89178 0.60672-1.9513 1.1846c-1.0595 0.57791-2.7532 1.3658-5.2383 2.1602-4.9702 1.5888-13.07 3.2272-25.613 3.2272-11.945 0-19.934-1.3475-24.908-2.6777-4.9746-1.3302-7.3186-2.8505-7.3186-2.8505l-0.20624 2.1538s1.8441 1.2472 7.0093 2.6283c5.1651 1.3812 13.291 2.722 25.386 2.722 12.714 0 21.059-1.6369 26.258-3.2988 2.5995-0.83096 4.4125-1.6675 5.5879-2.3086 1.1754-0.6411 1.2689-0.70101 1.2689-0.70101z" stop-color="#000000"/><path d="m141.16 99.635s-1.3522 0.83226-2.4118 1.4102-2.7532 1.3658-5.2383 2.1602c-4.9702 1.5888-13.108 3.2031-25.65 3.2031-11.945 0-19.934-1.3475-24.908-2.6777-4.9746-1.3302-7.6505-2.9592-7.6505-2.9592l-0.19038 2.1627s2.1601 1.347 7.3252 2.7282c5.1651 1.3812 13.328 2.7461 25.424 2.7461 12.714 0 21.059-1.6369 26.258-3.2988 2.5995-0.83096 4.4125-1.6675 5.5879-2.3086 1.1754-0.6411 1.7908-1.0579 1.7908-1.0579z" stop-color="#000000"/></g><path d="m85.083 36.335-16.271 2.108c-0.73124-4.3874 2.4988-21.08 10.636-15.121 8.8322 6.4677 6.279 22.938 1.5377 41.775-4.7413 18.837-6.1509 41.39-6.1509 41.39s16.787 9.4826 33.445 8.8419c16.659-0.64072 34.214-8.5856 34.214-8.5856s-3.0754-11.917-2.3066-27.551c0.76885-15.633 5.5101-27.166 4.9976-42.415-0.51257-15.249-4.6131-14.993-6.4071-15.762-1.794-0.76886-23.45-3.2036-32.164-2.691-8.7137 0.51257-30.719 3.7351-30.719 3.7351 2.8823-0.09999 5.5243 2.8119 6.8057 4.8622 1.2814 2.0503 2.5068 6.2481 2.3821 9.4132z" fill="none" opacity=".5" stroke-width=".5"/></g><path d="m37.095 103.44h151.47l29.852 25.284h-225.04z" stroke-width=".25"/><path d="m97.824 85.616s-2.6192-2.4088-3.8587-4.5135c-0.63906-1.0852-1.1693-3.1337-2.0112-4.7941-0.79199-1.562-3.5061-5.0337-5.3086-2.9233-1.6279 1.906 1.8241 3.5781 2.7128 5.2619 0.88867 1.6838 1.5903 3.3208 2.5257 4.6304 0.93544 1.3096 6.1144 4.9532 6.1144 4.9532z" stroke-width=".25"/></g><path d="m103.94 65.059s2.4125 1.5404 4.5079 1.4498c2.0954-0.09061 3.16-0.72488 3.16-0.72488" fill="none" stroke="#000" stroke-width=".25"/><path d="m121.43 65.965s1.2459 0.49836 3.3413 0.40775c2.0954-0.09061 3.1034-1.042 3.1034-1.042" fill="none" stroke="#000" stroke-width=".25"/><g display="none" stroke="#000" stroke-width=".25"><path d="m117.25 69.057c1.665 0.03398 3.4885 0.18122 3.6697 0.90611 0.18122 0.72489 0.23785 1.4724-0.30581 2.1067-0.54367 0.63428-0.58897 0.63428-1.0307 0.78152-0.44173 0.14724-0.55499-0.24918-1.1213-0.2152-0.56632 0.03398-2.118-0.30581-3.0468-0.23785-0.92876 0.06796-0.62295 0.4757-1.0873 0.48703-0.46438 0.01132-0.99672 0.15857-1.2232 0.03398-0.22652-0.12459-0.2605-1.2119-0.16989-1.6876 0.0906-0.4757 1.0873-1.4384 1.7669-1.7329 0.67958-0.29448 2.5484-0.44173 2.5484-0.44173z"/><g fill="#fff"><path d="m115.26 69.333 1e-3 1.4258s0.13615 0.13615 0.60868 0.13615 0.64872-0.19222 0.64872-0.19222l-4e-3 -1.5709z"/><path d="m116.51 69.132 4e-3 1.5709s0.32835 0.22425 0.92101 0.20823c0.59267-0.01601 1.1693-0.2723 1.1693-0.2723l0.0156-1.5189s-0.47598-0.0701-1.05-0.05519c-0.57405 0.01492-1.0598 0.06729-1.0598 0.06729z"/><path d="m118.62 69.12-0.0156 1.5189s0.64872 0 0.96907-0.01601c0.32036-0.01601 0.82492-0.07208 0.82492-0.07208l0.01-1.0769z"/></g></g><g transform="matrix(-1 0 0 1 232.13 0)"><path d="m121.1 41.454c1.721 9.95e-4 4.1257 2.015 5.3913 3.851 1.1514 1.6702 2.2653 5.7538 2.3106 8.5174 0.0453 2.7636-0.81549 6.6599-2.084 8.4268-1.2686 1.7669-2.4465 2.673-3.8963 2.7183-1.4498 0.0453-4.7571-1.631-5.8897-3.9416-1.1326-2.3106-1.9028-3.851-2.084-7.566-0.11719-2.4022 0.28916-5.4451 1.631-8.2456 0.79707-1.6635 2.8609-3.7614 4.6212-3.7603z" fill="#fff" stroke="#000" stroke-width=".25"/><ellipse cx="120.91" cy="61.569" rx="1.2093" ry="1.7259"/><path d="m128.8 53.823c-0.0453-2.7636-1.1591-6.8472-2.3106-8.5174-1.2657-1.8359-3.6703-3.85-5.3913-3.851-1.7603-1e-3 -3.8241 2.0968-4.6212 3.7603-0.8707 1.8172-1.3475 3.7365-1.543 5.5166 0 0 4.0795-0.47388 7.071-0.0027 4.1674 0.65635 6.7951 3.0942 6.7951 3.0942z" fill="#fff" stroke="#000" stroke-width=".25"/></g><g><path d="m121.1 41.454c1.721 9.95e-4 4.1257 2.015 5.3913 3.851 1.1514 1.6702 2.2653 5.7538 2.3106 8.5174 0.0453 2.7636-0.81549 6.6599-2.084 8.4268-1.2686 1.7669-2.4465 2.673-3.8963 2.7183-1.4498 0.0453-4.7571-1.631-5.8897-3.9416-1.1326-2.3106-1.9028-3.851-2.084-7.566-0.11719-2.4022 0.28916-5.4451 1.631-8.2456 0.79707-1.6635 2.8609-3.7614 4.6212-3.7603z" fill="#fff" stroke="#000" stroke-width=".25"/><ellipse cx="120.91" cy="61.569" rx="1.2093" ry="1.7259"/><path d="m128.8 53.823c-0.0453-2.7636-1.1591-6.8472-2.3106-8.5174-1.2657-1.8359-3.6703-3.85-5.3913-3.851-1.7603-1e-3 -3.8241 2.0968-4.6212 3.7603-0.8707 1.8172-1.3475 3.7365-1.543 5.5166 0 0 4.0795-0.47388 7.071-0.0027 4.1674 0.65635 6.7951 3.0942 6.7951 3.0942z" fill="#fff" stroke="#000" stroke-width=".25"/></g><g fill="#fff" stroke="#000" stroke-width=".25"><g><path d="m126.8 87.577s6.35-1.6536 7.9375-4.1672c1.5875-2.5135 2.6402-4.3668 2.7758-5.7777 0.0867-0.90251-0.15154-4.4825 3.0234-3.1081 2.7726 1.2002 0.10966 5.8225-1.5989 7.8275-1.372 1.61-4.2003 5.3578-9.8227 6.5484-5.6224 1.1906-2.3151-1.3229-2.3151-1.3229z"/><path d="m95.911 76.928h34.66l-1.3891 15.478-31.75-0.03307z"/><path d="m95.906 89.265h34.798l-0.59532 3.9348-0.27147 2.486-33-0.03864-0.39688-2.4474z"/></g><g><g fill="#fff" stroke="#000" stroke-width=".25"><g fill="#fff" stroke="#000" stroke-width=".25"><path d="m89.628 93.199h48.022v3.7703h-2.0505v18.389h-44.582v-18.058h-1.3891z"/><g><path d="m91.017 97.301h44.582"/><path d="m96.842 97.301v14.552"/><path d="m130.22 97.301v14.552"/><path d="m135.6 111.85h-44.582"/></g></g></g></g><g><rect x="88.373" y="87.329" width="50.071" height="1.3564"/><rect x="134.33" y="82.933" width="3.3208" height="10.266"/><rect x="89.628" y="82.933" width="3.3208" height="10.266"/><rect x="138.44" y="86.982" width="2.4143" height="5.2586"/><rect x="85.958" y="86.982" width="2.4143" height="5.2586"/><path d="m85.958 88.9-2.3169-0.79375-0.19844-5.457-2.8773-0.82682-0.46302 6.6146 5.8557 1.8686z"/></g></g><text transform="scale(1.273 .78553)" x="88.635963" y="17.500753" fill="none" font-family="Monospace" font-size="13.473px" opacity="0" stroke="#000000" stroke-width=".5" text-align="center" text-anchor="middle" xml:space="preserve"><tspan x="88.635963" y="17.500753" fill="#ffffff" font-family="Impact" font-size="13.473px" stroke="#000000" stroke-width=".5">THIS IS A REALLY GOOD IDEA</tspan></text><path transform="scale(1.273 .78553)" d="m22.89 6.8566v2.1315h-1.6446v8.5127h-2.763v-8.5127h-1.6446v-2.1315zm6.993-0.013157v10.657h-2.763v-4.4734h-0.83548v4.4734h-2.763v-10.657h2.763v3.8156h0.83548v-3.8156zm3.8814 0v10.657h-2.763v-10.657zm6.993 3.2367h-2.5722v-0.79601q0-0.5526-0.11184-0.70391-0.10526-0.14473-0.32235-0.14473-0.25656 0-0.37498 0.19736-0.13815 0.20394-0.13815 0.62496 0 0.50655 0.15131 0.79601 0.15131 0.28288 0.78285 0.65786 1.8486 1.092 2.3288 1.7894 0.47366 0.72364 0.47366 2.2762 0 1.1249-0.25656 1.671-0.26314 0.53944-1.0394 0.90126-0.74338 0.38156-1.7631 0.38156-1.092 0-1.9012-0.43418-0.79601-0.42761-1.0394-1.0657-0.24341-0.67759-0.24341-1.842v-0.70391h2.5788v1.296q0 0.57234 0.10526 0.76969 0.0921 0.17104 0.38814 0.17104 0.28946 0 0.42103-0.21051 0.11841-0.22367 0.11841-0.65128 0-0.94731-0.25656-1.2236-0.24341-0.28946-1.2894-0.97363-1.0131-0.66444-1.3618-0.99336-0.32893-0.28946-0.55918-0.84206-0.22367-0.55918-0.22367-1.4078 0-1.2039 0.30919-1.7894 0.30261-0.57234 1.0131-0.89468 0.74338-0.30919 1.6841-0.30919 0.34866 0 0.67101 0.039471 0.32893 0.039471 0.63812 0.12499 0.30919 0.085521 0.53286 0.19078 0.74996 0.33551 0.99994 0.87495 0.24341 0.51313 0.24341 1.7894zm6.2233-3.2367v10.657h-2.763v-10.657zm6.993 3.2367h-2.5722v-0.79601q0-0.5526-0.11184-0.70391-0.10526-0.14473-0.32235-0.14473-0.25656 0-0.37498 0.19736-0.13815 0.20394-0.13815 0.62496 0 0.50655 0.15131 0.79601 0.15131 0.28288 0.78285 0.65786 1.8486 1.092 2.3288 1.7894 0.47366 0.72364 0.47366 2.2762 0 1.1249-0.25656 1.671-0.26314 0.53944-1.0394 0.90126-0.74338 0.38156-1.7631 0.38156-1.092 0-1.9012-0.43418-0.79601-0.42761-1.0394-1.0657-0.24341-0.67759-0.24341-1.842v-0.70391h2.5788v1.296q0 0.57234 0.10526 0.76969 0.0921 0.17104 0.38814 0.17104 0.28946 0 0.42103-0.21051 0.11841-0.22367 0.11841-0.65128 0-0.94731-0.25656-1.2236-0.24341-0.28946-1.2894-0.97363-1.0131-0.66444-1.3618-0.99336-0.32893-0.28946-0.55918-0.84206-0.22367-0.55918-0.22367-1.4078 0-1.2039 0.30919-1.7894 0.30261-0.57234 1.0131-0.89468 0.74338-0.30919 1.6841-0.30919 0.34866 0 0.67101 0.039471 0.32893 0.039471 0.63812 0.12499 0.30919 0.085521 0.53286 0.19078 0.74996 0.33551 0.99994 0.87495 0.24341 0.51313 0.24341 1.7894zm8.2429-3.2367 1.5789 10.657h-2.8288l-0.13815-1.9144h-0.99336l-0.16446 1.9144h-2.8683l1.4144-10.657zm-1.467 6.8549q-0.10526-0.89468-0.19078-1.7367-0.07894-0.84864-0.23025-2.7301-0.24998 1.8157-0.35524 2.7433-0.10526 0.921-0.17104 1.7236zm5.8944-6.8549h1.967q1.967 0 2.6512 0.16446 0.68417 0.13815 1.1315 0.76311 0.43418 0.6447 0.43418 1.9801 0 1.2433-0.31577 1.6775-0.30919 0.42761-1.2039 0.50655 0.83548 0.23025 1.1052 0.5526 0.29604 0.3684 0.34866 0.61838 0.03947 0.1842 0.05263 0.56576t0.01316 1.0263v2.8025h-2.5722v-3.5458q0-0.86179-0.13815-1.046-0.13815-0.20394-0.71048-0.20394v4.7958h-2.763zm2.763 1.8354v2.3683q0.48681 0 0.65786-0.13157 0.19078-0.15131 0.19078-0.83548v-0.58549q0-0.51313-0.19078-0.67101-0.1842-0.14473-0.65786-0.14473zm4.4997-1.8223h4.6182v2.1315h-1.8552v2.0196h1.7367v2.0196h-1.7367v2.342h2.0328v2.1315h-4.7958zm10.388-0.013157 1.5789 10.657h-2.8288l-0.13815-1.9144h-0.99336l-0.16446 1.9144h-2.8683l1.4144-10.657zm-1.467 6.8549q-0.10526-0.89468-0.19078-1.7367-0.07894-0.84864-0.23025-2.7301-0.24999 1.8157-0.35524 2.7433-0.10526 0.921-0.17104 1.7236zm6.2891-6.8549v8.5258h1.6973v2.1315h-4.4603v-10.657zm5.1181 0v8.5258h1.6973v2.1315h-4.4603v-10.657zm8.2561 0-2.0196 6.8022v3.855h-2.5591v-3.855l-1.9538-6.8022h2.5459q0.61838 3.1774 0.67101 4.2037 0.22367-1.717 0.76969-4.2037zm9.2034 3.9208h-2.763v-0.95389q-0.0197-0.95389-0.0987-1.1447-0.079-0.23025-0.37498-0.23025-0.25657 0-0.33551 0.1842-0.10526 0.22367-0.10526 1.0263v5.105q0 0.70391 0.10526 0.94731 0.0789 0.22367 0.36182 0.22367 0.29604 0 0.42103-0.25656 0.10526-0.2763 0.10526-0.99336v-1.2697h-0.56576v-1.6117h3.2498v5.7102h-1.7433l-0.26972-0.76969q-0.26972 0.49339-0.69733 0.74996-0.4276 0.24998-1.0262 0.24998-0.67759 0-1.3026-0.34866-0.61838-0.34866-0.93415-0.83548-0.31578-0.54602-0.38814-1.0526-0.0789-0.53944-0.0789-1.6446v-3.1643q0-1.5262 0.15788-2.2104 0.1842-0.70391 0.96047-1.2828 0.26972-0.19736 0.57234-0.31577 0.30919-0.12499 0.65128-0.1842 0.34866-0.065786 0.78285-0.065786 1.217 0 2.0196 0.49997 0.80259 0.49997 1.0526 1.1841 0.2434 0.71048 0.2434 1.9933zm7.3746 2.3157q0 0.80916-0.0132 1.3289t-0.0526 0.94731q-0.0789 0.65786-0.46708 1.2302-0.39471 0.53286-1.0789 0.84864-0.67102 0.29604-1.5789 0.29604-0.85521 0-1.5328-0.28288-0.6776-0.28288-1.092-0.83548-0.42102-0.57234-0.49997-1.2302-0.0789-0.65786-0.0789-2.3025v-1.8157q0-1.6117 0.0789-2.2762 0.0592-0.65128 0.47366-1.217 0.38156-0.53944 1.0723-0.84863 0.67101-0.29604 1.5788-0.29604 0.81574 0 1.5394 0.26972 0.69732 0.28946 1.0855 0.84863 0.42761 0.55918 0.48681 1.217 0.079 0.65786 0.079 2.3025zm-2.7564-3.4866q0-0.76311-0.0855-0.96047-0.079-0.19736-0.33551-0.19736-0.22367 0-0.32235 0.15789-0.13157 0.17762-0.13157 0.99994v4.9734q0 0.93416 0.0921 1.1447 0.0592 0.21051 0.3355 0.21051 0.28288 0 0.36183-0.25656 0.0855-0.23025 0.0855-1.1841zm10.111 3.4866q0 0.80916-0.0132 1.3289-0.0131 0.51971-0.0526 0.94731-0.079 0.65786-0.46708 1.2302-0.39472 0.53286-1.0789 0.84864-0.67101 0.29604-1.5788 0.29604-0.85522 0-1.5328-0.28288t-1.092-0.83548q-0.42103-0.57234-0.49997-1.2302-0.0789-0.65786-0.0789-2.3025v-1.8157q0-1.6117 0.0789-2.2762 0.0592-0.65128 0.47366-1.217 0.38155-0.53944 1.0723-0.84863 0.67102-0.29604 1.5789-0.29604 0.81574 0 1.5394 0.26972 0.69733 0.28946 1.0855 0.84863 0.42761 0.55918 0.48682 1.217 0.0789 0.65786 0.0789 2.3025zm-2.7564-3.4866q0-0.76311-0.0855-0.96047-0.0789-0.19736-0.33551-0.19736-0.22367 0-0.32235 0.15789-0.13157 0.17762-0.13157 0.99994v4.9734q0 0.93416 0.0921 1.1447 0.0592 0.21051 0.33551 0.21051 0.28288 0 0.36182-0.25656 0.0855-0.23025 0.0855-1.1841zm3.7958-2.7498h2.0722q1.9867 0 2.7104 0.19078 0.71049 0.17762 1.0789 0.60523 0.35524 0.40787 0.45392 0.92758 0.0987 0.47366 0.0987 2.0328v3.7366q0 1.4736-0.13815 1.9144-0.14473 0.49997-0.46708 0.74996-0.34867 0.28946-0.82232 0.39471-0.53945 0.10526-1.4999 0.10526h-3.4866zm2.763 1.8354v7.0062q0.59207 0 0.7368-0.24341 0.15131-0.24999 0.15131-1.3091v-4.1379q0-0.74996-0.0526-0.92758-0.0526-0.19736-0.21709-0.29604-0.14473-0.0921-0.61839-0.0921zm9.8218-1.8354v10.657h-2.763v-10.657zm1.1184 0h2.0722q1.9867 0 2.7104 0.19078 0.71048 0.17762 1.0789 0.60523 0.35525 0.40787 0.45392 0.92758 0.0987 0.47366 0.0987 2.0328v3.7366q0 1.4736-0.13815 1.9144-0.14473 0.49997-0.46707 0.74996-0.34867 0.28946-0.82233 0.39471-0.53944 0.10526-1.4999 0.10526h-3.4866zm2.763 1.8354v7.0062q0.59207 0 0.7368-0.24341 0.15131-0.24999 0.15131-1.3091v-4.1379q0-0.74996-0.0526-0.92758-0.0526-0.19736-0.2171-0.29604-0.14472-0.0921-0.61838-0.0921zm4.6905-1.8223h4.6182v2.1315h-1.8552v2.0196h1.7368v2.0196h-1.7368v2.342h2.0328v2.1315h-4.7958zm10.388-0.013157 1.5788 10.657h-2.8288l-0.13815-1.9144h-0.99336l-0.16447 1.9144h-2.8682l1.4144-10.657zm-1.467 6.8549q-0.10526-0.89468-0.19078-1.7367-0.0789-0.84864-0.23025-2.7301-0.24999 1.8157-0.35524 2.7433-0.10526 0.921-0.17105 1.7236z" display="none" fill="#fff" stroke="#000" stroke-width=".5" aria-label="THIS IS A REALLY GOOD IDEA"/><g fill="#fff" stroke="#000" stroke-width=".25"><path d="m56.22 91.463s0.20871-0.16239 0.33999-1.0359c0.10519-0.6999 0.0937-2.0949 0.38498-2.4486 0.65481-0.79513 1.8709-0.09354 2.4088 0.58465 0.53788 0.6782 1.0991 2.5959 0.37418 3.1103-0.34265 0.24317-1.3204 0.05745-2.0714-0.04573-0.83793-0.11513-1.4365-0.16474-1.4365-0.16474z"/><path d="m54.747 91.907 1.8241-1.5201 1.0524 1.2161-1.8241 2.058z"/><path d="m44.533 93.613-5.9925-19.807s0.8601-1.5135 2.818-2.21c1.8292-0.65068 4.2913-0.08185 4.2913-0.08185l5.4723 19.13z"/><path d="m46.351 100.79-0.44434 6.2441s1.4499 0.25724 3.5079 0.23386c2.058-0.0234 4.0692-0.1637 4.0692-0.1637l-0.04677-6.8287z"/><circle cx="49.433" cy="95.118" r="7.3862"/><path d="m45.797 104.48s1.7934 0.4963 3.6877 0.44953c1.8943-0.0468 4.1804-0.43651 4.1804-0.43651l0.14883 2.1905s2.7333 0.70158 2.7333 1.1459-3.2974 1.2161-6.6884 1.1927c-3.391-0.0234-6.8287-0.51449-6.8054-0.95883 0.02339-0.44433 2.5673-1.3524 2.5673-1.3524z"/></g><path d="m114.12 69.809s2.3152 1.3096 3.7418 1.1459 2.666-1.1693 2.666-1.1693" fill="none" stroke="#000" stroke-linecap="round" stroke-width=".5"/></g></svg>
