<svg xmlns="http://www.w3.org/2000/svg" width="640" height="640" viewBox="0 0 169.33 169.33"><path fill="#fff" d="M0 0h169.33v169.33H0z"/><path d="M127.42 107.504c-.227 0-.877 2.019-.877 2.723 0 .228.324.303 1.019.236.985-.094 1.028-.14 1.327-1.435.386-1.673.216-1.937-.266-.414-.275.87-.51 1.16-.993 1.228-.568.08-.618.012-.482-.661.083-.413.232-.96.33-1.214s.073-.463-.058-.463zM3.63 3.854l-.2 6.284c-.11 3.456-.153 21.464-.096 40.018L3.44 83.89l4.63.141c7.102.218 55.842.277 66.278.081l9.26-.174.103-37.86c.056-20.823.014-38.842-.094-40.043l-.196-2.182H43.525zm.338.661h79.11V83.17l-1.323.158c-1.6.19-53.967.386-67.799.253L4.1 83.487 4.04 54.85c-.034-15.75-.064-33.519-.066-39.485zm81.359-.661V84.01l4.564.08c9.852.17 57.465.187 66.22.023l9.27-.174.078-40.043.08-40.043h-40.107zm38.478.672c5.743-.005 5.178.082 5.178.33 0 .243.133.268.47.088a.96.96 0 0 1 .943.013c.275.154 1.162.193 2.11.092.9-.095 3.735-.23 6.299-.298l4.661-.126-.122.642c-.069.359-.425.779-.809.954-.377.172-1.117.653-1.643 1.07-.55.435-1.092.676-1.274.564-.402-.25-3.992-.166-4.65.108-.293.122-.71.075-1.013-.114-.328-.205-.628-.232-.825-.073-.266.213-5.706.692-9.041.797-.582.018-2.342.078-3.91.133-1.588.056-2.92-.009-3.004-.145-.087-.141-.874-.168-1.844-.064-1.298.139-1.834.088-2.3-.217-.52-.341-.678-.346-1.11-.03-.603.44-1.471.47-2.335.076-.5-.227-.818-.197-1.467.139-.457.236-1.277.422-1.823.414-2.482-.038-4.694.334-5.055.849-.284.405-.624.498-1.634.444-.7-.037-1.444.074-1.65.245-.732.607-1.936.55-4.485-.211-1.414-.422-2.805-.893-3.091-1.046-.287-.154-.998-.279-1.581-.279s-1.141-.131-1.24-.291c-.103-.166-.509-.226-.942-.14l-.762.153V6.625c0-1.977.175-2.326.794-1.58.202.243.783.396 1.505.396.646 0 1.418.13 1.715.29.577.308 2.336.102 2.336-.275 0-.124-.446-.232-.992-.238-.546-.007-1.706-.12-2.58-.252-1.071-.163 4.301-.275 16.536-.346 9.472-.055 15.188-.091 18.634-.094zm41.03.115-.083 2.756c-.091 3.044-.047 2.976-2.27 3.498-.422.099-1.215.628-1.763 1.176-.998.998-2.245 1.427-4.738 1.63-.804.066-.939.183-1.094.95-.213 1.049-.769 1.5-2.355 1.91-.655.17-1.353.36-1.552.42-.277.084-.319.445-.18 1.555.165 1.322.123 1.504-.5 2.125-.475.476-.683.974-.694 1.66-.023 1.542-.56 2.747-1.44 3.23-.487.268-.822.684-.868 1.078-.175 1.52-.326 1.797-1.022 1.88-.603.072-.749.278-1.06 1.501-.488 1.917-1.058 2.807-2.125 3.315-.717.342-1.702.42-4.922.388-4.726-.047-5.458-.13-6.077-.685-.685-.616-.617-2.084.106-2.273.545-.143.55-.178.132-.816-.54-.823-.548-1.181-.04-1.743.353-.39.35-.577-.032-1.697-.355-1.041-.372-1.367-.094-1.884.267-.499.268-.785.009-1.413-.423-1.021-.198-1.668.922-2.652.804-.706.88-.88.649-1.489-.42-1.106-.312-1.637.532-2.598.436-.497.794-1.2.794-1.561 0-1.115.946-1.998 2.725-2.544 1.608-.494 1.64-.523 1.828-1.618.284-1.663.986-2.652 2.439-3.436.717-.386 1.42-.934 1.563-1.216.143-.283.342-.692.444-.91.16-.342 1.635-.407 10.476-.467zm-26.346 3.517c.327.001.593.02.733.054.556.136.564.183.199 1.059-.21.504-.383 1.208-.383 1.565 0 .518-.173.685-.86.831-1.74.369-2.817 1.205-3.546 2.756-.38.808-.913 1.786-1.185 2.172-.524.743-.643 1.961-.252 2.578.164.26.016.553-.5.986-.999.841-1.485 2.062-1.13 2.84.182.4.185.757.01 1.07-.144.258-.183.905-.087 1.438.23 1.262.23 2.352.001 3.416-.18.839-.219.86-1.586.86-.771 0-2.157.237-3.079.526-1.89.592-2.923.662-3.691.251-.36-.192-.474-.441-.362-.793.143-.45.031-.513-.911-.513-.59 0-2.497.305-4.237.679-3.736.802-4.873.783-4.996-.084-.139-.978-1.175-1.017-5.228-.198-2.261.457-3.925.67-4.233.544-.334-.137-.394-.252-.176-.333.183-.069.265-.233.183-.366-.258-.418-2.056-.266-5.159.434-1.646.372-3.727.744-4.623.828-1.674.156-1.788.11-2.584-1.048-.301-.438-.468-.398-2.524.596-1.21.586-2.252 1.065-2.314 1.065-.215 0-.111-22.195.105-22.328.342-.212 3.9.532 6.794 1.421 1.904.585 2.98.778 3.836.687 2.791-.294 4.235-.602 4.683-.997.461-.409 2.256-.713 5.055-.856.743-.038 1.508-.199 1.698-.357.244-.202.72-.208 1.597-.02.975.207 1.416.182 2.012-.115.58-.289.883-.31 1.26-.087.273.162 1.33.317 2.349.346 4.23.118 7.265.113 9.26-.017l4.63-.303a405.9 405.9 0 0 1 4.366-.26 85.988 85.988 0 0 0 3.44-.256c.49-.05 1.014-.074 1.435-.072zm26.238 2.62c.23 0 .24.151.24.454 0 .68-.982 1.27-2.488 1.495-.71.107-1.578.461-2 .817-.411.346-.948.629-1.193.629-.244 0-.802.357-1.239.793-.436.437-.953.794-1.148.794s-.743.506-1.217 1.125c-.475.618-1.091 1.31-1.37 1.54-.46.379-.518.933-.653 6.284-.118 4.673-.222 5.868-.506 5.868-.196 0-.327-.149-.29-.33.067-.338-.169-.343-1.985-.042-.804.134-.992.084-.992-.26 0-.543-.936-.556-1.949-.028-.848.443-2.284.531-2.284.141 0-.267.205-.468 1.389-1.355.463-.347.727-.793.727-1.225 0-.424.397-1.11 1.059-1.827 1.047-1.136 1.189-1.556 1.078-3.19-.041-.607.09-.92.47-1.123.692-.371 1.17-1.876.957-3.015l-.17-.908 1.263-.19c1.402-.21 3.016-1.526 3.016-2.458 0-.444.244-.54 1.718-.678 1.946-.182 2.557-.438 3.754-1.57.463-.438 1.475-1.016 2.25-1.283.881-.304 1.333-.457 1.563-.457zm-.024 1.746V16l-.993.276c-.545.152-1.484.277-2.084.277-.647.001-1.226.164-1.421.399-.181.218-.606.397-.944.397-.338 0-.79.252-1.006.56-.216.307-.76.783-1.212 1.058-1.193.725-1.865.657-1.865-.188 0-.464.171-.731.529-.825.291-.076.53-.339.53-.584 0-.563.507-1.08 1.06-1.08.235 0 .696-.364 1.025-.81.408-.552.782-.783 1.175-.727.37.053.797-.178 1.194-.645.482-.567.85-.728 1.663-.728.574 0 1.338-.192 1.696-.427zm.264 4.22v13.581l-.679.258c-.872.332-1.627.33-1.834-.006-.09-.146-.038-.265.117-.265.154 0 .28-.119.28-.264 0-.39-.96-.323-2.554.179-.775.244-1.464.389-1.532.321-.227-.227-.205-12.192.023-12.388.427-.367 3.132-1.098 4.655-1.257zm-7.17 3.027c.279.009.291.349.291 1.75 0 1.448-.092 1.89-.418 2.016-.566.217-3.154.205-3.374-.016-.097-.097-.177-.93-.177-1.852v-1.675l1.39-.004c.763-.002 1.656-.076 1.984-.163.126-.034.225-.058.303-.056zm-3.636 4.191h4.192v1.059c0 .92-.078 1.058-.596 1.062a8.294 8.294 0 0 0-1.124.095c-.736.127-2.335-.092-2.607-.356-.123-.121-.144-.59-.045-1.04zm.253 2.46a.305.305 0 0 1 .124.025c.23.089 1.163.161 2.074.161h1.655l.12 6.35-1.804-.021c-.991-.012-1.951-.08-2.133-.154-.239-.096-.33-1.018-.33-3.315 0-2.443.039-3.031.294-3.046zm-43.103 2.85c.55-.006.74.149.74.458 0 .262.143.62.317.794.468.467 2.957.383 5.371-.181 1.165-.272 2.626-.571 3.247-.664 1.018-.152 1.153-.107 1.367.456.43 1.133 1.545 1.353 3.76.74 1.07-.295 2.702-.62 3.628-.72l1.684-.183-.21.633a5.157 5.157 0 0 0-.227 1.188c-.01.305-.163.727-.338.938-.234.282-.253.835-.071 2.091.52 3.595.087 14.005-.611 14.703-.099.099-2.76.757-5.915 1.463-6.351 1.42-7.557 1.933-8.5 3.61-.484.862-.59 1.457-.586 3.267.011 3.667.638 5.75 1.98 6.579.51.315 2.696.905 5.326 1.437 10.126 2.05 23.456 4.951 25.657 5.585 3.909 1.127 5.851 2.247 9.038 5.213 1.562 1.455 4 3.493 5.419 4.53l2.578 1.888-3.107.162c-1.71.09-5.538.179-8.507.198-5.346.036-5.394.031-4.93-.482.708-.783.342-1.807-.82-2.292-.518-.216-1.138-.341-1.378-.278-.298.08-.248.126.158.147.704.036.739.308.179 1.39-.41.793-.44.803-2.05.664-1.581-.137-1.596-.132-.444.131 2.538.58 2.005.674-4.773.844-3.851.097-11.287.15-16.526.12-12.14-.073-36.777-.355-36.777-.421l-.083-25.704-.084-25.653 2.157-1.085 2.156-1.084.626.676c.907.978 1.549.968 7.365-.119l4.002-.748.441.564c.57.728 1.601.69 5.248-.197 1.789-.435 2.872-.65 3.494-.658zm37.93.558h.017c.138.008.099.128.099.333 0 .54.79.718 1.849.415.727-.209.955-.181 1.131.134.121.217.453.394.737.394.48 0 .516.201.516 2.91v2.91h-4.233c-4.812 0-4.436.231-3.995-2.447.144-.874.107-1.401-.122-1.728-.594-.848.111-1.61 2.152-2.323 1.182-.414 1.659-.595 1.849-.598zm12.333.54c.282 0 .413.108.585.344.274.375.594.442 1.576.332l1.232-.14v5.756l-1.257.002c-.691.001-2.042.077-3.003.167l-1.745.165-.173-.861c-.302-1.512-.199-4.677.162-4.977.184-.152.904-.42 1.6-.595.494-.125.804-.192 1.023-.193zm-7.72 2.927 2.261.029 2.26.03-.077.793-.078.794-1.996.076c-1.098.042-2.08-.007-2.183-.11-.103-.103-.187-.508-.187-.9zm-22.622.535.926.269c1.04.302 10.545.41 11.774.134l.794-.178v6.264c0 6.589.161 8.097 1.376 12.878.37 1.455.73 2.905.8 3.222.113.51-.075.639-1.65 1.125-.976.302-2.804.666-4.061.81-4.368.5-10.572-.094-11.986-1.149-.405-.303-.39-.497.207-2.557 1.45-5.004 1.804-7.857 1.812-14.575zm24.534 1.636h.336c2.155.004 2.25.029 2.25.599 0 .567-.1.595-2.073.595-2.168 0-2.425-.082-2.425-.775 0-.333.319-.413 1.913-.419zm8.936 1.646v3.517l-5.82.34v-3.515zm-10.716.022h4.233l.165 1.908h-4.562l.082-.954zm-8.864.32h8.202v3.44h-8.202zm8.997 2.117h4.233l-.002 1.257c0 .69-.078 2.239-.172 3.44l-.17 2.182h-3.89v-3.44zm10.583 1.776v14.067l-6.128.164.187-6.879c.103-3.783.224-6.921.27-6.973s1.339-.158 2.876-.236zm-19.634.34h8.22l.095 2.448c.052 1.346.126 4.442.162 6.88l.066 4.43h-6.328l-.541-2.314c-.713-3.048-1.282-6.564-1.499-9.26zm13.308 5.156-.078.796c-.078.794-.084.796-1.942.872-1.025.043-1.948-.007-2.05-.11-.104-.103-.187-.495-.186-.87 0-.678.018-.684 2.128-.686zm-4.33 2.071 2.019.025 2.018.025-.029 3.175c-.016 1.746-.105 3.532-.198 3.968-.16.756-.24.798-1.665.873-.823.043-1.558-.021-1.634-.143-.075-.122-.22-1.954-.324-4.072zm-24.32 1.445c.048 0 .077.003.085.012.091.1-.197 1.636-.641 3.416-.772 3.088-.787 3.258-.347 3.745.524.579 2.366.968 6.483 1.368 3.255.317 6.926-.008 10.021-.888 1.865-.53 2.053-.646 2.13-1.31.08-.7.14-.727 1.614-.727 2.655 0 4.784.307 4.784.69 0 .53.892.898 2.165.894 1.651-.005 2.333-.245 2.333-.82 0-.444.216-.5 1.947-.5 1.071 0 2.5-.075 3.175-.167l1.228-.169v3.972l-.992.163c-.546.09-2.838.288-5.094.441-2.255.153-4.632.4-5.281.547-2.165.493-2.146.606.569 3.354 4.028 4.077 9.024 8 10.19 8 .572 0 .608.101.608 1.719 0 .946-.091 1.72-.202 1.72-.112 0-1.57-1.076-3.242-2.392-3.877-3.054-4.77-3.637-6.885-4.504-2.66-1.09-4.316-1.379-20.363-3.553-15.931-2.158-16.827-2.353-17.59-3.829-.612-1.184-1.024-3.76-.819-5.125.228-1.524 1.468-3.05 2.894-3.566 1.53-.554 10.264-2.477 11.23-2.491zm34.977 9.954v5.901c0 5.45-.036 5.9-.463 5.884-.825-.03-1.722-.508-2.837-1.513-.601-.541-2.06-1.735-3.243-2.654-2.416-1.876-6.254-5.765-6.036-6.117.247-.4 2.554-.778 5.832-.953 1.746-.093 3.979-.255 4.96-.359zm-48.404 2.367c.068-.006.362.162.712.41.598.425 3.565.901 16.603 2.666 8.731 1.182 16.828 2.391 17.992 2.687 2.963.753 4.951 1.789 7.423 3.867 1.172.986 2.928 2.311 3.902 2.946l1.772 1.155v3.011c0 1.657-.03 3.007-.066 3.002-.184-.027-4.296-3.456-6.15-5.13-4.397-3.965-5.863-4.895-9.559-6.06-1.182-.372-8.6-2.053-16.486-3.736-7.885-1.682-14.673-3.232-15.083-3.444-.632-.327-1.074-.888-1.074-1.362 0-.008.005-.012.015-.012zm31.397 18.51c.248-.004.486.173.706.533.239.39.177.575-.332.992-.611.502-1.383.665-1.69.358-.085-.085.089-.567.387-1.071.315-.534.629-.805.929-.811zM103.544 5.5a.23.23 0 0 0-.165.059c-.106.105.014.342.265.526.58.423 5.015.5 6.29.108 1.4-.431 1.66-.842.396-.63-1.91.321-6.07.375-6.423.083a.595.595 0 0 0-.363-.146zm-65.64 2.716c-5.611.005-10.857.12-12.901.356-9.432 1.088-14.945 3.573-16.835 7.586-1.104 2.343-.691 4.096 1.394 5.931 1.916 1.687 5.66 2.796 11.24 3.33l1.752.167.16 1.174c.294 2.135 1.765 4.191 3.744 5.231 1.457.766 1.505.452.126-.818-1.07-.983-1.438-1.54-1.696-2.558-.182-.715-.26-1.642-.174-2.06l.156-.759 13.626.014c20.97.022 26.341-.57 30.378-3.348 2.547-1.752 3.112-4.378 1.527-7.082-.923-1.575-1.994-2.415-4.785-3.753-3.045-1.46-6.256-2.371-10.289-2.92-2.392-.326-10.209-.499-17.423-.491zm.92.414c5.2-.003 10.511.08 13.298.251 7.012.43 13.438 2.383 16.637 5.058 1.168.977 2.275 3.122 2.279 4.415.008 2.584-2.99 4.866-7.762 5.908-3.575.781-9.81 1.061-25.176 1.131l-13.758.062-.079 1.348c-.047.798.09 1.752.334 2.337.227.545.361 1.042.298 1.106-.297.297-1.548-2.167-1.816-3.576l-.3-1.576-2.425-.159c-5.23-.343-8.43-1.392-10.684-3.5-2.171-2.03-2.28-3.723-.405-6.267 2.4-3.258 8.95-5.686 16.93-6.275 2.34-.173 7.43-.26 12.63-.263zm121.25.05c-.285 0-.597.004-.924.012-1.31.032-2.381.123-2.382.203 0 .08.141.289.316.463.436.436 2.415.4 3.527-.065.505-.211.918-.446.918-.522 0-.057-.602-.091-1.455-.091zm-13.222 1.907c-.095 0-.216.047-.378.133-.282.151-.878.2-1.327.111-.477-.095-.815-.053-.815.103 0 .328 1.47.962 1.782.77.125-.078.4-.032.611.102.52.329 1.585.313 2.594-.04 1.207-.42.742-.808-.734-.612-1.032.136-1.295.087-1.432-.27-.078-.203-.162-.298-.3-.297zm-125.84 2.396-1.621 1.852.114-.86c.063-.472.016-.86-.104-.86s-.22.269-.222.596c-.002.327-.07 1.072-.154 1.654l-.151 1.058.749-1.123c.843-1.263 1.145-1.402 1.15-.53.005.633.414 1.456.621 1.248.32-.32 1.192-2.902.98-2.902-.132 0-.379.417-.547.928-.361 1.095-.788.98-.804-.217zm5.786.133c-.887 0-.954.062-1.23 1.156-.16.636-.367 1.354-.46 1.595-.147.383-.02.417.988.262 1.48-.227 1.637-.368.406-.368-.533 0-.97-.095-.97-.211 0-.443.664-.847 1.391-.847.416 0 .693-.103.615-.23-.078-.125-.442-.17-.81-.1-.49.093-.667.014-.667-.3 0-.236.179-.443.397-.461.747-.063.882-.1 1.08-.298.11-.11-.224-.198-.74-.198zm2.586 0c-.663 0-1.206.119-1.206.264s.193.265.43.265c.436 0 .424.35-.069 2.092-.117.414-.083.576.096.465.152-.094.36-.618.463-1.166.202-1.084.603-1.727.943-1.516.12.073.292.012.383-.136.104-.167-.29-.268-1.04-.268zm2 0c-.128 0-.364.52-.524 1.156-.16.636-.37 1.38-.467 1.654-.119.334-.089.41.092.232.214-.21 1.132-2.61 1.132-2.958 0-.047-.104-.084-.233-.084zm12.125 0c-.124 0-.304.416-.4.926-.096.509-.253.926-.349.926-.096 0-.401-.42-.677-.934-.277-.513-.62-.894-.762-.846-.217.072-.923 2.215-.961 2.92-.034.613.482-.207.632-1.005.096-.511.265-.93.377-.93.11 0 .457.503.768 1.116.607 1.195.596 1.203 1.226-.917.205-.69.271-1.256.147-1.256zm6.021 0c-.851 0-.902.056-1.199 1.343-.17.738-.31 1.46-.31 1.605 0 .148.26.185.596.085 2.21-.66 2.926-3.033.913-3.033zm-.08.572c.04 0 .083.003.127.008.483.056.693.237.693.595 0 .301-.357.723-.86 1.017-.83.484-.86.485-.856.015.009-1.143.28-1.645.895-1.635zm2.843-.572c-.235 0-1.879 2.745-1.732 2.891.063.064.256-.025.428-.197.468-.468 1.266-.382 1.266.136 0 .263.09.346.217.199.25-.288.087-3.03-.179-3.03zm-.303 1.058c.146 0 .265.238.265.53 0 .309-.177.528-.426.528-.279 0-.37-.144-.264-.418.088-.23.16-.469.16-.53s.12-.11.265-.11zm-12.893-1.056c-.538.006-1.165.356-1.522 1.047-.506.977-.503 1.193.023 1.718.847.847 2.486-.305 2.486-1.747 0-.686-.449-1.024-.987-1.018zm.082.509c.365-.007.64.214.64.664 0 .368-.253.824-.588 1.058-1.285.9-2.166.164-1.23-1.026.36-.457.814-.69 1.178-.696zm-21.3-.503a2.364 2.364 0 0 0-1.284.403c-.814.57-.74.82.351 1.18 1.174.387 1.054.895-.238 1.004-.592.05-.91.191-.807.358.225.365 1.71.055 2.219-.463.358-.365.337-.46-.199-.9-.33-.27-.746-.55-.926-.624-.514-.209.289-.664.893-.506.275.071.5-.003.5-.165 0-.19-.213-.282-.51-.287zm41.025.001c-.263.016-1.87 2.9-1.616 2.9.124 0 .3-.118.39-.264.254-.41 1.189-.312 1.364.144.298.776.399.16.215-1.312-.102-.813-.26-1.473-.353-1.468zm-.3 1.049c.146 0 .265.238.265.529 0 .31-.177.53-.426.53-.279 0-.37-.145-.264-.42.088-.23.16-.468.16-.529s.12-.11.265-.11zm2.308-1.032c-.02.003-.046.022-.079.052-.182.17-.848 2.281-.895 2.839-.006.076.495.08 1.113.006 1.08-.127 1.09-.136.24-.224-.787-.081-.866-.161-.727-.734.369-1.515.455-1.955.348-1.939zm2.646 0c-.02.003-.046.022-.079.052-.183.17-.848 2.281-.895 2.839-.006.076.495.08 1.113.006 1.08-.127 1.09-.136.24-.224-.787-.081-.866-.161-.727-.734.368-1.515.455-1.955.348-1.939zm-29.822.003c-.114 0-.245.005-.388.016-1.02.085-1.05.117-1.491 1.607l-.45 1.52 1.097-.168c1.43-.219 1.561-.359.338-.359-.898 0-.956-.044-.696-.529.185-.346.554-.53 1.067-.53.432 0 .785-.116.785-.257 0-.146-.346-.19-.794-.1-.621.125-.794.066-.794-.27 0-.237.209-.449.463-.47l.775-.07a.998.998 0 0 0 .527-.244c.089-.089-.098-.144-.44-.146zm11.914 0c-.112 0-.24.005-.382.016-.992.083-1.04.134-1.375 1.41-.19.727-.352 1.417-.359 1.533-.01.193 1.831-.024 2.083-.246.06-.053-.275-.097-.746-.097-.674 0-.84-.099-.77-.463.06-.313.43-.515 1.144-.624 1.128-.172 1.003-.323-.2-.244-.563.037-.691-.046-.567-.369.088-.23.326-.431.528-.45.733-.065.857-.103 1.072-.317.09-.09-.093-.146-.428-.149zm-21.302.005c-.076 0-.158.004-.247.011-.992.083-1.04.134-1.375 1.41-.191.727-.353 1.417-.359 1.533-.01.193 1.831-.024 2.083-.246.06-.053-.275-.097-.747-.097-.673 0-.838-.099-.769-.463.06-.313.43-.515 1.144-.624 1.128-.172 1.003-.323-.201-.244-1.225.08-.843-.7.435-.887.835-.122.765-.401.036-.394zm29.03.018c-.05.002-.008.19.096.609a8.3 8.3 0 0 1 .216 1.521c.018.735.415 1.06.415.34 0-.213.373-.813.83-1.332.455-.52.766-1.006.69-1.082s-.404.197-.732.605c-.327.408-.643.61-.7.448-.06-.161-.29-.518-.512-.794-.167-.205-.262-.316-.302-.315zm-18.514 2.064c-.116 0-.359.238-.54.53-.184.292-.217.528-.074.528.141 0 .385-.238.54-.529.157-.29.19-.529.074-.529zm32.54 3.175c-.213 0-.863 1.677-.863 2.229 0 .413.475-.148.596-.704.071-.33.217-.807.324-1.062.107-.255.082-.463-.056-.463zm-32.635.132-1.622 1.853.114-.86c.063-.473.033-.86-.068-.86-.173 0-.524 1.963-.515 2.88.002.235.33-.078.728-.696.812-1.26 1.118-1.405 1.124-.53.004.633.413 1.457.62 1.248.296-.299 1.156-2.902.958-2.902-.12 0-.356.416-.524.926-.4 1.212-.79 1.18-.804-.066zm-11.87.133c-.573 0-1.115.119-1.205.264-.09.146.081.265.381.265.65 0 .641-.076.148 1.323-.218.618-.397 1.169-.397 1.223s.119.1.265.1c.145 0 .265-.15.266-.331 0-.182.125-.777.277-1.323.198-.714.42-.992.792-.992.284 0 .517-.12.517-.265 0-.145-.47-.264-1.043-.264zm1.887 0c-.239 0-.93 2.648-.74 2.837.062.062.191-.134.287-.436.11-.346.4-.55.781-.55.505 0 .586.112.48.662-.21 1.104.16.74.471-.463.16-.618.35-1.333.425-1.587.074-.255.015-.463-.13-.463-.145 0-.302.268-.349.595-.056.394-.297.625-.714.684-.558.08-.61.012-.458-.595.095-.376.07-.684-.053-.684zm12.361 0c-.126 0-.302.327-.39.727-.087.4-.268 1.073-.401 1.495-.134.422-.243.832-.243.912s.106.033.235-.105c.363-.389 1.06-3.03.8-3.03zm1.157 0c-.203 0-.868 2.2-.868 2.87 0 .103.506.126 1.125.054 1.09-.13 1.097-.136.233-.225-.842-.087-.884-.139-.75-.933.077-.462.223-1.049.324-1.303.1-.255.072-.463-.064-.463zm2.646 0c-.203 0-.868 2.2-.868 2.87 0 .103.506.126 1.125.054 1.09-.13 1.097-.136.233-.225-.842-.087-.884-.139-.75-.933.077-.462.223-1.049.324-1.303.1-.255.072-.463-.064-.463zm7.763 0c-.836 0-.914.076-1.186 1.156-.16.636-.366 1.35-.457 1.588-.183.477.328.535 1.479.166.626-.2.616-.213-.199-.238-1.38-.042-.87-1.085.532-1.085.416 0 .692-.103.614-.23-.077-.125-.441-.17-.809-.1-.491.093-.667.014-.667-.3 0-.3.239-.428.793-.428.437 0 .794-.12.794-.265 0-.145-.402-.264-.894-.264zm3.509 0c-.187 0-.225.22-.105.595.105.327.252.99.327 1.474l.135.878.527-.878c.289-.483.772-1.147 1.073-1.474.301-.327.416-.595.256-.595-.16 0-.546.322-.856.717-.464.59-.608.649-.809.33-.134-.212-.246-.535-.248-.717-.003-.181-.138-.33-.3-.33zm3.934 0c-1.2 0-2.262 2.064-1.47 2.857.5.5.986.378 1.82-.456 1.115-1.115.928-2.401-.35-2.401zm-.184.567c.057 0 .116.005.18.012.908.108 1 .497.322 1.36-1.033 1.314-2.36.614-1.455-.767.281-.43.553-.607.953-.605zm4.222-.567c-.113 0-.338.527-.5 1.172-.202.8-.471 1.228-.846 1.347-.795.252-.917-.014-.582-1.269.163-.612.25-1.161.192-1.219-.149-.149-.668 1.263-.838 2.274-.141.846-.137.85.878.759.99-.09 1.033-.136 1.461-1.578.243-.818.349-1.486.236-1.486zm1.72 0c-.803 0-.889.085-1.158 1.156-.16.636-.366 1.35-.457 1.588-.091.237-.048.43.097.43.144 0 .33-.26.413-.58.149-.568.164-.57.694-.09.299.27.628.406.732.302.104-.104.024-.291-.177-.416-.289-.178-.214-.356.355-.846.95-.816.713-1.544-.5-1.544zm.132.264c.501 0 .579.63.118.966-.562.411-1.18.47-1.18.111 0-.31.756-1.077 1.062-1.077zm-32.178-.256c-.386.002-.854.09-1.18.266-.755.404-.623 1.037.282 1.353 1.117.389 1.035 1.019-.132 1.019-.51 0-.926.119-.926.264 0 .407 1.135.314 1.793-.147.815-.571.734-1.152-.206-1.48-1.07-.373-1.003-.754.132-.754.51 0 .926-.12.926-.265 0-.173-.304-.258-.69-.256zm-10.29 0-1.031.062c-.977.058-1.05.125-1.385 1.253-.195.654-.356 1.346-.358 1.537-.003.19.115.272.26.182.146-.09.265-.395.265-.677 0-.41.185-.513.926-.513.51 0 .926-.12.926-.265s-.368-.264-.816-.264c-1.07 0-.897-.555.306-.988zm45.612 0a2.37 2.37 0 0 0-1.047.266c-.759.405-.622 1.038.294 1.357 1.053.367.864.86-.369.964-.537.046-.908.195-.824.331.4.649 2.504-.128 2.504-.925 0-.192-.358-.498-.794-.678-.437-.181-.794-.434-.794-.562s.357-.232.794-.232c.436 0 .794-.12.794-.265 0-.172-.239-.257-.558-.255zm-19.191.02c-.078.002-.16.007-.246.017-.649.076-.788.256-1.086 1.41-.187.728-.343 1.412-.346 1.521-.008.3.44.24 1.49-.198.78-.325.921-.5.796-.978-.084-.32-.02-.742.143-.938.383-.46.003-.845-.751-.833zm.08.413a.596.596 0 0 1 .33.073c.19.117.242.27.118.338-.613.337-1.15.424-1.284.208-.166-.27.389-.606.835-.619zm-.434 1.18c.146.001.302.029.457.089.431.167.428.205-.05.557-.671.494-1.207.482-1.207-.027 0-.375.36-.62.8-.619zM27.48 18.708h-.009c-.066.007-.14.103-.184.255-.34 1.158-.698 2.576-.698 2.768 0 .12.103.107.229-.03.3-.331.893-2.79.715-2.968a.076.076 0 0 0-.053-.025zm-11.928.003c-1.325-.023-2.492 1.935-1.61 2.817.9.9 2.684-.413 2.543-1.87-.068-.71-.205-.87-.805-.938a1.299 1.299 0 0 0-.128-.009zm-.014.535c.84-.004 1.01.734.203 1.541-.615.616-1.54.696-1.748.153-.22-.571.362-1.45 1.08-1.63.171-.043.327-.063.465-.064zm130.73 1.42c-.815.007-2.076.192-2.325.42-.138.127-.637.23-1.108.23-.845 0-1.301.294-.97.625.228.229.454.217 2.314-.125 1.937-.356 2.794-.666 2.794-1.01 0-.097-.26-.139-.628-.14h-.077zm-79.993.65a.265.265 0 0 0-.265.265c0 .146.12.265.265.265s.264-.12.264-.265a.265.265 0 0 0-.264-.264zm68.803 4.251c-.08.001-.154.083-.258.242-.18.273-.129.532.168.86.433.478 1.982.625 3.187.302 1.092-.292.613-.627-.897-.627-1.11 0-1.583-.119-1.847-.463-.163-.213-.262-.315-.353-.314zM49.614 28.26c-1.378.001-2.902.113-4.635.324-2.035.248-3.797.51-3.915.584-.119.073-.083.294.08.49.372.448-.666 1.033-2.32 1.308-1.256.208-1.312.288-.687.979.403.446.404.52.01.956-.775.857-1.242 2.396-1.238 4.083.006 2.131.205 2.445 1.425 2.247.701-.113.953-.06.953.205 0 .197-.417 1.688-.927 3.312-.509 1.625-.926 3.438-.926 4.03 0 1.405 1.024 3.524 2.296 4.751 1.015.98 3.554 2.372 4.914 2.697.4.095.728.273.728.394 0 .29-3.247 1.762-4.76 2.159-2.046.536-3.947.04-6.088-1.588-1.01-.768-2.381-.985-2.381-.377 0 .341.336.49.886.392.123-.022.837.357 1.587.841.75.485 1.696 1.025 2.103 1.2 1.725.74 5.404.135 7.809-1.283.5-.296.945-.503.987-.46s-.086 1.386-.285 2.987a119.37 119.37 0 0 0-.544 5.758c-.16 2.478-.125 2.912.268 3.346.39.432.413.707.173 2.047-.153.852-.4 3.513-.549 5.914-.206 3.318-.366 4.436-.665 4.66-.57.426-.484.632.263.632.817 0 .81.033 1.193-5.82.167-2.547.388-5.107.492-5.69.174-.974.25-1.053.974-.996 2.107.166 6.182.16 7.028-.011l.951-.192.18 3.51c.097 1.93.402 4.642.675 6.024.353 1.788.416 2.612.218 2.855-.466.57.165.944.661.392.386-.43.38-.665-.067-2.803-.579-2.768-1.167-8.935-.925-9.697.093-.295.337-.536.54-.536.406 0 .898-.773.757-1.191-.13-.391-1.162-9.801-1.162-10.606v-.69l.974.782c.91.73.978.885 1.021 2.34.025.858.171 2.452.324 3.544.255 1.809.366 2.06 1.262 2.834.54.468 1.36.975 1.822 1.127.77.254.833.36.753 1.267-.204 2.337-.606 5.845-.755 6.59-.133.666-.066.831.384.949.52.136.538.273.392 2.882-.11 1.957-.267 2.829-.547 3.053-.215.172-.313.44-.217.595.228.37.293.358.785-.134.319-.319.416-.993.416-2.889 0-1.36.06-2.631.135-2.825.102-.264.778-.342 2.712-.308l2.577.045.224 1.675c.122.921.241 2.36.264 3.196.026.959.155 1.521.35 1.521.494.001.528-.473.176-2.479-.418-2.377-.442-4.325-.056-4.454.21-.07.133-1.023-.264-3.263-.78-4.39-.77-4.51.4-4.896 1.128-.372 2.876-1.878 3.435-2.958l.392-.76.801.675c.44.37 1.123.673 1.516.673.67 0 .707-.063.615-1.032-.068-.715.235-2.01.985-4.216.62-1.819 1.082-3.674 1.08-4.326-.007-1.602-.911-3.07-2.377-3.858-1.05-.564-1.432-.624-3.234-.508-2.41.154-3.826.761-4.571 1.958-.52.833-.568.85-2.532.86-3.231.016-5.524.995-6.526 2.786-.271.484-.329.473-1.416-.246l-1.132-.75 1.04-.522a9.42 9.42 0 0 0 1.876-1.315c1.139-1.081 2.762-3.481 2.859-4.227.043-.336.448-1.52.9-2.631.726-1.783.95-2.727 1.548-6.537.076-.486.015-1.141-.136-1.455-.152-.314-.342-1.135-.424-1.825-.269-2.283-2.207-5.364-3.047-4.845-.128.079-1.048-.335-2.045-.92-2.72-1.596-5.295-2.312-8.816-2.31zm-.144.496c.611-.003 1.187.053 1.93.161 2.725.398 5.45 1.442 7.177 2.75.889.672 1.6 1.022 1.91.941.959-.25 2.283 2.39 2.533 5.047.086.91.255 1.653.375 1.653.291 0-.008 1.525-.485 2.472-.208.413-.316.913-.24 1.112.182.473-1.295 4.833-1.841 5.436-.249.274-.356.679-.26.98.116.366-.029.64-.502.949-.365.24-.738.701-.828 1.027-.091.325-.54.905-.997 1.288l-.831.696.095-1.193c.062-.78 0-1.134-.18-1.022-.152.093-.336.073-.41-.047-.247-.4.388-2.563.918-3.127.288-.307.592-.98.676-1.497.129-.792.041-1.036-.56-1.558-.632-.55-.693-.746-.543-1.745l.168-1.125h-1.092c-.973 0-1.074-.058-.924-.53.259-.817-.497-.93-1.973-.294-.716.308-1.773.56-2.351.56-.94 0-1.036-.06-.905-.56.14-.537.09-.55-1.281-.339-1.706.264-2.752.266-3.773.007-.732-.186-.742-.21-.29-.709.461-.51.43-.516-2.2-.516-2.566 0-2.672-.023-2.754-.596-.087-.616-.254-.647-1.737-.321l-.86.19.001-1.423c.002-1.933.41-3.253 1.326-4.297.52-.594.682-.963.5-1.145-.182-.182.184-.431 1.135-.771.899-.322 1.497-.716 1.664-1.097.172-.39.49-.594.926-.592.366.002 1.949-.2 3.518-.45 1.334-.21 2.179-.311 2.965-.315zm-6.23 11.091c.663.001 1.074.07 1.074.202 0 .117-.14.352-.312.523-.239.239-.07.412.721.743.79.33 1.454.39 2.823.255 1.528-.15 1.768-.118 1.638.22-.315.82 1.958.823 4.853.006.44-.124.595-.057.595.255 0 .447.926.794 1.736.65.421-.074.475.079.413 1.172-.063 1.098-.006 1.256.449 1.256.935 0 1.135 1.374.326 2.235-.976 1.04-1.589 4.645-.79 4.645.46 0 .25 1.025-.348 1.698-.449.505-1.017.736-2.315.939-2.225.348-4.437.31-6.747-.117-1.657-.306-4.1-1.108-4.1-1.346 0-.05.137-.394.306-.765.239-.523.502-.674 1.175-.674.94 0 1.405-.38.766-.626-.218-.083-.396-.44-.396-.792 0-.992-.83-1.825-1.87-1.878-.5-.025-1.106-.136-1.348-.247-.731-.333-1.91-.065-2.2.5-.647 1.266-.727 1.3-1.145.502-.916-1.747-.898-2.434.149-5.83l.99-3.212 1.323-.16a19.256 19.256 0 0 1 2.234-.154zm-1.06 9.797a.892.892 0 0 1 .802.495c.4.748.357.811-.551.811-.737 0-.812.07-.699.662.16.837-.232.843-1.255.02l-.793-.64.672-.258c.37-.142.83-.449 1.025-.682.224-.271.517-.405.798-.408zm30.502 1.06c.874-.007 1.407.13 2.204.516 2.477 1.2 2.794 3.042 1.31 7.632-.509 1.575-.926 3.292-.926 3.815 0 1.105-.206 1.31-.931.928-.928-.488-1.185-1.072-1.192-2.707-.01-2.271-.427-3.832-1.33-4.961-.429-.537-.78-1.097-.78-1.245 0-1.12-1.205-2.144-2.526-2.144-2.06 0 1.15-1.656 3.505-1.807a12.1 12.1 0 0 1 .667-.027zm-30.22.51c.146 0 .263.09.26.2-.001.108-.118.376-.26.595-.207.32-.257.283-.26-.199-.002-.327.115-.595.26-.595zm.8.56c.07 0 .137.025.194.082.091.09-.036.366-.282.612-.412.413-.447.414-.447.01 0-.377.286-.703.535-.704zm25.063 1.284h.056c.502.005 1.243.197 1.607.491.986.799.498 1.06-.863.464-.688-.303-1.254-.639-1.257-.748-.004-.138.185-.203.457-.207zm-3.926.57c.252 0 .513.007.783.02 3.778.19 6.207 1.655 7.074 4.264.54 1.626.383 3.894-.371 5.36-.294.572-.894 1.381-1.334 1.8l-.8.759-.19-1.011c-.127-.675-.09-1.045.112-1.112.419-.14 1.18-1.816 1.014-2.23-.086-.216-.144-.171-.158.122-.024.537-.134.562-.832.189-.281-.151-.511-.501-.511-.779 0-.634-.52-.979-.798-.53-.486.788-4.442-.409-5.868-1.775l-.714-.683.581-.484c.88-.735.264-.573-1.932.506-1.42.698-1.964 1.102-1.912 1.419.04.243-.049.518-.198.61-.504.312-.305-2.464.255-3.562 1.012-1.984 2.817-2.89 5.799-2.884zm-17.202 1.29c.13 0 .304.18.388.398.093.242 0 .397-.236.397a.394.394 0 0 1-.389-.397c0-.218.107-.397.237-.397zm1.35.266c.292 0 .53.119.53.264s-.238.265-.53.265c-.29 0-.528-.12-.528-.265s.238-.264.529-.264zm6.003.086h.017c.244.009.338.323.447 1.291.777 6.91 1.135 10.41 1.07 10.48-.041.046-.772.25-1.623.454-.851.204-2.665.374-4.031.38l-2.484.008.138-5.225c.075-2.874.222-5.43.326-5.68.152-.368.405-.425 1.326-.3 1.002.138 1.189.08 1.559-.484.321-.491.686-.657 1.549-.704.62-.033 1.327-.121 1.57-.195a.515.515 0 0 1 .135-.025zm-4.245.178c.416 0 .627.125.559.33-.122.371-1.05.584-1.328.306-.313-.314.076-.636.77-.636zm-3.85.714c.075.001.166.04.279.1.276.148.634.187.795.087.212-.13.237.47.09 2.17a185.828 185.828 0 0 0-.364 5.828l-.162 3.475-.926-.3c-1.089-.352-1.358-1.317-.664-2.377.317-.484.347-.702.115-.845-.355-.22-.163-4.21.327-6.793.195-1.027.286-1.35.51-1.345zm14.85 2.045.95.87c1.073.983 3.283 1.896 5.115 2.113 1.706.202 3.296 1.683 2.242 2.088-.35.135-.716 1.226-.79 2.356-.026.416-.288.567-1.224.708-4.678.704-9.255-1.29-9.26-4.034 0-.374.193-1.249.43-1.944.36-1.058.6-1.334 1.484-1.71zm2.923 8.539c.168.002.349.01.544.023 1.056.073 1.588.233 1.693.507.218.57-.578 2.93-1.434 4.25-.4.616-.925 1.12-1.168 1.12-.56 0-1.186-1.533-1.405-3.445-.217-1.886.15-2.47 1.77-2.455zm3.058 1.138c.29 0 .868 3.78.618 4.032-.107.108-.74.27-1.406.362l-1.211.165.887-1.816c.488-1 .889-2.026.89-2.28s.103-.463.222-.463zm-5.244 3.175c.145 0 .264.109.264.242 0 .134.073.432.161.662.16.417-.179.577-.514.242-.274-.275-.207-1.146.089-1.146zm5.703 1.446c.203-.002.351.027.414.096.09.097.24.499.333.892.153.65.078.74-.826.99-1.55.43-4.07.548-5.161.24-.993-.278-1.297-.937-.79-1.713.276-.422 1.282.008 1.656.706l.305.57.705-.651c.568-.527 2.485-1.12 3.364-1.13zm29.9-34.784c-.183 0-.547.239-.81.53-.264.29-.7.529-.968.529s-.488.119-.488.264c0 .351.156.335 1.01-.107.619-.32.791-.32 1.228 0 .582.426 1.58.506 1.334.107-.09-.145-.408-.264-.708-.264-.414 0-.511-.127-.406-.53.084-.32.008-.529-.193-.529zm21.62 3.775c-.07 0-.16.024-.272.073-.255.11-.85.33-1.323.49s-.86.38-.86.49c0 .311.483.237 1.336-.204.448-.231.78-.288.78-.132 0 .149.328.257.728.24.448-.018.55-.077.265-.151-.255-.067-.463-.304-.463-.527 0-.188-.059-.279-.192-.28zm29.224 1.513c-.842.012-1.206.409-1.36 1.368-.123.775-.074 1.174.165 1.332.371.247 2.061.036 2.41-.3.118-.115.178-.671.132-1.236-.07-.847-.194-1.043-.707-1.115a4.487 4.487 0 0 0-.64-.049zm.072.798c.67 0 .793.103.793.661 0 .559-.123.662-.793.662s-.794-.103-.794-.662c0-.558.123-.661.794-.661zm13.613-.77h-.052c-.692.013-.861.397-.861 1.379 0 .635.084 1.24.188 1.343.103.104.788.153 1.521.11l1.333-.078v-1.189c0-1.183-.006-1.19-1.109-1.424-.423-.089-.757-.14-1.02-.142zm.613.578c.298-.006.594.103.778.356.188.256.341.682.341.945 0 .366-.207.478-.882.478-1.038 0-1.234-.15-1.234-.94 0-.505.5-.83.997-.84zm-122.93.247h-.028c-.729.042-1.408 2.263-.786 3.012.32.387.397.372.827-.16.525-.647.648-2.505.185-2.791a.388.388 0 0 0-.198-.061zm6.88 1.587h-.03c-.728.042-1.407 2.264-.785 3.013.321.387.397.372.828-.16.524-.648.647-2.505.184-2.791a.388.388 0 0 0-.198-.062zm102.32 4.778c-.971 0-1.308.882-.716 2.18.264.58.459.674 1.251.608.757-.064.99-.224 1.199-.822.332-.95-.035-1.558-1.132-1.872a2.203 2.203 0 0 0-.603-.094zm.395.724c.46 0 .664.176.756.655.068.36.062.717-.014.794s-.416.138-.756.138c-.51 0-.617-.139-.617-.794 0-.66.106-.793.63-.793zm11.468.497.14 1.24c.076.681.3 1.341.498 1.466 1.04.66 2.166-.26 2.032-1.657-.082-.858-.124-.887-1.378-.967zm.969.582c.096 0 .215.01.36.027.577.067.727.22.727.746 0 .913-1.05 1.086-1.284.212-.21-.786-.22-.985.197-.985zm-68.793 3.296c-.134.009-.38.11-.814.29-1.306.541-1.476.74-.466.55.618-.118.882-.034 1.127.358.188.3.614.512 1.032.512.786 0 .557-.413-.32-.576-.372-.069-.505-.271-.447-.68.045-.323.06-.464-.112-.454zm-32.264.95c-.308.002-.583.061-.678.157-.134.133.19.173.76.094.912-.126.93-.144.231-.232a2.459 2.459 0 0 0-.313-.018zm5.19.76c-.135 0 .073.343.464.762.837.899.843.902.843.56 0-.334-.976-1.322-1.306-1.322zM49.09 58.888c-.137 0-.323.12-.412.265-.09.145.022.264.249.264s.412-.119.412-.264-.112-.265-.25-.265zm-.158 1.954a.295.295 0 1 0 .021.59.295.295 0 0 0-.02-.59zm10.672.563h-.028c-.405.021-.712.523-.712 1.24 0 .819.463 1.006.689.278.078-.255.248-.661.376-.903.157-.297.119-.483-.12-.575a.577.577 0 0 0-.205-.04zm4.044.713c-.117-.003-.243.064-.408.2-.41.34-.555 1.362-.238 1.678.3.3.624-.094.624-.758 0-.356.143-.646.318-.646.24 0 .243-.074.011-.306-.109-.109-.205-.165-.307-.168zm-14.838.739c-.146 0-.265.119-.265.264s.119.265.265.265a.265.265 0 0 0 0-.53zm110.98.264c-.227 0-.34.12-.25.265s.276.265.413.265.249-.12.249-.265-.186-.265-.412-.265zm1.413.033a.726.726 0 0 0-.257.052c-.211.084-.148.147.16.16.279.01.435-.052.347-.14-.05-.05-.143-.074-.25-.072zm-3.5.232c-.209 0-.454.12-.544.265s.082.264.382.264.544-.119.544-.264-.171-.265-.381-.265zm-2.213.269c-.517-.002-.809.104-.712.26.205.333.676.333 1.19 0 .301-.194.185-.257-.478-.26zm-104.96.824c-.11.009-.131.194-.08.551.047.323.49.859.984 1.19.988.665 1.243.727 1.47.36.084-.136-.082-.32-.369-.411-.287-.091-.817-.517-1.178-.945-.428-.51-.693-.756-.827-.745zm-1.714.23c-.146 0-.265.119-.265.264s.119.265.265.265a.265.265 0 0 0 0-.53zm13.812.302c-.202.008-.319.136-.319.36 0 .254.171.4.411.35.575-.12.61-.59.052-.697a.68.68 0 0 0-.144-.013zm99.71.227c-.155 0-.28.12-.28.265s.052.264.116.264.19-.119.28-.264.038-.265-.116-.265zm-1.323.265c-.137 0-.323.119-.413.264s.022.265.25.265c.226 0 .412-.12.412-.265s-.112-.264-.25-.264zm-1.603.264c-.146 0-.265.12-.265.265s.12.264.265.264a.265.265 0 0 0 0-.529zm-1.72.265c-.218 0-.397.119-.397.264s.179.265.397.265.397-.12.397-.265-.179-.264-.397-.264zm-109.14.264c-.146 0-.265.12-.265.265s.12.265.265.265.264-.12.264-.265-.119-.265-.264-.265zm42.598.827c-.168 0-.336.017-.463.05-.255.066-.047.12.463.12s.717-.054.463-.12a1.935 1.935 0 0 0-.463-.05zm2.681.002c-.045 0-.09 0-.137.002-.728.024-.87.076-.428.156.364.066.878.314 1.142.55.464.415.464.436 0 .619-.333.13-.18.194.497.207 1.257.024 1.456-.327.577-1.018-.448-.352-.974-.517-1.65-.516zm.703.245c.15-.002.478.166.886.506.475.395.523.522.202.53-.232.004-.637-.23-.9-.521-.309-.34-.338-.513-.188-.515zm-5.721.255c-.21-.008-.838.579-.838.82 0 .128.218.025.485-.23.266-.255.448-.51.403-.567-.011-.015-.029-.022-.05-.023zm3.338.027a.729.729 0 0 0-.257.052c-.211.085-.149.147.16.16.279.011.435-.051.347-.14-.05-.049-.144-.073-.25-.072zm71.51.232c-.154 0-.28.12-.28.265s.052.265.117.265c.064 0 .19-.12.28-.265s.037-.265-.117-.265zm-72.654.096c-.235.004-.323.058-.259.163.093.149.657.27 1.255.27 1.336 0 1.234-.134-.278-.365a5.064 5.064 0 0 0-.718-.068zm71.463.169c-.227 0-.413.119-.413.265s.113.264.25.264.322-.119.412-.264-.022-.265-.25-.265zm-1.603.265c-.218 0-.397.119-.397.264s.179.265.397.265.397-.12.397-.265-.179-.264-.397-.264zm-67.601.298a.92.92 0 0 0-.33.056c-.183.073-.034.133.33.133s.512-.06.33-.133a.92.92 0 0 0-.33-.056zm-.926.246-1.323.059c-.728.032-1.404.17-1.503.308-.11.152-.462.12-.904-.082-.647-.294-.688-.285-.384.082.404.487.473.486 2.526.006zm71.173 1.308c-.236 0-.355.119-.265.264s.21.265.265.265.174-.12.264-.265-.029-.264-.264-.264zm-62.161 1.093c-.383.011-.597.314-1.066 1.374-.352.796-.795 1.51-.986 1.586-.19.076-.216.147-.057.159.399.029 1.09-.793 1.209-1.434.066-.361.305-.53.755-.53.583 0 .666.126.738 1.112.07.951.218 1.197 1.027 1.697l.947.585-.162 1.875c-.194 2.258-.72 4.174-1.188 4.33-.26.087-.299-.13-.16-.906.1-.56.196-1.124.215-1.25s-.115-.287-.297-.354c-.213-.078-.273.03-.17.3.09.231.083.842-.014 1.358-.134.717-.281.906-.624.806-.247-.073-.925-.206-1.507-.297-.83-.13-.973-.1-.661.14.31.238.138.268-.784.139-.65-.092-1.215-.2-1.258-.243s.056-.46.22-.928c.162-.467.229-.916.147-.998s-.25.245-.373.724c-.124.479-.381.922-.572.986-.232.077-.298-.047-.2-.38.08-.271.346-1.615.592-2.986.355-1.98.584-2.62 1.112-3.11.365-.338.557-.613.427-.611-.892.015-1.449 1.229-1.942 4.23l-.412 2.513-1.5.133c-.826.074-1.6.237-1.72.362-.122.127.15.149.616.05.48-.104 1.719.006 2.91.257 1.647.347 2.894.404 6.044.277 2.979-.12 4.332-.068 5.424.21 1.897.485 2.858.486 1.323.003-1.802-.567-4.331-.916-5.273-.727-.93.186-.918.285-.259-2.285.13-.51.238-1.537.239-2.284 0-1.238-.08-1.419-.912-2.054-.829-.632-.92-.835-.992-2.214-.07-1.349-.146-1.527-.68-1.603a1.029 1.029 0 0 0-.176-.012zm.1.23c.137 0 .322.119.412.264s-.022.265-.249.265-.412-.12-.412-.265.112-.264.249-.264zm29.409 1.357c-.4.003-.627.113-.715.342-.086.226-.627.538-1.2.692-.748.201-1.247.575-1.76 1.316-.674.975-.798 1.038-2.17 1.084-.807.028-1.102.094-.662.15.437.054 1.568.27 2.514.48s2.017.438 2.381.505c.98.179 4.775-.068 5.689-.37.63-.208.452-.232-.86-.118-1.602.14-1.654.124-1.654-.48 0-.343-.169-.855-.375-1.137-.254-.348-.29-.615-.112-.83.145-.174.224-.591.177-.926-.067-.473-.28-.63-.949-.693a2.953 2.953 0 0 0-.304-.015zm-.421.181.659.09c.37.052.697.294.746.554.116.604-.217.564-.876-.106zm-.047.893h.04a.767.767 0 0 1 .265.043c.226.086.521.447.656.8.134.354.37.72.525.816.154.096.28.465.28.82 0 .805-.77.873-1.446.126-.258-.285-.894-.659-1.412-.83-.885-.292-.979-.266-1.522.415-.773.97-1.13.397-.395-.634.52-.73 2.162-1.54 3.01-1.556zm-1.662 1.915c.212.001.483.096.9.294.517.246.941.54.941.655 0 .114-.595.19-1.323.168-1.347-.04-1.66-.357-.941-.953a.623.623 0 0 1 .423-.164zm.46.448a.727.727 0 0 0-.256.052c-.211.084-.149.147.16.16.279.01.435-.052.347-.14-.05-.049-.143-.074-.25-.072zm-30.277 2.65c-.45.002-.82.056-.909.145-.118.119.404.158 1.161.088l1.376-.128-1.16-.088a5.969 5.969 0 0 0-.468-.017zm2.29.263a.92.92 0 0 0-.331.055c-.182.073-.033.133.33.133s.513-.06.331-.133a.92.92 0 0 0-.33-.055zm-2.344.276c-.234.002-.04.12.756.35.655.19 1.489.347 1.852.35s.007-.16-.793-.36c-.919-.23-1.581-.342-1.815-.34zm42.373.084c-1.436.004-2.346.338-3.248 1.097-.663.558-.754.756-.494 1.07.176.212.51.336.742.275s.955-.024 1.606.081a17.11 17.11 0 0 0 2.11.198c.558.005.22-.117-.849-.308-.976-.174-1.853-.395-1.948-.49s.167-.484.584-.863c.738-.671.827-.685 3.387-.538 1.445.083 2.573.096 2.506.028s-1.164-.251-2.437-.41a15.758 15.758 0 0 0-1.96-.14zm-1.284.386-.904.932c-1.163 1.201-1.67 1.272-1.07.15.143-.266.645-.619 1.117-.783zm1.868.556 1.588.337c.873.185 1.637.301 1.697.258.272-.196-.252-.337-1.71-.461zm-42.104.042h-.097l-.926.02 1.058.189c1.497.268 1.947.268 1.323 0-.273-.117-.865-.207-1.358-.21zm40.781.502 1.588.354c.873.194 1.885.357 2.249.36.63.006.625-.005-.093-.22-.415-.125-1.427-.287-2.25-.36zM3.633 86.141l-.2 6.283c-.11 3.457-.153 21.464-.095 40.018l.104 33.734 3.44.144c5.15.216 59.382.278 68.659.079l8.07-.173.102-38.125c.056-20.97.014-38.988-.093-40.043l-.196-1.919H43.528zm40.025.71c7.17 0 14.34.011 19.778.034l19.778.082v1.694c0 1.922-.135 2.071-2.139 2.372-.776.116-1.823.037-2.91-.221-.934-.222-2.6-.451-3.703-.51-1.452-.078-2.301-.275-3.083-.714-1.018-.572-1.177-.588-2.796-.283-1.72.325-3.972.094-4.931-.506-.257-.16-.592-.072-1.028.272-.484.38-1.07.51-2.316.51-2.156 0-2.416.381-.303.444 1.001.03 1.9-.102 2.377-.35.599-.308.947-.333 1.58-.113 1.019.356 3.475.363 4.73.015.829-.23 1.12-.173 2.219.441 1.041.582 1.758.742 4.072.911 1.544.113 3.305.314 3.913.448.607.133 1.68.147 2.38.032.703-.115 1.425-.217 1.607-.226.253-.012.331 1.055.331 4.495v4.51l-.964 1.508c-1.015 1.587-3.194 4.369-3.52 4.494-.105.04-.408-.406-.672-.992-.265-.586-.528-1.066-.586-1.066-.32 0-1.605.817-2.039 1.296-.664.733-.859.702-1.063-.171-.22-.945-1.761-4.035-2.012-4.035-.106 0-.33.33-.496.733-.363.876-3.449 4.603-3.945 4.765-.192.063-.414-.137-.494-.443-.186-.711-1.002-.722-2.141-.027-.477.29-.913.528-.97.528s-.368-.804-.689-1.786c-.69-2.113-.853-2.338-1.302-1.797-.508.612-.73.503-1.07-.525-.169-.513-.608-1.289-.974-1.725l-.666-.791-2.502 2.391c-2.35 2.247-3 2.615-3 1.704 0-.583-.42-.46-1.416.413l-.905.796-.185-.985c-.102-.541-.349-1.301-.55-1.689-.443-.857-1.68-2.356-1.945-2.356-.106 0-.4.436-.654.969-.53 1.109-2.783 4.058-3.101 4.058-.117 0-.316-.185-.443-.41-.193-.345-.49-.22-1.847.78l-1.618 1.19-.178-.846c-.099-.465-.419-1.41-.711-2.1-.467-1.101-.61-1.235-1.162-1.096-.562.141-.63.07-.63-.66 0-.449-.196-1.305-.435-1.902l-.435-1.087-2.366 2.538c-1.302 1.395-2.483 2.466-2.625 2.378s-.916.566-1.72 1.454c-.802.888-1.604 1.614-1.78 1.614-.178 0-.465-.393-.638-.872-.483-1.336-1.049-1.989-1.34-1.547-.294.446-.446.194-.687-1.139-.104-.574-.491-1.64-.861-2.37l-.673-1.328-.646 1.271c-.713 1.402-2.763 3.604-3.357 3.604-.207 0-.502-.36-.655-.798-.355-1.018-.847-1.197-1.854-.677-1.034.535-1.007.542-1.217-.311-.175-.712-1.1-2.392-1.814-3.298-.328-.415-.484-.333-1.823.964-.805.78-1.718 1.554-2.028 1.72-.48.258-.563.23-.563-.193 0-.892-.324-.845-1.047.154-.922 1.272-2.237 2.263-4.303 3.24l-1.661.786-.133-7.871c-.073-4.33-.104-7.947-.069-8.04.035-.093.57.008 1.19.225.844.294 1.528.338 2.716.174.873-.12 3.075-.222 4.894-.226 2.122-.005 3.512-.124 3.879-.333.465-.265.758-.248 1.575.093 1.389.58 4.603.422 5.361-.264.513-.464.604-.468 1.617-.062 1.326.53 2.649.547 3.842.049.662-.277 1.146-.313 1.775-.133 1.274.366 2.938.303 4.307-.161 1.194-.406 1.225-.402 2.92.433 1.475.726 1.908.824 3.106.7.765-.079 1.833-.354 2.374-.612.95-.453 1.063-.45 3.365.08 1.702.392 2.66.486 3.349.33.547-.123 1.244-.11 1.609.028.8.304 3.969.323 4.153.025.074-.12-.484-.231-1.242-.246-4.33-.084-7.292-.3-7.99-.585-1.068-.433-2.437-.393-3.63.108-1.582.664-3.348.533-5.049-.375-1.456-.777-1.491-.782-2.617-.368-.642.236-1.806.399-2.662.371a56.86 56.86 0 0 0-2.58-.022c-2.601.064-4.204.063-5.556-.006a7.018 7.018 0 0 0-2.755.415c-1.16.437-1.459.452-2.778.145-1.731-.403-2.136-.41-3.721-.058-.76.168-1.738.173-2.726.014-1.164-.187-2.028-.148-3.536.164-2.307.476-3.375.347-4.393-.535-.593-.512-.728-.85-.728-1.817v-1.188l19.778-.082c5.439-.023 12.608-.034 19.778-.034zM15.164 99.866l.654.876c.36.482.857 1.5 1.104 2.262.248.762.543 1.443.655 1.513.113.07.603-.168 1.09-.526.486-.36.918-.653.96-.653s.318.476.615 1.058c.297.582.673 1.058.834 1.058 1 0 2.85-1.89 3.688-3.768.245-.549.407-.657.665-.443.394.328 1.101 2.39 1.217 3.55.064.65.2.794.74.794.546 0 .723.196 1.017 1.124.218.69.515 1.125.769 1.125.226 0 1.066-.723 1.866-1.606 1.07-1.183 1.512-1.514 1.677-1.257.234.365 1.766-1.155 3.858-3.828.882-1.127 1.027-1.218 1.315-.825.178.244.398.993.487 1.664.247 1.853.3 1.948.902 1.626.612-.327.753-.125 1.471 2.109.257.8.51 1.503.56 1.562s.79-.382 1.642-.979c1.422-.997 1.582-1.05 1.972-.66.391.39.524.32 1.627-.873.66-.715 1.47-1.86 1.8-2.545.33-.685.69-1.25.798-1.257.458-.025 1.783 2.256 2.079 3.58.177.79.417 1.437.534 1.437.118 0 .611-.35 1.097-.776.855-.75.893-.759 1.206-.258.305.489.43.427 2.235-1.103 1.052-.892 2.22-1.981 2.594-2.422l.682-.8.575.73c.316.402.575.99.575 1.306 0 .317.158.792.351 1.057.287.393.454.426.91.182.305-.164.613-.298.684-.298s.385.773.7 1.717c.314.944.672 1.78.796 1.857.125.077.668-.16 1.208-.527 1.093-.742 1.7-.85 1.7-.301 0 .2.157.494.348.653.267.221.69-.062 1.821-1.224.81-.833 1.833-2.022 2.274-2.644l.8-1.131.55.699c.303.384.754 1.369 1.003 2.189.25.82.478 1.529.509 1.576.103.16 1.556-.699 2.183-1.29.676-.638.697-.626 1.514.883l.4.738.813-.58c.754-.537 3.396-4.244 3.396-4.765 0-.127.122-.23.27-.23.177 0 .245 1.973.198 5.75l-.071 5.751-1.455.213c-2.13.31-11.464-.472-16.933-1.42-5.958-1.031-11.421-1.288-14.435-.677-2.385.483-4.981 1.217-4.832 1.366.054.054.989-.156 2.076-.468 1.747-.5 2.626-.566 7.534-.556 4.885.01 6.211.112 10.98.849 2.983.46 7.686.98 10.45 1.154l5.028.316-1.455.459c-.8.252-1.716.466-2.035.475-.32.009-.664.151-.766.317-.324.524 2.266-.006 4.052-.83.906-.418 1.684-.68 1.728-.58.19.428-.136 36.64-.325 36.29-.311-.577-1.487-6.797-1.998-10.574-.262-1.937-.677-3.8-1-4.498l-.554-1.19-.152 2.298c-.144 2.18-.4 3.115-.63 2.303-.349-1.235-2.89-7.82-3.097-8.028-.499-.5-.257 4.901.29 6.47.279.8.448 1.097.377.66s-.192-1.746-.267-2.91l-.137-2.116.686 1.455c.376.8.904 2.245 1.173 3.211.565 2.035 1.001 2.946 1.316 2.752.122-.076.376-.911.564-1.856.187-.946.382-1.678.431-1.629.158.158.812 4.174 1.127 6.915.277 2.413 1.183 6.81 1.88 9.128.154.509.242 1.878.197 3.042l-.082 2.117-2.514-.062c-2.613-.064-4.674.377-5.303 1.135-.395.475-.458.48 1.556-.15 1.75-.549 3.094-.642 5.165-.358l1.228.168v3.19l-9.459-.17c-10.006-.18-11.776-.045-14.053 1.068-1.213.593-1.225.976-.036 1.085 1.397.128 1.483.452.3 1.118-.9.506-1.567 1.244-1.298 1.438.04.029 1.203-.063 2.586-.205 2.968-.305 21.299-.407 21.586-.12.108.108.142.252.075.32-.067.067-11.904.195-26.304.285-18.67.116-26.296.08-26.579-.125-.63-.457-2.929-1.055-4.297-1.117-.69-.032-1.378-.134-1.527-.226-.149-.092-.4-.903-.559-1.802-.37-2.105-1.437-3.613-3.065-4.333-1.07-.474-1.628-.523-4.81-.428-5.082.151-6.324.862-6.776 3.877-.363 2.416-1.79 4.011-3.592 4.011H4.103l.002-25.995.003-25.995 3.106-.871c5.57-1.562 8.1-1.99 11.838-2.007l3.44-.014 7.274 2.044c7.51 2.11 9.377 2.467 9.388 1.798.004-.205.483-.528 1.065-.717.961-.313.973-.327.132-.156-.51.103-2.117.176-3.572.162-2.412-.022-3.02-.143-6.879-1.369-7.404-2.35-9.332-2.668-13.229-2.187-1.86.23-9.056 1.904-12.105 2.817-.423.127-.463-.14-.463-3.128v-3.266l2.242-1.112c1.234-.611 2.71-1.535 3.283-2.052.613-.554 1.082-.812 1.143-.628.158.473 1.16-.154 2.897-1.81zm.832 58.544c2.054-.005 3.825.387 5.368 1.185.724.374.728.386.269 1.086l-.464.708-.134-.774c-.111-.642-.358-.857-1.456-1.27-1.091-.41-1.85-.477-4.364-.388-3.18.112-4.013.358-4.535 1.338-.284.533-.272.555.126.226.383-.316.443-.298.457.132.015.44.042.434.242-.063.258-.638 1.22-1.152.978-.523-.114.297.095.27.962-.123 1.137-.516 3.078-.644 4.02-.265.3.122.67.1.858-.05.454-.363 1.75.494 1.546 1.024-.087.229-.037.32.122.223.15-.093.196-.426.102-.741-.158-.526-.136-.539.263-.158.558.534.303 1.197-.6 1.556l-.704.28.794-.137c.758-.132.77-.12.269.27-.289.225-1.114.584-1.834.798-1.404.417-3.083.46-4.785.12-5.628-1.121-4.555-4.086 1.603-4.427.305-.017.604-.026.897-.027zm52.647 3.02c1.48-.002 3.246.016 5.388.05l8.917.144v1.002c0 .998-.004 1.002-.926.852-.55-.09-.926-.04-.926.12 0 .148.417.348.926.443.564.106.926.327.926.566 0 .337-.46.363-3.24.187-1.783-.114-5.385-.206-8.004-.206-2.62 0-6.43.088-8.467.196-3.907.207-3.97.178-2.005-.912.448-.248.814-.562.814-.698 0-.137-.565-.36-1.257-.496l-1.256-.247 1.058-.303c1.74-.498 3.611-.691 8.052-.698zm-46.464.38c.062 0 .184.451.272 1.003.171 1.07 1.156 2.219 2.289 2.669.46.183-2.024.268-8.136.28-4.839.009-8.798-.054-8.798-.14 0-.087.238-.459.529-.828.29-.37.652-1.133.804-1.695.264-.982.299-1.008.864-.638.323.212 1.42.581 2.437.82 2.774.653 6.344.227 8.82-1.054.444-.23.858-.417.92-.417zM85.33 86.14v80.153l3.506.082c7.297.171 60.739.19 68.474.023l8.084-.173.072-40.043.072-40.043h-40.105zm39.6.587c7.175 0 14.4.027 19.943.081l20.156.197-.122 39.321-.122 39.321-10.822.162c-10.687.16-44.95.18-60.232.037l-7.871-.075V87.004l19.429-.196c5.343-.054 12.467-.08 19.642-.08zm-101.22.528a1.26 1.26 0 0 0-.36.078c-.328.108-1.34.209-2.25.223-1.527.025-1.868.133-1.52.481.18.18 3.319.223 3.902.054.254-.074.463-.32.463-.545 0-.202-.065-.293-.235-.292zm25.732.305a.12.12 0 0 0-.011.001c-.151.014-.093.319.21.622.414.413 3.848.273 4.27-.174.271-.289-.035-.32-1.761-.183-1.389.11-2.21.066-2.448-.131-.113-.094-.2-.135-.26-.135zm70.571.445c-.143.002-.334.119-.525.35-.166.199-1.044.705-1.951 1.124-1.435.662-1.963.762-4.055.762-2.24 0-2.496-.058-3.754-.84-1.513-.94-1.424-.98-2.579 1.177-1.098 2.054-2.067 2.558-4.879 2.54-1.716-.012-2.704-.176-4.116-.682l-1.858-.665.006 2.296c.005 2.113-.053 2.375-.737 3.273-1.005 1.32-2.418 1.984-4.998 2.349-1.757.248-2.07.359-1.665.588 1.207.685 3.09 2.714 3.725 4.011.618 1.262.681 1.66.599 3.737-.094 2.334-.314 2.94-1.874 5.156-.498.707-.185.741 1.519.166 3.92-1.324 7.85.142 10.761 4.014l.696.926.753-.478c.414-.262 1.586-.89 2.605-1.394l1.852-.918.083.667c.098.778.25.815 1.048.256l.588-.412v2.642c0 4.744.918 9.036 2.68 12.536.422.836.87 1.521.995 1.521s-.067-.804-.427-1.786c-.864-2.353-1.376-5.26-1.385-7.871-.007-2.02.63-7.212.921-7.503.076-.076.321.122.544.441.583.832.815.722 1.007-.479.163-1.018.207-1.058 1.169-1.058 1.543 0 4.02.728 5.428 1.596.7.432 1.358.785 1.46.785.104 0 .602-.34 1.108-.756 2.408-1.98 5.372-2.784 9.65-2.619 3.235.124 4.958.626 8.666 2.524.11.056.198-.363.198-.93 0-1.75.715-3.61 1.907-4.965 1.239-1.407 3.29-2.507 4.68-2.511l.898-.003-1.722-1.579c-.947-.867-1.87-1.934-2.05-2.37-.328-.792-.274-2.669.101-3.51.162-.362-.018-.504-.947-.75-1.78-.473-5.289-2.195-6.325-3.104-1.513-1.33-2.428-3.288-2.57-5.505l-.122-1.903-1.357.37c-2.354.64-7.298 1.418-8.99 1.413-3.38-.01-6.521-1.114-6.521-2.291 0-.228-.096-.34-.24-.337zm-.297.97c.202 0 .326.092.489.255 1.316 1.316 5.232 2.052 8.905 1.672 1.744-.18 4.873-.834 7.046-1.474.343-.1.46.16.597 1.33.286 2.435 1.093 4.18 2.572 5.564 1.338 1.252 4.162 2.736 6.283 3.302.929.249 1.109.391.947.753-.828 1.857-.14 4.066 1.78 5.71.612.523 1.062.99 1 1.038s-.6.226-1.198.398c-1.324.38-3.321 2.088-4.207 3.6-.36.615-.776 1.755-.923 2.533-.148.778-.31 1.457-.36 1.507s-.863-.271-1.807-.713c-5.197-2.432-12.177-1.912-16.272 1.212l-.867.66-2.02-.985c-1.718-.837-2.353-1.003-4.238-1.101l-2.217-.117-.001.893-.001.894-1.262-1.577-.297 1.053c-.63 2.236-.873 4.87-.777 8.382.054 2.008.075 3.651.044 3.651-.517 0-1.245-5.068-1.262-8.784l-.017-3.625-.585.383c-.742.487-.891.484-.7-.012.083-.219.073-.397-.024-.397-.383 0-3.83 1.569-4.82 2.193l-1.054.665-.906-1.221c-2.183-2.942-4.914-4.165-8.843-3.96l-2.45.129.68-1.483c.548-1.196.68-1.891.682-3.6.003-2.692-.696-4.386-2.513-6.086-.712-.666-1.295-1.25-1.295-1.298s.742-.233 1.648-.411c3.749-.738 5.323-2.496 5.28-5.896-.01-.837.033-1.522.096-1.522s1.038.257 2.168.571c4.761 1.325 7.499.388 8.94-3.061l.39-.933.952.646c1.218.827 2.297 1.02 4.82.866 1.532-.094 2.478-.328 3.843-.953.995-.456 1.458-.651 1.754-.65zm-42.664-.87c-.267.004-.47.028-.552.079-.146.09-.035.254.247.364.712.28 3.025.287 3.025.01 0-.206-1.63-.444-2.603-.452h-.117zm32.855 7.957-.45.638a34.645 34.645 0 0 0-1.059 1.654c-.336.558-.484 1.015-.33 1.015.153 0 .279-.12.279-.265 0-.384 1.514-.325 1.7.067.086.181.096-.072.022-.563s-.14-1.265-.149-1.72zm-.36 1.19c.068 0 .123.238.123.53 0 .299-.177.529-.406.529-.325 0-.35-.107-.123-.53.155-.29.338-.529.406-.529zm23.588-1.004c-.669.003-1.769.573-1.769 1.024 0 .28.156.51.346.51s.578.176.86.391c.445.34.46.428.117.664-.218.149-.635.257-.926.24-.881-.052-1.077.024-.693.267.343.217 1.522.015 2.14-.367.512-.317.274-.917-.53-1.332-.903-.467-.793-1.048.154-.81.644.161 1.123-.215.648-.51a.658.658 0 0 0-.347-.077zm-14.424.01a.566.566 0 0 0-.2.04c-.23.088-.795.168-1.256.177-.746.015-.775.043-.264.249.55.222.56.28.211 1.438-.2.664-.262 1.207-.138 1.207s.369-.595.544-1.323c.242-1.012.435-1.323.82-1.323.276 0 .502-.131.502-.293 0-.11-.089-.173-.22-.173zm11.972.027a.247.247 0 0 0-.11.041c-.146.09-.263.425-.261.744.003.47.052.505.26.183.295-.457.332-.983.11-.968zm-4.959.015c-.526 0-.942.377-1.064 1.041a32.01 32.01 0 0 1-.315 1.5c-.155.634-.145.64.25.153.4-.493.429-.494.948-.024.294.266.623.396.73.288.109-.108-.013-.35-.27-.538-.437-.32-.423-.37.199-.779.786-.515.858-1.097.18-1.46a1.408 1.408 0 0 0-.658-.18zm.098.423c.624 0 .87.397.448.723-.52.401-1.254.606-1.254.349 0-.59.363-1.072.806-1.072zm-2.318-.346a3.413 3.413 0 0 0-.41.024c-.794.093-.9.22-1.29 1.535l-.423 1.433h1.172c.644 0 1.11-.1 1.035-.22-.075-.122-.518-.165-.984-.097-.717.106-.82.055-.673-.33.096-.25.175-.504.175-.565 0-.06.416-.11.926-.11.509 0 .926-.133.926-.295 0-.178-.32-.248-.805-.177-.628.092-.787.026-.725-.3.044-.234.4-.456.804-.503.4-.046.726-.17.726-.277 0-.074-.184-.117-.454-.118zm5.543.002c-.126 0-.27.008-.422.025-.827.097-.918.206-1.288 1.535l-.398 1.43h1.17c.644 0 1.11-.099 1.035-.22-.074-.121-.517-.165-.983-.096-.718.105-.822.055-.674-.33.096-.25.175-.505.175-.566 0-.06.417-.11.926-.11.51 0 .926-.133.926-.295 0-.178-.32-.248-.805-.177-.628.093-.787.027-.725-.3.044-.234.4-.456.804-.503.4-.046.726-.171.726-.278 0-.073-.19-.115-.467-.115zm-9.25.06c-.12-.005-.402.567-.655 1.475-.223.8-.315 1.456-.205 1.456.11 0 .275-.298.367-.662.121-.483.343-.661.822-.661.735 0 .773.08.383.81-.179.334-.182.513-.01.513.145 0 .393-.484.552-1.075.16-.591.356-1.246.436-1.455s.014-.38-.147-.38c-.16 0-.293.224-.293.5 0 .468-.478.822-1.11.822-.151 0-.218-.298-.148-.661.09-.47.078-.68.007-.682zm-12.768.02c-.887 0-1.013.084-1.15.763a37.23 37.23 0 0 1-.326 1.455c-.143.572-.083.693.349.693.6 0 1.797-.872 2.181-1.59.442-.825.046-1.32-1.054-1.32zm-.009.36c.127-.004.261.02.401.074.55.21.496.79-.132 1.418-.593.593-1.324.703-1.32.199.012-1.022.441-1.675 1.051-1.692zm5.302-.36c-.914 0-1.008.07-1.152.86a17.9 17.9 0 0 1-.33 1.455c-.127.439-.064.596.242.596.763 0 1.671-.567 2.117-1.322.626-1.06.334-1.589-.877-1.589zm-.01.367c.136-.003.274.018.401.067.586.225.482 1.064-.191 1.536-.87.609-1.358.532-1.166-.184.087-.327.16-.731.163-.897.004-.294.387-.513.793-.522zm1.358 1.75c-.128 0-.298.245-.376.544-.117.447-.075.488.233.232.421-.35.5-.776.143-.776zm24.283 3.198c-.22-.005-.586.116-1.17.36-1.165.487-1.162.865.007 1.354.51.213.926.502.926.643 0 .255-1.002.606-1.472.515-.476-.091-.675.017-.512.28.207.334.39.331 1.394-.019 1.372-.478 1.338-1.297-.077-1.835-.697-.266-.734-.33-.32-.562.258-.144.705-.188.993-.096.37.117.524.044.524-.249 0-.257-.074-.387-.293-.391zm-12.098.04a.566.566 0 0 0-.199.04c-.23.09-.796.169-1.257.178-.758.015-.782.04-.252.253.564.227.573.281.224 1.438-.199.662-.276 1.203-.173 1.203s.341-.595.528-1.323c.258-1.007.46-1.323.844-1.323.277 0 .505-.132.505-.293 0-.11-.09-.173-.22-.173zm8.901.041c-.21-.017-1.802 2.612-1.802 2.987 0 .104.143.047.317-.128.416-.416 1.452-.408 1.634.013.078.182.119-.365.089-1.216-.03-.85-.134-1.594-.229-1.653l-.009-.003zm-.206 1.103a.11.11 0 0 1 .083.032c.095.094.173.318.173.496 0 .372-.717.72-.894.433-.147-.238.374-.955.638-.961zm-2.457-1.055a1.944 1.944 0 0 0-.637.131c-.363.134-.615.536-.734 1.17-.1.531-.246 1.136-.326 1.344s-.013.378.148.378.293-.179.293-.397c0-.514.24-.502.841.043.554.5.977.29.52-.26-.232-.281-.18-.473.228-.842.841-.762.557-1.56-.296-1.567h-.037zm-.19.404c.044 0 .09.004.135.013.741.144.734.631-.016.972v.001c-.852.388-.921.387-.916-.02.007-.541.368-.961.797-.966zm-2.038-.369c-.676 0-1.674.169-1.674.361 0 .126.198.153.44.06.453-.173.443.11-.075 2.038-.104.385-.08.57.06.444.13-.119.36-.714.513-1.323.208-.835.42-1.127.864-1.19.323-.048.535-.17.471-.274-.05-.082-.291-.116-.599-.116zm-24.505.008a5.05 5.05 0 0 0-.452.024c-.582.055-1.058.203-1.058.329s.178.16.397.076c.486-.186.491.236.02 1.558-.196.546-.252.993-.125.993s.368-.552.538-1.227c.202-.803.477-1.27.797-1.353.747-.195.597-.402-.117-.4zm-3.132.048a2.5 2.5 0 0 0-.88.186c-.705.27-1.267 1.601-.937 2.219.506.945 1.915.624 2.536-.577.56-1.084.188-1.83-.72-1.828zm-.1.343c.1-.002.198.012.287.046.543.209.462 1.134-.153 1.749-.939.94-1.784.556-1.477-.67.152-.604.801-1.113 1.343-1.125zm12.832-.323c-.889.016-2.003 1.207-1.747 2.227.127.506.343.685.828.685.653 0 1.715-.82 1.715-1.323 0-.367-1.514-.334-1.744.038-.132.213.02.251.513.128.843-.212.937.218.141.644-.8.428-1.474-.24-1.047-1.038.427-.798 1.348-1.25 1.627-.8.119.193.304.263.411.155.108-.107.069-.322-.087-.477a.815.815 0 0 0-.61-.24zm-17.144.002c-.126 0-.411.655-.634 1.455-.223.8-.312 1.455-.197 1.455s.286-.356.382-.79c.256-1.165.594-1.207 1.217-.151.305.517.599.941.651.941s.226-.484.385-1.075c.16-.59.356-1.246.436-1.455s.014-.38-.147-.38c-.16 0-.295.268-.297.595-.008 1.209-.417 1.351-1.007.35-.307-.52-.662-.945-.789-.945zm8.982 0c-.13 0-.305.343-.389.762a37.23 37.23 0 0 1-.326 1.456c-.222.881.08.904.412.03.155-.407.46-.66.793-.66.452 0 .512.113.364.7-.113.454-.08.641.098.532.15-.093.353-.595.45-1.116.099-.522.244-1.119.324-1.326.08-.208.021-.378-.13-.378s-.313.268-.36.595c-.055.394-.297.625-.713.684-.559.08-.61.012-.458-.595.094-.376.065-.684-.065-.684zm3.952 0c-.11 0-.38.655-.604 1.455-.222.8-.307 1.455-.188 1.455s.297-.422.394-.937c.206-1.102.583-1.073 1.155.088.227.46.482.84.567.843s.337-.649.56-1.449c.223-.8.323-1.455.223-1.455s-.293.446-.428.992l-.245.992-.617-.992c-.34-.546-.707-.992-.817-.992zm10.645 0c-.226 0-.876 2.019-.876 2.723 0 .227.323.303 1.018.236.986-.094 1.028-.14 1.327-1.435.386-1.673.216-1.937-.265-.414-.276.87-.51 1.16-.994 1.228-.567.08-.617.012-.481-.661.083-.413.232-.96.33-1.214s.072-.463-.059-.463zm17.948 0c-.129 0-.305.387-.391.86a17.9 17.9 0 0 1-.33 1.455c-.237.81.104.757.417-.066.16-.42.458-.662.816-.662.483 0 .538.105.385.728-.29 1.169.258.335.625-.952.363-1.276.193-1.836-.224-.738-.173.453-.464.698-.83.698-.47 0-.537-.111-.399-.662.092-.364.06-.661-.068-.661zm-20.057.03c-.073 0-.15.006-.23.015-.633.075-.778.265-1.078 1.41-.191.727-.353 1.4-.36 1.493-.013.196 1.624-.137 2.09-.426.172-.105.279-.448.238-.762-.04-.313.026-.73.147-.924.287-.462-.097-.82-.807-.807zm.041.234c.74 0 .887.386.243.633-.662.254-.904.191-.904-.236 0-.247.25-.397.661-.397zm-.094 1.358c.679.003.629.455-.188.765-.908.345-.961.333-.86-.205.054-.279.376-.496.814-.546.085-.01.163-.015.234-.014zm-9.614-1.556c-.01 0-.02 0-.03.004-.156.052-.422.713-.592 1.467-.41 1.823-.102 1.757.443-.095.25-.848.316-1.363.179-1.376zm32.139 2.05c-.116 0-.359.238-.54.53h-.001c-.183.293-.216.529-.073.529.142 0 .385-.239.541-.53.156-.29.188-.529.073-.529zm-32.492 3.052-.557.944c-.307.52-.765 1.262-1.019 1.65-.254.387-.336.704-.182.704s.353-.119.443-.264c.233-.378 1.385-.328 1.544.066.2.493.172-.84-.042-2.046zm-.21 1.22c.066 0 .073.177.077.557.005.474-.13.728-.389.728-.5 0-.503-.288-.008-.942.163-.215.257-.335.313-.343h.007zm26.656-1.052c-.074.002-.158.096-.212.248-.072.203-.25.696-.397 1.096-.146.4-.173.728-.06.728.266 0 .934-1.846.738-2.042a.092.092 0 0 0-.069-.03zm-23.35.018a.566.566 0 0 0-.2.041c-.23.088-.786.16-1.234.16-.71 0-.85.34-.178.43.134.019.291.049.35.067.058.018-.055.569-.253 1.224-.197.654-.256 1.19-.132 1.19s.368-.595.543-1.323c.243-1.012.435-1.323.82-1.323.276 0 .503-.131.503-.293 0-.11-.09-.173-.22-.173zm13.51.121c-.126 0-.27.008-.423.026-.826.096-.918.205-1.287 1.534-.22.787-.309 1.431-.2 1.431s.257-.223.328-.495c.08-.305.523-.599 1.155-.766l1.026-.272-.88-.027c-.686-.021-.86-.129-.79-.49.052-.28.375-.497.812-.547.4-.046.726-.171.726-.278 0-.073-.19-.115-.467-.116zm-9.501.003c-.676.001-1.674.169-1.674.362 0 .125.197.153.439.06.454-.174.444.108-.075 2.037-.103.386-.079.57.06.445.13-.12.362-.715.513-1.323.209-.835.42-1.127.864-1.192.324-.046.536-.17.472-.273-.05-.082-.292-.116-.6-.116zm14.768.073c-.754-.002-1.871.908-1.871 1.859 0 .387.079.783.176.88.319.319 1.34.184 1.676-.22.381-.46-.012-.544-.459-.098-.42.42-1.129.084-1.129-.537 0-.677 1.31-1.733 1.686-1.358.402.402.701.331.527-.124-.108-.281-.333-.401-.606-.402zm-26.447.005c-.15 0-.35.355-.446.79-.234 1.066-.662 1.277-.662.327 0-1.162-.31-1.238-1.115-.273l-.73.875.166-.926c.092-.509.068-.833-.053-.72-.122.112-.256.47-.297.793-.042.324-.135.916-.208 1.316-.18 1 .133.907.89-.262.677-1.044.69-1.038 1.185.527.24.762.588.53.933-.623.179-.597.39-1.252.467-1.455.078-.203.02-.37-.13-.37zm1.047 0c-.13 0-.305.343-.389.762a37.23 37.23 0 0 1-.326 1.456c-.222.881.08.904.413.03.155-.407.458-.66.792-.66.453 0 .512.113.365.7-.112.445-.079.64.091.536.147-.091.333-.556.413-1.032.08-.477.228-1.075.329-1.33.103-.26.063-.462-.092-.462-.15 0-.313.268-.359.595-.056.394-.297.625-.714.684-.558.08-.61.011-.458-.595.094-.377.065-.684-.065-.684zm27.006 0c-.13 0-.305.343-.389.762-.084.42-.226 1.105-.315 1.522-.147.68-.125.711.207.305.326-.399.435-.408.91-.075.751.526.979.172.265-.415l-.584-.48.926-.8c.51-.439.814-.802.676-.808-.137-.006-.6.316-1.027.716l-.779.728.173-.728c.096-.4.067-.727-.063-.727zm5.254.009c-.49.004-1.072.101-1.323.279-.295.208-.143.238.595.116 1.262-.209 1.308.244.066.654-.509.168-.926.415-.926.549 0 .324.157.309.864-.086.864-.483 1.517-1.043 1.517-1.298 0-.15-.36-.218-.793-.214zm-18.691.034c-.084.007-.236.245-.364.581-.167.44-.465.698-.806.698-.453 0-.512-.114-.364-.701.113-.454.08-.641-.098-.532-.15.093-.353.595-.45 1.116s-.244 1.119-.324 1.326-.07.379.022.379.28-.298.42-.662c.159-.42.456-.661.815-.661.47 0 .537.11.398.661-.09.364-.065.662.058.662.253 0 .926-2.654.724-2.855a.039.039 0 0 0-.031-.012zm2.18.042c-.082 0-.18.002-.293.007-1.02.039-1.05.068-1.384 1.363-.188.727-.343 1.385-.346 1.462-.003.076.47.093 1.053.038s1.058-.187 1.058-.292c0-.105-.368-.137-.82-.07-.69.101-.804.041-.725-.377.065-.342.362-.523.952-.58.472-.045.858-.207.858-.359 0-.161-.27-.21-.646-.115-.354.09-.71.056-.79-.073-.195-.316.359-.744 1.171-.906.312-.062.265-.099-.088-.098zm13.352 2.56c-.154 0-.28.12-.28.265 0 .145.052.264.117.264.064 0 .19-.119.28-.264.09-.146.037-.265-.117-.265zm1.587 0c-.154 0-.28.12-.28.265 0 .145.053.264.117.264s.19-.119.28-.264c.09-.146.038-.265-.117-.265zm-93.059 2.698c-.142-.002-.562.112-1.166.345-.51.196-.748.36-.53.365s.754-.155 1.191-.355c.51-.234.647-.353.505-.355zm6.507 2.33c-.151 0-.254.71-.239 1.653.02 1.229.081 1.484.239.992.308-.962.308-2.646 0-2.646zm6.642 0c-.197 0-.153.81.146 2.645.141.87.165.888.385.309.285-.751-.111-2.955-.53-2.955zm10.94.043c-.059-.005-.14.13-.237.438-.104.329-.334.478-.62.403-.395-.103-.44.063-.355 1.284.086 1.21.133 1.313.344.748.186-.495.3-.567.468-.297.145.236.286-.112.41-1.015.13-.945.108-1.55-.01-1.56zm-18.808.034c-.199.013-.213.469-.141 1.885.05.965.197 1.678.33 1.595.308-.19.32-3.214.015-3.403a.447.447 0 0 0-.184-.077h-.02zm-29.497.187c-.273 0-.314.625-.057.881.347.347.565.168.43-.352-.077-.291-.244-.53-.373-.53zm59.697.633c-.135.004-.172.21-.037.563.09.233.29.347.443.252.192-.119.18-.291-.036-.552-.144-.174-.269-.257-.356-.263h-.014zm-47.23.16c-.294 0-.365 1.134-.088 1.411.299.3.353.205.353-.617 0-.436-.12-.793-.265-.793zm-20.64 1.06c-.25 0-.527.441-.527.94 0 .356.106.646.236.646.262 0 .658-1.311.456-1.513a.229.229 0 0 0-.165-.074zm138.55.307c-1.128-.003-2.384.078-3.825.234-3.462.376-3.758.45-3.586.898.175.455-1.154 1.206-2.134 1.206-.715 0-.853.244-.396.7.194.195.071.667-.408 1.569-.573 1.077-.673 1.574-.609 3.016l.077 1.726.992-.058c.546-.032.992.038.992.155 0 .118-.326 1.216-.725 2.44-.484 1.488-.725 2.795-.727 3.945-.002 1.539.099 1.873.962 3.175l.965 1.456-.138 2.528c-.232 4.225.907 5.38 3.032 3.074.58-.629 1.114-1.313 1.188-1.521.308-.87.43.025.212 1.563-.129.911-.319 3.032-.423 4.714-.147 2.389-.112 3.104.157 3.27.274.17.22.506-.265 1.627-.936 2.165-1.308 3.817-1.5 6.663-.12 1.805-.283 2.645-.53 2.74-.38.146-.499.874-.142.874.774 0 1.053-.765 1.206-3.307.178-2.955.696-5.182 1.633-7.032l.628-1.24 1.269.253c.697.14 2.407.186 3.8.103l2.53-.15.295 2.512c.366 3.125 1.155 4.924 3.03 6.907.925.98 1.373 1.664 1.315 2.013-.058.346.034.488.265.412.808-.266.476-1.168-.984-2.675-1.722-1.779-2.624-3.572-3.014-5.998-.428-2.661-.373-3.375.276-3.581.464-.147.53-.316.39-1.01-.093-.459-.24-1.684-.33-2.723-.149-1.754-.12-1.9.392-2.064.304-.096.626-.408.716-.692.206-.648-.485-3.036-1.179-4.075l-.523-.783 1.378-.672c1.76-.86 3.325-2.896 4.28-5.574.934-2.62 1.982-7.432 1.728-7.93-.112-.219-.29-.921-.396-1.561-.362-2.18-1.581-4.26-2.499-4.26-.261 0-1.3-.478-2.307-1.061-2.141-1.24-4.185-1.797-7.068-1.806zm.567.527c1.021-.005 1.737.1 2.589.348 1.814.528 4.368 1.77 4.863 2.367.19.23.622.419.958.419 1.103 0 2.5 2.759 2.5 4.936 0 .486.11.884.243.884.283 0-.162 1.816-.565 2.312-.147.18-.205.49-.129.688.167.436-.932 3.895-1.492 4.694-.22.313-.345.71-.279.882s-.18.596-.549.942-.67.766-.67.934c0 .167-.275.563-.611.879h-.001c-.816.767-.887.734-.76-.35.072-.62-.001-.927-.22-.927-.506 0-.149-1.97.508-2.804.724-.92.721-2.077-.006-2.587-.465-.325-.531-.557-.385-1.338.177-.942.175-.944-.79-.944-.699 0-.928-.098-.83-.355.075-.195.04-.512-.08-.704-.173-.281-.477-.237-1.546.223-1.673.72-3.008.77-2.897.109.06-.353-.08-.447-.583-.394-1.547.162-3.636.136-3.936-.049-.233-.144-.244-.295-.04-.542.224-.27-.025-.38-1.183-.525-.807-.1-1.83-.103-2.273-.006-.685.15-.793.104-.722-.312.072-.418-.074-.478-1.04-.417l-1.125.071v-1.473c0-1.433.431-2.68 1.249-3.613.215-.245.319-.562.23-.705-.087-.142.348-.425.967-.629.636-.21 1.234-.61 1.375-.92.27-.595 1.005-.725 5.864-1.04.52-.033.966-.052 1.366-.054zm-9.113 9.484h1.933c1.664 0 1.91.058 1.77.423-.251.656.407.891 2.51.895 1.07.002 1.869.11 1.788.241-.393.636 1.911.74 3.555.16 1.346-.475 1.405-.48 1.172-.102-.242.39.372.755 1.278.76.704.004.724.043.561 1.062-.151.947-.111 1.059.377 1.059.913 0 1.067 1.608.186 1.946-.55.211-1.1 3.011-.712 3.631.433.693.382 1.065-.25 1.824-.523.628-.682.657-4.026.718-2.284.042-3.9-.056-4.699-.286-1.886-.543-3.981-1.591-5-2.5l-.926-.827.692-.004c.38-.002.995-.243 1.365-.534.899-.707 1.165-.669 1.63.233.217.419.587.836.823.926.654.25 1.443.196 1.443-.1 0-.146-.119-.265-.264-.265s-.267-.268-.269-.595c-.002-.328-.091-.727-.198-.887-.32-.48-1.4-.95-1.813-.792-.213.082-.602.014-.866-.15-.688-.43-1.74-.08-2.095.698-.415.91-.998.839-1.348-.166-.447-1.283-.366-2.002.542-4.789zm.818 10.979c.228.002.84.2 1.503.494.786.348 1.645.706 1.91.796.447.152.432.252-.223 1.456-.387.71-1.043 1.664-1.458 2.118-.861.943-1.103 1-1.612.387-.367-.443-.54-4.896-.204-5.232.013-.013.042-.02.084-.02zm5.002 1.751c.041-.002.138.12.315.351.217.283.394.61.394.728 0 .187-.498.321-.55.148-.01-.037-.068-.364-.128-.728-.056-.337-.079-.497-.031-.499zm1.635.235c.363 0 .661.114.661.255 0 .332-.94.834-1.156.617-.393-.393-.122-.872.495-.872zm1.54.268h.03c.202.008.313.192.226.525-.077.293-.36.53-.637.53-.571 0-.64-.282-.18-.742.205-.205.406-.307.56-.313zm3.249.035c.145-.002.241.008.264.031.154.154.623 4 .502 4.12-.054.054-1.02-.274-2.146-.73-1.373-.553-2.136-.738-2.314-.56-.147.147-.215.311-.152.367.171.15 3.45 1.684 4.241 1.984.639.242.698.41.85 2.367.089 1.159.196 2.26.239 2.448.05.222-.477.46-1.51.682-.874.188-2.451.347-3.506.353l-1.919.012.026-3.374c.015-1.855.104-4.028.199-4.828l.172-1.455 1.073.078c.91.066 1.126-.021 1.42-.57.259-.483.65-.694 1.531-.826a8.282 8.282 0 0 1 1.03-.098zm-6.813.965h.018c.106.004.252.062.465.156.628.28.654.377.506 1.856-.086.858-.156 2.97-.156 4.696 0 3.363.02 3.322-1.389 2.954-.532-.14-.619-1.15-.171-1.986.202-.378.206-.598.014-.717-.266-.164-.029-4.103.377-6.263.093-.495.148-.69.336-.696zm8.17.012c.134.01.386.595.736 1.75.34 1.12.344 1.366.03 1.68-.498.498-.611.229-.818-1.932-.097-1.01-.074-1.508.052-1.498zm-110.32-23.24c-.108.002-.232.09-.347.276-.094.153-.106.45-.024.662.238.621.693.44.693-.277 0-.423-.14-.662-.322-.66zm-25.035 1.057c-.284 0-.563.902-.568 1.84-.005.922.424.352.637-.847.1-.561.07-.993-.069-.993zm-1.322.117a.1.1 0 0 0-.044.016c-.296.183-.362 1.534-.088 1.807.31.31.353.2.353-.897 0-.588-.086-.94-.221-.926zm14.01.949c-.244.01-.552.648-.556 1.25-.002.327.106.595.24.595.297 0 .668-1.557.428-1.797a.147.147 0 0 0-.112-.049zm-1.015.039c-.05-.003-.12.15-.253.473-.15.359-.21.885-.135 1.171.125.48.153.472.368-.11.128-.346.19-.873.136-1.17-.043-.238-.072-.362-.116-.364zm45.944.711c-.157.01-.168.467-.03 1.365l.181 1.185.083-1.152c.045-.634.016-1.22-.066-1.301-.067-.067-.124-.1-.168-.097zm-20.48.394c-.091 0-.2.007-.328.02-.562.06-.767.264-.942.94-.123.475-.16 1.028-.084 1.228.23.6.95.427.959-.23.005-.328.183-.827.397-1.11.47-.62.492-.845-.002-.848zm18.848.436c-.229 0-.227.081.01.318.174.174.317.63.317 1.014 0 .383.09.788.199.899.109.11.235-.102.28-.473.096-.776-.354-1.758-.806-1.758zm-9.016.94c-.088.01-.085.317-.047 1.062.059 1.17.049 1.198-.1.267-.092-.57-.334-1.092-.538-1.16-.3-.098-.339.12-.202 1.115.093.68.3 1.483.462 1.784.406.759.803.285.956-1.14.08-.758-.008-1.322-.26-1.66-.132-.175-.218-.275-.271-.268zm-18.766 1.19c-.35.02-.463 1.034-.295 2.897.346 3.836.25 6.137-.294 7.058-.266.451-.413 1.009-.325 1.238.133.347.464.39 1.958.254.989-.09 1.882-.292 1.984-.45.103-.157-.064-.553-.371-.88-.74-.786-1.248-3.516-1.26-6.757-.007-1.748-.108-2.58-.312-2.58-.166 0-.461-.208-.656-.462-.169-.22-.312-.324-.43-.318zm.202 1.763c.016-.001.034.023.055.076.083.218.237.456.342.53.105.072.31 1.625.455 3.451.167 2.11.423 3.629.702 4.167l.438.848H48.4c-1.062 0-1.2-.062-1.037-.463.485-1.195.556-1.938.37-3.903-.213-2.253-.254-4.692-.099-4.706zm-34.485.34c-.454 0-1.673 1.64-1.518 2.043.08.21.16 1.117.176 2.014.03 1.568.04 1.59.25.574.12-.582.225-1.439.233-1.903.009-.465.266-1.269.571-1.786.305-.518.435-.941.288-.941zm-3.3.539c-.177.005-.052.233.278.508.555.464.587.64.43 2.439-.21 2.379.276 2.209.533-.187.149-1.388.1-1.674-.375-2.183-.3-.323-.69-.582-.867-.577zm71.312.592c-.142.001-.187.267-.118.735.078.53.212.73.377.564.316-.316.177-1.161-.212-1.29a.137.137 0 0 0-.047-.008zm-72.338.23c-.054.002-.096.014-.122.039-.09.091-.095.349-.008.574.16.417 1.496.585 1.496.188 0-.268-.984-.806-1.366-.8zm16.593.32c-.074-.004-.162.1-.298.286-.308.422-.422.442-.793.134-.397-.33-.42-.132-.286 2.408.08 1.522.152 2.797.16 2.834.007.036.567.066 1.245.066 1.211 0 1.224-.01.756-.526-.383-.423-.446-.808-.325-1.978.082-.8.027-1.898-.123-2.442-.15-.545-.228-.779-.336-.783zm-.79 1.562c.035 0 .073.002.114.005.446.033.531.23.534 1.24.002.66.076 1.469.163 1.796.088.328.042.596-.101.596-.237 0-.574-1.021-.978-2.96-.107-.519-.072-.67.234-.677h.034zm117.15-1.43c-.058 0-.09.01-.09.032 0 .107.386.32.86.471.908.292 1.683.405 1.497.22-.222-.223-1.86-.722-2.267-.723zm-102.22.235c-.093.009-.197.245-.301.73-.314 1.467-.238 2.598.206 3.088.24.267.449.485.463.485.013 0 .003-.953-.023-2.117-.032-1.397-.166-2.175-.336-2.186h-.009zm1.697.159c-.326.016-1.164.768-1.029.987.27.436.875.262 1.054-.303.096-.302.127-.597.068-.655a.11.11 0 0 0-.078-.03h-.015zm-2.68.087h-.005c-.01.002-.022.012-.033.03a.52.52 0 0 1-.6.192c-.26-.1-.386.029-.386.395 0 .36.126.494.377.397.304-.116.346.078.218 1.01-.099.725-.044 1.269.149 1.461.168.169.342.307.386.307.043 0 .077-.923.075-2.05-.002-1.035-.078-1.738-.18-1.742zm109.64 1.273c-.11.003-.185.055-.185.146 0 .141.178.256.397.256.218 0 .397-.047.397-.104 0-.057-.179-.173-.397-.256a.586.586 0 0 0-.212-.042zm-7.011 1.227c-.2.007-.476.404-.533.981-.046.462.031.84.17.84.305 0 .574-.641.574-1.367 0-.322-.091-.458-.211-.454zm-81.361.253c-.093.002-.118.11-.023.355.095.248.022.42-.179.42-.204 0-.1.252.259.635.333.354.67 1.144.765 1.785l.167 1.151.175-1.323c.13-.987.065-1.519-.258-2.095-.307-.548-.73-.932-.906-.928zm1.635.546c-.04 0-.065.006-.07.017-.023.044.001.943.053 2 .108 2.207.58 2.354.58.18 0-1.103.092-1.44.397-1.44.657 0 .446-.459-.297-.645-.285-.072-.542-.114-.663-.112zm5.924.599h-.009c-.16.021-.435.553-.825 1.596-.798 2.133-.917 3.716-.444 5.922.228 1.064.415 2.824.415 3.91 0 2.156.171 1.91-1.852 2.65-.824.3 1.12.938 3.652 1.196 1.404.144 2.605.314 2.67.378.216.217 2.112.119 2.258-.118.225-.364-.611-.929-1.807-1.22l-1.085-.265-.017-3.175c-.01-1.746.07-3.949.177-4.895.108-.945.113-2.196.012-2.778l-.183-1.058-.6 1.645c-.687 1.88-.964 2.163-1.37 1.405-.336-.629-.797-.71-.797-.14 0 .219-.133.397-.296.397-.186 0-.234-.269-.129-.727.092-.4.243-1.669.337-2.82.103-1.271.068-1.906-.107-1.903zm-.902 4.127c.176 0 .303.43.303 1.026 0 .589.17 1.166.397 1.355.325.27.397.252.397-.1 0-.55.433-.553.74-.005.245.439.438.27 1.584-1.387.293-.423.32-.326.195.7-.286 2.324-.475 7.082-.308 7.748.122.485.45.766 1.162.994.546.174 1.106.421 1.244.55.253.233-.133.251-1.442.066-.364-.051-1.651-.227-2.86-.39-2.002-.27-2.152-.331-1.67-.67.708-.495.968-2.368.594-4.277-.498-2.541-.681-5.61-.336-5.61zm80.368-3.968c-.378 0-.69.547-.69 1.211 0 .607.717.43.891-.22.233-.867.208-.991-.201-.991zm-15.133 3.513a7.211 7.211 0 0 0-1.005.068c-1.995.268-3.072.791-3.397 1.652-.277.735-.313.746-2.459.746-3.038 0-4.446.722-5.526 2.834-.74 1.444-.757 1.564-.44 2.895.183.764.291 1.718.241 2.12l-.09.734-.973-.695c-.535-.382-1.1-.615-1.257-.518-.4.247-.356.684.052.527.186-.07 1.585.842 3.11 2.03l2.771 2.158-.086 1.352a54.496 54.496 0 0 1-.334 3.173c-.204 1.493-.18 1.874.136 2.117.321.248.341.686.122 2.678-.164 1.49-.404 2.49-.641 2.672-.209.16-.31.36-.225.445.317.317.842-.134.984-.845.08-.405.227-1.617.324-2.695l.178-1.958h4.65l.444 2.302c.245 1.266.368 2.546.273 2.844-.102.322-.054.542.119.542.54 0 .588-.762.165-2.62-.481-2.119-.538-3.382-.156-3.51.169-.056.128-.754-.113-1.94a50.653 50.653 0 0 1-.558-3.357l-.18-1.506.905-.378c.498-.208 1.391-.948 1.986-1.644l1.082-1.265.724.57c.398.313.946.57 1.217.57.402 0 .494-.204.494-1.093 0-.6.432-2.372.961-3.936 1.112-3.29 1.078-4.228-.205-5.69-.798-.909-1.906-1.371-3.293-1.379zm-.302.453c1.25-.004 2.406.393 3.228 1.168.814.769.934 1.042.934 2.141 0 .716-.35 2.28-.81 3.618-.445 1.297-.891 2.831-.992 3.41-.179 1.032-.195 1.045-.778.636-.705-.494-.793-.974-.132-.726.405.152.417.117.1-.274-.2-.245-.5-.446-.669-.446-.194 0-.27-.367-.21-1.01.126-1.315-.314-2.908-1.14-4.125-.364-.535-.661-1.142-.661-1.348 0-.612-1.102-1.454-1.902-1.454-1.027 0-.93-.38.237-.935a6.601 6.601 0 0 1 2.795-.655zm-3.173 1.912c.423-.001.965.276 1.388.743.613.678.08.687-1.17.021-.565-.301-.785-.548-.592-.667a.706.706 0 0 1 .374-.097zm-3.581.475c1.984-.016 4.078.59 5.36 1.748 1.27 1.148 1.68 2.329 1.53 4.405-.107 1.48-.196 1.672-1.154 2.482-.571.483-1.127.88-1.237.882-.358.007-.207-.562.331-1.247.291-.37.515-.924.498-1.232-.024-.446-.055-.466-.151-.096-.067.255-.208.463-.313.463-.357 0-.828-.632-.828-1.112 0-.262-.119-.476-.264-.476s-.265.13-.265.288c0 .698-3.433-.365-4.998-1.546-.84-.635-.867-.7-.416-1.03.925-.677.24-.55-1.465.27-.946.455-1.72.966-1.72 1.136 0 .17-.09.398-.198.507-.11.11-.198-.327-.198-.97.001-1.253.727-2.73 1.68-3.417.97-.701 2.36-1.044 3.807-1.055zm-2.926 4.123c.296.004.553.195 1.118.65 1.108.889 3.38 1.838 4.401 1.838.897 0 1.973.738 1.973 1.354 0 .274-.11.498-.244.498s-.322.356-.417.79c-.096.435-.479 1.03-.85 1.323-.905.711-3.199.758-3.411.07-.285-.92-.566-1.258-1.115-1.34-.412-.062-.604.093-.728.587l-.168.67-.991-.505c-1.753-.894-2.202-2.133-1.555-4.292.239-.797.521-1.126 1.212-1.415.351-.147.573-.23.775-.228zm1.464 5.408c.112-.005.23.078.339.255.09.145-.01.51-.222.813-.443.632-.749.341-.528-.503.095-.363.247-.557.41-.565zm6.704.1c.123-.001.156.143-.004.402-.096.155-.301.282-.456.282-.176 0-.156-.152.053-.403.159-.192.31-.28.406-.281zm-4.92 1.751h.14c1.643.011 2.372.564 2.617 1.986.1.576.243 1.36.318 1.74.125.636.037.719-1.052.993-1.171.295-3.036.352-3.921.119-.324-.085-.422-.32-.343-.829.06-.39.177-1.222.26-1.846.232-1.762.565-2.15 1.98-2.163zm2.764 5.169h.04c.39.008.537.182.594.68.077.664 0 .712-1.609.992-1.699.296-2.216.327-2.705.164a13.433 13.433 0 0 0-.956-.24c-.57-.125-.67-.267-.564-.817.122-.643.201-.666 2.345-.712 1.22-.026 2.486-.056 2.813-.066l.042-.001zm15.9-18.406c-.765 0-.869.386-.204.758.536.3.865.157.865-.377 0-.23-.262-.381-.661-.381zm-126.58 1.31c-.934.007-1.97.167-2.29.424-.497.397-.495.402.063.132.318-.153.735-.27.927-.258.266.016.27.052.017.154-.182.074-.33.237-.33.363s.366.1.814-.056c.549-.191 1.002-.198 1.391-.02.416.19.666.168.894-.076.247-.264.227-.372-.09-.494-.312-.12-.836-.172-1.396-.168zM29 139.882c-.355.004-.759.169-1.294.495-.793.484-1.107 1.255-.683 1.678.426.427 2.199.157 2.894-.441l.72-.619-.573-.572c-.354-.354-.667-.534-1.03-.541H29zm-.175.432c1.121 0 1.45.533.704 1.143-.681.557-2.015.684-2.302.22-.275-.446.8-1.363 1.597-1.363zm-9.172-.246a2.492 2.492 0 0 0-.367.04c-.426.067-1.475.11-2.331.093-.986-.018-1.423.056-1.191.203.202.128.903.237 1.557.24.868.007 1.083.078.794.265-.649.42.184.32 1.043-.124.698-.361.761-.352.888.132.075.287.197.521.27.521s.047-.327-.06-.727c-.133-.49-.244-.648-.603-.643zm27.85.049c-.63-.003-1.224.225-1.295.726-.079.556.012.595 1.39.595 1.074 0 1.473-.098 1.473-.364 0-.612-.81-.954-1.568-.957zm-.438.263c.81 0 1.477.252 1.477.558 0 .242-.83.269-1.654.053-.686-.179-.561-.61.177-.61zm-32.731-.095c-.179.007-.28.169-.472.527-.197.37-.69.907-1.096 1.196-.405.289-.737.644-.737.79 0 .42 1.6-.835 1.9-1.49.26-.574.314-.582 1.476-.233.663.2 1.455.351 1.76.337s.102-.133-.448-.262-1.338-.41-1.749-.623c-.31-.16-.495-.248-.634-.242zm62.64.47c-.012.003-.008.052.014.154.08.364.29 2.21.467 4.101.563 6.007.27 8.876-1.006 9.88-.36.283-.657.676-.659.874-.001.197-.413.624-.913.948-.501.325-1.04.83-1.197 1.125-.224.42-.205.535.09.535.206 0 .431-.217.5-.482s.56-.687 1.09-.938c.53-.252.963-.612.963-.8s.241-.562.535-.829c.295-.266.724-1.133.955-1.927.587-2.02.278-9.81-.469-11.807-.198-.53-.337-.837-.37-.833zm-40.06.467c-1.4-.002-2.341.655-3.076 2.106-.39.77-1.064 1.732-1.498 2.137-.433.404-.665.736-.514.736.468 0 2.163-1.758 2.163-2.243 0-.334.127-.408.463-.27 1.141.47 1.447.4.605-.138l-.917-.586.733-.63c.427-.368 1.03-.615 1.446-.592l.713.04-.708.109c-.39.06-.854.283-1.032.497-.279.336-.224.352.395.117.395-.15 1.276-.285 1.957-.3 1.058-.022 1.143-.06.579-.26-.53-.188-.452-.211.397-.117 1.459.161.568-.34-.981-.552a5.401 5.401 0 0 0-.725-.054zm-15.75.515c-.11 0-.153.029-.093.092.099.103.634.35 1.19.548 1.302.464 2.004.469 1.145.008-.583-.313-1.848-.653-2.242-.649zm34.358.524c-1.068.007-1.954.262-1.954.78 0 .144.298.067.66-.171.683-.447 1.662-.394 3.508.19 1.15.363 1.083.68-.216 1.029-.84.226-1.362.205-2.382-.094-1.474-.432-1.64-.374-.577.203 1.134.615 3.385.536 4.063-.142.466-.466.499-.613.198-.892-.648-.602-2.09-.911-3.3-.903zm-35.657.14h-.122c-.767.008-1.364.113-1.364.344 0 .098.327.308.727.466.953.377 1.46.409 1.257.08-.09-.146-.342-.265-.56-.265s-.33-.109-.249-.24c.086-.14.736-.085 1.537.128 1.627.433 2.138.469 1.93.133-.24-.388-1.89-.643-3.156-.647zm20.622.228c-.031 0-.056.02-.073.066-.065.182-.46.33-.875.33s-.83.12-.92.266.042.264.293.264c.964 0 .055.341-1.407.528-1.489.19-1.499.197-.34.224.654.015 1.662-.184 2.24-.444l1.05-.472.406.809c.222.445.642.85.933.901 1.161.203.99.57-.19.407-1.265-.173-2.588.02-2.588.376 0 .112.55.406 1.222.655 1.018.378 1.167.387.894.058-.18-.218-.512-.396-.737-.396-.225 0-.323-.086-.218-.19.249-.25 2.078-.098 2.383.197.382.368-.374 1.834-1.153 2.237-.39.202-.864.553-1.053.781-.287.346-.277.415.065.415.65 0 1.983-1.27 2.325-2.216l.313-.866.946.482c1.234.63 3.364.621 5.19-.02l1.431-.504.283.811c.399 1.144.612.748.313-.582-.326-1.452-.867-2.014-2.283-2.37-1.605-.405-3.073-.365-4.503.12-.668.227-1.583.376-2.033.331-.822-.082-.936-.205-1.54-1.669-.135-.327-.281-.527-.374-.529zm6.334 1.729 1.116.13c2.307.267 3.265 1.237 1.542 1.56-.609.115-.869.29-.78.524.089.23-.156.409-.706.519-2.566.513-5.456-.64-4.498-1.794.433-.521.846-.548.652-.042-.126.326.048.327 1.294.001 1.027-.268 1.798-.309 2.69-.142 1.469.274 1.274-.098-.256-.488zm-32.195-1.324c-.72.004-1.288.063-1.367.19-.068.11.617.16 1.522.112s2.056.031 2.556.175c1.29.37 1.573.327.645-.098-.522-.239-2.154-.386-3.356-.38zm134.01 1.153a.202.202 0 0 0-.092.032c-.148.091-.2.277-.116.412.227.367.386.299.386-.166 0-.17-.069-.275-.165-.278h-.013zm-.087 1.75a.265.265 0 0 0-.265.264c0 .145.12.264.265.264s.265-.119.265-.264a.265.265 0 0 0-.265-.265zm-104.05.013c-.126 0-.162.083-.059.25.09.146.365.263.61.261.387-.004.394-.04.052-.26-.26-.168-.477-.251-.603-.251zm-8.87.076c-.452 0-.892.073-1.458.218l-1.372.354 2.778.146c1.528.08 2.956.169 3.175.195.946.114-.454-.472-1.803-.754-.513-.107-.92-.16-1.32-.16zm84.79.034c-.295.002-.705.486-.705.967 0 .273.115.497.255.497.362 0 .861-1.016.66-1.342a.235.235 0 0 0-.21-.122zm-98.18.295c-2.446.013-3.407.69-4.11 2.834-.18.552-.913 1.588-1.627 2.302-.714.715-1.298 1.364-1.298 1.444 0 .266.388.147 1.258-.383.928-.566 1.914-1.962 1.916-2.713 0-.573-.06-.577 1.454.092 1.637.725 4.735.625 6.405-.206 1.2-.597 1.4-.556 1.406.29.002.303.101.704.22.891.219.346 5.584 2.01 5.795 1.799.286-.286-2.343-1.283-4.211-1.595-.888-.149-.986-.253-1.15-1.222-.37-2.188-2.52-3.494-5.817-3.532l-.242-.001zm-.024.382 1.516.13c1.507.13 3.379.817 3.379 1.241 0 .122-.3.337-.668.477-.368.14-.737.432-.82.65-.084.217-.587.516-1.118.663-.531.148-1.323.264-1.76.258-.983-.012-2.872-.665-2.996-1.035-.05-.151-.26-.274-.466-.274-.557 0-.453-.998.137-1.314.788-.421.942-.327.415.255-.436.482-.217.79.238.335.248-.248 1.496-.407 3.266-.417 1.578-.009 1.574-.171-.017-.642zm25.74-.24a.726.726 0 0 0-.257.052c-.21.085-.148.147.16.16.279.011.435-.051.347-.14-.05-.049-.143-.073-.25-.071zm75.62.101c-.154.003-.219.156-.307.508-.09.358-.084.78.012.936.22.356.668.1.668-.38 0-.197.148-.408.33-.469.204-.068.106-.23-.258-.425-.197-.105-.331-.166-.43-.17h-.015zm24.863.926c-.064 0-.19.119-.28.264-.09.146-.037.265.117.265s.28-.12.28-.265c0-.145-.053-.264-.117-.264zm-137.16.01c-.547.006-1.255.456-2.254 1.4-1.511 1.429-1.757 1.878-1.16 2.119 1.066.43 2.352-.12 3.6-1.54.924-1.055.973-1.213.514-1.672-.205-.205-.433-.309-.7-.306zm.002.322c.017 0 .031 0 .044.005.638.213.425.809-.688 1.921-1.202 1.203-2.573 1.629-2.573.8 0-.447 2.69-2.704 3.217-2.726zm40.877.197c-.894 0-.27.317 1.872.95 2.454.727 2.463.728 1.796.224-.59-.445-2.866-1.174-3.668-1.174zm-27.482.297a.726.726 0 0 0-.257.051c-.211.085-.149.147.16.16.278.012.435-.051.347-.139-.05-.05-.144-.074-.25-.072zm25.838.634c-.828-.003-1.502.085-1.714.296-.28.281.234.55 2.392 1.248l.463.15c.037.012.066-.04.066-.116 0-.074-.387-.372-.86-.66l-.86-.525h1.133c.623 0 1.56.178 2.083.396 1.062.444 1.679.508 1.679.174 0-.516-2.562-.958-4.382-.963zm97.928.127c-.065 0-.19.12-.28.265-.09.145-.038.264.116.264s.28-.119.28-.264c0-.146-.052-.265-.116-.265zm1.591.023c-.103-.005-.152.114-.152.355 0 .207.314.624.697.926.743.584 1.42.72 1.42.284 0-.146-.17-.265-.378-.265-.207 0-.612-.297-.898-.661-.331-.422-.556-.633-.689-.639zm-69.188.037h-.017c-.143.01-.268.192-.268.576 0 .586.337 2.279.715 3.598.093.323.166.304.393-.1.2-.358.181-.801-.071-1.588-.193-.6-.356-1.378-.363-1.728-.01-.48-.21-.752-.389-.758zm-36.085.493c-.229 0-.47.008-.73.022-2.95.167-2.707.61.362.66 1.484.025 3.055.163 3.492.308.436.145.942.274 1.124.287.745.05.234-.232-1.41-.779-1.071-.356-1.844-.499-2.838-.498zm103.39.859c-.074.004-.123.06-.123.16 0 .154.119.28.264.28s.265-.052.265-.116c0-.065-.12-.19-.265-.28a.266.266 0 0 0-.14-.044zm-120.82 1.639c-2.558.014-2.778.418-.703 1.267.92.376 1.768.69 1.886.696.45.028-.114-.472-1.07-.947l-.996-.495 1.119-.08c.708-.052 1.57.118 2.349.462 1.288.57 2.485.715 2.485.3 0-.5-2.784-1.195-4.814-1.203h-.256zm34.54.407c-1.339.003-1.92.148-3.03.71-1.255.635-1.447.838-1.52 1.604-.102 1.053.267 1.557 1.373 1.878 2.095.608 7.864-.143 9.621-1.252.617-.39 1.174-.845 1.239-1.013.21-.55-.488-1.115-1.566-1.265-.797-.11-.891-.091-.382.08 1.163.388 1.858.843 1.693 1.11-.09.146-.448.027-.836-.278-.374-.293-.895-.534-1.16-.534-.59 0-1.829.544-1.829.804 0 .464.865.833 1.716.734 1.462-.171 1.09.199-.724.718-2.154.618-7.208.822-8.135.33-.979-.521-.875-1.495.238-2.245 1.376-.928 2.784-1.198 5.435-1.043 1.76.103 2.08.08 1.206-.088-.655-.126-2.033-.238-3.062-.248l-.278-.002zm5.681 1.402c.124 0 .24.015.338.046.669.212.623.554-.1.748-.88.236-1.47.201-1.655-.098-.183-.297.745-.697 1.417-.696zm-47.415-1.093a7.116 7.116 0 0 0-1.415.145c-.825.173-1.59.405-1.7.516-.109.112 1.074.225 2.63.253 1.555.028 3.363.164 4.018.302 1.835.387 2.09.319.858-.229-1.442-.64-2.937-.98-4.292-.987h-.099zm23.606.353c-4.369.004-5.744.701-6.459 3.16-.535 1.84-1.327 2.985-2.706 3.91-.615.414-1.118.862-1.118.998 0 .348.15.316 1.3-.27 1.28-.653 2.301-1.857 2.697-3.176l.307-1.024.957.494c2.232 1.153 6.09 1.14 8.728-.026 1.493-.66 1.621-.648 1.621.158 0 .907.667 1.862 1.535 2.198.393.153 1.724.476 2.959.719 1.234.242 2.514.543 2.844.669.33.125.6.165.6.088 0-.349-3.605-1.775-5.16-2.041l-1.73-.297-.516-1.73c-.953-3.191-1.812-3.797-5.426-3.828l-.433-.002zm-.519.438c1.217-.003 2.443.171 3.449.527.937.332 1.75.75 1.806.93.168.533-1.471 1.824-2.902 2.287a8.217 8.217 0 0 1-4.391.169c-1.041-.247-1.401-.529-.693-.544.336-.007.207-.14-.383-.396-1.085-.471-1.178-.477-.931-.056.106.182-.066.103-.382-.174-.932-.817-.732-1.44.66-2.056 1.021-.452 2.388-.683 3.767-.687zm35.966.031c-.099.007-.232.187-.472.577-.267.433-.566 1.055-.665 1.383-.212.707.32.831.567.132.09-.255.34-.667.553-.916.224-.26.313-.652.21-.92-.063-.163-.115-.253-.183-.256a.08.08 0 0 0-.01 0zm-35.795.351h-.086c-1.04.01-2.264.224-3.205.629-.744.32-1.352.675-1.352.79 0 .352.736.124 1.355-.42.518-.455.567-.461.418-.052-.207.567-.079.578.708.063.717-.47 2.3-.599 3.604-.293.882.207.904.195.473-.252-.3-.312-1.035-.463-1.915-.465zm3.452.653c-.087.007.003.13.239.314.47.365.489.48.169 1.022-.348.59-.343.595.128.144.526-.505.3-1.243-.448-1.465a.263.263 0 0 0-.088-.015zm-1.274.77c-.192 0-.475.083-.736.252-.323.208-.288.257.183.26.319.002.653-.115.743-.26.104-.169.003-.253-.19-.253zm3.136 4.576c-.204 0-.38.014-.522.042-1.158.228-2.292.686-2.292.925 0 .233 2.417 1.318 3.572 1.603.437.107.824.207.86.222s.066-.081.066-.214c0-.132-.625-.56-1.389-.949l-1.389-.708 2.287.107c1.55.072 2.506.25 2.967.552.724.474 2.287.61 2.287.2 0-.612-4.481-1.787-6.447-1.78zm-29.986.479h-.03c-.099.004-.248.03-.446.076-.437.102-.913.304-1.059.45-.176.176 0 .203.53.08.436-.102.912-.305 1.058-.45.103-.104.086-.156-.053-.156zm-8.248.523c-.054.003.019.103.188.308.195.236.85.54 1.455.677.606.136 1.459.25 1.895.254.443.004.073-.15-.837-.347-.898-.196-1.91-.503-2.25-.684-.26-.14-.405-.21-.451-.208zm28.89.23c-1.281 0-3.458.475-3.658.797-.068.111.856.15 2.056.087 1.477-.079 3.075.05 4.958.398 1.528.282 3.076.519 3.44.525l.661.012-.661-.273c-1.389-.57-5.675-1.546-6.796-1.546zm-24.394.294a7.88 7.88 0 0 0-.897.044c-.47.059-.02.106.998.105 1.019-.001 1.403-.05.854-.107a9.578 9.578 0 0 0-.955-.042zm55.15.5c-2.261 0-3.887.108-3.984.264-.106.172 1.232.265 3.821.265 2.48 0 3.985-.1 3.985-.265 0-.164-1.45-.264-3.821-.264z"/></svg>
