<svg xmlns="http://www.w3.org/2000/svg" width="600" height="482.99" viewBox="0 0 158.75 127.79"><path fill="#fff" d="M0 0h158.75v127.79H0z"/><path d="M43.152 2.95c-9.023.026-10.304.267-11.788 1.1-1.355.764-3.168 3.42-3.585 5.257-.503 2.212-.623 6.482-.279 9.913.395 3.937.64 4.91 1.685 6.656.666 1.114 1.125 1.535 2.25 2.067 2.57 1.216 4.502 1.426 14.603 1.587 5.166.082 10.929.24 12.807.347 3.356.193 3.426.21 4.034.97.34.425.619 1.021.62 1.324 0 .304.08.63.177.728.515.515.657.03.486-1.664-.224-2.235-.604-2.077 5.291-2.195 4.792-.096 5.947-.422 7.633-2.159 1.924-1.98 2.797-4.152 2.955-7.346.455-9.206-.01-11.959-2.326-13.766-1.543-1.203-2.14-1.515-4.143-2.153-1.68-.537-2.322-.557-19.73-.64-2.109-.011-4.218-.02-6.326-.025a798.55 798.55 0 0 0-4.364 0zm102.14.416c-.285.014-.395.238-.465.87a10.96 10.96 0 0 1-.354 1.72c-.212.673-.244.554-.21-.794.031-1.226-.047-1.588-.342-1.588-.313 0-.395.732-.455 4.06-.058 3.2-.002 4.035.264 3.946.186-.06.468-.876.627-1.81.313-1.85.533-1.69.714.513.064.78.24 1.494.39 1.588h.001c.26.16 7.467.129 7.63-.034.042-.042.104-1.91.137-4.154.044-2.938-.026-4.106-.25-4.18-.204-.069-.325.292-.35 1.04l-.037 1.148-.16-1.058c-.153-1-.218-1.063-1.154-1.14l-.992-.083v6.91h-1.852V3.559l-1.257-.062a32.9 32.9 0 0 1-1.752-.123.785.785 0 0 0-.133-.007zm-4.276.102c-.727-.034-1.524.07-2.093.364-.95.49-1.866 2.347-1.866 3.784 0 .853.161 1.249.727 1.783.408.385.554.652.331.606-.218-.044-.397.097-.397.314 0 .222.346.47.794.57.437.095 1.496.156 2.354.134 1.18-.03 1.631-.155 1.852-.511.427-.688-.19-.975-2.105-.98-.88-.002-1.806-.154-2.055-.336-1.023-.747-.96-3.352.104-4.315.647-.585 2.756-.823 3.299-.373.324.27.478.272.73.016.555-.563-.463-1-1.675-1.056zm-96.97.015a745.12 745.12 0 0 1 4.235 0c1.78.004 3.76.013 5.962.026 18.618.105 18.333.085 21.276 1.51 1.543.746 3.213 2.59 3.64 4.022.235.782.336 2.753.32 6.175-.03 5.696-.358 7.548-1.756 9.86-1.658 2.742-3.653 3.492-9.324 3.502-4.176.008-4.811.11-5.037.822-.178.56-.254.573-1.164.21-.354-.14-6.247-.377-13.097-.524-12.538-.269-14.586-.438-16.829-1.393-3.16-1.346-4.305-4.642-4.336-12.477-.023-5.73.4-7.286 2.602-9.59.45-.47.93-.857 1.063-.86s.44-.179.681-.398c.698-.631 2.877-.858 11.764-.885zm101.81.534c.154-.021.356.016.638.108l.75.243-.132 3.175c-.128 3.067-.152 3.173-.703 3.094-.478-.068-.618-.352-.86-1.742-.349-2-.368-4.124-.043-4.638.09-.14.195-.22.35-.24zm5.49.086c.3 0 .47.576.7 2.382.166 1.31.39 3.006.5 3.77.215 1.522.105 1.745-.359.728-.179-.393-.52-.662-.844-.662-.52 0-.54-.125-.469-3.11.061-2.553.145-3.108.471-3.108zm-3.55 3.253c.012.014.025.093.04.245h-.002c.056.614.057 1.686.002 2.382-.055.695-.1.193-.1-1.117 0-.982.024-1.548.06-1.51zm-8.537 2.788v.001c.08-.005.16-.004.24.001.142.006.331.02.57.042.71.062 1.354.178 1.433.256.221.22-1.324.116-2.063-.14-.275-.096-.343-.148-.18-.16zm3.635.706c-.333 0-.572.414-.36.625.297.298.61.18.61-.228 0-.218-.113-.397-.25-.397zm-9.357 4.837c-4.005 0-5.338.09-6.18.33-2.412.69-3.655 2.784-3.947 6.65-.24 3.175.328 5.664 1.64 7.197 1.378 1.61 3.097 2.146 7.49 2.335 1.976.085 3.74.272 3.923.415.182.144.33.67.33 1.17 0 1.054.392.974.611-.124.244-1.22 1-1.378 6.557-1.378 4.484 0 5.135-.057 6.05-.523 2.223-1.135 3.263-3.907 3.275-8.738.007-2.932-.563-5.002-1.6-5.818-1.609-1.265-2.746-1.394-13.173-1.488a574.66 574.66 0 0 0-4.976-.028zm5.616.57c6.422.016 10.24.322 11.343.913 1.955 1.047 2.712 5.102 1.78 9.535-.54 2.57-1.2 3.683-2.65 4.479-.637.35-1.868.463-6.218.574-2.983.076-5.62.233-5.86.349s-.504.1-.587-.032c-.082-.134-1.79-.313-3.797-.399-5.464-.232-7.057-.858-8.29-3.257-.587-1.143-.648-1.578-.648-4.587 0-3.527.292-4.658 1.562-6.048 1.278-1.4 1.489-1.43 10.454-1.515.97-.01 1.942-.013 2.912-.011zm-72.2 1.27.163.062a.25.25 0 0 1-.021-.035c-.012-.008-.022-.024-.037-.024l-.103-.003zm.193.073.216.08c.024.008-.043-.03-.068-.04a.419.419 0 0 0-.148-.04zm-53.33 7.15-1.02.508c-.56.28-1.39.516-1.842.525-.63.012-1.234.398-2.58 1.648-1.505 1.4-1.755 1.76-1.755 2.539 0 1.03.475 1.566 1.936 2.177.546.228 1.086.679 1.201 1.002.207.58.029 4.044-.46 8.922l-.252 2.514L10.8 46.37l1.757 1.786h-.98c-.852 0-1.075-.14-1.683-1.058-.385-.582-.844-1.058-1.02-1.058-.176 0-.464.482-.64 1.07l-.321 1.071-2.27-.183c-1.883-.153-2.249-.122-2.148.185.132.397 5.08.669 13.375.735l4.036.032v5.646c0 3.106.08 7.65.175 10.098l.172 4.371h.71v-.076l-.153-1.55-.08-1.203-.065-4.328s-.08-4.626-.14-6.938l-.174-6.55h-3.795c-2.086 0-3.795-.09-3.795-.204 0-.113.158-.44.351-.728.193-.287.693-1.355 1.112-2.374.952-2.314 1.367-2.981 1.974-3.174.74-.235.665-1.948-.1-2.238-.636-.243-2.4-3.026-2.773-4.38-.443-1.602-.039-1.668 2.581-.423 3.79 1.801 5.427 1.747 4.44-.146-.398-.762-3.977-4.342-6.393-6.393-.987-.84-1.146-1.06-.623-.867.593.218.722.178.835-.255.074-.282.027-.512-.104-.512s-.24-.166-.24-.368c0-.202-.227-.647-.504-.988zm-.303.917c.282 0 .514.12.514.264s-.304.265-.677.265c-.384 0-.607-.114-.514-.265.09-.145.394-.264.677-.264zm-1.602 1.357c.311.022.775.3 1.489.812l1.178.847-.653.343c-1.788.936-.766 3.205 1.167 2.592.485-.154.558-.342.475-1.217l-.1-1.035 2.605 2.582c3.645 3.613 3.928 4.285 1.432 3.4-.757-.268-2.235-.907-3.286-1.42-2.108-1.026-2.722-.927-2.717.437.003.826 1.013 3.073 2.116 4.708.435.645.791 1.265.791 1.377 0 .177-1.189 3.178-2.554 6.45-.228.545-.507.992-.62.992s-.947-.794-1.854-1.764l-1.65-1.765.17-2.403c.206-2.913.447-5.655.562-6.371.047-.291.095-.738.105-.992.014-.31.235-.463.666-.463.355 0 .72-.12.81-.268.256-.41-.123-1.32-.548-1.32-.27 0-.387-.357-.41-1.257-.04-1.613-.042-1.564.159-3.042.116-.857.266-1.25.667-1.223zm-1.992.23c.061 0-.014.358-.166.794-.152.437-.386.794-.521.794s-.06-.357.164-.794c.226-.436.461-.794.523-.794zm-1.187.792c.022.01-.06.12-.228.333-.2.255-.486.463-.64.463-.15 0-.226-.034-.165-.075.06-.04.349-.25.64-.463.245-.18.37-.268.393-.258zm-1.172 1.06c.064 0 .117.12.117.265s-.126.265-.28.265c-.154 0-.206-.12-.116-.265.09-.145.215-.265.28-.265zm6.717.53c.622 0 .94.424.48.638-.267.125-.267.186 0 .31.182.086.265.264.183.397-.175.283-.747.32-1 .066-.098-.097-.177-.454-.177-.794 0-.435.152-.617.514-.617zm67.989 1.688c-.998.047-3.416 1.24-3.416 1.797 0 .175-.328.017-.728-.35-.868-.797-2.273-.944-3.624-.38-.68.284-.89.507-.77.817.093.245.332.362.56.274.457-.175-1.406 1.524-3.905 3.563-1.99 1.624-2.631 2.34-2.64 2.947-.012.934 2.253 1.039 3.66.169l.952-.588-.6.843c-.33.464-1.074 1.175-1.652 1.58-1.02.716-1.087.922-.647 1.993.135.328.066.463-.235.463-.493 0-.52.123-.172.773.074.138.092.236.012.313l.206-.003h.373a2.21 2.21 0 0 0 .421-.027c.175-.025.35-.064.524-.095.18-.03.36-.063.542-.094.134-.02.265-.06.396-.095.178-.056.36-.099.536-.156a1.33 1.33 0 0 0 .263-.113c.04-.024.077-.05.115-.078-.088.027-.177.06-.264.085-2.388.67-2.4.67-2.006.04.23-.37.24-.674.035-1.124-.25-.55-.127-.78 1.14-2.118 1.328-1.402 1.749-2.367 1.183-2.716-.131-.082-.84.163-1.576.545-.957.496-1.538.642-2.048.514l-.712-.179 1.017-1.041c.56-.573 1.56-1.235 2.222-1.47.663-.237 1.947-.704 2.856-1.04.937-.343 1.72-.5 1.805-.36.225.364.67-.002.585-.483-.064-.36.141-.554.355-.515.13.023.26.13.34.336.096.25-.007.642-.233.892-.51.565-.51.8.003.8.223 0 .48-.195.572-.433.15-.395.197-.392.509.034.206.282.547.414.86.332.416-.108.61.104 1.003 1.09.268.673.52 1.295.56 1.381.02.043-.144.193-.422.4a4.45 4.45 0 0 1 .447-.24c.26-.122.538-.196.815-.266a6.542 6.542 0 0 1-.647-1.13c-.365-.824-.663-1.532-.663-1.573s.244-.01.543.067c.299.077 1.016-.071 1.595-.333 1.035-.466 1.248-.93.494-1.076-.21-.04-.918-.175-1.573-.298-1.025-.193-1.18-.306-1.109-.81.048-.338-.057-.584-.25-.584-.242 0-.254-.08-.045-.29.209-.209.438-.209.829 0 .297.16.637.29.756.288.335-.003 1.433-2.068 1.183-2.223-.074-.045-.188-.062-.33-.055zm41.797.21c-.353-.01-.557.165-1.032.62-.433.415-1.03 1.404-1.328 2.199-.56 1.496-2.403 4.85-3.12 5.677-.38.438-.274.613 1.446 2.382 1.02 1.05 3.388 3.62 5.26 5.71 2.024 2.26 2.83 3.19 3.033 3.66l.08-.027c.326-.142.662-.26 1.006-.352-.006-.306.048-.57.157-.901.39-1.186.926-4.965.745-5.258-.074-.12.002-.263.17-.318.194-.065.065-.48-.363-1.157-.737-1.168-2.213-4.03-2.593-5.03l-.243-.642.985.502c.543.277 1.635.695 2.425.929 2.626.778 3.974.41 3.623-.99-.152-.603-2.141-2.461-3.671-3.428-.474-.3-.729-.688-.729-1.115 0-.525-.133-.655-.67-.655-.368 0-1.231-.285-1.917-.632-.686-.348-1.758-.784-2.38-.97-.409-.122-.673-.196-.884-.203zm-.429.38.779.87c.72.807.856 1.571.153.87-.51-.51-.962-.363-1.38.448-.364.702-1.211 1.323-1.205.883 0-.104.374-.838.828-1.63zm1.209.317.618.185c.707.212 2.865 1.414 2.867 1.597-.003.199-1.964.128-2.256-.082-.15-.107-.486-.533-.75-.947zm-113.46.844c.146 0 .264.12.264.265s-.12.264-.264.264c-.332-.02-.332-.509 0-.53zm64.367.055c.047 0 .085.014.112.041.108.11.021.308-.193.444-.644.407-.93.285-.451-.194.184-.184.394-.294.532-.291zm48.184.85c.095.025.162.178.162.403 0 .3.12.544.264.544s.264-.09.264-.2c0-.11.567-.165 1.258-.122 2.028.127 2.448.277 2.448.878 0 .716.604.51.788-.267.133-.565.253-.51 2.178 1.008 2.238 1.766 2.875 2.59 2.286 2.97-.6.386-2.63-.05-4.795-1.032-1.13-.512-2.137-.85-2.236-.75s.603 1.733 1.562 3.63l1.743 3.452-1.293-.178c-1.708-.235-1.7.234.013.843 1.453.516 1.377.18.802 3.545-.163.956-.383 1.878-.49 2.05-.208.336-1.361-.801-4.778-4.714a129.692 129.692 0 0 0-3.536-3.877l-1.571-1.628 1.4-2.341c.769-1.288 1.449-2.4 1.51-2.473.06-.072.696-.107 1.412-.076.715.03 1.3-.06 1.3-.2s-.238-.253-.53-.253c-.56 0-.757-.886-.264-1.19a.13.13 0 0 1 .103-.021zm-49.442.957c.083.015.097.087.013.223-.079.128-.413.3-.743.384-.578.146-.58.138-.085-.233.356-.265.678-.4.815-.374zm3.537 6.35c-.633.428-1.242.871-1.577 1.16-.542.467-1.086.93-1.633 1.39-.117.098-.328.216-.573.338a3.23 3.23 0 0 0 .405-.14c.15-.06.282-.149.42-.23.125-.079.25-.16.372-.243a1.61 1.61 0 0 0 .253-.214c.12-.115.23-.242.334-.372.145-.184.3-.359.467-.524.113-.112.24-.21.364-.309.121-.089.244-.177.363-.27.16-.118.32-.233.482-.349.111-.075.219-.154.323-.237zm61.29 3.492v.001c-.18-.017-.38.069-.6.253-.28.232-.355.657-.26 1.492l.13 1.168-.566-1c-.66-1.166-1.248-1.598-1.854-1.365-.545.21-.56 1.287-.03 2.312.395.763.39.78-.248.78-.36 0-.737.138-.84.305-.232.374 1.348 1.728 2.273 1.947.364.086.885.46 1.158.833l.497.676-.693-.454c-.382-.25-.848-.394-1.037-.322-.19.073-.57-.033-.846-.235-1.354-.99-2.002.195-.884 1.617.425.54.561 1.038.517 1.893-.053 1.034.024 1.208.716 1.605.765.44.77.458.368 1.301-.37.78-.368.916.028 1.52.266.406.333.727.173.826-.144.09-.262.5-.262.912 0 .244-.062.472-.154.643 1.23 1.156.752 4.758.752 4.758s-.376 1.692-.531 2.535c0 0 .012 1.43.036 2.935l.935.236 1.814-.217-.311 1.893-.105 1.036s-1.975 8.124-1.83 8.504c.342.89.537-.158.788-1.572.355-1.997 1.28-5.637 1.5-6.537.36-1.47.357-2.087.582-2.986l.652.215s.042 1.179.123 2.67c.142.727.37 2.731.378 3.56.013 1.277.183 1.958.526 1.614.051-.05-.073-1.58-.275-3.4-.447-4.002-.233-4.383-.233-4.383l.527 1.078.5 1.633s.607 1.475.957 2.414c.66 1.776 1.138 3.103 2.594 5.653l.856 1.5c.507.613 1.363 2.396 1.369 4.191l-.052.743c-.358 2.607-2.914 7.225-5.73 8.21-.577.255-1.897.363-2.813.36-1.483-.001-2.43-.44-3.887-1.557-.026.14-.039.12-.113.309.04.189.055.018.08.21.318.097.918.583 1.49.858 1.416.68 2.302.507 3.29.462 2.882-.13 4.91-1.742 6.876-5.639.904-1.79 1.04-2.776 1.05-3.806.025-2.192-.59-3.16-2.047-5.793-1.156-1.802-2.284-4.42-2.927-6.179-.345-.946-.597-1.984-.597-1.984l-1.043-3.356.548-.216s2.26-1.61 1.005-1.938c-.353-.092-.508-.29-.416-.528.08-.21.036-.49-.098-.625-.413-.412.34-1.668 1.003-1.67.664-.002 1.212-.813.972-1.438-.088-.23-.391-.416-.675-.416-.455 0-.432-.072.195-.61.642-.553.674-.667.346-1.192-.199-.32-.75-.708-1.223-.865s-.862-.394-.862-.53c0-.133-.347-.242-.772-.242-.991 0-1.07-.293-.594-2.238.215-.88.402-2.804.415-4.276l.025-2.677 1.057.366c.582.202 1.238.44 1.456.532.973.405 2.23.275 2.691-.278.256-.307.47-.433.474-.28s-.107.395-.25.538c-.17.17-.032.28.403.315.497.04.73-.117.924-.626.27-.71.12-1.277-.274-1.034-.125.078-.302.02-.393-.128-.242-.391-1.195-.33-1.195.078 0 .19-.188.577-.418.86-.386.474-.406.476-.263.025.484-1.522.5-1.85.082-1.69-.228.089-.474.004-.547-.186-.073-.19-1.007-.557-2.074-.813-2.59-.624-2.814-.767-3.01-1.92-.364-2.129-.753-3.12-1.298-3.174zm-71.215.976c-.078.008-.123.017-.212.025.063.017.126.038.188.057zm68.484.152c.065.027.077.178.02.397-.161.618-.342.696-.342.148 0-.21.107-.447.24-.53.032-.02.06-.024.082-.015zm.541.504c.045-.045.229.15.407.434.177.285.214.518.083.518-.238 0-.647-.795-.49-.952zm-.572.687c.03-.015.114.082.26.33.147.256.501.464.785.464s.53.12.55.264c.019.145.047.388.065.54.018.15.156.36.307.462.15.104.686 1.004 1.19 2 .505.997 1.14 1.931 1.413 2.077.443.238.475.476.312 2.29-.1 1.113-.33 2.68-.512 3.48-.253 1.11-.454 1.466-.844 1.505-.723.07-1.172-.156-1.869-.947-.746-.847-.774-1.544-.096-2.41.825-1.055.679-1.723-.505-2.31-.757-.374-.976-.61-.81-.878.19-.306.38-.292 1.176.088 1.11.53 1.197.543 1.197.185 0-.148-.417-.468-.926-.71-.556-.266-.926-.634-.926-.923 0-.657.262-.607 1.614.31 1.2.812 1.826.995 1.826.533a.26.26 0 0 0-.256-.264c-.236 0-2.89-3.827-3.647-5.256-.246-.466-.353-.804-.304-.83zm2.827.089c.23.048.577.451.667.92.075.391.1.748.056.794-.138.139-.93-1.103-.93-1.457 0-.153.045-.233.116-.255a.18.18 0 0 1 .09-.002zm-87.537 1.24-.014.13c0 .03.01-.06.011-.092zm-12.13.72c-.788 0-1.694.011-2.585.021.05.016.1.031.145.048.414.158.827.326 1.221.528h3.575a5.148 5.148 0 0 1-.107-.374c-.015-.065-.025-.13-.038-.197a68.482 68.482 0 0 0-2.21-.025zm2.358.6.06 8c.06 7.746.082 9.767-.06 10.399h.736l-.13-8.771a503.05 503.05 0 0 0-.185-8.57 14.869 14.869 0 0 0-.155-.275c-.084-.262-.182-.52-.266-.783zm93.55 1.631c.26-.049 1.17.744 1.17 1.053 0 .123-.174.223-.387.223-.417 0-1.078-1.004-.827-1.255a.081.081 0 0 1 .044-.02zm10.063.064c.043.012.022.19-.059.551-.217.973-.368 1.184-.363.507.014-.32.108-.63.272-.904.074-.108.122-.16.15-.154zm-16.938.209c-.09.023-.066.002-.209.06zm1.017 2.094c.08.074.163.148.246.22.06.052-.118-.11-.177-.165zm6.92 1.18c.118.023.315.146.638.375.436.31.793.677.793.812 0 .305.022.31-.86-.17-.4-.216-.726-.577-.726-.8 0-.165.037-.24.155-.217zm1.13 5.741a.565.565 0 0 1 .216.05c.265.105.958.265 1.54.353 1.043.157 1.047.162.265.319-.436.088-.764.3-.728.475.08.38-.15.37-.86-.04-.62-.357-.843-1.147-.434-1.157zm1.931 1.488 1.445.06c1.124.044 1.413.14 1.3.433-.079.206-.22.69-.315 1.078-.094.387-.303.79-.462.898-.46.307-1.224.234-1.325-.128l-.368-1.336zm3.631.565a.173.173 0 0 1 .092 0 .23.23 0 0 1 .1.062c.093.093-.087.562-.4 1.04l-.57.872.175-.794c.15-.68.386-1.124.603-1.18zm-4.439 1.313h.001c.411 0 .513.115.388.441-.265.69.326.873 2.824.877 1.88.003 2.315.08 2.315.401 0 .288-.294.397-1.075.397-.968 0-1.06.055-.903.55.118.37.017.67-.313.925-.457.354-.46.399-.034.729.41.32.413.389.033.768-.527.528-.25.997.588.997.355 0 .646.106.646.236 0 .34-.723.568-1.209.382-.228-.087-.674-.034-.992.12a8.613 8.613 0 0 1-1.37.476c-.5.118-1.008.192-1.52.22-.719.02-.729-.003-.729-1.6 0-.892.18-2.05.398-2.575.22-.525.383-1.045.365-1.157-.018-.112-.02-.65-.002-1.195.026-.822.127-.991.589-.992zm-3.02 1.006-.074.118c.027-.038.05-.078.074-.118zm-125.8 3.897c.21.04.418.083.627.13.536.117 1.085.157 1.632.173.903.024 1.806.034 2.707-.025a63.57 63.57 0 0 1 3.153-.128l-6.02-.12c-.744-.014-1.406-.02-2.099-.03zm64.59 13.11c-.367.076-.734.144-1.101.213-.394.07-.791.13-1.19.175-.285.026-.593.06-.982.083-.534.023-1.07.02-1.604.02h-2.517l-.05.01c-.4.063-.795.104-1.198.137-.612.037-1.225.053-1.838.05h-1.266c-.045.005-.09.005-.134.005.01.57.05.942.125 1.073.15.257.273.315.277.13.023-.95.821-.07 1.798 1.985 3.09 6.494 5.354 14.812 5.354 19.659v1.796l-.103.032c.225.073.432.16.623.26.11-.032.22-.063.333-.091l-.174-2.1c-.537-6.506-2.594-13.867-5.48-19.61-.62-1.233-1.074-2.29-1.008-2.348s3.097-.185 6.735-.282l6.614-.175-.042 8.936c-.024 4.916-.11 10.476-.193 12.357-.088 2.035-.052 3.321.09 3.175.535-.548.658-3.073.595-12.15-.037-5.24.01-9.994.104-10.566l.17-1.04.647 1.57c.356.863.818 1.944 1.027 2.403.21.458.38 1.028.38 1.266s.184.712.408 1.054c.48.731 2.534 6.724 3.41 9.943a74.952 74.952 0 0 0 1.45 4.594c.397 1.108.597 1.699.644 2.055.183-.173.377-.335.58-.484l-.215-.54c-.624-1.565-1.708-4.824-2.135-6.419-.882-3.302-2.127-7.09-2.846-8.66-.422-.919-.766-1.788-.766-1.93 0-.142-.477-1.405-1.06-2.803-.581-1.399-1.057-2.589-1.057-2.645s.223-.1.495-.1c.343 0 .494-.24.62-.97h-1.16c-.375-.001-.75-.005-1.126-.014-.67-.015-1.338-.038-2.007-.052zm6.62.066.034.75 5.262-.032 5.26-.032-.17 1.002c-.605 3.534-.777 5.376-.797 8.543-.023 3.734.106 4.434 2.195 11.9.27.966.469 1.746.516 2l.093.059c.123-.057.246-.111.372-.162l.093-.034-1.273-4.781c-1.437-5.396-1.442-5.42-1.408-9.115.02-2.16.23-4.862.504-6.482l.468-2.779h.793c.594 0 .774-.11.72-.443-.006-.032.002-.057.002-.087-.114-.01-.228-.018-.34-.03-.456-.054-.914-.087-1.364-.176l-.075-.014a4.125 4.125 0 0 1-.111-.008l-.119-.006c.105-.006.065-.003-.12-.003h-3c-.334 0-.67 0-1.004.006-.302.007-.603.026-.905.046-.538.016-1.077.013-1.616.012-.61 0-1.22 0-1.83-.014-.64-.01-1.278-.05-1.914-.117.047-.002.19-.002.142-.003-.135-.004-.271 0-.407 0zm-41.693 1.697c-.035.041-.07.068-.11.068-.194 0-.66.565-1.032 1.256l-.678 1.257.24-2.275-1.364.08-1.366.08-.203 1.321a542.51 542.51 0 0 0-.584 3.97l-.38 2.646.123-2.381c.068-1.31.2-3.127.29-4.036l.165-1.653h-1.463c-1.624 0-1.78.157-1.794 1.807l-.008.971-.56-1.27c-.55-1.247-.58-1.268-1.645-1.19l-1.085.08-.175 1.719c-.14 1.324-.294 2.647-.46 3.969-.117.88-.22 1.762-.311 2.646-.014.218-.134.04-.266-.397-.133-.437-.186-.943-.118-1.125.067-.182.02-.33-.103-.33-.124 0-.433-.923-.686-2.051-1.2-5.326-1.004-5.036-3.167-4.711-1.114.167-1.128.183-1.942 2.208a808.183 808.183 0 0 1-1.889 4.645c-.588 1.433-1.07 2.653-1.07 2.712s.834.107 1.853.107c1.675 0 1.852-.05 1.852-.53 0-.428.176-.528.926-.528.668 0 .926.116.926.418 0 .35.302.404 1.852.331 1.02-.048 1.852-.028 1.852.044 0 .073.649.092 1.442.043l1.443-.09.166-1.233c.25-1.866.275-1.874.784-.276.352 1.106.582 1.46.898 1.383.235-.058 1.497-.19 2.805-.296 2.377-.192 2.38-.193 2.538-.986l.158-.794.3.728c.193.465.505.67.852.728.157.026.613-.108.778-.3.19-.22.33-1.152.19-1.824-.032-.508-.775-1.47-.391-2.228.177-.39 1.374-2.852 1.336-4.321-.277-.026-.647-.316-.92-.392zm-.047.477.67.283c.055.73-.726 2.549-1.089 3.26-.507.995-.519 1.137-.147 1.856.576 1.113.54 2.658-.06 2.658-.325 0-.654-.49-1.089-1.61-.344-.886-.723-1.51-.844-1.39-.12.121-.256.877-.3 1.677-.08 1.429-.097 1.457-.94 1.538-.69.066-.86-.014-.86-.405 0-.868.804-7.024.949-7.257.076-.124.445-.226.82-.226.67 0 .677.02.514 1.522-.267 2.447.145 2.54 1.323.296zm-26.21.384c-2.896 0-2.787-.117-2.8 2.998-.004 1.189-.114 2.98-.243 3.982-.13 1-.168 1.993-.087 2.204.12.312.704.367 3.107.296 2.48-.074 3.04-.17 3.46-.59 1.398-1.398 1.558-3.033.403-4.112-.72-.674-.748-.76-.346-1.161.69-.69.518-2.292-.323-3.015-.62-.535-.981-.602-3.17-.602zm20.4.045c.392.03.366.216.259.955-.078.54-.218 2.255-.31 3.81-.167 2.795-.178 2.83-.907 3.084-.722.252-.756.22-1.57-1.57-.883-1.94-1.348-2.31-1.348-1.07 0 .417-.076 1.31-.168 1.985-.163 1.184-.2 1.227-1.06 1.227-1.053 0-1.047.043-.47-3.44.228-1.382.436-2.99.46-3.572.027-.582.137-1.027.246-.991.11.036.435.065.724.065.34 0 .657.303.898.86.204.473.554 1.098.776 1.39.397.52.405.518.542-.133.107-.535.204-1.072.29-1.61.14-.876.225-.953 1.095-.986.236-.009.413-.015.544-.004zm-10.796.128v.001c.252 0 .503.016.754.046.663.077.877.25.996.8.083.384.22.998.303 1.36.084.365.213.96.288 1.323.075.364.36 1.418.637 2.343.709 2.373.696 2.42-.658 2.42-.937 0-1.186-.101-1.298-.53-.112-.427-.36-.528-1.31-.528-.995 0-1.22.1-1.476.662-.25.548-.485.66-1.383.66-1.285 0-1.336.339.686-4.404.794-1.862 1.443-3.529 1.443-3.705 0-.29.36-.444 1.017-.448zm-11.71.489 2.27.005c1.51.004 2.413.125 2.7.363.595.494.54 1.935-.107 2.757-.53.675-.532.686-.02.96 1.49.798 1.754 2.022.714 3.323-.619.774-.7.796-3.31.885l-2.676.09.152-1.81c.083-.996.18-2.883.215-4.192zm2.76 1.045a2.388 2.388 0 0 0-.512.049c-.67.133-.815.29-.815.88 0 .393.08.795.175.892.296.296 1.816.197 2.154-.141.77-.77.13-1.661-1.002-1.68zm.15.674c.43 0 .643.124.574.33-.167.51-1.258.583-1.258.086 0-.27.24-.416.685-.416zm8.87.782c-.285.043-.584.491-.852 1.34-.23.725-.36 1.38-.287 1.451.297.297 1.92.11 2.053-.237.078-.204.01-.858-.15-1.456-.21-.776-.48-1.14-.764-1.098zm.21.674.01.86c.004.472-.103.86-.24.86-.453 0-.504-.395-.135-1.062zm-9.187 1.754a3.046 3.046 0 0 0-.368.013c-.804.078-.884.167-.96 1.077-.08.972-.063.992.838.992 1.31 0 1.758-.235 1.758-.922 0-.725-.457-1.136-1.268-1.16zm-.43.522h.001c.115-.005.26.003.44.021.551.053.86.225.86.48s-.309.427-.86.48c-.726.07-.86-.005-.86-.48 0-.356.075-.487.42-.501zm74.274 16.07-.004.002c.035 0 .07 0 .106-.002-.034-.002-.067 0-.101 0zm6.96.827c-.02 0-.04.002-.06.004l.04.01.033.005-.013-.018zm-.33.026-.027.003.233.208a1.996 1.996 0 0 0-.206-.21z"/><g stroke-width=".265"><path d="M47.56 48.741c-.46-1.196.045-3.55.76-3.55.31 0 .402.32.4 1.39-.002.763-.076 1.656-.163 1.983-.185.688-.76.79-.996.177zm.55-1.748c-.084-.21-.147-.148-.16.16-.011.28.05.435.139.347s.098-.316.02-.507zm45.43 32.748c-.078-.204-.103-.77-.057-1.257.066-.684.22-.904.68-.97.65-.092.734.255.43 1.772-.17.848-.797 1.12-1.052.455z"/><path d="m81.45 38.271-.853.577-.345.23-.137.099c-.193.175-.693.51-1.28.853-.9.543-1.76 1.149-2.574 1.813l-1.763 1.48c-.303.256-1.315.696-2.25.98l-1.697.52v-.004l-.023.013-1.06.177-.93.117c-.098.05-.256.064-.496.064-.394 0-2.55.112-4.792.25s-6.07.317-8.507.397l-4.433.142v-.66c0-.47-.143-.66-.5-.66-.313 0-.562-.246-.666-.66-.154-.611-.284-.661-1.72-.661-1.143 0-1.596-.106-1.709-.4-.19-.494.251-1.718.62-1.718.482 0 .287-1.017-.227-1.18-.274-.087-1.014-.044-1.64.097-.629.141-1.307.165-1.508.052-.2-.112-1.887-.149-3.747-.082-2.346.085-3.44.032-3.566-.175-.288-.465-.875-.353-1.466.28-.402.433-.54.936-.54 1.985v1.406l.992.05c2.852.148 3.241.289 3.241 1.168 0 .387.155.633.397.633.225 0 .397.237.397.546 0 1.443 1.375 2.274 3.324 2.007 1.343-.184 1.725.2 1.226 1.233l-.214.44-.024.184.003.24.041.2.03.15.06.134.077.1a.193.193 0 0 1 .09.044c.263.218.775.25 1.654.104 1.402-.232 2.716-.16 3.126.174.145.12.83.3 1.521.404 1.223.182 1.257.212 1.257 1.107v.921l4.035-.17c4.546-.194 8.036-.537 10.398-1.025l1.6-.33-.61 3.014c-.336 1.66-.663 3.102-.727 3.206s-.233.895-.376 1.757a675.06 675.06 0 0 1-.942 5.404c-.944 5.315-1.979 17.073-1.606 18.247.172.543.82.72.925.31l.008-.046c.003-.018.006-.036.007-.056a.08.08 0 0 1 .01-.044l.002-.01.039-.29 1.32-.127.01.008 3.303-.001c1.856-.001 4.724-.08 6.37-.174l2.994-.174v.002l.407.039.103.347.237.283.297.164.634.203.088-.035.042-.098.01-.276-.09-.455v-.258l.14-.016.38-.034.268-.094.274-.185.095-.382c.021-.418.085-.833.192-1.238.06-.207.106-.32.145-.326.065-.008.114.288.183.966l.131 1.3 10.518-.126-.004.017 1.404-.02 1.002-.055.205-.027.14-.125.04-.05c.192-.514 1.031-.843 1.263-.47.081.133.495.24.92.24.602 0 .81-.144.938-.653.144-.575.21-.607.554-.264.792.792 1.795.275 1.631-.84-.102-.69-.042-.757.693-.757.661 0 .818-.118.882-.663.056-.482-.209-.94-.974-1.688l-1.05-1.027.151-1.817.153-1.816-1.56-.043-1.56-.045 1.585-.154c1.227-.12 1.605-.26 1.674-.62.205-1.08-2.144-9.258-4.122-14.352-2.446-6.3-4.81-9.69-10.75-15.41-1.873-1.805-2.934-2.986-3.416-3.81l-.002-.002zm-.338 1.197 3.847 3.854c5.22 5.227 6.468 6.832 8.578 11.045 2.082 4.158 6.05 16.889 5.396 17.31-.412.267-4.508.537-4.712.31-.104-.113-.392-1.398-.641-2.853-.85-4.957-2.615-10.98-3.22-10.98-.426 0-.45.387-.115 1.915.136.62.445 2.26.687 3.64.242 1.384.605 3.179.806 3.99.283 1.139 1.434 8.25 1.434 8.857 0 .065.172.119.382.119.63 0 1.206-1.103 1.206-2.308v-1.132h2.116c2.385 0 2.438.062 1.808 2.164-.308 1.028-.304 1.04.951 2.313.9.914 1.167 1.34.928 1.488-.21.13-.54-.053-.896-.498-1.018-1.276-1.647-.587-.806.883.484.847.494 1.323.03 1.323-.366 0-1.22-1.765-1.22-2.518 0-.216-.195-.392-.432-.392-.368 0-.406.224-.265 1.52.17 1.556-.073 2.394-.597 2.07-.162-.1-.295-.65-.295-1.225 0-1.36-.613-1.392-.944-.05-.182.734-.4 1.014-.84 1.077-.349.05-.596.27-.596.53 0 .404-.531.437-6.085.368l-6.087-.076v-2.9c0-2.301-.076-2.902-.367-2.902-.38 0-.414.136-.996 3.903-.286 1.85-.414 2.183-.84 2.183-.373 0-.468.137-.365.529.076.29.12.52.096.508s-.19-.08-.372-.154-.33-.314-.33-.535c0-.352-.77-.38-6.284-.235-3.456.092-6.912.232-7.68.31l-1.396.145.16-2.6c.292-4.744.922-10.761 1.448-13.843.515-3.017.863-4.805 2.254-11.584.397-1.933.65-3.584.564-3.67s-1.114.034-2.283.27c-2.59.522-5.934.873-10.342 1.085l-3.318.16-.353-2.192c-.194-1.206-.408-2.62-.476-3.143l-.123-.952 2.445-.173a82.47 82.47 0 0 1 4.82-.174c8.061 0 15.668-1.075 17.293-2.443.392-.33 1.126-.955 1.632-1.388.506-.434 1.702-1.274 2.657-1.868l1.737-1.081zM41.29 40.655c1.166-.007 1.716.133 1.065.351-.46.153-.115 1.009.406 1.009.223 0 .405-.166.405-.37 0-.454.65-.727 1.217-.51.241.088.51.003.658-.207.175-.277.234-.217.237.235.002.332-.174.673-.392.756-.567.218-.49.85.188 1.554.508.53.766.59 1.97.466 1.326-.137 1.393-.113 1.56.554.117.466.353.697.712.697.49 0 .524.12.387 1.39-.083.762-.06 1.941.05 2.62.158.971.126 1.201-.15 1.094-.194-.074-.351-.003-.352.158 0 .383-.344.373-.74-.022-.301-.303-3.426-.446-4.286-.197-.323.093-.38-.14-.307-1.258.072-1.133-.002-1.429-.43-1.695-.315-.198-.466-.512-.388-.81.093-.356-.018-.488-.41-.488-.297 0-.585.138-.641.307-.131.393-1.264-.544-1.264-1.046 0-.643-1.155-.238-1.352.474l-.183.662-.027-.727c-.016-.46-.173-.728-.423-.728-.23 0-.397-.24-.397-.566 0-.889-.767-1.269-2.58-1.278l-1.653-.008v-.796c0-1.466.398-1.766 2.08-1.571.82.095 2.481.098 3.691.008.504-.038.96-.056 1.349-.059zm-1.197 5.15c.072-.02.18.102.254.3.18.465.026.547-.235.125-.096-.155-.118-.34-.048-.408a.062.062 0 0 1 .029-.017zm1.22.972h.001c.115 0 .276.18.36.397.103.269-.013.396-.36.396s-.463-.127-.36-.396c.083-.218.244-.396.359-.397zm-2.641 1.697c-1.31.01-2.883.055-4.37.14-2.619.147-5.207.272-5.75.275l-.99.004-.069 9.053-.07 9.05-.926.191a4.174 4.174 0 0 1-.499.063l-.04 2.123-.663-.017c-.212.143-.616.175-1.475.175-1.012 0-1.374-.033-1.497-.235l-7.317-.013-11.18-.257-1-.09c-.103.406-.468 1.031-.815 1.396-.522.55-.607.846-.475 1.654.205 1.265 1.244 1.928 3.397 2.17 3.72.416 27.99.205 33.83-.296l1.818-.156-.001.01.647-.053-2.12 27.298-.834.167-.002.024-1.588.318c-3.355.674-7.553 1.166-11.112 1.3-2.037.078-4.05.25-4.47.386-.423.135-1.436.245-2.252.245s-1.9.128-2.408.285c-1.156.36-3.901.699-8.31 1.027-.4.03-.75.057-1.071.085.1.187.193.379.295.554l.01.019c3.952-.291 9.717-.886 10.8-1.141.581-.137 2.903-.39 5.159-.56 2.255-.173 5.946-.548 8.202-.836 3.59-.46 4.987-.848 4.987-.848-.025.852-.049 1.357-.056 3.795 0 2.76-.225 2.892-.632 3.012-.88.26-12.622 2.13-16.073 2.56-1.019.128-2.567.35-3.44.497-.873.146-3.02.484-4.77.75l-2.815.428c-.018.19-.045.374-.082.553a55.697 55.697 0 0 0 3.036-.376c3.797-.59 8.175-1.244 9.525-1.425 2.888-.388 14.229-2.218 15.214-2.455.498-.12.524-.305.436-3.24l-.068-3.199.017-.98 2.656-.628.059-.523c.106-.945.317-3.862.472-6.481.154-2.62.532-7.68.84-11.245l.677-7.846c.132-1.55.317-1.67 2.611-1.676a35.68 35.68 0 0 0 2.977-.173l1.626-.17v-4.486l-5.472.372v-.018l-.773.09c.086.06-.053.105-.37.105a1.41 1.41 0 0 1-.314-.028l-.076.01-2.733.028-.186-6.763v-.02a294.796 294.796 0 0 1-.13-7.912v-4.85h.004l-.001-1.215zm-.307.473c.189.012.207.068.063.168-.313.217-.348 1.796-.22 9.964l.153 9.707-2.787-.19c-2.235-.153-2.83-.118-3.01.174-.164.265-1.028.39-3.146.453l-2.92.09v-.817c0-.69.1-.817.645-.817.355 0 .724-.126.82-.282.096-.155.157-4.246.136-9.092l-.04-8.81 4.18-.178c2.3-.098 4.716-.242 5.37-.32a8.17 8.17 0 0 1 .51-.047c.1-.006.183-.007.246-.003zm93.117 8.149c-.347 0-1.002 1.533-1.002 2.346 0 .348.696.407.9.076.077-.122.218-.718.315-1.322.139-.87.095-1.1-.213-1.1zm1.014 2.913c-.203-.017-.5.884-.506 1.773-.005.673.36.739.54.037.197-.763.249-1.787-.034-1.81zm1.52 1.874c-.246 0-.757 1.327-.757 1.739 0 .412.018.616.265.616s.687-1.397.687-1.808c0-.412.052-.547-.195-.547zm-42.563.85c.06.011.16.238.264.713.1.457.128.885.06.953-.067.067-.198-.257-.291-.722-.124-.62-.111-.96-.033-.945zm43.917 1.15c-.218 0-.284.43-.43.779-.142.203-.363.552-.143.736.218 0 .41-.487.514-.68.12-.222.278-.834.059-.834zm-43.443.882c.11.057.329.81.6 2.115.22 1.058.353 1.972.294 2.032-.131.13-.971-3.14-.971-3.78 0-.274.027-.392.077-.367zm-87.941 4.27c.092.003.17.028.214.072.088.088-.068.15-.347.139-.308-.013-.37-.076-.16-.16a.728.728 0 0 1 .292-.052zm29.933.004c.134 0 .275.005.416.017l1.026.09-1.245.128c-.684.07-1.146.03-1.027-.09.09-.09.429-.144.83-.145zm14.275.16v3.452l-2.05.167c-1.128.092-5.028.346-8.666.566-6.383.385-27.79.462-32.147.117-2.758-.22-4.015-1.54-2.645-2.78.29-.262.53-.651.53-.863 0-.288.215-.349.86-.238.472.08 6.395.226 13.162.32 11.283.16 25.127-.111 29.435-.577l1.521-.164zm-35.72.098c.744 0 1.488.013 2.05.038 1.129.05.206.09-2.05.09-2.255 0-3.177-.04-2.05-.09a49.777 49.777 0 0 1 2.05-.038zm16.67.263c.504 0 1.007.015 1.39.04.763.055.138.098-1.39.098s-2.153-.043-1.39-.096c.383-.027.885-.04 1.39-.04v-.002zm63.888.093c.016.006.033.03.052.076.073.182.073.48 0 .662-.074.182-.134.034-.134-.33 0-.273.034-.426.082-.408zm.315 1.601c.03.012.048.166.06.469.017.405.21.803.428.887.265.102.395.515.392 1.25-.002.602-.107 1.26-.234 1.46-.278.438-.954-3-.75-3.808.038-.148.067-.234.09-.253.005-.004.01-.006.014-.005zm-12.221 5.809c.016.006.032.03.05.076.074.18.074.48 0 .66-.073.183-.132.033-.132-.33 0-.274.034-.424.082-.406zm12.042 28.89-2.637.05-2.846.054-.002-.004-1.52.042a1.1 1.1 0 0 1-.132.607c-.67 1.255-.32 1.554 2.25 1.92 2.058.295 2.417.289 2.663-.048.248-.34.445-.34 1.52-.018 1.689.509 4.185.765 5.34.548.78-.146.943-.283.876-.733-.113-.756-1.182-1.497-2.732-1.892l-1.293-.33-.004-.017-1.483-.178zm-14.765.611-1.127.093c-.316.158-4.76.37-5.305.25a.358.358 0 0 1-.102-.043l-.952-.04.03.866 2.91-.19c2.518-.165 2.912-.136 2.912.213 0 .222.14.45.312.508.175.058.237.302.14.55-.14.365-.534.448-2.111.448-1.066 0-2.06-.12-2.207-.267-.18-.18-1.086-.182-2.764-.005-3.108.328-3.953.336-3.953.04 0-.256.694-.537 2.962-1.198 1.166-.34 1.428-.43 1.535-.974l-.528-.023v.004l-1.257.395a29.76 29.76 0 0 1-1.966.55c-.865.19-1.54.827-1.54 1.453 0 .43.453.463 6.152.444l6.15-.02.09-.926c.048-.508.209-1.073.359-1.254.098-.117.185-.415.26-.874zm12.18.012c3.365.003 5.5.382 6.744 1.197.535.35.602.495.314.677-.377.239-1.553.268-2.483.06a164.85 164.85 0 0 1-2.572-.63c-2.46-.617-2.322-.612-2.322-.085 0 .37-.24.402-1.786.237-2.198-.234-2.362-.327-1.685-.958.468-.436.962-.5 3.79-.498z"/><g stroke-width=".07" font-family="sans-serif"><text xml:space="preserve" x="125.768" y="25.069" font-size="4.586" style="line-height:1.25" transform="translate(.04 -.319)"><tspan x="125.768" y="25.069" font-weight="bold">Amateur ...</tspan></text><text xml:space="preserve" x="37.897" y="13.394" font-size="7.056" font-weight="bold" style="line-height:1.25" transform="translate(.04 -.319)"><tspan x="37.897" y="13.394">This is a</tspan><tspan x="37.897" y="22.213">Robbery !</tspan></text><text xml:space="preserve" x="133.307" y="89.235" font-size="4.586" style="line-height:1.25" transform="translate(.04 -.319)"><tspan x="133.307" y="89.235" font-weight="bold">Bonus</tspan></text><text xml:space="preserve" x="116.449" y="82.768" font-size="4.586" style="line-height:1.25" transform="translate(.04 -.319)"><tspan x="116.449" y="82.768" font-weight="bold">Execs</tspan></text></g><path fill="none" stroke="#000" d="M40.636 45.013c.768-1.204 2.382-1.514 5.372-1.197"/></g><path d="M117.86 40.96a.158.158 0 0 1-.108.05c-.99 0-2.505 3.058-4.588 9.261-2.168 6.452-3.442 12.577-3.798 18.256-.068 1.092-.325 3.294-.57 4.895-.344 2.237-.447 4.717-.447 10.716v7.805l2.117.265.074 3.561c.053 2.556-.042 4.025-.337 5.201-.543 2.165-1.932 6.177-2.378 6.869-.46.713-1.161 3.033-1.472 4.87-.135.798-.486 1.776-.779 2.172-.883 1.195-.709 1.419 1.69 2.166 2.369.74 3.236.85 3.378.434.048-.143.743.053 1.543.436.8.382 1.932.782 2.514.888 3.71.673 7.978-.304 6.393-1.463-.242-.177-.44-.448-.44-.603 0-.154-.447-.427-.992-.606-.546-.179-1.255-.496-1.576-.705-.57-.37-.574-.405-.152-1.481.424-1.08 3.1-5.519 4.072-6.755.359-.456.527-.528.62-.264.642 1.839.932 2.8.935 3.11.004.415 2.736 5.982 3.309 6.743.259.344.587.456 1.068.364.446-.086.745-.002.835.231.077.2.46.364.854.364 1.078 0 3.992-1.059 3.992-1.45 0-.435.592-.666 1.708-.666 1.332 0 3.278-.99 4.828-2.456 1.519-1.436 1.689-1.965.87-2.705-.514-.466-.602-.448-3.108.622-2.561 1.093-3.24 1.281-3.24.9 0-.108-.188-1.09-.417-2.182-.507-2.421-.22-5.564.858-9.38l.687-2.435.008-.028.354-1.279c-1.786-1.317-3.527-3.672-4.309-5.215-.57-1.126-.659-1.585-.537-2.77.08-.78.184-1.348.348-1.874.067-.27.191-.531.28-.711.162-.615.342-1.315.93-2.252.209-.342.36-.854.597-1.254.11-.206.223-.415.332-.606.606-1.067 1.062-1.917 1.252-2.27s.376-.584.465-.69c.08-.097.262-.388.375-.562.107-.167.405-.653.77-1.086.363-.432.526-.604.532-.728.006-.125.393-.83.81-1.316l.24-.295c-.367.022-.226-.021-.496-.021-.01.004-.017.009-.026.012-.213.081-.467.405-.565.719s-.46.907-.804 1.318c-.344.412-.638.899-.832 1.143-.133.168-.227.314-.479.69-.182.271-.357.564-.62.976-.069.108-.454.912-1.238 2.33-.783 1.42-1.275 2.408-1.426 2.845-.065.122-.168.583-.37.972-.59 1.13-.652 2.982-.424 3.983.382 1.682 1.565 3.517 2.877 5.037a50.74 50.74 0 0 0 1.774 1.73c-.164.638-1.73 5.573-2.033 8.14-.237 2.007-.235 3.11.006 4.738.464 3.123.422 3.049 1.708 3.049.616 0 1.233-.108 1.371-.24.139-.132 1.011-.557 1.94-.944 2.285-.953 2.684-.573 1.097 1.044-1.334 1.36-3.586 2.521-4.888 2.521-1.143 0-1.734.228-1.734.668 0 .193-.78.606-1.75.93-1.785.594-1.964.562-2.302-.404-.058-.167-.328-.154-.744.036-.59.269-.7.217-1.146-.532a35.919 35.919 0 0 1-3.342-7.44c-.658-2.092-.983-2.78-1.287-2.722-.43.082-3.592 4.636-4.459 6.421-1.195 2.461-1.374 2.875-1.374 3.17 0 .303 1.67 1.234 2.844 1.584.327.097.595.348.595.556s.149.387.33.396c.183.009.062.125-.268.257-.878.353-3.735.514-4.956.28-.582-.112-1.877-.602-2.878-1.09-1.665-.81-1.847-.848-2.143-.443-.3.41-.443.403-2.017-.105a274.78 274.78 0 0 0-2.004-.642c-.216-.066-.157-.394.196-1.087.28-.547.583-1.569.676-2.272s.273-1.34.4-1.419.23-.41.23-.738.227-1.068.506-1.645c.68-1.406 1.778-4.558 2.433-6.98.649-2.403.872-5.547.583-8.21l-.215-1.985-1.933-.16-.19-3.284c-.226-3.927.03-10.536.56-14.398.211-1.538.495-4.165.63-5.838.508-6.237 1.55-11.135 3.73-17.535 1.706-5.012 2.715-7.283 3.603-8.11l.689-.642.423.55c.233.301.782 1.004 1.218 1.56.437.557 1.531 2.116 2.432 3.466s2.21 3.198 2.91 4.106c1.416 1.837 2.463 3.335 2.463 3.523 0 .068.387.716.86 1.439.841 1.286 1.522 1.707 1.522.94 0-1.04-.626-3.094-1.032-3.386-.69-.498-.784-1.072-.256-1.578.453-.432.498-.374.988 1.259.282.941.452 1.949.376 2.239-.104.396-.007.527.39.527 1.02 0 4.908 4.98 5.23 6.698.104.551.276.862.448.94l.046-.069c.112-.161.215-.328.318-.495l-.004-.068c-.024-.302-.061-.61-.045-.913-.012-.158-.038-.314-.043-.472-.08-.177-.154-.337-.226-.534-.226-.12-.508-.43-.829-.927-.396-.614-1.585-2.115-2.642-3.335-1.562-1.803-2.019-2.54-2.438-3.938-.126-.42-.217-.747-.28-1.035l-.085-.196-.302-.564-.42-.225-.473-.017-.048.038.003.004c0 .064-.025.083-.081.059l-.428.522-.218.21c.009.023.01.038.002.042-.065.04-.134.137-.198.256l-.135.367.034.51.264.65.39.404.356.413.14.182.006.019c.084.096.164.243.209.416.056.217.08.404.067.485l.146.475-.84-1.24-.284-.503-.693-1.15-.006-.022c-.008-.007-.015-.022-.019-.054-.02-.159-.78-1.253-1.69-2.431a69.047 69.047 0 0 1-2.953-4.182c-.714-1.122-1.649-2.438-2.077-2.926a7.51 7.51 0 0 1-.592-.744l-.04-.045zm18.478 21.039.006.023c.001-.004.005.002.009.01zm4.639 11.228c-.114.075-.314.206-.194.149a.461.461 0 0 0 .194-.149z"/><path stroke="#000" stroke-width=".265" d="M110.68 91.99c3.645.279 17.959 1.003 21.733.88m-15.623 22.44c-3.791.542-9.392-1.708-9.978-2.023m21.598 3.123c1.66-.555 6.163-3.235 6.192-4.218"/><text xml:space="preserve" x="2.125" y="126.179" stroke-width=".265" font-family="sans-serif" font-size="3.528" style="line-height:1.25"><tspan x="2.125" y="126.179">Copyright by Steve Kelley</tspan></text><g fill="none" stroke="#000" stroke-width=".265"><path d="m128.17 55.383 1.65 3.665 2.906 5.33.971 1.485.598 1.82"/><path d="m114.2 60.944 5.844 13.213 14.854 1.982.589-8.278-8.855-1.088-6.272-14.164m6.09 13.61-3.642 2.779m4.422-2.116-1.29 1.43"/><path d="m117.25 42.465 4.559 8.649 2.457.054-.468 5.31 9.636 11.088"/></g></svg>